G04 #@! TF.GenerationSoftware,KiCad,Pcbnew,5.1.5+dfsg1-2build2*
G04 #@! TF.CreationDate,2021-05-18T14:50:11+02:00*
G04 #@! TF.ProjectId,lensmount-v1.0,6c656e73-6d6f-4756-9e74-2d76312e302e,rev?*
G04 #@! TF.SameCoordinates,Original*
G04 #@! TF.FileFunction,Soldermask,Top*
G04 #@! TF.FilePolarity,Negative*
%FSLAX46Y46*%
G04 Gerber Fmt 4.6, Leading zero omitted, Abs format (unit mm)*
G04 Created by KiCad (PCBNEW 5.1.5+dfsg1-2build2) date 2021-05-18 14:50:11*
%MOMM*%
%LPD*%
G04 APERTURE LIST*
%ADD10C,0.800000*%
%ADD11C,6.000000*%
%ADD12C,0.985520*%
%ADD13C,0.988060*%
%ADD14C,0.784860*%
%ADD15C,1.800000*%
G04 APERTURE END LIST*
D10*
X121590990Y-118409010D03*
X120000000Y-117750000D03*
X118409010Y-118409010D03*
X117750000Y-120000000D03*
X118409010Y-121590990D03*
X120000000Y-122250000D03*
X121590990Y-121590990D03*
X122250000Y-120000000D03*
D11*
X120000000Y-120000000D03*
D10*
X121590990Y-78409010D03*
X120000000Y-77750000D03*
X118409010Y-78409010D03*
X117750000Y-80000000D03*
X118409010Y-81590990D03*
X120000000Y-82250000D03*
X121590990Y-81590990D03*
X122250000Y-80000000D03*
D11*
X120000000Y-80000000D03*
D10*
X81590990Y-118409010D03*
X80000000Y-117750000D03*
X78409010Y-118409010D03*
X77750000Y-120000000D03*
X78409010Y-121590990D03*
X80000000Y-122250000D03*
X81590990Y-121590990D03*
X82250000Y-120000000D03*
D11*
X80000000Y-120000000D03*
D10*
X81590990Y-78409010D03*
X80000000Y-77750000D03*
X78409010Y-78409010D03*
X77750000Y-80000000D03*
X78409010Y-81590990D03*
X80000000Y-82250000D03*
X81590990Y-81590990D03*
X82250000Y-80000000D03*
D11*
X80000000Y-80000000D03*
D12*
X115691000Y-76385000D03*
X113659000Y-76385000D03*
D13*
X114675000Y-81465000D03*
D14*
X114040000Y-77655000D03*
X115310000Y-77655000D03*
X114040000Y-78925000D03*
X115310000Y-78925000D03*
X114040000Y-80195000D03*
X115310000Y-80195000D03*
D15*
X101900000Y-122200000D03*
X104125000Y-121875000D03*
X99700000Y-122325000D03*
X106275000Y-121400000D03*
X96175000Y-122000000D03*
X108425000Y-120650000D03*
X94000000Y-121500000D03*
X91900000Y-120850000D03*
M02*
