G04 #@! TF.GenerationSoftware,KiCad,Pcbnew,5.1.5+dfsg1-2build2*
G04 #@! TF.CreationDate,2021-05-18T14:50:11+02:00*
G04 #@! TF.ProjectId,lensmount-v1.0,6c656e73-6d6f-4756-9e74-2d76312e302e,rev?*
G04 #@! TF.SameCoordinates,Original*
G04 #@! TF.FileFunction,Paste,Bot*
G04 #@! TF.FilePolarity,Positive*
%FSLAX46Y46*%
G04 Gerber Fmt 4.6, Leading zero omitted, Abs format (unit mm)*
G04 Created by KiCad (PCBNEW 5.1.5+dfsg1-2build2) date 2021-05-18 14:50:11*
%MOMM*%
%LPD*%
G04 APERTURE LIST*
%ADD10C,0.100000*%
%ADD11R,0.500000X0.600000*%
%ADD12R,0.600000X0.500000*%
%ADD13R,0.800000X0.900000*%
%ADD14R,0.900000X0.800000*%
%ADD15R,0.600000X0.900000*%
%ADD16R,0.900000X0.600000*%
G04 APERTURE END LIST*
D10*
G36*
X122536221Y-85004135D02*
G01*
X122527779Y-85001575D01*
X122519999Y-84997416D01*
X122513180Y-84991820D01*
X122507584Y-84985001D01*
X122503425Y-84977221D01*
X122500865Y-84968779D01*
X122500000Y-84960000D01*
X122500000Y-84295000D01*
X122500865Y-84286221D01*
X122503425Y-84277779D01*
X122507584Y-84269999D01*
X122513180Y-84263180D01*
X122519999Y-84257584D01*
X122527779Y-84253425D01*
X122536221Y-84250865D01*
X122545000Y-84250000D01*
X122705000Y-84250000D01*
X122713779Y-84250865D01*
X122722221Y-84253425D01*
X122730001Y-84257584D01*
X122736820Y-84263180D01*
X122742416Y-84269999D01*
X122746575Y-84277779D01*
X122749135Y-84286221D01*
X122750000Y-84295000D01*
X122750000Y-84826360D01*
X122749135Y-84835139D01*
X122746575Y-84843581D01*
X122742416Y-84851361D01*
X122736820Y-84858180D01*
X122603180Y-84991820D01*
X122596361Y-84997416D01*
X122588581Y-85001575D01*
X122580139Y-85004135D01*
X122571360Y-85005000D01*
X122545000Y-85005000D01*
X122536221Y-85004135D01*
G37*
G36*
X122193626Y-84250301D02*
G01*
X122199693Y-84251201D01*
X122205643Y-84252691D01*
X122211418Y-84254758D01*
X122216962Y-84257380D01*
X122222223Y-84260533D01*
X122227150Y-84264187D01*
X122231694Y-84268306D01*
X122235813Y-84272850D01*
X122239467Y-84277777D01*
X122242620Y-84283038D01*
X122245242Y-84288582D01*
X122247309Y-84294357D01*
X122248799Y-84300307D01*
X122249699Y-84306374D01*
X122250000Y-84312500D01*
X122250000Y-85062500D01*
X122249699Y-85068626D01*
X122248799Y-85074693D01*
X122247309Y-85080643D01*
X122245242Y-85086418D01*
X122242620Y-85091962D01*
X122239467Y-85097223D01*
X122235813Y-85102150D01*
X122231694Y-85106694D01*
X122227150Y-85110813D01*
X122222223Y-85114467D01*
X122216962Y-85117620D01*
X122211418Y-85120242D01*
X122205643Y-85122309D01*
X122199693Y-85123799D01*
X122193626Y-85124699D01*
X122187500Y-85125000D01*
X122062500Y-85125000D01*
X122056374Y-85124699D01*
X122050307Y-85123799D01*
X122044357Y-85122309D01*
X122038582Y-85120242D01*
X122033038Y-85117620D01*
X122027777Y-85114467D01*
X122022850Y-85110813D01*
X122018306Y-85106694D01*
X122014187Y-85102150D01*
X122010533Y-85097223D01*
X122007380Y-85091962D01*
X122004758Y-85086418D01*
X122002691Y-85080643D01*
X122001201Y-85074693D01*
X122000301Y-85068626D01*
X122000000Y-85062500D01*
X122000000Y-84312500D01*
X122000301Y-84306374D01*
X122001201Y-84300307D01*
X122002691Y-84294357D01*
X122004758Y-84288582D01*
X122007380Y-84283038D01*
X122010533Y-84277777D01*
X122014187Y-84272850D01*
X122018306Y-84268306D01*
X122022850Y-84264187D01*
X122027777Y-84260533D01*
X122033038Y-84257380D01*
X122038582Y-84254758D01*
X122044357Y-84252691D01*
X122050307Y-84251201D01*
X122056374Y-84250301D01*
X122062500Y-84250000D01*
X122187500Y-84250000D01*
X122193626Y-84250301D01*
G37*
G36*
X121693626Y-84250301D02*
G01*
X121699693Y-84251201D01*
X121705643Y-84252691D01*
X121711418Y-84254758D01*
X121716962Y-84257380D01*
X121722223Y-84260533D01*
X121727150Y-84264187D01*
X121731694Y-84268306D01*
X121735813Y-84272850D01*
X121739467Y-84277777D01*
X121742620Y-84283038D01*
X121745242Y-84288582D01*
X121747309Y-84294357D01*
X121748799Y-84300307D01*
X121749699Y-84306374D01*
X121750000Y-84312500D01*
X121750000Y-85062500D01*
X121749699Y-85068626D01*
X121748799Y-85074693D01*
X121747309Y-85080643D01*
X121745242Y-85086418D01*
X121742620Y-85091962D01*
X121739467Y-85097223D01*
X121735813Y-85102150D01*
X121731694Y-85106694D01*
X121727150Y-85110813D01*
X121722223Y-85114467D01*
X121716962Y-85117620D01*
X121711418Y-85120242D01*
X121705643Y-85122309D01*
X121699693Y-85123799D01*
X121693626Y-85124699D01*
X121687500Y-85125000D01*
X121562500Y-85125000D01*
X121556374Y-85124699D01*
X121550307Y-85123799D01*
X121544357Y-85122309D01*
X121538582Y-85120242D01*
X121533038Y-85117620D01*
X121527777Y-85114467D01*
X121522850Y-85110813D01*
X121518306Y-85106694D01*
X121514187Y-85102150D01*
X121510533Y-85097223D01*
X121507380Y-85091962D01*
X121504758Y-85086418D01*
X121502691Y-85080643D01*
X121501201Y-85074693D01*
X121500301Y-85068626D01*
X121500000Y-85062500D01*
X121500000Y-84312500D01*
X121500301Y-84306374D01*
X121501201Y-84300307D01*
X121502691Y-84294357D01*
X121504758Y-84288582D01*
X121507380Y-84283038D01*
X121510533Y-84277777D01*
X121514187Y-84272850D01*
X121518306Y-84268306D01*
X121522850Y-84264187D01*
X121527777Y-84260533D01*
X121533038Y-84257380D01*
X121538582Y-84254758D01*
X121544357Y-84252691D01*
X121550307Y-84251201D01*
X121556374Y-84250301D01*
X121562500Y-84250000D01*
X121687500Y-84250000D01*
X121693626Y-84250301D01*
G37*
G36*
X121193626Y-84250301D02*
G01*
X121199693Y-84251201D01*
X121205643Y-84252691D01*
X121211418Y-84254758D01*
X121216962Y-84257380D01*
X121222223Y-84260533D01*
X121227150Y-84264187D01*
X121231694Y-84268306D01*
X121235813Y-84272850D01*
X121239467Y-84277777D01*
X121242620Y-84283038D01*
X121245242Y-84288582D01*
X121247309Y-84294357D01*
X121248799Y-84300307D01*
X121249699Y-84306374D01*
X121250000Y-84312500D01*
X121250000Y-85062500D01*
X121249699Y-85068626D01*
X121248799Y-85074693D01*
X121247309Y-85080643D01*
X121245242Y-85086418D01*
X121242620Y-85091962D01*
X121239467Y-85097223D01*
X121235813Y-85102150D01*
X121231694Y-85106694D01*
X121227150Y-85110813D01*
X121222223Y-85114467D01*
X121216962Y-85117620D01*
X121211418Y-85120242D01*
X121205643Y-85122309D01*
X121199693Y-85123799D01*
X121193626Y-85124699D01*
X121187500Y-85125000D01*
X121062500Y-85125000D01*
X121056374Y-85124699D01*
X121050307Y-85123799D01*
X121044357Y-85122309D01*
X121038582Y-85120242D01*
X121033038Y-85117620D01*
X121027777Y-85114467D01*
X121022850Y-85110813D01*
X121018306Y-85106694D01*
X121014187Y-85102150D01*
X121010533Y-85097223D01*
X121007380Y-85091962D01*
X121004758Y-85086418D01*
X121002691Y-85080643D01*
X121001201Y-85074693D01*
X121000301Y-85068626D01*
X121000000Y-85062500D01*
X121000000Y-84312500D01*
X121000301Y-84306374D01*
X121001201Y-84300307D01*
X121002691Y-84294357D01*
X121004758Y-84288582D01*
X121007380Y-84283038D01*
X121010533Y-84277777D01*
X121014187Y-84272850D01*
X121018306Y-84268306D01*
X121022850Y-84264187D01*
X121027777Y-84260533D01*
X121033038Y-84257380D01*
X121038582Y-84254758D01*
X121044357Y-84252691D01*
X121050307Y-84251201D01*
X121056374Y-84250301D01*
X121062500Y-84250000D01*
X121187500Y-84250000D01*
X121193626Y-84250301D01*
G37*
G36*
X120693626Y-84250301D02*
G01*
X120699693Y-84251201D01*
X120705643Y-84252691D01*
X120711418Y-84254758D01*
X120716962Y-84257380D01*
X120722223Y-84260533D01*
X120727150Y-84264187D01*
X120731694Y-84268306D01*
X120735813Y-84272850D01*
X120739467Y-84277777D01*
X120742620Y-84283038D01*
X120745242Y-84288582D01*
X120747309Y-84294357D01*
X120748799Y-84300307D01*
X120749699Y-84306374D01*
X120750000Y-84312500D01*
X120750000Y-85062500D01*
X120749699Y-85068626D01*
X120748799Y-85074693D01*
X120747309Y-85080643D01*
X120745242Y-85086418D01*
X120742620Y-85091962D01*
X120739467Y-85097223D01*
X120735813Y-85102150D01*
X120731694Y-85106694D01*
X120727150Y-85110813D01*
X120722223Y-85114467D01*
X120716962Y-85117620D01*
X120711418Y-85120242D01*
X120705643Y-85122309D01*
X120699693Y-85123799D01*
X120693626Y-85124699D01*
X120687500Y-85125000D01*
X120562500Y-85125000D01*
X120556374Y-85124699D01*
X120550307Y-85123799D01*
X120544357Y-85122309D01*
X120538582Y-85120242D01*
X120533038Y-85117620D01*
X120527777Y-85114467D01*
X120522850Y-85110813D01*
X120518306Y-85106694D01*
X120514187Y-85102150D01*
X120510533Y-85097223D01*
X120507380Y-85091962D01*
X120504758Y-85086418D01*
X120502691Y-85080643D01*
X120501201Y-85074693D01*
X120500301Y-85068626D01*
X120500000Y-85062500D01*
X120500000Y-84312500D01*
X120500301Y-84306374D01*
X120501201Y-84300307D01*
X120502691Y-84294357D01*
X120504758Y-84288582D01*
X120507380Y-84283038D01*
X120510533Y-84277777D01*
X120514187Y-84272850D01*
X120518306Y-84268306D01*
X120522850Y-84264187D01*
X120527777Y-84260533D01*
X120533038Y-84257380D01*
X120538582Y-84254758D01*
X120544357Y-84252691D01*
X120550307Y-84251201D01*
X120556374Y-84250301D01*
X120562500Y-84250000D01*
X120687500Y-84250000D01*
X120693626Y-84250301D01*
G37*
G36*
X120193626Y-84250301D02*
G01*
X120199693Y-84251201D01*
X120205643Y-84252691D01*
X120211418Y-84254758D01*
X120216962Y-84257380D01*
X120222223Y-84260533D01*
X120227150Y-84264187D01*
X120231694Y-84268306D01*
X120235813Y-84272850D01*
X120239467Y-84277777D01*
X120242620Y-84283038D01*
X120245242Y-84288582D01*
X120247309Y-84294357D01*
X120248799Y-84300307D01*
X120249699Y-84306374D01*
X120250000Y-84312500D01*
X120250000Y-85062500D01*
X120249699Y-85068626D01*
X120248799Y-85074693D01*
X120247309Y-85080643D01*
X120245242Y-85086418D01*
X120242620Y-85091962D01*
X120239467Y-85097223D01*
X120235813Y-85102150D01*
X120231694Y-85106694D01*
X120227150Y-85110813D01*
X120222223Y-85114467D01*
X120216962Y-85117620D01*
X120211418Y-85120242D01*
X120205643Y-85122309D01*
X120199693Y-85123799D01*
X120193626Y-85124699D01*
X120187500Y-85125000D01*
X120062500Y-85125000D01*
X120056374Y-85124699D01*
X120050307Y-85123799D01*
X120044357Y-85122309D01*
X120038582Y-85120242D01*
X120033038Y-85117620D01*
X120027777Y-85114467D01*
X120022850Y-85110813D01*
X120018306Y-85106694D01*
X120014187Y-85102150D01*
X120010533Y-85097223D01*
X120007380Y-85091962D01*
X120004758Y-85086418D01*
X120002691Y-85080643D01*
X120001201Y-85074693D01*
X120000301Y-85068626D01*
X120000000Y-85062500D01*
X120000000Y-84312500D01*
X120000301Y-84306374D01*
X120001201Y-84300307D01*
X120002691Y-84294357D01*
X120004758Y-84288582D01*
X120007380Y-84283038D01*
X120010533Y-84277777D01*
X120014187Y-84272850D01*
X120018306Y-84268306D01*
X120022850Y-84264187D01*
X120027777Y-84260533D01*
X120033038Y-84257380D01*
X120038582Y-84254758D01*
X120044357Y-84252691D01*
X120050307Y-84251201D01*
X120056374Y-84250301D01*
X120062500Y-84250000D01*
X120187500Y-84250000D01*
X120193626Y-84250301D01*
G37*
G36*
X119669861Y-85004135D02*
G01*
X119661419Y-85001575D01*
X119653639Y-84997416D01*
X119646820Y-84991820D01*
X119513180Y-84858180D01*
X119507584Y-84851361D01*
X119503425Y-84843581D01*
X119500865Y-84835139D01*
X119500000Y-84826360D01*
X119500000Y-84295000D01*
X119500865Y-84286221D01*
X119503425Y-84277779D01*
X119507584Y-84269999D01*
X119513180Y-84263180D01*
X119519999Y-84257584D01*
X119527779Y-84253425D01*
X119536221Y-84250865D01*
X119545000Y-84250000D01*
X119705000Y-84250000D01*
X119713779Y-84250865D01*
X119722221Y-84253425D01*
X119730001Y-84257584D01*
X119736820Y-84263180D01*
X119742416Y-84269999D01*
X119746575Y-84277779D01*
X119749135Y-84286221D01*
X119750000Y-84295000D01*
X119750000Y-84960000D01*
X119749135Y-84968779D01*
X119746575Y-84977221D01*
X119742416Y-84985001D01*
X119736820Y-84991820D01*
X119730001Y-84997416D01*
X119722221Y-85001575D01*
X119713779Y-85004135D01*
X119705000Y-85005000D01*
X119678640Y-85005000D01*
X119669861Y-85004135D01*
G37*
G36*
X118786221Y-85249135D02*
G01*
X118777779Y-85246575D01*
X118769999Y-85242416D01*
X118763180Y-85236820D01*
X118757584Y-85230001D01*
X118753425Y-85222221D01*
X118750865Y-85213779D01*
X118750000Y-85205000D01*
X118750000Y-85045000D01*
X118750865Y-85036221D01*
X118753425Y-85027779D01*
X118757584Y-85019999D01*
X118763180Y-85013180D01*
X118769999Y-85007584D01*
X118777779Y-85003425D01*
X118786221Y-85000865D01*
X118795000Y-85000000D01*
X119326360Y-85000000D01*
X119335139Y-85000865D01*
X119343581Y-85003425D01*
X119351361Y-85007584D01*
X119358180Y-85013180D01*
X119491820Y-85146820D01*
X119497416Y-85153639D01*
X119501575Y-85161419D01*
X119504135Y-85169861D01*
X119505000Y-85178640D01*
X119505000Y-85205000D01*
X119504135Y-85213779D01*
X119501575Y-85222221D01*
X119497416Y-85230001D01*
X119491820Y-85236820D01*
X119485001Y-85242416D01*
X119477221Y-85246575D01*
X119468779Y-85249135D01*
X119460000Y-85250000D01*
X118795000Y-85250000D01*
X118786221Y-85249135D01*
G37*
G36*
X119568626Y-85500301D02*
G01*
X119574693Y-85501201D01*
X119580643Y-85502691D01*
X119586418Y-85504758D01*
X119591962Y-85507380D01*
X119597223Y-85510533D01*
X119602150Y-85514187D01*
X119606694Y-85518306D01*
X119610813Y-85522850D01*
X119614467Y-85527777D01*
X119617620Y-85533038D01*
X119620242Y-85538582D01*
X119622309Y-85544357D01*
X119623799Y-85550307D01*
X119624699Y-85556374D01*
X119625000Y-85562500D01*
X119625000Y-85687500D01*
X119624699Y-85693626D01*
X119623799Y-85699693D01*
X119622309Y-85705643D01*
X119620242Y-85711418D01*
X119617620Y-85716962D01*
X119614467Y-85722223D01*
X119610813Y-85727150D01*
X119606694Y-85731694D01*
X119602150Y-85735813D01*
X119597223Y-85739467D01*
X119591962Y-85742620D01*
X119586418Y-85745242D01*
X119580643Y-85747309D01*
X119574693Y-85748799D01*
X119568626Y-85749699D01*
X119562500Y-85750000D01*
X118812500Y-85750000D01*
X118806374Y-85749699D01*
X118800307Y-85748799D01*
X118794357Y-85747309D01*
X118788582Y-85745242D01*
X118783038Y-85742620D01*
X118777777Y-85739467D01*
X118772850Y-85735813D01*
X118768306Y-85731694D01*
X118764187Y-85727150D01*
X118760533Y-85722223D01*
X118757380Y-85716962D01*
X118754758Y-85711418D01*
X118752691Y-85705643D01*
X118751201Y-85699693D01*
X118750301Y-85693626D01*
X118750000Y-85687500D01*
X118750000Y-85562500D01*
X118750301Y-85556374D01*
X118751201Y-85550307D01*
X118752691Y-85544357D01*
X118754758Y-85538582D01*
X118757380Y-85533038D01*
X118760533Y-85527777D01*
X118764187Y-85522850D01*
X118768306Y-85518306D01*
X118772850Y-85514187D01*
X118777777Y-85510533D01*
X118783038Y-85507380D01*
X118788582Y-85504758D01*
X118794357Y-85502691D01*
X118800307Y-85501201D01*
X118806374Y-85500301D01*
X118812500Y-85500000D01*
X119562500Y-85500000D01*
X119568626Y-85500301D01*
G37*
G36*
X119568626Y-86000301D02*
G01*
X119574693Y-86001201D01*
X119580643Y-86002691D01*
X119586418Y-86004758D01*
X119591962Y-86007380D01*
X119597223Y-86010533D01*
X119602150Y-86014187D01*
X119606694Y-86018306D01*
X119610813Y-86022850D01*
X119614467Y-86027777D01*
X119617620Y-86033038D01*
X119620242Y-86038582D01*
X119622309Y-86044357D01*
X119623799Y-86050307D01*
X119624699Y-86056374D01*
X119625000Y-86062500D01*
X119625000Y-86187500D01*
X119624699Y-86193626D01*
X119623799Y-86199693D01*
X119622309Y-86205643D01*
X119620242Y-86211418D01*
X119617620Y-86216962D01*
X119614467Y-86222223D01*
X119610813Y-86227150D01*
X119606694Y-86231694D01*
X119602150Y-86235813D01*
X119597223Y-86239467D01*
X119591962Y-86242620D01*
X119586418Y-86245242D01*
X119580643Y-86247309D01*
X119574693Y-86248799D01*
X119568626Y-86249699D01*
X119562500Y-86250000D01*
X118812500Y-86250000D01*
X118806374Y-86249699D01*
X118800307Y-86248799D01*
X118794357Y-86247309D01*
X118788582Y-86245242D01*
X118783038Y-86242620D01*
X118777777Y-86239467D01*
X118772850Y-86235813D01*
X118768306Y-86231694D01*
X118764187Y-86227150D01*
X118760533Y-86222223D01*
X118757380Y-86216962D01*
X118754758Y-86211418D01*
X118752691Y-86205643D01*
X118751201Y-86199693D01*
X118750301Y-86193626D01*
X118750000Y-86187500D01*
X118750000Y-86062500D01*
X118750301Y-86056374D01*
X118751201Y-86050307D01*
X118752691Y-86044357D01*
X118754758Y-86038582D01*
X118757380Y-86033038D01*
X118760533Y-86027777D01*
X118764187Y-86022850D01*
X118768306Y-86018306D01*
X118772850Y-86014187D01*
X118777777Y-86010533D01*
X118783038Y-86007380D01*
X118788582Y-86004758D01*
X118794357Y-86002691D01*
X118800307Y-86001201D01*
X118806374Y-86000301D01*
X118812500Y-86000000D01*
X119562500Y-86000000D01*
X119568626Y-86000301D01*
G37*
G36*
X119568626Y-86500301D02*
G01*
X119574693Y-86501201D01*
X119580643Y-86502691D01*
X119586418Y-86504758D01*
X119591962Y-86507380D01*
X119597223Y-86510533D01*
X119602150Y-86514187D01*
X119606694Y-86518306D01*
X119610813Y-86522850D01*
X119614467Y-86527777D01*
X119617620Y-86533038D01*
X119620242Y-86538582D01*
X119622309Y-86544357D01*
X119623799Y-86550307D01*
X119624699Y-86556374D01*
X119625000Y-86562500D01*
X119625000Y-86687500D01*
X119624699Y-86693626D01*
X119623799Y-86699693D01*
X119622309Y-86705643D01*
X119620242Y-86711418D01*
X119617620Y-86716962D01*
X119614467Y-86722223D01*
X119610813Y-86727150D01*
X119606694Y-86731694D01*
X119602150Y-86735813D01*
X119597223Y-86739467D01*
X119591962Y-86742620D01*
X119586418Y-86745242D01*
X119580643Y-86747309D01*
X119574693Y-86748799D01*
X119568626Y-86749699D01*
X119562500Y-86750000D01*
X118812500Y-86750000D01*
X118806374Y-86749699D01*
X118800307Y-86748799D01*
X118794357Y-86747309D01*
X118788582Y-86745242D01*
X118783038Y-86742620D01*
X118777777Y-86739467D01*
X118772850Y-86735813D01*
X118768306Y-86731694D01*
X118764187Y-86727150D01*
X118760533Y-86722223D01*
X118757380Y-86716962D01*
X118754758Y-86711418D01*
X118752691Y-86705643D01*
X118751201Y-86699693D01*
X118750301Y-86693626D01*
X118750000Y-86687500D01*
X118750000Y-86562500D01*
X118750301Y-86556374D01*
X118751201Y-86550307D01*
X118752691Y-86544357D01*
X118754758Y-86538582D01*
X118757380Y-86533038D01*
X118760533Y-86527777D01*
X118764187Y-86522850D01*
X118768306Y-86518306D01*
X118772850Y-86514187D01*
X118777777Y-86510533D01*
X118783038Y-86507380D01*
X118788582Y-86504758D01*
X118794357Y-86502691D01*
X118800307Y-86501201D01*
X118806374Y-86500301D01*
X118812500Y-86500000D01*
X119562500Y-86500000D01*
X119568626Y-86500301D01*
G37*
G36*
X119568626Y-87000301D02*
G01*
X119574693Y-87001201D01*
X119580643Y-87002691D01*
X119586418Y-87004758D01*
X119591962Y-87007380D01*
X119597223Y-87010533D01*
X119602150Y-87014187D01*
X119606694Y-87018306D01*
X119610813Y-87022850D01*
X119614467Y-87027777D01*
X119617620Y-87033038D01*
X119620242Y-87038582D01*
X119622309Y-87044357D01*
X119623799Y-87050307D01*
X119624699Y-87056374D01*
X119625000Y-87062500D01*
X119625000Y-87187500D01*
X119624699Y-87193626D01*
X119623799Y-87199693D01*
X119622309Y-87205643D01*
X119620242Y-87211418D01*
X119617620Y-87216962D01*
X119614467Y-87222223D01*
X119610813Y-87227150D01*
X119606694Y-87231694D01*
X119602150Y-87235813D01*
X119597223Y-87239467D01*
X119591962Y-87242620D01*
X119586418Y-87245242D01*
X119580643Y-87247309D01*
X119574693Y-87248799D01*
X119568626Y-87249699D01*
X119562500Y-87250000D01*
X118812500Y-87250000D01*
X118806374Y-87249699D01*
X118800307Y-87248799D01*
X118794357Y-87247309D01*
X118788582Y-87245242D01*
X118783038Y-87242620D01*
X118777777Y-87239467D01*
X118772850Y-87235813D01*
X118768306Y-87231694D01*
X118764187Y-87227150D01*
X118760533Y-87222223D01*
X118757380Y-87216962D01*
X118754758Y-87211418D01*
X118752691Y-87205643D01*
X118751201Y-87199693D01*
X118750301Y-87193626D01*
X118750000Y-87187500D01*
X118750000Y-87062500D01*
X118750301Y-87056374D01*
X118751201Y-87050307D01*
X118752691Y-87044357D01*
X118754758Y-87038582D01*
X118757380Y-87033038D01*
X118760533Y-87027777D01*
X118764187Y-87022850D01*
X118768306Y-87018306D01*
X118772850Y-87014187D01*
X118777777Y-87010533D01*
X118783038Y-87007380D01*
X118788582Y-87004758D01*
X118794357Y-87002691D01*
X118800307Y-87001201D01*
X118806374Y-87000301D01*
X118812500Y-87000000D01*
X119562500Y-87000000D01*
X119568626Y-87000301D01*
G37*
G36*
X119568626Y-87500301D02*
G01*
X119574693Y-87501201D01*
X119580643Y-87502691D01*
X119586418Y-87504758D01*
X119591962Y-87507380D01*
X119597223Y-87510533D01*
X119602150Y-87514187D01*
X119606694Y-87518306D01*
X119610813Y-87522850D01*
X119614467Y-87527777D01*
X119617620Y-87533038D01*
X119620242Y-87538582D01*
X119622309Y-87544357D01*
X119623799Y-87550307D01*
X119624699Y-87556374D01*
X119625000Y-87562500D01*
X119625000Y-87687500D01*
X119624699Y-87693626D01*
X119623799Y-87699693D01*
X119622309Y-87705643D01*
X119620242Y-87711418D01*
X119617620Y-87716962D01*
X119614467Y-87722223D01*
X119610813Y-87727150D01*
X119606694Y-87731694D01*
X119602150Y-87735813D01*
X119597223Y-87739467D01*
X119591962Y-87742620D01*
X119586418Y-87745242D01*
X119580643Y-87747309D01*
X119574693Y-87748799D01*
X119568626Y-87749699D01*
X119562500Y-87750000D01*
X118812500Y-87750000D01*
X118806374Y-87749699D01*
X118800307Y-87748799D01*
X118794357Y-87747309D01*
X118788582Y-87745242D01*
X118783038Y-87742620D01*
X118777777Y-87739467D01*
X118772850Y-87735813D01*
X118768306Y-87731694D01*
X118764187Y-87727150D01*
X118760533Y-87722223D01*
X118757380Y-87716962D01*
X118754758Y-87711418D01*
X118752691Y-87705643D01*
X118751201Y-87699693D01*
X118750301Y-87693626D01*
X118750000Y-87687500D01*
X118750000Y-87562500D01*
X118750301Y-87556374D01*
X118751201Y-87550307D01*
X118752691Y-87544357D01*
X118754758Y-87538582D01*
X118757380Y-87533038D01*
X118760533Y-87527777D01*
X118764187Y-87522850D01*
X118768306Y-87518306D01*
X118772850Y-87514187D01*
X118777777Y-87510533D01*
X118783038Y-87507380D01*
X118788582Y-87504758D01*
X118794357Y-87502691D01*
X118800307Y-87501201D01*
X118806374Y-87500301D01*
X118812500Y-87500000D01*
X119562500Y-87500000D01*
X119568626Y-87500301D01*
G37*
G36*
X118786221Y-88249135D02*
G01*
X118777779Y-88246575D01*
X118769999Y-88242416D01*
X118763180Y-88236820D01*
X118757584Y-88230001D01*
X118753425Y-88222221D01*
X118750865Y-88213779D01*
X118750000Y-88205000D01*
X118750000Y-88045000D01*
X118750865Y-88036221D01*
X118753425Y-88027779D01*
X118757584Y-88019999D01*
X118763180Y-88013180D01*
X118769999Y-88007584D01*
X118777779Y-88003425D01*
X118786221Y-88000865D01*
X118795000Y-88000000D01*
X119460000Y-88000000D01*
X119468779Y-88000865D01*
X119477221Y-88003425D01*
X119485001Y-88007584D01*
X119491820Y-88013180D01*
X119497416Y-88019999D01*
X119501575Y-88027779D01*
X119504135Y-88036221D01*
X119505000Y-88045000D01*
X119505000Y-88071360D01*
X119504135Y-88080139D01*
X119501575Y-88088581D01*
X119497416Y-88096361D01*
X119491820Y-88103180D01*
X119358180Y-88236820D01*
X119351361Y-88242416D01*
X119343581Y-88246575D01*
X119335139Y-88249135D01*
X119326360Y-88250000D01*
X118795000Y-88250000D01*
X118786221Y-88249135D01*
G37*
G36*
X119536221Y-88999135D02*
G01*
X119527779Y-88996575D01*
X119519999Y-88992416D01*
X119513180Y-88986820D01*
X119507584Y-88980001D01*
X119503425Y-88972221D01*
X119500865Y-88963779D01*
X119500000Y-88955000D01*
X119500000Y-88423640D01*
X119500865Y-88414861D01*
X119503425Y-88406419D01*
X119507584Y-88398639D01*
X119513180Y-88391820D01*
X119646820Y-88258180D01*
X119653639Y-88252584D01*
X119661419Y-88248425D01*
X119669861Y-88245865D01*
X119678640Y-88245000D01*
X119705000Y-88245000D01*
X119713779Y-88245865D01*
X119722221Y-88248425D01*
X119730001Y-88252584D01*
X119736820Y-88258180D01*
X119742416Y-88264999D01*
X119746575Y-88272779D01*
X119749135Y-88281221D01*
X119750000Y-88290000D01*
X119750000Y-88955000D01*
X119749135Y-88963779D01*
X119746575Y-88972221D01*
X119742416Y-88980001D01*
X119736820Y-88986820D01*
X119730001Y-88992416D01*
X119722221Y-88996575D01*
X119713779Y-88999135D01*
X119705000Y-89000000D01*
X119545000Y-89000000D01*
X119536221Y-88999135D01*
G37*
G36*
X120193626Y-88125301D02*
G01*
X120199693Y-88126201D01*
X120205643Y-88127691D01*
X120211418Y-88129758D01*
X120216962Y-88132380D01*
X120222223Y-88135533D01*
X120227150Y-88139187D01*
X120231694Y-88143306D01*
X120235813Y-88147850D01*
X120239467Y-88152777D01*
X120242620Y-88158038D01*
X120245242Y-88163582D01*
X120247309Y-88169357D01*
X120248799Y-88175307D01*
X120249699Y-88181374D01*
X120250000Y-88187500D01*
X120250000Y-88937500D01*
X120249699Y-88943626D01*
X120248799Y-88949693D01*
X120247309Y-88955643D01*
X120245242Y-88961418D01*
X120242620Y-88966962D01*
X120239467Y-88972223D01*
X120235813Y-88977150D01*
X120231694Y-88981694D01*
X120227150Y-88985813D01*
X120222223Y-88989467D01*
X120216962Y-88992620D01*
X120211418Y-88995242D01*
X120205643Y-88997309D01*
X120199693Y-88998799D01*
X120193626Y-88999699D01*
X120187500Y-89000000D01*
X120062500Y-89000000D01*
X120056374Y-88999699D01*
X120050307Y-88998799D01*
X120044357Y-88997309D01*
X120038582Y-88995242D01*
X120033038Y-88992620D01*
X120027777Y-88989467D01*
X120022850Y-88985813D01*
X120018306Y-88981694D01*
X120014187Y-88977150D01*
X120010533Y-88972223D01*
X120007380Y-88966962D01*
X120004758Y-88961418D01*
X120002691Y-88955643D01*
X120001201Y-88949693D01*
X120000301Y-88943626D01*
X120000000Y-88937500D01*
X120000000Y-88187500D01*
X120000301Y-88181374D01*
X120001201Y-88175307D01*
X120002691Y-88169357D01*
X120004758Y-88163582D01*
X120007380Y-88158038D01*
X120010533Y-88152777D01*
X120014187Y-88147850D01*
X120018306Y-88143306D01*
X120022850Y-88139187D01*
X120027777Y-88135533D01*
X120033038Y-88132380D01*
X120038582Y-88129758D01*
X120044357Y-88127691D01*
X120050307Y-88126201D01*
X120056374Y-88125301D01*
X120062500Y-88125000D01*
X120187500Y-88125000D01*
X120193626Y-88125301D01*
G37*
G36*
X120693626Y-88125301D02*
G01*
X120699693Y-88126201D01*
X120705643Y-88127691D01*
X120711418Y-88129758D01*
X120716962Y-88132380D01*
X120722223Y-88135533D01*
X120727150Y-88139187D01*
X120731694Y-88143306D01*
X120735813Y-88147850D01*
X120739467Y-88152777D01*
X120742620Y-88158038D01*
X120745242Y-88163582D01*
X120747309Y-88169357D01*
X120748799Y-88175307D01*
X120749699Y-88181374D01*
X120750000Y-88187500D01*
X120750000Y-88937500D01*
X120749699Y-88943626D01*
X120748799Y-88949693D01*
X120747309Y-88955643D01*
X120745242Y-88961418D01*
X120742620Y-88966962D01*
X120739467Y-88972223D01*
X120735813Y-88977150D01*
X120731694Y-88981694D01*
X120727150Y-88985813D01*
X120722223Y-88989467D01*
X120716962Y-88992620D01*
X120711418Y-88995242D01*
X120705643Y-88997309D01*
X120699693Y-88998799D01*
X120693626Y-88999699D01*
X120687500Y-89000000D01*
X120562500Y-89000000D01*
X120556374Y-88999699D01*
X120550307Y-88998799D01*
X120544357Y-88997309D01*
X120538582Y-88995242D01*
X120533038Y-88992620D01*
X120527777Y-88989467D01*
X120522850Y-88985813D01*
X120518306Y-88981694D01*
X120514187Y-88977150D01*
X120510533Y-88972223D01*
X120507380Y-88966962D01*
X120504758Y-88961418D01*
X120502691Y-88955643D01*
X120501201Y-88949693D01*
X120500301Y-88943626D01*
X120500000Y-88937500D01*
X120500000Y-88187500D01*
X120500301Y-88181374D01*
X120501201Y-88175307D01*
X120502691Y-88169357D01*
X120504758Y-88163582D01*
X120507380Y-88158038D01*
X120510533Y-88152777D01*
X120514187Y-88147850D01*
X120518306Y-88143306D01*
X120522850Y-88139187D01*
X120527777Y-88135533D01*
X120533038Y-88132380D01*
X120538582Y-88129758D01*
X120544357Y-88127691D01*
X120550307Y-88126201D01*
X120556374Y-88125301D01*
X120562500Y-88125000D01*
X120687500Y-88125000D01*
X120693626Y-88125301D01*
G37*
G36*
X121193626Y-88125301D02*
G01*
X121199693Y-88126201D01*
X121205643Y-88127691D01*
X121211418Y-88129758D01*
X121216962Y-88132380D01*
X121222223Y-88135533D01*
X121227150Y-88139187D01*
X121231694Y-88143306D01*
X121235813Y-88147850D01*
X121239467Y-88152777D01*
X121242620Y-88158038D01*
X121245242Y-88163582D01*
X121247309Y-88169357D01*
X121248799Y-88175307D01*
X121249699Y-88181374D01*
X121250000Y-88187500D01*
X121250000Y-88937500D01*
X121249699Y-88943626D01*
X121248799Y-88949693D01*
X121247309Y-88955643D01*
X121245242Y-88961418D01*
X121242620Y-88966962D01*
X121239467Y-88972223D01*
X121235813Y-88977150D01*
X121231694Y-88981694D01*
X121227150Y-88985813D01*
X121222223Y-88989467D01*
X121216962Y-88992620D01*
X121211418Y-88995242D01*
X121205643Y-88997309D01*
X121199693Y-88998799D01*
X121193626Y-88999699D01*
X121187500Y-89000000D01*
X121062500Y-89000000D01*
X121056374Y-88999699D01*
X121050307Y-88998799D01*
X121044357Y-88997309D01*
X121038582Y-88995242D01*
X121033038Y-88992620D01*
X121027777Y-88989467D01*
X121022850Y-88985813D01*
X121018306Y-88981694D01*
X121014187Y-88977150D01*
X121010533Y-88972223D01*
X121007380Y-88966962D01*
X121004758Y-88961418D01*
X121002691Y-88955643D01*
X121001201Y-88949693D01*
X121000301Y-88943626D01*
X121000000Y-88937500D01*
X121000000Y-88187500D01*
X121000301Y-88181374D01*
X121001201Y-88175307D01*
X121002691Y-88169357D01*
X121004758Y-88163582D01*
X121007380Y-88158038D01*
X121010533Y-88152777D01*
X121014187Y-88147850D01*
X121018306Y-88143306D01*
X121022850Y-88139187D01*
X121027777Y-88135533D01*
X121033038Y-88132380D01*
X121038582Y-88129758D01*
X121044357Y-88127691D01*
X121050307Y-88126201D01*
X121056374Y-88125301D01*
X121062500Y-88125000D01*
X121187500Y-88125000D01*
X121193626Y-88125301D01*
G37*
G36*
X121693626Y-88125301D02*
G01*
X121699693Y-88126201D01*
X121705643Y-88127691D01*
X121711418Y-88129758D01*
X121716962Y-88132380D01*
X121722223Y-88135533D01*
X121727150Y-88139187D01*
X121731694Y-88143306D01*
X121735813Y-88147850D01*
X121739467Y-88152777D01*
X121742620Y-88158038D01*
X121745242Y-88163582D01*
X121747309Y-88169357D01*
X121748799Y-88175307D01*
X121749699Y-88181374D01*
X121750000Y-88187500D01*
X121750000Y-88937500D01*
X121749699Y-88943626D01*
X121748799Y-88949693D01*
X121747309Y-88955643D01*
X121745242Y-88961418D01*
X121742620Y-88966962D01*
X121739467Y-88972223D01*
X121735813Y-88977150D01*
X121731694Y-88981694D01*
X121727150Y-88985813D01*
X121722223Y-88989467D01*
X121716962Y-88992620D01*
X121711418Y-88995242D01*
X121705643Y-88997309D01*
X121699693Y-88998799D01*
X121693626Y-88999699D01*
X121687500Y-89000000D01*
X121562500Y-89000000D01*
X121556374Y-88999699D01*
X121550307Y-88998799D01*
X121544357Y-88997309D01*
X121538582Y-88995242D01*
X121533038Y-88992620D01*
X121527777Y-88989467D01*
X121522850Y-88985813D01*
X121518306Y-88981694D01*
X121514187Y-88977150D01*
X121510533Y-88972223D01*
X121507380Y-88966962D01*
X121504758Y-88961418D01*
X121502691Y-88955643D01*
X121501201Y-88949693D01*
X121500301Y-88943626D01*
X121500000Y-88937500D01*
X121500000Y-88187500D01*
X121500301Y-88181374D01*
X121501201Y-88175307D01*
X121502691Y-88169357D01*
X121504758Y-88163582D01*
X121507380Y-88158038D01*
X121510533Y-88152777D01*
X121514187Y-88147850D01*
X121518306Y-88143306D01*
X121522850Y-88139187D01*
X121527777Y-88135533D01*
X121533038Y-88132380D01*
X121538582Y-88129758D01*
X121544357Y-88127691D01*
X121550307Y-88126201D01*
X121556374Y-88125301D01*
X121562500Y-88125000D01*
X121687500Y-88125000D01*
X121693626Y-88125301D01*
G37*
G36*
X122193626Y-88125301D02*
G01*
X122199693Y-88126201D01*
X122205643Y-88127691D01*
X122211418Y-88129758D01*
X122216962Y-88132380D01*
X122222223Y-88135533D01*
X122227150Y-88139187D01*
X122231694Y-88143306D01*
X122235813Y-88147850D01*
X122239467Y-88152777D01*
X122242620Y-88158038D01*
X122245242Y-88163582D01*
X122247309Y-88169357D01*
X122248799Y-88175307D01*
X122249699Y-88181374D01*
X122250000Y-88187500D01*
X122250000Y-88937500D01*
X122249699Y-88943626D01*
X122248799Y-88949693D01*
X122247309Y-88955643D01*
X122245242Y-88961418D01*
X122242620Y-88966962D01*
X122239467Y-88972223D01*
X122235813Y-88977150D01*
X122231694Y-88981694D01*
X122227150Y-88985813D01*
X122222223Y-88989467D01*
X122216962Y-88992620D01*
X122211418Y-88995242D01*
X122205643Y-88997309D01*
X122199693Y-88998799D01*
X122193626Y-88999699D01*
X122187500Y-89000000D01*
X122062500Y-89000000D01*
X122056374Y-88999699D01*
X122050307Y-88998799D01*
X122044357Y-88997309D01*
X122038582Y-88995242D01*
X122033038Y-88992620D01*
X122027777Y-88989467D01*
X122022850Y-88985813D01*
X122018306Y-88981694D01*
X122014187Y-88977150D01*
X122010533Y-88972223D01*
X122007380Y-88966962D01*
X122004758Y-88961418D01*
X122002691Y-88955643D01*
X122001201Y-88949693D01*
X122000301Y-88943626D01*
X122000000Y-88937500D01*
X122000000Y-88187500D01*
X122000301Y-88181374D01*
X122001201Y-88175307D01*
X122002691Y-88169357D01*
X122004758Y-88163582D01*
X122007380Y-88158038D01*
X122010533Y-88152777D01*
X122014187Y-88147850D01*
X122018306Y-88143306D01*
X122022850Y-88139187D01*
X122027777Y-88135533D01*
X122033038Y-88132380D01*
X122038582Y-88129758D01*
X122044357Y-88127691D01*
X122050307Y-88126201D01*
X122056374Y-88125301D01*
X122062500Y-88125000D01*
X122187500Y-88125000D01*
X122193626Y-88125301D01*
G37*
G36*
X122536221Y-88999135D02*
G01*
X122527779Y-88996575D01*
X122519999Y-88992416D01*
X122513180Y-88986820D01*
X122507584Y-88980001D01*
X122503425Y-88972221D01*
X122500865Y-88963779D01*
X122500000Y-88955000D01*
X122500000Y-88290000D01*
X122500865Y-88281221D01*
X122503425Y-88272779D01*
X122507584Y-88264999D01*
X122513180Y-88258180D01*
X122519999Y-88252584D01*
X122527779Y-88248425D01*
X122536221Y-88245865D01*
X122545000Y-88245000D01*
X122571360Y-88245000D01*
X122580139Y-88245865D01*
X122588581Y-88248425D01*
X122596361Y-88252584D01*
X122603180Y-88258180D01*
X122736820Y-88391820D01*
X122742416Y-88398639D01*
X122746575Y-88406419D01*
X122749135Y-88414861D01*
X122750000Y-88423640D01*
X122750000Y-88955000D01*
X122749135Y-88963779D01*
X122746575Y-88972221D01*
X122742416Y-88980001D01*
X122736820Y-88986820D01*
X122730001Y-88992416D01*
X122722221Y-88996575D01*
X122713779Y-88999135D01*
X122705000Y-89000000D01*
X122545000Y-89000000D01*
X122536221Y-88999135D01*
G37*
G36*
X122914861Y-88249135D02*
G01*
X122906419Y-88246575D01*
X122898639Y-88242416D01*
X122891820Y-88236820D01*
X122758180Y-88103180D01*
X122752584Y-88096361D01*
X122748425Y-88088581D01*
X122745865Y-88080139D01*
X122745000Y-88071360D01*
X122745000Y-88045000D01*
X122745865Y-88036221D01*
X122748425Y-88027779D01*
X122752584Y-88019999D01*
X122758180Y-88013180D01*
X122764999Y-88007584D01*
X122772779Y-88003425D01*
X122781221Y-88000865D01*
X122790000Y-88000000D01*
X123455000Y-88000000D01*
X123463779Y-88000865D01*
X123472221Y-88003425D01*
X123480001Y-88007584D01*
X123486820Y-88013180D01*
X123492416Y-88019999D01*
X123496575Y-88027779D01*
X123499135Y-88036221D01*
X123500000Y-88045000D01*
X123500000Y-88205000D01*
X123499135Y-88213779D01*
X123496575Y-88222221D01*
X123492416Y-88230001D01*
X123486820Y-88236820D01*
X123480001Y-88242416D01*
X123472221Y-88246575D01*
X123463779Y-88249135D01*
X123455000Y-88250000D01*
X122923640Y-88250000D01*
X122914861Y-88249135D01*
G37*
G36*
X123443626Y-87500301D02*
G01*
X123449693Y-87501201D01*
X123455643Y-87502691D01*
X123461418Y-87504758D01*
X123466962Y-87507380D01*
X123472223Y-87510533D01*
X123477150Y-87514187D01*
X123481694Y-87518306D01*
X123485813Y-87522850D01*
X123489467Y-87527777D01*
X123492620Y-87533038D01*
X123495242Y-87538582D01*
X123497309Y-87544357D01*
X123498799Y-87550307D01*
X123499699Y-87556374D01*
X123500000Y-87562500D01*
X123500000Y-87687500D01*
X123499699Y-87693626D01*
X123498799Y-87699693D01*
X123497309Y-87705643D01*
X123495242Y-87711418D01*
X123492620Y-87716962D01*
X123489467Y-87722223D01*
X123485813Y-87727150D01*
X123481694Y-87731694D01*
X123477150Y-87735813D01*
X123472223Y-87739467D01*
X123466962Y-87742620D01*
X123461418Y-87745242D01*
X123455643Y-87747309D01*
X123449693Y-87748799D01*
X123443626Y-87749699D01*
X123437500Y-87750000D01*
X122687500Y-87750000D01*
X122681374Y-87749699D01*
X122675307Y-87748799D01*
X122669357Y-87747309D01*
X122663582Y-87745242D01*
X122658038Y-87742620D01*
X122652777Y-87739467D01*
X122647850Y-87735813D01*
X122643306Y-87731694D01*
X122639187Y-87727150D01*
X122635533Y-87722223D01*
X122632380Y-87716962D01*
X122629758Y-87711418D01*
X122627691Y-87705643D01*
X122626201Y-87699693D01*
X122625301Y-87693626D01*
X122625000Y-87687500D01*
X122625000Y-87562500D01*
X122625301Y-87556374D01*
X122626201Y-87550307D01*
X122627691Y-87544357D01*
X122629758Y-87538582D01*
X122632380Y-87533038D01*
X122635533Y-87527777D01*
X122639187Y-87522850D01*
X122643306Y-87518306D01*
X122647850Y-87514187D01*
X122652777Y-87510533D01*
X122658038Y-87507380D01*
X122663582Y-87504758D01*
X122669357Y-87502691D01*
X122675307Y-87501201D01*
X122681374Y-87500301D01*
X122687500Y-87500000D01*
X123437500Y-87500000D01*
X123443626Y-87500301D01*
G37*
G36*
X123443626Y-87000301D02*
G01*
X123449693Y-87001201D01*
X123455643Y-87002691D01*
X123461418Y-87004758D01*
X123466962Y-87007380D01*
X123472223Y-87010533D01*
X123477150Y-87014187D01*
X123481694Y-87018306D01*
X123485813Y-87022850D01*
X123489467Y-87027777D01*
X123492620Y-87033038D01*
X123495242Y-87038582D01*
X123497309Y-87044357D01*
X123498799Y-87050307D01*
X123499699Y-87056374D01*
X123500000Y-87062500D01*
X123500000Y-87187500D01*
X123499699Y-87193626D01*
X123498799Y-87199693D01*
X123497309Y-87205643D01*
X123495242Y-87211418D01*
X123492620Y-87216962D01*
X123489467Y-87222223D01*
X123485813Y-87227150D01*
X123481694Y-87231694D01*
X123477150Y-87235813D01*
X123472223Y-87239467D01*
X123466962Y-87242620D01*
X123461418Y-87245242D01*
X123455643Y-87247309D01*
X123449693Y-87248799D01*
X123443626Y-87249699D01*
X123437500Y-87250000D01*
X122687500Y-87250000D01*
X122681374Y-87249699D01*
X122675307Y-87248799D01*
X122669357Y-87247309D01*
X122663582Y-87245242D01*
X122658038Y-87242620D01*
X122652777Y-87239467D01*
X122647850Y-87235813D01*
X122643306Y-87231694D01*
X122639187Y-87227150D01*
X122635533Y-87222223D01*
X122632380Y-87216962D01*
X122629758Y-87211418D01*
X122627691Y-87205643D01*
X122626201Y-87199693D01*
X122625301Y-87193626D01*
X122625000Y-87187500D01*
X122625000Y-87062500D01*
X122625301Y-87056374D01*
X122626201Y-87050307D01*
X122627691Y-87044357D01*
X122629758Y-87038582D01*
X122632380Y-87033038D01*
X122635533Y-87027777D01*
X122639187Y-87022850D01*
X122643306Y-87018306D01*
X122647850Y-87014187D01*
X122652777Y-87010533D01*
X122658038Y-87007380D01*
X122663582Y-87004758D01*
X122669357Y-87002691D01*
X122675307Y-87001201D01*
X122681374Y-87000301D01*
X122687500Y-87000000D01*
X123437500Y-87000000D01*
X123443626Y-87000301D01*
G37*
G36*
X123443626Y-86500301D02*
G01*
X123449693Y-86501201D01*
X123455643Y-86502691D01*
X123461418Y-86504758D01*
X123466962Y-86507380D01*
X123472223Y-86510533D01*
X123477150Y-86514187D01*
X123481694Y-86518306D01*
X123485813Y-86522850D01*
X123489467Y-86527777D01*
X123492620Y-86533038D01*
X123495242Y-86538582D01*
X123497309Y-86544357D01*
X123498799Y-86550307D01*
X123499699Y-86556374D01*
X123500000Y-86562500D01*
X123500000Y-86687500D01*
X123499699Y-86693626D01*
X123498799Y-86699693D01*
X123497309Y-86705643D01*
X123495242Y-86711418D01*
X123492620Y-86716962D01*
X123489467Y-86722223D01*
X123485813Y-86727150D01*
X123481694Y-86731694D01*
X123477150Y-86735813D01*
X123472223Y-86739467D01*
X123466962Y-86742620D01*
X123461418Y-86745242D01*
X123455643Y-86747309D01*
X123449693Y-86748799D01*
X123443626Y-86749699D01*
X123437500Y-86750000D01*
X122687500Y-86750000D01*
X122681374Y-86749699D01*
X122675307Y-86748799D01*
X122669357Y-86747309D01*
X122663582Y-86745242D01*
X122658038Y-86742620D01*
X122652777Y-86739467D01*
X122647850Y-86735813D01*
X122643306Y-86731694D01*
X122639187Y-86727150D01*
X122635533Y-86722223D01*
X122632380Y-86716962D01*
X122629758Y-86711418D01*
X122627691Y-86705643D01*
X122626201Y-86699693D01*
X122625301Y-86693626D01*
X122625000Y-86687500D01*
X122625000Y-86562500D01*
X122625301Y-86556374D01*
X122626201Y-86550307D01*
X122627691Y-86544357D01*
X122629758Y-86538582D01*
X122632380Y-86533038D01*
X122635533Y-86527777D01*
X122639187Y-86522850D01*
X122643306Y-86518306D01*
X122647850Y-86514187D01*
X122652777Y-86510533D01*
X122658038Y-86507380D01*
X122663582Y-86504758D01*
X122669357Y-86502691D01*
X122675307Y-86501201D01*
X122681374Y-86500301D01*
X122687500Y-86500000D01*
X123437500Y-86500000D01*
X123443626Y-86500301D01*
G37*
G36*
X123443626Y-86000301D02*
G01*
X123449693Y-86001201D01*
X123455643Y-86002691D01*
X123461418Y-86004758D01*
X123466962Y-86007380D01*
X123472223Y-86010533D01*
X123477150Y-86014187D01*
X123481694Y-86018306D01*
X123485813Y-86022850D01*
X123489467Y-86027777D01*
X123492620Y-86033038D01*
X123495242Y-86038582D01*
X123497309Y-86044357D01*
X123498799Y-86050307D01*
X123499699Y-86056374D01*
X123500000Y-86062500D01*
X123500000Y-86187500D01*
X123499699Y-86193626D01*
X123498799Y-86199693D01*
X123497309Y-86205643D01*
X123495242Y-86211418D01*
X123492620Y-86216962D01*
X123489467Y-86222223D01*
X123485813Y-86227150D01*
X123481694Y-86231694D01*
X123477150Y-86235813D01*
X123472223Y-86239467D01*
X123466962Y-86242620D01*
X123461418Y-86245242D01*
X123455643Y-86247309D01*
X123449693Y-86248799D01*
X123443626Y-86249699D01*
X123437500Y-86250000D01*
X122687500Y-86250000D01*
X122681374Y-86249699D01*
X122675307Y-86248799D01*
X122669357Y-86247309D01*
X122663582Y-86245242D01*
X122658038Y-86242620D01*
X122652777Y-86239467D01*
X122647850Y-86235813D01*
X122643306Y-86231694D01*
X122639187Y-86227150D01*
X122635533Y-86222223D01*
X122632380Y-86216962D01*
X122629758Y-86211418D01*
X122627691Y-86205643D01*
X122626201Y-86199693D01*
X122625301Y-86193626D01*
X122625000Y-86187500D01*
X122625000Y-86062500D01*
X122625301Y-86056374D01*
X122626201Y-86050307D01*
X122627691Y-86044357D01*
X122629758Y-86038582D01*
X122632380Y-86033038D01*
X122635533Y-86027777D01*
X122639187Y-86022850D01*
X122643306Y-86018306D01*
X122647850Y-86014187D01*
X122652777Y-86010533D01*
X122658038Y-86007380D01*
X122663582Y-86004758D01*
X122669357Y-86002691D01*
X122675307Y-86001201D01*
X122681374Y-86000301D01*
X122687500Y-86000000D01*
X123437500Y-86000000D01*
X123443626Y-86000301D01*
G37*
G36*
X123443626Y-85500301D02*
G01*
X123449693Y-85501201D01*
X123455643Y-85502691D01*
X123461418Y-85504758D01*
X123466962Y-85507380D01*
X123472223Y-85510533D01*
X123477150Y-85514187D01*
X123481694Y-85518306D01*
X123485813Y-85522850D01*
X123489467Y-85527777D01*
X123492620Y-85533038D01*
X123495242Y-85538582D01*
X123497309Y-85544357D01*
X123498799Y-85550307D01*
X123499699Y-85556374D01*
X123500000Y-85562500D01*
X123500000Y-85687500D01*
X123499699Y-85693626D01*
X123498799Y-85699693D01*
X123497309Y-85705643D01*
X123495242Y-85711418D01*
X123492620Y-85716962D01*
X123489467Y-85722223D01*
X123485813Y-85727150D01*
X123481694Y-85731694D01*
X123477150Y-85735813D01*
X123472223Y-85739467D01*
X123466962Y-85742620D01*
X123461418Y-85745242D01*
X123455643Y-85747309D01*
X123449693Y-85748799D01*
X123443626Y-85749699D01*
X123437500Y-85750000D01*
X122687500Y-85750000D01*
X122681374Y-85749699D01*
X122675307Y-85748799D01*
X122669357Y-85747309D01*
X122663582Y-85745242D01*
X122658038Y-85742620D01*
X122652777Y-85739467D01*
X122647850Y-85735813D01*
X122643306Y-85731694D01*
X122639187Y-85727150D01*
X122635533Y-85722223D01*
X122632380Y-85716962D01*
X122629758Y-85711418D01*
X122627691Y-85705643D01*
X122626201Y-85699693D01*
X122625301Y-85693626D01*
X122625000Y-85687500D01*
X122625000Y-85562500D01*
X122625301Y-85556374D01*
X122626201Y-85550307D01*
X122627691Y-85544357D01*
X122629758Y-85538582D01*
X122632380Y-85533038D01*
X122635533Y-85527777D01*
X122639187Y-85522850D01*
X122643306Y-85518306D01*
X122647850Y-85514187D01*
X122652777Y-85510533D01*
X122658038Y-85507380D01*
X122663582Y-85504758D01*
X122669357Y-85502691D01*
X122675307Y-85501201D01*
X122681374Y-85500301D01*
X122687500Y-85500000D01*
X123437500Y-85500000D01*
X123443626Y-85500301D01*
G37*
G36*
X122781221Y-85249135D02*
G01*
X122772779Y-85246575D01*
X122764999Y-85242416D01*
X122758180Y-85236820D01*
X122752584Y-85230001D01*
X122748425Y-85222221D01*
X122745865Y-85213779D01*
X122745000Y-85205000D01*
X122745000Y-85178640D01*
X122745865Y-85169861D01*
X122748425Y-85161419D01*
X122752584Y-85153639D01*
X122758180Y-85146820D01*
X122891820Y-85013180D01*
X122898639Y-85007584D01*
X122906419Y-85003425D01*
X122914861Y-85000865D01*
X122923640Y-85000000D01*
X123455000Y-85000000D01*
X123463779Y-85000865D01*
X123472221Y-85003425D01*
X123480001Y-85007584D01*
X123486820Y-85013180D01*
X123492416Y-85019999D01*
X123496575Y-85027779D01*
X123499135Y-85036221D01*
X123500000Y-85045000D01*
X123500000Y-85205000D01*
X123499135Y-85213779D01*
X123496575Y-85222221D01*
X123492416Y-85230001D01*
X123486820Y-85236820D01*
X123480001Y-85242416D01*
X123472221Y-85246575D01*
X123463779Y-85249135D01*
X123455000Y-85250000D01*
X122790000Y-85250000D01*
X122781221Y-85249135D01*
G37*
G36*
X84440396Y-81635037D02*
G01*
X84464543Y-81639376D01*
X84488148Y-81646062D01*
X84510985Y-81655028D01*
X84532832Y-81666190D01*
X84553481Y-81679440D01*
X84572731Y-81694650D01*
X84590398Y-81711673D01*
X84606311Y-81730346D01*
X84620317Y-81750489D01*
X85945116Y-83870610D01*
X85957080Y-83892029D01*
X85966888Y-83914517D01*
X85974444Y-83937859D01*
X85979675Y-83961828D01*
X85982532Y-83986195D01*
X85982987Y-84010725D01*
X85981036Y-84035181D01*
X85976697Y-84059328D01*
X85970011Y-84082933D01*
X85961045Y-84105770D01*
X85949883Y-84127617D01*
X85936633Y-84148266D01*
X85921423Y-84167516D01*
X85904400Y-84185183D01*
X85885727Y-84201096D01*
X85865584Y-84215102D01*
X84508707Y-85062973D01*
X84487288Y-85074937D01*
X84464800Y-85084745D01*
X84441458Y-85092301D01*
X84417489Y-85097532D01*
X84393122Y-85100389D01*
X84368592Y-85100844D01*
X84344136Y-85098893D01*
X84319989Y-85094554D01*
X84296384Y-85087868D01*
X84273547Y-85078902D01*
X84251700Y-85067740D01*
X84231051Y-85054490D01*
X84211801Y-85039280D01*
X84194134Y-85022257D01*
X84178221Y-85003584D01*
X84164215Y-84983441D01*
X82839416Y-82863320D01*
X82827452Y-82841901D01*
X82817644Y-82819413D01*
X82810088Y-82796071D01*
X82804857Y-82772102D01*
X82802000Y-82747735D01*
X82801545Y-82723205D01*
X82803496Y-82698749D01*
X82807835Y-82674602D01*
X82814521Y-82650997D01*
X82823487Y-82628160D01*
X82834649Y-82606313D01*
X82847899Y-82585664D01*
X82863109Y-82566414D01*
X82880132Y-82548747D01*
X82898805Y-82532834D01*
X82918948Y-82518828D01*
X84275825Y-81670957D01*
X84297244Y-81658993D01*
X84319732Y-81649185D01*
X84343074Y-81641629D01*
X84367043Y-81636398D01*
X84391410Y-81633541D01*
X84415940Y-81633086D01*
X84440396Y-81635037D01*
G37*
G36*
X91945622Y-76945251D02*
G01*
X91969769Y-76949590D01*
X91993374Y-76956276D01*
X92016211Y-76965242D01*
X92038058Y-76976404D01*
X92058707Y-76989654D01*
X92077957Y-77004864D01*
X92095624Y-77021887D01*
X92111537Y-77040560D01*
X92125543Y-77060703D01*
X93450342Y-79180824D01*
X93462306Y-79202243D01*
X93472114Y-79224731D01*
X93479670Y-79248073D01*
X93484901Y-79272042D01*
X93487758Y-79296409D01*
X93488213Y-79320939D01*
X93486262Y-79345395D01*
X93481923Y-79369542D01*
X93475237Y-79393147D01*
X93466271Y-79415984D01*
X93455109Y-79437831D01*
X93441859Y-79458480D01*
X93426649Y-79477730D01*
X93409626Y-79495397D01*
X93390953Y-79511310D01*
X93370810Y-79525316D01*
X92013933Y-80373187D01*
X91992514Y-80385151D01*
X91970026Y-80394959D01*
X91946684Y-80402515D01*
X91922715Y-80407746D01*
X91898348Y-80410603D01*
X91873818Y-80411058D01*
X91849362Y-80409107D01*
X91825215Y-80404768D01*
X91801610Y-80398082D01*
X91778773Y-80389116D01*
X91756926Y-80377954D01*
X91736277Y-80364704D01*
X91717027Y-80349494D01*
X91699360Y-80332471D01*
X91683447Y-80313798D01*
X91669441Y-80293655D01*
X90344642Y-78173534D01*
X90332678Y-78152115D01*
X90322870Y-78129627D01*
X90315314Y-78106285D01*
X90310083Y-78082316D01*
X90307226Y-78057949D01*
X90306771Y-78033419D01*
X90308722Y-78008963D01*
X90313061Y-77984816D01*
X90319747Y-77961211D01*
X90328713Y-77938374D01*
X90339875Y-77916527D01*
X90353125Y-77895878D01*
X90368335Y-77876628D01*
X90385358Y-77858961D01*
X90404031Y-77843048D01*
X90424174Y-77829042D01*
X91781051Y-76981171D01*
X91802470Y-76969207D01*
X91824958Y-76959399D01*
X91848300Y-76951843D01*
X91872269Y-76946612D01*
X91896636Y-76943755D01*
X91921166Y-76943300D01*
X91945622Y-76945251D01*
G37*
G36*
X85054330Y-78997589D02*
G01*
X85073647Y-79001060D01*
X85092532Y-79006408D01*
X85110801Y-79013582D01*
X85128279Y-79022511D01*
X85144798Y-79033111D01*
X85160198Y-79045279D01*
X85174331Y-79058898D01*
X85187062Y-79073836D01*
X85198267Y-79089950D01*
X85675194Y-79853193D01*
X85684765Y-79870328D01*
X85692611Y-79888319D01*
X85698656Y-79906992D01*
X85702841Y-79926168D01*
X85705127Y-79945661D01*
X85705491Y-79965285D01*
X85703929Y-79984850D01*
X85700458Y-80004167D01*
X85695110Y-80023052D01*
X85687936Y-80041321D01*
X85679007Y-80058799D01*
X85668407Y-80075318D01*
X85656239Y-80090718D01*
X85642621Y-80104851D01*
X85627682Y-80117582D01*
X85611568Y-80128787D01*
X85272349Y-80340754D01*
X85255214Y-80350325D01*
X85237223Y-80358171D01*
X85218550Y-80364216D01*
X85199374Y-80368401D01*
X85179881Y-80370687D01*
X85160257Y-80371051D01*
X85140692Y-80369489D01*
X85121375Y-80366018D01*
X85102490Y-80360670D01*
X85084221Y-80353496D01*
X85066743Y-80344567D01*
X85050224Y-80333967D01*
X85034824Y-80321799D01*
X85020691Y-80308180D01*
X85007960Y-80293242D01*
X84996755Y-80277128D01*
X84519828Y-79513885D01*
X84510257Y-79496750D01*
X84502411Y-79478759D01*
X84496366Y-79460086D01*
X84492181Y-79440910D01*
X84489895Y-79421417D01*
X84489531Y-79401793D01*
X84491093Y-79382228D01*
X84494564Y-79362911D01*
X84499912Y-79344026D01*
X84507086Y-79325757D01*
X84516015Y-79308279D01*
X84526615Y-79291760D01*
X84538783Y-79276360D01*
X84552401Y-79262227D01*
X84567340Y-79249496D01*
X84583454Y-79238291D01*
X84922673Y-79026324D01*
X84939808Y-79016753D01*
X84957799Y-79008907D01*
X84976472Y-79002862D01*
X84995648Y-78998677D01*
X85015141Y-78996391D01*
X85034765Y-78996027D01*
X85054330Y-78997589D01*
G37*
G36*
X86114390Y-78335189D02*
G01*
X86133707Y-78338660D01*
X86152592Y-78344008D01*
X86170861Y-78351182D01*
X86188339Y-78360111D01*
X86204858Y-78370711D01*
X86220258Y-78382879D01*
X86234391Y-78396498D01*
X86247122Y-78411436D01*
X86258327Y-78427550D01*
X86735254Y-79190793D01*
X86744825Y-79207928D01*
X86752671Y-79225919D01*
X86758716Y-79244592D01*
X86762901Y-79263768D01*
X86765187Y-79283261D01*
X86765551Y-79302885D01*
X86763989Y-79322450D01*
X86760518Y-79341767D01*
X86755170Y-79360652D01*
X86747996Y-79378921D01*
X86739067Y-79396399D01*
X86728467Y-79412918D01*
X86716299Y-79428318D01*
X86702681Y-79442451D01*
X86687742Y-79455182D01*
X86671628Y-79466387D01*
X86332409Y-79678354D01*
X86315274Y-79687925D01*
X86297283Y-79695771D01*
X86278610Y-79701816D01*
X86259434Y-79706001D01*
X86239941Y-79708287D01*
X86220317Y-79708651D01*
X86200752Y-79707089D01*
X86181435Y-79703618D01*
X86162550Y-79698270D01*
X86144281Y-79691096D01*
X86126803Y-79682167D01*
X86110284Y-79671567D01*
X86094884Y-79659399D01*
X86080751Y-79645780D01*
X86068020Y-79630842D01*
X86056815Y-79614728D01*
X85579888Y-78851485D01*
X85570317Y-78834350D01*
X85562471Y-78816359D01*
X85556426Y-78797686D01*
X85552241Y-78778510D01*
X85549955Y-78759017D01*
X85549591Y-78739393D01*
X85551153Y-78719828D01*
X85554624Y-78700511D01*
X85559972Y-78681626D01*
X85567146Y-78663357D01*
X85576075Y-78645879D01*
X85586675Y-78629360D01*
X85598843Y-78613960D01*
X85612461Y-78599827D01*
X85627400Y-78587096D01*
X85643514Y-78575891D01*
X85982733Y-78363924D01*
X85999868Y-78354353D01*
X86017859Y-78346507D01*
X86036532Y-78340462D01*
X86055708Y-78336277D01*
X86075201Y-78333991D01*
X86094825Y-78333627D01*
X86114390Y-78335189D01*
G37*
G36*
X87174450Y-77672790D02*
G01*
X87193767Y-77676261D01*
X87212652Y-77681609D01*
X87230921Y-77688783D01*
X87248399Y-77697712D01*
X87264918Y-77708312D01*
X87280318Y-77720480D01*
X87294451Y-77734099D01*
X87307182Y-77749037D01*
X87318387Y-77765151D01*
X87795314Y-78528394D01*
X87804885Y-78545529D01*
X87812731Y-78563520D01*
X87818776Y-78582193D01*
X87822961Y-78601369D01*
X87825247Y-78620862D01*
X87825611Y-78640486D01*
X87824049Y-78660051D01*
X87820578Y-78679368D01*
X87815230Y-78698253D01*
X87808056Y-78716522D01*
X87799127Y-78734000D01*
X87788527Y-78750519D01*
X87776359Y-78765919D01*
X87762741Y-78780052D01*
X87747802Y-78792783D01*
X87731688Y-78803988D01*
X87392469Y-79015955D01*
X87375334Y-79025526D01*
X87357343Y-79033372D01*
X87338670Y-79039417D01*
X87319494Y-79043602D01*
X87300001Y-79045888D01*
X87280377Y-79046252D01*
X87260812Y-79044690D01*
X87241495Y-79041219D01*
X87222610Y-79035871D01*
X87204341Y-79028697D01*
X87186863Y-79019768D01*
X87170344Y-79009168D01*
X87154944Y-78997000D01*
X87140811Y-78983381D01*
X87128080Y-78968443D01*
X87116875Y-78952329D01*
X86639948Y-78189086D01*
X86630377Y-78171951D01*
X86622531Y-78153960D01*
X86616486Y-78135287D01*
X86612301Y-78116111D01*
X86610015Y-78096618D01*
X86609651Y-78076994D01*
X86611213Y-78057429D01*
X86614684Y-78038112D01*
X86620032Y-78019227D01*
X86627206Y-78000958D01*
X86636135Y-77983480D01*
X86646735Y-77966961D01*
X86658903Y-77951561D01*
X86672521Y-77937428D01*
X86687460Y-77924697D01*
X86703574Y-77913492D01*
X87042793Y-77701525D01*
X87059928Y-77691954D01*
X87077919Y-77684108D01*
X87096592Y-77678063D01*
X87115768Y-77673878D01*
X87135261Y-77671592D01*
X87154885Y-77671228D01*
X87174450Y-77672790D01*
G37*
G36*
X88234510Y-77010391D02*
G01*
X88253827Y-77013862D01*
X88272712Y-77019210D01*
X88290981Y-77026384D01*
X88308459Y-77035313D01*
X88324978Y-77045913D01*
X88340378Y-77058081D01*
X88354511Y-77071700D01*
X88367242Y-77086638D01*
X88378447Y-77102752D01*
X88855374Y-77865995D01*
X88864945Y-77883130D01*
X88872791Y-77901121D01*
X88878836Y-77919794D01*
X88883021Y-77938970D01*
X88885307Y-77958463D01*
X88885671Y-77978087D01*
X88884109Y-77997652D01*
X88880638Y-78016969D01*
X88875290Y-78035854D01*
X88868116Y-78054123D01*
X88859187Y-78071601D01*
X88848587Y-78088120D01*
X88836419Y-78103520D01*
X88822801Y-78117653D01*
X88807862Y-78130384D01*
X88791748Y-78141589D01*
X88452529Y-78353556D01*
X88435394Y-78363127D01*
X88417403Y-78370973D01*
X88398730Y-78377018D01*
X88379554Y-78381203D01*
X88360061Y-78383489D01*
X88340437Y-78383853D01*
X88320872Y-78382291D01*
X88301555Y-78378820D01*
X88282670Y-78373472D01*
X88264401Y-78366298D01*
X88246923Y-78357369D01*
X88230404Y-78346769D01*
X88215004Y-78334601D01*
X88200871Y-78320982D01*
X88188140Y-78306044D01*
X88176935Y-78289930D01*
X87700008Y-77526687D01*
X87690437Y-77509552D01*
X87682591Y-77491561D01*
X87676546Y-77472888D01*
X87672361Y-77453712D01*
X87670075Y-77434219D01*
X87669711Y-77414595D01*
X87671273Y-77395030D01*
X87674744Y-77375713D01*
X87680092Y-77356828D01*
X87687266Y-77338559D01*
X87696195Y-77321081D01*
X87706795Y-77304562D01*
X87718963Y-77289162D01*
X87732581Y-77275029D01*
X87747520Y-77262298D01*
X87763634Y-77251093D01*
X88102853Y-77039126D01*
X88119988Y-77029555D01*
X88137979Y-77021709D01*
X88156652Y-77015664D01*
X88175828Y-77011479D01*
X88195321Y-77009193D01*
X88214945Y-77008829D01*
X88234510Y-77010391D01*
G37*
G36*
X79306569Y-113182305D02*
G01*
X78882305Y-113606569D01*
X78528751Y-113253015D01*
X78953015Y-112828751D01*
X79306569Y-113182305D01*
G37*
G36*
X79971249Y-113846985D02*
G01*
X79546985Y-114271249D01*
X79193431Y-113917695D01*
X79617695Y-113493431D01*
X79971249Y-113846985D01*
G37*
D11*
X83880000Y-118900000D03*
X84820000Y-118900000D03*
D10*
G36*
X80506569Y-111907305D02*
G01*
X80082305Y-112331569D01*
X79728751Y-111978015D01*
X80153015Y-111553751D01*
X80506569Y-111907305D01*
G37*
G36*
X81171249Y-112571985D02*
G01*
X80746985Y-112996249D01*
X80393431Y-112642695D01*
X80817695Y-112218431D01*
X81171249Y-112571985D01*
G37*
D12*
X86850000Y-118970000D03*
X86850000Y-118030000D03*
D13*
X85500000Y-122150000D03*
X86450000Y-120150000D03*
X84550000Y-120150000D03*
D14*
X90000000Y-120200000D03*
X88000000Y-119250000D03*
X88000000Y-121150000D03*
X108965901Y-78071967D03*
X110965901Y-79021967D03*
X110965901Y-77121967D03*
D12*
X85800000Y-118970000D03*
X85800000Y-118030000D03*
D11*
X119195000Y-112275000D03*
X118255000Y-112275000D03*
D10*
G36*
X112303786Y-118970639D02*
G01*
X112728050Y-118546375D01*
X113081604Y-118899929D01*
X112657340Y-119324193D01*
X112303786Y-118970639D01*
G37*
G36*
X111639106Y-118305959D02*
G01*
X112063370Y-117881695D01*
X112416924Y-118235249D01*
X111992660Y-118659513D01*
X111639106Y-118305959D01*
G37*
D11*
X119195000Y-113475000D03*
X118255000Y-113475000D03*
D12*
X122700000Y-111620000D03*
X122700000Y-110680000D03*
D10*
G36*
X113957305Y-122218431D02*
G01*
X114381569Y-122642695D01*
X114028015Y-122996249D01*
X113603751Y-122571985D01*
X113957305Y-122218431D01*
G37*
G36*
X114621985Y-121553751D02*
G01*
X115046249Y-121978015D01*
X114692695Y-122331569D01*
X114268431Y-121907305D01*
X114621985Y-121553751D01*
G37*
D12*
X122700000Y-115120000D03*
X122700000Y-114180000D03*
D14*
X119500000Y-111125000D03*
X121500000Y-112075000D03*
X121500000Y-110175000D03*
D10*
G36*
X112696231Y-119999479D02*
G01*
X112130545Y-120565165D01*
X111494149Y-119928769D01*
X112059835Y-119363083D01*
X112696231Y-119999479D01*
G37*
G36*
X113438693Y-122085444D02*
G01*
X112873007Y-122651130D01*
X112236611Y-122014734D01*
X112802297Y-121449048D01*
X113438693Y-122085444D01*
G37*
G36*
X114782196Y-120741941D02*
G01*
X114216510Y-121307627D01*
X113580114Y-120671231D01*
X114145800Y-120105545D01*
X114782196Y-120741941D01*
G37*
D14*
X119500000Y-114625000D03*
X121500000Y-115575000D03*
X121500000Y-113675000D03*
D15*
X88200000Y-122700000D03*
X86700000Y-122700000D03*
X90750000Y-122700000D03*
X89250000Y-122700000D03*
D16*
X112299353Y-77525000D03*
X112299353Y-79025000D03*
X107600000Y-76575000D03*
X107600000Y-78075000D03*
D11*
X122430000Y-83500000D03*
X123370000Y-83500000D03*
D12*
X118000000Y-87620000D03*
X118000000Y-86680000D03*
M02*
