G04 #@! TF.GenerationSoftware,KiCad,Pcbnew,5.1.5+dfsg1-2build2*
G04 #@! TF.CreationDate,2021-05-18T14:50:11+02:00*
G04 #@! TF.ProjectId,lensmount-v1.0,6c656e73-6d6f-4756-9e74-2d76312e302e,rev?*
G04 #@! TF.SameCoordinates,Original*
G04 #@! TF.FileFunction,Copper,L1,Top*
G04 #@! TF.FilePolarity,Positive*
%FSLAX46Y46*%
G04 Gerber Fmt 4.6, Leading zero omitted, Abs format (unit mm)*
G04 Created by KiCad (PCBNEW 5.1.5+dfsg1-2build2) date 2021-05-18 14:50:11*
%MOMM*%
%LPD*%
G04 APERTURE LIST*
%ADD10C,0.800000*%
%ADD11C,6.000000*%
%ADD12C,0.784860*%
%ADD13C,1.800000*%
%ADD14C,0.600000*%
%ADD15C,0.300000*%
%ADD16C,0.200000*%
%ADD17C,0.600000*%
%ADD18C,0.154000*%
G04 APERTURE END LIST*
D10*
X121590990Y-118409010D03*
X120000000Y-117750000D03*
X118409010Y-118409010D03*
X117750000Y-120000000D03*
X118409010Y-121590990D03*
X120000000Y-122250000D03*
X121590990Y-121590990D03*
X122250000Y-120000000D03*
D11*
X120000000Y-120000000D03*
D10*
X121590990Y-78409010D03*
X120000000Y-77750000D03*
X118409010Y-78409010D03*
X117750000Y-80000000D03*
X118409010Y-81590990D03*
X120000000Y-82250000D03*
X121590990Y-81590990D03*
X122250000Y-80000000D03*
D11*
X120000000Y-80000000D03*
D10*
X81590990Y-118409010D03*
X80000000Y-117750000D03*
X78409010Y-118409010D03*
X77750000Y-120000000D03*
X78409010Y-121590990D03*
X80000000Y-122250000D03*
X81590990Y-121590990D03*
X82250000Y-120000000D03*
D11*
X80000000Y-120000000D03*
D10*
X81590990Y-78409010D03*
X80000000Y-77750000D03*
X78409010Y-78409010D03*
X77750000Y-80000000D03*
X78409010Y-81590990D03*
X80000000Y-82250000D03*
X81590990Y-81590990D03*
X82250000Y-80000000D03*
D11*
X80000000Y-80000000D03*
D12*
X114040000Y-77655000D03*
X115310000Y-77655000D03*
X114040000Y-78925000D03*
X115310000Y-78925000D03*
X114040000Y-80195000D03*
X115310000Y-80195000D03*
D13*
X101900000Y-122200000D03*
X104125000Y-121875000D03*
X99700000Y-122325000D03*
X106275000Y-121400000D03*
X96175000Y-122000000D03*
X108425000Y-120650000D03*
X94000000Y-121500000D03*
X91900000Y-120850000D03*
D14*
X91875000Y-77350000D03*
X91950000Y-79775000D03*
X85425000Y-83925000D03*
X84425000Y-84550000D03*
X84925000Y-83150000D03*
X90225000Y-121450000D03*
X91975000Y-122400000D03*
X88200000Y-122125000D03*
X90125000Y-122375000D03*
X84450000Y-80825000D03*
X103750000Y-77375000D03*
X105975000Y-75850000D03*
X105600000Y-79225000D03*
X109775000Y-76975000D03*
X112325000Y-76600000D03*
X119350000Y-90350000D03*
X121175000Y-87375000D03*
X121450000Y-86025000D03*
X122875000Y-89875000D03*
X123075000Y-93225000D03*
X123100000Y-100775000D03*
X120800000Y-106825000D03*
X123050000Y-109525000D03*
X122575000Y-112875000D03*
X118125000Y-115350000D03*
X118375000Y-111275000D03*
X77600000Y-87600000D03*
X78800000Y-89600000D03*
X82000000Y-83600000D03*
X78600000Y-109000000D03*
X77200000Y-112800000D03*
X79600000Y-115600000D03*
X82200000Y-112800000D03*
X86200000Y-116600000D03*
X89200000Y-119000000D03*
X112325000Y-80100000D03*
X120225000Y-87074989D03*
X116100000Y-78325000D03*
X113300000Y-119500000D03*
X119625000Y-113475000D03*
X119625000Y-112275000D03*
X114624415Y-79496321D03*
X113600000Y-81075000D03*
X119674990Y-110075000D03*
X120475000Y-115900000D03*
X123075000Y-92000000D03*
X85500000Y-122150000D03*
X85500000Y-123100000D03*
X87575000Y-120200000D03*
X85425003Y-117224997D03*
X119050000Y-89500000D03*
X79550000Y-111375000D03*
X118800000Y-88725000D03*
X78275000Y-112600000D03*
D15*
X112325000Y-80725000D02*
X112325000Y-80100000D01*
X117050000Y-82600000D02*
X114200000Y-82600000D01*
X114200000Y-82600000D02*
X112325000Y-80725000D01*
X117050000Y-81935000D02*
X115310000Y-80195000D01*
X117050000Y-82600000D02*
X117050000Y-81935000D01*
X120225000Y-86650725D02*
X120225000Y-87074989D01*
X117050000Y-82600000D02*
X120225000Y-85775000D01*
X120225000Y-85775000D02*
X120225000Y-86650725D01*
D16*
X115500000Y-78925000D02*
X116100000Y-78325000D01*
X115310000Y-78925000D02*
X115500000Y-78925000D01*
X112875000Y-119500000D02*
X113300000Y-119500000D01*
X109250000Y-123125000D02*
X112875000Y-119500000D01*
X102825000Y-123125000D02*
X109250000Y-123125000D01*
X101900000Y-122200000D02*
X102825000Y-123125000D01*
X104125000Y-121875000D02*
X104974989Y-122724989D01*
X104974989Y-122724989D02*
X109075011Y-122724989D01*
X109075011Y-122724989D02*
X118325000Y-113475000D01*
X118325000Y-113475000D02*
X119200736Y-113475000D01*
X119200736Y-113475000D02*
X119625000Y-113475000D01*
X119200736Y-112275000D02*
X119625000Y-112275000D01*
X118959300Y-112275000D02*
X119200736Y-112275000D01*
X108934301Y-122299999D02*
X118959300Y-112275000D01*
X107174999Y-122299999D02*
X108934301Y-122299999D01*
X106275000Y-121400000D02*
X107174999Y-122299999D01*
X114611321Y-79496321D02*
X114040000Y-78925000D01*
X114624415Y-79496321D02*
X114611321Y-79496321D01*
X114040000Y-80635000D02*
X114040000Y-80195000D01*
X113600000Y-81075000D02*
X114040000Y-80635000D01*
X120475000Y-115475736D02*
X120475000Y-115900000D01*
X119674990Y-110075000D02*
X120475000Y-110875010D01*
X120475000Y-110875010D02*
X120475000Y-115475736D01*
X92500000Y-123000000D02*
X94000000Y-121500000D01*
X86950000Y-123000000D02*
X92500000Y-123000000D01*
X123075000Y-92000000D02*
X124190566Y-93115566D01*
X86600000Y-121900000D02*
X86600000Y-122650000D01*
X124190566Y-93115566D02*
X124190566Y-121159434D01*
X124190566Y-121159434D02*
X121400000Y-123950000D01*
X121400000Y-123950000D02*
X99650000Y-123950000D01*
X99650000Y-123950000D02*
X99150000Y-124450000D01*
X86600000Y-122650000D02*
X86950000Y-123000000D01*
X99150000Y-124450000D02*
X85600000Y-124450000D01*
X85600000Y-124450000D02*
X84500000Y-123350000D01*
X84500000Y-123350000D02*
X84500000Y-121725000D01*
X84500000Y-121725000D02*
X85000000Y-121225000D01*
X85000000Y-121225000D02*
X85925000Y-121225000D01*
X85925000Y-121225000D02*
X86600000Y-121900000D01*
D17*
X85799999Y-123399999D02*
X85500000Y-123100000D01*
X86150000Y-123750000D02*
X85799999Y-123399999D01*
X98275000Y-123750000D02*
X86150000Y-123750000D01*
X99700000Y-122325000D02*
X98275000Y-123750000D01*
X85500000Y-123100000D02*
X85500000Y-122150000D01*
D16*
X87225000Y-119024994D02*
X85425003Y-117224997D01*
X87225000Y-119850000D02*
X87225000Y-119024994D01*
X87575000Y-120200000D02*
X87225000Y-119850000D01*
X79250001Y-111075001D02*
X79550000Y-111375000D01*
X77700011Y-109525011D02*
X79250001Y-111075001D01*
X77700011Y-89415689D02*
X77700011Y-109525011D01*
X88665689Y-78450011D02*
X77700011Y-89415689D01*
X118193045Y-89067309D02*
X118193045Y-87843045D01*
X118625736Y-89500000D02*
X118193045Y-89067309D01*
X119050000Y-89500000D02*
X118625736Y-89500000D01*
X118193045Y-87843045D02*
X108800011Y-78450011D01*
X108800011Y-78450011D02*
X88665689Y-78450011D01*
X77975001Y-112300001D02*
X78275000Y-112600000D01*
X118800000Y-88725000D02*
X118800000Y-87884300D01*
X118800000Y-87884300D02*
X108965700Y-78050000D01*
X77300000Y-111625000D02*
X77975001Y-112300001D01*
X88500000Y-78050000D02*
X77300000Y-89250000D01*
X108965700Y-78050000D02*
X88500000Y-78050000D01*
X77300000Y-89250000D02*
X77300000Y-111625000D01*
D18*
G36*
X120814023Y-75475850D02*
G01*
X121602314Y-75691502D01*
X122339966Y-76043344D01*
X123003641Y-76520243D01*
X123572384Y-77107140D01*
X124028208Y-77785477D01*
X124356701Y-78533808D01*
X124548044Y-79330809D01*
X124598000Y-80011075D01*
X124598000Y-99823000D01*
X124567566Y-99823000D01*
X124567566Y-93134085D01*
X124569390Y-93115566D01*
X124562111Y-93041660D01*
X124540554Y-92970596D01*
X124505547Y-92905103D01*
X124470240Y-92862081D01*
X124470238Y-92862079D01*
X124458435Y-92847697D01*
X124444054Y-92835895D01*
X123652000Y-92043842D01*
X123652000Y-91943170D01*
X123629826Y-91831695D01*
X123586331Y-91726688D01*
X123523185Y-91632184D01*
X123442816Y-91551815D01*
X123348312Y-91488669D01*
X123243305Y-91445174D01*
X123131830Y-91423000D01*
X123018170Y-91423000D01*
X122906695Y-91445174D01*
X122801688Y-91488669D01*
X122707184Y-91551815D01*
X122626815Y-91632184D01*
X122563669Y-91726688D01*
X122520174Y-91831695D01*
X122498000Y-91943170D01*
X122498000Y-92056830D01*
X122520174Y-92168305D01*
X122563669Y-92273312D01*
X122626815Y-92367816D01*
X122707184Y-92448185D01*
X122801688Y-92511331D01*
X122906695Y-92554826D01*
X123018170Y-92577000D01*
X123118842Y-92577000D01*
X123813566Y-93271725D01*
X123813566Y-99823000D01*
X121201801Y-99823000D01*
X121201801Y-99074309D01*
X121040443Y-97229973D01*
X120718954Y-95406719D01*
X120239781Y-93618422D01*
X119606571Y-91878692D01*
X118824144Y-90200771D01*
X118673026Y-89939027D01*
X118682184Y-89948185D01*
X118776688Y-90011331D01*
X118881695Y-90054826D01*
X118993170Y-90077000D01*
X119106830Y-90077000D01*
X119218305Y-90054826D01*
X119323312Y-90011331D01*
X119417816Y-89948185D01*
X119498185Y-89867816D01*
X119561331Y-89773312D01*
X119604826Y-89668305D01*
X119627000Y-89556830D01*
X119627000Y-89443170D01*
X119604826Y-89331695D01*
X119561331Y-89226688D01*
X119498185Y-89132184D01*
X119417816Y-89051815D01*
X119323312Y-88988669D01*
X119316495Y-88985845D01*
X119354826Y-88893305D01*
X119377000Y-88781830D01*
X119377000Y-88668170D01*
X119354826Y-88556695D01*
X119311331Y-88451688D01*
X119248185Y-88357184D01*
X119177000Y-88285999D01*
X119177000Y-87902808D01*
X119178823Y-87884299D01*
X119177000Y-87865790D01*
X119177000Y-87865781D01*
X119171545Y-87810395D01*
X119149988Y-87739330D01*
X119114981Y-87673837D01*
X119067869Y-87616431D01*
X119053481Y-87604623D01*
X114475858Y-83027000D01*
X116873132Y-83027000D01*
X119798000Y-85951869D01*
X119798001Y-86629738D01*
X119798000Y-86629748D01*
X119798000Y-86685988D01*
X119776815Y-86707173D01*
X119713669Y-86801677D01*
X119670174Y-86906684D01*
X119648000Y-87018159D01*
X119648000Y-87131819D01*
X119670174Y-87243294D01*
X119713669Y-87348301D01*
X119776815Y-87442805D01*
X119857184Y-87523174D01*
X119951688Y-87586320D01*
X120056695Y-87629815D01*
X120168170Y-87651989D01*
X120281830Y-87651989D01*
X120393305Y-87629815D01*
X120498312Y-87586320D01*
X120592816Y-87523174D01*
X120673185Y-87442805D01*
X120736331Y-87348301D01*
X120779826Y-87243294D01*
X120802000Y-87131819D01*
X120802000Y-87018159D01*
X120779826Y-86906684D01*
X120736331Y-86801677D01*
X120673185Y-86707173D01*
X120652000Y-86685988D01*
X120652000Y-85795966D01*
X120654065Y-85774999D01*
X120652000Y-85754032D01*
X120652000Y-85754022D01*
X120645822Y-85691293D01*
X120621405Y-85610804D01*
X120581756Y-85536625D01*
X120581755Y-85536623D01*
X120541768Y-85487899D01*
X120541764Y-85487895D01*
X120528395Y-85471605D01*
X120512106Y-85458237D01*
X117477000Y-82423132D01*
X117477000Y-82398478D01*
X117846181Y-82398478D01*
X118207141Y-82761984D01*
X118780427Y-83058682D01*
X119400581Y-83237837D01*
X120043769Y-83292564D01*
X120685276Y-83220760D01*
X121300447Y-83025182D01*
X121792859Y-82761984D01*
X122153819Y-82398478D01*
X120000000Y-80244659D01*
X117846181Y-82398478D01*
X117477000Y-82398478D01*
X117477000Y-82030169D01*
X117601522Y-82153819D01*
X119755341Y-80000000D01*
X120244659Y-80000000D01*
X122398478Y-82153819D01*
X122761984Y-81792859D01*
X123058682Y-81219573D01*
X123237837Y-80599419D01*
X123292564Y-79956231D01*
X123220760Y-79314724D01*
X123025182Y-78699553D01*
X122761984Y-78207141D01*
X122398478Y-77846181D01*
X120244659Y-80000000D01*
X119755341Y-80000000D01*
X117601522Y-77846181D01*
X117238016Y-78207141D01*
X116941318Y-78780427D01*
X116762163Y-79400581D01*
X116707436Y-80043769D01*
X116779240Y-80685276D01*
X116954077Y-81235208D01*
X115979430Y-80260562D01*
X115979430Y-80129067D01*
X115953704Y-79999734D01*
X115903241Y-79877906D01*
X115829980Y-79768263D01*
X115736737Y-79675020D01*
X115627094Y-79601759D01*
X115526279Y-79560000D01*
X115627094Y-79518241D01*
X115736737Y-79444980D01*
X115829980Y-79351737D01*
X115903241Y-79242094D01*
X115953704Y-79120266D01*
X115979430Y-78990933D01*
X115979430Y-78978728D01*
X116056158Y-78902000D01*
X116156830Y-78902000D01*
X116268305Y-78879826D01*
X116373312Y-78836331D01*
X116467816Y-78773185D01*
X116548185Y-78692816D01*
X116611331Y-78598312D01*
X116654826Y-78493305D01*
X116677000Y-78381830D01*
X116677000Y-78268170D01*
X116654826Y-78156695D01*
X116611331Y-78051688D01*
X116548185Y-77957184D01*
X116467816Y-77876815D01*
X116373312Y-77813669D01*
X116268305Y-77770174D01*
X116156830Y-77748000D01*
X116043170Y-77748000D01*
X115973362Y-77761886D01*
X115982468Y-77638529D01*
X115977906Y-77601522D01*
X117846181Y-77601522D01*
X120000000Y-79755341D01*
X122153819Y-77601522D01*
X121792859Y-77238016D01*
X121219573Y-76941318D01*
X120599419Y-76762163D01*
X119956231Y-76707436D01*
X119314724Y-76779240D01*
X118699553Y-76974818D01*
X118207141Y-77238016D01*
X117846181Y-77601522D01*
X115977906Y-77601522D01*
X115966333Y-77507654D01*
X115937582Y-77412875D01*
X115841099Y-77368560D01*
X115554659Y-77655000D01*
X115568801Y-77669142D01*
X115324142Y-77913801D01*
X115310000Y-77899659D01*
X115023560Y-78186099D01*
X115067875Y-78282582D01*
X115094103Y-78289842D01*
X114992906Y-78331759D01*
X114883263Y-78405020D01*
X114790020Y-78498263D01*
X114716759Y-78607906D01*
X114675000Y-78708721D01*
X114633241Y-78607906D01*
X114559980Y-78498263D01*
X114466737Y-78405020D01*
X114357094Y-78331759D01*
X114256279Y-78290000D01*
X114357094Y-78248241D01*
X114466737Y-78174980D01*
X114559980Y-78081737D01*
X114633241Y-77972094D01*
X114674756Y-77871868D01*
X114682418Y-77897125D01*
X114778901Y-77941440D01*
X115065341Y-77655000D01*
X114778901Y-77368560D01*
X114682418Y-77412875D01*
X114675158Y-77439103D01*
X114633241Y-77337906D01*
X114559980Y-77228263D01*
X114466737Y-77135020D01*
X114357094Y-77061759D01*
X114235266Y-77011296D01*
X114136590Y-76991668D01*
X114149694Y-76982912D01*
X114256912Y-76875694D01*
X114341153Y-76749618D01*
X114399179Y-76609531D01*
X114428760Y-76460815D01*
X114428760Y-76309185D01*
X114921240Y-76309185D01*
X114921240Y-76460815D01*
X114950821Y-76609531D01*
X115008847Y-76749618D01*
X115093088Y-76875694D01*
X115200306Y-76982912D01*
X115214347Y-76992294D01*
X115162654Y-76998667D01*
X115067875Y-77027418D01*
X115023560Y-77123901D01*
X115310000Y-77410341D01*
X115573811Y-77146530D01*
X115615185Y-77154760D01*
X115766815Y-77154760D01*
X115915531Y-77125179D01*
X116055618Y-77067153D01*
X116181694Y-76982912D01*
X116288912Y-76875694D01*
X116373153Y-76749618D01*
X116431179Y-76609531D01*
X116460760Y-76460815D01*
X116460760Y-76309185D01*
X116431179Y-76160469D01*
X116373153Y-76020382D01*
X116288912Y-75894306D01*
X116181694Y-75787088D01*
X116055618Y-75702847D01*
X115915531Y-75644821D01*
X115766815Y-75615240D01*
X115615185Y-75615240D01*
X115466469Y-75644821D01*
X115326382Y-75702847D01*
X115200306Y-75787088D01*
X115093088Y-75894306D01*
X115008847Y-76020382D01*
X114950821Y-76160469D01*
X114921240Y-76309185D01*
X114428760Y-76309185D01*
X114399179Y-76160469D01*
X114341153Y-76020382D01*
X114256912Y-75894306D01*
X114149694Y-75787088D01*
X114023618Y-75702847D01*
X113883531Y-75644821D01*
X113734815Y-75615240D01*
X113583185Y-75615240D01*
X113434469Y-75644821D01*
X113294382Y-75702847D01*
X113168306Y-75787088D01*
X113061088Y-75894306D01*
X112976847Y-76020382D01*
X112918821Y-76160469D01*
X112889240Y-76309185D01*
X112889240Y-76460815D01*
X112918821Y-76609531D01*
X112976847Y-76749618D01*
X113061088Y-76875694D01*
X113168306Y-76982912D01*
X113294382Y-77067153D01*
X113434469Y-77125179D01*
X113583185Y-77154760D01*
X113593523Y-77154760D01*
X113520020Y-77228263D01*
X113446759Y-77337906D01*
X113396296Y-77459734D01*
X113370570Y-77589067D01*
X113370570Y-77720933D01*
X113396296Y-77850266D01*
X113446759Y-77972094D01*
X113520020Y-78081737D01*
X113613263Y-78174980D01*
X113722906Y-78248241D01*
X113823721Y-78290000D01*
X113722906Y-78331759D01*
X113613263Y-78405020D01*
X113520020Y-78498263D01*
X113446759Y-78607906D01*
X113396296Y-78729734D01*
X113370570Y-78859067D01*
X113370570Y-78990933D01*
X113396296Y-79120266D01*
X113446759Y-79242094D01*
X113520020Y-79351737D01*
X113613263Y-79444980D01*
X113722906Y-79518241D01*
X113823721Y-79560000D01*
X113722906Y-79601759D01*
X113613263Y-79675020D01*
X113520020Y-79768263D01*
X113446759Y-79877906D01*
X113396296Y-79999734D01*
X113370570Y-80129067D01*
X113370570Y-80260933D01*
X113396296Y-80390266D01*
X113446759Y-80512094D01*
X113449757Y-80516581D01*
X113431695Y-80520174D01*
X113326688Y-80563669D01*
X113232184Y-80626815D01*
X113151815Y-80707184D01*
X113088669Y-80801688D01*
X113064326Y-80860458D01*
X112752000Y-80548132D01*
X112752000Y-80489001D01*
X112773185Y-80467816D01*
X112836331Y-80373312D01*
X112879826Y-80268305D01*
X112902000Y-80156830D01*
X112902000Y-80043170D01*
X112879826Y-79931695D01*
X112836331Y-79826688D01*
X112773185Y-79732184D01*
X112692816Y-79651815D01*
X112598312Y-79588669D01*
X112493305Y-79545174D01*
X112381830Y-79523000D01*
X112268170Y-79523000D01*
X112156695Y-79545174D01*
X112051688Y-79588669D01*
X111957184Y-79651815D01*
X111876815Y-79732184D01*
X111813669Y-79826688D01*
X111770174Y-79931695D01*
X111748000Y-80043170D01*
X111748000Y-80156830D01*
X111770174Y-80268305D01*
X111807658Y-80358800D01*
X109245377Y-77796519D01*
X109233569Y-77782131D01*
X109176163Y-77735019D01*
X109110670Y-77700012D01*
X109039605Y-77678455D01*
X108984219Y-77673000D01*
X108984212Y-77673000D01*
X108965700Y-77671177D01*
X108947188Y-77673000D01*
X88518519Y-77673000D01*
X88500000Y-77671176D01*
X88426094Y-77678455D01*
X88414652Y-77681926D01*
X88355030Y-77700012D01*
X88289537Y-77735019D01*
X88289535Y-77735020D01*
X88289536Y-77735020D01*
X88246701Y-77770174D01*
X88232131Y-77782131D01*
X88220328Y-77796513D01*
X77046519Y-88970323D01*
X77032131Y-88982131D01*
X76985019Y-89039538D01*
X76960277Y-89085827D01*
X76950012Y-89105031D01*
X76932669Y-89162205D01*
X76928455Y-89176096D01*
X76923000Y-89231482D01*
X76923000Y-89231488D01*
X76921177Y-89250000D01*
X76923000Y-89268512D01*
X76923001Y-111606478D01*
X76921177Y-111625000D01*
X76928455Y-111698905D01*
X76950012Y-111769969D01*
X76985020Y-111835463D01*
X77020326Y-111878484D01*
X77020329Y-111878487D01*
X77032132Y-111892869D01*
X77046514Y-111904672D01*
X77698000Y-112556159D01*
X77698000Y-112656830D01*
X77720174Y-112768305D01*
X77763669Y-112873312D01*
X77826815Y-112967816D01*
X77907184Y-113048185D01*
X78001688Y-113111331D01*
X78106695Y-113154826D01*
X78218170Y-113177000D01*
X78331830Y-113177000D01*
X78443305Y-113154826D01*
X78548312Y-113111331D01*
X78642816Y-113048185D01*
X78723185Y-112967816D01*
X78786331Y-112873312D01*
X78829826Y-112768305D01*
X78852000Y-112656830D01*
X78852000Y-112543170D01*
X78829826Y-112431695D01*
X78786331Y-112326688D01*
X78723185Y-112232184D01*
X78642816Y-112151815D01*
X78548312Y-112088669D01*
X78443305Y-112045174D01*
X78331830Y-112023000D01*
X78231159Y-112023000D01*
X77677000Y-111468842D01*
X77677000Y-110035158D01*
X78973000Y-111331159D01*
X78973000Y-111431830D01*
X78995174Y-111543305D01*
X79038669Y-111648312D01*
X79101815Y-111742816D01*
X79182184Y-111823185D01*
X79276688Y-111886331D01*
X79381695Y-111929826D01*
X79493170Y-111952000D01*
X79606830Y-111952000D01*
X79718305Y-111929826D01*
X79823312Y-111886331D01*
X79917816Y-111823185D01*
X79998185Y-111742816D01*
X80061331Y-111648312D01*
X80104826Y-111543305D01*
X80127000Y-111431830D01*
X80127000Y-111318170D01*
X80104826Y-111206695D01*
X80061331Y-111101688D01*
X79998185Y-111007184D01*
X79917816Y-110926815D01*
X79823312Y-110863669D01*
X79718305Y-110820174D01*
X79606830Y-110798000D01*
X79506159Y-110798000D01*
X78077011Y-109368853D01*
X78077011Y-89571847D01*
X88821848Y-78827011D01*
X98744985Y-78827011D01*
X97229973Y-78959557D01*
X95406719Y-79281046D01*
X93618422Y-79760219D01*
X91878692Y-80393429D01*
X90200771Y-81175856D01*
X88597428Y-82101547D01*
X87080865Y-83163455D01*
X85662625Y-84353500D01*
X84353500Y-85662625D01*
X83163455Y-87080865D01*
X82101547Y-88597428D01*
X81175856Y-90200771D01*
X80393429Y-91878692D01*
X79760219Y-93618422D01*
X79281046Y-95406719D01*
X78959557Y-97229973D01*
X78798199Y-99074309D01*
X78798199Y-100925691D01*
X78959557Y-102770027D01*
X79281046Y-104593281D01*
X79760219Y-106381578D01*
X80393429Y-108121308D01*
X81175856Y-109799229D01*
X82101547Y-111402572D01*
X83163455Y-112919135D01*
X84353500Y-114337375D01*
X85662625Y-115646500D01*
X87080865Y-116836545D01*
X88597428Y-117898453D01*
X90200771Y-118824144D01*
X91878692Y-119606571D01*
X92115770Y-119692860D01*
X92015924Y-119673000D01*
X91784076Y-119673000D01*
X91556682Y-119718231D01*
X91342481Y-119806956D01*
X91149706Y-119935764D01*
X90985764Y-120099706D01*
X90856956Y-120292481D01*
X90768231Y-120506682D01*
X90723000Y-120734076D01*
X90723000Y-120965924D01*
X90768231Y-121193318D01*
X90856956Y-121407519D01*
X90985764Y-121600294D01*
X91149706Y-121764236D01*
X91342481Y-121893044D01*
X91556682Y-121981769D01*
X91784076Y-122027000D01*
X92015924Y-122027000D01*
X92243318Y-121981769D01*
X92457519Y-121893044D01*
X92650294Y-121764236D01*
X92814236Y-121600294D01*
X92823000Y-121587178D01*
X92823000Y-121615924D01*
X92868231Y-121843318D01*
X92943005Y-122023837D01*
X92343842Y-122623000D01*
X87106159Y-122623000D01*
X86977000Y-122493842D01*
X86977000Y-121918508D01*
X86978823Y-121899999D01*
X86977000Y-121881490D01*
X86977000Y-121881481D01*
X86971545Y-121826095D01*
X86949988Y-121755030D01*
X86914981Y-121689537D01*
X86883930Y-121651701D01*
X86879674Y-121646515D01*
X86879672Y-121646513D01*
X86867869Y-121632131D01*
X86853488Y-121620329D01*
X86204677Y-120971519D01*
X86192869Y-120957131D01*
X86135463Y-120910019D01*
X86069970Y-120875012D01*
X85998905Y-120853455D01*
X85943519Y-120848000D01*
X85943512Y-120848000D01*
X85925000Y-120846177D01*
X85906488Y-120848000D01*
X85018519Y-120848000D01*
X85000000Y-120846176D01*
X84926094Y-120853455D01*
X84866634Y-120871492D01*
X84855030Y-120875012D01*
X84789537Y-120910019D01*
X84732131Y-120957131D01*
X84720328Y-120971513D01*
X84246514Y-121445328D01*
X84232132Y-121457131D01*
X84220329Y-121471513D01*
X84220326Y-121471516D01*
X84185020Y-121514537D01*
X84150012Y-121580031D01*
X84128455Y-121651095D01*
X84121177Y-121725000D01*
X84123001Y-121743522D01*
X84123000Y-123331488D01*
X84121177Y-123350000D01*
X84123000Y-123368512D01*
X84123000Y-123368518D01*
X84126101Y-123399999D01*
X84128455Y-123423905D01*
X84138424Y-123456769D01*
X84150012Y-123494969D01*
X84185019Y-123560462D01*
X84232131Y-123617869D01*
X84246519Y-123629677D01*
X85214841Y-124598000D01*
X80013435Y-124598000D01*
X79185977Y-124524151D01*
X78397688Y-124308500D01*
X77660037Y-123956658D01*
X76996359Y-123479758D01*
X76427616Y-122892861D01*
X76095405Y-122398478D01*
X77846181Y-122398478D01*
X78207141Y-122761984D01*
X78780427Y-123058682D01*
X79400581Y-123237837D01*
X80043769Y-123292564D01*
X80685276Y-123220760D01*
X81300447Y-123025182D01*
X81792859Y-122761984D01*
X82153819Y-122398478D01*
X80000000Y-120244659D01*
X77846181Y-122398478D01*
X76095405Y-122398478D01*
X75971792Y-122214523D01*
X75643300Y-121466196D01*
X75451956Y-120669191D01*
X75406028Y-120043769D01*
X76707436Y-120043769D01*
X76779240Y-120685276D01*
X76974818Y-121300447D01*
X77238016Y-121792859D01*
X77601522Y-122153819D01*
X79755341Y-120000000D01*
X80244659Y-120000000D01*
X82398478Y-122153819D01*
X82761984Y-121792859D01*
X83058682Y-121219573D01*
X83237837Y-120599419D01*
X83292564Y-119956231D01*
X83220760Y-119314724D01*
X83025182Y-118699553D01*
X82761984Y-118207141D01*
X82398478Y-117846181D01*
X80244659Y-120000000D01*
X79755341Y-120000000D01*
X77601522Y-117846181D01*
X77238016Y-118207141D01*
X76941318Y-118780427D01*
X76762163Y-119400581D01*
X76707436Y-120043769D01*
X75406028Y-120043769D01*
X75402000Y-119988926D01*
X75402000Y-117601522D01*
X77846181Y-117601522D01*
X80000000Y-119755341D01*
X82153819Y-117601522D01*
X81792859Y-117238016D01*
X81657896Y-117168167D01*
X84848003Y-117168167D01*
X84848003Y-117281827D01*
X84870177Y-117393302D01*
X84913672Y-117498309D01*
X84976818Y-117592813D01*
X85057187Y-117673182D01*
X85151691Y-117736328D01*
X85256698Y-117779823D01*
X85368173Y-117801997D01*
X85468845Y-117801997D01*
X86848001Y-119181154D01*
X86848000Y-119831488D01*
X86846177Y-119850000D01*
X86848000Y-119868512D01*
X86848000Y-119868518D01*
X86852698Y-119916221D01*
X86853455Y-119923905D01*
X86857961Y-119938758D01*
X86875012Y-119994969D01*
X86910019Y-120060462D01*
X86957131Y-120117869D01*
X86971518Y-120129676D01*
X86998000Y-120156158D01*
X86998000Y-120256830D01*
X87020174Y-120368305D01*
X87063669Y-120473312D01*
X87126815Y-120567816D01*
X87207184Y-120648185D01*
X87301688Y-120711331D01*
X87406695Y-120754826D01*
X87518170Y-120777000D01*
X87631830Y-120777000D01*
X87743305Y-120754826D01*
X87848312Y-120711331D01*
X87942816Y-120648185D01*
X88023185Y-120567816D01*
X88086331Y-120473312D01*
X88129826Y-120368305D01*
X88152000Y-120256830D01*
X88152000Y-120143170D01*
X88129826Y-120031695D01*
X88086331Y-119926688D01*
X88023185Y-119832184D01*
X87942816Y-119751815D01*
X87848312Y-119688669D01*
X87743305Y-119645174D01*
X87631830Y-119623000D01*
X87602000Y-119623000D01*
X87602000Y-119043502D01*
X87603823Y-119024993D01*
X87602000Y-119006484D01*
X87602000Y-119006475D01*
X87596545Y-118951089D01*
X87574988Y-118880024D01*
X87539981Y-118814531D01*
X87492869Y-118757125D01*
X87478487Y-118745322D01*
X86002003Y-117268839D01*
X86002003Y-117168167D01*
X85979829Y-117056692D01*
X85936334Y-116951685D01*
X85873188Y-116857181D01*
X85792819Y-116776812D01*
X85698315Y-116713666D01*
X85593308Y-116670171D01*
X85481833Y-116647997D01*
X85368173Y-116647997D01*
X85256698Y-116670171D01*
X85151691Y-116713666D01*
X85057187Y-116776812D01*
X84976818Y-116857181D01*
X84913672Y-116951685D01*
X84870177Y-117056692D01*
X84848003Y-117168167D01*
X81657896Y-117168167D01*
X81219573Y-116941318D01*
X80599419Y-116762163D01*
X79956231Y-116707436D01*
X79314724Y-116779240D01*
X78699553Y-116974818D01*
X78207141Y-117238016D01*
X77846181Y-117601522D01*
X75402000Y-117601522D01*
X75402000Y-82398478D01*
X77846181Y-82398478D01*
X78207141Y-82761984D01*
X78780427Y-83058682D01*
X79400581Y-83237837D01*
X80043769Y-83292564D01*
X80685276Y-83220760D01*
X81300447Y-83025182D01*
X81792859Y-82761984D01*
X82153819Y-82398478D01*
X80000000Y-80244659D01*
X77846181Y-82398478D01*
X75402000Y-82398478D01*
X75402000Y-80043769D01*
X76707436Y-80043769D01*
X76779240Y-80685276D01*
X76974818Y-81300447D01*
X77238016Y-81792859D01*
X77601522Y-82153819D01*
X79755341Y-80000000D01*
X80244659Y-80000000D01*
X82398478Y-82153819D01*
X82761984Y-81792859D01*
X83058682Y-81219573D01*
X83237837Y-80599419D01*
X83292564Y-79956231D01*
X83220760Y-79314724D01*
X83025182Y-78699553D01*
X82761984Y-78207141D01*
X82398478Y-77846181D01*
X80244659Y-80000000D01*
X79755341Y-80000000D01*
X77601522Y-77846181D01*
X77238016Y-78207141D01*
X76941318Y-78780427D01*
X76762163Y-79400581D01*
X76707436Y-80043769D01*
X75402000Y-80043769D01*
X75402000Y-80013445D01*
X75475850Y-79185977D01*
X75691502Y-78397686D01*
X76043344Y-77660034D01*
X76085389Y-77601522D01*
X77846181Y-77601522D01*
X80000000Y-79755341D01*
X82153819Y-77601522D01*
X81792859Y-77238016D01*
X81219573Y-76941318D01*
X80599419Y-76762163D01*
X79956231Y-76707436D01*
X79314724Y-76779240D01*
X78699553Y-76974818D01*
X78207141Y-77238016D01*
X77846181Y-77601522D01*
X76085389Y-77601522D01*
X76520243Y-76996359D01*
X77107140Y-76427616D01*
X77785477Y-75971792D01*
X78533808Y-75643299D01*
X79330809Y-75451956D01*
X80011075Y-75402000D01*
X119986555Y-75402000D01*
X120814023Y-75475850D01*
G37*
X120814023Y-75475850D02*
X121602314Y-75691502D01*
X122339966Y-76043344D01*
X123003641Y-76520243D01*
X123572384Y-77107140D01*
X124028208Y-77785477D01*
X124356701Y-78533808D01*
X124548044Y-79330809D01*
X124598000Y-80011075D01*
X124598000Y-99823000D01*
X124567566Y-99823000D01*
X124567566Y-93134085D01*
X124569390Y-93115566D01*
X124562111Y-93041660D01*
X124540554Y-92970596D01*
X124505547Y-92905103D01*
X124470240Y-92862081D01*
X124470238Y-92862079D01*
X124458435Y-92847697D01*
X124444054Y-92835895D01*
X123652000Y-92043842D01*
X123652000Y-91943170D01*
X123629826Y-91831695D01*
X123586331Y-91726688D01*
X123523185Y-91632184D01*
X123442816Y-91551815D01*
X123348312Y-91488669D01*
X123243305Y-91445174D01*
X123131830Y-91423000D01*
X123018170Y-91423000D01*
X122906695Y-91445174D01*
X122801688Y-91488669D01*
X122707184Y-91551815D01*
X122626815Y-91632184D01*
X122563669Y-91726688D01*
X122520174Y-91831695D01*
X122498000Y-91943170D01*
X122498000Y-92056830D01*
X122520174Y-92168305D01*
X122563669Y-92273312D01*
X122626815Y-92367816D01*
X122707184Y-92448185D01*
X122801688Y-92511331D01*
X122906695Y-92554826D01*
X123018170Y-92577000D01*
X123118842Y-92577000D01*
X123813566Y-93271725D01*
X123813566Y-99823000D01*
X121201801Y-99823000D01*
X121201801Y-99074309D01*
X121040443Y-97229973D01*
X120718954Y-95406719D01*
X120239781Y-93618422D01*
X119606571Y-91878692D01*
X118824144Y-90200771D01*
X118673026Y-89939027D01*
X118682184Y-89948185D01*
X118776688Y-90011331D01*
X118881695Y-90054826D01*
X118993170Y-90077000D01*
X119106830Y-90077000D01*
X119218305Y-90054826D01*
X119323312Y-90011331D01*
X119417816Y-89948185D01*
X119498185Y-89867816D01*
X119561331Y-89773312D01*
X119604826Y-89668305D01*
X119627000Y-89556830D01*
X119627000Y-89443170D01*
X119604826Y-89331695D01*
X119561331Y-89226688D01*
X119498185Y-89132184D01*
X119417816Y-89051815D01*
X119323312Y-88988669D01*
X119316495Y-88985845D01*
X119354826Y-88893305D01*
X119377000Y-88781830D01*
X119377000Y-88668170D01*
X119354826Y-88556695D01*
X119311331Y-88451688D01*
X119248185Y-88357184D01*
X119177000Y-88285999D01*
X119177000Y-87902808D01*
X119178823Y-87884299D01*
X119177000Y-87865790D01*
X119177000Y-87865781D01*
X119171545Y-87810395D01*
X119149988Y-87739330D01*
X119114981Y-87673837D01*
X119067869Y-87616431D01*
X119053481Y-87604623D01*
X114475858Y-83027000D01*
X116873132Y-83027000D01*
X119798000Y-85951869D01*
X119798001Y-86629738D01*
X119798000Y-86629748D01*
X119798000Y-86685988D01*
X119776815Y-86707173D01*
X119713669Y-86801677D01*
X119670174Y-86906684D01*
X119648000Y-87018159D01*
X119648000Y-87131819D01*
X119670174Y-87243294D01*
X119713669Y-87348301D01*
X119776815Y-87442805D01*
X119857184Y-87523174D01*
X119951688Y-87586320D01*
X120056695Y-87629815D01*
X120168170Y-87651989D01*
X120281830Y-87651989D01*
X120393305Y-87629815D01*
X120498312Y-87586320D01*
X120592816Y-87523174D01*
X120673185Y-87442805D01*
X120736331Y-87348301D01*
X120779826Y-87243294D01*
X120802000Y-87131819D01*
X120802000Y-87018159D01*
X120779826Y-86906684D01*
X120736331Y-86801677D01*
X120673185Y-86707173D01*
X120652000Y-86685988D01*
X120652000Y-85795966D01*
X120654065Y-85774999D01*
X120652000Y-85754032D01*
X120652000Y-85754022D01*
X120645822Y-85691293D01*
X120621405Y-85610804D01*
X120581756Y-85536625D01*
X120581755Y-85536623D01*
X120541768Y-85487899D01*
X120541764Y-85487895D01*
X120528395Y-85471605D01*
X120512106Y-85458237D01*
X117477000Y-82423132D01*
X117477000Y-82398478D01*
X117846181Y-82398478D01*
X118207141Y-82761984D01*
X118780427Y-83058682D01*
X119400581Y-83237837D01*
X120043769Y-83292564D01*
X120685276Y-83220760D01*
X121300447Y-83025182D01*
X121792859Y-82761984D01*
X122153819Y-82398478D01*
X120000000Y-80244659D01*
X117846181Y-82398478D01*
X117477000Y-82398478D01*
X117477000Y-82030169D01*
X117601522Y-82153819D01*
X119755341Y-80000000D01*
X120244659Y-80000000D01*
X122398478Y-82153819D01*
X122761984Y-81792859D01*
X123058682Y-81219573D01*
X123237837Y-80599419D01*
X123292564Y-79956231D01*
X123220760Y-79314724D01*
X123025182Y-78699553D01*
X122761984Y-78207141D01*
X122398478Y-77846181D01*
X120244659Y-80000000D01*
X119755341Y-80000000D01*
X117601522Y-77846181D01*
X117238016Y-78207141D01*
X116941318Y-78780427D01*
X116762163Y-79400581D01*
X116707436Y-80043769D01*
X116779240Y-80685276D01*
X116954077Y-81235208D01*
X115979430Y-80260562D01*
X115979430Y-80129067D01*
X115953704Y-79999734D01*
X115903241Y-79877906D01*
X115829980Y-79768263D01*
X115736737Y-79675020D01*
X115627094Y-79601759D01*
X115526279Y-79560000D01*
X115627094Y-79518241D01*
X115736737Y-79444980D01*
X115829980Y-79351737D01*
X115903241Y-79242094D01*
X115953704Y-79120266D01*
X115979430Y-78990933D01*
X115979430Y-78978728D01*
X116056158Y-78902000D01*
X116156830Y-78902000D01*
X116268305Y-78879826D01*
X116373312Y-78836331D01*
X116467816Y-78773185D01*
X116548185Y-78692816D01*
X116611331Y-78598312D01*
X116654826Y-78493305D01*
X116677000Y-78381830D01*
X116677000Y-78268170D01*
X116654826Y-78156695D01*
X116611331Y-78051688D01*
X116548185Y-77957184D01*
X116467816Y-77876815D01*
X116373312Y-77813669D01*
X116268305Y-77770174D01*
X116156830Y-77748000D01*
X116043170Y-77748000D01*
X115973362Y-77761886D01*
X115982468Y-77638529D01*
X115977906Y-77601522D01*
X117846181Y-77601522D01*
X120000000Y-79755341D01*
X122153819Y-77601522D01*
X121792859Y-77238016D01*
X121219573Y-76941318D01*
X120599419Y-76762163D01*
X119956231Y-76707436D01*
X119314724Y-76779240D01*
X118699553Y-76974818D01*
X118207141Y-77238016D01*
X117846181Y-77601522D01*
X115977906Y-77601522D01*
X115966333Y-77507654D01*
X115937582Y-77412875D01*
X115841099Y-77368560D01*
X115554659Y-77655000D01*
X115568801Y-77669142D01*
X115324142Y-77913801D01*
X115310000Y-77899659D01*
X115023560Y-78186099D01*
X115067875Y-78282582D01*
X115094103Y-78289842D01*
X114992906Y-78331759D01*
X114883263Y-78405020D01*
X114790020Y-78498263D01*
X114716759Y-78607906D01*
X114675000Y-78708721D01*
X114633241Y-78607906D01*
X114559980Y-78498263D01*
X114466737Y-78405020D01*
X114357094Y-78331759D01*
X114256279Y-78290000D01*
X114357094Y-78248241D01*
X114466737Y-78174980D01*
X114559980Y-78081737D01*
X114633241Y-77972094D01*
X114674756Y-77871868D01*
X114682418Y-77897125D01*
X114778901Y-77941440D01*
X115065341Y-77655000D01*
X114778901Y-77368560D01*
X114682418Y-77412875D01*
X114675158Y-77439103D01*
X114633241Y-77337906D01*
X114559980Y-77228263D01*
X114466737Y-77135020D01*
X114357094Y-77061759D01*
X114235266Y-77011296D01*
X114136590Y-76991668D01*
X114149694Y-76982912D01*
X114256912Y-76875694D01*
X114341153Y-76749618D01*
X114399179Y-76609531D01*
X114428760Y-76460815D01*
X114428760Y-76309185D01*
X114921240Y-76309185D01*
X114921240Y-76460815D01*
X114950821Y-76609531D01*
X115008847Y-76749618D01*
X115093088Y-76875694D01*
X115200306Y-76982912D01*
X115214347Y-76992294D01*
X115162654Y-76998667D01*
X115067875Y-77027418D01*
X115023560Y-77123901D01*
X115310000Y-77410341D01*
X115573811Y-77146530D01*
X115615185Y-77154760D01*
X115766815Y-77154760D01*
X115915531Y-77125179D01*
X116055618Y-77067153D01*
X116181694Y-76982912D01*
X116288912Y-76875694D01*
X116373153Y-76749618D01*
X116431179Y-76609531D01*
X116460760Y-76460815D01*
X116460760Y-76309185D01*
X116431179Y-76160469D01*
X116373153Y-76020382D01*
X116288912Y-75894306D01*
X116181694Y-75787088D01*
X116055618Y-75702847D01*
X115915531Y-75644821D01*
X115766815Y-75615240D01*
X115615185Y-75615240D01*
X115466469Y-75644821D01*
X115326382Y-75702847D01*
X115200306Y-75787088D01*
X115093088Y-75894306D01*
X115008847Y-76020382D01*
X114950821Y-76160469D01*
X114921240Y-76309185D01*
X114428760Y-76309185D01*
X114399179Y-76160469D01*
X114341153Y-76020382D01*
X114256912Y-75894306D01*
X114149694Y-75787088D01*
X114023618Y-75702847D01*
X113883531Y-75644821D01*
X113734815Y-75615240D01*
X113583185Y-75615240D01*
X113434469Y-75644821D01*
X113294382Y-75702847D01*
X113168306Y-75787088D01*
X113061088Y-75894306D01*
X112976847Y-76020382D01*
X112918821Y-76160469D01*
X112889240Y-76309185D01*
X112889240Y-76460815D01*
X112918821Y-76609531D01*
X112976847Y-76749618D01*
X113061088Y-76875694D01*
X113168306Y-76982912D01*
X113294382Y-77067153D01*
X113434469Y-77125179D01*
X113583185Y-77154760D01*
X113593523Y-77154760D01*
X113520020Y-77228263D01*
X113446759Y-77337906D01*
X113396296Y-77459734D01*
X113370570Y-77589067D01*
X113370570Y-77720933D01*
X113396296Y-77850266D01*
X113446759Y-77972094D01*
X113520020Y-78081737D01*
X113613263Y-78174980D01*
X113722906Y-78248241D01*
X113823721Y-78290000D01*
X113722906Y-78331759D01*
X113613263Y-78405020D01*
X113520020Y-78498263D01*
X113446759Y-78607906D01*
X113396296Y-78729734D01*
X113370570Y-78859067D01*
X113370570Y-78990933D01*
X113396296Y-79120266D01*
X113446759Y-79242094D01*
X113520020Y-79351737D01*
X113613263Y-79444980D01*
X113722906Y-79518241D01*
X113823721Y-79560000D01*
X113722906Y-79601759D01*
X113613263Y-79675020D01*
X113520020Y-79768263D01*
X113446759Y-79877906D01*
X113396296Y-79999734D01*
X113370570Y-80129067D01*
X113370570Y-80260933D01*
X113396296Y-80390266D01*
X113446759Y-80512094D01*
X113449757Y-80516581D01*
X113431695Y-80520174D01*
X113326688Y-80563669D01*
X113232184Y-80626815D01*
X113151815Y-80707184D01*
X113088669Y-80801688D01*
X113064326Y-80860458D01*
X112752000Y-80548132D01*
X112752000Y-80489001D01*
X112773185Y-80467816D01*
X112836331Y-80373312D01*
X112879826Y-80268305D01*
X112902000Y-80156830D01*
X112902000Y-80043170D01*
X112879826Y-79931695D01*
X112836331Y-79826688D01*
X112773185Y-79732184D01*
X112692816Y-79651815D01*
X112598312Y-79588669D01*
X112493305Y-79545174D01*
X112381830Y-79523000D01*
X112268170Y-79523000D01*
X112156695Y-79545174D01*
X112051688Y-79588669D01*
X111957184Y-79651815D01*
X111876815Y-79732184D01*
X111813669Y-79826688D01*
X111770174Y-79931695D01*
X111748000Y-80043170D01*
X111748000Y-80156830D01*
X111770174Y-80268305D01*
X111807658Y-80358800D01*
X109245377Y-77796519D01*
X109233569Y-77782131D01*
X109176163Y-77735019D01*
X109110670Y-77700012D01*
X109039605Y-77678455D01*
X108984219Y-77673000D01*
X108984212Y-77673000D01*
X108965700Y-77671177D01*
X108947188Y-77673000D01*
X88518519Y-77673000D01*
X88500000Y-77671176D01*
X88426094Y-77678455D01*
X88414652Y-77681926D01*
X88355030Y-77700012D01*
X88289537Y-77735019D01*
X88289535Y-77735020D01*
X88289536Y-77735020D01*
X88246701Y-77770174D01*
X88232131Y-77782131D01*
X88220328Y-77796513D01*
X77046519Y-88970323D01*
X77032131Y-88982131D01*
X76985019Y-89039538D01*
X76960277Y-89085827D01*
X76950012Y-89105031D01*
X76932669Y-89162205D01*
X76928455Y-89176096D01*
X76923000Y-89231482D01*
X76923000Y-89231488D01*
X76921177Y-89250000D01*
X76923000Y-89268512D01*
X76923001Y-111606478D01*
X76921177Y-111625000D01*
X76928455Y-111698905D01*
X76950012Y-111769969D01*
X76985020Y-111835463D01*
X77020326Y-111878484D01*
X77020329Y-111878487D01*
X77032132Y-111892869D01*
X77046514Y-111904672D01*
X77698000Y-112556159D01*
X77698000Y-112656830D01*
X77720174Y-112768305D01*
X77763669Y-112873312D01*
X77826815Y-112967816D01*
X77907184Y-113048185D01*
X78001688Y-113111331D01*
X78106695Y-113154826D01*
X78218170Y-113177000D01*
X78331830Y-113177000D01*
X78443305Y-113154826D01*
X78548312Y-113111331D01*
X78642816Y-113048185D01*
X78723185Y-112967816D01*
X78786331Y-112873312D01*
X78829826Y-112768305D01*
X78852000Y-112656830D01*
X78852000Y-112543170D01*
X78829826Y-112431695D01*
X78786331Y-112326688D01*
X78723185Y-112232184D01*
X78642816Y-112151815D01*
X78548312Y-112088669D01*
X78443305Y-112045174D01*
X78331830Y-112023000D01*
X78231159Y-112023000D01*
X77677000Y-111468842D01*
X77677000Y-110035158D01*
X78973000Y-111331159D01*
X78973000Y-111431830D01*
X78995174Y-111543305D01*
X79038669Y-111648312D01*
X79101815Y-111742816D01*
X79182184Y-111823185D01*
X79276688Y-111886331D01*
X79381695Y-111929826D01*
X79493170Y-111952000D01*
X79606830Y-111952000D01*
X79718305Y-111929826D01*
X79823312Y-111886331D01*
X79917816Y-111823185D01*
X79998185Y-111742816D01*
X80061331Y-111648312D01*
X80104826Y-111543305D01*
X80127000Y-111431830D01*
X80127000Y-111318170D01*
X80104826Y-111206695D01*
X80061331Y-111101688D01*
X79998185Y-111007184D01*
X79917816Y-110926815D01*
X79823312Y-110863669D01*
X79718305Y-110820174D01*
X79606830Y-110798000D01*
X79506159Y-110798000D01*
X78077011Y-109368853D01*
X78077011Y-89571847D01*
X88821848Y-78827011D01*
X98744985Y-78827011D01*
X97229973Y-78959557D01*
X95406719Y-79281046D01*
X93618422Y-79760219D01*
X91878692Y-80393429D01*
X90200771Y-81175856D01*
X88597428Y-82101547D01*
X87080865Y-83163455D01*
X85662625Y-84353500D01*
X84353500Y-85662625D01*
X83163455Y-87080865D01*
X82101547Y-88597428D01*
X81175856Y-90200771D01*
X80393429Y-91878692D01*
X79760219Y-93618422D01*
X79281046Y-95406719D01*
X78959557Y-97229973D01*
X78798199Y-99074309D01*
X78798199Y-100925691D01*
X78959557Y-102770027D01*
X79281046Y-104593281D01*
X79760219Y-106381578D01*
X80393429Y-108121308D01*
X81175856Y-109799229D01*
X82101547Y-111402572D01*
X83163455Y-112919135D01*
X84353500Y-114337375D01*
X85662625Y-115646500D01*
X87080865Y-116836545D01*
X88597428Y-117898453D01*
X90200771Y-118824144D01*
X91878692Y-119606571D01*
X92115770Y-119692860D01*
X92015924Y-119673000D01*
X91784076Y-119673000D01*
X91556682Y-119718231D01*
X91342481Y-119806956D01*
X91149706Y-119935764D01*
X90985764Y-120099706D01*
X90856956Y-120292481D01*
X90768231Y-120506682D01*
X90723000Y-120734076D01*
X90723000Y-120965924D01*
X90768231Y-121193318D01*
X90856956Y-121407519D01*
X90985764Y-121600294D01*
X91149706Y-121764236D01*
X91342481Y-121893044D01*
X91556682Y-121981769D01*
X91784076Y-122027000D01*
X92015924Y-122027000D01*
X92243318Y-121981769D01*
X92457519Y-121893044D01*
X92650294Y-121764236D01*
X92814236Y-121600294D01*
X92823000Y-121587178D01*
X92823000Y-121615924D01*
X92868231Y-121843318D01*
X92943005Y-122023837D01*
X92343842Y-122623000D01*
X87106159Y-122623000D01*
X86977000Y-122493842D01*
X86977000Y-121918508D01*
X86978823Y-121899999D01*
X86977000Y-121881490D01*
X86977000Y-121881481D01*
X86971545Y-121826095D01*
X86949988Y-121755030D01*
X86914981Y-121689537D01*
X86883930Y-121651701D01*
X86879674Y-121646515D01*
X86879672Y-121646513D01*
X86867869Y-121632131D01*
X86853488Y-121620329D01*
X86204677Y-120971519D01*
X86192869Y-120957131D01*
X86135463Y-120910019D01*
X86069970Y-120875012D01*
X85998905Y-120853455D01*
X85943519Y-120848000D01*
X85943512Y-120848000D01*
X85925000Y-120846177D01*
X85906488Y-120848000D01*
X85018519Y-120848000D01*
X85000000Y-120846176D01*
X84926094Y-120853455D01*
X84866634Y-120871492D01*
X84855030Y-120875012D01*
X84789537Y-120910019D01*
X84732131Y-120957131D01*
X84720328Y-120971513D01*
X84246514Y-121445328D01*
X84232132Y-121457131D01*
X84220329Y-121471513D01*
X84220326Y-121471516D01*
X84185020Y-121514537D01*
X84150012Y-121580031D01*
X84128455Y-121651095D01*
X84121177Y-121725000D01*
X84123001Y-121743522D01*
X84123000Y-123331488D01*
X84121177Y-123350000D01*
X84123000Y-123368512D01*
X84123000Y-123368518D01*
X84126101Y-123399999D01*
X84128455Y-123423905D01*
X84138424Y-123456769D01*
X84150012Y-123494969D01*
X84185019Y-123560462D01*
X84232131Y-123617869D01*
X84246519Y-123629677D01*
X85214841Y-124598000D01*
X80013435Y-124598000D01*
X79185977Y-124524151D01*
X78397688Y-124308500D01*
X77660037Y-123956658D01*
X76996359Y-123479758D01*
X76427616Y-122892861D01*
X76095405Y-122398478D01*
X77846181Y-122398478D01*
X78207141Y-122761984D01*
X78780427Y-123058682D01*
X79400581Y-123237837D01*
X80043769Y-123292564D01*
X80685276Y-123220760D01*
X81300447Y-123025182D01*
X81792859Y-122761984D01*
X82153819Y-122398478D01*
X80000000Y-120244659D01*
X77846181Y-122398478D01*
X76095405Y-122398478D01*
X75971792Y-122214523D01*
X75643300Y-121466196D01*
X75451956Y-120669191D01*
X75406028Y-120043769D01*
X76707436Y-120043769D01*
X76779240Y-120685276D01*
X76974818Y-121300447D01*
X77238016Y-121792859D01*
X77601522Y-122153819D01*
X79755341Y-120000000D01*
X80244659Y-120000000D01*
X82398478Y-122153819D01*
X82761984Y-121792859D01*
X83058682Y-121219573D01*
X83237837Y-120599419D01*
X83292564Y-119956231D01*
X83220760Y-119314724D01*
X83025182Y-118699553D01*
X82761984Y-118207141D01*
X82398478Y-117846181D01*
X80244659Y-120000000D01*
X79755341Y-120000000D01*
X77601522Y-117846181D01*
X77238016Y-118207141D01*
X76941318Y-118780427D01*
X76762163Y-119400581D01*
X76707436Y-120043769D01*
X75406028Y-120043769D01*
X75402000Y-119988926D01*
X75402000Y-117601522D01*
X77846181Y-117601522D01*
X80000000Y-119755341D01*
X82153819Y-117601522D01*
X81792859Y-117238016D01*
X81657896Y-117168167D01*
X84848003Y-117168167D01*
X84848003Y-117281827D01*
X84870177Y-117393302D01*
X84913672Y-117498309D01*
X84976818Y-117592813D01*
X85057187Y-117673182D01*
X85151691Y-117736328D01*
X85256698Y-117779823D01*
X85368173Y-117801997D01*
X85468845Y-117801997D01*
X86848001Y-119181154D01*
X86848000Y-119831488D01*
X86846177Y-119850000D01*
X86848000Y-119868512D01*
X86848000Y-119868518D01*
X86852698Y-119916221D01*
X86853455Y-119923905D01*
X86857961Y-119938758D01*
X86875012Y-119994969D01*
X86910019Y-120060462D01*
X86957131Y-120117869D01*
X86971518Y-120129676D01*
X86998000Y-120156158D01*
X86998000Y-120256830D01*
X87020174Y-120368305D01*
X87063669Y-120473312D01*
X87126815Y-120567816D01*
X87207184Y-120648185D01*
X87301688Y-120711331D01*
X87406695Y-120754826D01*
X87518170Y-120777000D01*
X87631830Y-120777000D01*
X87743305Y-120754826D01*
X87848312Y-120711331D01*
X87942816Y-120648185D01*
X88023185Y-120567816D01*
X88086331Y-120473312D01*
X88129826Y-120368305D01*
X88152000Y-120256830D01*
X88152000Y-120143170D01*
X88129826Y-120031695D01*
X88086331Y-119926688D01*
X88023185Y-119832184D01*
X87942816Y-119751815D01*
X87848312Y-119688669D01*
X87743305Y-119645174D01*
X87631830Y-119623000D01*
X87602000Y-119623000D01*
X87602000Y-119043502D01*
X87603823Y-119024993D01*
X87602000Y-119006484D01*
X87602000Y-119006475D01*
X87596545Y-118951089D01*
X87574988Y-118880024D01*
X87539981Y-118814531D01*
X87492869Y-118757125D01*
X87478487Y-118745322D01*
X86002003Y-117268839D01*
X86002003Y-117168167D01*
X85979829Y-117056692D01*
X85936334Y-116951685D01*
X85873188Y-116857181D01*
X85792819Y-116776812D01*
X85698315Y-116713666D01*
X85593308Y-116670171D01*
X85481833Y-116647997D01*
X85368173Y-116647997D01*
X85256698Y-116670171D01*
X85151691Y-116713666D01*
X85057187Y-116776812D01*
X84976818Y-116857181D01*
X84913672Y-116951685D01*
X84870177Y-117056692D01*
X84848003Y-117168167D01*
X81657896Y-117168167D01*
X81219573Y-116941318D01*
X80599419Y-116762163D01*
X79956231Y-116707436D01*
X79314724Y-116779240D01*
X78699553Y-116974818D01*
X78207141Y-117238016D01*
X77846181Y-117601522D01*
X75402000Y-117601522D01*
X75402000Y-82398478D01*
X77846181Y-82398478D01*
X78207141Y-82761984D01*
X78780427Y-83058682D01*
X79400581Y-83237837D01*
X80043769Y-83292564D01*
X80685276Y-83220760D01*
X81300447Y-83025182D01*
X81792859Y-82761984D01*
X82153819Y-82398478D01*
X80000000Y-80244659D01*
X77846181Y-82398478D01*
X75402000Y-82398478D01*
X75402000Y-80043769D01*
X76707436Y-80043769D01*
X76779240Y-80685276D01*
X76974818Y-81300447D01*
X77238016Y-81792859D01*
X77601522Y-82153819D01*
X79755341Y-80000000D01*
X80244659Y-80000000D01*
X82398478Y-82153819D01*
X82761984Y-81792859D01*
X83058682Y-81219573D01*
X83237837Y-80599419D01*
X83292564Y-79956231D01*
X83220760Y-79314724D01*
X83025182Y-78699553D01*
X82761984Y-78207141D01*
X82398478Y-77846181D01*
X80244659Y-80000000D01*
X79755341Y-80000000D01*
X77601522Y-77846181D01*
X77238016Y-78207141D01*
X76941318Y-78780427D01*
X76762163Y-79400581D01*
X76707436Y-80043769D01*
X75402000Y-80043769D01*
X75402000Y-80013445D01*
X75475850Y-79185977D01*
X75691502Y-78397686D01*
X76043344Y-77660034D01*
X76085389Y-77601522D01*
X77846181Y-77601522D01*
X80000000Y-79755341D01*
X82153819Y-77601522D01*
X81792859Y-77238016D01*
X81219573Y-76941318D01*
X80599419Y-76762163D01*
X79956231Y-76707436D01*
X79314724Y-76779240D01*
X78699553Y-76974818D01*
X78207141Y-77238016D01*
X77846181Y-77601522D01*
X76085389Y-77601522D01*
X76520243Y-76996359D01*
X77107140Y-76427616D01*
X77785477Y-75971792D01*
X78533808Y-75643299D01*
X79330809Y-75451956D01*
X80011075Y-75402000D01*
X119986555Y-75402000D01*
X120814023Y-75475850D01*
G36*
X123813567Y-121003275D02*
G01*
X121243842Y-123573000D01*
X99668519Y-123573000D01*
X99650000Y-123571176D01*
X99576094Y-123578455D01*
X99544998Y-123587888D01*
X99505030Y-123600012D01*
X99439537Y-123635019D01*
X99434958Y-123638777D01*
X99398558Y-123668650D01*
X99382131Y-123682131D01*
X99370328Y-123696513D01*
X98993842Y-124073000D01*
X98768001Y-124073000D01*
X99379661Y-123461340D01*
X99584076Y-123502000D01*
X99815924Y-123502000D01*
X100043318Y-123456769D01*
X100257519Y-123368044D01*
X100450294Y-123239236D01*
X100614236Y-123075294D01*
X100743044Y-122882519D01*
X100825888Y-122682515D01*
X100856956Y-122757519D01*
X100985764Y-122950294D01*
X101149706Y-123114236D01*
X101342481Y-123243044D01*
X101556682Y-123331769D01*
X101784076Y-123377000D01*
X102015924Y-123377000D01*
X102243318Y-123331769D01*
X102423837Y-123256996D01*
X102545328Y-123378487D01*
X102557131Y-123392869D01*
X102571513Y-123404672D01*
X102571515Y-123404674D01*
X102614537Y-123439981D01*
X102680030Y-123474988D01*
X102751094Y-123496545D01*
X102825000Y-123503824D01*
X102843519Y-123502000D01*
X109231488Y-123502000D01*
X109250000Y-123503823D01*
X109268512Y-123502000D01*
X109268519Y-123502000D01*
X109323905Y-123496545D01*
X109394970Y-123474988D01*
X109460463Y-123439981D01*
X109517869Y-123392869D01*
X109529677Y-123378481D01*
X110509680Y-122398478D01*
X117846181Y-122398478D01*
X118207141Y-122761984D01*
X118780427Y-123058682D01*
X119400581Y-123237837D01*
X120043769Y-123292564D01*
X120685276Y-123220760D01*
X121300447Y-123025182D01*
X121792859Y-122761984D01*
X122153819Y-122398478D01*
X120000000Y-120244659D01*
X117846181Y-122398478D01*
X110509680Y-122398478D01*
X112948843Y-119959316D01*
X113026688Y-120011331D01*
X113131695Y-120054826D01*
X113243170Y-120077000D01*
X113356830Y-120077000D01*
X113468305Y-120054826D01*
X113494999Y-120043769D01*
X116707436Y-120043769D01*
X116779240Y-120685276D01*
X116974818Y-121300447D01*
X117238016Y-121792859D01*
X117601522Y-122153819D01*
X119755341Y-120000000D01*
X120244659Y-120000000D01*
X122398478Y-122153819D01*
X122761984Y-121792859D01*
X123058682Y-121219573D01*
X123237837Y-120599419D01*
X123292564Y-119956231D01*
X123220760Y-119314724D01*
X123025182Y-118699553D01*
X122761984Y-118207141D01*
X122398478Y-117846181D01*
X120244659Y-120000000D01*
X119755341Y-120000000D01*
X117601522Y-117846181D01*
X117238016Y-118207141D01*
X116941318Y-118780427D01*
X116762163Y-119400581D01*
X116707436Y-120043769D01*
X113494999Y-120043769D01*
X113573312Y-120011331D01*
X113667816Y-119948185D01*
X113748185Y-119867816D01*
X113811331Y-119773312D01*
X113854826Y-119668305D01*
X113877000Y-119556830D01*
X113877000Y-119443170D01*
X113854826Y-119331695D01*
X113811331Y-119226688D01*
X113748185Y-119132184D01*
X113667816Y-119051815D01*
X113573312Y-118988669D01*
X113468305Y-118945174D01*
X113401311Y-118931848D01*
X114731637Y-117601522D01*
X117846181Y-117601522D01*
X120000000Y-119755341D01*
X122153819Y-117601522D01*
X121792859Y-117238016D01*
X121219573Y-116941318D01*
X120599419Y-116762163D01*
X119956231Y-116707436D01*
X119314724Y-116779240D01*
X118699553Y-116974818D01*
X118207141Y-117238016D01*
X117846181Y-117601522D01*
X114731637Y-117601522D01*
X118481159Y-113852000D01*
X119185999Y-113852000D01*
X119257184Y-113923185D01*
X119351688Y-113986331D01*
X119456695Y-114029826D01*
X119568170Y-114052000D01*
X119681830Y-114052000D01*
X119793305Y-114029826D01*
X119898312Y-113986331D01*
X119992816Y-113923185D01*
X120073185Y-113842816D01*
X120098001Y-113805677D01*
X120098001Y-115457208D01*
X120098000Y-115457218D01*
X120098000Y-115460999D01*
X120026815Y-115532184D01*
X119963669Y-115626688D01*
X119920174Y-115731695D01*
X119898000Y-115843170D01*
X119898000Y-115956830D01*
X119920174Y-116068305D01*
X119963669Y-116173312D01*
X120026815Y-116267816D01*
X120107184Y-116348185D01*
X120201688Y-116411331D01*
X120306695Y-116454826D01*
X120418170Y-116477000D01*
X120531830Y-116477000D01*
X120643305Y-116454826D01*
X120748312Y-116411331D01*
X120842816Y-116348185D01*
X120923185Y-116267816D01*
X120986331Y-116173312D01*
X121029826Y-116068305D01*
X121052000Y-115956830D01*
X121052000Y-115843170D01*
X121029826Y-115731695D01*
X120986331Y-115626688D01*
X120923185Y-115532184D01*
X120852000Y-115460999D01*
X120852000Y-110893522D01*
X120853823Y-110875010D01*
X120852000Y-110856498D01*
X120852000Y-110856491D01*
X120846545Y-110801105D01*
X120844793Y-110795327D01*
X120824988Y-110730040D01*
X120806888Y-110696178D01*
X120789981Y-110664547D01*
X120742869Y-110607141D01*
X120728488Y-110595339D01*
X120251990Y-110118842D01*
X120251990Y-110018170D01*
X120229816Y-109906695D01*
X120186321Y-109801688D01*
X120123175Y-109707184D01*
X120042806Y-109626815D01*
X119948302Y-109563669D01*
X119843295Y-109520174D01*
X119731820Y-109498000D01*
X119618160Y-109498000D01*
X119506685Y-109520174D01*
X119401678Y-109563669D01*
X119307174Y-109626815D01*
X119226805Y-109707184D01*
X119163659Y-109801688D01*
X119120164Y-109906695D01*
X119097990Y-110018170D01*
X119097990Y-110131830D01*
X119120164Y-110243305D01*
X119163659Y-110348312D01*
X119226805Y-110442816D01*
X119307174Y-110523185D01*
X119401678Y-110586331D01*
X119506685Y-110629826D01*
X119618160Y-110652000D01*
X119718832Y-110652000D01*
X120098000Y-111031169D01*
X120098000Y-111944322D01*
X120073185Y-111907184D01*
X119992816Y-111826815D01*
X119898312Y-111763669D01*
X119793305Y-111720174D01*
X119681830Y-111698000D01*
X119568170Y-111698000D01*
X119456695Y-111720174D01*
X119351688Y-111763669D01*
X119257184Y-111826815D01*
X119185999Y-111898000D01*
X118977819Y-111898000D01*
X118959300Y-111896176D01*
X118885394Y-111903455D01*
X118826969Y-111921178D01*
X118814330Y-111925012D01*
X118748837Y-111960019D01*
X118691431Y-112007131D01*
X118679628Y-112021513D01*
X109360402Y-121340740D01*
X109325094Y-121305432D01*
X109473216Y-121197734D01*
X109559933Y-120982713D01*
X109603034Y-120754905D01*
X109600865Y-120523066D01*
X109553508Y-120296105D01*
X109473216Y-120102266D01*
X109325092Y-119994566D01*
X108669659Y-120650000D01*
X108683801Y-120664142D01*
X108439142Y-120908801D01*
X108425000Y-120894659D01*
X107769566Y-121550092D01*
X107877266Y-121698216D01*
X108092287Y-121784933D01*
X108320095Y-121828034D01*
X108551934Y-121825865D01*
X108778895Y-121778508D01*
X108972734Y-121698216D01*
X109080432Y-121550094D01*
X109115740Y-121585402D01*
X108778143Y-121922999D01*
X107332343Y-121922999D01*
X107406769Y-121743318D01*
X107452000Y-121515924D01*
X107452000Y-121284076D01*
X107444639Y-121247071D01*
X107524908Y-121305434D01*
X108180341Y-120650000D01*
X107524908Y-119994566D01*
X107376784Y-120102266D01*
X107290067Y-120317287D01*
X107246966Y-120545095D01*
X107248778Y-120738818D01*
X107189236Y-120649706D01*
X107025294Y-120485764D01*
X106832519Y-120356956D01*
X106618318Y-120268231D01*
X106414693Y-120227728D01*
X107784707Y-119729084D01*
X107769566Y-119749908D01*
X108425000Y-120405341D01*
X109080434Y-119749908D01*
X108972734Y-119601784D01*
X108757713Y-119515067D01*
X108529905Y-119471966D01*
X108407514Y-119473111D01*
X109799229Y-118824144D01*
X111402572Y-117898453D01*
X112919135Y-116836545D01*
X114337375Y-115646500D01*
X115646500Y-114337375D01*
X116836545Y-112919135D01*
X117898453Y-111402572D01*
X118824144Y-109799229D01*
X119606571Y-108121308D01*
X120239781Y-106381578D01*
X120718954Y-104593281D01*
X121040443Y-102770027D01*
X121201801Y-100925691D01*
X121201801Y-100177000D01*
X123813566Y-100177000D01*
X123813567Y-121003275D01*
G37*
X123813567Y-121003275D02*
X121243842Y-123573000D01*
X99668519Y-123573000D01*
X99650000Y-123571176D01*
X99576094Y-123578455D01*
X99544998Y-123587888D01*
X99505030Y-123600012D01*
X99439537Y-123635019D01*
X99434958Y-123638777D01*
X99398558Y-123668650D01*
X99382131Y-123682131D01*
X99370328Y-123696513D01*
X98993842Y-124073000D01*
X98768001Y-124073000D01*
X99379661Y-123461340D01*
X99584076Y-123502000D01*
X99815924Y-123502000D01*
X100043318Y-123456769D01*
X100257519Y-123368044D01*
X100450294Y-123239236D01*
X100614236Y-123075294D01*
X100743044Y-122882519D01*
X100825888Y-122682515D01*
X100856956Y-122757519D01*
X100985764Y-122950294D01*
X101149706Y-123114236D01*
X101342481Y-123243044D01*
X101556682Y-123331769D01*
X101784076Y-123377000D01*
X102015924Y-123377000D01*
X102243318Y-123331769D01*
X102423837Y-123256996D01*
X102545328Y-123378487D01*
X102557131Y-123392869D01*
X102571513Y-123404672D01*
X102571515Y-123404674D01*
X102614537Y-123439981D01*
X102680030Y-123474988D01*
X102751094Y-123496545D01*
X102825000Y-123503824D01*
X102843519Y-123502000D01*
X109231488Y-123502000D01*
X109250000Y-123503823D01*
X109268512Y-123502000D01*
X109268519Y-123502000D01*
X109323905Y-123496545D01*
X109394970Y-123474988D01*
X109460463Y-123439981D01*
X109517869Y-123392869D01*
X109529677Y-123378481D01*
X110509680Y-122398478D01*
X117846181Y-122398478D01*
X118207141Y-122761984D01*
X118780427Y-123058682D01*
X119400581Y-123237837D01*
X120043769Y-123292564D01*
X120685276Y-123220760D01*
X121300447Y-123025182D01*
X121792859Y-122761984D01*
X122153819Y-122398478D01*
X120000000Y-120244659D01*
X117846181Y-122398478D01*
X110509680Y-122398478D01*
X112948843Y-119959316D01*
X113026688Y-120011331D01*
X113131695Y-120054826D01*
X113243170Y-120077000D01*
X113356830Y-120077000D01*
X113468305Y-120054826D01*
X113494999Y-120043769D01*
X116707436Y-120043769D01*
X116779240Y-120685276D01*
X116974818Y-121300447D01*
X117238016Y-121792859D01*
X117601522Y-122153819D01*
X119755341Y-120000000D01*
X120244659Y-120000000D01*
X122398478Y-122153819D01*
X122761984Y-121792859D01*
X123058682Y-121219573D01*
X123237837Y-120599419D01*
X123292564Y-119956231D01*
X123220760Y-119314724D01*
X123025182Y-118699553D01*
X122761984Y-118207141D01*
X122398478Y-117846181D01*
X120244659Y-120000000D01*
X119755341Y-120000000D01*
X117601522Y-117846181D01*
X117238016Y-118207141D01*
X116941318Y-118780427D01*
X116762163Y-119400581D01*
X116707436Y-120043769D01*
X113494999Y-120043769D01*
X113573312Y-120011331D01*
X113667816Y-119948185D01*
X113748185Y-119867816D01*
X113811331Y-119773312D01*
X113854826Y-119668305D01*
X113877000Y-119556830D01*
X113877000Y-119443170D01*
X113854826Y-119331695D01*
X113811331Y-119226688D01*
X113748185Y-119132184D01*
X113667816Y-119051815D01*
X113573312Y-118988669D01*
X113468305Y-118945174D01*
X113401311Y-118931848D01*
X114731637Y-117601522D01*
X117846181Y-117601522D01*
X120000000Y-119755341D01*
X122153819Y-117601522D01*
X121792859Y-117238016D01*
X121219573Y-116941318D01*
X120599419Y-116762163D01*
X119956231Y-116707436D01*
X119314724Y-116779240D01*
X118699553Y-116974818D01*
X118207141Y-117238016D01*
X117846181Y-117601522D01*
X114731637Y-117601522D01*
X118481159Y-113852000D01*
X119185999Y-113852000D01*
X119257184Y-113923185D01*
X119351688Y-113986331D01*
X119456695Y-114029826D01*
X119568170Y-114052000D01*
X119681830Y-114052000D01*
X119793305Y-114029826D01*
X119898312Y-113986331D01*
X119992816Y-113923185D01*
X120073185Y-113842816D01*
X120098001Y-113805677D01*
X120098001Y-115457208D01*
X120098000Y-115457218D01*
X120098000Y-115460999D01*
X120026815Y-115532184D01*
X119963669Y-115626688D01*
X119920174Y-115731695D01*
X119898000Y-115843170D01*
X119898000Y-115956830D01*
X119920174Y-116068305D01*
X119963669Y-116173312D01*
X120026815Y-116267816D01*
X120107184Y-116348185D01*
X120201688Y-116411331D01*
X120306695Y-116454826D01*
X120418170Y-116477000D01*
X120531830Y-116477000D01*
X120643305Y-116454826D01*
X120748312Y-116411331D01*
X120842816Y-116348185D01*
X120923185Y-116267816D01*
X120986331Y-116173312D01*
X121029826Y-116068305D01*
X121052000Y-115956830D01*
X121052000Y-115843170D01*
X121029826Y-115731695D01*
X120986331Y-115626688D01*
X120923185Y-115532184D01*
X120852000Y-115460999D01*
X120852000Y-110893522D01*
X120853823Y-110875010D01*
X120852000Y-110856498D01*
X120852000Y-110856491D01*
X120846545Y-110801105D01*
X120844793Y-110795327D01*
X120824988Y-110730040D01*
X120806888Y-110696178D01*
X120789981Y-110664547D01*
X120742869Y-110607141D01*
X120728488Y-110595339D01*
X120251990Y-110118842D01*
X120251990Y-110018170D01*
X120229816Y-109906695D01*
X120186321Y-109801688D01*
X120123175Y-109707184D01*
X120042806Y-109626815D01*
X119948302Y-109563669D01*
X119843295Y-109520174D01*
X119731820Y-109498000D01*
X119618160Y-109498000D01*
X119506685Y-109520174D01*
X119401678Y-109563669D01*
X119307174Y-109626815D01*
X119226805Y-109707184D01*
X119163659Y-109801688D01*
X119120164Y-109906695D01*
X119097990Y-110018170D01*
X119097990Y-110131830D01*
X119120164Y-110243305D01*
X119163659Y-110348312D01*
X119226805Y-110442816D01*
X119307174Y-110523185D01*
X119401678Y-110586331D01*
X119506685Y-110629826D01*
X119618160Y-110652000D01*
X119718832Y-110652000D01*
X120098000Y-111031169D01*
X120098000Y-111944322D01*
X120073185Y-111907184D01*
X119992816Y-111826815D01*
X119898312Y-111763669D01*
X119793305Y-111720174D01*
X119681830Y-111698000D01*
X119568170Y-111698000D01*
X119456695Y-111720174D01*
X119351688Y-111763669D01*
X119257184Y-111826815D01*
X119185999Y-111898000D01*
X118977819Y-111898000D01*
X118959300Y-111896176D01*
X118885394Y-111903455D01*
X118826969Y-111921178D01*
X118814330Y-111925012D01*
X118748837Y-111960019D01*
X118691431Y-112007131D01*
X118679628Y-112021513D01*
X109360402Y-121340740D01*
X109325094Y-121305432D01*
X109473216Y-121197734D01*
X109559933Y-120982713D01*
X109603034Y-120754905D01*
X109600865Y-120523066D01*
X109553508Y-120296105D01*
X109473216Y-120102266D01*
X109325092Y-119994566D01*
X108669659Y-120650000D01*
X108683801Y-120664142D01*
X108439142Y-120908801D01*
X108425000Y-120894659D01*
X107769566Y-121550092D01*
X107877266Y-121698216D01*
X108092287Y-121784933D01*
X108320095Y-121828034D01*
X108551934Y-121825865D01*
X108778895Y-121778508D01*
X108972734Y-121698216D01*
X109080432Y-121550094D01*
X109115740Y-121585402D01*
X108778143Y-121922999D01*
X107332343Y-121922999D01*
X107406769Y-121743318D01*
X107452000Y-121515924D01*
X107452000Y-121284076D01*
X107444639Y-121247071D01*
X107524908Y-121305434D01*
X108180341Y-120650000D01*
X107524908Y-119994566D01*
X107376784Y-120102266D01*
X107290067Y-120317287D01*
X107246966Y-120545095D01*
X107248778Y-120738818D01*
X107189236Y-120649706D01*
X107025294Y-120485764D01*
X106832519Y-120356956D01*
X106618318Y-120268231D01*
X106414693Y-120227728D01*
X107784707Y-119729084D01*
X107769566Y-119749908D01*
X108425000Y-120405341D01*
X109080434Y-119749908D01*
X108972734Y-119601784D01*
X108757713Y-119515067D01*
X108529905Y-119471966D01*
X108407514Y-119473111D01*
X109799229Y-118824144D01*
X111402572Y-117898453D01*
X112919135Y-116836545D01*
X114337375Y-115646500D01*
X115646500Y-114337375D01*
X116836545Y-112919135D01*
X117898453Y-111402572D01*
X118824144Y-109799229D01*
X119606571Y-108121308D01*
X120239781Y-106381578D01*
X120718954Y-104593281D01*
X121040443Y-102770027D01*
X121201801Y-100925691D01*
X121201801Y-100177000D01*
X123813566Y-100177000D01*
X123813567Y-121003275D01*
G36*
X95406719Y-120718954D02*
G01*
X96027531Y-120828420D01*
X95821105Y-120871492D01*
X95627266Y-120951784D01*
X95519566Y-121099908D01*
X96175000Y-121755341D01*
X96830434Y-121099908D01*
X96722734Y-120951784D01*
X96719293Y-120950396D01*
X97229973Y-121040443D01*
X99074309Y-121201801D01*
X99335992Y-121201801D01*
X99142481Y-121281956D01*
X98949706Y-121410764D01*
X98785764Y-121574706D01*
X98656956Y-121767481D01*
X98568231Y-121981682D01*
X98523000Y-122209076D01*
X98523000Y-122440924D01*
X98563660Y-122645339D01*
X98035999Y-123173000D01*
X96315665Y-123173000D01*
X96528895Y-123128508D01*
X96722734Y-123048216D01*
X96830434Y-122900092D01*
X96175000Y-122244659D01*
X95519566Y-122900092D01*
X95627266Y-123048216D01*
X95842287Y-123134933D01*
X96043488Y-123173000D01*
X92860158Y-123173000D01*
X93476163Y-122556995D01*
X93656682Y-122631769D01*
X93884076Y-122677000D01*
X94115924Y-122677000D01*
X94343318Y-122631769D01*
X94557519Y-122543044D01*
X94750294Y-122414236D01*
X94914236Y-122250294D01*
X94999101Y-122123285D01*
X94999135Y-122126934D01*
X95046492Y-122353895D01*
X95126784Y-122547734D01*
X95274908Y-122655434D01*
X95930341Y-122000000D01*
X96419659Y-122000000D01*
X97075092Y-122655434D01*
X97223216Y-122547734D01*
X97309933Y-122332713D01*
X97353034Y-122104905D01*
X97350865Y-121873066D01*
X97303508Y-121646105D01*
X97223216Y-121452266D01*
X97075092Y-121344566D01*
X96419659Y-122000000D01*
X95930341Y-122000000D01*
X95274908Y-121344566D01*
X95177000Y-121415754D01*
X95177000Y-121384076D01*
X95131769Y-121156682D01*
X95043044Y-120942481D01*
X94914236Y-120749706D01*
X94750294Y-120585764D01*
X94643608Y-120514479D01*
X95406719Y-120718954D01*
G37*
X95406719Y-120718954D02*
X96027531Y-120828420D01*
X95821105Y-120871492D01*
X95627266Y-120951784D01*
X95519566Y-121099908D01*
X96175000Y-121755341D01*
X96830434Y-121099908D01*
X96722734Y-120951784D01*
X96719293Y-120950396D01*
X97229973Y-121040443D01*
X99074309Y-121201801D01*
X99335992Y-121201801D01*
X99142481Y-121281956D01*
X98949706Y-121410764D01*
X98785764Y-121574706D01*
X98656956Y-121767481D01*
X98568231Y-121981682D01*
X98523000Y-122209076D01*
X98523000Y-122440924D01*
X98563660Y-122645339D01*
X98035999Y-123173000D01*
X96315665Y-123173000D01*
X96528895Y-123128508D01*
X96722734Y-123048216D01*
X96830434Y-122900092D01*
X96175000Y-122244659D01*
X95519566Y-122900092D01*
X95627266Y-123048216D01*
X95842287Y-123134933D01*
X96043488Y-123173000D01*
X92860158Y-123173000D01*
X93476163Y-122556995D01*
X93656682Y-122631769D01*
X93884076Y-122677000D01*
X94115924Y-122677000D01*
X94343318Y-122631769D01*
X94557519Y-122543044D01*
X94750294Y-122414236D01*
X94914236Y-122250294D01*
X94999101Y-122123285D01*
X94999135Y-122126934D01*
X95046492Y-122353895D01*
X95126784Y-122547734D01*
X95274908Y-122655434D01*
X95930341Y-122000000D01*
X96419659Y-122000000D01*
X97075092Y-122655434D01*
X97223216Y-122547734D01*
X97309933Y-122332713D01*
X97353034Y-122104905D01*
X97350865Y-121873066D01*
X97303508Y-121646105D01*
X97223216Y-121452266D01*
X97075092Y-121344566D01*
X96419659Y-122000000D01*
X95930341Y-122000000D01*
X95274908Y-121344566D01*
X95177000Y-121415754D01*
X95177000Y-121384076D01*
X95131769Y-121156682D01*
X95043044Y-120942481D01*
X94914236Y-120749706D01*
X94750294Y-120585764D01*
X94643608Y-120514479D01*
X95406719Y-120718954D01*
G36*
X113299256Y-83482414D02*
G01*
X112919135Y-83163455D01*
X111402572Y-82101547D01*
X109799229Y-81175856D01*
X108121308Y-80393429D01*
X106381578Y-79760219D01*
X104593281Y-79281046D01*
X102770027Y-78959557D01*
X101255015Y-78827011D01*
X108643853Y-78827011D01*
X113299256Y-83482414D01*
G37*
X113299256Y-83482414D02*
X112919135Y-83163455D01*
X111402572Y-82101547D01*
X109799229Y-81175856D01*
X108121308Y-80393429D01*
X106381578Y-79760219D01*
X104593281Y-79281046D01*
X102770027Y-78959557D01*
X101255015Y-78827011D01*
X108643853Y-78827011D01*
X113299256Y-83482414D01*
M02*
