M48
; DRILL file {KiCad 5.1.5+dfsg1-2build2} date Tue 18 May 2021 02:50:13 PM CEST
; FORMAT={-:-/ absolute / inch / decimal}
; #@! TF.CreationDate,2021-05-18T14:50:13+02:00
; #@! TF.GenerationSoftware,Kicad,Pcbnew,5.1.5+dfsg1-2build2
; #@! TF.FileFunction,Plated,1,2,PTH
FMAT,2
INCH
T1C0.0118
T2C0.0197
T3C0.0602
T4C0.1181
%
G90
G05
T1
X3.0394Y-4.4409
X3.0551Y-3.4488
X3.0817Y-4.4331
X3.0945Y-4.2913
X3.1024Y-3.5276
X3.1319Y-4.3848
X3.1339Y-4.5512
X3.2283Y-3.2913
X3.2362Y-4.4409
X3.3238Y-3.3287
X3.3248Y-3.1821
X3.3435Y-3.2736
X3.3632Y-3.3041
X3.3632Y-4.6152
X3.3661Y-4.8091
X3.3661Y-4.8465
X3.3937Y-4.5906
X3.4478Y-4.7323
X3.4724Y-4.8081
X3.5118Y-4.685
X3.5482Y-4.8179
X3.5522Y-4.7815
X3.6171Y-3.0453
X3.6201Y-3.1407
X3.6211Y-4.8189
X4.0846Y-3.0463
X4.1575Y-3.1191
X4.1722Y-2.9862
X4.3219Y-3.0305
X4.4222Y-3.0157
X4.4222Y-3.1535
X4.4606Y-4.7047
X4.4724Y-3.1919
X4.5128Y-3.1298
X4.5709Y-3.0837
X4.6506Y-4.5413
X4.6604Y-4.3809
X4.6772Y-3.4931
X4.687Y-3.5236
X4.6988Y-3.5571
X4.7096Y-4.4203
X4.7096Y-4.4675
X4.7116Y-4.3337
X4.7333Y-3.4281
X4.7431Y-4.563
X4.7559Y-4.2057
X4.7707Y-3.44
X4.7815Y-3.3868
X4.8258Y-4.4439
X4.8376Y-3.5384
X4.8445Y-4.312
X4.8455Y-3.622
X4.8455Y-3.6703
X4.8465Y-3.9675
T2
X3.061Y-3.1496
X3.087Y-3.087
X3.087Y-3.2122
X3.1496Y-3.061
X3.1496Y-3.2382
X3.2122Y-3.087
X3.2122Y-3.2122
X3.2382Y-3.1496
X4.6358Y-3.1496
X4.6618Y-3.087
X4.6618Y-3.2122
X4.7244Y-3.061
X4.7244Y-3.2382
X4.787Y-3.087
X4.787Y-3.2122
X4.813Y-3.1496
X4.6358Y-4.7244
X4.6618Y-4.6618
X4.6618Y-4.787
X4.7244Y-4.6358
X4.7244Y-4.813
X4.787Y-4.6618
X4.787Y-4.787
X4.813Y-4.7244
X3.061Y-4.7244
X3.087Y-4.6618
X3.087Y-4.787
X3.1496Y-4.6358
X3.1496Y-4.813
X3.2122Y-4.6618
X3.2122Y-4.787
X3.2382Y-4.7244
T3
X4.0994Y-4.7982
X4.1841Y-4.7795
X3.9252Y-4.8159
X3.6181Y-4.7579
X4.0118Y-4.811
X4.2687Y-4.75
X3.7008Y-4.7835
X3.7864Y-4.8031
T4
X3.1496Y-3.1496
X4.7244Y-3.1496
X4.7244Y-4.7244
X3.1496Y-4.7244
T0
M30
