G04 #@! TF.GenerationSoftware,KiCad,Pcbnew,5.1.5+dfsg1-2build2*
G04 #@! TF.CreationDate,2021-10-11T18:01:35+02:00*
G04 #@! TF.ProjectId,OtterCam-s3,4f747465-7243-4616-9d2d-73332e6b6963,rev?*
G04 #@! TF.SameCoordinates,Original*
G04 #@! TF.FileFunction,Legend,Top*
G04 #@! TF.FilePolarity,Positive*
%FSLAX46Y46*%
G04 Gerber Fmt 4.6, Leading zero omitted, Abs format (unit mm)*
G04 Created by KiCad (PCBNEW 5.1.5+dfsg1-2build2) date 2021-10-11 18:01:35*
%MOMM*%
%LPD*%
G04 APERTURE LIST*
%ADD10C,0.120000*%
%ADD11C,0.100000*%
%ADD12C,0.080000*%
%ADD13C,0.150000*%
%ADD14C,0.125000*%
%ADD15C,0.122000*%
%ADD16C,0.050000*%
%ADD17C,0.254000*%
G04 APERTURE END LIST*
D10*
X81757142Y-50757142D02*
X81871428Y-50814285D01*
X81928571Y-50871428D01*
X81985714Y-50985714D01*
X81985714Y-51328571D01*
X81928571Y-51442857D01*
X81871428Y-51500000D01*
X81757142Y-51557142D01*
X81585714Y-51557142D01*
X81471428Y-51500000D01*
X81414285Y-51442857D01*
X81357142Y-51328571D01*
X81357142Y-50985714D01*
X81414285Y-50871428D01*
X81471428Y-50814285D01*
X81585714Y-50757142D01*
X81757142Y-50757142D01*
X80957142Y-51557142D02*
X80728571Y-50757142D01*
X80500000Y-51328571D01*
X80271428Y-50757142D01*
X80042857Y-51557142D01*
X79414285Y-50757142D02*
X79528571Y-50814285D01*
X79585714Y-50871428D01*
X79642857Y-50985714D01*
X79642857Y-51328571D01*
X79585714Y-51442857D01*
X79528571Y-51500000D01*
X79414285Y-51557142D01*
X79242857Y-51557142D01*
X79128571Y-51500000D01*
X79071428Y-51442857D01*
X79014285Y-51328571D01*
X79014285Y-50985714D01*
X79071428Y-50871428D01*
X79128571Y-50814285D01*
X79242857Y-50757142D01*
X79414285Y-50757142D01*
D11*
X97100000Y-79150000D02*
X97500000Y-78300000D01*
X97000000Y-74100000D02*
X97600000Y-74950000D01*
D12*
X97950000Y-72407142D02*
X97921428Y-72464285D01*
X97921428Y-72550000D01*
X97950000Y-72635714D01*
X98007142Y-72692857D01*
X98064285Y-72721428D01*
X98178571Y-72750000D01*
X98264285Y-72750000D01*
X98378571Y-72721428D01*
X98435714Y-72692857D01*
X98492857Y-72635714D01*
X98521428Y-72550000D01*
X98521428Y-72492857D01*
X98492857Y-72407142D01*
X98464285Y-72378571D01*
X98264285Y-72378571D01*
X98264285Y-72492857D01*
X98521428Y-72121428D02*
X97921428Y-72121428D01*
X98521428Y-71778571D01*
X97921428Y-71778571D01*
X98521428Y-71492857D02*
X97921428Y-71492857D01*
X97921428Y-71350000D01*
X97950000Y-71264285D01*
X98007142Y-71207142D01*
X98064285Y-71178571D01*
X98178571Y-71150000D01*
X98264285Y-71150000D01*
X98378571Y-71178571D01*
X98435714Y-71207142D01*
X98492857Y-71264285D01*
X98521428Y-71350000D01*
X98521428Y-71492857D01*
X97921428Y-81869047D02*
X97921428Y-81559523D01*
X98150000Y-81726190D01*
X98150000Y-81654761D01*
X98178571Y-81607142D01*
X98207142Y-81583333D01*
X98264285Y-81559523D01*
X98407142Y-81559523D01*
X98464285Y-81583333D01*
X98492857Y-81607142D01*
X98521428Y-81654761D01*
X98521428Y-81797619D01*
X98492857Y-81845238D01*
X98464285Y-81869047D01*
X97921428Y-81416666D02*
X98521428Y-81250000D01*
X97921428Y-81083333D01*
X97921428Y-80964285D02*
X97921428Y-80654761D01*
X98150000Y-80821428D01*
X98150000Y-80750000D01*
X98178571Y-80702380D01*
X98207142Y-80678571D01*
X98264285Y-80654761D01*
X98407142Y-80654761D01*
X98464285Y-80678571D01*
X98492857Y-80702380D01*
X98521428Y-80750000D01*
X98521428Y-80892857D01*
X98492857Y-80940476D01*
X98464285Y-80964285D01*
X97171428Y-73600000D02*
X96885714Y-73800000D01*
X97171428Y-73942857D02*
X96571428Y-73942857D01*
X96571428Y-73714285D01*
X96600000Y-73657142D01*
X96628571Y-73628571D01*
X96685714Y-73600000D01*
X96771428Y-73600000D01*
X96828571Y-73628571D01*
X96857142Y-73657142D01*
X96885714Y-73714285D01*
X96885714Y-73942857D01*
X96571428Y-73400000D02*
X97171428Y-73000000D01*
X96571428Y-73000000D02*
X97171428Y-73400000D01*
X96571428Y-80207142D02*
X96571428Y-79864285D01*
X97171428Y-80035714D02*
X96571428Y-80035714D01*
X96571428Y-79721428D02*
X97171428Y-79321428D01*
X96571428Y-79321428D02*
X97171428Y-79721428D01*
D13*
X78502380Y-94502380D02*
X78169047Y-94026190D01*
X77930952Y-94502380D02*
X77930952Y-93502380D01*
X78311904Y-93502380D01*
X78407142Y-93550000D01*
X78454761Y-93597619D01*
X78502380Y-93692857D01*
X78502380Y-93835714D01*
X78454761Y-93930952D01*
X78407142Y-93978571D01*
X78311904Y-94026190D01*
X77930952Y-94026190D01*
X78883333Y-94454761D02*
X79026190Y-94502380D01*
X79264285Y-94502380D01*
X79359523Y-94454761D01*
X79407142Y-94407142D01*
X79454761Y-94311904D01*
X79454761Y-94216666D01*
X79407142Y-94121428D01*
X79359523Y-94073809D01*
X79264285Y-94026190D01*
X79073809Y-93978571D01*
X78978571Y-93930952D01*
X78930952Y-93883333D01*
X78883333Y-93788095D01*
X78883333Y-93692857D01*
X78930952Y-93597619D01*
X78978571Y-93550000D01*
X79073809Y-93502380D01*
X79311904Y-93502380D01*
X79454761Y-93550000D01*
X79740476Y-93502380D02*
X80311904Y-93502380D01*
X80026190Y-94502380D02*
X80026190Y-93502380D01*
D11*
X63033333Y-53133333D02*
X63000000Y-53100000D01*
X62933333Y-53066666D01*
X62866666Y-53066666D01*
X62800000Y-53100000D01*
X62766666Y-53133333D01*
X62733333Y-53200000D01*
X62733333Y-53266666D01*
X62766666Y-53333333D01*
X62800000Y-53366666D01*
X62866666Y-53400000D01*
X62933333Y-53400000D01*
X63000000Y-53366666D01*
X63033333Y-53333333D01*
X63033333Y-53066666D02*
X63033333Y-53333333D01*
X63066666Y-53366666D01*
X63100000Y-53366666D01*
X63166666Y-53333333D01*
X63200000Y-53266666D01*
X63200000Y-53100000D01*
X63133333Y-53000000D01*
X63033333Y-52933333D01*
X62900000Y-52900000D01*
X62766666Y-52933333D01*
X62666666Y-53000000D01*
X62600000Y-53100000D01*
X62566666Y-53233333D01*
X62600000Y-53366666D01*
X62666666Y-53466666D01*
X62766666Y-53533333D01*
X62900000Y-53566666D01*
X63033333Y-53533333D01*
X63133333Y-53466666D01*
X63700000Y-52766666D02*
X63700000Y-53266666D01*
X63666666Y-53366666D01*
X63600000Y-53433333D01*
X63500000Y-53466666D01*
X63433333Y-53466666D01*
X64333333Y-53466666D02*
X64333333Y-53100000D01*
X64300000Y-53033333D01*
X64233333Y-53000000D01*
X64100000Y-53000000D01*
X64033333Y-53033333D01*
X64333333Y-53433333D02*
X64266666Y-53466666D01*
X64100000Y-53466666D01*
X64033333Y-53433333D01*
X64000000Y-53366666D01*
X64000000Y-53300000D01*
X64033333Y-53233333D01*
X64100000Y-53200000D01*
X64266666Y-53200000D01*
X64333333Y-53166666D01*
X64666666Y-53000000D02*
X64666666Y-53466666D01*
X64666666Y-53066666D02*
X64700000Y-53033333D01*
X64766666Y-53000000D01*
X64866666Y-53000000D01*
X64933333Y-53033333D01*
X64966666Y-53100000D01*
X64966666Y-53466666D01*
X65300000Y-53466666D02*
X65300000Y-52766666D01*
X65300000Y-53100000D02*
X65700000Y-53100000D01*
X65700000Y-53466666D02*
X65700000Y-52766666D01*
X66300000Y-53433333D02*
X66233333Y-53466666D01*
X66100000Y-53466666D01*
X66033333Y-53433333D01*
X66000000Y-53366666D01*
X66000000Y-53100000D01*
X66033333Y-53033333D01*
X66100000Y-53000000D01*
X66233333Y-53000000D01*
X66300000Y-53033333D01*
X66333333Y-53100000D01*
X66333333Y-53166666D01*
X66000000Y-53233333D01*
X66633333Y-53000000D02*
X66633333Y-53466666D01*
X66633333Y-53066666D02*
X66666666Y-53033333D01*
X66733333Y-53000000D01*
X66833333Y-53000000D01*
X66900000Y-53033333D01*
X66933333Y-53100000D01*
X66933333Y-53466666D01*
X67266666Y-53466666D02*
X67266666Y-53000000D01*
X67266666Y-53133333D02*
X67300000Y-53066666D01*
X67333333Y-53033333D01*
X67400000Y-53000000D01*
X67466666Y-53000000D01*
X67700000Y-53466666D02*
X67700000Y-53000000D01*
X67700000Y-52766666D02*
X67666666Y-52800000D01*
X67700000Y-52833333D01*
X67733333Y-52800000D01*
X67700000Y-52766666D01*
X67700000Y-52833333D01*
X68033333Y-53466666D02*
X68033333Y-52766666D01*
X68100000Y-53200000D02*
X68300000Y-53466666D01*
X68300000Y-53000000D02*
X68033333Y-53266666D01*
X68600000Y-53466666D02*
X68600000Y-52766666D01*
X68600000Y-53100000D02*
X69000000Y-53100000D01*
X69000000Y-53466666D02*
X69000000Y-52766666D01*
X69833333Y-52833333D02*
X69866666Y-52800000D01*
X69933333Y-52766666D01*
X70100000Y-52766666D01*
X70166666Y-52800000D01*
X70200000Y-52833333D01*
X70233333Y-52900000D01*
X70233333Y-52966666D01*
X70200000Y-53066666D01*
X69800000Y-53466666D01*
X70233333Y-53466666D01*
X70666666Y-52766666D02*
X70733333Y-52766666D01*
X70800000Y-52800000D01*
X70833333Y-52833333D01*
X70866666Y-52900000D01*
X70900000Y-53033333D01*
X70900000Y-53200000D01*
X70866666Y-53333333D01*
X70833333Y-53400000D01*
X70800000Y-53433333D01*
X70733333Y-53466666D01*
X70666666Y-53466666D01*
X70600000Y-53433333D01*
X70566666Y-53400000D01*
X70533333Y-53333333D01*
X70500000Y-53200000D01*
X70500000Y-53033333D01*
X70533333Y-52900000D01*
X70566666Y-52833333D01*
X70600000Y-52800000D01*
X70666666Y-52766666D01*
X71166666Y-52833333D02*
X71200000Y-52800000D01*
X71266666Y-52766666D01*
X71433333Y-52766666D01*
X71500000Y-52800000D01*
X71533333Y-52833333D01*
X71566666Y-52900000D01*
X71566666Y-52966666D01*
X71533333Y-53066666D01*
X71133333Y-53466666D01*
X71566666Y-53466666D01*
X72233333Y-53466666D02*
X71833333Y-53466666D01*
X72033333Y-53466666D02*
X72033333Y-52766666D01*
X71966666Y-52866666D01*
X71900000Y-52933333D01*
X71833333Y-52966666D01*
D10*
X61971428Y-51092857D02*
X62200000Y-51092857D01*
X62314285Y-51150000D01*
X62428571Y-51264285D01*
X62485714Y-51492857D01*
X62485714Y-51892857D01*
X62428571Y-52121428D01*
X62314285Y-52235714D01*
X62200000Y-52292857D01*
X61971428Y-52292857D01*
X61857142Y-52235714D01*
X61742857Y-52121428D01*
X61685714Y-51892857D01*
X61685714Y-51492857D01*
X61742857Y-51264285D01*
X61857142Y-51150000D01*
X61971428Y-51092857D01*
X62828571Y-51492857D02*
X63285714Y-51492857D01*
X63000000Y-51092857D02*
X63000000Y-52121428D01*
X63057142Y-52235714D01*
X63171428Y-52292857D01*
X63285714Y-52292857D01*
X63514285Y-51492857D02*
X63971428Y-51492857D01*
X63685714Y-51092857D02*
X63685714Y-52121428D01*
X63742857Y-52235714D01*
X63857142Y-52292857D01*
X63971428Y-52292857D01*
X64828571Y-52235714D02*
X64714285Y-52292857D01*
X64485714Y-52292857D01*
X64371428Y-52235714D01*
X64314285Y-52121428D01*
X64314285Y-51664285D01*
X64371428Y-51550000D01*
X64485714Y-51492857D01*
X64714285Y-51492857D01*
X64828571Y-51550000D01*
X64885714Y-51664285D01*
X64885714Y-51778571D01*
X64314285Y-51892857D01*
X65400000Y-52292857D02*
X65400000Y-51492857D01*
X65400000Y-51721428D02*
X65457142Y-51607142D01*
X65514285Y-51550000D01*
X65628571Y-51492857D01*
X65742857Y-51492857D01*
X66828571Y-52178571D02*
X66771428Y-52235714D01*
X66600000Y-52292857D01*
X66485714Y-52292857D01*
X66314285Y-52235714D01*
X66200000Y-52121428D01*
X66142857Y-52007142D01*
X66085714Y-51778571D01*
X66085714Y-51607142D01*
X66142857Y-51378571D01*
X66200000Y-51264285D01*
X66314285Y-51150000D01*
X66485714Y-51092857D01*
X66600000Y-51092857D01*
X66771428Y-51150000D01*
X66828571Y-51207142D01*
X67857142Y-52292857D02*
X67857142Y-51664285D01*
X67800000Y-51550000D01*
X67685714Y-51492857D01*
X67457142Y-51492857D01*
X67342857Y-51550000D01*
X67857142Y-52235714D02*
X67742857Y-52292857D01*
X67457142Y-52292857D01*
X67342857Y-52235714D01*
X67285714Y-52121428D01*
X67285714Y-52007142D01*
X67342857Y-51892857D01*
X67457142Y-51835714D01*
X67742857Y-51835714D01*
X67857142Y-51778571D01*
X68428571Y-52292857D02*
X68428571Y-51492857D01*
X68428571Y-51607142D02*
X68485714Y-51550000D01*
X68600000Y-51492857D01*
X68771428Y-51492857D01*
X68885714Y-51550000D01*
X68942857Y-51664285D01*
X68942857Y-52292857D01*
X68942857Y-51664285D02*
X69000000Y-51550000D01*
X69114285Y-51492857D01*
X69285714Y-51492857D01*
X69400000Y-51550000D01*
X69457142Y-51664285D01*
X69457142Y-52292857D01*
X70028571Y-51835714D02*
X70942857Y-51835714D01*
X71457142Y-52235714D02*
X71571428Y-52292857D01*
X71800000Y-52292857D01*
X71914285Y-52235714D01*
X71971428Y-52121428D01*
X71971428Y-52064285D01*
X71914285Y-51950000D01*
X71800000Y-51892857D01*
X71628571Y-51892857D01*
X71514285Y-51835714D01*
X71457142Y-51721428D01*
X71457142Y-51664285D01*
X71514285Y-51550000D01*
X71628571Y-51492857D01*
X71800000Y-51492857D01*
X71914285Y-51550000D01*
X72371428Y-51092857D02*
X73114285Y-51092857D01*
X72714285Y-51550000D01*
X72885714Y-51550000D01*
X73000000Y-51607142D01*
X73057142Y-51664285D01*
X73114285Y-51778571D01*
X73114285Y-52064285D01*
X73057142Y-52178571D01*
X73000000Y-52235714D01*
X72885714Y-52292857D01*
X72542857Y-52292857D01*
X72428571Y-52235714D01*
X72371428Y-52178571D01*
X63459880Y-57783333D02*
X63602738Y-57816666D01*
X63840833Y-57816666D01*
X63936071Y-57783333D01*
X63983690Y-57750000D01*
X64031309Y-57683333D01*
X64031309Y-57616666D01*
X63983690Y-57550000D01*
X63936071Y-57516666D01*
X63840833Y-57483333D01*
X63650357Y-57450000D01*
X63555119Y-57416666D01*
X63507500Y-57383333D01*
X63459880Y-57316666D01*
X63459880Y-57250000D01*
X63507500Y-57183333D01*
X63555119Y-57150000D01*
X63650357Y-57116666D01*
X63888452Y-57116666D01*
X64031309Y-57150000D01*
X64459880Y-57350000D02*
X64459880Y-58050000D01*
X64459880Y-57383333D02*
X64555119Y-57350000D01*
X64745595Y-57350000D01*
X64840833Y-57383333D01*
X64888452Y-57416666D01*
X64936071Y-57483333D01*
X64936071Y-57683333D01*
X64888452Y-57750000D01*
X64840833Y-57783333D01*
X64745595Y-57816666D01*
X64555119Y-57816666D01*
X64459880Y-57783333D01*
X65745595Y-57783333D02*
X65650357Y-57816666D01*
X65459880Y-57816666D01*
X65364642Y-57783333D01*
X65317023Y-57716666D01*
X65317023Y-57450000D01*
X65364642Y-57383333D01*
X65459880Y-57350000D01*
X65650357Y-57350000D01*
X65745595Y-57383333D01*
X65793214Y-57450000D01*
X65793214Y-57516666D01*
X65317023Y-57583333D01*
X66602738Y-57783333D02*
X66507500Y-57816666D01*
X66317023Y-57816666D01*
X66221785Y-57783333D01*
X66174166Y-57716666D01*
X66174166Y-57450000D01*
X66221785Y-57383333D01*
X66317023Y-57350000D01*
X66507500Y-57350000D01*
X66602738Y-57383333D01*
X66650357Y-57450000D01*
X66650357Y-57516666D01*
X66174166Y-57583333D01*
X67507500Y-57816666D02*
X67507500Y-57116666D01*
X67507500Y-57783333D02*
X67412261Y-57816666D01*
X67221785Y-57816666D01*
X67126547Y-57783333D01*
X67078928Y-57750000D01*
X67031309Y-57683333D01*
X67031309Y-57483333D01*
X67078928Y-57416666D01*
X67126547Y-57383333D01*
X67221785Y-57350000D01*
X67412261Y-57350000D01*
X67507500Y-57383333D01*
X64388452Y-56371666D02*
X64864642Y-56371666D01*
X64293214Y-56657380D02*
X64626547Y-55657380D01*
X64959880Y-56657380D01*
X65864642Y-56562142D02*
X65817023Y-56609761D01*
X65674166Y-56657380D01*
X65578928Y-56657380D01*
X65436071Y-56609761D01*
X65340833Y-56514523D01*
X65293214Y-56419285D01*
X65245595Y-56228809D01*
X65245595Y-56085952D01*
X65293214Y-55895476D01*
X65340833Y-55800238D01*
X65436071Y-55705000D01*
X65578928Y-55657380D01*
X65674166Y-55657380D01*
X65817023Y-55705000D01*
X65864642Y-55752619D01*
X66150357Y-55657380D02*
X66721785Y-55657380D01*
X66436071Y-56657380D02*
X66436071Y-55657380D01*
X63531309Y-55257380D02*
X63531309Y-54257380D01*
X63912261Y-54257380D01*
X64007500Y-54305000D01*
X64055119Y-54352619D01*
X64102738Y-54447857D01*
X64102738Y-54590714D01*
X64055119Y-54685952D01*
X64007500Y-54733571D01*
X63912261Y-54781190D01*
X63531309Y-54781190D01*
X64674166Y-55257380D02*
X64578928Y-55209761D01*
X64531309Y-55162142D01*
X64483690Y-55066904D01*
X64483690Y-54781190D01*
X64531309Y-54685952D01*
X64578928Y-54638333D01*
X64674166Y-54590714D01*
X64817023Y-54590714D01*
X64912261Y-54638333D01*
X64959880Y-54685952D01*
X65007500Y-54781190D01*
X65007500Y-55066904D01*
X64959880Y-55162142D01*
X64912261Y-55209761D01*
X64817023Y-55257380D01*
X64674166Y-55257380D01*
X65340833Y-54590714D02*
X65531309Y-55257380D01*
X65721785Y-54781190D01*
X65912261Y-55257380D01*
X66102738Y-54590714D01*
X66864642Y-55209761D02*
X66769404Y-55257380D01*
X66578928Y-55257380D01*
X66483690Y-55209761D01*
X66436071Y-55114523D01*
X66436071Y-54733571D01*
X66483690Y-54638333D01*
X66578928Y-54590714D01*
X66769404Y-54590714D01*
X66864642Y-54638333D01*
X66912261Y-54733571D01*
X66912261Y-54828809D01*
X66436071Y-54924047D01*
X67340833Y-55257380D02*
X67340833Y-54590714D01*
X67340833Y-54781190D02*
X67388452Y-54685952D01*
X67436071Y-54638333D01*
X67531309Y-54590714D01*
X67626547Y-54590714D01*
X64721785Y-59452380D02*
X64245595Y-59452380D01*
X64245595Y-58452380D01*
X65055119Y-59452380D02*
X65055119Y-58785714D01*
X65055119Y-58452380D02*
X65007500Y-58500000D01*
X65055119Y-58547619D01*
X65102738Y-58500000D01*
X65055119Y-58452380D01*
X65055119Y-58547619D01*
X65531309Y-58785714D02*
X65531309Y-59452380D01*
X65531309Y-58880952D02*
X65578928Y-58833333D01*
X65674166Y-58785714D01*
X65817023Y-58785714D01*
X65912261Y-58833333D01*
X65959880Y-58928571D01*
X65959880Y-59452380D01*
X66436071Y-59452380D02*
X66436071Y-58452380D01*
X66531309Y-59071428D02*
X66817023Y-59452380D01*
X66817023Y-58785714D02*
X66436071Y-59166666D01*
D14*
X68815000Y-58265000D02*
X62200000Y-58265000D01*
D10*
X62200000Y-54065000D02*
X62200000Y-59635000D01*
X68815000Y-54065000D02*
X62200000Y-54065000D01*
D14*
X68815000Y-55435000D02*
X62200000Y-55435000D01*
X68815000Y-55465000D02*
X62200000Y-55465000D01*
X68815000Y-56835000D02*
X62200000Y-56835000D01*
X68815000Y-56865000D02*
X62200000Y-56865000D01*
X68815000Y-58235000D02*
X62200000Y-58235000D01*
D15*
X68815000Y-59635000D02*
X62200000Y-59635000D01*
D10*
X68050000Y-76900000D02*
X68050000Y-73900000D01*
X53450000Y-76900000D02*
X53450000Y-73500000D01*
X68050000Y-76900000D02*
X58150000Y-76900000D01*
X53450000Y-60900000D02*
X53450000Y-64300000D01*
X68050000Y-60900000D02*
X68050000Y-63900000D01*
X57950000Y-60900000D02*
X68050000Y-60900000D01*
X69750000Y-61800000D02*
X69050000Y-61800000D01*
X96015000Y-82700000D02*
X96015000Y-83340000D01*
X96015000Y-85500000D02*
X96015000Y-84860000D01*
X96015000Y-83340000D02*
X95385000Y-83340000D01*
X98735000Y-82750000D02*
X98735000Y-85450000D01*
D16*
X93239949Y-80484924D02*
X93734924Y-79989949D01*
X90941852Y-79530330D02*
X91719670Y-80308148D01*
X91260051Y-77515076D02*
X90765076Y-78010051D01*
X93558148Y-78469670D02*
X92780330Y-77691852D01*
D10*
X93793934Y-80593934D02*
X94006066Y-80806066D01*
X93156066Y-76993934D02*
X92943934Y-77206066D01*
X89800000Y-66950000D02*
G75*
G03X89800000Y-66950000I-200000J0D01*
G01*
D17*
X90100000Y-67450000D02*
X89100000Y-67450000D01*
X90100000Y-67450000D02*
X90100000Y-68450000D01*
X79100000Y-78450000D02*
X79100000Y-77450000D01*
X79100000Y-78450000D02*
X80100000Y-78450000D01*
X79100000Y-68450000D02*
X79100000Y-67950000D01*
X80100000Y-67450000D02*
X79600000Y-67450000D01*
X89100000Y-78450000D02*
X89600000Y-78450000D01*
X90100000Y-77450000D02*
X90100000Y-77950000D01*
D10*
X71500000Y-69050000D02*
X71500000Y-68750000D01*
X71500000Y-72850000D02*
X71500000Y-72550000D01*
X68815000Y-59635000D02*
X71300000Y-59635000D01*
X68815000Y-58265000D02*
X68815000Y-59635000D01*
X71300000Y-58265000D02*
X68815000Y-58265000D01*
X68815000Y-58235000D02*
X71300000Y-58235000D01*
X68815000Y-56865000D02*
X68815000Y-58235000D01*
X71300000Y-56865000D02*
X68815000Y-56865000D01*
X71000000Y-74200000D02*
X71000000Y-75200000D01*
X72000000Y-65200000D02*
X72000000Y-66200000D01*
X72000000Y-63600000D02*
X72000000Y-64600000D01*
X72000000Y-66800000D02*
X72000000Y-67800000D01*
X72000000Y-70300000D02*
X72000000Y-71300000D01*
X57850000Y-89250000D02*
G75*
G02X57450000Y-89650000I-400000J0D01*
G01*
X54250000Y-89650000D02*
G75*
G02X53850000Y-89250000I0J400000D01*
G01*
X53850000Y-81250000D02*
G75*
G02X54250000Y-80850000I400000J0D01*
G01*
X57450000Y-80850000D02*
G75*
G02X57850000Y-81250000I0J-400000D01*
G01*
X53850000Y-89250000D02*
X53850000Y-88450000D01*
X54250000Y-89650000D02*
X57450000Y-89650000D01*
X57850000Y-89250000D02*
X57850000Y-88450000D01*
X53850000Y-81250000D02*
X53850000Y-82050000D01*
X57850000Y-81250000D02*
X57850000Y-82050000D01*
X57450000Y-80850000D02*
X54250000Y-80850000D01*
D16*
X76150000Y-71750000D02*
X76850000Y-71750000D01*
X75200000Y-69450000D02*
X75200000Y-70550000D01*
X76850000Y-68250000D02*
X76150000Y-68250000D01*
X77800000Y-70550000D02*
X77800000Y-69450000D01*
D10*
X75100000Y-65725000D02*
X75100000Y-67075000D01*
X76700000Y-65725000D02*
X76700000Y-67075000D01*
X95633767Y-87325109D02*
G75*
G03X95633767Y-87325109I-304138J0D01*
G01*
X86700000Y-96797413D02*
X85851472Y-95948885D01*
X87548528Y-95948885D02*
X86700000Y-96797413D01*
X78002587Y-88100000D02*
X78851115Y-87251472D01*
X78851115Y-88948528D02*
X78002587Y-88100000D01*
X86700000Y-79402587D02*
X87548528Y-80251115D01*
X85851472Y-80251115D02*
X86700000Y-79402587D01*
X95397413Y-88100000D02*
X94548885Y-88948528D01*
X94548885Y-87251472D02*
X95397413Y-88100000D01*
X73560000Y-84200000D02*
X73560000Y-81750000D01*
X70340000Y-82400000D02*
X70340000Y-84200000D01*
X70108114Y-94000000D02*
G75*
G03X70108114Y-94000000I-158114J0D01*
G01*
X69610000Y-93710000D02*
X69610000Y-94260000D01*
X69060000Y-94260000D02*
X69610000Y-94260000D01*
X63390000Y-88040000D02*
X63390000Y-88590000D01*
X63940000Y-88040000D02*
X63390000Y-88040000D01*
X69610000Y-88040000D02*
X69610000Y-88590000D01*
X69060000Y-88040000D02*
X69610000Y-88040000D01*
X63390000Y-94260000D02*
X63390000Y-93710000D01*
X63940000Y-94260000D02*
X63390000Y-94260000D01*
X81250000Y-94850000D02*
X76850000Y-94850000D01*
X76850000Y-94850000D02*
X76850000Y-94970000D01*
X76850000Y-95980000D02*
X76850000Y-97120000D01*
X76850000Y-98130000D02*
X76850000Y-98250000D01*
X76850000Y-98250000D02*
X81250000Y-98250000D01*
X81250000Y-98250000D02*
X81250000Y-98130000D01*
X81250000Y-97120000D02*
X81250000Y-95980000D01*
X81250000Y-94970000D02*
X81250000Y-94850000D01*
X72900000Y-59100000D02*
X72900000Y-58800000D01*
X72900000Y-57700000D02*
X72900000Y-57400000D01*
X77750000Y-73500000D02*
X77450000Y-73500000D01*
X78250000Y-71000000D02*
X78550000Y-71000000D01*
X77022792Y-67150000D02*
X77322792Y-67150000D01*
X91100000Y-70250000D02*
X91100000Y-69950000D01*
X91100000Y-69350000D02*
X91100000Y-69050000D01*
X78350000Y-79000000D02*
X78650000Y-79000000D01*
X91100000Y-72050000D02*
X91100000Y-71750000D01*
X92800000Y-72050000D02*
X92800000Y-72350000D01*
X78000000Y-77250000D02*
X78000000Y-77550000D01*
X79606066Y-91506066D02*
X79393934Y-91293934D01*
X91393934Y-82393934D02*
X91606066Y-82606066D01*
X94343934Y-89993934D02*
X94556066Y-90206066D01*
X81243934Y-82956066D02*
X81456066Y-82743934D01*
X82500000Y-80450000D02*
X82500000Y-80150000D01*
X82043934Y-82256066D02*
X82256066Y-82043934D01*
X79593934Y-82506066D02*
X79806066Y-82293934D01*
X80093934Y-84306066D02*
X80306066Y-84093934D01*
X83200000Y-81350000D02*
X83200000Y-81050000D01*
X81050000Y-80600000D02*
X81350000Y-80600000D01*
X79550000Y-79550000D02*
X79250000Y-79550000D01*
X78350000Y-73500000D02*
X78650000Y-73500000D01*
X73850000Y-85350000D02*
X73850000Y-85650000D01*
X73900000Y-84050000D02*
X74200000Y-84050000D01*
X73900000Y-82350000D02*
X74200000Y-82350000D01*
X63000000Y-87880000D02*
X62700000Y-87880000D01*
X52700000Y-85850000D02*
X52700000Y-86150000D01*
X52700000Y-84350000D02*
X52700000Y-84650000D01*
X61800000Y-78900000D02*
X61800000Y-78600000D01*
X61800000Y-79750000D02*
X61800000Y-79450000D01*
X58300000Y-90750000D02*
X58300000Y-90450000D01*
X69950000Y-95850000D02*
X70250000Y-95850000D01*
X71700000Y-94650000D02*
X71700000Y-94350000D01*
X74750000Y-97800000D02*
X74750000Y-97500000D01*
X64250000Y-86300000D02*
X63950000Y-86300000D01*
X63000000Y-94600000D02*
X63300000Y-94600000D01*
X72900000Y-56000000D02*
X72900000Y-56300000D01*
X72900000Y-54600000D02*
X72900000Y-54900000D01*
X77050000Y-65400000D02*
X77350000Y-65400000D01*
X78050000Y-65400000D02*
X78350000Y-65400000D01*
X79050000Y-65400000D02*
X79350000Y-65400000D01*
X80050000Y-65400000D02*
X80350000Y-65400000D01*
X81050000Y-65400000D02*
X81350000Y-65400000D01*
X82050000Y-65400000D02*
X82350000Y-65400000D01*
X83050000Y-65400000D02*
X83350000Y-65400000D01*
X94550000Y-70850000D02*
X94250000Y-70850000D01*
X96000000Y-78600000D02*
X96000000Y-78900000D01*
X95950000Y-74400000D02*
X95950000Y-74700000D01*
X88643934Y-95743934D02*
X88856066Y-95956066D01*
X71390000Y-95120000D02*
X72850000Y-95120000D01*
X71390000Y-98280000D02*
X73550000Y-98280000D01*
X71390000Y-98280000D02*
X71390000Y-97350000D01*
X71390000Y-95120000D02*
X71390000Y-96050000D01*
X77470711Y-87792031D02*
X79592031Y-85670711D01*
X75207969Y-85529289D02*
X77329289Y-83407969D01*
X94200000Y-83550000D02*
X94200000Y-83850000D01*
X70600000Y-80300000D02*
X73600000Y-80300000D01*
X70600000Y-77100000D02*
X73600000Y-77100000D01*
X69350000Y-83350000D02*
X66350000Y-83350000D01*
X69350000Y-86550000D02*
X66350000Y-86550000D01*
X74300000Y-91650000D02*
X74300000Y-88650000D01*
X71100000Y-91650000D02*
X71100000Y-88650000D01*
X94900000Y-60400000D02*
X92300000Y-60400000D01*
X92300000Y-60400000D02*
X92300000Y-69800000D01*
X92300000Y-69800000D02*
X94900000Y-69800000D01*
X74175000Y-64035000D02*
X74065000Y-64035000D01*
X86935000Y-62875000D02*
X86935000Y-64035000D01*
X86935000Y-64035000D02*
X75675000Y-64035000D01*
X74065000Y-64035000D02*
X74065000Y-62225000D01*
X86935000Y-59625000D02*
X86935000Y-54025000D01*
X74065000Y-60325000D02*
X74065000Y-54025000D01*
X72050000Y-61350000D02*
X71050000Y-61350000D01*
X65110000Y-80730000D02*
X63650000Y-80730000D01*
X65110000Y-77570000D02*
X62950000Y-77570000D01*
X65110000Y-77570000D02*
X65110000Y-78500000D01*
X65110000Y-80730000D02*
X65110000Y-79800000D01*
X54165000Y-91285000D02*
X56650000Y-91285000D01*
X54165000Y-89915000D02*
X54165000Y-91285000D01*
X56650000Y-89915000D02*
X54165000Y-89915000D01*
X58850000Y-81000000D02*
X64550000Y-81000000D01*
X58850000Y-85300000D02*
X64550000Y-85300000D01*
X58850000Y-81000000D02*
X58850000Y-85300000D01*
X68815000Y-56835000D02*
X71300000Y-56835000D01*
X68815000Y-55465000D02*
X68815000Y-56835000D01*
X71300000Y-55465000D02*
X68815000Y-55465000D01*
X68815000Y-55435000D02*
X71300000Y-55435000D01*
X68815000Y-54065000D02*
X68815000Y-55435000D01*
X71300000Y-54065000D02*
X68815000Y-54065000D01*
X94690000Y-75070000D02*
X96150000Y-75070000D01*
X94690000Y-78230000D02*
X96850000Y-78230000D01*
X94690000Y-78230000D02*
X94690000Y-77300000D01*
X94690000Y-75070000D02*
X94690000Y-76000000D01*
X77200000Y-74650000D02*
X77200000Y-74950000D01*
X75500000Y-73150000D02*
X75500000Y-73450000D01*
X74477208Y-65551472D02*
X74777208Y-65551472D01*
X74777208Y-67248528D02*
X74477208Y-67248528D01*
X74400000Y-69250000D02*
X74700000Y-69250000D01*
X76100000Y-72200000D02*
X76100000Y-72500000D01*
X75200000Y-73950000D02*
X75200000Y-74650000D01*
X78350000Y-75200000D02*
X78650000Y-75200000D01*
X92800000Y-70300000D02*
X92800000Y-70600000D01*
X77200000Y-75500000D02*
X77200000Y-75800000D01*
X91100000Y-71150000D02*
X91100000Y-70850000D01*
X92800000Y-71150000D02*
X92800000Y-71450000D01*
X78000000Y-76350000D02*
X78000000Y-76650000D01*
X82700000Y-79550000D02*
X82700000Y-78850000D01*
X78793934Y-90306066D02*
X79006066Y-90093934D01*
X76706066Y-83406066D02*
X76493934Y-83193934D01*
X77750000Y-91600000D02*
X78450000Y-91600000D01*
X76347487Y-82647487D02*
X75852513Y-82152513D01*
X90106066Y-81106066D02*
X89893934Y-80893934D01*
X91247487Y-81747487D02*
X90752513Y-81252513D01*
X93650000Y-85000000D02*
X93950000Y-85000000D01*
X94850000Y-85600000D02*
X94550000Y-85600000D01*
X95700000Y-85600000D02*
X95400000Y-85600000D01*
X91400000Y-73550000D02*
X91400000Y-72850000D01*
X85100000Y-79550000D02*
X85100000Y-78850000D01*
X72600000Y-80600000D02*
X72600000Y-81300000D01*
X84200000Y-80350000D02*
X84200000Y-80050000D01*
X91100000Y-74350000D02*
X91100000Y-74050000D01*
X72750000Y-76400000D02*
X72750000Y-76700000D01*
X71800000Y-86000000D02*
X71800000Y-85300000D01*
X72000000Y-88300000D02*
X72000000Y-87600000D01*
X64450000Y-96150000D02*
X65150000Y-96150000D01*
X65600000Y-96150000D02*
X66300000Y-96150000D01*
X72000000Y-87150000D02*
X72000000Y-86450000D01*
X61250000Y-87700000D02*
X61250000Y-88400000D01*
X70400000Y-86200000D02*
X69700000Y-86200000D01*
X67500000Y-83050000D02*
X67500000Y-82350000D01*
X74650000Y-89800000D02*
X75350000Y-89800000D01*
X72000000Y-92700000D02*
X72000000Y-92000000D01*
X66750000Y-96150000D02*
X67450000Y-96150000D01*
X61050000Y-86650000D02*
X60750000Y-86650000D01*
X67200000Y-87200000D02*
X67200000Y-86900000D01*
X70450000Y-89850000D02*
X70750000Y-89850000D01*
X72000000Y-93850000D02*
X72000000Y-93150000D01*
X67900000Y-96150000D02*
X68600000Y-96150000D01*
X63300000Y-96600000D02*
X64000000Y-96600000D01*
X62500000Y-91400000D02*
X61800000Y-91400000D01*
X61300000Y-91200000D02*
X60300000Y-91200000D01*
X59900000Y-94050000D02*
X60900000Y-94050000D01*
X69100000Y-95850000D02*
X69400000Y-95850000D01*
X62500000Y-86800000D02*
X62500000Y-86100000D01*
X65100000Y-86300000D02*
X64800000Y-86300000D01*
X65950000Y-86300000D02*
X65650000Y-86300000D01*
X60850000Y-88850000D02*
X60850000Y-89550000D01*
X61450000Y-94050000D02*
X62450000Y-94050000D01*
X72550000Y-61150000D02*
X73250000Y-61150000D01*
D12*
X69078571Y-63628571D02*
X69054761Y-63652380D01*
X68983333Y-63676190D01*
X68935714Y-63676190D01*
X68864285Y-63652380D01*
X68816666Y-63604761D01*
X68792857Y-63557142D01*
X68769047Y-63461904D01*
X68769047Y-63390476D01*
X68792857Y-63295238D01*
X68816666Y-63247619D01*
X68864285Y-63200000D01*
X68935714Y-63176190D01*
X68983333Y-63176190D01*
X69054761Y-63200000D01*
X69078571Y-63223809D01*
X69245238Y-63176190D02*
X69578571Y-63176190D01*
X69364285Y-63676190D01*
X70030952Y-63676190D02*
X69745238Y-63676190D01*
X69888095Y-63676190D02*
X69888095Y-63176190D01*
X69840476Y-63247619D01*
X69792857Y-63295238D01*
X69745238Y-63319047D01*
X96316666Y-81733333D02*
X96554761Y-81733333D01*
X96269047Y-81876190D02*
X96435714Y-81376190D01*
X96602380Y-81876190D01*
X96769047Y-81614285D02*
X96935714Y-81614285D01*
X97007142Y-81876190D02*
X96769047Y-81876190D01*
X96769047Y-81376190D01*
X97007142Y-81376190D01*
X97483333Y-81876190D02*
X97197619Y-81876190D01*
X97340476Y-81876190D02*
X97340476Y-81376190D01*
X97292857Y-81447619D01*
X97245238Y-81495238D01*
X97197619Y-81519047D01*
X89861904Y-79738096D02*
X89861904Y-79976191D01*
X89695238Y-79476191D02*
X89861904Y-79738096D01*
X90028571Y-79476191D01*
X90147619Y-79476191D02*
X90457142Y-79476191D01*
X90290476Y-79666667D01*
X90361904Y-79666667D01*
X90409523Y-79690477D01*
X90433333Y-79714286D01*
X90457142Y-79761905D01*
X90457142Y-79880953D01*
X90433333Y-79928572D01*
X90409523Y-79952381D01*
X90361904Y-79976191D01*
X90219047Y-79976191D01*
X90171428Y-79952381D01*
X90147619Y-79928572D01*
X94478572Y-81528571D02*
X94454762Y-81552380D01*
X94383334Y-81576190D01*
X94335715Y-81576190D01*
X94264286Y-81552380D01*
X94216667Y-81504761D01*
X94192858Y-81457142D01*
X94169048Y-81361904D01*
X94169048Y-81290476D01*
X94192858Y-81195238D01*
X94216667Y-81147619D01*
X94264286Y-81100000D01*
X94335715Y-81076190D01*
X94383334Y-81076190D01*
X94454762Y-81100000D01*
X94478572Y-81123809D01*
X94645239Y-81076190D02*
X94978572Y-81076190D01*
X94764286Y-81576190D01*
X95264286Y-81076190D02*
X95311905Y-81076190D01*
X95359524Y-81100000D01*
X95383334Y-81123809D01*
X95407143Y-81171428D01*
X95430953Y-81266666D01*
X95430953Y-81385714D01*
X95407143Y-81480952D01*
X95383334Y-81528571D01*
X95359524Y-81552380D01*
X95311905Y-81576190D01*
X95264286Y-81576190D01*
X95216667Y-81552380D01*
X95192858Y-81528571D01*
X95169048Y-81480952D01*
X95145239Y-81385714D01*
X95145239Y-81266666D01*
X95169048Y-81171428D01*
X95192858Y-81123809D01*
X95216667Y-81100000D01*
X95264286Y-81076190D01*
X92828571Y-76128571D02*
X92804761Y-76152380D01*
X92733333Y-76176190D01*
X92685714Y-76176190D01*
X92614285Y-76152380D01*
X92566666Y-76104761D01*
X92542857Y-76057142D01*
X92519047Y-75961904D01*
X92519047Y-75890476D01*
X92542857Y-75795238D01*
X92566666Y-75747619D01*
X92614285Y-75700000D01*
X92685714Y-75676190D01*
X92733333Y-75676190D01*
X92804761Y-75700000D01*
X92828571Y-75723809D01*
X93257142Y-75676190D02*
X93161904Y-75676190D01*
X93114285Y-75700000D01*
X93090476Y-75723809D01*
X93042857Y-75795238D01*
X93019047Y-75890476D01*
X93019047Y-76080952D01*
X93042857Y-76128571D01*
X93066666Y-76152380D01*
X93114285Y-76176190D01*
X93209523Y-76176190D01*
X93257142Y-76152380D01*
X93280952Y-76128571D01*
X93304761Y-76080952D01*
X93304761Y-75961904D01*
X93280952Y-75914285D01*
X93257142Y-75890476D01*
X93209523Y-75866666D01*
X93114285Y-75866666D01*
X93066666Y-75890476D01*
X93042857Y-75914285D01*
X93019047Y-75961904D01*
X93542857Y-76176190D02*
X93638095Y-76176190D01*
X93685714Y-76152380D01*
X93709523Y-76128571D01*
X93757142Y-76057142D01*
X93780952Y-75961904D01*
X93780952Y-75771428D01*
X93757142Y-75723809D01*
X93733333Y-75700000D01*
X93685714Y-75676190D01*
X93590476Y-75676190D01*
X93542857Y-75700000D01*
X93519047Y-75723809D01*
X93495238Y-75771428D01*
X93495238Y-75890476D01*
X93519047Y-75938095D01*
X93542857Y-75961904D01*
X93590476Y-75985714D01*
X93685714Y-75985714D01*
X93733333Y-75961904D01*
X93757142Y-75938095D01*
X93780952Y-75890476D01*
X88519047Y-66676190D02*
X88519047Y-67080952D01*
X88542857Y-67128571D01*
X88566666Y-67152380D01*
X88614285Y-67176190D01*
X88709523Y-67176190D01*
X88757142Y-67152380D01*
X88780952Y-67128571D01*
X88804761Y-67080952D01*
X88804761Y-66676190D01*
X89304761Y-67176190D02*
X89019047Y-67176190D01*
X89161904Y-67176190D02*
X89161904Y-66676190D01*
X89114285Y-66747619D01*
X89066666Y-66795238D01*
X89019047Y-66819047D01*
X71178571Y-69926190D02*
X71011904Y-69688095D01*
X70892857Y-69926190D02*
X70892857Y-69426190D01*
X71083333Y-69426190D01*
X71130952Y-69450000D01*
X71154761Y-69473809D01*
X71178571Y-69521428D01*
X71178571Y-69592857D01*
X71154761Y-69640476D01*
X71130952Y-69664285D01*
X71083333Y-69688095D01*
X70892857Y-69688095D01*
X71369047Y-69473809D02*
X71392857Y-69450000D01*
X71440476Y-69426190D01*
X71559523Y-69426190D01*
X71607142Y-69450000D01*
X71630952Y-69473809D01*
X71654761Y-69521428D01*
X71654761Y-69569047D01*
X71630952Y-69640476D01*
X71345238Y-69926190D01*
X71654761Y-69926190D01*
X72083333Y-69426190D02*
X71988095Y-69426190D01*
X71940476Y-69450000D01*
X71916666Y-69473809D01*
X71869047Y-69545238D01*
X71845238Y-69640476D01*
X71845238Y-69830952D01*
X71869047Y-69878571D01*
X71892857Y-69902380D01*
X71940476Y-69926190D01*
X72035714Y-69926190D01*
X72083333Y-69902380D01*
X72107142Y-69878571D01*
X72130952Y-69830952D01*
X72130952Y-69711904D01*
X72107142Y-69664285D01*
X72083333Y-69640476D01*
X72035714Y-69616666D01*
X71940476Y-69616666D01*
X71892857Y-69640476D01*
X71869047Y-69664285D01*
X71845238Y-69711904D01*
X71178571Y-73726190D02*
X71011904Y-73488095D01*
X70892857Y-73726190D02*
X70892857Y-73226190D01*
X71083333Y-73226190D01*
X71130952Y-73250000D01*
X71154761Y-73273809D01*
X71178571Y-73321428D01*
X71178571Y-73392857D01*
X71154761Y-73440476D01*
X71130952Y-73464285D01*
X71083333Y-73488095D01*
X70892857Y-73488095D01*
X71369047Y-73273809D02*
X71392857Y-73250000D01*
X71440476Y-73226190D01*
X71559523Y-73226190D01*
X71607142Y-73250000D01*
X71630952Y-73273809D01*
X71654761Y-73321428D01*
X71654761Y-73369047D01*
X71630952Y-73440476D01*
X71345238Y-73726190D01*
X71654761Y-73726190D01*
X71964285Y-73226190D02*
X72011904Y-73226190D01*
X72059523Y-73250000D01*
X72083333Y-73273809D01*
X72107142Y-73321428D01*
X72130952Y-73416666D01*
X72130952Y-73535714D01*
X72107142Y-73630952D01*
X72083333Y-73678571D01*
X72059523Y-73702380D01*
X72011904Y-73726190D01*
X71964285Y-73726190D01*
X71916666Y-73702380D01*
X71892857Y-73678571D01*
X71869047Y-73630952D01*
X71845238Y-73535714D01*
X71845238Y-73416666D01*
X71869047Y-73321428D01*
X71892857Y-73273809D01*
X71916666Y-73250000D01*
X71964285Y-73226190D01*
X74230952Y-59226190D02*
X74230952Y-58726190D01*
X74350000Y-58726190D01*
X74421428Y-58750000D01*
X74469047Y-58797619D01*
X74492857Y-58845238D01*
X74516666Y-58940476D01*
X74516666Y-59011904D01*
X74492857Y-59107142D01*
X74469047Y-59154761D01*
X74421428Y-59202380D01*
X74350000Y-59226190D01*
X74230952Y-59226190D01*
X74802380Y-58940476D02*
X74754761Y-58916666D01*
X74730952Y-58892857D01*
X74707142Y-58845238D01*
X74707142Y-58821428D01*
X74730952Y-58773809D01*
X74754761Y-58750000D01*
X74802380Y-58726190D01*
X74897619Y-58726190D01*
X74945238Y-58750000D01*
X74969047Y-58773809D01*
X74992857Y-58821428D01*
X74992857Y-58845238D01*
X74969047Y-58892857D01*
X74945238Y-58916666D01*
X74897619Y-58940476D01*
X74802380Y-58940476D01*
X74754761Y-58964285D01*
X74730952Y-58988095D01*
X74707142Y-59035714D01*
X74707142Y-59130952D01*
X74730952Y-59178571D01*
X74754761Y-59202380D01*
X74802380Y-59226190D01*
X74897619Y-59226190D01*
X74945238Y-59202380D01*
X74969047Y-59178571D01*
X74992857Y-59130952D01*
X74992857Y-59035714D01*
X74969047Y-58988095D01*
X74945238Y-58964285D01*
X74897619Y-58940476D01*
X74230952Y-57826190D02*
X74230952Y-57326190D01*
X74350000Y-57326190D01*
X74421428Y-57350000D01*
X74469047Y-57397619D01*
X74492857Y-57445238D01*
X74516666Y-57540476D01*
X74516666Y-57611904D01*
X74492857Y-57707142D01*
X74469047Y-57754761D01*
X74421428Y-57802380D01*
X74350000Y-57826190D01*
X74230952Y-57826190D01*
X74683333Y-57326190D02*
X75016666Y-57326190D01*
X74802380Y-57826190D01*
X72878571Y-75178571D02*
X72854761Y-75202380D01*
X72783333Y-75226190D01*
X72735714Y-75226190D01*
X72664285Y-75202380D01*
X72616666Y-75154761D01*
X72592857Y-75107142D01*
X72569047Y-75011904D01*
X72569047Y-74940476D01*
X72592857Y-74845238D01*
X72616666Y-74797619D01*
X72664285Y-74750000D01*
X72735714Y-74726190D01*
X72783333Y-74726190D01*
X72854761Y-74750000D01*
X72878571Y-74773809D01*
X73307142Y-74726190D02*
X73211904Y-74726190D01*
X73164285Y-74750000D01*
X73140476Y-74773809D01*
X73092857Y-74845238D01*
X73069047Y-74940476D01*
X73069047Y-75130952D01*
X73092857Y-75178571D01*
X73116666Y-75202380D01*
X73164285Y-75226190D01*
X73259523Y-75226190D01*
X73307142Y-75202380D01*
X73330952Y-75178571D01*
X73354761Y-75130952D01*
X73354761Y-75011904D01*
X73330952Y-74964285D01*
X73307142Y-74940476D01*
X73259523Y-74916666D01*
X73164285Y-74916666D01*
X73116666Y-74940476D01*
X73092857Y-74964285D01*
X73069047Y-75011904D01*
X73640476Y-74940476D02*
X73592857Y-74916666D01*
X73569047Y-74892857D01*
X73545238Y-74845238D01*
X73545238Y-74821428D01*
X73569047Y-74773809D01*
X73592857Y-74750000D01*
X73640476Y-74726190D01*
X73735714Y-74726190D01*
X73783333Y-74750000D01*
X73807142Y-74773809D01*
X73830952Y-74821428D01*
X73830952Y-74845238D01*
X73807142Y-74892857D01*
X73783333Y-74916666D01*
X73735714Y-74940476D01*
X73640476Y-74940476D01*
X73592857Y-74964285D01*
X73569047Y-74988095D01*
X73545238Y-75035714D01*
X73545238Y-75130952D01*
X73569047Y-75178571D01*
X73592857Y-75202380D01*
X73640476Y-75226190D01*
X73735714Y-75226190D01*
X73783333Y-75202380D01*
X73807142Y-75178571D01*
X73830952Y-75130952D01*
X73830952Y-75035714D01*
X73807142Y-74988095D01*
X73783333Y-74964285D01*
X73735714Y-74940476D01*
X75978571Y-63728571D02*
X75954761Y-63752380D01*
X75883333Y-63776190D01*
X75835714Y-63776190D01*
X75764285Y-63752380D01*
X75716666Y-63704761D01*
X75692857Y-63657142D01*
X75669047Y-63561904D01*
X75669047Y-63490476D01*
X75692857Y-63395238D01*
X75716666Y-63347619D01*
X75764285Y-63300000D01*
X75835714Y-63276190D01*
X75883333Y-63276190D01*
X75954761Y-63300000D01*
X75978571Y-63323809D01*
X76407142Y-63276190D02*
X76311904Y-63276190D01*
X76264285Y-63300000D01*
X76240476Y-63323809D01*
X76192857Y-63395238D01*
X76169047Y-63490476D01*
X76169047Y-63680952D01*
X76192857Y-63728571D01*
X76216666Y-63752380D01*
X76264285Y-63776190D01*
X76359523Y-63776190D01*
X76407142Y-63752380D01*
X76430952Y-63728571D01*
X76454761Y-63680952D01*
X76454761Y-63561904D01*
X76430952Y-63514285D01*
X76407142Y-63490476D01*
X76359523Y-63466666D01*
X76264285Y-63466666D01*
X76216666Y-63490476D01*
X76192857Y-63514285D01*
X76169047Y-63561904D01*
X76621428Y-63276190D02*
X76954761Y-63276190D01*
X76740476Y-63776190D01*
X72878571Y-63178571D02*
X72854761Y-63202380D01*
X72783333Y-63226190D01*
X72735714Y-63226190D01*
X72664285Y-63202380D01*
X72616666Y-63154761D01*
X72592857Y-63107142D01*
X72569047Y-63011904D01*
X72569047Y-62940476D01*
X72592857Y-62845238D01*
X72616666Y-62797619D01*
X72664285Y-62750000D01*
X72735714Y-62726190D01*
X72783333Y-62726190D01*
X72854761Y-62750000D01*
X72878571Y-62773809D01*
X73307142Y-62726190D02*
X73211904Y-62726190D01*
X73164285Y-62750000D01*
X73140476Y-62773809D01*
X73092857Y-62845238D01*
X73069047Y-62940476D01*
X73069047Y-63130952D01*
X73092857Y-63178571D01*
X73116666Y-63202380D01*
X73164285Y-63226190D01*
X73259523Y-63226190D01*
X73307142Y-63202380D01*
X73330952Y-63178571D01*
X73354761Y-63130952D01*
X73354761Y-63011904D01*
X73330952Y-62964285D01*
X73307142Y-62940476D01*
X73259523Y-62916666D01*
X73164285Y-62916666D01*
X73116666Y-62940476D01*
X73092857Y-62964285D01*
X73069047Y-63011904D01*
X73783333Y-62726190D02*
X73688095Y-62726190D01*
X73640476Y-62750000D01*
X73616666Y-62773809D01*
X73569047Y-62845238D01*
X73545238Y-62940476D01*
X73545238Y-63130952D01*
X73569047Y-63178571D01*
X73592857Y-63202380D01*
X73640476Y-63226190D01*
X73735714Y-63226190D01*
X73783333Y-63202380D01*
X73807142Y-63178571D01*
X73830952Y-63130952D01*
X73830952Y-63011904D01*
X73807142Y-62964285D01*
X73783333Y-62940476D01*
X73735714Y-62916666D01*
X73640476Y-62916666D01*
X73592857Y-62940476D01*
X73569047Y-62964285D01*
X73545238Y-63011904D01*
X72778571Y-68628571D02*
X72754761Y-68652380D01*
X72683333Y-68676190D01*
X72635714Y-68676190D01*
X72564285Y-68652380D01*
X72516666Y-68604761D01*
X72492857Y-68557142D01*
X72469047Y-68461904D01*
X72469047Y-68390476D01*
X72492857Y-68295238D01*
X72516666Y-68247619D01*
X72564285Y-68200000D01*
X72635714Y-68176190D01*
X72683333Y-68176190D01*
X72754761Y-68200000D01*
X72778571Y-68223809D01*
X73207142Y-68176190D02*
X73111904Y-68176190D01*
X73064285Y-68200000D01*
X73040476Y-68223809D01*
X72992857Y-68295238D01*
X72969047Y-68390476D01*
X72969047Y-68580952D01*
X72992857Y-68628571D01*
X73016666Y-68652380D01*
X73064285Y-68676190D01*
X73159523Y-68676190D01*
X73207142Y-68652380D01*
X73230952Y-68628571D01*
X73254761Y-68580952D01*
X73254761Y-68461904D01*
X73230952Y-68414285D01*
X73207142Y-68390476D01*
X73159523Y-68366666D01*
X73064285Y-68366666D01*
X73016666Y-68390476D01*
X72992857Y-68414285D01*
X72969047Y-68461904D01*
X73707142Y-68176190D02*
X73469047Y-68176190D01*
X73445238Y-68414285D01*
X73469047Y-68390476D01*
X73516666Y-68366666D01*
X73635714Y-68366666D01*
X73683333Y-68390476D01*
X73707142Y-68414285D01*
X73730952Y-68461904D01*
X73730952Y-68580952D01*
X73707142Y-68628571D01*
X73683333Y-68652380D01*
X73635714Y-68676190D01*
X73516666Y-68676190D01*
X73469047Y-68652380D01*
X73445238Y-68628571D01*
X73878571Y-71378571D02*
X73854761Y-71402380D01*
X73783333Y-71426190D01*
X73735714Y-71426190D01*
X73664285Y-71402380D01*
X73616666Y-71354761D01*
X73592857Y-71307142D01*
X73569047Y-71211904D01*
X73569047Y-71140476D01*
X73592857Y-71045238D01*
X73616666Y-70997619D01*
X73664285Y-70950000D01*
X73735714Y-70926190D01*
X73783333Y-70926190D01*
X73854761Y-70950000D01*
X73878571Y-70973809D01*
X74354761Y-71426190D02*
X74069047Y-71426190D01*
X74211904Y-71426190D02*
X74211904Y-70926190D01*
X74164285Y-70997619D01*
X74116666Y-71045238D01*
X74069047Y-71069047D01*
X74545238Y-70973809D02*
X74569047Y-70950000D01*
X74616666Y-70926190D01*
X74735714Y-70926190D01*
X74783333Y-70950000D01*
X74807142Y-70973809D01*
X74830952Y-71021428D01*
X74830952Y-71069047D01*
X74807142Y-71140476D01*
X74521428Y-71426190D01*
X74830952Y-71426190D01*
X74261904Y-70488095D02*
X74261904Y-70726190D01*
X74095238Y-70226190D02*
X74261904Y-70488095D01*
X74428571Y-70226190D01*
X74571428Y-70273809D02*
X74595238Y-70250000D01*
X74642857Y-70226190D01*
X74761904Y-70226190D01*
X74809523Y-70250000D01*
X74833333Y-70273809D01*
X74857142Y-70321428D01*
X74857142Y-70369047D01*
X74833333Y-70440476D01*
X74547619Y-70726190D01*
X74857142Y-70726190D01*
X76961904Y-62788095D02*
X76961904Y-63026190D01*
X76795238Y-62526190D02*
X76961904Y-62788095D01*
X77128571Y-62526190D01*
X77557142Y-63026190D02*
X77271428Y-63026190D01*
X77414285Y-63026190D02*
X77414285Y-62526190D01*
X77366666Y-62597619D01*
X77319047Y-62645238D01*
X77271428Y-62669047D01*
X95619047Y-87776190D02*
X95619047Y-88180952D01*
X95642857Y-88228571D01*
X95666666Y-88252380D01*
X95714285Y-88276190D01*
X95809523Y-88276190D01*
X95857142Y-88252380D01*
X95880952Y-88228571D01*
X95904761Y-88180952D01*
X95904761Y-87776190D01*
X96357142Y-87942857D02*
X96357142Y-88276190D01*
X96238095Y-87752380D02*
X96119047Y-88109523D01*
X96428571Y-88109523D01*
X69369047Y-81976190D02*
X69369047Y-82380952D01*
X69392857Y-82428571D01*
X69416666Y-82452380D01*
X69464285Y-82476190D01*
X69559523Y-82476190D01*
X69607142Y-82452380D01*
X69630952Y-82428571D01*
X69654761Y-82380952D01*
X69654761Y-81976190D01*
X69845238Y-81976190D02*
X70154761Y-81976190D01*
X69988095Y-82166666D01*
X70059523Y-82166666D01*
X70107142Y-82190476D01*
X70130952Y-82214285D01*
X70154761Y-82261904D01*
X70154761Y-82380952D01*
X70130952Y-82428571D01*
X70107142Y-82452380D01*
X70059523Y-82476190D01*
X69916666Y-82476190D01*
X69869047Y-82452380D01*
X69845238Y-82428571D01*
X69819047Y-94326190D02*
X69819047Y-94730952D01*
X69842857Y-94778571D01*
X69866666Y-94802380D01*
X69914285Y-94826190D01*
X70009523Y-94826190D01*
X70057142Y-94802380D01*
X70080952Y-94778571D01*
X70104761Y-94730952D01*
X70104761Y-94326190D01*
X70319047Y-94373809D02*
X70342857Y-94350000D01*
X70390476Y-94326190D01*
X70509523Y-94326190D01*
X70557142Y-94350000D01*
X70580952Y-94373809D01*
X70604761Y-94421428D01*
X70604761Y-94469047D01*
X70580952Y-94540476D01*
X70295238Y-94826190D01*
X70604761Y-94826190D01*
X75628571Y-59226190D02*
X75461904Y-58988095D01*
X75342857Y-59226190D02*
X75342857Y-58726190D01*
X75533333Y-58726190D01*
X75580952Y-58750000D01*
X75604761Y-58773809D01*
X75628571Y-58821428D01*
X75628571Y-58892857D01*
X75604761Y-58940476D01*
X75580952Y-58964285D01*
X75533333Y-58988095D01*
X75342857Y-58988095D01*
X76080952Y-58726190D02*
X75842857Y-58726190D01*
X75819047Y-58964285D01*
X75842857Y-58940476D01*
X75890476Y-58916666D01*
X76009523Y-58916666D01*
X76057142Y-58940476D01*
X76080952Y-58964285D01*
X76104761Y-59011904D01*
X76104761Y-59130952D01*
X76080952Y-59178571D01*
X76057142Y-59202380D01*
X76009523Y-59226190D01*
X75890476Y-59226190D01*
X75842857Y-59202380D01*
X75819047Y-59178571D01*
X76271428Y-58726190D02*
X76604761Y-58726190D01*
X76390476Y-59226190D01*
X75628571Y-57826190D02*
X75461904Y-57588095D01*
X75342857Y-57826190D02*
X75342857Y-57326190D01*
X75533333Y-57326190D01*
X75580952Y-57350000D01*
X75604761Y-57373809D01*
X75628571Y-57421428D01*
X75628571Y-57492857D01*
X75604761Y-57540476D01*
X75580952Y-57564285D01*
X75533333Y-57588095D01*
X75342857Y-57588095D01*
X76080952Y-57326190D02*
X75842857Y-57326190D01*
X75819047Y-57564285D01*
X75842857Y-57540476D01*
X75890476Y-57516666D01*
X76009523Y-57516666D01*
X76057142Y-57540476D01*
X76080952Y-57564285D01*
X76104761Y-57611904D01*
X76104761Y-57730952D01*
X76080952Y-57778571D01*
X76057142Y-57802380D01*
X76009523Y-57826190D01*
X75890476Y-57826190D01*
X75842857Y-57802380D01*
X75819047Y-57778571D01*
X76533333Y-57326190D02*
X76438095Y-57326190D01*
X76390476Y-57350000D01*
X76366666Y-57373809D01*
X76319047Y-57445238D01*
X76295238Y-57540476D01*
X76295238Y-57730952D01*
X76319047Y-57778571D01*
X76342857Y-57802380D01*
X76390476Y-57826190D01*
X76485714Y-57826190D01*
X76533333Y-57802380D01*
X76557142Y-57778571D01*
X76580952Y-57730952D01*
X76580952Y-57611904D01*
X76557142Y-57564285D01*
X76533333Y-57540476D01*
X76485714Y-57516666D01*
X76390476Y-57516666D01*
X76342857Y-57540476D01*
X76319047Y-57564285D01*
X76295238Y-57611904D01*
X77378571Y-72526190D02*
X77211904Y-72288095D01*
X77092857Y-72526190D02*
X77092857Y-72026190D01*
X77283333Y-72026190D01*
X77330952Y-72050000D01*
X77354761Y-72073809D01*
X77378571Y-72121428D01*
X77378571Y-72192857D01*
X77354761Y-72240476D01*
X77330952Y-72264285D01*
X77283333Y-72288095D01*
X77092857Y-72288095D01*
X77830952Y-72026190D02*
X77592857Y-72026190D01*
X77569047Y-72264285D01*
X77592857Y-72240476D01*
X77640476Y-72216666D01*
X77759523Y-72216666D01*
X77807142Y-72240476D01*
X77830952Y-72264285D01*
X77854761Y-72311904D01*
X77854761Y-72430952D01*
X77830952Y-72478571D01*
X77807142Y-72502380D01*
X77759523Y-72526190D01*
X77640476Y-72526190D01*
X77592857Y-72502380D01*
X77569047Y-72478571D01*
X78307142Y-72026190D02*
X78069047Y-72026190D01*
X78045238Y-72264285D01*
X78069047Y-72240476D01*
X78116666Y-72216666D01*
X78235714Y-72216666D01*
X78283333Y-72240476D01*
X78307142Y-72264285D01*
X78330952Y-72311904D01*
X78330952Y-72430952D01*
X78307142Y-72478571D01*
X78283333Y-72502380D01*
X78235714Y-72526190D01*
X78116666Y-72526190D01*
X78069047Y-72502380D01*
X78045238Y-72478571D01*
X77978571Y-68026190D02*
X77811904Y-67788095D01*
X77692857Y-68026190D02*
X77692857Y-67526190D01*
X77883333Y-67526190D01*
X77930952Y-67550000D01*
X77954761Y-67573809D01*
X77978571Y-67621428D01*
X77978571Y-67692857D01*
X77954761Y-67740476D01*
X77930952Y-67764285D01*
X77883333Y-67788095D01*
X77692857Y-67788095D01*
X78430952Y-67526190D02*
X78192857Y-67526190D01*
X78169047Y-67764285D01*
X78192857Y-67740476D01*
X78240476Y-67716666D01*
X78359523Y-67716666D01*
X78407142Y-67740476D01*
X78430952Y-67764285D01*
X78454761Y-67811904D01*
X78454761Y-67930952D01*
X78430952Y-67978571D01*
X78407142Y-68002380D01*
X78359523Y-68026190D01*
X78240476Y-68026190D01*
X78192857Y-68002380D01*
X78169047Y-67978571D01*
X78883333Y-67692857D02*
X78883333Y-68026190D01*
X78764285Y-67502380D02*
X78645238Y-67859523D01*
X78954761Y-67859523D01*
X77978571Y-67426190D02*
X77811904Y-67188095D01*
X77692857Y-67426190D02*
X77692857Y-66926190D01*
X77883333Y-66926190D01*
X77930952Y-66950000D01*
X77954761Y-66973809D01*
X77978571Y-67021428D01*
X77978571Y-67092857D01*
X77954761Y-67140476D01*
X77930952Y-67164285D01*
X77883333Y-67188095D01*
X77692857Y-67188095D01*
X78430952Y-66926190D02*
X78192857Y-66926190D01*
X78169047Y-67164285D01*
X78192857Y-67140476D01*
X78240476Y-67116666D01*
X78359523Y-67116666D01*
X78407142Y-67140476D01*
X78430952Y-67164285D01*
X78454761Y-67211904D01*
X78454761Y-67330952D01*
X78430952Y-67378571D01*
X78407142Y-67402380D01*
X78359523Y-67426190D01*
X78240476Y-67426190D01*
X78192857Y-67402380D01*
X78169047Y-67378571D01*
X78621428Y-66926190D02*
X78930952Y-66926190D01*
X78764285Y-67116666D01*
X78835714Y-67116666D01*
X78883333Y-67140476D01*
X78907142Y-67164285D01*
X78930952Y-67211904D01*
X78930952Y-67330952D01*
X78907142Y-67378571D01*
X78883333Y-67402380D01*
X78835714Y-67426190D01*
X78692857Y-67426190D01*
X78645238Y-67402380D01*
X78621428Y-67378571D01*
X90778571Y-67426190D02*
X90611904Y-67188095D01*
X90492857Y-67426190D02*
X90492857Y-66926190D01*
X90683333Y-66926190D01*
X90730952Y-66950000D01*
X90754761Y-66973809D01*
X90778571Y-67021428D01*
X90778571Y-67092857D01*
X90754761Y-67140476D01*
X90730952Y-67164285D01*
X90683333Y-67188095D01*
X90492857Y-67188095D01*
X91230952Y-66926190D02*
X90992857Y-66926190D01*
X90969047Y-67164285D01*
X90992857Y-67140476D01*
X91040476Y-67116666D01*
X91159523Y-67116666D01*
X91207142Y-67140476D01*
X91230952Y-67164285D01*
X91254761Y-67211904D01*
X91254761Y-67330952D01*
X91230952Y-67378571D01*
X91207142Y-67402380D01*
X91159523Y-67426190D01*
X91040476Y-67426190D01*
X90992857Y-67402380D01*
X90969047Y-67378571D01*
X91445238Y-66973809D02*
X91469047Y-66950000D01*
X91516666Y-66926190D01*
X91635714Y-66926190D01*
X91683333Y-66950000D01*
X91707142Y-66973809D01*
X91730952Y-67021428D01*
X91730952Y-67069047D01*
X91707142Y-67140476D01*
X91421428Y-67426190D01*
X91730952Y-67426190D01*
X90778571Y-66776190D02*
X90611904Y-66538095D01*
X90492857Y-66776190D02*
X90492857Y-66276190D01*
X90683333Y-66276190D01*
X90730952Y-66300000D01*
X90754761Y-66323809D01*
X90778571Y-66371428D01*
X90778571Y-66442857D01*
X90754761Y-66490476D01*
X90730952Y-66514285D01*
X90683333Y-66538095D01*
X90492857Y-66538095D01*
X91230952Y-66276190D02*
X90992857Y-66276190D01*
X90969047Y-66514285D01*
X90992857Y-66490476D01*
X91040476Y-66466666D01*
X91159523Y-66466666D01*
X91207142Y-66490476D01*
X91230952Y-66514285D01*
X91254761Y-66561904D01*
X91254761Y-66680952D01*
X91230952Y-66728571D01*
X91207142Y-66752380D01*
X91159523Y-66776190D01*
X91040476Y-66776190D01*
X90992857Y-66752380D01*
X90969047Y-66728571D01*
X91730952Y-66776190D02*
X91445238Y-66776190D01*
X91588095Y-66776190D02*
X91588095Y-66276190D01*
X91540476Y-66347619D01*
X91492857Y-66395238D01*
X91445238Y-66419047D01*
X77028571Y-79226190D02*
X76861904Y-78988095D01*
X76742857Y-79226190D02*
X76742857Y-78726190D01*
X76933333Y-78726190D01*
X76980952Y-78750000D01*
X77004761Y-78773809D01*
X77028571Y-78821428D01*
X77028571Y-78892857D01*
X77004761Y-78940476D01*
X76980952Y-78964285D01*
X76933333Y-78988095D01*
X76742857Y-78988095D01*
X77480952Y-78726190D02*
X77242857Y-78726190D01*
X77219047Y-78964285D01*
X77242857Y-78940476D01*
X77290476Y-78916666D01*
X77409523Y-78916666D01*
X77457142Y-78940476D01*
X77480952Y-78964285D01*
X77504761Y-79011904D01*
X77504761Y-79130952D01*
X77480952Y-79178571D01*
X77457142Y-79202380D01*
X77409523Y-79226190D01*
X77290476Y-79226190D01*
X77242857Y-79202380D01*
X77219047Y-79178571D01*
X77814285Y-78726190D02*
X77861904Y-78726190D01*
X77909523Y-78750000D01*
X77933333Y-78773809D01*
X77957142Y-78821428D01*
X77980952Y-78916666D01*
X77980952Y-79035714D01*
X77957142Y-79130952D01*
X77933333Y-79178571D01*
X77909523Y-79202380D01*
X77861904Y-79226190D01*
X77814285Y-79226190D01*
X77766666Y-79202380D01*
X77742857Y-79178571D01*
X77719047Y-79130952D01*
X77695238Y-79035714D01*
X77695238Y-78916666D01*
X77719047Y-78821428D01*
X77742857Y-78773809D01*
X77766666Y-78750000D01*
X77814285Y-78726190D01*
X90778571Y-68726190D02*
X90611904Y-68488095D01*
X90492857Y-68726190D02*
X90492857Y-68226190D01*
X90683333Y-68226190D01*
X90730952Y-68250000D01*
X90754761Y-68273809D01*
X90778571Y-68321428D01*
X90778571Y-68392857D01*
X90754761Y-68440476D01*
X90730952Y-68464285D01*
X90683333Y-68488095D01*
X90492857Y-68488095D01*
X91207142Y-68392857D02*
X91207142Y-68726190D01*
X91088095Y-68202380D02*
X90969047Y-68559523D01*
X91278571Y-68559523D01*
X91492857Y-68726190D02*
X91588095Y-68726190D01*
X91635714Y-68702380D01*
X91659523Y-68678571D01*
X91707142Y-68607142D01*
X91730952Y-68511904D01*
X91730952Y-68321428D01*
X91707142Y-68273809D01*
X91683333Y-68250000D01*
X91635714Y-68226190D01*
X91540476Y-68226190D01*
X91492857Y-68250000D01*
X91469047Y-68273809D01*
X91445238Y-68321428D01*
X91445238Y-68440476D01*
X91469047Y-68488095D01*
X91492857Y-68511904D01*
X91540476Y-68535714D01*
X91635714Y-68535714D01*
X91683333Y-68511904D01*
X91707142Y-68488095D01*
X91730952Y-68440476D01*
X94028571Y-72426190D02*
X93861904Y-72188095D01*
X93742857Y-72426190D02*
X93742857Y-71926190D01*
X93933333Y-71926190D01*
X93980952Y-71950000D01*
X94004761Y-71973809D01*
X94028571Y-72021428D01*
X94028571Y-72092857D01*
X94004761Y-72140476D01*
X93980952Y-72164285D01*
X93933333Y-72188095D01*
X93742857Y-72188095D01*
X94457142Y-72092857D02*
X94457142Y-72426190D01*
X94338095Y-71902380D02*
X94219047Y-72259523D01*
X94528571Y-72259523D01*
X94790476Y-72140476D02*
X94742857Y-72116666D01*
X94719047Y-72092857D01*
X94695238Y-72045238D01*
X94695238Y-72021428D01*
X94719047Y-71973809D01*
X94742857Y-71950000D01*
X94790476Y-71926190D01*
X94885714Y-71926190D01*
X94933333Y-71950000D01*
X94957142Y-71973809D01*
X94980952Y-72021428D01*
X94980952Y-72045238D01*
X94957142Y-72092857D01*
X94933333Y-72116666D01*
X94885714Y-72140476D01*
X94790476Y-72140476D01*
X94742857Y-72164285D01*
X94719047Y-72188095D01*
X94695238Y-72235714D01*
X94695238Y-72330952D01*
X94719047Y-72378571D01*
X94742857Y-72402380D01*
X94790476Y-72426190D01*
X94885714Y-72426190D01*
X94933333Y-72402380D01*
X94957142Y-72378571D01*
X94980952Y-72330952D01*
X94980952Y-72235714D01*
X94957142Y-72188095D01*
X94933333Y-72164285D01*
X94885714Y-72140476D01*
X76128571Y-77626190D02*
X75961904Y-77388095D01*
X75842857Y-77626190D02*
X75842857Y-77126190D01*
X76033333Y-77126190D01*
X76080952Y-77150000D01*
X76104761Y-77173809D01*
X76128571Y-77221428D01*
X76128571Y-77292857D01*
X76104761Y-77340476D01*
X76080952Y-77364285D01*
X76033333Y-77388095D01*
X75842857Y-77388095D01*
X76557142Y-77292857D02*
X76557142Y-77626190D01*
X76438095Y-77102380D02*
X76319047Y-77459523D01*
X76628571Y-77459523D01*
X76771428Y-77126190D02*
X77104761Y-77126190D01*
X76890476Y-77626190D01*
X79978571Y-92426190D02*
X79811904Y-92188095D01*
X79692857Y-92426190D02*
X79692857Y-91926190D01*
X79883333Y-91926190D01*
X79930952Y-91950000D01*
X79954761Y-91973809D01*
X79978571Y-92021428D01*
X79978571Y-92092857D01*
X79954761Y-92140476D01*
X79930952Y-92164285D01*
X79883333Y-92188095D01*
X79692857Y-92188095D01*
X80407142Y-92092857D02*
X80407142Y-92426190D01*
X80288095Y-91902380D02*
X80169047Y-92259523D01*
X80478571Y-92259523D01*
X80883333Y-91926190D02*
X80788095Y-91926190D01*
X80740476Y-91950000D01*
X80716666Y-91973809D01*
X80669047Y-92045238D01*
X80645238Y-92140476D01*
X80645238Y-92330952D01*
X80669047Y-92378571D01*
X80692857Y-92402380D01*
X80740476Y-92426190D01*
X80835714Y-92426190D01*
X80883333Y-92402380D01*
X80907142Y-92378571D01*
X80930952Y-92330952D01*
X80930952Y-92211904D01*
X80907142Y-92164285D01*
X80883333Y-92140476D01*
X80835714Y-92116666D01*
X80740476Y-92116666D01*
X80692857Y-92140476D01*
X80669047Y-92164285D01*
X80645238Y-92211904D01*
X92078571Y-83326190D02*
X91911904Y-83088095D01*
X91792857Y-83326190D02*
X91792857Y-82826190D01*
X91983333Y-82826190D01*
X92030952Y-82850000D01*
X92054761Y-82873809D01*
X92078571Y-82921428D01*
X92078571Y-82992857D01*
X92054761Y-83040476D01*
X92030952Y-83064285D01*
X91983333Y-83088095D01*
X91792857Y-83088095D01*
X92507142Y-82992857D02*
X92507142Y-83326190D01*
X92388095Y-82802380D02*
X92269047Y-83159523D01*
X92578571Y-83159523D01*
X93007142Y-82826190D02*
X92769047Y-82826190D01*
X92745238Y-83064285D01*
X92769047Y-83040476D01*
X92816666Y-83016666D01*
X92935714Y-83016666D01*
X92983333Y-83040476D01*
X93007142Y-83064285D01*
X93030952Y-83111904D01*
X93030952Y-83230952D01*
X93007142Y-83278571D01*
X92983333Y-83302380D01*
X92935714Y-83326190D01*
X92816666Y-83326190D01*
X92769047Y-83302380D01*
X92745238Y-83278571D01*
X95078571Y-90976190D02*
X94911904Y-90738095D01*
X94792857Y-90976190D02*
X94792857Y-90476190D01*
X94983333Y-90476190D01*
X95030952Y-90500000D01*
X95054761Y-90523809D01*
X95078571Y-90571428D01*
X95078571Y-90642857D01*
X95054761Y-90690476D01*
X95030952Y-90714285D01*
X94983333Y-90738095D01*
X94792857Y-90738095D01*
X95507142Y-90642857D02*
X95507142Y-90976190D01*
X95388095Y-90452380D02*
X95269047Y-90809523D01*
X95578571Y-90809523D01*
X95983333Y-90642857D02*
X95983333Y-90976190D01*
X95864285Y-90452380D02*
X95745238Y-90809523D01*
X96054761Y-90809523D01*
X77778571Y-82176190D02*
X77611904Y-81938095D01*
X77492857Y-82176190D02*
X77492857Y-81676190D01*
X77683333Y-81676190D01*
X77730952Y-81700000D01*
X77754761Y-81723809D01*
X77778571Y-81771428D01*
X77778571Y-81842857D01*
X77754761Y-81890476D01*
X77730952Y-81914285D01*
X77683333Y-81938095D01*
X77492857Y-81938095D01*
X78207142Y-81842857D02*
X78207142Y-82176190D01*
X78088095Y-81652380D02*
X77969047Y-82009523D01*
X78278571Y-82009523D01*
X78421428Y-81676190D02*
X78730952Y-81676190D01*
X78564285Y-81866666D01*
X78635714Y-81866666D01*
X78683333Y-81890476D01*
X78707142Y-81914285D01*
X78730952Y-81961904D01*
X78730952Y-82080952D01*
X78707142Y-82128571D01*
X78683333Y-82152380D01*
X78635714Y-82176190D01*
X78492857Y-82176190D01*
X78445238Y-82152380D01*
X78421428Y-82128571D01*
X80478571Y-79626190D02*
X80311904Y-79388095D01*
X80192857Y-79626190D02*
X80192857Y-79126190D01*
X80383333Y-79126190D01*
X80430952Y-79150000D01*
X80454761Y-79173809D01*
X80478571Y-79221428D01*
X80478571Y-79292857D01*
X80454761Y-79340476D01*
X80430952Y-79364285D01*
X80383333Y-79388095D01*
X80192857Y-79388095D01*
X80907142Y-79292857D02*
X80907142Y-79626190D01*
X80788095Y-79102380D02*
X80669047Y-79459523D01*
X80978571Y-79459523D01*
X81145238Y-79173809D02*
X81169047Y-79150000D01*
X81216666Y-79126190D01*
X81335714Y-79126190D01*
X81383333Y-79150000D01*
X81407142Y-79173809D01*
X81430952Y-79221428D01*
X81430952Y-79269047D01*
X81407142Y-79340476D01*
X81121428Y-79626190D01*
X81430952Y-79626190D01*
X78278571Y-81526190D02*
X78111904Y-81288095D01*
X77992857Y-81526190D02*
X77992857Y-81026190D01*
X78183333Y-81026190D01*
X78230952Y-81050000D01*
X78254761Y-81073809D01*
X78278571Y-81121428D01*
X78278571Y-81192857D01*
X78254761Y-81240476D01*
X78230952Y-81264285D01*
X78183333Y-81288095D01*
X77992857Y-81288095D01*
X78707142Y-81192857D02*
X78707142Y-81526190D01*
X78588095Y-81002380D02*
X78469047Y-81359523D01*
X78778571Y-81359523D01*
X79230952Y-81526190D02*
X78945238Y-81526190D01*
X79088095Y-81526190D02*
X79088095Y-81026190D01*
X79040476Y-81097619D01*
X78992857Y-81145238D01*
X78945238Y-81169047D01*
X78028571Y-82876190D02*
X77861904Y-82638095D01*
X77742857Y-82876190D02*
X77742857Y-82376190D01*
X77933333Y-82376190D01*
X77980952Y-82400000D01*
X78004761Y-82423809D01*
X78028571Y-82471428D01*
X78028571Y-82542857D01*
X78004761Y-82590476D01*
X77980952Y-82614285D01*
X77933333Y-82638095D01*
X77742857Y-82638095D01*
X78457142Y-82542857D02*
X78457142Y-82876190D01*
X78338095Y-82352380D02*
X78219047Y-82709523D01*
X78528571Y-82709523D01*
X78814285Y-82376190D02*
X78861904Y-82376190D01*
X78909523Y-82400000D01*
X78933333Y-82423809D01*
X78957142Y-82471428D01*
X78980952Y-82566666D01*
X78980952Y-82685714D01*
X78957142Y-82780952D01*
X78933333Y-82828571D01*
X78909523Y-82852380D01*
X78861904Y-82876190D01*
X78814285Y-82876190D01*
X78766666Y-82852380D01*
X78742857Y-82828571D01*
X78719047Y-82780952D01*
X78695238Y-82685714D01*
X78695238Y-82566666D01*
X78719047Y-82471428D01*
X78742857Y-82423809D01*
X78766666Y-82400000D01*
X78814285Y-82376190D01*
X78678571Y-83526190D02*
X78511904Y-83288095D01*
X78392857Y-83526190D02*
X78392857Y-83026190D01*
X78583333Y-83026190D01*
X78630952Y-83050000D01*
X78654761Y-83073809D01*
X78678571Y-83121428D01*
X78678571Y-83192857D01*
X78654761Y-83240476D01*
X78630952Y-83264285D01*
X78583333Y-83288095D01*
X78392857Y-83288095D01*
X78845238Y-83026190D02*
X79154761Y-83026190D01*
X78988095Y-83216666D01*
X79059523Y-83216666D01*
X79107142Y-83240476D01*
X79130952Y-83264285D01*
X79154761Y-83311904D01*
X79154761Y-83430952D01*
X79130952Y-83478571D01*
X79107142Y-83502380D01*
X79059523Y-83526190D01*
X78916666Y-83526190D01*
X78869047Y-83502380D01*
X78845238Y-83478571D01*
X79392857Y-83526190D02*
X79488095Y-83526190D01*
X79535714Y-83502380D01*
X79559523Y-83478571D01*
X79607142Y-83407142D01*
X79630952Y-83311904D01*
X79630952Y-83121428D01*
X79607142Y-83073809D01*
X79583333Y-83050000D01*
X79535714Y-83026190D01*
X79440476Y-83026190D01*
X79392857Y-83050000D01*
X79369047Y-83073809D01*
X79345238Y-83121428D01*
X79345238Y-83240476D01*
X79369047Y-83288095D01*
X79392857Y-83311904D01*
X79440476Y-83335714D01*
X79535714Y-83335714D01*
X79583333Y-83311904D01*
X79607142Y-83288095D01*
X79630952Y-83240476D01*
X79778571Y-81576190D02*
X79611904Y-81338095D01*
X79492857Y-81576190D02*
X79492857Y-81076190D01*
X79683333Y-81076190D01*
X79730952Y-81100000D01*
X79754761Y-81123809D01*
X79778571Y-81171428D01*
X79778571Y-81242857D01*
X79754761Y-81290476D01*
X79730952Y-81314285D01*
X79683333Y-81338095D01*
X79492857Y-81338095D01*
X79945238Y-81076190D02*
X80254761Y-81076190D01*
X80088095Y-81266666D01*
X80159523Y-81266666D01*
X80207142Y-81290476D01*
X80230952Y-81314285D01*
X80254761Y-81361904D01*
X80254761Y-81480952D01*
X80230952Y-81528571D01*
X80207142Y-81552380D01*
X80159523Y-81576190D01*
X80016666Y-81576190D01*
X79969047Y-81552380D01*
X79945238Y-81528571D01*
X80683333Y-81242857D02*
X80683333Y-81576190D01*
X80564285Y-81052380D02*
X80445238Y-81409523D01*
X80754761Y-81409523D01*
X79778571Y-80976190D02*
X79611904Y-80738095D01*
X79492857Y-80976190D02*
X79492857Y-80476190D01*
X79683333Y-80476190D01*
X79730952Y-80500000D01*
X79754761Y-80523809D01*
X79778571Y-80571428D01*
X79778571Y-80642857D01*
X79754761Y-80690476D01*
X79730952Y-80714285D01*
X79683333Y-80738095D01*
X79492857Y-80738095D01*
X79945238Y-80476190D02*
X80254761Y-80476190D01*
X80088095Y-80666666D01*
X80159523Y-80666666D01*
X80207142Y-80690476D01*
X80230952Y-80714285D01*
X80254761Y-80761904D01*
X80254761Y-80880952D01*
X80230952Y-80928571D01*
X80207142Y-80952380D01*
X80159523Y-80976190D01*
X80016666Y-80976190D01*
X79969047Y-80952380D01*
X79945238Y-80928571D01*
X80421428Y-80476190D02*
X80730952Y-80476190D01*
X80564285Y-80666666D01*
X80635714Y-80666666D01*
X80683333Y-80690476D01*
X80707142Y-80714285D01*
X80730952Y-80761904D01*
X80730952Y-80880952D01*
X80707142Y-80928571D01*
X80683333Y-80952380D01*
X80635714Y-80976190D01*
X80492857Y-80976190D01*
X80445238Y-80952380D01*
X80421428Y-80928571D01*
X77928571Y-80476190D02*
X77761904Y-80238095D01*
X77642857Y-80476190D02*
X77642857Y-79976190D01*
X77833333Y-79976190D01*
X77880952Y-80000000D01*
X77904761Y-80023809D01*
X77928571Y-80071428D01*
X77928571Y-80142857D01*
X77904761Y-80190476D01*
X77880952Y-80214285D01*
X77833333Y-80238095D01*
X77642857Y-80238095D01*
X78095238Y-79976190D02*
X78404761Y-79976190D01*
X78238095Y-80166666D01*
X78309523Y-80166666D01*
X78357142Y-80190476D01*
X78380952Y-80214285D01*
X78404761Y-80261904D01*
X78404761Y-80380952D01*
X78380952Y-80428571D01*
X78357142Y-80452380D01*
X78309523Y-80476190D01*
X78166666Y-80476190D01*
X78119047Y-80452380D01*
X78095238Y-80428571D01*
X78595238Y-80023809D02*
X78619047Y-80000000D01*
X78666666Y-79976190D01*
X78785714Y-79976190D01*
X78833333Y-80000000D01*
X78857142Y-80023809D01*
X78880952Y-80071428D01*
X78880952Y-80119047D01*
X78857142Y-80190476D01*
X78571428Y-80476190D01*
X78880952Y-80476190D01*
X75278571Y-75476190D02*
X75111904Y-75238095D01*
X74992857Y-75476190D02*
X74992857Y-74976190D01*
X75183333Y-74976190D01*
X75230952Y-75000000D01*
X75254761Y-75023809D01*
X75278571Y-75071428D01*
X75278571Y-75142857D01*
X75254761Y-75190476D01*
X75230952Y-75214285D01*
X75183333Y-75238095D01*
X74992857Y-75238095D01*
X75445238Y-74976190D02*
X75754761Y-74976190D01*
X75588095Y-75166666D01*
X75659523Y-75166666D01*
X75707142Y-75190476D01*
X75730952Y-75214285D01*
X75754761Y-75261904D01*
X75754761Y-75380952D01*
X75730952Y-75428571D01*
X75707142Y-75452380D01*
X75659523Y-75476190D01*
X75516666Y-75476190D01*
X75469047Y-75452380D01*
X75445238Y-75428571D01*
X76230952Y-75476190D02*
X75945238Y-75476190D01*
X76088095Y-75476190D02*
X76088095Y-74976190D01*
X76040476Y-75047619D01*
X75992857Y-75095238D01*
X75945238Y-75119047D01*
X73528571Y-86476190D02*
X73361904Y-86238095D01*
X73242857Y-86476190D02*
X73242857Y-85976190D01*
X73433333Y-85976190D01*
X73480952Y-86000000D01*
X73504761Y-86023809D01*
X73528571Y-86071428D01*
X73528571Y-86142857D01*
X73504761Y-86190476D01*
X73480952Y-86214285D01*
X73433333Y-86238095D01*
X73242857Y-86238095D01*
X73695238Y-85976190D02*
X74004761Y-85976190D01*
X73838095Y-86166666D01*
X73909523Y-86166666D01*
X73957142Y-86190476D01*
X73980952Y-86214285D01*
X74004761Y-86261904D01*
X74004761Y-86380952D01*
X73980952Y-86428571D01*
X73957142Y-86452380D01*
X73909523Y-86476190D01*
X73766666Y-86476190D01*
X73719047Y-86452380D01*
X73695238Y-86428571D01*
X74314285Y-85976190D02*
X74361904Y-85976190D01*
X74409523Y-86000000D01*
X74433333Y-86023809D01*
X74457142Y-86071428D01*
X74480952Y-86166666D01*
X74480952Y-86285714D01*
X74457142Y-86380952D01*
X74433333Y-86428571D01*
X74409523Y-86452380D01*
X74361904Y-86476190D01*
X74314285Y-86476190D01*
X74266666Y-86452380D01*
X74242857Y-86428571D01*
X74219047Y-86380952D01*
X74195238Y-86285714D01*
X74195238Y-86166666D01*
X74219047Y-86071428D01*
X74242857Y-86023809D01*
X74266666Y-86000000D01*
X74314285Y-85976190D01*
X74178571Y-81426190D02*
X74011904Y-81188095D01*
X73892857Y-81426190D02*
X73892857Y-80926190D01*
X74083333Y-80926190D01*
X74130952Y-80950000D01*
X74154761Y-80973809D01*
X74178571Y-81021428D01*
X74178571Y-81092857D01*
X74154761Y-81140476D01*
X74130952Y-81164285D01*
X74083333Y-81188095D01*
X73892857Y-81188095D01*
X74369047Y-80973809D02*
X74392857Y-80950000D01*
X74440476Y-80926190D01*
X74559523Y-80926190D01*
X74607142Y-80950000D01*
X74630952Y-80973809D01*
X74654761Y-81021428D01*
X74654761Y-81069047D01*
X74630952Y-81140476D01*
X74345238Y-81426190D01*
X74654761Y-81426190D01*
X74892857Y-81426190D02*
X74988095Y-81426190D01*
X75035714Y-81402380D01*
X75059523Y-81378571D01*
X75107142Y-81307142D01*
X75130952Y-81211904D01*
X75130952Y-81021428D01*
X75107142Y-80973809D01*
X75083333Y-80950000D01*
X75035714Y-80926190D01*
X74940476Y-80926190D01*
X74892857Y-80950000D01*
X74869047Y-80973809D01*
X74845238Y-81021428D01*
X74845238Y-81140476D01*
X74869047Y-81188095D01*
X74892857Y-81211904D01*
X74940476Y-81235714D01*
X75035714Y-81235714D01*
X75083333Y-81211904D01*
X75107142Y-81188095D01*
X75130952Y-81140476D01*
X74178571Y-80776190D02*
X74011904Y-80538095D01*
X73892857Y-80776190D02*
X73892857Y-80276190D01*
X74083333Y-80276190D01*
X74130952Y-80300000D01*
X74154761Y-80323809D01*
X74178571Y-80371428D01*
X74178571Y-80442857D01*
X74154761Y-80490476D01*
X74130952Y-80514285D01*
X74083333Y-80538095D01*
X73892857Y-80538095D01*
X74369047Y-80323809D02*
X74392857Y-80300000D01*
X74440476Y-80276190D01*
X74559523Y-80276190D01*
X74607142Y-80300000D01*
X74630952Y-80323809D01*
X74654761Y-80371428D01*
X74654761Y-80419047D01*
X74630952Y-80490476D01*
X74345238Y-80776190D01*
X74654761Y-80776190D01*
X74940476Y-80490476D02*
X74892857Y-80466666D01*
X74869047Y-80442857D01*
X74845238Y-80395238D01*
X74845238Y-80371428D01*
X74869047Y-80323809D01*
X74892857Y-80300000D01*
X74940476Y-80276190D01*
X75035714Y-80276190D01*
X75083333Y-80300000D01*
X75107142Y-80323809D01*
X75130952Y-80371428D01*
X75130952Y-80395238D01*
X75107142Y-80442857D01*
X75083333Y-80466666D01*
X75035714Y-80490476D01*
X74940476Y-80490476D01*
X74892857Y-80514285D01*
X74869047Y-80538095D01*
X74845238Y-80585714D01*
X74845238Y-80680952D01*
X74869047Y-80728571D01*
X74892857Y-80752380D01*
X74940476Y-80776190D01*
X75035714Y-80776190D01*
X75083333Y-80752380D01*
X75107142Y-80728571D01*
X75130952Y-80680952D01*
X75130952Y-80585714D01*
X75107142Y-80538095D01*
X75083333Y-80514285D01*
X75035714Y-80490476D01*
X61978571Y-85126190D02*
X61811904Y-84888095D01*
X61692857Y-85126190D02*
X61692857Y-84626190D01*
X61883333Y-84626190D01*
X61930952Y-84650000D01*
X61954761Y-84673809D01*
X61978571Y-84721428D01*
X61978571Y-84792857D01*
X61954761Y-84840476D01*
X61930952Y-84864285D01*
X61883333Y-84888095D01*
X61692857Y-84888095D01*
X62169047Y-84673809D02*
X62192857Y-84650000D01*
X62240476Y-84626190D01*
X62359523Y-84626190D01*
X62407142Y-84650000D01*
X62430952Y-84673809D01*
X62454761Y-84721428D01*
X62454761Y-84769047D01*
X62430952Y-84840476D01*
X62145238Y-85126190D01*
X62454761Y-85126190D01*
X62907142Y-84626190D02*
X62669047Y-84626190D01*
X62645238Y-84864285D01*
X62669047Y-84840476D01*
X62716666Y-84816666D01*
X62835714Y-84816666D01*
X62883333Y-84840476D01*
X62907142Y-84864285D01*
X62930952Y-84911904D01*
X62930952Y-85030952D01*
X62907142Y-85078571D01*
X62883333Y-85102380D01*
X62835714Y-85126190D01*
X62716666Y-85126190D01*
X62669047Y-85102380D01*
X62645238Y-85078571D01*
X52378571Y-86976190D02*
X52211904Y-86738095D01*
X52092857Y-86976190D02*
X52092857Y-86476190D01*
X52283333Y-86476190D01*
X52330952Y-86500000D01*
X52354761Y-86523809D01*
X52378571Y-86571428D01*
X52378571Y-86642857D01*
X52354761Y-86690476D01*
X52330952Y-86714285D01*
X52283333Y-86738095D01*
X52092857Y-86738095D01*
X52569047Y-86523809D02*
X52592857Y-86500000D01*
X52640476Y-86476190D01*
X52759523Y-86476190D01*
X52807142Y-86500000D01*
X52830952Y-86523809D01*
X52854761Y-86571428D01*
X52854761Y-86619047D01*
X52830952Y-86690476D01*
X52545238Y-86976190D01*
X52854761Y-86976190D01*
X53283333Y-86642857D02*
X53283333Y-86976190D01*
X53164285Y-86452380D02*
X53045238Y-86809523D01*
X53354761Y-86809523D01*
X52378571Y-85476190D02*
X52211904Y-85238095D01*
X52092857Y-85476190D02*
X52092857Y-84976190D01*
X52283333Y-84976190D01*
X52330952Y-85000000D01*
X52354761Y-85023809D01*
X52378571Y-85071428D01*
X52378571Y-85142857D01*
X52354761Y-85190476D01*
X52330952Y-85214285D01*
X52283333Y-85238095D01*
X52092857Y-85238095D01*
X52569047Y-85023809D02*
X52592857Y-85000000D01*
X52640476Y-84976190D01*
X52759523Y-84976190D01*
X52807142Y-85000000D01*
X52830952Y-85023809D01*
X52854761Y-85071428D01*
X52854761Y-85119047D01*
X52830952Y-85190476D01*
X52545238Y-85476190D01*
X52854761Y-85476190D01*
X53021428Y-84976190D02*
X53330952Y-84976190D01*
X53164285Y-85166666D01*
X53235714Y-85166666D01*
X53283333Y-85190476D01*
X53307142Y-85214285D01*
X53330952Y-85261904D01*
X53330952Y-85380952D01*
X53307142Y-85428571D01*
X53283333Y-85452380D01*
X53235714Y-85476190D01*
X53092857Y-85476190D01*
X53045238Y-85452380D01*
X53021428Y-85428571D01*
X61478571Y-78226190D02*
X61311904Y-77988095D01*
X61192857Y-78226190D02*
X61192857Y-77726190D01*
X61383333Y-77726190D01*
X61430952Y-77750000D01*
X61454761Y-77773809D01*
X61478571Y-77821428D01*
X61478571Y-77892857D01*
X61454761Y-77940476D01*
X61430952Y-77964285D01*
X61383333Y-77988095D01*
X61192857Y-77988095D01*
X61669047Y-77773809D02*
X61692857Y-77750000D01*
X61740476Y-77726190D01*
X61859523Y-77726190D01*
X61907142Y-77750000D01*
X61930952Y-77773809D01*
X61954761Y-77821428D01*
X61954761Y-77869047D01*
X61930952Y-77940476D01*
X61645238Y-78226190D01*
X61954761Y-78226190D01*
X62145238Y-77773809D02*
X62169047Y-77750000D01*
X62216666Y-77726190D01*
X62335714Y-77726190D01*
X62383333Y-77750000D01*
X62407142Y-77773809D01*
X62430952Y-77821428D01*
X62430952Y-77869047D01*
X62407142Y-77940476D01*
X62121428Y-78226190D01*
X62430952Y-78226190D01*
X61478571Y-79076190D02*
X61311904Y-78838095D01*
X61192857Y-79076190D02*
X61192857Y-78576190D01*
X61383333Y-78576190D01*
X61430952Y-78600000D01*
X61454761Y-78623809D01*
X61478571Y-78671428D01*
X61478571Y-78742857D01*
X61454761Y-78790476D01*
X61430952Y-78814285D01*
X61383333Y-78838095D01*
X61192857Y-78838095D01*
X61669047Y-78623809D02*
X61692857Y-78600000D01*
X61740476Y-78576190D01*
X61859523Y-78576190D01*
X61907142Y-78600000D01*
X61930952Y-78623809D01*
X61954761Y-78671428D01*
X61954761Y-78719047D01*
X61930952Y-78790476D01*
X61645238Y-79076190D01*
X61954761Y-79076190D01*
X62430952Y-79076190D02*
X62145238Y-79076190D01*
X62288095Y-79076190D02*
X62288095Y-78576190D01*
X62240476Y-78647619D01*
X62192857Y-78695238D01*
X62145238Y-78719047D01*
X57978571Y-91626190D02*
X57811904Y-91388095D01*
X57692857Y-91626190D02*
X57692857Y-91126190D01*
X57883333Y-91126190D01*
X57930952Y-91150000D01*
X57954761Y-91173809D01*
X57978571Y-91221428D01*
X57978571Y-91292857D01*
X57954761Y-91340476D01*
X57930952Y-91364285D01*
X57883333Y-91388095D01*
X57692857Y-91388095D01*
X58454761Y-91626190D02*
X58169047Y-91626190D01*
X58311904Y-91626190D02*
X58311904Y-91126190D01*
X58264285Y-91197619D01*
X58216666Y-91245238D01*
X58169047Y-91269047D01*
X58692857Y-91626190D02*
X58788095Y-91626190D01*
X58835714Y-91602380D01*
X58859523Y-91578571D01*
X58907142Y-91507142D01*
X58930952Y-91411904D01*
X58930952Y-91221428D01*
X58907142Y-91173809D01*
X58883333Y-91150000D01*
X58835714Y-91126190D01*
X58740476Y-91126190D01*
X58692857Y-91150000D01*
X58669047Y-91173809D01*
X58645238Y-91221428D01*
X58645238Y-91340476D01*
X58669047Y-91388095D01*
X58692857Y-91411904D01*
X58740476Y-91435714D01*
X58835714Y-91435714D01*
X58883333Y-91411904D01*
X58907142Y-91388095D01*
X58930952Y-91340476D01*
X69778571Y-97976190D02*
X69611904Y-97738095D01*
X69492857Y-97976190D02*
X69492857Y-97476190D01*
X69683333Y-97476190D01*
X69730952Y-97500000D01*
X69754761Y-97523809D01*
X69778571Y-97571428D01*
X69778571Y-97642857D01*
X69754761Y-97690476D01*
X69730952Y-97714285D01*
X69683333Y-97738095D01*
X69492857Y-97738095D01*
X70254761Y-97976190D02*
X69969047Y-97976190D01*
X70111904Y-97976190D02*
X70111904Y-97476190D01*
X70064285Y-97547619D01*
X70016666Y-97595238D01*
X69969047Y-97619047D01*
X70540476Y-97690476D02*
X70492857Y-97666666D01*
X70469047Y-97642857D01*
X70445238Y-97595238D01*
X70445238Y-97571428D01*
X70469047Y-97523809D01*
X70492857Y-97500000D01*
X70540476Y-97476190D01*
X70635714Y-97476190D01*
X70683333Y-97500000D01*
X70707142Y-97523809D01*
X70730952Y-97571428D01*
X70730952Y-97595238D01*
X70707142Y-97642857D01*
X70683333Y-97666666D01*
X70635714Y-97690476D01*
X70540476Y-97690476D01*
X70492857Y-97714285D01*
X70469047Y-97738095D01*
X70445238Y-97785714D01*
X70445238Y-97880952D01*
X70469047Y-97928571D01*
X70492857Y-97952380D01*
X70540476Y-97976190D01*
X70635714Y-97976190D01*
X70683333Y-97952380D01*
X70707142Y-97928571D01*
X70730952Y-97880952D01*
X70730952Y-97785714D01*
X70707142Y-97738095D01*
X70683333Y-97714285D01*
X70635714Y-97690476D01*
X72978571Y-94726190D02*
X72811904Y-94488095D01*
X72692857Y-94726190D02*
X72692857Y-94226190D01*
X72883333Y-94226190D01*
X72930952Y-94250000D01*
X72954761Y-94273809D01*
X72978571Y-94321428D01*
X72978571Y-94392857D01*
X72954761Y-94440476D01*
X72930952Y-94464285D01*
X72883333Y-94488095D01*
X72692857Y-94488095D01*
X73454761Y-94726190D02*
X73169047Y-94726190D01*
X73311904Y-94726190D02*
X73311904Y-94226190D01*
X73264285Y-94297619D01*
X73216666Y-94345238D01*
X73169047Y-94369047D01*
X73621428Y-94226190D02*
X73954761Y-94226190D01*
X73740476Y-94726190D01*
X74428571Y-97126190D02*
X74261904Y-96888095D01*
X74142857Y-97126190D02*
X74142857Y-96626190D01*
X74333333Y-96626190D01*
X74380952Y-96650000D01*
X74404761Y-96673809D01*
X74428571Y-96721428D01*
X74428571Y-96792857D01*
X74404761Y-96840476D01*
X74380952Y-96864285D01*
X74333333Y-96888095D01*
X74142857Y-96888095D01*
X74904761Y-97126190D02*
X74619047Y-97126190D01*
X74761904Y-97126190D02*
X74761904Y-96626190D01*
X74714285Y-96697619D01*
X74666666Y-96745238D01*
X74619047Y-96769047D01*
X75333333Y-96626190D02*
X75238095Y-96626190D01*
X75190476Y-96650000D01*
X75166666Y-96673809D01*
X75119047Y-96745238D01*
X75095238Y-96840476D01*
X75095238Y-97030952D01*
X75119047Y-97078571D01*
X75142857Y-97102380D01*
X75190476Y-97126190D01*
X75285714Y-97126190D01*
X75333333Y-97102380D01*
X75357142Y-97078571D01*
X75380952Y-97030952D01*
X75380952Y-96911904D01*
X75357142Y-96864285D01*
X75333333Y-96840476D01*
X75285714Y-96816666D01*
X75190476Y-96816666D01*
X75142857Y-96840476D01*
X75119047Y-96864285D01*
X75095238Y-96911904D01*
X63378571Y-85126190D02*
X63211904Y-84888095D01*
X63092857Y-85126190D02*
X63092857Y-84626190D01*
X63283333Y-84626190D01*
X63330952Y-84650000D01*
X63354761Y-84673809D01*
X63378571Y-84721428D01*
X63378571Y-84792857D01*
X63354761Y-84840476D01*
X63330952Y-84864285D01*
X63283333Y-84888095D01*
X63092857Y-84888095D01*
X63854761Y-85126190D02*
X63569047Y-85126190D01*
X63711904Y-85126190D02*
X63711904Y-84626190D01*
X63664285Y-84697619D01*
X63616666Y-84745238D01*
X63569047Y-84769047D01*
X64307142Y-84626190D02*
X64069047Y-84626190D01*
X64045238Y-84864285D01*
X64069047Y-84840476D01*
X64116666Y-84816666D01*
X64235714Y-84816666D01*
X64283333Y-84840476D01*
X64307142Y-84864285D01*
X64330952Y-84911904D01*
X64330952Y-85030952D01*
X64307142Y-85078571D01*
X64283333Y-85102380D01*
X64235714Y-85126190D01*
X64116666Y-85126190D01*
X64069047Y-85102380D01*
X64045238Y-85078571D01*
X62078571Y-96726190D02*
X61911904Y-96488095D01*
X61792857Y-96726190D02*
X61792857Y-96226190D01*
X61983333Y-96226190D01*
X62030952Y-96250000D01*
X62054761Y-96273809D01*
X62078571Y-96321428D01*
X62078571Y-96392857D01*
X62054761Y-96440476D01*
X62030952Y-96464285D01*
X61983333Y-96488095D01*
X61792857Y-96488095D01*
X62554761Y-96726190D02*
X62269047Y-96726190D01*
X62411904Y-96726190D02*
X62411904Y-96226190D01*
X62364285Y-96297619D01*
X62316666Y-96345238D01*
X62269047Y-96369047D01*
X62983333Y-96392857D02*
X62983333Y-96726190D01*
X62864285Y-96202380D02*
X62745238Y-96559523D01*
X63054761Y-96559523D01*
X75628571Y-56376190D02*
X75461904Y-56138095D01*
X75342857Y-56376190D02*
X75342857Y-55876190D01*
X75533333Y-55876190D01*
X75580952Y-55900000D01*
X75604761Y-55923809D01*
X75628571Y-55971428D01*
X75628571Y-56042857D01*
X75604761Y-56090476D01*
X75580952Y-56114285D01*
X75533333Y-56138095D01*
X75342857Y-56138095D01*
X76104761Y-56376190D02*
X75819047Y-56376190D01*
X75961904Y-56376190D02*
X75961904Y-55876190D01*
X75914285Y-55947619D01*
X75866666Y-55995238D01*
X75819047Y-56019047D01*
X76271428Y-55876190D02*
X76580952Y-55876190D01*
X76414285Y-56066666D01*
X76485714Y-56066666D01*
X76533333Y-56090476D01*
X76557142Y-56114285D01*
X76580952Y-56161904D01*
X76580952Y-56280952D01*
X76557142Y-56328571D01*
X76533333Y-56352380D01*
X76485714Y-56376190D01*
X76342857Y-56376190D01*
X76295238Y-56352380D01*
X76271428Y-56328571D01*
X75628571Y-54976190D02*
X75461904Y-54738095D01*
X75342857Y-54976190D02*
X75342857Y-54476190D01*
X75533333Y-54476190D01*
X75580952Y-54500000D01*
X75604761Y-54523809D01*
X75628571Y-54571428D01*
X75628571Y-54642857D01*
X75604761Y-54690476D01*
X75580952Y-54714285D01*
X75533333Y-54738095D01*
X75342857Y-54738095D01*
X76104761Y-54976190D02*
X75819047Y-54976190D01*
X75961904Y-54976190D02*
X75961904Y-54476190D01*
X75914285Y-54547619D01*
X75866666Y-54595238D01*
X75819047Y-54619047D01*
X76295238Y-54523809D02*
X76319047Y-54500000D01*
X76366666Y-54476190D01*
X76485714Y-54476190D01*
X76533333Y-54500000D01*
X76557142Y-54523809D01*
X76580952Y-54571428D01*
X76580952Y-54619047D01*
X76557142Y-54690476D01*
X76271428Y-54976190D01*
X76580952Y-54976190D01*
X79078571Y-63776190D02*
X78911904Y-63538095D01*
X78792857Y-63776190D02*
X78792857Y-63276190D01*
X78983333Y-63276190D01*
X79030952Y-63300000D01*
X79054761Y-63323809D01*
X79078571Y-63371428D01*
X79078571Y-63442857D01*
X79054761Y-63490476D01*
X79030952Y-63514285D01*
X78983333Y-63538095D01*
X78792857Y-63538095D01*
X79554761Y-63776190D02*
X79269047Y-63776190D01*
X79411904Y-63776190D02*
X79411904Y-63276190D01*
X79364285Y-63347619D01*
X79316666Y-63395238D01*
X79269047Y-63419047D01*
X80030952Y-63776190D02*
X79745238Y-63776190D01*
X79888095Y-63776190D02*
X79888095Y-63276190D01*
X79840476Y-63347619D01*
X79792857Y-63395238D01*
X79745238Y-63419047D01*
X78028571Y-66826190D02*
X77861904Y-66588095D01*
X77742857Y-66826190D02*
X77742857Y-66326190D01*
X77933333Y-66326190D01*
X77980952Y-66350000D01*
X78004761Y-66373809D01*
X78028571Y-66421428D01*
X78028571Y-66492857D01*
X78004761Y-66540476D01*
X77980952Y-66564285D01*
X77933333Y-66588095D01*
X77742857Y-66588095D01*
X78504761Y-66826190D02*
X78219047Y-66826190D01*
X78361904Y-66826190D02*
X78361904Y-66326190D01*
X78314285Y-66397619D01*
X78266666Y-66445238D01*
X78219047Y-66469047D01*
X78814285Y-66326190D02*
X78861904Y-66326190D01*
X78909523Y-66350000D01*
X78933333Y-66373809D01*
X78957142Y-66421428D01*
X78980952Y-66516666D01*
X78980952Y-66635714D01*
X78957142Y-66730952D01*
X78933333Y-66778571D01*
X78909523Y-66802380D01*
X78861904Y-66826190D01*
X78814285Y-66826190D01*
X78766666Y-66802380D01*
X78742857Y-66778571D01*
X78719047Y-66730952D01*
X78695238Y-66635714D01*
X78695238Y-66516666D01*
X78719047Y-66421428D01*
X78742857Y-66373809D01*
X78766666Y-66350000D01*
X78814285Y-66326190D01*
X79366666Y-67276190D02*
X79200000Y-67038095D01*
X79080952Y-67276190D02*
X79080952Y-66776190D01*
X79271428Y-66776190D01*
X79319047Y-66800000D01*
X79342857Y-66823809D01*
X79366666Y-66871428D01*
X79366666Y-66942857D01*
X79342857Y-66990476D01*
X79319047Y-67014285D01*
X79271428Y-67038095D01*
X79080952Y-67038095D01*
X79604761Y-67276190D02*
X79700000Y-67276190D01*
X79747619Y-67252380D01*
X79771428Y-67228571D01*
X79819047Y-67157142D01*
X79842857Y-67061904D01*
X79842857Y-66871428D01*
X79819047Y-66823809D01*
X79795238Y-66800000D01*
X79747619Y-66776190D01*
X79652380Y-66776190D01*
X79604761Y-66800000D01*
X79580952Y-66823809D01*
X79557142Y-66871428D01*
X79557142Y-66990476D01*
X79580952Y-67038095D01*
X79604761Y-67061904D01*
X79652380Y-67085714D01*
X79747619Y-67085714D01*
X79795238Y-67061904D01*
X79819047Y-67038095D01*
X79842857Y-66990476D01*
X80216666Y-66826190D02*
X80050000Y-66588095D01*
X79930952Y-66826190D02*
X79930952Y-66326190D01*
X80121428Y-66326190D01*
X80169047Y-66350000D01*
X80192857Y-66373809D01*
X80216666Y-66421428D01*
X80216666Y-66492857D01*
X80192857Y-66540476D01*
X80169047Y-66564285D01*
X80121428Y-66588095D01*
X79930952Y-66588095D01*
X80502380Y-66540476D02*
X80454761Y-66516666D01*
X80430952Y-66492857D01*
X80407142Y-66445238D01*
X80407142Y-66421428D01*
X80430952Y-66373809D01*
X80454761Y-66350000D01*
X80502380Y-66326190D01*
X80597619Y-66326190D01*
X80645238Y-66350000D01*
X80669047Y-66373809D01*
X80692857Y-66421428D01*
X80692857Y-66445238D01*
X80669047Y-66492857D01*
X80645238Y-66516666D01*
X80597619Y-66540476D01*
X80502380Y-66540476D01*
X80454761Y-66564285D01*
X80430952Y-66588095D01*
X80407142Y-66635714D01*
X80407142Y-66730952D01*
X80430952Y-66778571D01*
X80454761Y-66802380D01*
X80502380Y-66826190D01*
X80597619Y-66826190D01*
X80645238Y-66802380D01*
X80669047Y-66778571D01*
X80692857Y-66730952D01*
X80692857Y-66635714D01*
X80669047Y-66588095D01*
X80645238Y-66564285D01*
X80597619Y-66540476D01*
X81116666Y-67276190D02*
X80950000Y-67038095D01*
X80830952Y-67276190D02*
X80830952Y-66776190D01*
X81021428Y-66776190D01*
X81069047Y-66800000D01*
X81092857Y-66823809D01*
X81116666Y-66871428D01*
X81116666Y-66942857D01*
X81092857Y-66990476D01*
X81069047Y-67014285D01*
X81021428Y-67038095D01*
X80830952Y-67038095D01*
X81283333Y-66776190D02*
X81616666Y-66776190D01*
X81402380Y-67276190D01*
X82116666Y-66826190D02*
X81950000Y-66588095D01*
X81830952Y-66826190D02*
X81830952Y-66326190D01*
X82021428Y-66326190D01*
X82069047Y-66350000D01*
X82092857Y-66373809D01*
X82116666Y-66421428D01*
X82116666Y-66492857D01*
X82092857Y-66540476D01*
X82069047Y-66564285D01*
X82021428Y-66588095D01*
X81830952Y-66588095D01*
X82545238Y-66326190D02*
X82450000Y-66326190D01*
X82402380Y-66350000D01*
X82378571Y-66373809D01*
X82330952Y-66445238D01*
X82307142Y-66540476D01*
X82307142Y-66730952D01*
X82330952Y-66778571D01*
X82354761Y-66802380D01*
X82402380Y-66826190D01*
X82497619Y-66826190D01*
X82545238Y-66802380D01*
X82569047Y-66778571D01*
X82592857Y-66730952D01*
X82592857Y-66611904D01*
X82569047Y-66564285D01*
X82545238Y-66540476D01*
X82497619Y-66516666D01*
X82402380Y-66516666D01*
X82354761Y-66540476D01*
X82330952Y-66564285D01*
X82307142Y-66611904D01*
X83116666Y-67326190D02*
X82950000Y-67088095D01*
X82830952Y-67326190D02*
X82830952Y-66826190D01*
X83021428Y-66826190D01*
X83069047Y-66850000D01*
X83092857Y-66873809D01*
X83116666Y-66921428D01*
X83116666Y-66992857D01*
X83092857Y-67040476D01*
X83069047Y-67064285D01*
X83021428Y-67088095D01*
X82830952Y-67088095D01*
X83569047Y-66826190D02*
X83330952Y-66826190D01*
X83307142Y-67064285D01*
X83330952Y-67040476D01*
X83378571Y-67016666D01*
X83497619Y-67016666D01*
X83545238Y-67040476D01*
X83569047Y-67064285D01*
X83592857Y-67111904D01*
X83592857Y-67230952D01*
X83569047Y-67278571D01*
X83545238Y-67302380D01*
X83497619Y-67326190D01*
X83378571Y-67326190D01*
X83330952Y-67302380D01*
X83307142Y-67278571D01*
X95216666Y-71076190D02*
X95050000Y-70838095D01*
X94930952Y-71076190D02*
X94930952Y-70576190D01*
X95121428Y-70576190D01*
X95169047Y-70600000D01*
X95192857Y-70623809D01*
X95216666Y-70671428D01*
X95216666Y-70742857D01*
X95192857Y-70790476D01*
X95169047Y-70814285D01*
X95121428Y-70838095D01*
X94930952Y-70838095D01*
X95645238Y-70742857D02*
X95645238Y-71076190D01*
X95526190Y-70552380D02*
X95407142Y-70909523D01*
X95716666Y-70909523D01*
X94616666Y-78926190D02*
X94450000Y-78688095D01*
X94330952Y-78926190D02*
X94330952Y-78426190D01*
X94521428Y-78426190D01*
X94569047Y-78450000D01*
X94592857Y-78473809D01*
X94616666Y-78521428D01*
X94616666Y-78592857D01*
X94592857Y-78640476D01*
X94569047Y-78664285D01*
X94521428Y-78688095D01*
X94330952Y-78688095D01*
X94783333Y-78426190D02*
X95092857Y-78426190D01*
X94926190Y-78616666D01*
X94997619Y-78616666D01*
X95045238Y-78640476D01*
X95069047Y-78664285D01*
X95092857Y-78711904D01*
X95092857Y-78830952D01*
X95069047Y-78878571D01*
X95045238Y-78902380D01*
X94997619Y-78926190D01*
X94854761Y-78926190D01*
X94807142Y-78902380D01*
X94783333Y-78878571D01*
X94466666Y-74826190D02*
X94300000Y-74588095D01*
X94180952Y-74826190D02*
X94180952Y-74326190D01*
X94371428Y-74326190D01*
X94419047Y-74350000D01*
X94442857Y-74373809D01*
X94466666Y-74421428D01*
X94466666Y-74492857D01*
X94442857Y-74540476D01*
X94419047Y-74564285D01*
X94371428Y-74588095D01*
X94180952Y-74588095D01*
X94657142Y-74373809D02*
X94680952Y-74350000D01*
X94728571Y-74326190D01*
X94847619Y-74326190D01*
X94895238Y-74350000D01*
X94919047Y-74373809D01*
X94942857Y-74421428D01*
X94942857Y-74469047D01*
X94919047Y-74540476D01*
X94633333Y-74826190D01*
X94942857Y-74826190D01*
X87666666Y-96926190D02*
X87500000Y-96688095D01*
X87380952Y-96926190D02*
X87380952Y-96426190D01*
X87571428Y-96426190D01*
X87619047Y-96450000D01*
X87642857Y-96473809D01*
X87666666Y-96521428D01*
X87666666Y-96592857D01*
X87642857Y-96640476D01*
X87619047Y-96664285D01*
X87571428Y-96688095D01*
X87380952Y-96688095D01*
X88142857Y-96926190D02*
X87857142Y-96926190D01*
X88000000Y-96926190D02*
X88000000Y-96426190D01*
X87952380Y-96497619D01*
X87904761Y-96545238D01*
X87857142Y-96569047D01*
X70902380Y-98673809D02*
X70854761Y-98650000D01*
X70807142Y-98602380D01*
X70735714Y-98530952D01*
X70688095Y-98507142D01*
X70640476Y-98507142D01*
X70664285Y-98626190D02*
X70616666Y-98602380D01*
X70569047Y-98554761D01*
X70545238Y-98459523D01*
X70545238Y-98292857D01*
X70569047Y-98197619D01*
X70616666Y-98150000D01*
X70664285Y-98126190D01*
X70759523Y-98126190D01*
X70807142Y-98150000D01*
X70854761Y-98197619D01*
X70878571Y-98292857D01*
X70878571Y-98459523D01*
X70854761Y-98554761D01*
X70807142Y-98602380D01*
X70759523Y-98626190D01*
X70664285Y-98626190D01*
X71354761Y-98626190D02*
X71069047Y-98626190D01*
X71211904Y-98626190D02*
X71211904Y-98126190D01*
X71164285Y-98197619D01*
X71116666Y-98245238D01*
X71069047Y-98269047D01*
X75116666Y-84976190D02*
X74878571Y-84976190D01*
X74878571Y-84476190D01*
X75521428Y-84476190D02*
X75283333Y-84476190D01*
X75259523Y-84714285D01*
X75283333Y-84690476D01*
X75330952Y-84666666D01*
X75450000Y-84666666D01*
X75497619Y-84690476D01*
X75521428Y-84714285D01*
X75545238Y-84761904D01*
X75545238Y-84880952D01*
X75521428Y-84928571D01*
X75497619Y-84952380D01*
X75450000Y-84976190D01*
X75330952Y-84976190D01*
X75283333Y-84952380D01*
X75259523Y-84928571D01*
X94116666Y-83176190D02*
X93878571Y-83176190D01*
X93878571Y-82676190D01*
X94497619Y-82842857D02*
X94497619Y-83176190D01*
X94378571Y-82652380D02*
X94259523Y-83009523D01*
X94569047Y-83009523D01*
X71216666Y-76826190D02*
X70978571Y-76826190D01*
X70978571Y-76326190D01*
X71335714Y-76326190D02*
X71645238Y-76326190D01*
X71478571Y-76516666D01*
X71550000Y-76516666D01*
X71597619Y-76540476D01*
X71621428Y-76564285D01*
X71645238Y-76611904D01*
X71645238Y-76730952D01*
X71621428Y-76778571D01*
X71597619Y-76802380D01*
X71550000Y-76826190D01*
X71407142Y-76826190D01*
X71359523Y-76802380D01*
X71335714Y-76778571D01*
X69116666Y-83126190D02*
X68878571Y-83126190D01*
X68878571Y-82626190D01*
X69259523Y-82673809D02*
X69283333Y-82650000D01*
X69330952Y-82626190D01*
X69450000Y-82626190D01*
X69497619Y-82650000D01*
X69521428Y-82673809D01*
X69545238Y-82721428D01*
X69545238Y-82769047D01*
X69521428Y-82840476D01*
X69235714Y-83126190D01*
X69545238Y-83126190D01*
X75016666Y-92276190D02*
X74778571Y-92276190D01*
X74778571Y-91776190D01*
X75445238Y-92276190D02*
X75159523Y-92276190D01*
X75302380Y-92276190D02*
X75302380Y-91776190D01*
X75254761Y-91847619D01*
X75207142Y-91895238D01*
X75159523Y-91919047D01*
X69683333Y-60264285D02*
X69516666Y-60264285D01*
X69516666Y-60526190D02*
X69516666Y-60026190D01*
X69754761Y-60026190D01*
X70111904Y-60264285D02*
X70183333Y-60288095D01*
X70207142Y-60311904D01*
X70230952Y-60359523D01*
X70230952Y-60430952D01*
X70207142Y-60478571D01*
X70183333Y-60502380D01*
X70135714Y-60526190D01*
X69945238Y-60526190D01*
X69945238Y-60026190D01*
X70111904Y-60026190D01*
X70159523Y-60050000D01*
X70183333Y-60073809D01*
X70207142Y-60121428D01*
X70207142Y-60169047D01*
X70183333Y-60216666D01*
X70159523Y-60240476D01*
X70111904Y-60264285D01*
X69945238Y-60264285D01*
X70707142Y-60526190D02*
X70421428Y-60526190D01*
X70564285Y-60526190D02*
X70564285Y-60026190D01*
X70516666Y-60097619D01*
X70469047Y-60145238D01*
X70421428Y-60169047D01*
X63980952Y-76876190D02*
X63980952Y-76376190D01*
X64100000Y-76376190D01*
X64171428Y-76400000D01*
X64219047Y-76447619D01*
X64242857Y-76495238D01*
X64266666Y-76590476D01*
X64266666Y-76661904D01*
X64242857Y-76757142D01*
X64219047Y-76804761D01*
X64171428Y-76852380D01*
X64100000Y-76876190D01*
X63980952Y-76876190D01*
X64695238Y-76376190D02*
X64600000Y-76376190D01*
X64552380Y-76400000D01*
X64528571Y-76423809D01*
X64480952Y-76495238D01*
X64457142Y-76590476D01*
X64457142Y-76780952D01*
X64480952Y-76828571D01*
X64504761Y-76852380D01*
X64552380Y-76876190D01*
X64647619Y-76876190D01*
X64695238Y-76852380D01*
X64719047Y-76828571D01*
X64742857Y-76780952D01*
X64742857Y-76661904D01*
X64719047Y-76614285D01*
X64695238Y-76590476D01*
X64647619Y-76566666D01*
X64552380Y-76566666D01*
X64504761Y-76590476D01*
X64480952Y-76614285D01*
X64457142Y-76661904D01*
X57880952Y-90076190D02*
X57880952Y-89576190D01*
X58000000Y-89576190D01*
X58071428Y-89600000D01*
X58119047Y-89647619D01*
X58142857Y-89695238D01*
X58166666Y-89790476D01*
X58166666Y-89861904D01*
X58142857Y-89957142D01*
X58119047Y-90004761D01*
X58071428Y-90052380D01*
X58000000Y-90076190D01*
X57880952Y-90076190D01*
X58619047Y-89576190D02*
X58380952Y-89576190D01*
X58357142Y-89814285D01*
X58380952Y-89790476D01*
X58428571Y-89766666D01*
X58547619Y-89766666D01*
X58595238Y-89790476D01*
X58619047Y-89814285D01*
X58642857Y-89861904D01*
X58642857Y-89980952D01*
X58619047Y-90028571D01*
X58595238Y-90052380D01*
X58547619Y-90076190D01*
X58428571Y-90076190D01*
X58380952Y-90052380D01*
X58357142Y-90028571D01*
X62030952Y-80376190D02*
X62030952Y-79876190D01*
X62150000Y-79876190D01*
X62221428Y-79900000D01*
X62269047Y-79947619D01*
X62292857Y-79995238D01*
X62316666Y-80090476D01*
X62316666Y-80161904D01*
X62292857Y-80257142D01*
X62269047Y-80304761D01*
X62221428Y-80352380D01*
X62150000Y-80376190D01*
X62030952Y-80376190D01*
X62745238Y-80042857D02*
X62745238Y-80376190D01*
X62626190Y-79852380D02*
X62507142Y-80209523D01*
X62816666Y-80209523D01*
X74230952Y-56376190D02*
X74230952Y-55876190D01*
X74350000Y-55876190D01*
X74421428Y-55900000D01*
X74469047Y-55947619D01*
X74492857Y-55995238D01*
X74516666Y-56090476D01*
X74516666Y-56161904D01*
X74492857Y-56257142D01*
X74469047Y-56304761D01*
X74421428Y-56352380D01*
X74350000Y-56376190D01*
X74230952Y-56376190D01*
X74683333Y-55876190D02*
X74992857Y-55876190D01*
X74826190Y-56066666D01*
X74897619Y-56066666D01*
X74945238Y-56090476D01*
X74969047Y-56114285D01*
X74992857Y-56161904D01*
X74992857Y-56280952D01*
X74969047Y-56328571D01*
X74945238Y-56352380D01*
X74897619Y-56376190D01*
X74754761Y-56376190D01*
X74707142Y-56352380D01*
X74683333Y-56328571D01*
X74230952Y-54976190D02*
X74230952Y-54476190D01*
X74350000Y-54476190D01*
X74421428Y-54500000D01*
X74469047Y-54547619D01*
X74492857Y-54595238D01*
X74516666Y-54690476D01*
X74516666Y-54761904D01*
X74492857Y-54857142D01*
X74469047Y-54904761D01*
X74421428Y-54952380D01*
X74350000Y-54976190D01*
X74230952Y-54976190D01*
X74707142Y-54523809D02*
X74730952Y-54500000D01*
X74778571Y-54476190D01*
X74897619Y-54476190D01*
X74945238Y-54500000D01*
X74969047Y-54523809D01*
X74992857Y-54571428D01*
X74992857Y-54619047D01*
X74969047Y-54690476D01*
X74683333Y-54976190D01*
X74992857Y-54976190D01*
X93780952Y-78276190D02*
X93780952Y-77776190D01*
X93900000Y-77776190D01*
X93971428Y-77800000D01*
X94019047Y-77847619D01*
X94042857Y-77895238D01*
X94066666Y-77990476D01*
X94066666Y-78061904D01*
X94042857Y-78157142D01*
X94019047Y-78204761D01*
X93971428Y-78252380D01*
X93900000Y-78276190D01*
X93780952Y-78276190D01*
X94542857Y-78276190D02*
X94257142Y-78276190D01*
X94400000Y-78276190D02*
X94400000Y-77776190D01*
X94352380Y-77847619D01*
X94304761Y-77895238D01*
X94257142Y-77919047D01*
X74928571Y-76078571D02*
X74904761Y-76102380D01*
X74833333Y-76126190D01*
X74785714Y-76126190D01*
X74714285Y-76102380D01*
X74666666Y-76054761D01*
X74642857Y-76007142D01*
X74619047Y-75911904D01*
X74619047Y-75840476D01*
X74642857Y-75745238D01*
X74666666Y-75697619D01*
X74714285Y-75650000D01*
X74785714Y-75626190D01*
X74833333Y-75626190D01*
X74904761Y-75650000D01*
X74928571Y-75673809D01*
X75357142Y-75626190D02*
X75261904Y-75626190D01*
X75214285Y-75650000D01*
X75190476Y-75673809D01*
X75142857Y-75745238D01*
X75119047Y-75840476D01*
X75119047Y-76030952D01*
X75142857Y-76078571D01*
X75166666Y-76102380D01*
X75214285Y-76126190D01*
X75309523Y-76126190D01*
X75357142Y-76102380D01*
X75380952Y-76078571D01*
X75404761Y-76030952D01*
X75404761Y-75911904D01*
X75380952Y-75864285D01*
X75357142Y-75840476D01*
X75309523Y-75816666D01*
X75214285Y-75816666D01*
X75166666Y-75840476D01*
X75142857Y-75864285D01*
X75119047Y-75911904D01*
X75833333Y-75792857D02*
X75833333Y-76126190D01*
X75714285Y-75602380D02*
X75595238Y-75959523D01*
X75904761Y-75959523D01*
X73578571Y-73478571D02*
X73554761Y-73502380D01*
X73483333Y-73526190D01*
X73435714Y-73526190D01*
X73364285Y-73502380D01*
X73316666Y-73454761D01*
X73292857Y-73407142D01*
X73269047Y-73311904D01*
X73269047Y-73240476D01*
X73292857Y-73145238D01*
X73316666Y-73097619D01*
X73364285Y-73050000D01*
X73435714Y-73026190D01*
X73483333Y-73026190D01*
X73554761Y-73050000D01*
X73578571Y-73073809D01*
X74007142Y-73026190D02*
X73911904Y-73026190D01*
X73864285Y-73050000D01*
X73840476Y-73073809D01*
X73792857Y-73145238D01*
X73769047Y-73240476D01*
X73769047Y-73430952D01*
X73792857Y-73478571D01*
X73816666Y-73502380D01*
X73864285Y-73526190D01*
X73959523Y-73526190D01*
X74007142Y-73502380D01*
X74030952Y-73478571D01*
X74054761Y-73430952D01*
X74054761Y-73311904D01*
X74030952Y-73264285D01*
X74007142Y-73240476D01*
X73959523Y-73216666D01*
X73864285Y-73216666D01*
X73816666Y-73240476D01*
X73792857Y-73264285D01*
X73769047Y-73311904D01*
X74221428Y-73026190D02*
X74530952Y-73026190D01*
X74364285Y-73216666D01*
X74435714Y-73216666D01*
X74483333Y-73240476D01*
X74507142Y-73264285D01*
X74530952Y-73311904D01*
X74530952Y-73430952D01*
X74507142Y-73478571D01*
X74483333Y-73502380D01*
X74435714Y-73526190D01*
X74292857Y-73526190D01*
X74245238Y-73502380D01*
X74221428Y-73478571D01*
X77478571Y-63728571D02*
X77454761Y-63752380D01*
X77383333Y-63776190D01*
X77335714Y-63776190D01*
X77264285Y-63752380D01*
X77216666Y-63704761D01*
X77192857Y-63657142D01*
X77169047Y-63561904D01*
X77169047Y-63490476D01*
X77192857Y-63395238D01*
X77216666Y-63347619D01*
X77264285Y-63300000D01*
X77335714Y-63276190D01*
X77383333Y-63276190D01*
X77454761Y-63300000D01*
X77478571Y-63323809D01*
X77907142Y-63276190D02*
X77811904Y-63276190D01*
X77764285Y-63300000D01*
X77740476Y-63323809D01*
X77692857Y-63395238D01*
X77669047Y-63490476D01*
X77669047Y-63680952D01*
X77692857Y-63728571D01*
X77716666Y-63752380D01*
X77764285Y-63776190D01*
X77859523Y-63776190D01*
X77907142Y-63752380D01*
X77930952Y-63728571D01*
X77954761Y-63680952D01*
X77954761Y-63561904D01*
X77930952Y-63514285D01*
X77907142Y-63490476D01*
X77859523Y-63466666D01*
X77764285Y-63466666D01*
X77716666Y-63490476D01*
X77692857Y-63514285D01*
X77669047Y-63561904D01*
X78145238Y-63323809D02*
X78169047Y-63300000D01*
X78216666Y-63276190D01*
X78335714Y-63276190D01*
X78383333Y-63300000D01*
X78407142Y-63323809D01*
X78430952Y-63371428D01*
X78430952Y-63419047D01*
X78407142Y-63490476D01*
X78121428Y-63776190D01*
X78430952Y-63776190D01*
X73178571Y-69278571D02*
X73154761Y-69302380D01*
X73083333Y-69326190D01*
X73035714Y-69326190D01*
X72964285Y-69302380D01*
X72916666Y-69254761D01*
X72892857Y-69207142D01*
X72869047Y-69111904D01*
X72869047Y-69040476D01*
X72892857Y-68945238D01*
X72916666Y-68897619D01*
X72964285Y-68850000D01*
X73035714Y-68826190D01*
X73083333Y-68826190D01*
X73154761Y-68850000D01*
X73178571Y-68873809D01*
X73607142Y-68826190D02*
X73511904Y-68826190D01*
X73464285Y-68850000D01*
X73440476Y-68873809D01*
X73392857Y-68945238D01*
X73369047Y-69040476D01*
X73369047Y-69230952D01*
X73392857Y-69278571D01*
X73416666Y-69302380D01*
X73464285Y-69326190D01*
X73559523Y-69326190D01*
X73607142Y-69302380D01*
X73630952Y-69278571D01*
X73654761Y-69230952D01*
X73654761Y-69111904D01*
X73630952Y-69064285D01*
X73607142Y-69040476D01*
X73559523Y-69016666D01*
X73464285Y-69016666D01*
X73416666Y-69040476D01*
X73392857Y-69064285D01*
X73369047Y-69111904D01*
X74130952Y-69326190D02*
X73845238Y-69326190D01*
X73988095Y-69326190D02*
X73988095Y-68826190D01*
X73940476Y-68897619D01*
X73892857Y-68945238D01*
X73845238Y-68969047D01*
X73178571Y-69878571D02*
X73154761Y-69902380D01*
X73083333Y-69926190D01*
X73035714Y-69926190D01*
X72964285Y-69902380D01*
X72916666Y-69854761D01*
X72892857Y-69807142D01*
X72869047Y-69711904D01*
X72869047Y-69640476D01*
X72892857Y-69545238D01*
X72916666Y-69497619D01*
X72964285Y-69450000D01*
X73035714Y-69426190D01*
X73083333Y-69426190D01*
X73154761Y-69450000D01*
X73178571Y-69473809D01*
X73630952Y-69426190D02*
X73392857Y-69426190D01*
X73369047Y-69664285D01*
X73392857Y-69640476D01*
X73440476Y-69616666D01*
X73559523Y-69616666D01*
X73607142Y-69640476D01*
X73630952Y-69664285D01*
X73654761Y-69711904D01*
X73654761Y-69830952D01*
X73630952Y-69878571D01*
X73607142Y-69902380D01*
X73559523Y-69926190D01*
X73440476Y-69926190D01*
X73392857Y-69902380D01*
X73369047Y-69878571D01*
X73892857Y-69926190D02*
X73988095Y-69926190D01*
X74035714Y-69902380D01*
X74059523Y-69878571D01*
X74107142Y-69807142D01*
X74130952Y-69711904D01*
X74130952Y-69521428D01*
X74107142Y-69473809D01*
X74083333Y-69450000D01*
X74035714Y-69426190D01*
X73940476Y-69426190D01*
X73892857Y-69450000D01*
X73869047Y-69473809D01*
X73845238Y-69521428D01*
X73845238Y-69640476D01*
X73869047Y-69688095D01*
X73892857Y-69711904D01*
X73940476Y-69735714D01*
X74035714Y-69735714D01*
X74083333Y-69711904D01*
X74107142Y-69688095D01*
X74130952Y-69640476D01*
X74178571Y-72578571D02*
X74154761Y-72602380D01*
X74083333Y-72626190D01*
X74035714Y-72626190D01*
X73964285Y-72602380D01*
X73916666Y-72554761D01*
X73892857Y-72507142D01*
X73869047Y-72411904D01*
X73869047Y-72340476D01*
X73892857Y-72245238D01*
X73916666Y-72197619D01*
X73964285Y-72150000D01*
X74035714Y-72126190D01*
X74083333Y-72126190D01*
X74154761Y-72150000D01*
X74178571Y-72173809D01*
X74630952Y-72126190D02*
X74392857Y-72126190D01*
X74369047Y-72364285D01*
X74392857Y-72340476D01*
X74440476Y-72316666D01*
X74559523Y-72316666D01*
X74607142Y-72340476D01*
X74630952Y-72364285D01*
X74654761Y-72411904D01*
X74654761Y-72530952D01*
X74630952Y-72578571D01*
X74607142Y-72602380D01*
X74559523Y-72626190D01*
X74440476Y-72626190D01*
X74392857Y-72602380D01*
X74369047Y-72578571D01*
X74940476Y-72340476D02*
X74892857Y-72316666D01*
X74869047Y-72292857D01*
X74845238Y-72245238D01*
X74845238Y-72221428D01*
X74869047Y-72173809D01*
X74892857Y-72150000D01*
X74940476Y-72126190D01*
X75035714Y-72126190D01*
X75083333Y-72150000D01*
X75107142Y-72173809D01*
X75130952Y-72221428D01*
X75130952Y-72245238D01*
X75107142Y-72292857D01*
X75083333Y-72316666D01*
X75035714Y-72340476D01*
X74940476Y-72340476D01*
X74892857Y-72364285D01*
X74869047Y-72388095D01*
X74845238Y-72435714D01*
X74845238Y-72530952D01*
X74869047Y-72578571D01*
X74892857Y-72602380D01*
X74940476Y-72626190D01*
X75035714Y-72626190D01*
X75083333Y-72602380D01*
X75107142Y-72578571D01*
X75130952Y-72530952D01*
X75130952Y-72435714D01*
X75107142Y-72388095D01*
X75083333Y-72364285D01*
X75035714Y-72340476D01*
X72978571Y-74378571D02*
X72954761Y-74402380D01*
X72883333Y-74426190D01*
X72835714Y-74426190D01*
X72764285Y-74402380D01*
X72716666Y-74354761D01*
X72692857Y-74307142D01*
X72669047Y-74211904D01*
X72669047Y-74140476D01*
X72692857Y-74045238D01*
X72716666Y-73997619D01*
X72764285Y-73950000D01*
X72835714Y-73926190D01*
X72883333Y-73926190D01*
X72954761Y-73950000D01*
X72978571Y-73973809D01*
X73430952Y-73926190D02*
X73192857Y-73926190D01*
X73169047Y-74164285D01*
X73192857Y-74140476D01*
X73240476Y-74116666D01*
X73359523Y-74116666D01*
X73407142Y-74140476D01*
X73430952Y-74164285D01*
X73454761Y-74211904D01*
X73454761Y-74330952D01*
X73430952Y-74378571D01*
X73407142Y-74402380D01*
X73359523Y-74426190D01*
X73240476Y-74426190D01*
X73192857Y-74402380D01*
X73169047Y-74378571D01*
X73883333Y-73926190D02*
X73788095Y-73926190D01*
X73740476Y-73950000D01*
X73716666Y-73973809D01*
X73669047Y-74045238D01*
X73645238Y-74140476D01*
X73645238Y-74330952D01*
X73669047Y-74378571D01*
X73692857Y-74402380D01*
X73740476Y-74426190D01*
X73835714Y-74426190D01*
X73883333Y-74402380D01*
X73907142Y-74378571D01*
X73930952Y-74330952D01*
X73930952Y-74211904D01*
X73907142Y-74164285D01*
X73883333Y-74140476D01*
X73835714Y-74116666D01*
X73740476Y-74116666D01*
X73692857Y-74140476D01*
X73669047Y-74164285D01*
X73645238Y-74211904D01*
X74678571Y-76728571D02*
X74654761Y-76752380D01*
X74583333Y-76776190D01*
X74535714Y-76776190D01*
X74464285Y-76752380D01*
X74416666Y-76704761D01*
X74392857Y-76657142D01*
X74369047Y-76561904D01*
X74369047Y-76490476D01*
X74392857Y-76395238D01*
X74416666Y-76347619D01*
X74464285Y-76300000D01*
X74535714Y-76276190D01*
X74583333Y-76276190D01*
X74654761Y-76300000D01*
X74678571Y-76323809D01*
X75130952Y-76276190D02*
X74892857Y-76276190D01*
X74869047Y-76514285D01*
X74892857Y-76490476D01*
X74940476Y-76466666D01*
X75059523Y-76466666D01*
X75107142Y-76490476D01*
X75130952Y-76514285D01*
X75154761Y-76561904D01*
X75154761Y-76680952D01*
X75130952Y-76728571D01*
X75107142Y-76752380D01*
X75059523Y-76776190D01*
X74940476Y-76776190D01*
X74892857Y-76752380D01*
X74869047Y-76728571D01*
X75607142Y-76276190D02*
X75369047Y-76276190D01*
X75345238Y-76514285D01*
X75369047Y-76490476D01*
X75416666Y-76466666D01*
X75535714Y-76466666D01*
X75583333Y-76490476D01*
X75607142Y-76514285D01*
X75630952Y-76561904D01*
X75630952Y-76680952D01*
X75607142Y-76728571D01*
X75583333Y-76752380D01*
X75535714Y-76776190D01*
X75416666Y-76776190D01*
X75369047Y-76752380D01*
X75345238Y-76728571D01*
X95228571Y-70378571D02*
X95204761Y-70402380D01*
X95133333Y-70426190D01*
X95085714Y-70426190D01*
X95014285Y-70402380D01*
X94966666Y-70354761D01*
X94942857Y-70307142D01*
X94919047Y-70211904D01*
X94919047Y-70140476D01*
X94942857Y-70045238D01*
X94966666Y-69997619D01*
X95014285Y-69950000D01*
X95085714Y-69926190D01*
X95133333Y-69926190D01*
X95204761Y-69950000D01*
X95228571Y-69973809D01*
X95680952Y-69926190D02*
X95442857Y-69926190D01*
X95419047Y-70164285D01*
X95442857Y-70140476D01*
X95490476Y-70116666D01*
X95609523Y-70116666D01*
X95657142Y-70140476D01*
X95680952Y-70164285D01*
X95704761Y-70211904D01*
X95704761Y-70330952D01*
X95680952Y-70378571D01*
X95657142Y-70402380D01*
X95609523Y-70426190D01*
X95490476Y-70426190D01*
X95442857Y-70402380D01*
X95419047Y-70378571D01*
X96133333Y-70092857D02*
X96133333Y-70426190D01*
X96014285Y-69902380D02*
X95895238Y-70259523D01*
X96204761Y-70259523D01*
X74678571Y-77378571D02*
X74654761Y-77402380D01*
X74583333Y-77426190D01*
X74535714Y-77426190D01*
X74464285Y-77402380D01*
X74416666Y-77354761D01*
X74392857Y-77307142D01*
X74369047Y-77211904D01*
X74369047Y-77140476D01*
X74392857Y-77045238D01*
X74416666Y-76997619D01*
X74464285Y-76950000D01*
X74535714Y-76926190D01*
X74583333Y-76926190D01*
X74654761Y-76950000D01*
X74678571Y-76973809D01*
X75130952Y-76926190D02*
X74892857Y-76926190D01*
X74869047Y-77164285D01*
X74892857Y-77140476D01*
X74940476Y-77116666D01*
X75059523Y-77116666D01*
X75107142Y-77140476D01*
X75130952Y-77164285D01*
X75154761Y-77211904D01*
X75154761Y-77330952D01*
X75130952Y-77378571D01*
X75107142Y-77402380D01*
X75059523Y-77426190D01*
X74940476Y-77426190D01*
X74892857Y-77402380D01*
X74869047Y-77378571D01*
X75321428Y-76926190D02*
X75630952Y-76926190D01*
X75464285Y-77116666D01*
X75535714Y-77116666D01*
X75583333Y-77140476D01*
X75607142Y-77164285D01*
X75630952Y-77211904D01*
X75630952Y-77330952D01*
X75607142Y-77378571D01*
X75583333Y-77402380D01*
X75535714Y-77426190D01*
X75392857Y-77426190D01*
X75345238Y-77402380D01*
X75321428Y-77378571D01*
X90778571Y-68028571D02*
X90754761Y-68052380D01*
X90683333Y-68076190D01*
X90635714Y-68076190D01*
X90564285Y-68052380D01*
X90516666Y-68004761D01*
X90492857Y-67957142D01*
X90469047Y-67861904D01*
X90469047Y-67790476D01*
X90492857Y-67695238D01*
X90516666Y-67647619D01*
X90564285Y-67600000D01*
X90635714Y-67576190D01*
X90683333Y-67576190D01*
X90754761Y-67600000D01*
X90778571Y-67623809D01*
X91230952Y-67576190D02*
X90992857Y-67576190D01*
X90969047Y-67814285D01*
X90992857Y-67790476D01*
X91040476Y-67766666D01*
X91159523Y-67766666D01*
X91207142Y-67790476D01*
X91230952Y-67814285D01*
X91254761Y-67861904D01*
X91254761Y-67980952D01*
X91230952Y-68028571D01*
X91207142Y-68052380D01*
X91159523Y-68076190D01*
X91040476Y-68076190D01*
X90992857Y-68052380D01*
X90969047Y-68028571D01*
X91445238Y-67623809D02*
X91469047Y-67600000D01*
X91516666Y-67576190D01*
X91635714Y-67576190D01*
X91683333Y-67600000D01*
X91707142Y-67623809D01*
X91730952Y-67671428D01*
X91730952Y-67719047D01*
X91707142Y-67790476D01*
X91421428Y-68076190D01*
X91730952Y-68076190D01*
X95228571Y-71628571D02*
X95204761Y-71652380D01*
X95133333Y-71676190D01*
X95085714Y-71676190D01*
X95014285Y-71652380D01*
X94966666Y-71604761D01*
X94942857Y-71557142D01*
X94919047Y-71461904D01*
X94919047Y-71390476D01*
X94942857Y-71295238D01*
X94966666Y-71247619D01*
X95014285Y-71200000D01*
X95085714Y-71176190D01*
X95133333Y-71176190D01*
X95204761Y-71200000D01*
X95228571Y-71223809D01*
X95680952Y-71176190D02*
X95442857Y-71176190D01*
X95419047Y-71414285D01*
X95442857Y-71390476D01*
X95490476Y-71366666D01*
X95609523Y-71366666D01*
X95657142Y-71390476D01*
X95680952Y-71414285D01*
X95704761Y-71461904D01*
X95704761Y-71580952D01*
X95680952Y-71628571D01*
X95657142Y-71652380D01*
X95609523Y-71676190D01*
X95490476Y-71676190D01*
X95442857Y-71652380D01*
X95419047Y-71628571D01*
X96180952Y-71676190D02*
X95895238Y-71676190D01*
X96038095Y-71676190D02*
X96038095Y-71176190D01*
X95990476Y-71247619D01*
X95942857Y-71295238D01*
X95895238Y-71319047D01*
X76128571Y-76678571D02*
X76104761Y-76702380D01*
X76033333Y-76726190D01*
X75985714Y-76726190D01*
X75914285Y-76702380D01*
X75866666Y-76654761D01*
X75842857Y-76607142D01*
X75819047Y-76511904D01*
X75819047Y-76440476D01*
X75842857Y-76345238D01*
X75866666Y-76297619D01*
X75914285Y-76250000D01*
X75985714Y-76226190D01*
X76033333Y-76226190D01*
X76104761Y-76250000D01*
X76128571Y-76273809D01*
X76580952Y-76226190D02*
X76342857Y-76226190D01*
X76319047Y-76464285D01*
X76342857Y-76440476D01*
X76390476Y-76416666D01*
X76509523Y-76416666D01*
X76557142Y-76440476D01*
X76580952Y-76464285D01*
X76604761Y-76511904D01*
X76604761Y-76630952D01*
X76580952Y-76678571D01*
X76557142Y-76702380D01*
X76509523Y-76726190D01*
X76390476Y-76726190D01*
X76342857Y-76702380D01*
X76319047Y-76678571D01*
X76914285Y-76226190D02*
X76961904Y-76226190D01*
X77009523Y-76250000D01*
X77033333Y-76273809D01*
X77057142Y-76321428D01*
X77080952Y-76416666D01*
X77080952Y-76535714D01*
X77057142Y-76630952D01*
X77033333Y-76678571D01*
X77009523Y-76702380D01*
X76961904Y-76726190D01*
X76914285Y-76726190D01*
X76866666Y-76702380D01*
X76842857Y-76678571D01*
X76819047Y-76630952D01*
X76795238Y-76535714D01*
X76795238Y-76416666D01*
X76819047Y-76321428D01*
X76842857Y-76273809D01*
X76866666Y-76250000D01*
X76914285Y-76226190D01*
X86728571Y-79178571D02*
X86704761Y-79202380D01*
X86633333Y-79226190D01*
X86585714Y-79226190D01*
X86514285Y-79202380D01*
X86466666Y-79154761D01*
X86442857Y-79107142D01*
X86419047Y-79011904D01*
X86419047Y-78940476D01*
X86442857Y-78845238D01*
X86466666Y-78797619D01*
X86514285Y-78750000D01*
X86585714Y-78726190D01*
X86633333Y-78726190D01*
X86704761Y-78750000D01*
X86728571Y-78773809D01*
X87157142Y-78892857D02*
X87157142Y-79226190D01*
X87038095Y-78702380D02*
X86919047Y-79059523D01*
X87228571Y-79059523D01*
X87442857Y-79226190D02*
X87538095Y-79226190D01*
X87585714Y-79202380D01*
X87609523Y-79178571D01*
X87657142Y-79107142D01*
X87680952Y-79011904D01*
X87680952Y-78821428D01*
X87657142Y-78773809D01*
X87633333Y-78750000D01*
X87585714Y-78726190D01*
X87490476Y-78726190D01*
X87442857Y-78750000D01*
X87419047Y-78773809D01*
X87395238Y-78821428D01*
X87395238Y-78940476D01*
X87419047Y-78988095D01*
X87442857Y-79011904D01*
X87490476Y-79035714D01*
X87585714Y-79035714D01*
X87633333Y-79011904D01*
X87657142Y-78988095D01*
X87680952Y-78940476D01*
X77528570Y-89278571D02*
X77504760Y-89302380D01*
X77433332Y-89326190D01*
X77385713Y-89326190D01*
X77314284Y-89302380D01*
X77266665Y-89254761D01*
X77242856Y-89207142D01*
X77219046Y-89111904D01*
X77219046Y-89040476D01*
X77242856Y-88945238D01*
X77266665Y-88897619D01*
X77314284Y-88850000D01*
X77385713Y-88826190D01*
X77433332Y-88826190D01*
X77504760Y-88850000D01*
X77528570Y-88873809D01*
X77957141Y-88992857D02*
X77957141Y-89326190D01*
X77838094Y-88802380D02*
X77719046Y-89159523D01*
X78028570Y-89159523D01*
X78290475Y-89040476D02*
X78242856Y-89016666D01*
X78219046Y-88992857D01*
X78195237Y-88945238D01*
X78195237Y-88921428D01*
X78219046Y-88873809D01*
X78242856Y-88850000D01*
X78290475Y-88826190D01*
X78385713Y-88826190D01*
X78433332Y-88850000D01*
X78457141Y-88873809D01*
X78480951Y-88921428D01*
X78480951Y-88945238D01*
X78457141Y-88992857D01*
X78433332Y-89016666D01*
X78385713Y-89040476D01*
X78290475Y-89040476D01*
X78242856Y-89064285D01*
X78219046Y-89088095D01*
X78195237Y-89135714D01*
X78195237Y-89230952D01*
X78219046Y-89278571D01*
X78242856Y-89302380D01*
X78290475Y-89326190D01*
X78385713Y-89326190D01*
X78433332Y-89302380D01*
X78457141Y-89278571D01*
X78480951Y-89230952D01*
X78480951Y-89135714D01*
X78457141Y-89088095D01*
X78433332Y-89064285D01*
X78385713Y-89040476D01*
X74828571Y-84278571D02*
X74804761Y-84302380D01*
X74733333Y-84326190D01*
X74685714Y-84326190D01*
X74614285Y-84302380D01*
X74566666Y-84254761D01*
X74542857Y-84207142D01*
X74519047Y-84111904D01*
X74519047Y-84040476D01*
X74542857Y-83945238D01*
X74566666Y-83897619D01*
X74614285Y-83850000D01*
X74685714Y-83826190D01*
X74733333Y-83826190D01*
X74804761Y-83850000D01*
X74828571Y-83873809D01*
X75257142Y-83992857D02*
X75257142Y-84326190D01*
X75138095Y-83802380D02*
X75019047Y-84159523D01*
X75328571Y-84159523D01*
X75471428Y-83826190D02*
X75804761Y-83826190D01*
X75590476Y-84326190D01*
X76528571Y-91778571D02*
X76504761Y-91802380D01*
X76433333Y-91826190D01*
X76385714Y-91826190D01*
X76314285Y-91802380D01*
X76266666Y-91754761D01*
X76242857Y-91707142D01*
X76219047Y-91611904D01*
X76219047Y-91540476D01*
X76242857Y-91445238D01*
X76266666Y-91397619D01*
X76314285Y-91350000D01*
X76385714Y-91326190D01*
X76433333Y-91326190D01*
X76504761Y-91350000D01*
X76528571Y-91373809D01*
X76957142Y-91492857D02*
X76957142Y-91826190D01*
X76838095Y-91302380D02*
X76719047Y-91659523D01*
X77028571Y-91659523D01*
X77433333Y-91326190D02*
X77338095Y-91326190D01*
X77290476Y-91350000D01*
X77266666Y-91373809D01*
X77219047Y-91445238D01*
X77195238Y-91540476D01*
X77195238Y-91730952D01*
X77219047Y-91778571D01*
X77242857Y-91802380D01*
X77290476Y-91826190D01*
X77385714Y-91826190D01*
X77433333Y-91802380D01*
X77457142Y-91778571D01*
X77480952Y-91730952D01*
X77480952Y-91611904D01*
X77457142Y-91564285D01*
X77433333Y-91540476D01*
X77385714Y-91516666D01*
X77290476Y-91516666D01*
X77242857Y-91540476D01*
X77219047Y-91564285D01*
X77195238Y-91611904D01*
X74828571Y-81978570D02*
X74804761Y-82002379D01*
X74733333Y-82026189D01*
X74685714Y-82026189D01*
X74614285Y-82002379D01*
X74566666Y-81954760D01*
X74542857Y-81907141D01*
X74519047Y-81811903D01*
X74519047Y-81740475D01*
X74542857Y-81645237D01*
X74566666Y-81597618D01*
X74614285Y-81549999D01*
X74685714Y-81526189D01*
X74733333Y-81526189D01*
X74804761Y-81549999D01*
X74828571Y-81573808D01*
X75257142Y-81692856D02*
X75257142Y-82026189D01*
X75138095Y-81502379D02*
X75019047Y-81859522D01*
X75328571Y-81859522D01*
X75757142Y-81526189D02*
X75519047Y-81526189D01*
X75495238Y-81764284D01*
X75519047Y-81740475D01*
X75566666Y-81716665D01*
X75685714Y-81716665D01*
X75733333Y-81740475D01*
X75757142Y-81764284D01*
X75780952Y-81811903D01*
X75780952Y-81930951D01*
X75757142Y-81978570D01*
X75733333Y-82002379D01*
X75685714Y-82026189D01*
X75566666Y-82026189D01*
X75519047Y-82002379D01*
X75495238Y-81978570D01*
X88828571Y-80628571D02*
X88804761Y-80652380D01*
X88733333Y-80676190D01*
X88685714Y-80676190D01*
X88614285Y-80652380D01*
X88566666Y-80604761D01*
X88542857Y-80557142D01*
X88519047Y-80461904D01*
X88519047Y-80390476D01*
X88542857Y-80295238D01*
X88566666Y-80247619D01*
X88614285Y-80200000D01*
X88685714Y-80176190D01*
X88733333Y-80176190D01*
X88804761Y-80200000D01*
X88828571Y-80223809D01*
X89257142Y-80342857D02*
X89257142Y-80676190D01*
X89138095Y-80152380D02*
X89019047Y-80509523D01*
X89328571Y-80509523D01*
X89733333Y-80342857D02*
X89733333Y-80676190D01*
X89614285Y-80152380D02*
X89495238Y-80509523D01*
X89804761Y-80509523D01*
X92378571Y-81878571D02*
X92354761Y-81902380D01*
X92283333Y-81926190D01*
X92235714Y-81926190D01*
X92164285Y-81902380D01*
X92116666Y-81854761D01*
X92092857Y-81807142D01*
X92069047Y-81711904D01*
X92069047Y-81640476D01*
X92092857Y-81545238D01*
X92116666Y-81497619D01*
X92164285Y-81450000D01*
X92235714Y-81426190D01*
X92283333Y-81426190D01*
X92354761Y-81450000D01*
X92378571Y-81473809D01*
X92807142Y-81592857D02*
X92807142Y-81926190D01*
X92688095Y-81402380D02*
X92569047Y-81759523D01*
X92878571Y-81759523D01*
X93021428Y-81426190D02*
X93330952Y-81426190D01*
X93164285Y-81616666D01*
X93235714Y-81616666D01*
X93283333Y-81640476D01*
X93307142Y-81664285D01*
X93330952Y-81711904D01*
X93330952Y-81830952D01*
X93307142Y-81878571D01*
X93283333Y-81902380D01*
X93235714Y-81926190D01*
X93092857Y-81926190D01*
X93045238Y-81902380D01*
X93021428Y-81878571D01*
X92278571Y-84228571D02*
X92254761Y-84252380D01*
X92183333Y-84276190D01*
X92135714Y-84276190D01*
X92064285Y-84252380D01*
X92016666Y-84204761D01*
X91992857Y-84157142D01*
X91969047Y-84061904D01*
X91969047Y-83990476D01*
X91992857Y-83895238D01*
X92016666Y-83847619D01*
X92064285Y-83800000D01*
X92135714Y-83776190D01*
X92183333Y-83776190D01*
X92254761Y-83800000D01*
X92278571Y-83823809D01*
X92707142Y-83942857D02*
X92707142Y-84276190D01*
X92588095Y-83752380D02*
X92469047Y-84109523D01*
X92778571Y-84109523D01*
X92945238Y-83823809D02*
X92969047Y-83800000D01*
X93016666Y-83776190D01*
X93135714Y-83776190D01*
X93183333Y-83800000D01*
X93207142Y-83823809D01*
X93230952Y-83871428D01*
X93230952Y-83919047D01*
X93207142Y-83990476D01*
X92921428Y-84276190D01*
X93230952Y-84276190D01*
X96028571Y-87028571D02*
X96004761Y-87052380D01*
X95933333Y-87076190D01*
X95885714Y-87076190D01*
X95814285Y-87052380D01*
X95766666Y-87004761D01*
X95742857Y-86957142D01*
X95719047Y-86861904D01*
X95719047Y-86790476D01*
X95742857Y-86695238D01*
X95766666Y-86647619D01*
X95814285Y-86600000D01*
X95885714Y-86576190D01*
X95933333Y-86576190D01*
X96004761Y-86600000D01*
X96028571Y-86623809D01*
X96457142Y-86742857D02*
X96457142Y-87076190D01*
X96338095Y-86552380D02*
X96219047Y-86909523D01*
X96528571Y-86909523D01*
X96980952Y-87076190D02*
X96695238Y-87076190D01*
X96838095Y-87076190D02*
X96838095Y-86576190D01*
X96790476Y-86647619D01*
X96742857Y-86695238D01*
X96695238Y-86719047D01*
X97428571Y-87028571D02*
X97404761Y-87052380D01*
X97333333Y-87076190D01*
X97285714Y-87076190D01*
X97214285Y-87052380D01*
X97166666Y-87004761D01*
X97142857Y-86957142D01*
X97119047Y-86861904D01*
X97119047Y-86790476D01*
X97142857Y-86695238D01*
X97166666Y-86647619D01*
X97214285Y-86600000D01*
X97285714Y-86576190D01*
X97333333Y-86576190D01*
X97404761Y-86600000D01*
X97428571Y-86623809D01*
X97857142Y-86742857D02*
X97857142Y-87076190D01*
X97738095Y-86552380D02*
X97619047Y-86909523D01*
X97928571Y-86909523D01*
X98214285Y-86576190D02*
X98261904Y-86576190D01*
X98309523Y-86600000D01*
X98333333Y-86623809D01*
X98357142Y-86671428D01*
X98380952Y-86766666D01*
X98380952Y-86885714D01*
X98357142Y-86980952D01*
X98333333Y-87028571D01*
X98309523Y-87052380D01*
X98261904Y-87076190D01*
X98214285Y-87076190D01*
X98166666Y-87052380D01*
X98142857Y-87028571D01*
X98119047Y-86980952D01*
X98095238Y-86885714D01*
X98095238Y-86766666D01*
X98119047Y-86671428D01*
X98142857Y-86623809D01*
X98166666Y-86600000D01*
X98214285Y-86576190D01*
X92978571Y-73378571D02*
X92954761Y-73402380D01*
X92883333Y-73426190D01*
X92835714Y-73426190D01*
X92764285Y-73402380D01*
X92716666Y-73354761D01*
X92692857Y-73307142D01*
X92669047Y-73211904D01*
X92669047Y-73140476D01*
X92692857Y-73045238D01*
X92716666Y-72997619D01*
X92764285Y-72950000D01*
X92835714Y-72926190D01*
X92883333Y-72926190D01*
X92954761Y-72950000D01*
X92978571Y-72973809D01*
X93145238Y-72926190D02*
X93454761Y-72926190D01*
X93288095Y-73116666D01*
X93359523Y-73116666D01*
X93407142Y-73140476D01*
X93430952Y-73164285D01*
X93454761Y-73211904D01*
X93454761Y-73330952D01*
X93430952Y-73378571D01*
X93407142Y-73402380D01*
X93359523Y-73426190D01*
X93216666Y-73426190D01*
X93169047Y-73402380D01*
X93145238Y-73378571D01*
X93692857Y-73426190D02*
X93788095Y-73426190D01*
X93835714Y-73402380D01*
X93859523Y-73378571D01*
X93907142Y-73307142D01*
X93930952Y-73211904D01*
X93930952Y-73021428D01*
X93907142Y-72973809D01*
X93883333Y-72950000D01*
X93835714Y-72926190D01*
X93740476Y-72926190D01*
X93692857Y-72950000D01*
X93669047Y-72973809D01*
X93645238Y-73021428D01*
X93645238Y-73140476D01*
X93669047Y-73188095D01*
X93692857Y-73211904D01*
X93740476Y-73235714D01*
X93835714Y-73235714D01*
X93883333Y-73211904D01*
X93907142Y-73188095D01*
X93930952Y-73140476D01*
X88178571Y-79178571D02*
X88154761Y-79202380D01*
X88083333Y-79226190D01*
X88035714Y-79226190D01*
X87964285Y-79202380D01*
X87916666Y-79154761D01*
X87892857Y-79107142D01*
X87869047Y-79011904D01*
X87869047Y-78940476D01*
X87892857Y-78845238D01*
X87916666Y-78797619D01*
X87964285Y-78750000D01*
X88035714Y-78726190D01*
X88083333Y-78726190D01*
X88154761Y-78750000D01*
X88178571Y-78773809D01*
X88345238Y-78726190D02*
X88654761Y-78726190D01*
X88488095Y-78916666D01*
X88559523Y-78916666D01*
X88607142Y-78940476D01*
X88630952Y-78964285D01*
X88654761Y-79011904D01*
X88654761Y-79130952D01*
X88630952Y-79178571D01*
X88607142Y-79202380D01*
X88559523Y-79226190D01*
X88416666Y-79226190D01*
X88369047Y-79202380D01*
X88345238Y-79178571D01*
X88940476Y-78940476D02*
X88892857Y-78916666D01*
X88869047Y-78892857D01*
X88845238Y-78845238D01*
X88845238Y-78821428D01*
X88869047Y-78773809D01*
X88892857Y-78750000D01*
X88940476Y-78726190D01*
X89035714Y-78726190D01*
X89083333Y-78750000D01*
X89107142Y-78773809D01*
X89130952Y-78821428D01*
X89130952Y-78845238D01*
X89107142Y-78892857D01*
X89083333Y-78916666D01*
X89035714Y-78940476D01*
X88940476Y-78940476D01*
X88892857Y-78964285D01*
X88869047Y-78988095D01*
X88845238Y-79035714D01*
X88845238Y-79130952D01*
X88869047Y-79178571D01*
X88892857Y-79202380D01*
X88940476Y-79226190D01*
X89035714Y-79226190D01*
X89083333Y-79202380D01*
X89107142Y-79178571D01*
X89130952Y-79130952D01*
X89130952Y-79035714D01*
X89107142Y-78988095D01*
X89083333Y-78964285D01*
X89035714Y-78940476D01*
X70378571Y-81078571D02*
X70354761Y-81102380D01*
X70283333Y-81126190D01*
X70235714Y-81126190D01*
X70164285Y-81102380D01*
X70116666Y-81054761D01*
X70092857Y-81007142D01*
X70069047Y-80911904D01*
X70069047Y-80840476D01*
X70092857Y-80745238D01*
X70116666Y-80697619D01*
X70164285Y-80650000D01*
X70235714Y-80626190D01*
X70283333Y-80626190D01*
X70354761Y-80650000D01*
X70378571Y-80673809D01*
X70545238Y-80626190D02*
X70854761Y-80626190D01*
X70688095Y-80816666D01*
X70759523Y-80816666D01*
X70807142Y-80840476D01*
X70830952Y-80864285D01*
X70854761Y-80911904D01*
X70854761Y-81030952D01*
X70830952Y-81078571D01*
X70807142Y-81102380D01*
X70759523Y-81126190D01*
X70616666Y-81126190D01*
X70569047Y-81102380D01*
X70545238Y-81078571D01*
X71283333Y-80626190D02*
X71188095Y-80626190D01*
X71140476Y-80650000D01*
X71116666Y-80673809D01*
X71069047Y-80745238D01*
X71045238Y-80840476D01*
X71045238Y-81030952D01*
X71069047Y-81078571D01*
X71092857Y-81102380D01*
X71140476Y-81126190D01*
X71235714Y-81126190D01*
X71283333Y-81102380D01*
X71307142Y-81078571D01*
X71330952Y-81030952D01*
X71330952Y-80911904D01*
X71307142Y-80864285D01*
X71283333Y-80840476D01*
X71235714Y-80816666D01*
X71140476Y-80816666D01*
X71092857Y-80840476D01*
X71069047Y-80864285D01*
X71045238Y-80911904D01*
X87828571Y-79828571D02*
X87804761Y-79852380D01*
X87733333Y-79876190D01*
X87685714Y-79876190D01*
X87614285Y-79852380D01*
X87566666Y-79804761D01*
X87542857Y-79757142D01*
X87519047Y-79661904D01*
X87519047Y-79590476D01*
X87542857Y-79495238D01*
X87566666Y-79447619D01*
X87614285Y-79400000D01*
X87685714Y-79376190D01*
X87733333Y-79376190D01*
X87804761Y-79400000D01*
X87828571Y-79423809D01*
X87995238Y-79376190D02*
X88304761Y-79376190D01*
X88138095Y-79566666D01*
X88209523Y-79566666D01*
X88257142Y-79590476D01*
X88280952Y-79614285D01*
X88304761Y-79661904D01*
X88304761Y-79780952D01*
X88280952Y-79828571D01*
X88257142Y-79852380D01*
X88209523Y-79876190D01*
X88066666Y-79876190D01*
X88019047Y-79852380D01*
X87995238Y-79828571D01*
X88733333Y-79542857D02*
X88733333Y-79876190D01*
X88614285Y-79352380D02*
X88495238Y-79709523D01*
X88804761Y-79709523D01*
X92378571Y-74378571D02*
X92354761Y-74402380D01*
X92283333Y-74426190D01*
X92235714Y-74426190D01*
X92164285Y-74402380D01*
X92116666Y-74354761D01*
X92092857Y-74307142D01*
X92069047Y-74211904D01*
X92069047Y-74140476D01*
X92092857Y-74045238D01*
X92116666Y-73997619D01*
X92164285Y-73950000D01*
X92235714Y-73926190D01*
X92283333Y-73926190D01*
X92354761Y-73950000D01*
X92378571Y-73973809D01*
X92545238Y-73926190D02*
X92854761Y-73926190D01*
X92688095Y-74116666D01*
X92759523Y-74116666D01*
X92807142Y-74140476D01*
X92830952Y-74164285D01*
X92854761Y-74211904D01*
X92854761Y-74330952D01*
X92830952Y-74378571D01*
X92807142Y-74402380D01*
X92759523Y-74426190D01*
X92616666Y-74426190D01*
X92569047Y-74402380D01*
X92545238Y-74378571D01*
X93045238Y-73973809D02*
X93069047Y-73950000D01*
X93116666Y-73926190D01*
X93235714Y-73926190D01*
X93283333Y-73950000D01*
X93307142Y-73973809D01*
X93330952Y-74021428D01*
X93330952Y-74069047D01*
X93307142Y-74140476D01*
X93021428Y-74426190D01*
X93330952Y-74426190D01*
X72428571Y-75978571D02*
X72404761Y-76002380D01*
X72333333Y-76026190D01*
X72285714Y-76026190D01*
X72214285Y-76002380D01*
X72166666Y-75954761D01*
X72142857Y-75907142D01*
X72119047Y-75811904D01*
X72119047Y-75740476D01*
X72142857Y-75645238D01*
X72166666Y-75597619D01*
X72214285Y-75550000D01*
X72285714Y-75526190D01*
X72333333Y-75526190D01*
X72404761Y-75550000D01*
X72428571Y-75573809D01*
X72595238Y-75526190D02*
X72904761Y-75526190D01*
X72738095Y-75716666D01*
X72809523Y-75716666D01*
X72857142Y-75740476D01*
X72880952Y-75764285D01*
X72904761Y-75811904D01*
X72904761Y-75930952D01*
X72880952Y-75978571D01*
X72857142Y-76002380D01*
X72809523Y-76026190D01*
X72666666Y-76026190D01*
X72619047Y-76002380D01*
X72595238Y-75978571D01*
X73214285Y-75526190D02*
X73261904Y-75526190D01*
X73309523Y-75550000D01*
X73333333Y-75573809D01*
X73357142Y-75621428D01*
X73380952Y-75716666D01*
X73380952Y-75835714D01*
X73357142Y-75930952D01*
X73333333Y-75978571D01*
X73309523Y-76002380D01*
X73261904Y-76026190D01*
X73214285Y-76026190D01*
X73166666Y-76002380D01*
X73142857Y-75978571D01*
X73119047Y-75930952D01*
X73095238Y-75835714D01*
X73095238Y-75716666D01*
X73119047Y-75621428D01*
X73142857Y-75573809D01*
X73166666Y-75550000D01*
X73214285Y-75526190D01*
X73578571Y-87028571D02*
X73554761Y-87052380D01*
X73483333Y-87076190D01*
X73435714Y-87076190D01*
X73364285Y-87052380D01*
X73316666Y-87004761D01*
X73292857Y-86957142D01*
X73269047Y-86861904D01*
X73269047Y-86790476D01*
X73292857Y-86695238D01*
X73316666Y-86647619D01*
X73364285Y-86600000D01*
X73435714Y-86576190D01*
X73483333Y-86576190D01*
X73554761Y-86600000D01*
X73578571Y-86623809D01*
X73769047Y-86623809D02*
X73792857Y-86600000D01*
X73840476Y-86576190D01*
X73959523Y-86576190D01*
X74007142Y-86600000D01*
X74030952Y-86623809D01*
X74054761Y-86671428D01*
X74054761Y-86719047D01*
X74030952Y-86790476D01*
X73745238Y-87076190D01*
X74054761Y-87076190D01*
X74292857Y-87076190D02*
X74388095Y-87076190D01*
X74435714Y-87052380D01*
X74459523Y-87028571D01*
X74507142Y-86957142D01*
X74530952Y-86861904D01*
X74530952Y-86671428D01*
X74507142Y-86623809D01*
X74483333Y-86600000D01*
X74435714Y-86576190D01*
X74340476Y-86576190D01*
X74292857Y-86600000D01*
X74269047Y-86623809D01*
X74245238Y-86671428D01*
X74245238Y-86790476D01*
X74269047Y-86838095D01*
X74292857Y-86861904D01*
X74340476Y-86885714D01*
X74435714Y-86885714D01*
X74483333Y-86861904D01*
X74507142Y-86838095D01*
X74530952Y-86790476D01*
X73578571Y-88228571D02*
X73554761Y-88252380D01*
X73483333Y-88276190D01*
X73435714Y-88276190D01*
X73364285Y-88252380D01*
X73316666Y-88204761D01*
X73292857Y-88157142D01*
X73269047Y-88061904D01*
X73269047Y-87990476D01*
X73292857Y-87895238D01*
X73316666Y-87847619D01*
X73364285Y-87800000D01*
X73435714Y-87776190D01*
X73483333Y-87776190D01*
X73554761Y-87800000D01*
X73578571Y-87823809D01*
X73769047Y-87823809D02*
X73792857Y-87800000D01*
X73840476Y-87776190D01*
X73959523Y-87776190D01*
X74007142Y-87800000D01*
X74030952Y-87823809D01*
X74054761Y-87871428D01*
X74054761Y-87919047D01*
X74030952Y-87990476D01*
X73745238Y-88276190D01*
X74054761Y-88276190D01*
X74340476Y-87990476D02*
X74292857Y-87966666D01*
X74269047Y-87942857D01*
X74245238Y-87895238D01*
X74245238Y-87871428D01*
X74269047Y-87823809D01*
X74292857Y-87800000D01*
X74340476Y-87776190D01*
X74435714Y-87776190D01*
X74483333Y-87800000D01*
X74507142Y-87823809D01*
X74530952Y-87871428D01*
X74530952Y-87895238D01*
X74507142Y-87942857D01*
X74483333Y-87966666D01*
X74435714Y-87990476D01*
X74340476Y-87990476D01*
X74292857Y-88014285D01*
X74269047Y-88038095D01*
X74245238Y-88085714D01*
X74245238Y-88180952D01*
X74269047Y-88228571D01*
X74292857Y-88252380D01*
X74340476Y-88276190D01*
X74435714Y-88276190D01*
X74483333Y-88252380D01*
X74507142Y-88228571D01*
X74530952Y-88180952D01*
X74530952Y-88085714D01*
X74507142Y-88038095D01*
X74483333Y-88014285D01*
X74435714Y-87990476D01*
X64628571Y-97878571D02*
X64604761Y-97902380D01*
X64533333Y-97926190D01*
X64485714Y-97926190D01*
X64414285Y-97902380D01*
X64366666Y-97854761D01*
X64342857Y-97807142D01*
X64319047Y-97711904D01*
X64319047Y-97640476D01*
X64342857Y-97545238D01*
X64366666Y-97497619D01*
X64414285Y-97450000D01*
X64485714Y-97426190D01*
X64533333Y-97426190D01*
X64604761Y-97450000D01*
X64628571Y-97473809D01*
X64819047Y-97473809D02*
X64842857Y-97450000D01*
X64890476Y-97426190D01*
X65009523Y-97426190D01*
X65057142Y-97450000D01*
X65080952Y-97473809D01*
X65104761Y-97521428D01*
X65104761Y-97569047D01*
X65080952Y-97640476D01*
X64795238Y-97926190D01*
X65104761Y-97926190D01*
X65271428Y-97426190D02*
X65604761Y-97426190D01*
X65390476Y-97926190D01*
X65628571Y-98478571D02*
X65604761Y-98502380D01*
X65533333Y-98526190D01*
X65485714Y-98526190D01*
X65414285Y-98502380D01*
X65366666Y-98454761D01*
X65342857Y-98407142D01*
X65319047Y-98311904D01*
X65319047Y-98240476D01*
X65342857Y-98145238D01*
X65366666Y-98097619D01*
X65414285Y-98050000D01*
X65485714Y-98026190D01*
X65533333Y-98026190D01*
X65604761Y-98050000D01*
X65628571Y-98073809D01*
X65819047Y-98073809D02*
X65842857Y-98050000D01*
X65890476Y-98026190D01*
X66009523Y-98026190D01*
X66057142Y-98050000D01*
X66080952Y-98073809D01*
X66104761Y-98121428D01*
X66104761Y-98169047D01*
X66080952Y-98240476D01*
X65795238Y-98526190D01*
X66104761Y-98526190D01*
X66533333Y-98026190D02*
X66438095Y-98026190D01*
X66390476Y-98050000D01*
X66366666Y-98073809D01*
X66319047Y-98145238D01*
X66295238Y-98240476D01*
X66295238Y-98430952D01*
X66319047Y-98478571D01*
X66342857Y-98502380D01*
X66390476Y-98526190D01*
X66485714Y-98526190D01*
X66533333Y-98502380D01*
X66557142Y-98478571D01*
X66580952Y-98430952D01*
X66580952Y-98311904D01*
X66557142Y-98264285D01*
X66533333Y-98240476D01*
X66485714Y-98216666D01*
X66390476Y-98216666D01*
X66342857Y-98240476D01*
X66319047Y-98264285D01*
X66295238Y-98311904D01*
X73578571Y-87628571D02*
X73554761Y-87652380D01*
X73483333Y-87676190D01*
X73435714Y-87676190D01*
X73364285Y-87652380D01*
X73316666Y-87604761D01*
X73292857Y-87557142D01*
X73269047Y-87461904D01*
X73269047Y-87390476D01*
X73292857Y-87295238D01*
X73316666Y-87247619D01*
X73364285Y-87200000D01*
X73435714Y-87176190D01*
X73483333Y-87176190D01*
X73554761Y-87200000D01*
X73578571Y-87223809D01*
X73769047Y-87223809D02*
X73792857Y-87200000D01*
X73840476Y-87176190D01*
X73959523Y-87176190D01*
X74007142Y-87200000D01*
X74030952Y-87223809D01*
X74054761Y-87271428D01*
X74054761Y-87319047D01*
X74030952Y-87390476D01*
X73745238Y-87676190D01*
X74054761Y-87676190D01*
X74507142Y-87176190D02*
X74269047Y-87176190D01*
X74245238Y-87414285D01*
X74269047Y-87390476D01*
X74316666Y-87366666D01*
X74435714Y-87366666D01*
X74483333Y-87390476D01*
X74507142Y-87414285D01*
X74530952Y-87461904D01*
X74530952Y-87580952D01*
X74507142Y-87628571D01*
X74483333Y-87652380D01*
X74435714Y-87676190D01*
X74316666Y-87676190D01*
X74269047Y-87652380D01*
X74245238Y-87628571D01*
X59028571Y-88528571D02*
X59004761Y-88552380D01*
X58933333Y-88576190D01*
X58885714Y-88576190D01*
X58814285Y-88552380D01*
X58766666Y-88504761D01*
X58742857Y-88457142D01*
X58719047Y-88361904D01*
X58719047Y-88290476D01*
X58742857Y-88195238D01*
X58766666Y-88147619D01*
X58814285Y-88100000D01*
X58885714Y-88076190D01*
X58933333Y-88076190D01*
X59004761Y-88100000D01*
X59028571Y-88123809D01*
X59219047Y-88123809D02*
X59242857Y-88100000D01*
X59290476Y-88076190D01*
X59409523Y-88076190D01*
X59457142Y-88100000D01*
X59480952Y-88123809D01*
X59504761Y-88171428D01*
X59504761Y-88219047D01*
X59480952Y-88290476D01*
X59195238Y-88576190D01*
X59504761Y-88576190D01*
X59933333Y-88242857D02*
X59933333Y-88576190D01*
X59814285Y-88052380D02*
X59695238Y-88409523D01*
X60004761Y-88409523D01*
X69728571Y-87878571D02*
X69704761Y-87902380D01*
X69633333Y-87926190D01*
X69585714Y-87926190D01*
X69514285Y-87902380D01*
X69466666Y-87854761D01*
X69442857Y-87807142D01*
X69419047Y-87711904D01*
X69419047Y-87640476D01*
X69442857Y-87545238D01*
X69466666Y-87497619D01*
X69514285Y-87450000D01*
X69585714Y-87426190D01*
X69633333Y-87426190D01*
X69704761Y-87450000D01*
X69728571Y-87473809D01*
X69919047Y-87473809D02*
X69942857Y-87450000D01*
X69990476Y-87426190D01*
X70109523Y-87426190D01*
X70157142Y-87450000D01*
X70180952Y-87473809D01*
X70204761Y-87521428D01*
X70204761Y-87569047D01*
X70180952Y-87640476D01*
X69895238Y-87926190D01*
X70204761Y-87926190D01*
X70371428Y-87426190D02*
X70680952Y-87426190D01*
X70514285Y-87616666D01*
X70585714Y-87616666D01*
X70633333Y-87640476D01*
X70657142Y-87664285D01*
X70680952Y-87711904D01*
X70680952Y-87830952D01*
X70657142Y-87878571D01*
X70633333Y-87902380D01*
X70585714Y-87926190D01*
X70442857Y-87926190D01*
X70395238Y-87902380D01*
X70371428Y-87878571D01*
X67178571Y-81978571D02*
X67154761Y-82002380D01*
X67083333Y-82026190D01*
X67035714Y-82026190D01*
X66964285Y-82002380D01*
X66916666Y-81954761D01*
X66892857Y-81907142D01*
X66869047Y-81811904D01*
X66869047Y-81740476D01*
X66892857Y-81645238D01*
X66916666Y-81597619D01*
X66964285Y-81550000D01*
X67035714Y-81526190D01*
X67083333Y-81526190D01*
X67154761Y-81550000D01*
X67178571Y-81573809D01*
X67369047Y-81573809D02*
X67392857Y-81550000D01*
X67440476Y-81526190D01*
X67559523Y-81526190D01*
X67607142Y-81550000D01*
X67630952Y-81573809D01*
X67654761Y-81621428D01*
X67654761Y-81669047D01*
X67630952Y-81740476D01*
X67345238Y-82026190D01*
X67654761Y-82026190D01*
X67845238Y-81573809D02*
X67869047Y-81550000D01*
X67916666Y-81526190D01*
X68035714Y-81526190D01*
X68083333Y-81550000D01*
X68107142Y-81573809D01*
X68130952Y-81621428D01*
X68130952Y-81669047D01*
X68107142Y-81740476D01*
X67821428Y-82026190D01*
X68130952Y-82026190D01*
X75928571Y-89978571D02*
X75904761Y-90002380D01*
X75833333Y-90026190D01*
X75785714Y-90026190D01*
X75714285Y-90002380D01*
X75666666Y-89954761D01*
X75642857Y-89907142D01*
X75619047Y-89811904D01*
X75619047Y-89740476D01*
X75642857Y-89645238D01*
X75666666Y-89597619D01*
X75714285Y-89550000D01*
X75785714Y-89526190D01*
X75833333Y-89526190D01*
X75904761Y-89550000D01*
X75928571Y-89573809D01*
X76119047Y-89573809D02*
X76142857Y-89550000D01*
X76190476Y-89526190D01*
X76309523Y-89526190D01*
X76357142Y-89550000D01*
X76380952Y-89573809D01*
X76404761Y-89621428D01*
X76404761Y-89669047D01*
X76380952Y-89740476D01*
X76095238Y-90026190D01*
X76404761Y-90026190D01*
X76880952Y-90026190D02*
X76595238Y-90026190D01*
X76738095Y-90026190D02*
X76738095Y-89526190D01*
X76690476Y-89597619D01*
X76642857Y-89645238D01*
X76595238Y-89669047D01*
X73628571Y-92578571D02*
X73604761Y-92602380D01*
X73533333Y-92626190D01*
X73485714Y-92626190D01*
X73414285Y-92602380D01*
X73366666Y-92554761D01*
X73342857Y-92507142D01*
X73319047Y-92411904D01*
X73319047Y-92340476D01*
X73342857Y-92245238D01*
X73366666Y-92197619D01*
X73414285Y-92150000D01*
X73485714Y-92126190D01*
X73533333Y-92126190D01*
X73604761Y-92150000D01*
X73628571Y-92173809D01*
X73819047Y-92173809D02*
X73842857Y-92150000D01*
X73890476Y-92126190D01*
X74009523Y-92126190D01*
X74057142Y-92150000D01*
X74080952Y-92173809D01*
X74104761Y-92221428D01*
X74104761Y-92269047D01*
X74080952Y-92340476D01*
X73795238Y-92626190D01*
X74104761Y-92626190D01*
X74414285Y-92126190D02*
X74461904Y-92126190D01*
X74509523Y-92150000D01*
X74533333Y-92173809D01*
X74557142Y-92221428D01*
X74580952Y-92316666D01*
X74580952Y-92435714D01*
X74557142Y-92530952D01*
X74533333Y-92578571D01*
X74509523Y-92602380D01*
X74461904Y-92626190D01*
X74414285Y-92626190D01*
X74366666Y-92602380D01*
X74342857Y-92578571D01*
X74319047Y-92530952D01*
X74295238Y-92435714D01*
X74295238Y-92316666D01*
X74319047Y-92221428D01*
X74342857Y-92173809D01*
X74366666Y-92150000D01*
X74414285Y-92126190D01*
X66778571Y-97878571D02*
X66754761Y-97902380D01*
X66683333Y-97926190D01*
X66635714Y-97926190D01*
X66564285Y-97902380D01*
X66516666Y-97854761D01*
X66492857Y-97807142D01*
X66469047Y-97711904D01*
X66469047Y-97640476D01*
X66492857Y-97545238D01*
X66516666Y-97497619D01*
X66564285Y-97450000D01*
X66635714Y-97426190D01*
X66683333Y-97426190D01*
X66754761Y-97450000D01*
X66778571Y-97473809D01*
X67254761Y-97926190D02*
X66969047Y-97926190D01*
X67111904Y-97926190D02*
X67111904Y-97426190D01*
X67064285Y-97497619D01*
X67016666Y-97545238D01*
X66969047Y-97569047D01*
X67492857Y-97926190D02*
X67588095Y-97926190D01*
X67635714Y-97902380D01*
X67659523Y-97878571D01*
X67707142Y-97807142D01*
X67730952Y-97711904D01*
X67730952Y-97521428D01*
X67707142Y-97473809D01*
X67683333Y-97450000D01*
X67635714Y-97426190D01*
X67540476Y-97426190D01*
X67492857Y-97450000D01*
X67469047Y-97473809D01*
X67445238Y-97521428D01*
X67445238Y-97640476D01*
X67469047Y-97688095D01*
X67492857Y-97711904D01*
X67540476Y-97735714D01*
X67635714Y-97735714D01*
X67683333Y-97711904D01*
X67707142Y-97688095D01*
X67730952Y-97640476D01*
X59428571Y-86828571D02*
X59404761Y-86852380D01*
X59333333Y-86876190D01*
X59285714Y-86876190D01*
X59214285Y-86852380D01*
X59166666Y-86804761D01*
X59142857Y-86757142D01*
X59119047Y-86661904D01*
X59119047Y-86590476D01*
X59142857Y-86495238D01*
X59166666Y-86447619D01*
X59214285Y-86400000D01*
X59285714Y-86376190D01*
X59333333Y-86376190D01*
X59404761Y-86400000D01*
X59428571Y-86423809D01*
X59904761Y-86876190D02*
X59619047Y-86876190D01*
X59761904Y-86876190D02*
X59761904Y-86376190D01*
X59714285Y-86447619D01*
X59666666Y-86495238D01*
X59619047Y-86519047D01*
X60190476Y-86590476D02*
X60142857Y-86566666D01*
X60119047Y-86542857D01*
X60095238Y-86495238D01*
X60095238Y-86471428D01*
X60119047Y-86423809D01*
X60142857Y-86400000D01*
X60190476Y-86376190D01*
X60285714Y-86376190D01*
X60333333Y-86400000D01*
X60357142Y-86423809D01*
X60380952Y-86471428D01*
X60380952Y-86495238D01*
X60357142Y-86542857D01*
X60333333Y-86566666D01*
X60285714Y-86590476D01*
X60190476Y-86590476D01*
X60142857Y-86614285D01*
X60119047Y-86638095D01*
X60095238Y-86685714D01*
X60095238Y-86780952D01*
X60119047Y-86828571D01*
X60142857Y-86852380D01*
X60190476Y-86876190D01*
X60285714Y-86876190D01*
X60333333Y-86852380D01*
X60357142Y-86828571D01*
X60380952Y-86780952D01*
X60380952Y-86685714D01*
X60357142Y-86638095D01*
X60333333Y-86614285D01*
X60285714Y-86590476D01*
X68428571Y-87228571D02*
X68404761Y-87252380D01*
X68333333Y-87276190D01*
X68285714Y-87276190D01*
X68214285Y-87252380D01*
X68166666Y-87204761D01*
X68142857Y-87157142D01*
X68119047Y-87061904D01*
X68119047Y-86990476D01*
X68142857Y-86895238D01*
X68166666Y-86847619D01*
X68214285Y-86800000D01*
X68285714Y-86776190D01*
X68333333Y-86776190D01*
X68404761Y-86800000D01*
X68428571Y-86823809D01*
X68904761Y-87276190D02*
X68619047Y-87276190D01*
X68761904Y-87276190D02*
X68761904Y-86776190D01*
X68714285Y-86847619D01*
X68666666Y-86895238D01*
X68619047Y-86919047D01*
X69071428Y-86776190D02*
X69404761Y-86776190D01*
X69190476Y-87276190D01*
X74828571Y-91528571D02*
X74804761Y-91552380D01*
X74733333Y-91576190D01*
X74685714Y-91576190D01*
X74614285Y-91552380D01*
X74566666Y-91504761D01*
X74542857Y-91457142D01*
X74519047Y-91361904D01*
X74519047Y-91290476D01*
X74542857Y-91195238D01*
X74566666Y-91147619D01*
X74614285Y-91100000D01*
X74685714Y-91076190D01*
X74733333Y-91076190D01*
X74804761Y-91100000D01*
X74828571Y-91123809D01*
X75304761Y-91576190D02*
X75019047Y-91576190D01*
X75161904Y-91576190D02*
X75161904Y-91076190D01*
X75114285Y-91147619D01*
X75066666Y-91195238D01*
X75019047Y-91219047D01*
X75733333Y-91076190D02*
X75638095Y-91076190D01*
X75590476Y-91100000D01*
X75566666Y-91123809D01*
X75519047Y-91195238D01*
X75495238Y-91290476D01*
X75495238Y-91480952D01*
X75519047Y-91528571D01*
X75542857Y-91552380D01*
X75590476Y-91576190D01*
X75685714Y-91576190D01*
X75733333Y-91552380D01*
X75757142Y-91528571D01*
X75780952Y-91480952D01*
X75780952Y-91361904D01*
X75757142Y-91314285D01*
X75733333Y-91290476D01*
X75685714Y-91266666D01*
X75590476Y-91266666D01*
X75542857Y-91290476D01*
X75519047Y-91314285D01*
X75495238Y-91361904D01*
X73628571Y-93678571D02*
X73604761Y-93702380D01*
X73533333Y-93726190D01*
X73485714Y-93726190D01*
X73414285Y-93702380D01*
X73366666Y-93654761D01*
X73342857Y-93607142D01*
X73319047Y-93511904D01*
X73319047Y-93440476D01*
X73342857Y-93345238D01*
X73366666Y-93297619D01*
X73414285Y-93250000D01*
X73485714Y-93226190D01*
X73533333Y-93226190D01*
X73604761Y-93250000D01*
X73628571Y-93273809D01*
X74104761Y-93726190D02*
X73819047Y-93726190D01*
X73961904Y-93726190D02*
X73961904Y-93226190D01*
X73914285Y-93297619D01*
X73866666Y-93345238D01*
X73819047Y-93369047D01*
X74557142Y-93226190D02*
X74319047Y-93226190D01*
X74295238Y-93464285D01*
X74319047Y-93440476D01*
X74366666Y-93416666D01*
X74485714Y-93416666D01*
X74533333Y-93440476D01*
X74557142Y-93464285D01*
X74580952Y-93511904D01*
X74580952Y-93630952D01*
X74557142Y-93678571D01*
X74533333Y-93702380D01*
X74485714Y-93726190D01*
X74366666Y-93726190D01*
X74319047Y-93702380D01*
X74295238Y-93678571D01*
X67928571Y-98478571D02*
X67904761Y-98502380D01*
X67833333Y-98526190D01*
X67785714Y-98526190D01*
X67714285Y-98502380D01*
X67666666Y-98454761D01*
X67642857Y-98407142D01*
X67619047Y-98311904D01*
X67619047Y-98240476D01*
X67642857Y-98145238D01*
X67666666Y-98097619D01*
X67714285Y-98050000D01*
X67785714Y-98026190D01*
X67833333Y-98026190D01*
X67904761Y-98050000D01*
X67928571Y-98073809D01*
X68404761Y-98526190D02*
X68119047Y-98526190D01*
X68261904Y-98526190D02*
X68261904Y-98026190D01*
X68214285Y-98097619D01*
X68166666Y-98145238D01*
X68119047Y-98169047D01*
X68833333Y-98192857D02*
X68833333Y-98526190D01*
X68714285Y-98002380D02*
X68595238Y-98359523D01*
X68904761Y-98359523D01*
X63328571Y-98428571D02*
X63304761Y-98452380D01*
X63233333Y-98476190D01*
X63185714Y-98476190D01*
X63114285Y-98452380D01*
X63066666Y-98404761D01*
X63042857Y-98357142D01*
X63019047Y-98261904D01*
X63019047Y-98190476D01*
X63042857Y-98095238D01*
X63066666Y-98047619D01*
X63114285Y-98000000D01*
X63185714Y-97976190D01*
X63233333Y-97976190D01*
X63304761Y-98000000D01*
X63328571Y-98023809D01*
X63804761Y-98476190D02*
X63519047Y-98476190D01*
X63661904Y-98476190D02*
X63661904Y-97976190D01*
X63614285Y-98047619D01*
X63566666Y-98095238D01*
X63519047Y-98119047D01*
X63971428Y-97976190D02*
X64280952Y-97976190D01*
X64114285Y-98166666D01*
X64185714Y-98166666D01*
X64233333Y-98190476D01*
X64257142Y-98214285D01*
X64280952Y-98261904D01*
X64280952Y-98380952D01*
X64257142Y-98428571D01*
X64233333Y-98452380D01*
X64185714Y-98476190D01*
X64042857Y-98476190D01*
X63995238Y-98452380D01*
X63971428Y-98428571D01*
X58978571Y-92228571D02*
X58954761Y-92252380D01*
X58883333Y-92276190D01*
X58835714Y-92276190D01*
X58764285Y-92252380D01*
X58716666Y-92204761D01*
X58692857Y-92157142D01*
X58669047Y-92061904D01*
X58669047Y-91990476D01*
X58692857Y-91895238D01*
X58716666Y-91847619D01*
X58764285Y-91800000D01*
X58835714Y-91776190D01*
X58883333Y-91776190D01*
X58954761Y-91800000D01*
X58978571Y-91823809D01*
X59454761Y-92276190D02*
X59169047Y-92276190D01*
X59311904Y-92276190D02*
X59311904Y-91776190D01*
X59264285Y-91847619D01*
X59216666Y-91895238D01*
X59169047Y-91919047D01*
X59930952Y-92276190D02*
X59645238Y-92276190D01*
X59788095Y-92276190D02*
X59788095Y-91776190D01*
X59740476Y-91847619D01*
X59692857Y-91895238D01*
X59645238Y-91919047D01*
X58578571Y-92878571D02*
X58554761Y-92902380D01*
X58483333Y-92926190D01*
X58435714Y-92926190D01*
X58364285Y-92902380D01*
X58316666Y-92854761D01*
X58292857Y-92807142D01*
X58269047Y-92711904D01*
X58269047Y-92640476D01*
X58292857Y-92545238D01*
X58316666Y-92497619D01*
X58364285Y-92450000D01*
X58435714Y-92426190D01*
X58483333Y-92426190D01*
X58554761Y-92450000D01*
X58578571Y-92473809D01*
X59054761Y-92926190D02*
X58769047Y-92926190D01*
X58911904Y-92926190D02*
X58911904Y-92426190D01*
X58864285Y-92497619D01*
X58816666Y-92545238D01*
X58769047Y-92569047D01*
X59364285Y-92426190D02*
X59411904Y-92426190D01*
X59459523Y-92450000D01*
X59483333Y-92473809D01*
X59507142Y-92521428D01*
X59530952Y-92616666D01*
X59530952Y-92735714D01*
X59507142Y-92830952D01*
X59483333Y-92878571D01*
X59459523Y-92902380D01*
X59411904Y-92926190D01*
X59364285Y-92926190D01*
X59316666Y-92902380D01*
X59292857Y-92878571D01*
X59269047Y-92830952D01*
X59245238Y-92735714D01*
X59245238Y-92616666D01*
X59269047Y-92521428D01*
X59292857Y-92473809D01*
X59316666Y-92450000D01*
X59364285Y-92426190D01*
X60316666Y-96028571D02*
X60292857Y-96052380D01*
X60221428Y-96076190D01*
X60173809Y-96076190D01*
X60102380Y-96052380D01*
X60054761Y-96004761D01*
X60030952Y-95957142D01*
X60007142Y-95861904D01*
X60007142Y-95790476D01*
X60030952Y-95695238D01*
X60054761Y-95647619D01*
X60102380Y-95600000D01*
X60173809Y-95576190D01*
X60221428Y-95576190D01*
X60292857Y-95600000D01*
X60316666Y-95623809D01*
X60554761Y-96076190D02*
X60650000Y-96076190D01*
X60697619Y-96052380D01*
X60721428Y-96028571D01*
X60769047Y-95957142D01*
X60792857Y-95861904D01*
X60792857Y-95671428D01*
X60769047Y-95623809D01*
X60745238Y-95600000D01*
X60697619Y-95576190D01*
X60602380Y-95576190D01*
X60554761Y-95600000D01*
X60530952Y-95623809D01*
X60507142Y-95671428D01*
X60507142Y-95790476D01*
X60530952Y-95838095D01*
X60554761Y-95861904D01*
X60602380Y-95885714D01*
X60697619Y-95885714D01*
X60745238Y-95861904D01*
X60769047Y-95838095D01*
X60792857Y-95790476D01*
X69266666Y-97278571D02*
X69242857Y-97302380D01*
X69171428Y-97326190D01*
X69123809Y-97326190D01*
X69052380Y-97302380D01*
X69004761Y-97254761D01*
X68980952Y-97207142D01*
X68957142Y-97111904D01*
X68957142Y-97040476D01*
X68980952Y-96945238D01*
X69004761Y-96897619D01*
X69052380Y-96850000D01*
X69123809Y-96826190D01*
X69171428Y-96826190D01*
X69242857Y-96850000D01*
X69266666Y-96873809D01*
X69552380Y-97040476D02*
X69504761Y-97016666D01*
X69480952Y-96992857D01*
X69457142Y-96945238D01*
X69457142Y-96921428D01*
X69480952Y-96873809D01*
X69504761Y-96850000D01*
X69552380Y-96826190D01*
X69647619Y-96826190D01*
X69695238Y-96850000D01*
X69719047Y-96873809D01*
X69742857Y-96921428D01*
X69742857Y-96945238D01*
X69719047Y-96992857D01*
X69695238Y-97016666D01*
X69647619Y-97040476D01*
X69552380Y-97040476D01*
X69504761Y-97064285D01*
X69480952Y-97088095D01*
X69457142Y-97135714D01*
X69457142Y-97230952D01*
X69480952Y-97278571D01*
X69504761Y-97302380D01*
X69552380Y-97326190D01*
X69647619Y-97326190D01*
X69695238Y-97302380D01*
X69719047Y-97278571D01*
X69742857Y-97230952D01*
X69742857Y-97135714D01*
X69719047Y-97088095D01*
X69695238Y-97064285D01*
X69647619Y-97040476D01*
X62416666Y-84428571D02*
X62392857Y-84452380D01*
X62321428Y-84476190D01*
X62273809Y-84476190D01*
X62202380Y-84452380D01*
X62154761Y-84404761D01*
X62130952Y-84357142D01*
X62107142Y-84261904D01*
X62107142Y-84190476D01*
X62130952Y-84095238D01*
X62154761Y-84047619D01*
X62202380Y-84000000D01*
X62273809Y-83976190D01*
X62321428Y-83976190D01*
X62392857Y-84000000D01*
X62416666Y-84023809D01*
X62583333Y-83976190D02*
X62916666Y-83976190D01*
X62702380Y-84476190D01*
X64766666Y-85078571D02*
X64742857Y-85102380D01*
X64671428Y-85126190D01*
X64623809Y-85126190D01*
X64552380Y-85102380D01*
X64504761Y-85054761D01*
X64480952Y-85007142D01*
X64457142Y-84911904D01*
X64457142Y-84840476D01*
X64480952Y-84745238D01*
X64504761Y-84697619D01*
X64552380Y-84650000D01*
X64623809Y-84626190D01*
X64671428Y-84626190D01*
X64742857Y-84650000D01*
X64766666Y-84673809D01*
X65195238Y-84626190D02*
X65100000Y-84626190D01*
X65052380Y-84650000D01*
X65028571Y-84673809D01*
X64980952Y-84745238D01*
X64957142Y-84840476D01*
X64957142Y-85030952D01*
X64980952Y-85078571D01*
X65004761Y-85102380D01*
X65052380Y-85126190D01*
X65147619Y-85126190D01*
X65195238Y-85102380D01*
X65219047Y-85078571D01*
X65242857Y-85030952D01*
X65242857Y-84911904D01*
X65219047Y-84864285D01*
X65195238Y-84840476D01*
X65147619Y-84816666D01*
X65052380Y-84816666D01*
X65004761Y-84840476D01*
X64980952Y-84864285D01*
X64957142Y-84911904D01*
X65666666Y-85078571D02*
X65642857Y-85102380D01*
X65571428Y-85126190D01*
X65523809Y-85126190D01*
X65452380Y-85102380D01*
X65404761Y-85054761D01*
X65380952Y-85007142D01*
X65357142Y-84911904D01*
X65357142Y-84840476D01*
X65380952Y-84745238D01*
X65404761Y-84697619D01*
X65452380Y-84650000D01*
X65523809Y-84626190D01*
X65571428Y-84626190D01*
X65642857Y-84650000D01*
X65666666Y-84673809D01*
X66119047Y-84626190D02*
X65880952Y-84626190D01*
X65857142Y-84864285D01*
X65880952Y-84840476D01*
X65928571Y-84816666D01*
X66047619Y-84816666D01*
X66095238Y-84840476D01*
X66119047Y-84864285D01*
X66142857Y-84911904D01*
X66142857Y-85030952D01*
X66119047Y-85078571D01*
X66095238Y-85102380D01*
X66047619Y-85126190D01*
X65928571Y-85126190D01*
X65880952Y-85102380D01*
X65857142Y-85078571D01*
X59066666Y-89378571D02*
X59042857Y-89402380D01*
X58971428Y-89426190D01*
X58923809Y-89426190D01*
X58852380Y-89402380D01*
X58804761Y-89354761D01*
X58780952Y-89307142D01*
X58757142Y-89211904D01*
X58757142Y-89140476D01*
X58780952Y-89045238D01*
X58804761Y-88997619D01*
X58852380Y-88950000D01*
X58923809Y-88926190D01*
X58971428Y-88926190D01*
X59042857Y-88950000D01*
X59066666Y-88973809D01*
X59495238Y-89092857D02*
X59495238Y-89426190D01*
X59376190Y-88902380D02*
X59257142Y-89259523D01*
X59566666Y-89259523D01*
X61866666Y-96028571D02*
X61842857Y-96052380D01*
X61771428Y-96076190D01*
X61723809Y-96076190D01*
X61652380Y-96052380D01*
X61604761Y-96004761D01*
X61580952Y-95957142D01*
X61557142Y-95861904D01*
X61557142Y-95790476D01*
X61580952Y-95695238D01*
X61604761Y-95647619D01*
X61652380Y-95600000D01*
X61723809Y-95576190D01*
X61771428Y-95576190D01*
X61842857Y-95600000D01*
X61866666Y-95623809D01*
X62033333Y-95576190D02*
X62342857Y-95576190D01*
X62176190Y-95766666D01*
X62247619Y-95766666D01*
X62295238Y-95790476D01*
X62319047Y-95814285D01*
X62342857Y-95861904D01*
X62342857Y-95980952D01*
X62319047Y-96028571D01*
X62295238Y-96052380D01*
X62247619Y-96076190D01*
X62104761Y-96076190D01*
X62057142Y-96052380D01*
X62033333Y-96028571D01*
X72816666Y-59878571D02*
X72792857Y-59902380D01*
X72721428Y-59926190D01*
X72673809Y-59926190D01*
X72602380Y-59902380D01*
X72554761Y-59854761D01*
X72530952Y-59807142D01*
X72507142Y-59711904D01*
X72507142Y-59640476D01*
X72530952Y-59545238D01*
X72554761Y-59497619D01*
X72602380Y-59450000D01*
X72673809Y-59426190D01*
X72721428Y-59426190D01*
X72792857Y-59450000D01*
X72816666Y-59473809D01*
X73007142Y-59473809D02*
X73030952Y-59450000D01*
X73078571Y-59426190D01*
X73197619Y-59426190D01*
X73245238Y-59450000D01*
X73269047Y-59473809D01*
X73292857Y-59521428D01*
X73292857Y-59569047D01*
X73269047Y-59640476D01*
X72983333Y-59926190D01*
X73292857Y-59926190D01*
M02*
