G04 #@! TF.GenerationSoftware,KiCad,Pcbnew,5.1.5+dfsg1-2build2*
G04 #@! TF.CreationDate,2021-10-11T18:01:35+02:00*
G04 #@! TF.ProjectId,OtterCam-s3,4f747465-7243-4616-9d2d-73332e6b6963,rev?*
G04 #@! TF.SameCoordinates,Original*
G04 #@! TF.FileFunction,Paste,Bot*
G04 #@! TF.FilePolarity,Positive*
%FSLAX46Y46*%
G04 Gerber Fmt 4.6, Leading zero omitted, Abs format (unit mm)*
G04 Created by KiCad (PCBNEW 5.1.5+dfsg1-2build2) date 2021-10-11 18:01:35*
%MOMM*%
%LPD*%
G04 APERTURE LIST*
%ADD10C,0.100000*%
%ADD11R,0.600000X0.900000*%
%ADD12R,0.900000X0.600000*%
%ADD13R,0.500000X0.600000*%
%ADD14R,0.600000X0.500000*%
G04 APERTURE END LIST*
D10*
G36*
X72017394Y-58101375D02*
G01*
X72045118Y-58105488D01*
X72072305Y-58112298D01*
X72098694Y-58121740D01*
X72124031Y-58133723D01*
X72148071Y-58148132D01*
X72170583Y-58164828D01*
X72191350Y-58183650D01*
X72210172Y-58204417D01*
X72226868Y-58226929D01*
X72241277Y-58250969D01*
X72253260Y-58276306D01*
X72262702Y-58302695D01*
X72269512Y-58329882D01*
X72273625Y-58357606D01*
X72275000Y-58385600D01*
X72275000Y-60814400D01*
X72273625Y-60842394D01*
X72269512Y-60870118D01*
X72262702Y-60897305D01*
X72253260Y-60923694D01*
X72241277Y-60949031D01*
X72226868Y-60973071D01*
X72210172Y-60995583D01*
X72191350Y-61016350D01*
X72170583Y-61035172D01*
X72148071Y-61051868D01*
X72124031Y-61066277D01*
X72098694Y-61078260D01*
X72072305Y-61087702D01*
X72045118Y-61094512D01*
X72017394Y-61098625D01*
X71989400Y-61100000D01*
X70160600Y-61100000D01*
X70132606Y-61098625D01*
X70104882Y-61094512D01*
X70077695Y-61087702D01*
X70051306Y-61078260D01*
X70025969Y-61066277D01*
X70001929Y-61051868D01*
X69979417Y-61035172D01*
X69958650Y-61016350D01*
X69939828Y-60995583D01*
X69923132Y-60973071D01*
X69908723Y-60949031D01*
X69896740Y-60923694D01*
X69887298Y-60897305D01*
X69880488Y-60870118D01*
X69876375Y-60842394D01*
X69875000Y-60814400D01*
X69875000Y-58385600D01*
X69876375Y-58357606D01*
X69880488Y-58329882D01*
X69887298Y-58302695D01*
X69896740Y-58276306D01*
X69908723Y-58250969D01*
X69923132Y-58226929D01*
X69939828Y-58204417D01*
X69958650Y-58183650D01*
X69979417Y-58164828D01*
X70001929Y-58148132D01*
X70025969Y-58133723D01*
X70051306Y-58121740D01*
X70077695Y-58112298D01*
X70104882Y-58105488D01*
X70132606Y-58101375D01*
X70160600Y-58100000D01*
X71989400Y-58100000D01*
X72017394Y-58101375D01*
G37*
G36*
X62867394Y-58101375D02*
G01*
X62895118Y-58105488D01*
X62922305Y-58112298D01*
X62948694Y-58121740D01*
X62974031Y-58133723D01*
X62998071Y-58148132D01*
X63020583Y-58164828D01*
X63041350Y-58183650D01*
X63060172Y-58204417D01*
X63076868Y-58226929D01*
X63091277Y-58250969D01*
X63103260Y-58276306D01*
X63112702Y-58302695D01*
X63119512Y-58329882D01*
X63123625Y-58357606D01*
X63125000Y-58385600D01*
X63125000Y-60814400D01*
X63123625Y-60842394D01*
X63119512Y-60870118D01*
X63112702Y-60897305D01*
X63103260Y-60923694D01*
X63091277Y-60949031D01*
X63076868Y-60973071D01*
X63060172Y-60995583D01*
X63041350Y-61016350D01*
X63020583Y-61035172D01*
X62998071Y-61051868D01*
X62974031Y-61066277D01*
X62948694Y-61078260D01*
X62922305Y-61087702D01*
X62895118Y-61094512D01*
X62867394Y-61098625D01*
X62839400Y-61100000D01*
X61010600Y-61100000D01*
X60982606Y-61098625D01*
X60954882Y-61094512D01*
X60927695Y-61087702D01*
X60901306Y-61078260D01*
X60875969Y-61066277D01*
X60851929Y-61051868D01*
X60829417Y-61035172D01*
X60808650Y-61016350D01*
X60789828Y-60995583D01*
X60773132Y-60973071D01*
X60758723Y-60949031D01*
X60746740Y-60923694D01*
X60737298Y-60897305D01*
X60730488Y-60870118D01*
X60726375Y-60842394D01*
X60725000Y-60814400D01*
X60725000Y-58385600D01*
X60726375Y-58357606D01*
X60730488Y-58329882D01*
X60737298Y-58302695D01*
X60746740Y-58276306D01*
X60758723Y-58250969D01*
X60773132Y-58226929D01*
X60789828Y-58204417D01*
X60808650Y-58183650D01*
X60829417Y-58164828D01*
X60851929Y-58148132D01*
X60875969Y-58133723D01*
X60901306Y-58121740D01*
X60927695Y-58112298D01*
X60954882Y-58105488D01*
X60982606Y-58101375D01*
X61010600Y-58100000D01*
X62839400Y-58100000D01*
X62867394Y-58101375D01*
G37*
G36*
X68594603Y-61700963D02*
G01*
X68614018Y-61703843D01*
X68633057Y-61708612D01*
X68651537Y-61715224D01*
X68669279Y-61723616D01*
X68686114Y-61733706D01*
X68701879Y-61745398D01*
X68716421Y-61758579D01*
X68729602Y-61773121D01*
X68741294Y-61788886D01*
X68751384Y-61805721D01*
X68759776Y-61823463D01*
X68766388Y-61841943D01*
X68771157Y-61860982D01*
X68774037Y-61880397D01*
X68775000Y-61900000D01*
X68775000Y-63000000D01*
X68774037Y-63019603D01*
X68771157Y-63039018D01*
X68766388Y-63058057D01*
X68759776Y-63076537D01*
X68751384Y-63094279D01*
X68741294Y-63111114D01*
X68729602Y-63126879D01*
X68716421Y-63141421D01*
X68701879Y-63154602D01*
X68686114Y-63166294D01*
X68669279Y-63176384D01*
X68651537Y-63184776D01*
X68633057Y-63191388D01*
X68614018Y-63196157D01*
X68594603Y-63199037D01*
X68575000Y-63200000D01*
X68175000Y-63200000D01*
X68155397Y-63199037D01*
X68135982Y-63196157D01*
X68116943Y-63191388D01*
X68098463Y-63184776D01*
X68080721Y-63176384D01*
X68063886Y-63166294D01*
X68048121Y-63154602D01*
X68033579Y-63141421D01*
X68020398Y-63126879D01*
X68008706Y-63111114D01*
X67998616Y-63094279D01*
X67990224Y-63076537D01*
X67983612Y-63058057D01*
X67978843Y-63039018D01*
X67975963Y-63019603D01*
X67975000Y-63000000D01*
X67975000Y-61900000D01*
X67975963Y-61880397D01*
X67978843Y-61860982D01*
X67983612Y-61841943D01*
X67990224Y-61823463D01*
X67998616Y-61805721D01*
X68008706Y-61788886D01*
X68020398Y-61773121D01*
X68033579Y-61758579D01*
X68048121Y-61745398D01*
X68063886Y-61733706D01*
X68080721Y-61723616D01*
X68098463Y-61715224D01*
X68116943Y-61708612D01*
X68135982Y-61703843D01*
X68155397Y-61700963D01*
X68175000Y-61700000D01*
X68575000Y-61700000D01*
X68594603Y-61700963D01*
G37*
G36*
X67344603Y-61700963D02*
G01*
X67364018Y-61703843D01*
X67383057Y-61708612D01*
X67401537Y-61715224D01*
X67419279Y-61723616D01*
X67436114Y-61733706D01*
X67451879Y-61745398D01*
X67466421Y-61758579D01*
X67479602Y-61773121D01*
X67491294Y-61788886D01*
X67501384Y-61805721D01*
X67509776Y-61823463D01*
X67516388Y-61841943D01*
X67521157Y-61860982D01*
X67524037Y-61880397D01*
X67525000Y-61900000D01*
X67525000Y-63000000D01*
X67524037Y-63019603D01*
X67521157Y-63039018D01*
X67516388Y-63058057D01*
X67509776Y-63076537D01*
X67501384Y-63094279D01*
X67491294Y-63111114D01*
X67479602Y-63126879D01*
X67466421Y-63141421D01*
X67451879Y-63154602D01*
X67436114Y-63166294D01*
X67419279Y-63176384D01*
X67401537Y-63184776D01*
X67383057Y-63191388D01*
X67364018Y-63196157D01*
X67344603Y-63199037D01*
X67325000Y-63200000D01*
X66925000Y-63200000D01*
X66905397Y-63199037D01*
X66885982Y-63196157D01*
X66866943Y-63191388D01*
X66848463Y-63184776D01*
X66830721Y-63176384D01*
X66813886Y-63166294D01*
X66798121Y-63154602D01*
X66783579Y-63141421D01*
X66770398Y-63126879D01*
X66758706Y-63111114D01*
X66748616Y-63094279D01*
X66740224Y-63076537D01*
X66733612Y-63058057D01*
X66728843Y-63039018D01*
X66725963Y-63019603D01*
X66725000Y-63000000D01*
X66725000Y-61900000D01*
X66725963Y-61880397D01*
X66728843Y-61860982D01*
X66733612Y-61841943D01*
X66740224Y-61823463D01*
X66748616Y-61805721D01*
X66758706Y-61788886D01*
X66770398Y-61773121D01*
X66783579Y-61758579D01*
X66798121Y-61745398D01*
X66813886Y-61733706D01*
X66830721Y-61723616D01*
X66848463Y-61715224D01*
X66866943Y-61708612D01*
X66885982Y-61703843D01*
X66905397Y-61700963D01*
X66925000Y-61700000D01*
X67325000Y-61700000D01*
X67344603Y-61700963D01*
G37*
G36*
X66094603Y-61700963D02*
G01*
X66114018Y-61703843D01*
X66133057Y-61708612D01*
X66151537Y-61715224D01*
X66169279Y-61723616D01*
X66186114Y-61733706D01*
X66201879Y-61745398D01*
X66216421Y-61758579D01*
X66229602Y-61773121D01*
X66241294Y-61788886D01*
X66251384Y-61805721D01*
X66259776Y-61823463D01*
X66266388Y-61841943D01*
X66271157Y-61860982D01*
X66274037Y-61880397D01*
X66275000Y-61900000D01*
X66275000Y-63000000D01*
X66274037Y-63019603D01*
X66271157Y-63039018D01*
X66266388Y-63058057D01*
X66259776Y-63076537D01*
X66251384Y-63094279D01*
X66241294Y-63111114D01*
X66229602Y-63126879D01*
X66216421Y-63141421D01*
X66201879Y-63154602D01*
X66186114Y-63166294D01*
X66169279Y-63176384D01*
X66151537Y-63184776D01*
X66133057Y-63191388D01*
X66114018Y-63196157D01*
X66094603Y-63199037D01*
X66075000Y-63200000D01*
X65675000Y-63200000D01*
X65655397Y-63199037D01*
X65635982Y-63196157D01*
X65616943Y-63191388D01*
X65598463Y-63184776D01*
X65580721Y-63176384D01*
X65563886Y-63166294D01*
X65548121Y-63154602D01*
X65533579Y-63141421D01*
X65520398Y-63126879D01*
X65508706Y-63111114D01*
X65498616Y-63094279D01*
X65490224Y-63076537D01*
X65483612Y-63058057D01*
X65478843Y-63039018D01*
X65475963Y-63019603D01*
X65475000Y-63000000D01*
X65475000Y-61900000D01*
X65475963Y-61880397D01*
X65478843Y-61860982D01*
X65483612Y-61841943D01*
X65490224Y-61823463D01*
X65498616Y-61805721D01*
X65508706Y-61788886D01*
X65520398Y-61773121D01*
X65533579Y-61758579D01*
X65548121Y-61745398D01*
X65563886Y-61733706D01*
X65580721Y-61723616D01*
X65598463Y-61715224D01*
X65616943Y-61708612D01*
X65635982Y-61703843D01*
X65655397Y-61700963D01*
X65675000Y-61700000D01*
X66075000Y-61700000D01*
X66094603Y-61700963D01*
G37*
G36*
X64844603Y-61700963D02*
G01*
X64864018Y-61703843D01*
X64883057Y-61708612D01*
X64901537Y-61715224D01*
X64919279Y-61723616D01*
X64936114Y-61733706D01*
X64951879Y-61745398D01*
X64966421Y-61758579D01*
X64979602Y-61773121D01*
X64991294Y-61788886D01*
X65001384Y-61805721D01*
X65009776Y-61823463D01*
X65016388Y-61841943D01*
X65021157Y-61860982D01*
X65024037Y-61880397D01*
X65025000Y-61900000D01*
X65025000Y-63000000D01*
X65024037Y-63019603D01*
X65021157Y-63039018D01*
X65016388Y-63058057D01*
X65009776Y-63076537D01*
X65001384Y-63094279D01*
X64991294Y-63111114D01*
X64979602Y-63126879D01*
X64966421Y-63141421D01*
X64951879Y-63154602D01*
X64936114Y-63166294D01*
X64919279Y-63176384D01*
X64901537Y-63184776D01*
X64883057Y-63191388D01*
X64864018Y-63196157D01*
X64844603Y-63199037D01*
X64825000Y-63200000D01*
X64425000Y-63200000D01*
X64405397Y-63199037D01*
X64385982Y-63196157D01*
X64366943Y-63191388D01*
X64348463Y-63184776D01*
X64330721Y-63176384D01*
X64313886Y-63166294D01*
X64298121Y-63154602D01*
X64283579Y-63141421D01*
X64270398Y-63126879D01*
X64258706Y-63111114D01*
X64248616Y-63094279D01*
X64240224Y-63076537D01*
X64233612Y-63058057D01*
X64228843Y-63039018D01*
X64225963Y-63019603D01*
X64225000Y-63000000D01*
X64225000Y-61900000D01*
X64225963Y-61880397D01*
X64228843Y-61860982D01*
X64233612Y-61841943D01*
X64240224Y-61823463D01*
X64248616Y-61805721D01*
X64258706Y-61788886D01*
X64270398Y-61773121D01*
X64283579Y-61758579D01*
X64298121Y-61745398D01*
X64313886Y-61733706D01*
X64330721Y-61723616D01*
X64348463Y-61715224D01*
X64366943Y-61708612D01*
X64385982Y-61703843D01*
X64405397Y-61700963D01*
X64425000Y-61700000D01*
X64825000Y-61700000D01*
X64844603Y-61700963D01*
G37*
D11*
X84150000Y-70800000D03*
X82650000Y-70800000D03*
D12*
X82500000Y-73850000D03*
X82500000Y-72350000D03*
D13*
X86070000Y-74600000D03*
X85130000Y-74600000D03*
D10*
G36*
X85956569Y-71932305D02*
G01*
X85532305Y-72356569D01*
X85178751Y-72003015D01*
X85603015Y-71578751D01*
X85956569Y-71932305D01*
G37*
G36*
X86621249Y-72596985D02*
G01*
X86196985Y-73021249D01*
X85843431Y-72667695D01*
X86267695Y-72243431D01*
X86621249Y-72596985D01*
G37*
D14*
X83500000Y-73870000D03*
X83500000Y-72930000D03*
D13*
X85450000Y-76150000D03*
X84510000Y-76150000D03*
D11*
X83550000Y-74900000D03*
X82050000Y-74900000D03*
M02*
