M48
; DRILL file {KiCad 6.0.0-d3dd2cf0fa~116~ubuntu20.04.1} date Wed 19 Jan 2022 12:48:58 AM CET
; FORMAT={-:-/ absolute / metric / decimal}
; #@! TF.CreationDate,2022-01-19T00:48:58+01:00
; #@! TF.GenerationSoftware,Kicad,Pcbnew,6.0.0-d3dd2cf0fa~116~ubuntu20.04.1
; #@! TF.FileFunction,Plated,1,4,PTH
FMAT,2
METRIC
; #@! TA.AperFunction,Plated,PTH,ViaDrill
T1C0.200
; #@! TA.AperFunction,Plated,PTH,ViaDrill
T2C0.300
; #@! TA.AperFunction,Plated,PTH,ComponentDrill
T3C0.500
; #@! TA.AperFunction,Plated,PTH,ComponentDrill
T4C0.700
; #@! TA.AperFunction,Plated,PTH,ComponentDrill
T5C0.800
; #@! TA.AperFunction,Plated,PTH,ComponentDrill
T6C3.000
%
G90
G05
T1
X53.7Y-84.5
X55.85Y-85.85
X55.9Y-84.5
X57.55Y-85.65
X57.55Y-85.0
X60.75Y-78.75
X60.75Y-79.6
X61.2Y-93.85
X61.8Y-93.85
X62.4Y-93.85
X63.525Y-88.15
X64.8Y-96.0
X65.5Y-87.45
X66.2Y-57.95
X66.75Y-81.85
X66.8Y-57.95
X67.1Y-96.0
X67.5Y-82.3
X67.5Y-83.05
X68.25Y-96.0
X68.6Y-57.65
X68.796Y-77.146
X68.85Y-87.3
X69.2Y-86.95
X69.204Y-77.554
X69.3Y-58.8
X69.4Y-93.9
X70.2Y-93.4
X71.85Y-92.35
X71.85Y-93.5
X72.55Y-83.1
X72.912Y-68.8
X73.489Y-68.8
X73.8Y-64.6
X73.8Y-65.2
X74.05Y-75.9
X74.05Y-76.55
X75.75Y-82.1
X76.0Y-64.05
X76.25Y-82.6
X76.55Y-73.3
X77.2Y-64.35
X77.2Y-65.55
X77.95Y-55.45
X78.05Y-74.55
X78.2Y-65.515
X78.45Y-58.0
X78.65Y-63.4
X78.65Y-68.25
X78.696Y-69.046
X78.7Y-70.55
X78.7Y-71.2
X78.95Y-75.65
X79.104Y-69.454
X79.2Y-65.515
X79.3Y-72.975
X79.35Y-77.55
X79.4Y-67.8
X79.55Y-81.55
X79.8Y-59.7
X79.8Y-91.8
X79.896Y-69.451
X80.025Y-78.571
X80.1Y-56.45
X80.2Y-65.515
X80.2Y-70.5
X80.52Y-78.833
X80.591Y-76.96
X80.65Y-62.3
X80.75Y-60.3
X80.809Y-70.46
X81.1Y-57.45
X81.2Y-65.515
X81.2Y-80.715
X81.24Y-75.01
X81.241Y-69.16
X81.35Y-72.35
X81.459Y-70.46
X81.46Y-71.109
X81.5Y-81.655
X81.6Y-57.95
X81.6Y-59.1
X81.75Y-62.3
X81.777Y-78.343
X82.1Y-70.35
X82.11Y-69.59
X82.2Y-65.515
X82.2Y-67.1
X82.2Y-80.9
X82.506Y-69.194
X82.541Y-76.74
X82.584Y-77.462
X82.62Y-74.898
X82.652Y-72.337
X82.7Y-78.9
X82.7Y-79.4
X82.75Y-73.7
X82.8Y-59.25
X83.2Y-65.515
X83.315Y-81.2
X83.4Y-72.85
X83.418Y-70.886
X83.715Y-78.8
X83.715Y-79.325
X83.84Y-75.44
X83.9Y-77.9
X83.95Y-69.7
X83.95Y-71.6
X84.5Y-75.0
X84.6Y-69.7
X84.645Y-73.6
X84.715Y-71.53
X85.0Y-78.85
X85.0Y-79.4
X85.02Y-74.401
X85.25Y-70.35
X85.288Y-75.484
X85.3Y-71.7
X85.9Y-73.6
X86.0Y-72.4
X86.1Y-75.65
X86.1Y-79.0
X86.241Y-77.897
X86.435Y-72.83
X86.441Y-70.46
X86.551Y-67.832
X86.659Y-76.31
X86.7Y-79.35
X87.0Y-68.2
X87.083Y-69.587
X87.09Y-68.94
X87.2Y-72.3
X87.2Y-73.6
X87.2Y-78.0
X87.25Y-74.85
X87.813Y-70.351
X87.9Y-76.1
X87.937Y-79.087
X88.05Y-82.95
X88.379Y-69.835
X88.391Y-70.46
X88.65Y-79.15
X88.8Y-64.0
X88.9Y-66.061
X88.9Y-66.638
X89.04Y-69.16
X89.052Y-69.804
X89.2Y-78.15
X89.55Y-95.05
X90.0Y-67.85
X90.0Y-71.65
X90.0Y-72.3
X90.025Y-76.425
X90.05Y-70.625
X90.05Y-72.95
X90.05Y-72.95
X90.05Y-73.5
X90.05Y-84.75
X90.15Y-62.65
X90.15Y-68.4
X90.186Y-69.95
X90.196Y-66.496
X90.25Y-95.1
X90.604Y-66.904
X90.75Y-81.25
X90.985Y-71.3
X91.45Y-90.1
X91.95Y-89.5
X92.1Y-62.601
X92.15Y-87.85
X92.4Y-65.8
X92.5Y-62.2
X92.5Y-63.6
X92.5Y-88.85
X92.53Y-64.978
X92.915Y-71.3
X93.85Y-67.8
X93.85Y-68.4
X94.0Y-67.2
X94.75Y-74.55
X94.75Y-78.75
X95.2Y-62.1
X95.2Y-63.9
X95.2Y-64.6
X95.2Y-65.7
X95.2Y-62.7
X95.35Y-68.1
X95.35Y-68.7
X96.725Y-65.975
X97.025Y-65.5
X97.05Y-67.3
T2
X51.5Y-64.9
X51.5Y-67.3
X51.5Y-70.5
X51.5Y-72.9
X54.2Y-59.4
X54.2Y-61.9
X54.2Y-75.9
X54.2Y-78.4
X55.2Y-64.9
X55.2Y-67.3
X55.2Y-70.5
X55.2Y-72.9
X57.2Y-75.9
X57.2Y-78.4
X57.3Y-59.4
X57.3Y-61.9
X58.55Y-81.2
X58.65Y-78.85
X59.45Y-94.05
X59.5Y-96.05
X60.0Y-70.0
X60.0Y-71.0
X60.0Y-72.0
X60.0Y-73.0
X60.4Y-94.05
X60.5Y-85.0
X60.5Y-96.05
X60.85Y-88.95
X60.85Y-89.65
X61.15Y-81.35
X61.2Y-62.8
X61.25Y-77.825
X61.25Y-88.05
X61.5Y-85.0
X61.5Y-96.0
X61.85Y-90.1
X62.2Y-91.4
X62.275Y-80.55
X62.5Y-82.0
X62.5Y-83.0
X62.5Y-84.0
X62.5Y-85.0
X62.5Y-86.45
X62.5Y-96.0
X62.6Y-89.15
X62.8Y-74.6
X62.9Y-61.1
X63.65Y-96.6
X63.65Y-98.3
X63.8Y-74.6
X64.0Y-61.6
X64.45Y-79.15
X64.5Y-85.0
X64.6Y-61.0
X64.8Y-74.6
X64.8Y-97.8
X64.9Y-77.8
X65.3Y-89.95
X65.3Y-91.2
X65.3Y-92.35
X65.5Y-59.9
X65.5Y-61.0
X65.5Y-85.0
X65.8Y-74.6
X65.95Y-97.8
X66.0Y-80.6
X66.5Y-63.9
X66.5Y-70.8
X66.5Y-72.1
X66.5Y-73.4
X66.5Y-90.0
X66.5Y-92.35
X66.8Y-74.6
X67.1Y-97.8
X67.25Y-78.15
X67.7Y-89.95
X67.7Y-91.2
X67.7Y-92.35
X68.0Y-80.6
X68.2Y-60.6
X68.225Y-79.0
X68.25Y-97.8
X68.4Y-63.6
X68.7Y-76.3
X69.0Y-60.2
X69.1Y-74.3
X69.1Y-75.2
X69.2Y-53.6
X69.2Y-82.6
X69.9Y-63.5
X70.0Y-80.6
X70.0Y-83.4
X70.0Y-84.6
X70.0Y-94.4
X70.025Y-77.225
X70.1Y-97.0
X71.25Y-61.35
X71.3Y-73.6
X71.4Y-69.7
X71.4Y-75.85
X71.6Y-83.4
X72.0Y-61.35
X72.0Y-63.7
X72.0Y-64.6
X72.0Y-65.3
X72.0Y-66.1
X72.0Y-66.9
X72.0Y-67.8
X72.0Y-86.8
X72.0Y-88.0
X72.2Y-53.6
X72.2Y-96.8
X72.6Y-72.0
X72.9Y-61.15
X73.2Y-83.4
X73.6Y-86.8
X73.6Y-88.0
X73.7Y-74.05
X73.8Y-92.4
X73.8Y-93.6
X73.9Y-66.0
X73.9Y-66.8
X74.2Y-78.6
X74.2Y-78.6
X74.2Y-80.6
X74.3Y-73.3
X74.5Y-70.5
X74.5Y-71.7
X75.0Y-83.6
X75.0Y-86.5
X75.0Y-91.4
X75.2Y-85.2
X75.25Y-77.4
X75.5Y-61.3
X75.6Y-84.4
X75.7Y-87.2
X75.8Y-79.8
X75.8Y-89.05
X76.1Y-75.75
X76.3Y-70.4
X76.35Y-53.1
X76.4Y-87.9
X76.6Y-68.8
X76.6Y-77.4
X76.725Y-89.05
X76.725Y-90.0
X76.75Y-91.15
X76.8Y-63.6
X77.0Y-92.4
X77.2Y-81.2
X77.6Y-78.6
X77.6Y-82.4
X78.1Y-68.7
X78.1Y-93.3
X78.2Y-91.6
X78.5Y-60.05
X78.5Y-80.6
X78.55Y-62.4
X78.95Y-54.55
X79.05Y-57.4
X79.5Y-58.85
X79.7Y-61.3
X79.7Y-63.25
X80.65Y-91.85
X81.75Y-93.05
X81.8Y-56.95
X81.8Y-61.35
X82.3Y-58.65
X82.4Y-90.0
X82.9Y-54.5
X83.7Y-91.2
X84.4Y-64.0
X84.4Y-80.2
X84.75Y-87.4
X85.5Y-60.6
X86.1Y-54.45
X86.45Y-85.85
X86.5Y-59.2
X86.7Y-94.5
X86.7Y-95.75
X86.8Y-82.8
X87.85Y-61.5
X88.45Y-53.9
X90.25Y-60.05
X90.35Y-85.75
X90.35Y-87.8
X90.4Y-89.9
X91.05Y-75.2
X91.55Y-73.2
X92.15Y-67.6
X92.8Y-81.55
X92.85Y-82.8
X92.95Y-83.75
X93.15Y-73.15
X93.35Y-69.25
X93.55Y-76.5
X94.15Y-82.8
X94.25Y-61.0
X94.3Y-65.15
X94.3Y-66.45
X94.35Y-63.3
X94.35Y-88.1
X95.2Y-82.75
X95.35Y-86.95
X95.45Y-70.25
X95.5Y-73.6
X96.45Y-76.65
X97.1Y-84.1
X97.8Y-70.65
X97.95Y-59.45
T3
X52.75Y-55.0
X52.75Y-95.0
X53.409Y-53.409
X53.409Y-56.591
X53.409Y-93.409
X53.409Y-96.591
X55.0Y-52.75
X55.0Y-57.25
X55.0Y-92.75
X55.0Y-97.25
X56.591Y-53.409
X56.591Y-56.591
X56.591Y-93.409
X56.591Y-96.591
X57.25Y-55.0
X57.25Y-95.0
X92.75Y-55.0
X92.75Y-95.0
X93.409Y-53.409
X93.409Y-56.591
X93.409Y-93.409
X93.409Y-96.591
X95.0Y-52.75
X95.0Y-57.25
X95.0Y-92.75
X95.0Y-97.25
X96.591Y-53.409
X96.591Y-56.591
X96.591Y-93.409
X96.591Y-96.591
X97.25Y-55.0
X97.25Y-95.0
T5
X98.2Y-73.7
X98.2Y-75.7
X98.2Y-77.7
X98.2Y-79.7
T6
X55.0Y-55.0
X55.0Y-95.0
X95.0Y-55.0
X95.0Y-95.0
T4
X53.7Y-82.85G85X53.7Y-83.15
G05
X53.7Y-87.35G85X53.7Y-87.65
G05
X58.0Y-83.15G85X58.0Y-82.85
G05
X58.0Y-87.65G85X58.0Y-87.35
G05
T0
M30
