G04 #@! TF.GenerationSoftware,KiCad,Pcbnew,5.1.5+dfsg1-2build2*
G04 #@! TF.CreationDate,2021-10-11T18:01:35+02:00*
G04 #@! TF.ProjectId,OtterCam-s3,4f747465-7243-4616-9d2d-73332e6b6963,rev?*
G04 #@! TF.SameCoordinates,Original*
G04 #@! TF.FileFunction,Legend,Bot*
G04 #@! TF.FilePolarity,Positive*
%FSLAX46Y46*%
G04 Gerber Fmt 4.6, Leading zero omitted, Abs format (unit mm)*
G04 Created by KiCad (PCBNEW 5.1.5+dfsg1-2build2) date 2021-10-11 18:01:35*
%MOMM*%
%LPD*%
G04 APERTURE LIST*
%ADD10C,0.130000*%
%ADD11C,0.120000*%
%ADD12C,0.080000*%
G04 APERTURE END LIST*
D10*
X79976190Y-88727619D02*
X79766666Y-88727619D01*
X79661904Y-88780000D01*
X79557142Y-88884761D01*
X79504761Y-89094285D01*
X79504761Y-89460952D01*
X79557142Y-89670476D01*
X79661904Y-89775238D01*
X79766666Y-89827619D01*
X79976190Y-89827619D01*
X80080952Y-89775238D01*
X80185714Y-89670476D01*
X80238095Y-89460952D01*
X80238095Y-89094285D01*
X80185714Y-88884761D01*
X80080952Y-88780000D01*
X79976190Y-88727619D01*
X79190476Y-89094285D02*
X78771428Y-89094285D01*
X79033333Y-88727619D02*
X79033333Y-89670476D01*
X78980952Y-89775238D01*
X78876190Y-89827619D01*
X78771428Y-89827619D01*
X78561904Y-89094285D02*
X78142857Y-89094285D01*
X78404761Y-88727619D02*
X78404761Y-89670476D01*
X78352380Y-89775238D01*
X78247619Y-89827619D01*
X78142857Y-89827619D01*
X77357142Y-89775238D02*
X77461904Y-89827619D01*
X77671428Y-89827619D01*
X77776190Y-89775238D01*
X77828571Y-89670476D01*
X77828571Y-89251428D01*
X77776190Y-89146666D01*
X77671428Y-89094285D01*
X77461904Y-89094285D01*
X77357142Y-89146666D01*
X77304761Y-89251428D01*
X77304761Y-89356190D01*
X77828571Y-89460952D01*
X76833333Y-89827619D02*
X76833333Y-89094285D01*
X76833333Y-89303809D02*
X76780952Y-89199047D01*
X76728571Y-89146666D01*
X76623809Y-89094285D01*
X76519047Y-89094285D01*
X75523809Y-89722857D02*
X75576190Y-89775238D01*
X75733333Y-89827619D01*
X75838095Y-89827619D01*
X75995238Y-89775238D01*
X76100000Y-89670476D01*
X76152380Y-89565714D01*
X76204761Y-89356190D01*
X76204761Y-89199047D01*
X76152380Y-88989523D01*
X76100000Y-88884761D01*
X75995238Y-88780000D01*
X75838095Y-88727619D01*
X75733333Y-88727619D01*
X75576190Y-88780000D01*
X75523809Y-88832380D01*
X74580952Y-89827619D02*
X74580952Y-89251428D01*
X74633333Y-89146666D01*
X74738095Y-89094285D01*
X74947619Y-89094285D01*
X75052380Y-89146666D01*
X74580952Y-89775238D02*
X74685714Y-89827619D01*
X74947619Y-89827619D01*
X75052380Y-89775238D01*
X75104761Y-89670476D01*
X75104761Y-89565714D01*
X75052380Y-89460952D01*
X74947619Y-89408571D01*
X74685714Y-89408571D01*
X74580952Y-89356190D01*
X74057142Y-89827619D02*
X74057142Y-89094285D01*
X74057142Y-89199047D02*
X74004761Y-89146666D01*
X73900000Y-89094285D01*
X73742857Y-89094285D01*
X73638095Y-89146666D01*
X73585714Y-89251428D01*
X73585714Y-89827619D01*
X73585714Y-89251428D02*
X73533333Y-89146666D01*
X73428571Y-89094285D01*
X73271428Y-89094285D01*
X73166666Y-89146666D01*
X73114285Y-89251428D01*
X73114285Y-89827619D01*
X72590476Y-89408571D02*
X71752380Y-89408571D01*
X71280952Y-89775238D02*
X71176190Y-89827619D01*
X70966666Y-89827619D01*
X70861904Y-89775238D01*
X70809523Y-89670476D01*
X70809523Y-89618095D01*
X70861904Y-89513333D01*
X70966666Y-89460952D01*
X71123809Y-89460952D01*
X71228571Y-89408571D01*
X71280952Y-89303809D01*
X71280952Y-89251428D01*
X71228571Y-89146666D01*
X71123809Y-89094285D01*
X70966666Y-89094285D01*
X70861904Y-89146666D01*
X70442857Y-88727619D02*
X69761904Y-88727619D01*
X70128571Y-89146666D01*
X69971428Y-89146666D01*
X69866666Y-89199047D01*
X69814285Y-89251428D01*
X69761904Y-89356190D01*
X69761904Y-89618095D01*
X69814285Y-89722857D01*
X69866666Y-89775238D01*
X69971428Y-89827619D01*
X70285714Y-89827619D01*
X70390476Y-89775238D01*
X70442857Y-89722857D01*
X82857142Y-90507619D02*
X82857142Y-91293333D01*
X82909523Y-91450476D01*
X83014285Y-91555238D01*
X83171428Y-91607619D01*
X83276190Y-91607619D01*
X81861904Y-91607619D02*
X81861904Y-91031428D01*
X81914285Y-90926666D01*
X82019047Y-90874285D01*
X82228571Y-90874285D01*
X82333333Y-90926666D01*
X81861904Y-91555238D02*
X81966666Y-91607619D01*
X82228571Y-91607619D01*
X82333333Y-91555238D01*
X82385714Y-91450476D01*
X82385714Y-91345714D01*
X82333333Y-91240952D01*
X82228571Y-91188571D01*
X81966666Y-91188571D01*
X81861904Y-91136190D01*
X81338095Y-90874285D02*
X81338095Y-91607619D01*
X81338095Y-90979047D02*
X81285714Y-90926666D01*
X81180952Y-90874285D01*
X81023809Y-90874285D01*
X80919047Y-90926666D01*
X80866666Y-91031428D01*
X80866666Y-91607619D01*
X79871428Y-91607619D02*
X79871428Y-91031428D01*
X79923809Y-90926666D01*
X80028571Y-90874285D01*
X80238095Y-90874285D01*
X80342857Y-90926666D01*
X79871428Y-91555238D02*
X79976190Y-91607619D01*
X80238095Y-91607619D01*
X80342857Y-91555238D01*
X80395238Y-91450476D01*
X80395238Y-91345714D01*
X80342857Y-91240952D01*
X80238095Y-91188571D01*
X79976190Y-91188571D01*
X79871428Y-91136190D01*
X78509523Y-91607619D02*
X78509523Y-90507619D01*
X78142857Y-91293333D01*
X77776190Y-90507619D01*
X77776190Y-91607619D01*
X76780952Y-91607619D02*
X76780952Y-91031428D01*
X76833333Y-90926666D01*
X76938095Y-90874285D01*
X77147619Y-90874285D01*
X77252380Y-90926666D01*
X76780952Y-91555238D02*
X76885714Y-91607619D01*
X77147619Y-91607619D01*
X77252380Y-91555238D01*
X77304761Y-91450476D01*
X77304761Y-91345714D01*
X77252380Y-91240952D01*
X77147619Y-91188571D01*
X76885714Y-91188571D01*
X76780952Y-91136190D01*
X76257142Y-91607619D02*
X76257142Y-90874285D01*
X76257142Y-91083809D02*
X76204761Y-90979047D01*
X76152380Y-90926666D01*
X76047619Y-90874285D01*
X75942857Y-90874285D01*
X75576190Y-91607619D02*
X75576190Y-90874285D01*
X75576190Y-90507619D02*
X75628571Y-90560000D01*
X75576190Y-90612380D01*
X75523809Y-90560000D01*
X75576190Y-90507619D01*
X75576190Y-90612380D01*
X74633333Y-91555238D02*
X74738095Y-91607619D01*
X74947619Y-91607619D01*
X75052380Y-91555238D01*
X75104761Y-91450476D01*
X75104761Y-91031428D01*
X75052380Y-90926666D01*
X74947619Y-90874285D01*
X74738095Y-90874285D01*
X74633333Y-90926666D01*
X74580952Y-91031428D01*
X74580952Y-91136190D01*
X75104761Y-91240952D01*
X73271428Y-91607619D02*
X73271428Y-90507619D01*
X73271428Y-91031428D02*
X72642857Y-91031428D01*
X72642857Y-91607619D02*
X72642857Y-90507619D01*
X71700000Y-91555238D02*
X71804761Y-91607619D01*
X72014285Y-91607619D01*
X72119047Y-91555238D01*
X72171428Y-91450476D01*
X72171428Y-91031428D01*
X72119047Y-90926666D01*
X72014285Y-90874285D01*
X71804761Y-90874285D01*
X71700000Y-90926666D01*
X71647619Y-91031428D01*
X71647619Y-91136190D01*
X72171428Y-91240952D01*
X71176190Y-91607619D02*
X71176190Y-90874285D01*
X71176190Y-90979047D02*
X71123809Y-90926666D01*
X71019047Y-90874285D01*
X70861904Y-90874285D01*
X70757142Y-90926666D01*
X70704761Y-91031428D01*
X70704761Y-91607619D01*
X70704761Y-91031428D02*
X70652380Y-90926666D01*
X70547619Y-90874285D01*
X70390476Y-90874285D01*
X70285714Y-90926666D01*
X70233333Y-91031428D01*
X70233333Y-91607619D01*
X69761904Y-91555238D02*
X69657142Y-91607619D01*
X69447619Y-91607619D01*
X69342857Y-91555238D01*
X69290476Y-91450476D01*
X69290476Y-91398095D01*
X69342857Y-91293333D01*
X69447619Y-91240952D01*
X69604761Y-91240952D01*
X69709523Y-91188571D01*
X69761904Y-91083809D01*
X69761904Y-91031428D01*
X69709523Y-90926666D01*
X69604761Y-90874285D01*
X69447619Y-90874285D01*
X69342857Y-90926666D01*
X68819047Y-91607619D02*
X68819047Y-90874285D01*
X68819047Y-90507619D02*
X68871428Y-90560000D01*
X68819047Y-90612380D01*
X68766666Y-90560000D01*
X68819047Y-90507619D01*
X68819047Y-90612380D01*
X68295238Y-90874285D02*
X68295238Y-91607619D01*
X68295238Y-90979047D02*
X68242857Y-90926666D01*
X68138095Y-90874285D01*
X67980952Y-90874285D01*
X67876190Y-90926666D01*
X67823809Y-91031428D01*
X67823809Y-91607619D01*
X66828571Y-90874285D02*
X66828571Y-91764761D01*
X66880952Y-91869523D01*
X66933333Y-91921904D01*
X67038095Y-91974285D01*
X67195238Y-91974285D01*
X67300000Y-91921904D01*
X66828571Y-91555238D02*
X66933333Y-91607619D01*
X67142857Y-91607619D01*
X67247619Y-91555238D01*
X67300000Y-91502857D01*
X67352380Y-91398095D01*
X67352380Y-91083809D01*
X67300000Y-90979047D01*
X67247619Y-90926666D01*
X67142857Y-90874285D01*
X66933333Y-90874285D01*
X66828571Y-90926666D01*
X81861904Y-92863809D02*
X81914285Y-92811428D01*
X82019047Y-92759047D01*
X82123809Y-92759047D01*
X82228571Y-92811428D01*
X82280952Y-92863809D01*
X82333333Y-92968571D01*
X82333333Y-93073333D01*
X82280952Y-93178095D01*
X82228571Y-93230476D01*
X82123809Y-93282857D01*
X82019047Y-93282857D01*
X81914285Y-93230476D01*
X81861904Y-93178095D01*
X81861904Y-92759047D02*
X81861904Y-93178095D01*
X81809523Y-93230476D01*
X81757142Y-93230476D01*
X81652380Y-93178095D01*
X81600000Y-93073333D01*
X81600000Y-92811428D01*
X81704761Y-92654285D01*
X81861904Y-92549523D01*
X82071428Y-92497142D01*
X82280952Y-92549523D01*
X82438095Y-92654285D01*
X82542857Y-92811428D01*
X82595238Y-93020952D01*
X82542857Y-93230476D01*
X82438095Y-93387619D01*
X82280952Y-93492380D01*
X82071428Y-93544761D01*
X81861904Y-93492380D01*
X81704761Y-93387619D01*
X80814285Y-92287619D02*
X80814285Y-93073333D01*
X80866666Y-93230476D01*
X80971428Y-93335238D01*
X81128571Y-93387619D01*
X81233333Y-93387619D01*
X79819047Y-93387619D02*
X79819047Y-92811428D01*
X79871428Y-92706666D01*
X79976190Y-92654285D01*
X80185714Y-92654285D01*
X80290476Y-92706666D01*
X79819047Y-93335238D02*
X79923809Y-93387619D01*
X80185714Y-93387619D01*
X80290476Y-93335238D01*
X80342857Y-93230476D01*
X80342857Y-93125714D01*
X80290476Y-93020952D01*
X80185714Y-92968571D01*
X79923809Y-92968571D01*
X79819047Y-92916190D01*
X79295238Y-92654285D02*
X79295238Y-93387619D01*
X79295238Y-92759047D02*
X79242857Y-92706666D01*
X79138095Y-92654285D01*
X78980952Y-92654285D01*
X78876190Y-92706666D01*
X78823809Y-92811428D01*
X78823809Y-93387619D01*
X78300000Y-93387619D02*
X78300000Y-92287619D01*
X78300000Y-92811428D02*
X77671428Y-92811428D01*
X77671428Y-93387619D02*
X77671428Y-92287619D01*
X76728571Y-93335238D02*
X76833333Y-93387619D01*
X77042857Y-93387619D01*
X77147619Y-93335238D01*
X77200000Y-93230476D01*
X77200000Y-92811428D01*
X77147619Y-92706666D01*
X77042857Y-92654285D01*
X76833333Y-92654285D01*
X76728571Y-92706666D01*
X76676190Y-92811428D01*
X76676190Y-92916190D01*
X77200000Y-93020952D01*
X76204761Y-92654285D02*
X76204761Y-93387619D01*
X76204761Y-92759047D02*
X76152380Y-92706666D01*
X76047619Y-92654285D01*
X75890476Y-92654285D01*
X75785714Y-92706666D01*
X75733333Y-92811428D01*
X75733333Y-93387619D01*
X75209523Y-93387619D02*
X75209523Y-92654285D01*
X75209523Y-92863809D02*
X75157142Y-92759047D01*
X75104761Y-92706666D01*
X75000000Y-92654285D01*
X74895238Y-92654285D01*
X74528571Y-93387619D02*
X74528571Y-92654285D01*
X74528571Y-92287619D02*
X74580952Y-92340000D01*
X74528571Y-92392380D01*
X74476190Y-92340000D01*
X74528571Y-92287619D01*
X74528571Y-92392380D01*
X74004761Y-93387619D02*
X74004761Y-92287619D01*
X73900000Y-92968571D02*
X73585714Y-93387619D01*
X73585714Y-92654285D02*
X74004761Y-93073333D01*
X73114285Y-93387619D02*
X73114285Y-92287619D01*
X73114285Y-92811428D02*
X72485714Y-92811428D01*
X72485714Y-93387619D02*
X72485714Y-92287619D01*
X71176190Y-92392380D02*
X71123809Y-92340000D01*
X71019047Y-92287619D01*
X70757142Y-92287619D01*
X70652380Y-92340000D01*
X70600000Y-92392380D01*
X70547619Y-92497142D01*
X70547619Y-92601904D01*
X70600000Y-92759047D01*
X71228571Y-93387619D01*
X70547619Y-93387619D01*
X69866666Y-92287619D02*
X69761904Y-92287619D01*
X69657142Y-92340000D01*
X69604761Y-92392380D01*
X69552380Y-92497142D01*
X69500000Y-92706666D01*
X69500000Y-92968571D01*
X69552380Y-93178095D01*
X69604761Y-93282857D01*
X69657142Y-93335238D01*
X69761904Y-93387619D01*
X69866666Y-93387619D01*
X69971428Y-93335238D01*
X70023809Y-93282857D01*
X70076190Y-93178095D01*
X70128571Y-92968571D01*
X70128571Y-92706666D01*
X70076190Y-92497142D01*
X70023809Y-92392380D01*
X69971428Y-92340000D01*
X69866666Y-92287619D01*
X69080952Y-92392380D02*
X69028571Y-92340000D01*
X68923809Y-92287619D01*
X68661904Y-92287619D01*
X68557142Y-92340000D01*
X68504761Y-92392380D01*
X68452380Y-92497142D01*
X68452380Y-92601904D01*
X68504761Y-92759047D01*
X69133333Y-93387619D01*
X68452380Y-93387619D01*
X67404761Y-93387619D02*
X68033333Y-93387619D01*
X67719047Y-93387619D02*
X67719047Y-92287619D01*
X67823809Y-92444761D01*
X67928571Y-92549523D01*
X68033333Y-92601904D01*
X90190476Y-94434285D02*
X90190476Y-95324761D01*
X90242857Y-95429523D01*
X90295238Y-95481904D01*
X90400000Y-95534285D01*
X90557142Y-95534285D01*
X90661904Y-95481904D01*
X90190476Y-95115238D02*
X90295238Y-95167619D01*
X90504761Y-95167619D01*
X90609523Y-95115238D01*
X90661904Y-95062857D01*
X90714285Y-94958095D01*
X90714285Y-94643809D01*
X90661904Y-94539047D01*
X90609523Y-94486666D01*
X90504761Y-94434285D01*
X90295238Y-94434285D01*
X90190476Y-94486666D01*
X89666666Y-95167619D02*
X89666666Y-94434285D01*
X89666666Y-94067619D02*
X89719047Y-94120000D01*
X89666666Y-94172380D01*
X89614285Y-94120000D01*
X89666666Y-94067619D01*
X89666666Y-94172380D01*
X89300000Y-94434285D02*
X88880952Y-94434285D01*
X89142857Y-94067619D02*
X89142857Y-95010476D01*
X89090476Y-95115238D01*
X88985714Y-95167619D01*
X88880952Y-95167619D01*
X88514285Y-95167619D02*
X88514285Y-94067619D01*
X88042857Y-95167619D02*
X88042857Y-94591428D01*
X88095238Y-94486666D01*
X88200000Y-94434285D01*
X88357142Y-94434285D01*
X88461904Y-94486666D01*
X88514285Y-94539047D01*
X87047619Y-94434285D02*
X87047619Y-95167619D01*
X87519047Y-94434285D02*
X87519047Y-95010476D01*
X87466666Y-95115238D01*
X87361904Y-95167619D01*
X87204761Y-95167619D01*
X87100000Y-95115238D01*
X87047619Y-95062857D01*
X86523809Y-95167619D02*
X86523809Y-94067619D01*
X86523809Y-94486666D02*
X86419047Y-94434285D01*
X86209523Y-94434285D01*
X86104761Y-94486666D01*
X86052380Y-94539047D01*
X86000000Y-94643809D01*
X86000000Y-94958095D01*
X86052380Y-95062857D01*
X86104761Y-95115238D01*
X86209523Y-95167619D01*
X86419047Y-95167619D01*
X86523809Y-95115238D01*
X85528571Y-95062857D02*
X85476190Y-95115238D01*
X85528571Y-95167619D01*
X85580952Y-95115238D01*
X85528571Y-95062857D01*
X85528571Y-95167619D01*
X84533333Y-95115238D02*
X84638095Y-95167619D01*
X84847619Y-95167619D01*
X84952380Y-95115238D01*
X85004761Y-95062857D01*
X85057142Y-94958095D01*
X85057142Y-94643809D01*
X85004761Y-94539047D01*
X84952380Y-94486666D01*
X84847619Y-94434285D01*
X84638095Y-94434285D01*
X84533333Y-94486666D01*
X83904761Y-95167619D02*
X84009523Y-95115238D01*
X84061904Y-95062857D01*
X84114285Y-94958095D01*
X84114285Y-94643809D01*
X84061904Y-94539047D01*
X84009523Y-94486666D01*
X83904761Y-94434285D01*
X83747619Y-94434285D01*
X83642857Y-94486666D01*
X83590476Y-94539047D01*
X83538095Y-94643809D01*
X83538095Y-94958095D01*
X83590476Y-95062857D01*
X83642857Y-95115238D01*
X83747619Y-95167619D01*
X83904761Y-95167619D01*
X83066666Y-95167619D02*
X83066666Y-94434285D01*
X83066666Y-94539047D02*
X83014285Y-94486666D01*
X82909523Y-94434285D01*
X82752380Y-94434285D01*
X82647619Y-94486666D01*
X82595238Y-94591428D01*
X82595238Y-95167619D01*
X82595238Y-94591428D02*
X82542857Y-94486666D01*
X82438095Y-94434285D01*
X82280952Y-94434285D01*
X82176190Y-94486666D01*
X82123809Y-94591428D01*
X82123809Y-95167619D01*
X80814285Y-94015238D02*
X81757142Y-95429523D01*
X80133333Y-94067619D02*
X80133333Y-94853333D01*
X80185714Y-95010476D01*
X80290476Y-95115238D01*
X80447619Y-95167619D01*
X80552380Y-95167619D01*
X79138095Y-95167619D02*
X79138095Y-94591428D01*
X79190476Y-94486666D01*
X79295238Y-94434285D01*
X79504761Y-94434285D01*
X79609523Y-94486666D01*
X79138095Y-95115238D02*
X79242857Y-95167619D01*
X79504761Y-95167619D01*
X79609523Y-95115238D01*
X79661904Y-95010476D01*
X79661904Y-94905714D01*
X79609523Y-94800952D01*
X79504761Y-94748571D01*
X79242857Y-94748571D01*
X79138095Y-94696190D01*
X78614285Y-94434285D02*
X78614285Y-95167619D01*
X78614285Y-94539047D02*
X78561904Y-94486666D01*
X78457142Y-94434285D01*
X78300000Y-94434285D01*
X78195238Y-94486666D01*
X78142857Y-94591428D01*
X78142857Y-95167619D01*
X77147619Y-95167619D02*
X77147619Y-94591428D01*
X77200000Y-94486666D01*
X77304761Y-94434285D01*
X77514285Y-94434285D01*
X77619047Y-94486666D01*
X77147619Y-95115238D02*
X77252380Y-95167619D01*
X77514285Y-95167619D01*
X77619047Y-95115238D01*
X77671428Y-95010476D01*
X77671428Y-94905714D01*
X77619047Y-94800952D01*
X77514285Y-94748571D01*
X77252380Y-94748571D01*
X77147619Y-94696190D01*
X76623809Y-94748571D02*
X75785714Y-94748571D01*
X75261904Y-95167619D02*
X75261904Y-94067619D01*
X74895238Y-94853333D01*
X74528571Y-94067619D01*
X74528571Y-95167619D01*
X73533333Y-95167619D02*
X73533333Y-94591428D01*
X73585714Y-94486666D01*
X73690476Y-94434285D01*
X73900000Y-94434285D01*
X74004761Y-94486666D01*
X73533333Y-95115238D02*
X73638095Y-95167619D01*
X73900000Y-95167619D01*
X74004761Y-95115238D01*
X74057142Y-95010476D01*
X74057142Y-94905714D01*
X74004761Y-94800952D01*
X73900000Y-94748571D01*
X73638095Y-94748571D01*
X73533333Y-94696190D01*
X73009523Y-95167619D02*
X73009523Y-94434285D01*
X73009523Y-94643809D02*
X72957142Y-94539047D01*
X72904761Y-94486666D01*
X72800000Y-94434285D01*
X72695238Y-94434285D01*
X72328571Y-95167619D02*
X72328571Y-94434285D01*
X72328571Y-94067619D02*
X72380952Y-94120000D01*
X72328571Y-94172380D01*
X72276190Y-94120000D01*
X72328571Y-94067619D01*
X72328571Y-94172380D01*
X71385714Y-95115238D02*
X71490476Y-95167619D01*
X71700000Y-95167619D01*
X71804761Y-95115238D01*
X71857142Y-95010476D01*
X71857142Y-94591428D01*
X71804761Y-94486666D01*
X71700000Y-94434285D01*
X71490476Y-94434285D01*
X71385714Y-94486666D01*
X71333333Y-94591428D01*
X71333333Y-94696190D01*
X71857142Y-94800952D01*
X70076190Y-94015238D02*
X71019047Y-95429523D01*
X69500000Y-94067619D02*
X69290476Y-94067619D01*
X69185714Y-94120000D01*
X69080952Y-94224761D01*
X69028571Y-94434285D01*
X69028571Y-94800952D01*
X69080952Y-95010476D01*
X69185714Y-95115238D01*
X69290476Y-95167619D01*
X69500000Y-95167619D01*
X69604761Y-95115238D01*
X69709523Y-95010476D01*
X69761904Y-94800952D01*
X69761904Y-94434285D01*
X69709523Y-94224761D01*
X69604761Y-94120000D01*
X69500000Y-94067619D01*
X68714285Y-94434285D02*
X68295238Y-94434285D01*
X68557142Y-94067619D02*
X68557142Y-95010476D01*
X68504761Y-95115238D01*
X68400000Y-95167619D01*
X68295238Y-95167619D01*
X68085714Y-94434285D02*
X67666666Y-94434285D01*
X67928571Y-94067619D02*
X67928571Y-95010476D01*
X67876190Y-95115238D01*
X67771428Y-95167619D01*
X67666666Y-95167619D01*
X66880952Y-95115238D02*
X66985714Y-95167619D01*
X67195238Y-95167619D01*
X67300000Y-95115238D01*
X67352380Y-95010476D01*
X67352380Y-94591428D01*
X67300000Y-94486666D01*
X67195238Y-94434285D01*
X66985714Y-94434285D01*
X66880952Y-94486666D01*
X66828571Y-94591428D01*
X66828571Y-94696190D01*
X67352380Y-94800952D01*
X66357142Y-95167619D02*
X66357142Y-94434285D01*
X66357142Y-94643809D02*
X66304761Y-94539047D01*
X66252380Y-94486666D01*
X66147619Y-94434285D01*
X66042857Y-94434285D01*
X65047619Y-95062857D02*
X65100000Y-95115238D01*
X65257142Y-95167619D01*
X65361904Y-95167619D01*
X65519047Y-95115238D01*
X65623809Y-95010476D01*
X65676190Y-94905714D01*
X65728571Y-94696190D01*
X65728571Y-94539047D01*
X65676190Y-94329523D01*
X65623809Y-94224761D01*
X65519047Y-94120000D01*
X65361904Y-94067619D01*
X65257142Y-94067619D01*
X65100000Y-94120000D01*
X65047619Y-94172380D01*
X64104761Y-95167619D02*
X64104761Y-94591428D01*
X64157142Y-94486666D01*
X64261904Y-94434285D01*
X64471428Y-94434285D01*
X64576190Y-94486666D01*
X64104761Y-95115238D02*
X64209523Y-95167619D01*
X64471428Y-95167619D01*
X64576190Y-95115238D01*
X64628571Y-95010476D01*
X64628571Y-94905714D01*
X64576190Y-94800952D01*
X64471428Y-94748571D01*
X64209523Y-94748571D01*
X64104761Y-94696190D01*
X63580952Y-95167619D02*
X63580952Y-94434285D01*
X63580952Y-94539047D02*
X63528571Y-94486666D01*
X63423809Y-94434285D01*
X63266666Y-94434285D01*
X63161904Y-94486666D01*
X63109523Y-94591428D01*
X63109523Y-95167619D01*
X63109523Y-94591428D02*
X63057142Y-94486666D01*
X62952380Y-94434285D01*
X62795238Y-94434285D01*
X62690476Y-94486666D01*
X62638095Y-94591428D01*
X62638095Y-95167619D01*
X62114285Y-94748571D02*
X61276190Y-94748571D01*
X60804761Y-95115238D02*
X60700000Y-95167619D01*
X60490476Y-95167619D01*
X60385714Y-95115238D01*
X60333333Y-95010476D01*
X60333333Y-94958095D01*
X60385714Y-94853333D01*
X60490476Y-94800952D01*
X60647619Y-94800952D01*
X60752380Y-94748571D01*
X60804761Y-94643809D01*
X60804761Y-94591428D01*
X60752380Y-94486666D01*
X60647619Y-94434285D01*
X60490476Y-94434285D01*
X60385714Y-94486666D01*
X59966666Y-94067619D02*
X59285714Y-94067619D01*
X59652380Y-94486666D01*
X59495238Y-94486666D01*
X59390476Y-94539047D01*
X59338095Y-94591428D01*
X59285714Y-94696190D01*
X59285714Y-94958095D01*
X59338095Y-95062857D01*
X59390476Y-95115238D01*
X59495238Y-95167619D01*
X59809523Y-95167619D01*
X59914285Y-95115238D01*
X59966666Y-95062857D01*
D11*
X63385000Y-58390000D02*
X69615000Y-58390000D01*
X69985000Y-62310000D02*
X69035000Y-62310000D01*
X69985000Y-61360000D02*
X69985000Y-62310000D01*
X63965000Y-62310000D02*
X63965000Y-63000000D01*
X63015000Y-62310000D02*
X63965000Y-62310000D01*
X63015000Y-61360000D02*
X63015000Y-62310000D01*
X83400000Y-70450000D02*
X83400000Y-71150000D01*
X82850000Y-73100000D02*
X82150000Y-73100000D01*
X85600000Y-74450000D02*
X85600000Y-74750000D01*
X85793934Y-72406066D02*
X86006066Y-72193934D01*
X83650000Y-73400000D02*
X83350000Y-73400000D01*
X84980000Y-76000000D02*
X84980000Y-76300000D01*
X82800000Y-74550000D02*
X82800000Y-75250000D01*
D12*
X83721428Y-70028571D02*
X83745238Y-70052380D01*
X83816666Y-70076190D01*
X83864285Y-70076190D01*
X83935714Y-70052380D01*
X83983333Y-70004761D01*
X84007142Y-69957142D01*
X84030952Y-69861904D01*
X84030952Y-69790476D01*
X84007142Y-69695238D01*
X83983333Y-69647619D01*
X83935714Y-69600000D01*
X83864285Y-69576190D01*
X83816666Y-69576190D01*
X83745238Y-69600000D01*
X83721428Y-69623809D01*
X83292857Y-69576190D02*
X83388095Y-69576190D01*
X83435714Y-69600000D01*
X83459523Y-69623809D01*
X83507142Y-69695238D01*
X83530952Y-69790476D01*
X83530952Y-69980952D01*
X83507142Y-70028571D01*
X83483333Y-70052380D01*
X83435714Y-70076190D01*
X83340476Y-70076190D01*
X83292857Y-70052380D01*
X83269047Y-70028571D01*
X83245238Y-69980952D01*
X83245238Y-69861904D01*
X83269047Y-69814285D01*
X83292857Y-69790476D01*
X83340476Y-69766666D01*
X83435714Y-69766666D01*
X83483333Y-69790476D01*
X83507142Y-69814285D01*
X83530952Y-69861904D01*
X82935714Y-69576190D02*
X82888095Y-69576190D01*
X82840476Y-69600000D01*
X82816666Y-69623809D01*
X82792857Y-69671428D01*
X82769047Y-69766666D01*
X82769047Y-69885714D01*
X82792857Y-69980952D01*
X82816666Y-70028571D01*
X82840476Y-70052380D01*
X82888095Y-70076190D01*
X82935714Y-70076190D01*
X82983333Y-70052380D01*
X83007142Y-70028571D01*
X83030952Y-69980952D01*
X83054761Y-69885714D01*
X83054761Y-69766666D01*
X83030952Y-69671428D01*
X83007142Y-69623809D01*
X82983333Y-69600000D01*
X82935714Y-69576190D01*
X81778571Y-72778571D02*
X81802380Y-72754761D01*
X81826190Y-72683333D01*
X81826190Y-72635714D01*
X81802380Y-72564285D01*
X81754761Y-72516666D01*
X81707142Y-72492857D01*
X81611904Y-72469047D01*
X81540476Y-72469047D01*
X81445238Y-72492857D01*
X81397619Y-72516666D01*
X81350000Y-72564285D01*
X81326190Y-72635714D01*
X81326190Y-72683333D01*
X81350000Y-72754761D01*
X81373809Y-72778571D01*
X81326190Y-73230952D02*
X81326190Y-72992857D01*
X81564285Y-72969047D01*
X81540476Y-72992857D01*
X81516666Y-73040476D01*
X81516666Y-73159523D01*
X81540476Y-73207142D01*
X81564285Y-73230952D01*
X81611904Y-73254761D01*
X81730952Y-73254761D01*
X81778571Y-73230952D01*
X81802380Y-73207142D01*
X81826190Y-73159523D01*
X81826190Y-73040476D01*
X81802380Y-72992857D01*
X81778571Y-72969047D01*
X81326190Y-73421428D02*
X81326190Y-73754761D01*
X81826190Y-73540476D01*
X85921428Y-75528571D02*
X85945238Y-75552380D01*
X86016666Y-75576190D01*
X86064285Y-75576190D01*
X86135714Y-75552380D01*
X86183333Y-75504761D01*
X86207142Y-75457142D01*
X86230952Y-75361904D01*
X86230952Y-75290476D01*
X86207142Y-75195238D01*
X86183333Y-75147619D01*
X86135714Y-75100000D01*
X86064285Y-75076190D01*
X86016666Y-75076190D01*
X85945238Y-75100000D01*
X85921428Y-75123809D01*
X85754761Y-75076190D02*
X85445238Y-75076190D01*
X85611904Y-75266666D01*
X85540476Y-75266666D01*
X85492857Y-75290476D01*
X85469047Y-75314285D01*
X85445238Y-75361904D01*
X85445238Y-75480952D01*
X85469047Y-75528571D01*
X85492857Y-75552380D01*
X85540476Y-75576190D01*
X85683333Y-75576190D01*
X85730952Y-75552380D01*
X85754761Y-75528571D01*
X85278571Y-75076190D02*
X84945238Y-75076190D01*
X85159523Y-75576190D01*
X86531345Y-72123223D02*
X86531345Y-72156895D01*
X86565017Y-72224238D01*
X86598688Y-72257910D01*
X86666032Y-72291582D01*
X86733375Y-72291582D01*
X86783883Y-72274746D01*
X86868062Y-72224238D01*
X86918570Y-72173731D01*
X86969078Y-72089551D01*
X86985913Y-72039044D01*
X86985913Y-71971700D01*
X86952242Y-71904357D01*
X86918570Y-71870685D01*
X86851226Y-71837013D01*
X86817555Y-71837013D01*
X86733375Y-71685490D02*
X86514509Y-71466624D01*
X86497673Y-71719162D01*
X86447165Y-71668654D01*
X86396658Y-71651818D01*
X86362986Y-71651818D01*
X86312478Y-71668654D01*
X86228299Y-71752834D01*
X86211463Y-71803341D01*
X86211463Y-71837013D01*
X86228299Y-71887521D01*
X86329314Y-71988536D01*
X86379822Y-72005372D01*
X86413494Y-72005372D01*
X86194627Y-71146742D02*
X86362986Y-71315101D01*
X86211463Y-71500295D01*
X86211463Y-71466624D01*
X86194627Y-71416116D01*
X86110448Y-71331937D01*
X86059940Y-71315101D01*
X86026268Y-71315101D01*
X85975761Y-71331937D01*
X85891581Y-71416116D01*
X85874746Y-71466624D01*
X85874746Y-71500295D01*
X85891581Y-71550803D01*
X85975761Y-71634982D01*
X86026268Y-71651818D01*
X86059940Y-71651818D01*
X84428571Y-73078571D02*
X84452380Y-73054761D01*
X84476190Y-72983333D01*
X84476190Y-72935714D01*
X84452380Y-72864285D01*
X84404761Y-72816666D01*
X84357142Y-72792857D01*
X84261904Y-72769047D01*
X84190476Y-72769047D01*
X84095238Y-72792857D01*
X84047619Y-72816666D01*
X84000000Y-72864285D01*
X83976190Y-72935714D01*
X83976190Y-72983333D01*
X84000000Y-73054761D01*
X84023809Y-73078571D01*
X83976190Y-73245238D02*
X83976190Y-73554761D01*
X84166666Y-73388095D01*
X84166666Y-73459523D01*
X84190476Y-73507142D01*
X84214285Y-73530952D01*
X84261904Y-73554761D01*
X84380952Y-73554761D01*
X84428571Y-73530952D01*
X84452380Y-73507142D01*
X84476190Y-73459523D01*
X84476190Y-73316666D01*
X84452380Y-73269047D01*
X84428571Y-73245238D01*
X83976190Y-73721428D02*
X83976190Y-74030952D01*
X84166666Y-73864285D01*
X84166666Y-73935714D01*
X84190476Y-73983333D01*
X84214285Y-74007142D01*
X84261904Y-74030952D01*
X84380952Y-74030952D01*
X84428571Y-74007142D01*
X84452380Y-73983333D01*
X84476190Y-73935714D01*
X84476190Y-73792857D01*
X84452380Y-73745238D01*
X84428571Y-73721428D01*
X85301428Y-77078571D02*
X85325238Y-77102380D01*
X85396666Y-77126190D01*
X85444285Y-77126190D01*
X85515714Y-77102380D01*
X85563333Y-77054761D01*
X85587142Y-77007142D01*
X85610952Y-76911904D01*
X85610952Y-76840476D01*
X85587142Y-76745238D01*
X85563333Y-76697619D01*
X85515714Y-76650000D01*
X85444285Y-76626190D01*
X85396666Y-76626190D01*
X85325238Y-76650000D01*
X85301428Y-76673809D01*
X85134761Y-76626190D02*
X84825238Y-76626190D01*
X84991904Y-76816666D01*
X84920476Y-76816666D01*
X84872857Y-76840476D01*
X84849047Y-76864285D01*
X84825238Y-76911904D01*
X84825238Y-77030952D01*
X84849047Y-77078571D01*
X84872857Y-77102380D01*
X84920476Y-77126190D01*
X85063333Y-77126190D01*
X85110952Y-77102380D01*
X85134761Y-77078571D01*
X84349047Y-77126190D02*
X84634761Y-77126190D01*
X84491904Y-77126190D02*
X84491904Y-76626190D01*
X84539523Y-76697619D01*
X84587142Y-76745238D01*
X84634761Y-76769047D01*
X82883333Y-76078571D02*
X82907142Y-76102380D01*
X82978571Y-76126190D01*
X83026190Y-76126190D01*
X83097619Y-76102380D01*
X83145238Y-76054761D01*
X83169047Y-76007142D01*
X83192857Y-75911904D01*
X83192857Y-75840476D01*
X83169047Y-75745238D01*
X83145238Y-75697619D01*
X83097619Y-75650000D01*
X83026190Y-75626190D01*
X82978571Y-75626190D01*
X82907142Y-75650000D01*
X82883333Y-75673809D01*
X82407142Y-76126190D02*
X82692857Y-76126190D01*
X82550000Y-76126190D02*
X82550000Y-75626190D01*
X82597619Y-75697619D01*
X82645238Y-75745238D01*
X82692857Y-75769047D01*
M02*
