G04 #@! TF.GenerationSoftware,KiCad,Pcbnew,6.0.0-d3dd2cf0fa~116~ubuntu20.04.1*
G04 #@! TF.CreationDate,2022-01-19T00:48:53+01:00*
G04 #@! TF.ProjectId,OtterCam-s3,4f747465-7243-4616-9d2d-73332e6b6963,rev?*
G04 #@! TF.SameCoordinates,Original*
G04 #@! TF.FileFunction,Soldermask,Top*
G04 #@! TF.FilePolarity,Negative*
%FSLAX46Y46*%
G04 Gerber Fmt 4.6, Leading zero omitted, Abs format (unit mm)*
G04 Created by KiCad (PCBNEW 6.0.0-d3dd2cf0fa~116~ubuntu20.04.1) date 2022-01-19 00:48:53*
%MOMM*%
%LPD*%
G01*
G04 APERTURE LIST*
G04 Aperture macros list*
%AMRoundRect*
0 Rectangle with rounded corners*
0 $1 Rounding radius*
0 $2 $3 $4 $5 $6 $7 $8 $9 X,Y pos of 4 corners*
0 Add a 4 corners polygon primitive as box body*
4,1,4,$2,$3,$4,$5,$6,$7,$8,$9,$2,$3,0*
0 Add four circle primitives for the rounded corners*
1,1,$1+$1,$2,$3*
1,1,$1+$1,$4,$5*
1,1,$1+$1,$6,$7*
1,1,$1+$1,$8,$9*
0 Add four rect primitives between the rounded corners*
20,1,$1+$1,$2,$3,$4,$5,0*
20,1,$1+$1,$4,$5,$6,$7,0*
20,1,$1+$1,$6,$7,$8,$9,0*
20,1,$1+$1,$8,$9,$2,$3,0*%
%AMRotRect*
0 Rectangle, with rotation*
0 The origin of the aperture is its center*
0 $1 length*
0 $2 width*
0 $3 Rotation angle, in degrees counterclockwise*
0 Add horizontal line*
21,1,$1,$2,0,0,$3*%
G04 Aperture macros list end*
%ADD10R,1.050000X1.000000*%
%ADD11R,2.200000X1.050000*%
%ADD12R,0.900000X0.600000*%
%ADD13R,1.300000X0.700000*%
%ADD14R,0.600000X0.900000*%
%ADD15R,0.600000X0.500000*%
%ADD16R,0.500000X0.600000*%
%ADD17RotRect,0.600000X0.900000X45.000000*%
%ADD18RotRect,0.500000X0.600000X45.000000*%
%ADD19RotRect,0.500000X0.600000X315.000000*%
%ADD20R,0.700000X1.300000*%
%ADD21R,0.900000X0.800000*%
%ADD22R,1.225000X0.850000*%
%ADD23R,2.500000X2.300000*%
%ADD24RoundRect,0.212500X-0.400000X-0.212500X0.400000X-0.212500X0.400000X0.212500X-0.400000X0.212500X0*%
%ADD25R,1.350000X1.350000*%
%ADD26O,1.350000X1.350000*%
%ADD27R,0.700000X1.750000*%
%ADD28R,1.450000X1.000000*%
%ADD29R,1.000000X1.550000*%
%ADD30R,1.500000X1.500000*%
%ADD31R,0.800000X1.400000*%
%ADD32R,0.800000X1.500000*%
%ADD33R,1.300000X1.500000*%
%ADD34R,0.650000X0.300000*%
%ADD35R,1.000000X0.500000*%
%ADD36R,2.700000X0.800000*%
%ADD37R,0.800000X2.700000*%
%ADD38RotRect,0.800000X2.700000X45.000000*%
%ADD39RotRect,0.500000X0.600000X225.000000*%
%ADD40R,0.800000X0.650000*%
%ADD41C,0.401600*%
%ADD42R,0.800000X0.200000*%
%ADD43R,0.200000X0.800000*%
%ADD44R,4.050000X4.050000*%
%ADD45R,0.650000X1.060000*%
%ADD46RotRect,0.510000X1.200000X315.000000*%
%ADD47RotRect,0.510000X1.200000X225.000000*%
%ADD48R,0.950000X1.200000*%
%ADD49O,0.580000X1.000000*%
%ADD50C,0.660000*%
%ADD51R,0.800000X0.300000*%
%ADD52O,1.200000X1.500000*%
%ADD53C,2.030000*%
%ADD54R,3.200000X0.700000*%
%ADD55R,4.500000X3.150000*%
%ADD56R,4.000000X3.300000*%
%ADD57RotRect,0.500000X0.600000X135.000000*%
%ADD58RotRect,1.200000X0.950000X135.000000*%
%ADD59C,1.520000*%
%ADD60R,1.500000X0.750000*%
%ADD61C,0.800000*%
%ADD62C,6.000000*%
G04 APERTURE END LIST*
D10*
X95850000Y-84100000D03*
D11*
X97375000Y-85575000D03*
X97375000Y-82625000D03*
D12*
X72900000Y-60400000D03*
X72900000Y-61900000D03*
D13*
X61950000Y-93100000D03*
X61950000Y-95000000D03*
D14*
X61600000Y-89200000D03*
X60100000Y-89200000D03*
D15*
X65800000Y-86770000D03*
X65800000Y-85830000D03*
X64950000Y-86770000D03*
X64950000Y-85830000D03*
D14*
X61750000Y-86450000D03*
X63250000Y-86450000D03*
D15*
X69250000Y-95380000D03*
X69250000Y-96320000D03*
D13*
X60400000Y-93100000D03*
X60400000Y-95000000D03*
X60800000Y-92150000D03*
X60800000Y-90250000D03*
D12*
X62150000Y-92150000D03*
X62150000Y-90650000D03*
X63650000Y-95850000D03*
X63650000Y-97350000D03*
X68250000Y-95400000D03*
X68250000Y-96900000D03*
D14*
X71250000Y-93500000D03*
X72750000Y-93500000D03*
D15*
X70600000Y-89380000D03*
X70600000Y-90320000D03*
D16*
X66730000Y-87050000D03*
X67670000Y-87050000D03*
D15*
X60900000Y-87120000D03*
X60900000Y-86180000D03*
D12*
X67100000Y-95400000D03*
X67100000Y-96900000D03*
D14*
X71250000Y-92350000D03*
X72750000Y-92350000D03*
D12*
X75000000Y-89050000D03*
X75000000Y-90550000D03*
D14*
X66750000Y-82700000D03*
X68250000Y-82700000D03*
D12*
X70050000Y-86950000D03*
X70050000Y-85450000D03*
D14*
X62000000Y-88050000D03*
X60500000Y-88050000D03*
X71250000Y-86800000D03*
X72750000Y-86800000D03*
D12*
X65950000Y-95400000D03*
X65950000Y-96900000D03*
X64800000Y-95400000D03*
X64800000Y-96900000D03*
D14*
X71250000Y-87950000D03*
X72750000Y-87950000D03*
X71050000Y-85650000D03*
X72550000Y-85650000D03*
D16*
X73220000Y-76550000D03*
X72280000Y-76550000D03*
X90630000Y-74200000D03*
X91570000Y-74200000D03*
X83730000Y-80200000D03*
X84670000Y-80200000D03*
D14*
X73350000Y-80950000D03*
X71850000Y-80950000D03*
X84350000Y-79200000D03*
X85850000Y-79200000D03*
X90650000Y-73200000D03*
X92150000Y-73200000D03*
D15*
X95550000Y-86070000D03*
X95550000Y-85130000D03*
X94700000Y-86070000D03*
X94700000Y-85130000D03*
X93800000Y-84530000D03*
X93800000Y-85470000D03*
D17*
X90469670Y-82030330D03*
X91530330Y-80969670D03*
D18*
X89667660Y-81332340D03*
X90332340Y-80667660D03*
D17*
X75569670Y-82930330D03*
X76630330Y-81869670D03*
D12*
X78100000Y-90850000D03*
X78100000Y-92350000D03*
D18*
X76267660Y-83632340D03*
X76932340Y-82967660D03*
D19*
X78567660Y-89867660D03*
X79232340Y-90532340D03*
D14*
X81950000Y-79200000D03*
X83450000Y-79200000D03*
D16*
X78470000Y-76500000D03*
X77530000Y-76500000D03*
X93270000Y-71300000D03*
X92330000Y-71300000D03*
X90630000Y-71000000D03*
X91570000Y-71000000D03*
X77670000Y-75650000D03*
X76730000Y-75650000D03*
X93270000Y-70450000D03*
X92330000Y-70450000D03*
D15*
X78500000Y-74730000D03*
X78500000Y-75670000D03*
D14*
X75950000Y-74300000D03*
X74450000Y-74300000D03*
D16*
X76570000Y-72350000D03*
X75630000Y-72350000D03*
D15*
X74550000Y-68780000D03*
X74550000Y-69720000D03*
X74627208Y-67718528D03*
X74627208Y-66778528D03*
X74627208Y-65081472D03*
X74627208Y-66021472D03*
D16*
X75970000Y-73300000D03*
X75030000Y-73300000D03*
X77670000Y-74800000D03*
X76730000Y-74800000D03*
D20*
X72950000Y-64100000D03*
X71050000Y-64100000D03*
D21*
X96450000Y-77600000D03*
X96450000Y-75700000D03*
X94450000Y-76650000D03*
D22*
X69687500Y-54750000D03*
X71312500Y-54750000D03*
X69687500Y-56150000D03*
X71312500Y-56150000D03*
D23*
X60250000Y-83150000D03*
X64550000Y-83150000D03*
D24*
X55037500Y-90600000D03*
X56662500Y-90600000D03*
D25*
X98200000Y-73700000D03*
D26*
X98200000Y-75700000D03*
X98200000Y-77700000D03*
X98200000Y-79700000D03*
D27*
X77325000Y-52900000D03*
X78425000Y-52900000D03*
X79525000Y-52900000D03*
X80625000Y-52900000D03*
X81725000Y-52900000D03*
X82825000Y-52900000D03*
X83925000Y-52900000D03*
X85025000Y-52900000D03*
D28*
X86150000Y-62125000D03*
D29*
X74925000Y-63700000D03*
D30*
X74875000Y-53025000D03*
D31*
X74525000Y-61275000D03*
D32*
X86475000Y-60625000D03*
D33*
X86225000Y-53025000D03*
D34*
X96000000Y-68700000D03*
X93200000Y-68400000D03*
X96000000Y-68100000D03*
X93200000Y-67800000D03*
X96000000Y-67500000D03*
X93200000Y-67200000D03*
X96000000Y-66900000D03*
X93200000Y-66600000D03*
X96000000Y-66300000D03*
X93200000Y-66000000D03*
X96000000Y-65700000D03*
X93200000Y-65400000D03*
X96000000Y-65100000D03*
X93200000Y-64800000D03*
X96000000Y-64500000D03*
X93200000Y-64200000D03*
X96000000Y-63900000D03*
X93200000Y-63600000D03*
X96000000Y-63300000D03*
X93200000Y-63000000D03*
X96000000Y-62700000D03*
X93200000Y-62400000D03*
X96000000Y-62100000D03*
X93200000Y-61800000D03*
X96000000Y-61500000D03*
D35*
X95600000Y-69500000D03*
X95600000Y-60700000D03*
D36*
X72700000Y-91250000D03*
X72700000Y-89050000D03*
D37*
X68950000Y-84950000D03*
X66750000Y-84950000D03*
X71000000Y-78700000D03*
X73200000Y-78700000D03*
D16*
X94670000Y-83700000D03*
X93730000Y-83700000D03*
D38*
X76622183Y-86377817D03*
X78177817Y-84822183D03*
D21*
X73150000Y-97650000D03*
X73150000Y-95750000D03*
X71150000Y-96700000D03*
D16*
X96420000Y-74550000D03*
X95480000Y-74550000D03*
X96470000Y-78750000D03*
X95530000Y-78750000D03*
D15*
X94400000Y-71320000D03*
X94400000Y-70380000D03*
X83200000Y-64930000D03*
X83200000Y-65870000D03*
X82200000Y-64930000D03*
X82200000Y-65870000D03*
X81200000Y-64930000D03*
X81200000Y-65870000D03*
X80200000Y-64930000D03*
X80200000Y-65870000D03*
X79200000Y-64930000D03*
X79200000Y-65870000D03*
X77200000Y-64930000D03*
X77200000Y-65870000D03*
D16*
X73370000Y-54750000D03*
X72430000Y-54750000D03*
X73370000Y-56150000D03*
X72430000Y-56150000D03*
D15*
X63150000Y-94130000D03*
X63150000Y-95070000D03*
X64100000Y-86770000D03*
X64100000Y-85830000D03*
D16*
X74280000Y-97650000D03*
X75220000Y-97650000D03*
X71230000Y-94500000D03*
X72170000Y-94500000D03*
D15*
X70100000Y-95380000D03*
X70100000Y-96320000D03*
D16*
X53170000Y-84500000D03*
X52230000Y-84500000D03*
D15*
X62850000Y-88350000D03*
X62850000Y-87410000D03*
X74050000Y-81880000D03*
X74050000Y-82820000D03*
X74050000Y-83580000D03*
X74050000Y-84520000D03*
D16*
X74320000Y-85500000D03*
X73380000Y-85500000D03*
D15*
X78500000Y-73030000D03*
X78500000Y-73970000D03*
X79400000Y-80020000D03*
X79400000Y-79080000D03*
X81200000Y-80130000D03*
X81200000Y-81070000D03*
D16*
X82730000Y-81200000D03*
X83670000Y-81200000D03*
D19*
X79867660Y-83867660D03*
X80532340Y-84532340D03*
X79367660Y-82067660D03*
X80032340Y-82732340D03*
X81817660Y-81817660D03*
X82482340Y-82482340D03*
D16*
X82030000Y-80300000D03*
X82970000Y-80300000D03*
D19*
X81017660Y-82517660D03*
X81682340Y-83182340D03*
D39*
X94782340Y-89767660D03*
X94117660Y-90432340D03*
X91832340Y-82167660D03*
X91167660Y-82832340D03*
D18*
X79167660Y-91732340D03*
X79832340Y-91067660D03*
D16*
X78470000Y-77400000D03*
X77530000Y-77400000D03*
X93270000Y-72200000D03*
X92330000Y-72200000D03*
X90630000Y-71900000D03*
X91570000Y-71900000D03*
D15*
X78500000Y-78530000D03*
X78500000Y-79470000D03*
D16*
X90630000Y-69200000D03*
X91570000Y-69200000D03*
X90630000Y-70100000D03*
X91570000Y-70100000D03*
D15*
X77172792Y-66680000D03*
X77172792Y-67620000D03*
X78400000Y-70530000D03*
X78400000Y-71470000D03*
X77600000Y-73970000D03*
X77600000Y-73030000D03*
D16*
X72430000Y-57550000D03*
X73370000Y-57550000D03*
X72430000Y-58950000D03*
X73370000Y-58950000D03*
D40*
X81250000Y-95475000D03*
X76850000Y-95475000D03*
X76850000Y-97625000D03*
X81250000Y-97625000D03*
D41*
X89475000Y-68075000D03*
X89475000Y-68725000D03*
X89475000Y-69375000D03*
X89475000Y-70675000D03*
X89475000Y-71975000D03*
X89475000Y-73275000D03*
X89475000Y-74575000D03*
X89475000Y-75875000D03*
X89475000Y-76525000D03*
X89475000Y-77175000D03*
X89475000Y-77825000D03*
X88825000Y-68075000D03*
X88825000Y-68725000D03*
X88825000Y-69375000D03*
X88825000Y-70025000D03*
X88825000Y-70675000D03*
X88825000Y-71325000D03*
X88825000Y-71975000D03*
X88825000Y-72625000D03*
X88825000Y-73275000D03*
X88825000Y-73925000D03*
X88825000Y-74575000D03*
X88825000Y-75225000D03*
X88825000Y-75875000D03*
X88825000Y-76525000D03*
X88825000Y-77175000D03*
X88825000Y-77825000D03*
X88175000Y-68075000D03*
X88175000Y-68725000D03*
X88175000Y-69375000D03*
X88175000Y-70025000D03*
X88175000Y-70675000D03*
X88175000Y-71325000D03*
X88175000Y-71975000D03*
X88175000Y-72625000D03*
X88175000Y-73275000D03*
X88175000Y-73925000D03*
X88175000Y-74575000D03*
X88175000Y-75225000D03*
X88175000Y-75875000D03*
X88175000Y-76525000D03*
X88175000Y-77175000D03*
X88175000Y-77825000D03*
X87525000Y-68075000D03*
X87525000Y-68725000D03*
X87525000Y-69375000D03*
X87525000Y-70025000D03*
X87525000Y-70675000D03*
X87525000Y-71325000D03*
X87525000Y-71975000D03*
X87525000Y-72625000D03*
X87525000Y-73275000D03*
X87525000Y-73925000D03*
X87525000Y-74575000D03*
X87525000Y-75225000D03*
X87525000Y-76525000D03*
X87525000Y-77175000D03*
X86875000Y-68725000D03*
X86875000Y-69375000D03*
X86875000Y-70025000D03*
X86875000Y-70675000D03*
X86875000Y-71325000D03*
X86875000Y-71975000D03*
X86875000Y-72625000D03*
X86875000Y-73275000D03*
X86875000Y-73925000D03*
X86875000Y-74575000D03*
X86875000Y-75225000D03*
X86875000Y-75875000D03*
X86875000Y-76525000D03*
X86875000Y-77175000D03*
X86875000Y-77825000D03*
X86225000Y-68075000D03*
X86225000Y-68725000D03*
X86225000Y-69375000D03*
X86225000Y-70025000D03*
X86225000Y-70675000D03*
X86225000Y-71325000D03*
X86225000Y-71975000D03*
X86225000Y-72625000D03*
X86225000Y-73275000D03*
X86225000Y-73925000D03*
X86225000Y-74575000D03*
X86225000Y-75225000D03*
X86225000Y-76525000D03*
X86225000Y-77175000D03*
X85575000Y-68725000D03*
X85575000Y-69375000D03*
X85575000Y-70025000D03*
X85575000Y-70675000D03*
X85575000Y-71325000D03*
X85575000Y-71975000D03*
X85575000Y-72625000D03*
X85575000Y-73275000D03*
X85575000Y-73925000D03*
X85575000Y-74575000D03*
X85575000Y-75225000D03*
X85575000Y-75875000D03*
X85575000Y-76525000D03*
X85575000Y-77175000D03*
X85575000Y-77825000D03*
X84925000Y-68075000D03*
X84925000Y-68725000D03*
X84925000Y-69375000D03*
X84925000Y-70025000D03*
X84925000Y-70675000D03*
X84925000Y-71325000D03*
X84925000Y-71975000D03*
X84925000Y-72625000D03*
X84925000Y-73275000D03*
X84925000Y-73925000D03*
X84925000Y-74575000D03*
X84925000Y-75225000D03*
X84925000Y-75875000D03*
X84925000Y-76525000D03*
X84925000Y-77175000D03*
X84275000Y-68075000D03*
X84275000Y-68725000D03*
X84275000Y-69375000D03*
X84275000Y-70025000D03*
X84275000Y-70675000D03*
X84275000Y-71325000D03*
X84275000Y-71975000D03*
X84275000Y-72625000D03*
X84275000Y-73275000D03*
X84275000Y-73925000D03*
X84275000Y-74575000D03*
X84275000Y-75225000D03*
X84275000Y-75875000D03*
X84275000Y-76525000D03*
X84275000Y-77175000D03*
X84275000Y-77825000D03*
X83625000Y-68075000D03*
X83625000Y-68725000D03*
X83625000Y-69375000D03*
X83625000Y-70025000D03*
X83625000Y-70675000D03*
X83625000Y-71325000D03*
X83625000Y-71975000D03*
X83625000Y-72625000D03*
X83625000Y-73275000D03*
X83625000Y-73925000D03*
X83625000Y-74575000D03*
X83625000Y-75225000D03*
X83625000Y-75875000D03*
X83625000Y-76525000D03*
X83625000Y-77175000D03*
X82975000Y-68725000D03*
X82975000Y-69375000D03*
X82975000Y-70025000D03*
X82975000Y-70675000D03*
X82975000Y-71325000D03*
X82975000Y-71975000D03*
X82975000Y-72625000D03*
X82975000Y-73275000D03*
X82975000Y-73925000D03*
X82975000Y-74575000D03*
X82975000Y-75225000D03*
X82975000Y-75875000D03*
X82975000Y-76525000D03*
X82975000Y-77175000D03*
X82975000Y-77825000D03*
X82325000Y-68075000D03*
X82325000Y-68725000D03*
X82325000Y-70025000D03*
X82325000Y-70675000D03*
X82325000Y-71325000D03*
X82325000Y-71975000D03*
X82325000Y-72625000D03*
X82325000Y-73275000D03*
X82325000Y-73925000D03*
X82325000Y-74575000D03*
X82325000Y-75225000D03*
X82325000Y-75875000D03*
X82325000Y-76525000D03*
X82325000Y-77175000D03*
X81675000Y-68725000D03*
X81675000Y-69375000D03*
X81675000Y-70025000D03*
X81675000Y-70675000D03*
X81675000Y-71325000D03*
X81675000Y-71975000D03*
X81675000Y-72625000D03*
X81675000Y-73275000D03*
X81675000Y-73925000D03*
X81675000Y-74575000D03*
X81675000Y-75225000D03*
X81675000Y-75875000D03*
X81675000Y-76525000D03*
X81675000Y-77175000D03*
X81675000Y-77825000D03*
X81025000Y-68075000D03*
X81025000Y-68725000D03*
X81025000Y-69375000D03*
X81025000Y-70025000D03*
X81025000Y-70675000D03*
X81025000Y-71325000D03*
X81025000Y-71975000D03*
X81025000Y-72625000D03*
X81025000Y-73275000D03*
X81025000Y-73925000D03*
X81025000Y-74575000D03*
X81025000Y-75225000D03*
X81025000Y-75875000D03*
X81025000Y-76525000D03*
X81025000Y-77175000D03*
X81025000Y-77825000D03*
X80375000Y-68075000D03*
X80375000Y-68725000D03*
X80375000Y-69375000D03*
X80375000Y-70025000D03*
X80375000Y-70675000D03*
X80375000Y-71325000D03*
X80375000Y-71975000D03*
X80375000Y-72625000D03*
X80375000Y-73275000D03*
X80375000Y-73925000D03*
X80375000Y-74575000D03*
X80375000Y-75225000D03*
X80375000Y-75875000D03*
X80375000Y-76525000D03*
X80375000Y-77175000D03*
X80375000Y-77825000D03*
X79725000Y-68075000D03*
X79725000Y-68725000D03*
X79725000Y-69375000D03*
X79725000Y-70675000D03*
X79725000Y-71325000D03*
X79725000Y-72625000D03*
X79725000Y-73925000D03*
X79725000Y-75225000D03*
X79725000Y-76525000D03*
X79725000Y-77175000D03*
X79725000Y-77825000D03*
D42*
X69475000Y-93350000D03*
X69475000Y-92950000D03*
X69475000Y-92550000D03*
X69475000Y-92150000D03*
X69475000Y-91750000D03*
X69475000Y-91350000D03*
X69475000Y-90950000D03*
X69475000Y-90550000D03*
X69475000Y-90150000D03*
X69475000Y-89750000D03*
X69475000Y-89350000D03*
X69475000Y-88950000D03*
D43*
X68700000Y-88175000D03*
X68300000Y-88175000D03*
X67900000Y-88175000D03*
X67500000Y-88175000D03*
X67100000Y-88175000D03*
X66700000Y-88175000D03*
X66300000Y-88175000D03*
X65900000Y-88175000D03*
X65500000Y-88175000D03*
X65100000Y-88175000D03*
X64700000Y-88175000D03*
X64300000Y-88175000D03*
D42*
X63525000Y-88950000D03*
X63525000Y-89350000D03*
X63525000Y-89750000D03*
X63525000Y-90150000D03*
X63525000Y-90550000D03*
X63525000Y-90950000D03*
X63525000Y-91350000D03*
X63525000Y-91750000D03*
X63525000Y-92150000D03*
X63525000Y-92550000D03*
X63525000Y-92950000D03*
X63525000Y-93350000D03*
D43*
X64300000Y-94125000D03*
X64700000Y-94125000D03*
X65100000Y-94125000D03*
X65500000Y-94125000D03*
X65900000Y-94125000D03*
X66300000Y-94125000D03*
X66700000Y-94125000D03*
X67100000Y-94125000D03*
X67500000Y-94125000D03*
X67900000Y-94125000D03*
X68300000Y-94125000D03*
X68700000Y-94125000D03*
D44*
X66500000Y-91150000D03*
D45*
X72900000Y-82200000D03*
X71950000Y-82200000D03*
X71000000Y-82200000D03*
X71000000Y-84400000D03*
X72900000Y-84400000D03*
D46*
X93926631Y-87237330D03*
X93290235Y-86600934D03*
X92653839Y-85964538D03*
X92017443Y-85328141D03*
X91381047Y-84691745D03*
X90744651Y-84055349D03*
X90108255Y-83418953D03*
X89471859Y-82782557D03*
X88835462Y-82146161D03*
X88199066Y-81509765D03*
X87562670Y-80873369D03*
D47*
X85837330Y-80873369D03*
X85200934Y-81509765D03*
X84564538Y-82146161D03*
X83928141Y-82782557D03*
X83291745Y-83418953D03*
X82655349Y-84055349D03*
X82018953Y-84691745D03*
X81382557Y-85328141D03*
X80746161Y-85964538D03*
X80109765Y-86600934D03*
X79473369Y-87237330D03*
D46*
X79473369Y-88962670D03*
X80109765Y-89599066D03*
X80746161Y-90235462D03*
X81382557Y-90871859D03*
X82018953Y-91508255D03*
X82655349Y-92144651D03*
X83291745Y-92781047D03*
X83928141Y-93417443D03*
X84564538Y-94053839D03*
X85200934Y-94690235D03*
X85837330Y-95326631D03*
D47*
X87562670Y-95326631D03*
X88199066Y-94690235D03*
X88835462Y-94053839D03*
X89471859Y-93417443D03*
X90108255Y-92781047D03*
X90744651Y-92144651D03*
X91381047Y-91508255D03*
X92017443Y-90871859D03*
X92653839Y-90235462D03*
X93290235Y-89599066D03*
X93926631Y-88962670D03*
D48*
X77375000Y-71200000D03*
X77375000Y-68800000D03*
X75625000Y-68800000D03*
X75625000Y-71200000D03*
D16*
X57830000Y-90600000D03*
X58770000Y-90600000D03*
D49*
X55850000Y-89000000D03*
D50*
X55850000Y-81500000D03*
D51*
X56650000Y-82500000D03*
X56650000Y-83000000D03*
X56650000Y-83500000D03*
X56650000Y-84000000D03*
X56650000Y-84500000D03*
X56650000Y-85000000D03*
X56650000Y-85500000D03*
X56650000Y-86000000D03*
X56650000Y-86500000D03*
X56650000Y-87000000D03*
X56650000Y-87500000D03*
X56650000Y-88000000D03*
X55050000Y-88000000D03*
X55050000Y-87500000D03*
X55050000Y-87000000D03*
X55050000Y-86500000D03*
X55050000Y-86000000D03*
X55050000Y-85500000D03*
X55050000Y-85000000D03*
X55050000Y-84500000D03*
X55050000Y-84000000D03*
X55050000Y-83500000D03*
X55050000Y-83000000D03*
X55050000Y-82500000D03*
D52*
X53700000Y-87500000D03*
X58000000Y-83000000D03*
X53700000Y-83000000D03*
X58000000Y-87500000D03*
D53*
X59120000Y-74615000D03*
X59120000Y-63185000D03*
D54*
X68850000Y-64455000D03*
X64150000Y-64455000D03*
X68850000Y-65725000D03*
X64150000Y-65725000D03*
X68850000Y-66995000D03*
X64150000Y-66995000D03*
X68850000Y-68265000D03*
X64150000Y-68265000D03*
X68850000Y-69535000D03*
X64150000Y-69535000D03*
X68850000Y-70805000D03*
X64150000Y-70805000D03*
X68850000Y-72075000D03*
X64150000Y-72075000D03*
X68850000Y-73345000D03*
X64150000Y-73345000D03*
D55*
X53300000Y-66075000D03*
X53300000Y-71725000D03*
D56*
X55740000Y-60645000D03*
X55740000Y-77155000D03*
D20*
X72950000Y-70800000D03*
X71050000Y-70800000D03*
X72950000Y-67300000D03*
X71050000Y-67300000D03*
X72950000Y-65700000D03*
X71050000Y-65700000D03*
X71950000Y-74700000D03*
X70050000Y-74700000D03*
D24*
X69687500Y-57550000D03*
X71312500Y-57550000D03*
X69687500Y-58950000D03*
X71312500Y-58950000D03*
D16*
X71030000Y-72700000D03*
X71970000Y-72700000D03*
X71030000Y-68900000D03*
X71970000Y-68900000D03*
D57*
X93382340Y-77432340D03*
X92717660Y-76767660D03*
D39*
X94232340Y-80367660D03*
X93567660Y-81032340D03*
D58*
X93717247Y-79229810D03*
X92020190Y-77532753D03*
X90782753Y-78770190D03*
X92479810Y-80467247D03*
D16*
X53170000Y-86000000D03*
X52230000Y-86000000D03*
D15*
X78200000Y-64930000D03*
X78200000Y-65870000D03*
D39*
X89082340Y-95517660D03*
X88417660Y-96182340D03*
D21*
X63350000Y-78200000D03*
X63350000Y-80100000D03*
X65350000Y-79150000D03*
D16*
X61330000Y-79600000D03*
X62270000Y-79600000D03*
X61330000Y-78750000D03*
X62270000Y-78750000D03*
D12*
X69400000Y-62550000D03*
X69400000Y-61050000D03*
D59*
X60000000Y-53000000D03*
X90000000Y-97000000D03*
D60*
X75900000Y-67600000D03*
X75900000Y-65200000D03*
D13*
X71550000Y-62300000D03*
X71550000Y-60400000D03*
D61*
X55000000Y-57250000D03*
X56590990Y-56590990D03*
D62*
X55000000Y-55000000D03*
D61*
X56590990Y-53409010D03*
X57250000Y-55000000D03*
X53409010Y-53409010D03*
X52750000Y-55000000D03*
X53409010Y-56590990D03*
X55000000Y-52750000D03*
X56590990Y-96590990D03*
X56590990Y-93409010D03*
X52750000Y-95000000D03*
X55000000Y-92750000D03*
X57250000Y-95000000D03*
X53409010Y-96590990D03*
X55000000Y-97250000D03*
D62*
X55000000Y-95000000D03*
D61*
X53409010Y-93409010D03*
D62*
X95000000Y-55000000D03*
D61*
X95000000Y-52750000D03*
X95000000Y-57250000D03*
X96590990Y-56590990D03*
X97250000Y-55000000D03*
X92750000Y-55000000D03*
X93409010Y-53409010D03*
X96590990Y-53409010D03*
X93409010Y-56590990D03*
X92750000Y-95000000D03*
X97250000Y-95000000D03*
D62*
X95000000Y-95000000D03*
D61*
X96590990Y-96590990D03*
X96590990Y-93409010D03*
X95000000Y-97250000D03*
X93409010Y-93409010D03*
X93409010Y-96590990D03*
X95000000Y-92750000D03*
M02*
