G04 #@! TF.GenerationSoftware,KiCad,Pcbnew,5.1.5+dfsg1-2build2*
G04 #@! TF.CreationDate,2021-05-18T14:25:16+02:00*
G04 #@! TF.ProjectId,sensor_v1.0,73656e73-6f72-45f7-9631-2e302e6b6963,rev?*
G04 #@! TF.SameCoordinates,Original*
G04 #@! TF.FileFunction,Copper,L2,Inr*
G04 #@! TF.FilePolarity,Positive*
%FSLAX46Y46*%
G04 Gerber Fmt 4.6, Leading zero omitted, Abs format (unit mm)*
G04 Created by KiCad (PCBNEW 5.1.5+dfsg1-2build2) date 2021-05-18 14:25:16*
%MOMM*%
%LPD*%
G04 APERTURE LIST*
%ADD10C,0.800000*%
%ADD11C,6.000000*%
%ADD12C,0.450000*%
%ADD13C,0.150000*%
%ADD14C,0.127000*%
G04 APERTURE END LIST*
D10*
X96590990Y-96590990D03*
X95000000Y-97250000D03*
X93409010Y-96590990D03*
X92750000Y-95000000D03*
X93409010Y-93409010D03*
X95000000Y-92750000D03*
X96590990Y-93409010D03*
X97250000Y-95000000D03*
D11*
X95000000Y-95000000D03*
D10*
X96590990Y-56590990D03*
X95000000Y-57250000D03*
X93409010Y-56590990D03*
X92750000Y-55000000D03*
X93409010Y-53409010D03*
X95000000Y-52750000D03*
X96590990Y-53409010D03*
X97250000Y-55000000D03*
D11*
X95000000Y-55000000D03*
D10*
X56590990Y-96590990D03*
X55000000Y-97250000D03*
X53409010Y-96590990D03*
X52750000Y-95000000D03*
X53409010Y-93409010D03*
X55000000Y-92750000D03*
X56590990Y-93409010D03*
X57250000Y-95000000D03*
D11*
X55000000Y-95000000D03*
D10*
X56590990Y-56590990D03*
X55000000Y-57250000D03*
X53409010Y-56590990D03*
X52750000Y-55000000D03*
X53409010Y-53409010D03*
X55000000Y-52750000D03*
X56590990Y-53409010D03*
X57250000Y-55000000D03*
D11*
X55000000Y-55000000D03*
D12*
X75268740Y-76439044D03*
X75650000Y-74025000D03*
X77275001Y-73511265D03*
X78502419Y-76881342D03*
X75964407Y-72900188D03*
X71400000Y-73200000D03*
X71450000Y-76800000D03*
X74200000Y-69250000D03*
X73400000Y-69250000D03*
X75800000Y-69275000D03*
X76600000Y-69275000D03*
X77700000Y-69425000D03*
X72600000Y-69250000D03*
X75350000Y-79650000D03*
X77350000Y-80550000D03*
X78400000Y-80550000D03*
X82000000Y-72800000D03*
X85000000Y-72400000D03*
X86600000Y-71800000D03*
X86600000Y-69400000D03*
X85000000Y-68600000D03*
X82600000Y-74600000D03*
X85600000Y-76200000D03*
X88000000Y-73800000D03*
X88400000Y-72000000D03*
X88400000Y-70400000D03*
X88800000Y-64500000D03*
X87200000Y-63900000D03*
X84700000Y-66400000D03*
X83500000Y-68400000D03*
X82000000Y-67300000D03*
X82000000Y-70100000D03*
X79100000Y-73100000D03*
X79100000Y-71200000D03*
X80700000Y-69500000D03*
X81000000Y-66100000D03*
X84700000Y-62300000D03*
X86600000Y-62500000D03*
X89700000Y-61100000D03*
X92200000Y-63150000D03*
X92250000Y-65150000D03*
X92250000Y-66400000D03*
X92750000Y-67500000D03*
X90300000Y-66500000D03*
X88400000Y-68400000D03*
X82300000Y-79400000D03*
X79700000Y-77700000D03*
X81000000Y-76000000D03*
X94700000Y-62400000D03*
X94700000Y-64200000D03*
X94700000Y-66000000D03*
X92400000Y-61300000D03*
X92200000Y-69000000D03*
X94000000Y-70200000D03*
X91600000Y-74700000D03*
X91000000Y-72200000D03*
X89800000Y-73300000D03*
X82500000Y-82400000D03*
X74200000Y-82400000D03*
X69800000Y-78200000D03*
X71500000Y-78200000D03*
X70900000Y-74900000D03*
X70500000Y-72600000D03*
X74300000Y-80600000D03*
X73900000Y-71700000D03*
X72000000Y-71500000D03*
X69500000Y-71900000D03*
X69000000Y-74000000D03*
X70700000Y-68000000D03*
X74300000Y-68000000D03*
X77900000Y-68000000D03*
X73700000Y-65000000D03*
X75800000Y-65000000D03*
X77200000Y-65000000D03*
X79400000Y-65000000D03*
X72300000Y-65000000D03*
X70000000Y-65000000D03*
X71700000Y-60600000D03*
X75300000Y-60600000D03*
X78900000Y-60600000D03*
X75400000Y-62600000D03*
X79000000Y-62600000D03*
X71800000Y-62600000D03*
X95300000Y-59500000D03*
X78900000Y-58900000D03*
X75300000Y-58900000D03*
X71700000Y-58900000D03*
X88200000Y-78200000D03*
X75825000Y-78150000D03*
X78000000Y-77275000D03*
X77700000Y-71550000D03*
X73968742Y-73560955D03*
X78425000Y-77825000D03*
X73400000Y-70455002D03*
X75800000Y-70455002D03*
X71600000Y-69850000D03*
X73430000Y-72220000D03*
X76568741Y-75360955D03*
X77325000Y-77900000D03*
X76600000Y-70455002D03*
X72041246Y-70326653D03*
X73825000Y-78100000D03*
X89200000Y-65975000D03*
X93300000Y-65750000D03*
X74081267Y-74760947D03*
X72850000Y-78725000D03*
X93350002Y-67500000D03*
X93350000Y-70650004D03*
X73431267Y-75960948D03*
X93225000Y-61925000D03*
X93275000Y-64500000D03*
X90523866Y-64999990D03*
X75918733Y-75960948D03*
X93150000Y-63900000D03*
X74081268Y-76560948D03*
X93225000Y-62700000D03*
X90432850Y-74182850D03*
X90550000Y-67200000D03*
X74524990Y-76014584D03*
X90175000Y-63200000D03*
X73431260Y-76560957D03*
X90450000Y-61425000D03*
X75918733Y-76560947D03*
X90025000Y-64075000D03*
X74686899Y-74098347D03*
X75000000Y-71400000D03*
X74081269Y-74160951D03*
X71725000Y-74775000D03*
X94675000Y-66900000D03*
X94700000Y-70575000D03*
X74475000Y-78725000D03*
X93200000Y-66375000D03*
D13*
X89425000Y-65750000D02*
X93300000Y-65750000D01*
X89200000Y-65975000D02*
X89425000Y-65750000D01*
X91023856Y-64500000D02*
X90523866Y-64999990D01*
X93275000Y-64500000D02*
X91023856Y-64500000D01*
X83491276Y-70261811D02*
X83391702Y-70296654D01*
X79822073Y-74820911D02*
X79867845Y-74915959D01*
X83596108Y-71250000D02*
X83900000Y-71250000D01*
X80463200Y-74179784D02*
X80360350Y-74156309D01*
X79798598Y-74612566D02*
X79798598Y-74718061D01*
X81863239Y-75513844D02*
X80640727Y-74291332D01*
X82110887Y-75457320D02*
X82096312Y-75487584D01*
X83993523Y-68917274D02*
X83965082Y-68935145D01*
X83171654Y-70516702D02*
X83136811Y-70616276D01*
X82118360Y-75424574D02*
X82110887Y-75457320D01*
X81474330Y-74700671D02*
X81598072Y-74824416D01*
X82110887Y-75358236D02*
X82118360Y-75390984D01*
X80741309Y-73901674D02*
X80787081Y-73996722D01*
X84035145Y-71334917D02*
X84046239Y-71366621D01*
X80787081Y-73495432D02*
X80741309Y-73590480D01*
X80346223Y-75416359D02*
X80360797Y-75446622D01*
X81986100Y-75556835D02*
X81952510Y-75556836D01*
X79974479Y-74291332D02*
X79933620Y-74332190D01*
X80852856Y-73412953D02*
X80787081Y-73495432D01*
X83136811Y-70616276D02*
X83125000Y-70721108D01*
X80893715Y-73372095D02*
X80852856Y-73412953D01*
X81279586Y-73237073D02*
X81174092Y-73237073D01*
X80254856Y-74156309D02*
X80152006Y-74179784D01*
X80787081Y-73996722D02*
X80852856Y-74079201D01*
X81951624Y-73763756D02*
X81559963Y-73372095D01*
X85140083Y-69964854D02*
X85168524Y-69982725D01*
X80873286Y-74099630D02*
X81474326Y-74700670D01*
X82008148Y-73799272D02*
X81977885Y-73784698D01*
X82040895Y-73806747D02*
X82008148Y-73799272D01*
X82074484Y-73806747D02*
X82040895Y-73806747D01*
X80717834Y-73798824D02*
X80741309Y-73901674D01*
X82137495Y-73784698D02*
X82107232Y-73799272D01*
X83491276Y-69938188D02*
X83596108Y-69950000D01*
X88402512Y-63625000D02*
X84050000Y-67977512D01*
X82096312Y-75327974D02*
X82110887Y-75358236D01*
X84050000Y-71877512D02*
X82163756Y-73763756D01*
X83993523Y-71282725D02*
X84017274Y-71306476D01*
X80717834Y-73693329D02*
X80717834Y-73798824D01*
X81382436Y-73260548D02*
X81279586Y-73237073D01*
X85210146Y-70034917D02*
X85221240Y-70066621D01*
X84050000Y-71400000D02*
X84050000Y-71877512D01*
X82096312Y-75487584D02*
X82075371Y-75513844D01*
X84046239Y-71366621D02*
X84050000Y-71400000D01*
X85192275Y-70193523D02*
X85168524Y-70217274D01*
X84017274Y-71306476D02*
X84035145Y-71334917D01*
X83965082Y-71264854D02*
X83993523Y-71282725D01*
X84046239Y-68833378D02*
X84035145Y-68865082D01*
X83900000Y-71250000D02*
X83933378Y-71253760D01*
X83227781Y-69772622D02*
X83302377Y-69847218D01*
X85168524Y-70217274D02*
X85140083Y-70235145D01*
X83136811Y-69583723D02*
X83171654Y-69683297D01*
X84050000Y-68800000D02*
X84046239Y-68833378D01*
X81977885Y-73784698D02*
X81951624Y-73763756D01*
X81474326Y-74700670D02*
X81474330Y-74700671D01*
X82118360Y-75390984D02*
X82118360Y-75424574D01*
X83596108Y-70250000D02*
X83491276Y-70261811D01*
X81071242Y-73260548D02*
X80976194Y-73306320D01*
X93150000Y-63900000D02*
X92875000Y-63625000D01*
X84017274Y-68893523D02*
X83993523Y-68917274D01*
X83933378Y-68946239D02*
X83900000Y-68950000D01*
X83125000Y-69478891D02*
X83136811Y-69583723D01*
X83136811Y-69316276D02*
X83125000Y-69421108D01*
X83171654Y-69216702D02*
X83136811Y-69316276D01*
X83227781Y-69127377D02*
X83171654Y-69216702D01*
X84035145Y-68865082D02*
X84017274Y-68893523D01*
X83302377Y-69052781D02*
X83227781Y-69127377D01*
X83391702Y-68996654D02*
X83302377Y-69052781D01*
X79822073Y-74509717D02*
X79798598Y-74612566D01*
X82075371Y-75301712D02*
X82096312Y-75327974D01*
X85192275Y-70006476D02*
X85210146Y-70034917D01*
X79933620Y-74332190D02*
X79867845Y-74414669D01*
X81952510Y-75556836D02*
X81919764Y-75549361D01*
X85075000Y-70250000D02*
X83596108Y-70250000D01*
X80152006Y-74179784D02*
X80056958Y-74225557D01*
X80852856Y-74079201D02*
X80873286Y-74099630D01*
X80741309Y-73590480D02*
X80717834Y-73693329D01*
X83227781Y-70427377D02*
X83171654Y-70516702D01*
X83302377Y-69847218D02*
X83391702Y-69903345D01*
X85225000Y-70100000D02*
X85221240Y-70133378D01*
X82049110Y-75534787D02*
X82018846Y-75549362D01*
X83171654Y-69683297D02*
X83227781Y-69772622D01*
X81889500Y-75534788D02*
X81863239Y-75513844D01*
X81174092Y-73237073D02*
X81071242Y-73260548D01*
X83933378Y-71253760D02*
X83965082Y-71264854D01*
X83596108Y-68950000D02*
X83491276Y-68961811D01*
X82107232Y-73799272D02*
X82074484Y-73806747D01*
X85108379Y-70246239D02*
X85075000Y-70250000D01*
X85075000Y-69950000D02*
X85108379Y-69953760D01*
X83491276Y-68961811D02*
X83391702Y-68996654D01*
X83391702Y-71203345D02*
X83491276Y-71238188D01*
X85168524Y-69982725D02*
X85192275Y-70006476D01*
X80640727Y-74291332D02*
X80558248Y-74225557D01*
X79798598Y-74718061D02*
X79822073Y-74820911D01*
X80360350Y-74156309D02*
X80254856Y-74156309D01*
X85221240Y-70066621D02*
X85225000Y-70100000D01*
X85221240Y-70133378D02*
X85210146Y-70165082D01*
X85210146Y-70165082D02*
X85192275Y-70193523D01*
X81598072Y-74824416D02*
X82075371Y-75301712D01*
X79867845Y-74414669D02*
X79822073Y-74509717D01*
X83391702Y-70296654D02*
X83302377Y-70352781D01*
X85140083Y-70235145D02*
X85108379Y-70246239D01*
X80976194Y-73306320D02*
X80893715Y-73372095D01*
X83302377Y-70352781D02*
X83227781Y-70427377D01*
X84050000Y-67977512D02*
X84050000Y-68800000D01*
X83136811Y-70883723D02*
X83171654Y-70983297D01*
X83125000Y-70721108D02*
X83125000Y-70778891D01*
X83171654Y-70983297D02*
X83227781Y-71072622D01*
X83125000Y-70778891D02*
X83136811Y-70883723D01*
X83227781Y-71072622D02*
X83302377Y-71147218D01*
X83125000Y-69421108D02*
X83125000Y-69478891D01*
X83302377Y-71147218D02*
X83391702Y-71203345D01*
X81559963Y-73372095D02*
X81477484Y-73306320D01*
X83491276Y-71238188D02*
X83596108Y-71250000D01*
X79954050Y-75018867D02*
X80325281Y-75390098D01*
X80325281Y-75390098D02*
X80346223Y-75416359D01*
X82075371Y-75513844D02*
X82049110Y-75534787D01*
X80360797Y-75446622D02*
X80368271Y-75479369D01*
X80368271Y-75479369D02*
X80368271Y-75512958D01*
X80368271Y-75512958D02*
X80360797Y-75545705D01*
X82163756Y-73763756D02*
X82137495Y-73784698D01*
X80360797Y-75545705D02*
X80346223Y-75575968D01*
X80346223Y-75575968D02*
X80325281Y-75602230D01*
X80558248Y-74225557D02*
X80463200Y-74179784D01*
X80325281Y-75602230D02*
X79841565Y-76085947D01*
X79841565Y-76085947D02*
X76043732Y-76085947D01*
X81919764Y-75549361D02*
X81889500Y-75534788D01*
X81477484Y-73306320D02*
X81382436Y-73260548D01*
X85108379Y-69953760D02*
X85140083Y-69964854D01*
X80056958Y-74225557D02*
X79974479Y-74291332D01*
X82018846Y-75549362D02*
X81986100Y-75556835D01*
X92875000Y-63625000D02*
X88402512Y-63625000D01*
X83596108Y-69950000D02*
X85075000Y-69950000D01*
X79867845Y-74915959D02*
X79933620Y-74998438D01*
X79933620Y-74998438D02*
X79954050Y-75018867D01*
X83900000Y-68950000D02*
X83596108Y-68950000D01*
X83391702Y-69903345D02*
X83491276Y-69938188D01*
X76043732Y-76085947D02*
X75918733Y-75960948D01*
X83965082Y-68935145D02*
X83933378Y-68946239D01*
X74081268Y-75818732D02*
X74081268Y-76560948D01*
X75375000Y-74525000D02*
X74081268Y-75818732D01*
X82500000Y-67202512D02*
X82500000Y-70427512D01*
X83914486Y-65782705D02*
X83893544Y-65808967D01*
X83929060Y-65752443D02*
X83914486Y-65782705D01*
X83936534Y-65719695D02*
X83929060Y-65752443D01*
X83929060Y-65653359D02*
X83936534Y-65686106D01*
X83914486Y-65623096D02*
X83929060Y-65653359D01*
X83492967Y-65130279D02*
X83538739Y-65225327D01*
X83492967Y-64819085D02*
X83469492Y-64921934D01*
X83538739Y-64724037D02*
X83492967Y-64819085D01*
X83604514Y-64641558D02*
X83538739Y-64724037D01*
X83925750Y-64465677D02*
X83822900Y-64489152D01*
X84229142Y-64534925D02*
X84134094Y-64489152D01*
X84311621Y-64600699D02*
X84229142Y-64534925D01*
X85222805Y-65511884D02*
X84311621Y-64600699D01*
X85249066Y-65532828D02*
X85222805Y-65511884D01*
X85279330Y-65547401D02*
X85249066Y-65532828D01*
X85312076Y-65554876D02*
X85279330Y-65547401D01*
X85345666Y-65554875D02*
X85312076Y-65554876D01*
X84031244Y-64465677D02*
X83925750Y-64465677D01*
X85378412Y-65547402D02*
X85345666Y-65554875D01*
X85477926Y-65422614D02*
X85470453Y-65455360D01*
X85477926Y-65389024D02*
X85477926Y-65422614D01*
X85470453Y-65356276D02*
X85477926Y-65389024D01*
X85455878Y-65326014D02*
X85470453Y-65356276D01*
X85434937Y-65299752D02*
X85455878Y-65326014D01*
X84523751Y-64388569D02*
X84544181Y-64408998D01*
X84457976Y-64306090D02*
X84523751Y-64388569D01*
X84388729Y-64108192D02*
X84412204Y-64211042D01*
X85470453Y-65455360D02*
X85455878Y-65485624D01*
X84457976Y-63804800D02*
X84412204Y-63899848D01*
X84564610Y-63681462D02*
X84523751Y-63722321D01*
X84647089Y-63615688D02*
X84564610Y-63681462D01*
X83604514Y-65307806D02*
X83624944Y-65328235D01*
X84844987Y-63546440D02*
X84742137Y-63569915D01*
X84950481Y-63546440D02*
X84844987Y-63546440D01*
X85053331Y-63569915D02*
X84950481Y-63546440D01*
X82500000Y-70427512D02*
X78402512Y-74525000D01*
X83469492Y-65027429D02*
X83492967Y-65130279D01*
X85148379Y-63615688D02*
X85053331Y-63569915D01*
X83469492Y-64921934D02*
X83469492Y-65027429D01*
X85230858Y-63681462D02*
X85148379Y-63615688D01*
X86142042Y-64592647D02*
X85230858Y-63681462D01*
X86168303Y-64613591D02*
X86142042Y-64592647D01*
X86198567Y-64628164D02*
X86168303Y-64613591D01*
X86231313Y-64635639D02*
X86198567Y-64628164D01*
X86264903Y-64635638D02*
X86231313Y-64635639D01*
X86297649Y-64628165D02*
X86264903Y-64635638D01*
X86327913Y-64613590D02*
X86297649Y-64628165D01*
X86389690Y-64536123D02*
X86375115Y-64566387D01*
X86375115Y-64406777D02*
X86389690Y-64437039D01*
X85961826Y-63988170D02*
X85961830Y-63988171D01*
X85463417Y-63489761D02*
X85961826Y-63988170D01*
X85442987Y-63469332D02*
X85463417Y-63489761D01*
X85377212Y-63386853D02*
X85442987Y-63469332D01*
X85307965Y-63083460D02*
X85307965Y-63188955D01*
X78402512Y-74525000D02*
X75375000Y-74525000D01*
X83822900Y-64489152D02*
X83727852Y-64534925D01*
X83893544Y-65808967D02*
X82500000Y-67202512D01*
X86354174Y-64380515D02*
X86375115Y-64406777D01*
X84523751Y-63722321D02*
X84457976Y-63804800D01*
X85434937Y-65511884D02*
X85408676Y-65532827D01*
X84388729Y-64002697D02*
X84388729Y-64108192D01*
X86067615Y-62696451D02*
X85972567Y-62650678D01*
X86495648Y-63086772D02*
X86465385Y-63072198D01*
X83624944Y-65328235D02*
X83893544Y-65596835D01*
X83645373Y-64600699D02*
X83604514Y-64641558D01*
X86528395Y-63094247D02*
X86495648Y-63086772D01*
X85455878Y-65485624D02*
X85434937Y-65511884D01*
X84412204Y-63899848D02*
X84388729Y-64002697D01*
X85377212Y-62885563D02*
X85331440Y-62980611D01*
X84742137Y-63569915D02*
X84647089Y-63615688D01*
X85483846Y-62762226D02*
X85442987Y-62803084D01*
X83936534Y-65686106D02*
X83936534Y-65719695D01*
X85408676Y-65532827D02*
X85378412Y-65547402D01*
X83538739Y-65225327D02*
X83604514Y-65307806D01*
X85764223Y-62627204D02*
X85661373Y-62650678D01*
X85331440Y-62980611D02*
X85307965Y-63083460D01*
X85307965Y-63188955D02*
X85331440Y-63291805D01*
X83893544Y-65596835D02*
X83914486Y-65623096D01*
X87052512Y-62650000D02*
X86651256Y-63051256D01*
X84134094Y-64489152D02*
X84031244Y-64465677D01*
X84412204Y-64211042D02*
X84457976Y-64306090D01*
X85442987Y-62803084D02*
X85377212Y-62885563D01*
X83727852Y-64534925D02*
X83645373Y-64600699D01*
X86389690Y-64437039D02*
X86397163Y-64469787D01*
X86375115Y-64566387D02*
X86354174Y-64592647D01*
X86397163Y-64469787D02*
X86397163Y-64503377D01*
X86354174Y-64592647D02*
X86327913Y-64613590D01*
X86397163Y-64503377D02*
X86389690Y-64536123D01*
X93175000Y-62650000D02*
X87052512Y-62650000D01*
X86150094Y-62762226D02*
X86067615Y-62696451D01*
X85961830Y-63988171D02*
X86085572Y-64111916D01*
X86085572Y-64111916D02*
X86354174Y-64380515D01*
X85869717Y-62627204D02*
X85764223Y-62627204D01*
X84544181Y-64408998D02*
X85434937Y-65299752D01*
X86465385Y-63072198D02*
X86439124Y-63051256D01*
X93225000Y-62700000D02*
X93175000Y-62650000D01*
X86651256Y-63051256D02*
X86624995Y-63072198D01*
X86624995Y-63072198D02*
X86594732Y-63086772D01*
X86594732Y-63086772D02*
X86561984Y-63094247D01*
X86561984Y-63094247D02*
X86528395Y-63094247D01*
X86439124Y-63051256D02*
X86150094Y-62762226D01*
X85972567Y-62650678D02*
X85869717Y-62627204D01*
X85661373Y-62650678D02*
X85566325Y-62696451D01*
X85331440Y-63291805D02*
X85377212Y-63386853D01*
X85566325Y-62696451D02*
X85483846Y-62762226D01*
X89975000Y-63000000D02*
X90175000Y-63200000D01*
X86492442Y-63454195D02*
X86597937Y-63454195D01*
X86294545Y-63384948D02*
X86389593Y-63430720D01*
X86212066Y-63319173D02*
X86294545Y-63384948D01*
X85675386Y-63086666D02*
X85689960Y-63056403D01*
X85710903Y-63242274D02*
X85689960Y-63216012D01*
X86687863Y-64235938D02*
X86622090Y-64153458D01*
X86733637Y-64642179D02*
X86757113Y-64539328D01*
X86687865Y-64737226D02*
X86733637Y-64642179D01*
X86581231Y-64860565D02*
X86622090Y-64819706D01*
X86498752Y-64926340D02*
X86581231Y-64860565D01*
X86403704Y-64972112D02*
X86498752Y-64926340D01*
X86300855Y-64995587D02*
X86403704Y-64972112D01*
X86195361Y-64995586D02*
X86300855Y-64995587D01*
X86092510Y-64972112D02*
X86195361Y-64995586D01*
X85997462Y-64926340D02*
X86092510Y-64972112D01*
X85914983Y-64860565D02*
X85997462Y-64926340D01*
X85894555Y-64840134D02*
X85914983Y-64860565D01*
X84880939Y-63906389D02*
X84914529Y-63906389D01*
X84791668Y-63949379D02*
X84817929Y-63928437D01*
X85866511Y-62994626D02*
X85896774Y-63009200D01*
X84748677Y-64038650D02*
X84756151Y-64005903D01*
X85833764Y-62987152D02*
X85866511Y-62994626D01*
X84748677Y-64072239D02*
X84748677Y-64038650D01*
X85800175Y-62987152D02*
X85833764Y-62987152D01*
X84756151Y-64104986D02*
X84748677Y-64072239D01*
X85767427Y-62994626D02*
X85800175Y-62987152D01*
X84770725Y-64135249D02*
X84756151Y-64104986D01*
X85737165Y-63009200D02*
X85767427Y-62994626D01*
X84791668Y-64161511D02*
X84770725Y-64135249D01*
X85667912Y-63119413D02*
X85675386Y-63086666D01*
X85837874Y-65353073D02*
X85814400Y-65250222D01*
X85667912Y-63153002D02*
X85667912Y-63119413D01*
X85837876Y-65458565D02*
X85837874Y-65353073D01*
X85675386Y-63185749D02*
X85667912Y-63153002D01*
X85814400Y-65561416D02*
X85837876Y-65458565D01*
X85702853Y-65738943D02*
X85768628Y-65656463D01*
X86333060Y-63864428D02*
X86209315Y-63740686D01*
X85579515Y-65845577D02*
X85661994Y-65779802D01*
X86601659Y-64133030D02*
X86333060Y-63864428D01*
X85484467Y-65891349D02*
X85579515Y-65845577D01*
X85276124Y-65914823D02*
X85381618Y-65914824D01*
X86757111Y-64433836D02*
X86733637Y-64330985D01*
X85078225Y-65845577D02*
X85173273Y-65891349D01*
X86757113Y-64539328D02*
X86757111Y-64433836D01*
X84995746Y-65779802D02*
X85078225Y-65845577D01*
X84084563Y-64868616D02*
X84975318Y-65759371D01*
X84028039Y-64833100D02*
X84058302Y-64847674D01*
X83995292Y-64825626D02*
X84028039Y-64833100D01*
X83961702Y-64825626D02*
X83995292Y-64825626D01*
X83898692Y-64847674D02*
X83928955Y-64833100D01*
X83872431Y-64868616D02*
X83898692Y-64847674D01*
X83851488Y-64894877D02*
X83872431Y-64868616D01*
X85003800Y-63949379D02*
X85894555Y-64840134D01*
X83829440Y-64991476D02*
X83829440Y-64957887D01*
X84977539Y-63928437D02*
X85003800Y-63949379D01*
X83836914Y-65024223D02*
X83829440Y-64991476D01*
X84161460Y-65369777D02*
X83872431Y-65080748D01*
X84227235Y-65452256D02*
X84161460Y-65369777D01*
X84273008Y-65547304D02*
X84227235Y-65452256D01*
X84296482Y-65755648D02*
X84296482Y-65650154D01*
X85923035Y-63030142D02*
X86212066Y-63319173D01*
X84770725Y-63975640D02*
X84791668Y-63949379D01*
X84227235Y-65953546D02*
X84273008Y-65858498D01*
X82850000Y-67347488D02*
X84161460Y-66036025D01*
X79990074Y-73345969D02*
X79985217Y-73335881D01*
X79185650Y-74996337D02*
X79252828Y-74996337D01*
X82694088Y-72142615D02*
X82735972Y-72090094D01*
X84273008Y-65858498D02*
X84296482Y-65755648D01*
X79378848Y-74952240D02*
X79431371Y-74910355D01*
X80197590Y-73579764D02*
X80180587Y-73544458D01*
X81029114Y-72695931D02*
X80980247Y-72634653D01*
X84058302Y-64847674D02*
X84084563Y-64868616D01*
X80206310Y-73617969D02*
X80197590Y-73579764D01*
X86622090Y-64153458D02*
X86601659Y-64133030D01*
X85381618Y-65914824D02*
X85484467Y-65891349D01*
X79517352Y-74731812D02*
X79517352Y-74664633D01*
X82850000Y-70572488D02*
X82850000Y-67347488D01*
X78726030Y-74789018D02*
X78793209Y-74789018D01*
X83836914Y-64925140D02*
X83851488Y-64894877D01*
X80156154Y-73761307D02*
X80180587Y-73730669D01*
X79875228Y-73988240D02*
X79913433Y-73979520D01*
X84947276Y-63913863D02*
X84977539Y-63928437D01*
X83851488Y-65054486D02*
X83836914Y-65024223D01*
X79913433Y-73979520D02*
X79948739Y-73962517D01*
X82780069Y-71896895D02*
X82765121Y-71831400D01*
X79836040Y-73988240D02*
X79875228Y-73988240D01*
X79762528Y-73962517D02*
X79797835Y-73979520D01*
X84817929Y-63928437D02*
X84848192Y-63913863D01*
X80402479Y-72918621D02*
X80412567Y-72923479D01*
X79948739Y-73962517D02*
X79979378Y-73938084D01*
X85896774Y-63009200D02*
X85923035Y-63030142D01*
X84756151Y-64005903D02*
X84770725Y-63975640D01*
X79731890Y-73938084D02*
X79762528Y-73962517D01*
X83829440Y-64957887D02*
X83836914Y-64925140D01*
X79997056Y-73354722D02*
X79990074Y-73345969D01*
X81046117Y-72731237D02*
X81029114Y-72695931D01*
X79553952Y-73767148D02*
X79564040Y-73772006D01*
X79543035Y-73764656D02*
X79553952Y-73767148D01*
X79572793Y-73778986D02*
X79731890Y-73938084D01*
X84161460Y-66036025D02*
X84227235Y-65953546D01*
X79141548Y-74141292D02*
X79148528Y-74132539D01*
X80350610Y-72930460D02*
X80359363Y-72923478D01*
X79148529Y-74203249D02*
X79141547Y-74194496D01*
X82448366Y-72228598D02*
X82515546Y-72228597D01*
X79318323Y-74981388D02*
X79378848Y-74952240D01*
X79007107Y-74910355D02*
X79059629Y-74952240D01*
X81934459Y-71817888D02*
X81986982Y-71859773D01*
X85814400Y-65250222D02*
X85768626Y-65155175D01*
X75664574Y-74875000D02*
X78547488Y-74875000D01*
X79473256Y-74857832D02*
X79502403Y-74797306D01*
X79520924Y-73767148D02*
X79531839Y-73764656D01*
X78858703Y-74803967D02*
X78919229Y-74833114D01*
X86622090Y-64819706D02*
X86687865Y-64737226D01*
X79134198Y-74162297D02*
X79136690Y-74151380D01*
X87197488Y-63000000D02*
X89975000Y-63000000D01*
X82325263Y-71189787D02*
X82340213Y-71124292D01*
X82641566Y-72184501D02*
X82694088Y-72142615D01*
X79136690Y-74184408D02*
X79134198Y-74173493D01*
X78793209Y-74789018D02*
X78858703Y-74803967D01*
X80156154Y-73513819D02*
X79997056Y-73354722D01*
X81054837Y-72769442D02*
X81046117Y-72731237D01*
X85689960Y-63216012D02*
X85675386Y-63185749D01*
X85768628Y-65656463D02*
X85814400Y-65561416D01*
X78660536Y-74803967D02*
X78726030Y-74789018D01*
X80206310Y-73657157D02*
X80206310Y-73617969D01*
X81004681Y-72912780D02*
X81029114Y-72882142D01*
X82411244Y-71011244D02*
X82850000Y-70572488D01*
X79979378Y-73938084D02*
X80156154Y-73761307D01*
X79797835Y-73979520D02*
X79836040Y-73988240D01*
X84975318Y-65759371D02*
X84995746Y-65779802D01*
X78971752Y-74875000D02*
X79007107Y-74910355D01*
X79120155Y-74981388D02*
X79185650Y-74996337D01*
X78547488Y-74875000D02*
X78600010Y-74833114D01*
X81004681Y-72417804D02*
X81562717Y-71859772D01*
X79431371Y-74910355D02*
X79473256Y-74857832D01*
X74524990Y-76014584D02*
X75664574Y-74875000D01*
X79136690Y-74151380D02*
X79141548Y-74141292D01*
X79473256Y-74538613D02*
X79431371Y-74486090D01*
X79134198Y-74173493D02*
X79134198Y-74162297D01*
X82340213Y-71124292D02*
X82369359Y-71063767D01*
X79148528Y-74132539D02*
X79502083Y-73778987D01*
X82765121Y-71831400D02*
X82735973Y-71770874D01*
X85689960Y-63056403D02*
X85710903Y-63030142D01*
X85768626Y-65155175D02*
X85702853Y-65072695D01*
X79502403Y-74797306D02*
X79517352Y-74731812D01*
X84914529Y-63906389D02*
X84947276Y-63913863D01*
X83872431Y-65080748D02*
X83851488Y-65054486D01*
X81046117Y-72846835D02*
X81054837Y-72808630D01*
X79502404Y-74599139D02*
X79473256Y-74538613D01*
X79517352Y-74664633D02*
X79502404Y-74599139D01*
X79564040Y-73772006D02*
X79572793Y-73778986D01*
X80980247Y-72634653D02*
X80963245Y-72599347D01*
X78919229Y-74833114D02*
X78971752Y-74875000D01*
X80180587Y-73730669D02*
X80197590Y-73695362D01*
X81741260Y-71773791D02*
X81808438Y-71773792D01*
X84848192Y-63913863D02*
X84880939Y-63906389D01*
X78600010Y-74833114D02*
X78660536Y-74803967D01*
X79431371Y-74486090D02*
X79148529Y-74203249D01*
X79252828Y-74996337D02*
X79318323Y-74981388D01*
X80359363Y-72923478D02*
X80369451Y-72918621D01*
X79985217Y-73335881D02*
X79982725Y-73324966D01*
X80980247Y-72448442D02*
X81004681Y-72417804D01*
X82515546Y-72228597D02*
X82581039Y-72213649D01*
X86389593Y-63430720D02*
X86492442Y-63454195D01*
X79982725Y-73324966D02*
X79982725Y-73313770D01*
X80954525Y-72521954D02*
X80963245Y-72483749D01*
X79985217Y-73302853D02*
X79990075Y-73292765D01*
X82735972Y-72090094D02*
X82765120Y-72029568D01*
X79997055Y-73284012D02*
X80350610Y-72930460D01*
X80369451Y-72918621D02*
X80380366Y-72916129D01*
X86209315Y-63740686D02*
X85710903Y-63242274D01*
X85661994Y-65779802D02*
X85702853Y-65738943D01*
X80380366Y-72916129D02*
X80391562Y-72916129D01*
X80391562Y-72916129D02*
X80402479Y-72918621D01*
X80412567Y-72923479D02*
X80421320Y-72930459D01*
X80421320Y-72930459D02*
X80580417Y-73089557D01*
X80580417Y-73089557D02*
X80611055Y-73113990D01*
X86795835Y-63384948D02*
X86878314Y-63319173D01*
X80963245Y-72483749D02*
X80980247Y-72448442D01*
X79990075Y-73292765D02*
X79997055Y-73284012D01*
X82340212Y-71322460D02*
X82325264Y-71256965D01*
X85710903Y-63030142D02*
X85737165Y-63009200D01*
X85702853Y-65072695D02*
X84791668Y-64161511D01*
X80611055Y-73113990D02*
X80646362Y-73130993D01*
X81873933Y-71788740D02*
X81934459Y-71817888D01*
X86733637Y-64330985D02*
X86687863Y-64235938D01*
X85173273Y-65891349D02*
X85276124Y-65914823D01*
X80646362Y-73130993D02*
X80684567Y-73139713D01*
X80684567Y-73139713D02*
X80723755Y-73139713D01*
X82369359Y-71063767D02*
X82411244Y-71011244D01*
X80723755Y-73139713D02*
X80761960Y-73130993D01*
X79531839Y-73764656D02*
X79543035Y-73764656D01*
X80761960Y-73130993D02*
X80797266Y-73113990D01*
X86878314Y-63319173D02*
X87197488Y-63000000D01*
X82325264Y-71256965D02*
X82325263Y-71189787D01*
X83928955Y-64833100D02*
X83961702Y-64825626D01*
X80797266Y-73113990D02*
X80827905Y-73089557D01*
X84296482Y-65650154D02*
X84273008Y-65547304D01*
X80197590Y-73695362D02*
X80206310Y-73657157D01*
X80827905Y-73089557D02*
X81004681Y-72912780D01*
X81029114Y-72882142D02*
X81046117Y-72846835D01*
X82382873Y-72213648D02*
X82448366Y-72228598D01*
X80180587Y-73544458D02*
X80156154Y-73513819D01*
X81054837Y-72808630D02*
X81054837Y-72769442D01*
X82735973Y-71770874D02*
X82694088Y-71718351D01*
X80963245Y-72599347D02*
X80954525Y-72561142D01*
X80954525Y-72561142D02*
X80954525Y-72521954D01*
X81562717Y-71859772D02*
X81615239Y-71817889D01*
X81615239Y-71817889D02*
X81675765Y-71788741D01*
X81675765Y-71788741D02*
X81741260Y-71773791D01*
X81808438Y-71773792D02*
X81873933Y-71788740D01*
X81986982Y-71859773D02*
X82269824Y-72142615D01*
X79982725Y-73313770D02*
X79985217Y-73302853D01*
X82269824Y-72142615D02*
X82322346Y-72184502D01*
X82322346Y-72184502D02*
X82382873Y-72213648D01*
X82581039Y-72213649D02*
X82641566Y-72184501D01*
X79510836Y-73772005D02*
X79520924Y-73767148D01*
X79141547Y-74194496D02*
X79136690Y-74184408D01*
X82765120Y-72029568D02*
X82780070Y-71964073D01*
X82780070Y-71964073D02*
X82780069Y-71896895D01*
X82694088Y-71718351D02*
X82411245Y-71435508D01*
X86597937Y-63454195D02*
X86700787Y-63430720D01*
X79502083Y-73778987D02*
X79510836Y-73772005D01*
X82411245Y-71435508D02*
X82369360Y-71382985D01*
X86700787Y-63430720D02*
X86795835Y-63384948D01*
X79059629Y-74952240D02*
X79120155Y-74981388D01*
X82369360Y-71382985D02*
X82340212Y-71322460D01*
X75918733Y-76560946D02*
X75918733Y-76560947D01*
X76043732Y-76435947D02*
X75918733Y-76560946D01*
X79986541Y-76435947D02*
X76043732Y-76435947D01*
X80593197Y-75829288D02*
X80572768Y-75849717D01*
X80658972Y-75746809D02*
X80593197Y-75829288D01*
X80704744Y-75651761D02*
X80658972Y-75746809D01*
X80728219Y-75443417D02*
X80728219Y-75548911D01*
X80704744Y-75340567D02*
X80728219Y-75443417D01*
X80658972Y-75245519D02*
X80704744Y-75340567D01*
X80324398Y-74516258D02*
X80290808Y-74516258D01*
X80387408Y-74538306D02*
X80357145Y-74523732D01*
X81615752Y-75761331D02*
X80413669Y-74559248D01*
X81718659Y-75847537D02*
X81636180Y-75781762D01*
X81813707Y-75893309D02*
X81718659Y-75847537D01*
X81916558Y-75916783D02*
X81813707Y-75893309D01*
X82022052Y-75916784D02*
X81916558Y-75916783D01*
X82124901Y-75893309D02*
X82022052Y-75916784D01*
X82219949Y-75847537D02*
X82124901Y-75893309D01*
X82409062Y-75658423D02*
X82343287Y-75740902D01*
X82454834Y-75563376D02*
X82409062Y-75658423D01*
X82454834Y-75252182D02*
X82478308Y-75355033D01*
X82409060Y-75157135D02*
X82454834Y-75252182D01*
X82343285Y-75074656D02*
X82409060Y-75157135D01*
X81085255Y-73696535D02*
X81077781Y-73729282D01*
X81099829Y-73666272D02*
X81085255Y-73696535D01*
X82478308Y-75355033D02*
X82478310Y-75460525D01*
X81177297Y-73604495D02*
X81147034Y-73619069D01*
X81210044Y-73597021D02*
X81177297Y-73604495D01*
X81243633Y-73597021D02*
X81210044Y-73597021D01*
X80158546Y-74682108D02*
X80166020Y-74714855D01*
X81099829Y-73825881D02*
X81120772Y-73852143D01*
X81807045Y-74097448D02*
X81724566Y-74031673D01*
X80158546Y-74648519D02*
X80158546Y-74682108D01*
X81085255Y-73795618D02*
X81099829Y-73825881D01*
X81902093Y-74143220D02*
X81807045Y-74097448D01*
X82004942Y-74166695D02*
X81902093Y-74143220D01*
X82110437Y-74166695D02*
X82004942Y-74166695D01*
X80201537Y-74559248D02*
X80180594Y-74585509D01*
X82213287Y-74143220D02*
X82110437Y-74166695D01*
X80227798Y-74538306D02*
X80201537Y-74559248D01*
X82308335Y-74097448D02*
X82213287Y-74143220D01*
X82390814Y-74031673D02*
X82308335Y-74097448D01*
X81120772Y-73852143D02*
X81721815Y-74453186D01*
X81724566Y-74031673D02*
X81332904Y-73640011D01*
X84400000Y-72022488D02*
X82390814Y-74031673D01*
X86535932Y-66316416D02*
X86475406Y-66287268D01*
X88177399Y-65561403D02*
X88162450Y-65626898D01*
X87845696Y-65825928D02*
X87780203Y-65810978D01*
X87129842Y-66659506D02*
X87064349Y-66674454D01*
X83591621Y-70603760D02*
X83559917Y-70614854D01*
X87190369Y-66630358D02*
X87129842Y-66659506D01*
X81147034Y-73619069D02*
X81120772Y-73640011D01*
X85575000Y-70071108D02*
X85575000Y-70128891D01*
X87284775Y-66535951D02*
X87242891Y-66588472D01*
X89925000Y-63975000D02*
X88547488Y-63975000D01*
X87313923Y-66475425D02*
X87284775Y-66535951D01*
X83489854Y-69384917D02*
X83478760Y-69416621D01*
X81845560Y-74576928D02*
X82343285Y-75074656D01*
X87328872Y-66409930D02*
X87313923Y-66475425D01*
X86926737Y-65755492D02*
X86941685Y-65820987D01*
X80290808Y-74516258D02*
X80258061Y-74523732D01*
X88091418Y-65315681D02*
X88133302Y-65368204D01*
X87313923Y-66277257D02*
X87328872Y-66342752D01*
X82302428Y-75781762D02*
X82219949Y-75847537D01*
X87242891Y-66164208D02*
X87284775Y-66216731D01*
X80201537Y-74771380D02*
X80593197Y-75163040D01*
X81306643Y-73619069D02*
X81276380Y-73604495D01*
X85308298Y-69646654D02*
X85397623Y-69702781D01*
X80180594Y-74585509D02*
X80166020Y-74615772D01*
X81077781Y-73729282D02*
X81077781Y-73762871D01*
X87012717Y-65509771D02*
X86970832Y-65562294D01*
X84353345Y-69033297D02*
X84297218Y-69122622D01*
X86970833Y-65881512D02*
X87012718Y-65934035D01*
X88038896Y-65781831D02*
X87978369Y-65810979D01*
X80166020Y-74714855D02*
X80180594Y-74745118D01*
X85103892Y-69600000D02*
X85208724Y-69611811D01*
X83559917Y-70885145D02*
X83591621Y-70896239D01*
X87790212Y-64972460D02*
X87819360Y-65032985D01*
X87775263Y-64839787D02*
X87775264Y-64906965D01*
X80572768Y-75849717D02*
X79986541Y-76435947D01*
X86216712Y-66316416D02*
X86164190Y-66358299D01*
X85308298Y-70553345D02*
X85208724Y-70588188D01*
X87819360Y-65032985D02*
X87861245Y-65085508D01*
X83478760Y-69416621D02*
X83475000Y-69450000D01*
X87012718Y-65934035D02*
X87242891Y-66164208D01*
X87775264Y-64906965D02*
X87790212Y-64972460D01*
X88547488Y-63975000D02*
X87861244Y-64661244D01*
X86970832Y-65562294D02*
X86941686Y-65622819D01*
X83591621Y-70896239D02*
X83625000Y-70900000D01*
X87012717Y-65509772D02*
X87012717Y-65509771D01*
X80357145Y-74523732D02*
X80324398Y-74516258D01*
X87191260Y-65423792D02*
X87125765Y-65438741D01*
X85528346Y-69866702D02*
X85563189Y-69966276D01*
X87790213Y-64774292D02*
X87775263Y-64839787D01*
X87861244Y-64661244D02*
X87819359Y-64713767D01*
X81721815Y-74453186D02*
X81845560Y-74576928D01*
X81332904Y-73640011D02*
X81306643Y-73619069D01*
X90025000Y-64075000D02*
X89925000Y-63975000D01*
X86931676Y-66659505D02*
X86871149Y-66630359D01*
X87978369Y-65810979D02*
X87912876Y-65825927D01*
X86409911Y-66272319D02*
X86342733Y-66272319D01*
X88177399Y-65494225D02*
X88177399Y-65561403D01*
X88133302Y-65368204D02*
X88162450Y-65428730D01*
X83559917Y-69314854D02*
X83531476Y-69332725D01*
X87328872Y-66342752D02*
X87328872Y-66409930D01*
X83928891Y-70900000D02*
X84033723Y-70911811D01*
X87284775Y-66216731D02*
X87313923Y-66277257D01*
X86926736Y-65688314D02*
X86926737Y-65755492D01*
X80258061Y-74523732D02*
X80227798Y-74538306D01*
X88162450Y-65626898D02*
X88133302Y-65687424D01*
X80180594Y-74745118D02*
X80201537Y-74771380D01*
X86818627Y-66588472D02*
X86588455Y-66358300D01*
X87384459Y-65467889D02*
X87323933Y-65438741D01*
X85208724Y-69611811D02*
X85308298Y-69646654D01*
X84400000Y-71371108D02*
X84400000Y-72022488D01*
X87780203Y-65810978D02*
X87719676Y-65781832D01*
X82478310Y-75460525D02*
X82454834Y-75563376D01*
X86941685Y-65820987D02*
X86970833Y-65881512D01*
X87125765Y-65438741D02*
X87065239Y-65467889D01*
X86164190Y-66358299D02*
X84400000Y-68122488D01*
X80413669Y-74559248D02*
X80387408Y-74538306D01*
X87258438Y-65423792D02*
X87191260Y-65423792D01*
X82343287Y-75740902D02*
X82302428Y-75781762D01*
X87719676Y-65781832D02*
X87667154Y-65739945D01*
X80166020Y-74615772D02*
X80158546Y-74648519D01*
X81077781Y-73762871D02*
X81085255Y-73795618D01*
X86997169Y-66674455D02*
X86931676Y-66659505D01*
X87861245Y-65085508D02*
X88091418Y-65315681D01*
X88133302Y-65687424D02*
X88091418Y-65739945D01*
X87667154Y-65739945D02*
X87436982Y-65509773D01*
X87819359Y-64713767D02*
X87790213Y-64774292D01*
X86475406Y-66287268D02*
X86409911Y-66272319D01*
X80593197Y-75163040D02*
X80658972Y-75245519D01*
X87323933Y-65438741D02*
X87258438Y-65423792D01*
X86342733Y-66272319D02*
X86277238Y-66287268D01*
X86277238Y-66287268D02*
X86216712Y-66316416D01*
X84400000Y-68122488D02*
X84400000Y-68828891D01*
X84400000Y-68828891D02*
X84388188Y-68933723D01*
X87065239Y-65467889D02*
X87012717Y-65509772D01*
X83489854Y-70815082D02*
X83507725Y-70843523D01*
X84388188Y-68933723D02*
X84353345Y-69033297D01*
X83507725Y-70843523D02*
X83531476Y-70867274D01*
X84222622Y-69197218D02*
X84133297Y-69253345D01*
X83625000Y-69300000D02*
X83591621Y-69303760D01*
X84133297Y-69253345D02*
X84033723Y-69288188D01*
X84033723Y-69288188D02*
X83928891Y-69300000D01*
X83928891Y-69300000D02*
X83625000Y-69300000D01*
X80728219Y-75548911D02*
X80704744Y-75651761D01*
X83591621Y-69303760D02*
X83559917Y-69314854D01*
X86588455Y-66358300D02*
X86535932Y-66316416D01*
X88091418Y-65739945D02*
X88038896Y-65781831D01*
X84297218Y-69122622D02*
X84222622Y-69197218D01*
X83531476Y-69332725D02*
X83507725Y-69356476D01*
X83559917Y-70614854D02*
X83531476Y-70632725D01*
X83475000Y-69450000D02*
X83478760Y-69483378D01*
X81120772Y-73640011D02*
X81099829Y-73666272D01*
X85575000Y-70128891D02*
X85563189Y-70233723D01*
X83478760Y-69483378D02*
X83489854Y-69515082D01*
X84133297Y-70946654D02*
X84222622Y-71002781D01*
X83507725Y-69543523D02*
X83531476Y-69567274D01*
X83489854Y-70684917D02*
X83478760Y-70716621D01*
X84353345Y-71166702D02*
X84388188Y-71266276D01*
X87912876Y-65825927D02*
X87845696Y-65825928D01*
X83591621Y-69596239D02*
X83625000Y-69600000D01*
X83625000Y-69600000D02*
X85103892Y-69600000D01*
X81276380Y-73604495D02*
X81243633Y-73597021D01*
X85397623Y-69702781D02*
X85472219Y-69777377D01*
X85472219Y-69777377D02*
X85528346Y-69866702D01*
X87242891Y-66588472D02*
X87190369Y-66630358D01*
X85563189Y-69966276D02*
X85575000Y-70071108D01*
X85563189Y-70233723D02*
X85528346Y-70333297D01*
X84222622Y-71002781D02*
X84297218Y-71077377D01*
X87064349Y-66674454D02*
X86997169Y-66674455D01*
X85528346Y-70333297D02*
X85472219Y-70422622D01*
X81636180Y-75781762D02*
X81615752Y-75761331D01*
X85472219Y-70422622D02*
X85397623Y-70497218D01*
X85397623Y-70497218D02*
X85308298Y-70553345D01*
X85208724Y-70588188D02*
X85103892Y-70600000D01*
X83507725Y-69356476D02*
X83489854Y-69384917D01*
X85103892Y-70600000D02*
X83625000Y-70600000D01*
X86941686Y-65622819D02*
X86926736Y-65688314D01*
X83625000Y-70600000D02*
X83591621Y-70603760D01*
X83559917Y-69585145D02*
X83591621Y-69596239D01*
X83531476Y-70632725D02*
X83507725Y-70656476D01*
X83475000Y-70750000D02*
X83478760Y-70783378D01*
X83478760Y-70783378D02*
X83489854Y-70815082D01*
X83531476Y-70867274D02*
X83559917Y-70885145D01*
X83531476Y-69567274D02*
X83559917Y-69585145D01*
X83625000Y-70900000D02*
X83928891Y-70900000D01*
X86871149Y-66630359D02*
X86818627Y-66588472D01*
X87436982Y-65509773D02*
X87384459Y-65467889D01*
X84033723Y-70911811D02*
X84133297Y-70946654D01*
X83507725Y-70656476D02*
X83489854Y-70684917D01*
X84297218Y-71077377D02*
X84353345Y-71166702D01*
X88162450Y-65428730D02*
X88177399Y-65494225D01*
X83489854Y-69515082D02*
X83507725Y-69543523D01*
X83478760Y-70716621D02*
X83475000Y-70750000D01*
X84388188Y-71266276D02*
X84400000Y-71371108D01*
X75000000Y-73785246D02*
X75000000Y-71400000D01*
X74686899Y-74098347D02*
X75000000Y-73785246D01*
X72339049Y-74160951D02*
X71725000Y-74775000D01*
X74081269Y-74160951D02*
X72339049Y-74160951D01*
X74475000Y-78725000D02*
X76325000Y-78725000D01*
X76325000Y-78725000D02*
X76850000Y-79250000D01*
X76850000Y-79250000D02*
X80300000Y-79250000D01*
X93175000Y-66375000D02*
X93200000Y-66375000D01*
X80300000Y-79250000D02*
X93175000Y-66375000D01*
D14*
G36*
X95816423Y-50462511D02*
G01*
X96607041Y-50678799D01*
X97346862Y-51031676D01*
X98012498Y-51509984D01*
X98582919Y-52098614D01*
X99040083Y-52778944D01*
X99369547Y-53529485D01*
X99561428Y-54328728D01*
X99611500Y-55010577D01*
X99611501Y-94987139D01*
X99537489Y-95816423D01*
X99321201Y-96607041D01*
X98968325Y-97346860D01*
X98490014Y-98012501D01*
X97901386Y-98582919D01*
X97221055Y-99040083D01*
X96470515Y-99369547D01*
X95671272Y-99561428D01*
X94989424Y-99611500D01*
X55012850Y-99611500D01*
X54183577Y-99537489D01*
X53392959Y-99321201D01*
X52653140Y-98968325D01*
X51987499Y-98490014D01*
X51417081Y-97901386D01*
X51145800Y-97497677D01*
X52978206Y-97497677D01*
X53354890Y-97836787D01*
X53939930Y-98103224D01*
X54565708Y-98250406D01*
X55208175Y-98272677D01*
X55842642Y-98169180D01*
X56444727Y-97943894D01*
X56645110Y-97836787D01*
X57021794Y-97497677D01*
X92978206Y-97497677D01*
X93354890Y-97836787D01*
X93939930Y-98103224D01*
X94565708Y-98250406D01*
X95208175Y-98272677D01*
X95842642Y-98169180D01*
X96444727Y-97943894D01*
X96645110Y-97836787D01*
X97021794Y-97497677D01*
X96705022Y-97180905D01*
X96705022Y-97180904D01*
X96590990Y-97066873D01*
X96063769Y-96539652D01*
X96001076Y-96476958D01*
X96001075Y-96476958D01*
X95000000Y-95475883D01*
X93998925Y-96476958D01*
X93998924Y-96476958D01*
X93936231Y-96539652D01*
X93409010Y-97066873D01*
X93294978Y-97180904D01*
X93294978Y-97180905D01*
X92978206Y-97497677D01*
X57021794Y-97497677D01*
X56705022Y-97180905D01*
X56705022Y-97180904D01*
X56590990Y-97066873D01*
X56063769Y-96539652D01*
X56001076Y-96476958D01*
X56001075Y-96476958D01*
X55000000Y-95475883D01*
X53998925Y-96476958D01*
X53998924Y-96476958D01*
X53936231Y-96539652D01*
X53409010Y-97066873D01*
X53294978Y-97180904D01*
X53294978Y-97180905D01*
X52978206Y-97497677D01*
X51145800Y-97497677D01*
X50959917Y-97221055D01*
X50630453Y-96470515D01*
X50438572Y-95671272D01*
X50404565Y-95208175D01*
X51727323Y-95208175D01*
X51830820Y-95842642D01*
X52056106Y-96444727D01*
X52163213Y-96645110D01*
X52502323Y-97021794D01*
X52819095Y-96705022D01*
X52819096Y-96705022D01*
X52933127Y-96590990D01*
X53409010Y-96115107D01*
X53523042Y-96001076D01*
X53523042Y-96001075D01*
X54524117Y-95000000D01*
X55475883Y-95000000D01*
X56476958Y-96001075D01*
X56476958Y-96001076D01*
X56590990Y-96115107D01*
X57066873Y-96590990D01*
X57180904Y-96705022D01*
X57180905Y-96705022D01*
X57497677Y-97021794D01*
X57836787Y-96645110D01*
X58103224Y-96060070D01*
X58250406Y-95434292D01*
X58258244Y-95208175D01*
X91727323Y-95208175D01*
X91830820Y-95842642D01*
X92056106Y-96444727D01*
X92163213Y-96645110D01*
X92502323Y-97021794D01*
X92819095Y-96705022D01*
X92819096Y-96705022D01*
X92933127Y-96590990D01*
X93409010Y-96115107D01*
X93523042Y-96001076D01*
X93523042Y-96001075D01*
X94524117Y-95000000D01*
X95475883Y-95000000D01*
X96476958Y-96001075D01*
X96476958Y-96001076D01*
X96590990Y-96115107D01*
X97066873Y-96590990D01*
X97180904Y-96705022D01*
X97180905Y-96705022D01*
X97497677Y-97021794D01*
X97836787Y-96645110D01*
X98103224Y-96060070D01*
X98250406Y-95434292D01*
X98272677Y-94791825D01*
X98169180Y-94157358D01*
X97943894Y-93555273D01*
X97836787Y-93354890D01*
X97497677Y-92978206D01*
X97180905Y-93294978D01*
X97180904Y-93294978D01*
X97120993Y-93354890D01*
X96590990Y-93884893D01*
X96476958Y-93998924D01*
X96476958Y-93998925D01*
X95475883Y-95000000D01*
X94524117Y-95000000D01*
X93523042Y-93998925D01*
X93523042Y-93998924D01*
X93409010Y-93884893D01*
X92879007Y-93354890D01*
X92819096Y-93294978D01*
X92819095Y-93294978D01*
X92502323Y-92978206D01*
X92163213Y-93354890D01*
X91896776Y-93939930D01*
X91749594Y-94565708D01*
X91727323Y-95208175D01*
X58258244Y-95208175D01*
X58272677Y-94791825D01*
X58169180Y-94157358D01*
X57943894Y-93555273D01*
X57836787Y-93354890D01*
X57497677Y-92978206D01*
X57180905Y-93294978D01*
X57180904Y-93294978D01*
X57120993Y-93354890D01*
X56590990Y-93884893D01*
X56476958Y-93998924D01*
X56476958Y-93998925D01*
X55475883Y-95000000D01*
X54524117Y-95000000D01*
X53523042Y-93998925D01*
X53523042Y-93998924D01*
X53409010Y-93884893D01*
X52879007Y-93354890D01*
X52819096Y-93294978D01*
X52819095Y-93294978D01*
X52502323Y-92978206D01*
X52163213Y-93354890D01*
X51896776Y-93939930D01*
X51749594Y-94565708D01*
X51727323Y-95208175D01*
X50404565Y-95208175D01*
X50388500Y-94989424D01*
X50388500Y-92502323D01*
X52978206Y-92502323D01*
X53294978Y-92819095D01*
X53294978Y-92819096D01*
X53409010Y-92933127D01*
X53884893Y-93409010D01*
X53998924Y-93523042D01*
X53998925Y-93523042D01*
X55000000Y-94524117D01*
X56001075Y-93523042D01*
X56001076Y-93523042D01*
X56115107Y-93409010D01*
X56590990Y-92933127D01*
X56705022Y-92819096D01*
X56705022Y-92819095D01*
X57021794Y-92502323D01*
X92978206Y-92502323D01*
X93294978Y-92819095D01*
X93294978Y-92819096D01*
X93409010Y-92933127D01*
X93884893Y-93409010D01*
X93998924Y-93523042D01*
X93998925Y-93523042D01*
X95000000Y-94524117D01*
X96001075Y-93523042D01*
X96001076Y-93523042D01*
X96115107Y-93409010D01*
X96590990Y-92933127D01*
X96705022Y-92819096D01*
X96705022Y-92819095D01*
X97021794Y-92502323D01*
X96645110Y-92163213D01*
X96060070Y-91896776D01*
X95434292Y-91749594D01*
X94791825Y-91727323D01*
X94157358Y-91830820D01*
X93555273Y-92056106D01*
X93354890Y-92163213D01*
X92978206Y-92502323D01*
X57021794Y-92502323D01*
X56645110Y-92163213D01*
X56060070Y-91896776D01*
X55434292Y-91749594D01*
X54791825Y-91727323D01*
X54157358Y-91830820D01*
X53555273Y-92056106D01*
X53354890Y-92163213D01*
X52978206Y-92502323D01*
X50388500Y-92502323D01*
X50388500Y-78676887D01*
X72361500Y-78676887D01*
X72361500Y-78773113D01*
X72380272Y-78867490D01*
X72417097Y-78956392D01*
X72470557Y-79036401D01*
X72538599Y-79104443D01*
X72618608Y-79157903D01*
X72707510Y-79194728D01*
X72801887Y-79213500D01*
X72898113Y-79213500D01*
X72992490Y-79194728D01*
X73081392Y-79157903D01*
X73161401Y-79104443D01*
X73229443Y-79036401D01*
X73282903Y-78956392D01*
X73319728Y-78867490D01*
X73338500Y-78773113D01*
X73338500Y-78676887D01*
X73319728Y-78582510D01*
X73282903Y-78493608D01*
X73229443Y-78413599D01*
X73161401Y-78345557D01*
X73081392Y-78292097D01*
X72992490Y-78255272D01*
X72898113Y-78236500D01*
X72801887Y-78236500D01*
X72707510Y-78255272D01*
X72618608Y-78292097D01*
X72538599Y-78345557D01*
X72470557Y-78413599D01*
X72417097Y-78493608D01*
X72380272Y-78582510D01*
X72361500Y-78676887D01*
X50388500Y-78676887D01*
X50388500Y-74726887D01*
X71236500Y-74726887D01*
X71236500Y-74823113D01*
X71255272Y-74917490D01*
X71292097Y-75006392D01*
X71345557Y-75086401D01*
X71413599Y-75154443D01*
X71493608Y-75207903D01*
X71582510Y-75244728D01*
X71676887Y-75263500D01*
X71773113Y-75263500D01*
X71867490Y-75244728D01*
X71956392Y-75207903D01*
X72036401Y-75154443D01*
X72104443Y-75086401D01*
X72157903Y-75006392D01*
X72194728Y-74917490D01*
X72213500Y-74823113D01*
X72213500Y-74765210D01*
X72479260Y-74499451D01*
X73668479Y-74499451D01*
X73648364Y-74529555D01*
X73611539Y-74618457D01*
X73592767Y-74712834D01*
X73592767Y-74809060D01*
X73611539Y-74903437D01*
X73648364Y-74992339D01*
X73701824Y-75072348D01*
X73769866Y-75140390D01*
X73849875Y-75193850D01*
X73938777Y-75230675D01*
X74033154Y-75249447D01*
X74129380Y-75249447D01*
X74182386Y-75238904D01*
X73853667Y-75567623D01*
X73840755Y-75578220D01*
X73798454Y-75629763D01*
X73795832Y-75634669D01*
X73742668Y-75581505D01*
X73662659Y-75528045D01*
X73573757Y-75491220D01*
X73479380Y-75472448D01*
X73383154Y-75472448D01*
X73288777Y-75491220D01*
X73199875Y-75528045D01*
X73119866Y-75581505D01*
X73051824Y-75649547D01*
X72998364Y-75729556D01*
X72961539Y-75818458D01*
X72942767Y-75912835D01*
X72942767Y-76009061D01*
X72961539Y-76103438D01*
X72998364Y-76192340D01*
X73044206Y-76260947D01*
X72998357Y-76329565D01*
X72961532Y-76418467D01*
X72942760Y-76512844D01*
X72942760Y-76609070D01*
X72961532Y-76703447D01*
X72998357Y-76792349D01*
X73051817Y-76872358D01*
X73119859Y-76940400D01*
X73199868Y-76993860D01*
X73288770Y-77030685D01*
X73383147Y-77049457D01*
X73479373Y-77049457D01*
X73573750Y-77030685D01*
X73662652Y-76993860D01*
X73742661Y-76940400D01*
X73756269Y-76926793D01*
X73769867Y-76940391D01*
X73849876Y-76993851D01*
X73938778Y-77030676D01*
X74033155Y-77049448D01*
X74129381Y-77049448D01*
X74223758Y-77030676D01*
X74312660Y-76993851D01*
X74392669Y-76940391D01*
X74460711Y-76872349D01*
X74514171Y-76792340D01*
X74550996Y-76703438D01*
X74569768Y-76609061D01*
X74569768Y-76512835D01*
X74567828Y-76503084D01*
X74573103Y-76503084D01*
X74667480Y-76484312D01*
X74756382Y-76447487D01*
X74836391Y-76394027D01*
X74904433Y-76325985D01*
X74957893Y-76245976D01*
X74994718Y-76157074D01*
X75013490Y-76062697D01*
X75013490Y-76004794D01*
X75804785Y-75213500D01*
X76101070Y-75213500D01*
X76099013Y-75218465D01*
X76080241Y-75312842D01*
X76080241Y-75409068D01*
X76099013Y-75503445D01*
X76100727Y-75507583D01*
X76061223Y-75491220D01*
X75966846Y-75472448D01*
X75870620Y-75472448D01*
X75776243Y-75491220D01*
X75687341Y-75528045D01*
X75607332Y-75581505D01*
X75539290Y-75649547D01*
X75485830Y-75729556D01*
X75449005Y-75818458D01*
X75430233Y-75912835D01*
X75430233Y-76009061D01*
X75449005Y-76103438D01*
X75485830Y-76192340D01*
X75531672Y-76260948D01*
X75485830Y-76329555D01*
X75449005Y-76418457D01*
X75430233Y-76512834D01*
X75430233Y-76609060D01*
X75449005Y-76703437D01*
X75485830Y-76792339D01*
X75539290Y-76872348D01*
X75607332Y-76940390D01*
X75687341Y-76993850D01*
X75776243Y-77030675D01*
X75870620Y-77049447D01*
X75966846Y-77049447D01*
X76061223Y-77030675D01*
X76150125Y-76993850D01*
X76230134Y-76940390D01*
X76298176Y-76872348D01*
X76351636Y-76792339D01*
X76359047Y-76774447D01*
X79969929Y-76774447D01*
X79986541Y-76776083D01*
X80003153Y-76774447D01*
X80003161Y-76774447D01*
X80047150Y-76770114D01*
X80052899Y-76769548D01*
X80067749Y-76765043D01*
X80116706Y-76750193D01*
X80175511Y-76718761D01*
X80227054Y-76676460D01*
X80237650Y-76663549D01*
X80810681Y-76090516D01*
X80812643Y-76089165D01*
X80834194Y-76067001D01*
X80844304Y-76056891D01*
X80845817Y-76055047D01*
X80847484Y-76053333D01*
X80856412Y-76042137D01*
X80876010Y-76018258D01*
X80877137Y-76016149D01*
X80916227Y-75967132D01*
X80930746Y-75951337D01*
X80945611Y-75926926D01*
X80961164Y-75902926D01*
X80969099Y-75882983D01*
X81004576Y-75809315D01*
X81015214Y-75790687D01*
X81024278Y-75763570D01*
X81034099Y-75736718D01*
X81037395Y-75715523D01*
X81047400Y-75671690D01*
X81374943Y-75999233D01*
X81376303Y-76001208D01*
X81398445Y-76022738D01*
X81408559Y-76032853D01*
X81410414Y-76034375D01*
X81412135Y-76036049D01*
X81423324Y-76044972D01*
X81447190Y-76064561D01*
X81449307Y-76065693D01*
X81498336Y-76104792D01*
X81514131Y-76119311D01*
X81538542Y-76134176D01*
X81562542Y-76149729D01*
X81582485Y-76157664D01*
X81656150Y-76193139D01*
X81674784Y-76203781D01*
X81701905Y-76212846D01*
X81728750Y-76222664D01*
X81749947Y-76225961D01*
X81829680Y-76244159D01*
X81850198Y-76250383D01*
X81878642Y-76253185D01*
X81907021Y-76256785D01*
X81928418Y-76255282D01*
X82010199Y-76255284D01*
X82031593Y-76256786D01*
X82059955Y-76253187D01*
X82088405Y-76250385D01*
X82108931Y-76244159D01*
X82188666Y-76225960D01*
X82209857Y-76222664D01*
X82236700Y-76212847D01*
X82263828Y-76203779D01*
X82282459Y-76193138D01*
X82356127Y-76157662D01*
X82376066Y-76149729D01*
X82400072Y-76134171D01*
X82424476Y-76119311D01*
X82440267Y-76104796D01*
X82489294Y-76065698D01*
X82491401Y-76064572D01*
X82515254Y-76044996D01*
X82526473Y-76036049D01*
X82528191Y-76034379D01*
X82530034Y-76032866D01*
X82540135Y-76022765D01*
X82562305Y-76001208D01*
X82562481Y-76000953D01*
X82562733Y-76000779D01*
X82584279Y-75978620D01*
X82594397Y-75968502D01*
X82595910Y-75966658D01*
X82597574Y-75964947D01*
X82606508Y-75953745D01*
X82626102Y-75929868D01*
X82627227Y-75927764D01*
X82666318Y-75878745D01*
X82680835Y-75862952D01*
X82695709Y-75838526D01*
X82711254Y-75814540D01*
X82719184Y-75794610D01*
X82754668Y-75720926D01*
X82765303Y-75702305D01*
X82774367Y-75675191D01*
X82784189Y-75648334D01*
X82787485Y-75627141D01*
X82805684Y-75547409D01*
X82811912Y-75526875D01*
X82814715Y-75498416D01*
X82818312Y-75470069D01*
X82816809Y-75448667D01*
X82816808Y-75366890D01*
X82818310Y-75345496D01*
X82814709Y-75317112D01*
X82811907Y-75288670D01*
X82805684Y-75268157D01*
X82787487Y-75188428D01*
X82784188Y-75167218D01*
X82774361Y-75140349D01*
X82765306Y-75113259D01*
X82754668Y-75094632D01*
X82719182Y-75020948D01*
X82711252Y-75001018D01*
X82695697Y-74977015D01*
X82680829Y-74952602D01*
X82666318Y-74936815D01*
X82627224Y-74887793D01*
X82626098Y-74885687D01*
X82606490Y-74861793D01*
X82597572Y-74850611D01*
X82595911Y-74848903D01*
X82594393Y-74847053D01*
X82584245Y-74836905D01*
X82562731Y-74814779D01*
X82560766Y-74813426D01*
X82233218Y-74485876D01*
X82277050Y-74475871D01*
X82298243Y-74472575D01*
X82325091Y-74462756D01*
X82352213Y-74453690D01*
X82370841Y-74443052D01*
X82444513Y-74407573D01*
X82464452Y-74399640D01*
X82488458Y-74384082D01*
X82512862Y-74369222D01*
X82528653Y-74354707D01*
X82577677Y-74315612D01*
X82579783Y-74314486D01*
X82603650Y-74294899D01*
X82614859Y-74285960D01*
X82616574Y-74284293D01*
X82618417Y-74282780D01*
X82628527Y-74272670D01*
X82650691Y-74251119D01*
X82652047Y-74249150D01*
X84627602Y-72273597D01*
X84640513Y-72263001D01*
X84682814Y-72211458D01*
X84714246Y-72152653D01*
X84725811Y-72114527D01*
X84733601Y-72088847D01*
X84735308Y-72071510D01*
X84738500Y-72039108D01*
X84738500Y-72039101D01*
X84740136Y-72022489D01*
X84738500Y-72005877D01*
X84738500Y-71402044D01*
X84738933Y-71399695D01*
X84738500Y-71368827D01*
X84738500Y-71354488D01*
X84738265Y-71352107D01*
X84738232Y-71349722D01*
X84736631Y-71335516D01*
X84733601Y-71304751D01*
X84732907Y-71302463D01*
X84725887Y-71240160D01*
X84724984Y-71218726D01*
X84718230Y-71190935D01*
X84712261Y-71162984D01*
X84703777Y-71143287D01*
X84676765Y-71066095D01*
X84671116Y-71045401D01*
X84658349Y-71019813D01*
X84646308Y-70993886D01*
X84633654Y-70976571D01*
X84609732Y-70938500D01*
X85072956Y-70938500D01*
X85075305Y-70938933D01*
X85106172Y-70938500D01*
X85120512Y-70938500D01*
X85122893Y-70938265D01*
X85125277Y-70938232D01*
X85139476Y-70936632D01*
X85170249Y-70933601D01*
X85172538Y-70932907D01*
X85234839Y-70925887D01*
X85256273Y-70924984D01*
X85284064Y-70918230D01*
X85312015Y-70912261D01*
X85331713Y-70903777D01*
X85408905Y-70876765D01*
X85429599Y-70871116D01*
X85455193Y-70858346D01*
X85481113Y-70846308D01*
X85498424Y-70833657D01*
X85567674Y-70790144D01*
X85586593Y-70780031D01*
X85608689Y-70761897D01*
X85631296Y-70744381D01*
X85645367Y-70728184D01*
X85703185Y-70670366D01*
X85719382Y-70656295D01*
X85736904Y-70633680D01*
X85755032Y-70611591D01*
X85765142Y-70592677D01*
X85808655Y-70523428D01*
X85821309Y-70506113D01*
X85833350Y-70480186D01*
X85846117Y-70454598D01*
X85851766Y-70433904D01*
X85878779Y-70356709D01*
X85887263Y-70337011D01*
X85893233Y-70309055D01*
X85899985Y-70281273D01*
X85900888Y-70259842D01*
X85907908Y-70197533D01*
X85908601Y-70195247D01*
X85911631Y-70164481D01*
X85913232Y-70150274D01*
X85913265Y-70147892D01*
X85913500Y-70145510D01*
X85913500Y-70131141D01*
X85913932Y-70100301D01*
X85913876Y-70100000D01*
X85913932Y-70099698D01*
X85913500Y-70068858D01*
X85913500Y-70054488D01*
X85913265Y-70052106D01*
X85913232Y-70049725D01*
X85911632Y-70035519D01*
X85908601Y-70004751D01*
X85907907Y-70002465D01*
X85900888Y-69940157D01*
X85899985Y-69918726D01*
X85893233Y-69890944D01*
X85887263Y-69862988D01*
X85878779Y-69843290D01*
X85851766Y-69766095D01*
X85846117Y-69745401D01*
X85833350Y-69719813D01*
X85821309Y-69693886D01*
X85808655Y-69676571D01*
X85765142Y-69607322D01*
X85755032Y-69588408D01*
X85736904Y-69566319D01*
X85719382Y-69543704D01*
X85703185Y-69529633D01*
X85645367Y-69471815D01*
X85631296Y-69455618D01*
X85608689Y-69438102D01*
X85586593Y-69419968D01*
X85567674Y-69409855D01*
X85498424Y-69366342D01*
X85481113Y-69353691D01*
X85455193Y-69341653D01*
X85429599Y-69328883D01*
X85408905Y-69323234D01*
X85331713Y-69296223D01*
X85312012Y-69287737D01*
X85284052Y-69281766D01*
X85256273Y-69275015D01*
X85234842Y-69274112D01*
X85172536Y-69267093D01*
X85170249Y-69266399D01*
X85139467Y-69263367D01*
X85125274Y-69261768D01*
X85122894Y-69261735D01*
X85120512Y-69261500D01*
X85106142Y-69261500D01*
X85075302Y-69261068D01*
X85072959Y-69261500D01*
X84609731Y-69261500D01*
X84633654Y-69223428D01*
X84646308Y-69206113D01*
X84658349Y-69180186D01*
X84671116Y-69154598D01*
X84676765Y-69133904D01*
X84703777Y-69056712D01*
X84712261Y-69037015D01*
X84718230Y-69009064D01*
X84724984Y-68981273D01*
X84725887Y-68959839D01*
X84732907Y-68897536D01*
X84733601Y-68895248D01*
X84736631Y-68864483D01*
X84738232Y-68850277D01*
X84738265Y-68847892D01*
X84738500Y-68845511D01*
X84738500Y-68831172D01*
X84738933Y-68800304D01*
X84738500Y-68797955D01*
X84738500Y-68262698D01*
X85849312Y-67151887D01*
X90061500Y-67151887D01*
X90061500Y-67248113D01*
X90080272Y-67342490D01*
X90117097Y-67431392D01*
X90170557Y-67511401D01*
X90238599Y-67579443D01*
X90318608Y-67632903D01*
X90407510Y-67669728D01*
X90501887Y-67688500D01*
X90598113Y-67688500D01*
X90692490Y-67669728D01*
X90781392Y-67632903D01*
X90861401Y-67579443D01*
X90929443Y-67511401D01*
X90982903Y-67431392D01*
X91019728Y-67342490D01*
X91038500Y-67248113D01*
X91038500Y-67151887D01*
X91019728Y-67057510D01*
X90982903Y-66968608D01*
X90929443Y-66888599D01*
X90861401Y-66820557D01*
X90781392Y-66767097D01*
X90692490Y-66730272D01*
X90598113Y-66711500D01*
X90501887Y-66711500D01*
X90407510Y-66730272D01*
X90318608Y-66767097D01*
X90238599Y-66820557D01*
X90170557Y-66888599D01*
X90117097Y-66968608D01*
X90080272Y-67057510D01*
X90061500Y-67151887D01*
X85849312Y-67151887D01*
X86376322Y-66624878D01*
X86557393Y-66805949D01*
X86558745Y-66807912D01*
X86580883Y-66829439D01*
X86591023Y-66839579D01*
X86592868Y-66841093D01*
X86594576Y-66842754D01*
X86605767Y-66851679D01*
X86629656Y-66871284D01*
X86631760Y-66872408D01*
X86650828Y-66887616D01*
X86666628Y-66902138D01*
X86691037Y-66917001D01*
X86715025Y-66932547D01*
X86734966Y-66940482D01*
X86774125Y-66959339D01*
X86792743Y-66969972D01*
X86819862Y-66979038D01*
X86846728Y-66988862D01*
X86867909Y-66992156D01*
X86910294Y-67001831D01*
X86930817Y-67008056D01*
X86959250Y-67010857D01*
X86987621Y-67014457D01*
X87009027Y-67012954D01*
X87052493Y-67012954D01*
X87073887Y-67014456D01*
X87102244Y-67010858D01*
X87130710Y-67008054D01*
X87151241Y-67001826D01*
X87193603Y-66992157D01*
X87214799Y-66988861D01*
X87241653Y-66979040D01*
X87268766Y-66969977D01*
X87287390Y-66959341D01*
X87326558Y-66940479D01*
X87346489Y-66932548D01*
X87370472Y-66917005D01*
X87394897Y-66902131D01*
X87410696Y-66887609D01*
X87444666Y-66860518D01*
X87462338Y-66848348D01*
X87482278Y-66827841D01*
X87502770Y-66807915D01*
X87514935Y-66790250D01*
X87542027Y-66756277D01*
X87556547Y-66740481D01*
X87571426Y-66716048D01*
X87586967Y-66692067D01*
X87594897Y-66672138D01*
X87613754Y-66632980D01*
X87624393Y-66614352D01*
X87633455Y-66587241D01*
X87643278Y-66560384D01*
X87646575Y-66539184D01*
X87656246Y-66496814D01*
X87662473Y-66476286D01*
X87665276Y-66447827D01*
X87668874Y-66419472D01*
X87667372Y-66398084D01*
X87667372Y-66354598D01*
X87668874Y-66333210D01*
X87665277Y-66304859D01*
X87662473Y-66276395D01*
X87656245Y-66255864D01*
X87646575Y-66213498D01*
X87643278Y-66192298D01*
X87633455Y-66165441D01*
X87624393Y-66138330D01*
X87613754Y-66119702D01*
X87605494Y-66102549D01*
X87622652Y-66110812D01*
X87641270Y-66121445D01*
X87668389Y-66130511D01*
X87695255Y-66140335D01*
X87716436Y-66143629D01*
X87758821Y-66153304D01*
X87779344Y-66159529D01*
X87807777Y-66162330D01*
X87836148Y-66165930D01*
X87857554Y-66164427D01*
X87901020Y-66164427D01*
X87922414Y-66165929D01*
X87950771Y-66162331D01*
X87979237Y-66159527D01*
X87999768Y-66153299D01*
X88042130Y-66143630D01*
X88063326Y-66140334D01*
X88090180Y-66130513D01*
X88117293Y-66121450D01*
X88135917Y-66110814D01*
X88175085Y-66091952D01*
X88195016Y-66084021D01*
X88218999Y-66068478D01*
X88243424Y-66053604D01*
X88259223Y-66039082D01*
X88293193Y-66011991D01*
X88310865Y-65999821D01*
X88330805Y-65979314D01*
X88351297Y-65959388D01*
X88363462Y-65941723D01*
X88390554Y-65907750D01*
X88405074Y-65891954D01*
X88419953Y-65867521D01*
X88435494Y-65843540D01*
X88443424Y-65823611D01*
X88462281Y-65784453D01*
X88472920Y-65765825D01*
X88481982Y-65738714D01*
X88491805Y-65711857D01*
X88495102Y-65690657D01*
X88504773Y-65648287D01*
X88511000Y-65627759D01*
X88513803Y-65599300D01*
X88517401Y-65570945D01*
X88515899Y-65549557D01*
X88515899Y-65506071D01*
X88517401Y-65484683D01*
X88513804Y-65456332D01*
X88511000Y-65427868D01*
X88504772Y-65407337D01*
X88495102Y-65364971D01*
X88491805Y-65343771D01*
X88481982Y-65316914D01*
X88472920Y-65289803D01*
X88462281Y-65271175D01*
X88443425Y-65232020D01*
X88435497Y-65212093D01*
X88419942Y-65188089D01*
X88405074Y-65163674D01*
X88390562Y-65147886D01*
X88375360Y-65128823D01*
X88374231Y-65126711D01*
X88354607Y-65102799D01*
X88345709Y-65091641D01*
X88344048Y-65089932D01*
X88342525Y-65088077D01*
X88332364Y-65077916D01*
X88310869Y-65055809D01*
X88308903Y-65054455D01*
X88127823Y-64873375D01*
X88687700Y-64313500D01*
X89596846Y-64313500D01*
X89645557Y-64386401D01*
X89713599Y-64454443D01*
X89793608Y-64507903D01*
X89882510Y-64544728D01*
X89976887Y-64563500D01*
X90073113Y-64563500D01*
X90167490Y-64544728D01*
X90256392Y-64507903D01*
X90336401Y-64454443D01*
X90404443Y-64386401D01*
X90457903Y-64306392D01*
X90494728Y-64217490D01*
X90513500Y-64123113D01*
X90513500Y-64026887D01*
X90500892Y-63963500D01*
X92664561Y-63963500D01*
X92680272Y-64042490D01*
X92717097Y-64131392D01*
X92737214Y-64161500D01*
X91040476Y-64161500D01*
X91023856Y-64159863D01*
X90957498Y-64166399D01*
X90903222Y-64182863D01*
X90893691Y-64185754D01*
X90834886Y-64217186D01*
X90814885Y-64233601D01*
X90796252Y-64248892D01*
X90796248Y-64248896D01*
X90783343Y-64259487D01*
X90772751Y-64272393D01*
X90533655Y-64511490D01*
X90475753Y-64511490D01*
X90381376Y-64530262D01*
X90292474Y-64567087D01*
X90212465Y-64620547D01*
X90144423Y-64688589D01*
X90090963Y-64768598D01*
X90054138Y-64857500D01*
X90035366Y-64951877D01*
X90035366Y-65048103D01*
X90054138Y-65142480D01*
X90090963Y-65231382D01*
X90144423Y-65311391D01*
X90212465Y-65379433D01*
X90260457Y-65411500D01*
X89441611Y-65411500D01*
X89424999Y-65409864D01*
X89408387Y-65411500D01*
X89408380Y-65411500D01*
X89367872Y-65415490D01*
X89358642Y-65416399D01*
X89347823Y-65419681D01*
X89294835Y-65435754D01*
X89236030Y-65467186D01*
X89212496Y-65486500D01*
X89151887Y-65486500D01*
X89057510Y-65505272D01*
X88968608Y-65542097D01*
X88888599Y-65595557D01*
X88820557Y-65663599D01*
X88767097Y-65743608D01*
X88730272Y-65832510D01*
X88711500Y-65926887D01*
X88711500Y-66023113D01*
X88730272Y-66117490D01*
X88767097Y-66206392D01*
X88820557Y-66286401D01*
X88888599Y-66354443D01*
X88968608Y-66407903D01*
X89057510Y-66444728D01*
X89151887Y-66463500D01*
X89248113Y-66463500D01*
X89342490Y-66444728D01*
X89431392Y-66407903D01*
X89511401Y-66354443D01*
X89579443Y-66286401D01*
X89632903Y-66206392D01*
X89669728Y-66117490D01*
X89675494Y-66088500D01*
X92803919Y-66088500D01*
X92767097Y-66143608D01*
X92730272Y-66232510D01*
X92711500Y-66326887D01*
X92711500Y-66359788D01*
X80159790Y-78911500D01*
X76990211Y-78911500D01*
X76576113Y-78497403D01*
X76565513Y-78484487D01*
X76513970Y-78442186D01*
X76455165Y-78410754D01*
X76391357Y-78391399D01*
X76341620Y-78386500D01*
X76341612Y-78386500D01*
X76325000Y-78384864D01*
X76308388Y-78386500D01*
X76254490Y-78386500D01*
X76257903Y-78381392D01*
X76294728Y-78292490D01*
X76313500Y-78198113D01*
X76313500Y-78101887D01*
X76294728Y-78007510D01*
X76257903Y-77918608D01*
X76213322Y-77851887D01*
X76836500Y-77851887D01*
X76836500Y-77948113D01*
X76855272Y-78042490D01*
X76892097Y-78131392D01*
X76945557Y-78211401D01*
X77013599Y-78279443D01*
X77093608Y-78332903D01*
X77182510Y-78369728D01*
X77276887Y-78388500D01*
X77373113Y-78388500D01*
X77467490Y-78369728D01*
X77556392Y-78332903D01*
X77636401Y-78279443D01*
X77704443Y-78211401D01*
X77757903Y-78131392D01*
X77794728Y-78042490D01*
X77813500Y-77948113D01*
X77813500Y-77851887D01*
X77794728Y-77757510D01*
X77775334Y-77710689D01*
X77857510Y-77744728D01*
X77939647Y-77761065D01*
X77936500Y-77776887D01*
X77936500Y-77873113D01*
X77955272Y-77967490D01*
X77992097Y-78056392D01*
X78045557Y-78136401D01*
X78113599Y-78204443D01*
X78193608Y-78257903D01*
X78282510Y-78294728D01*
X78376887Y-78313500D01*
X78473113Y-78313500D01*
X78567490Y-78294728D01*
X78656392Y-78257903D01*
X78736401Y-78204443D01*
X78804443Y-78136401D01*
X78857903Y-78056392D01*
X78894728Y-77967490D01*
X78913500Y-77873113D01*
X78913500Y-77776887D01*
X78894728Y-77682510D01*
X78857903Y-77593608D01*
X78804443Y-77513599D01*
X78736401Y-77445557D01*
X78656392Y-77392097D01*
X78567490Y-77355272D01*
X78485353Y-77338935D01*
X78488500Y-77323113D01*
X78488500Y-77226887D01*
X78469728Y-77132510D01*
X78432903Y-77043608D01*
X78379443Y-76963599D01*
X78311401Y-76895557D01*
X78231392Y-76842097D01*
X78142490Y-76805272D01*
X78048113Y-76786500D01*
X77951887Y-76786500D01*
X77857510Y-76805272D01*
X77768608Y-76842097D01*
X77688599Y-76895557D01*
X77620557Y-76963599D01*
X77567097Y-77043608D01*
X77530272Y-77132510D01*
X77511500Y-77226887D01*
X77511500Y-77323113D01*
X77530272Y-77417490D01*
X77549666Y-77464311D01*
X77467490Y-77430272D01*
X77373113Y-77411500D01*
X77276887Y-77411500D01*
X77182510Y-77430272D01*
X77093608Y-77467097D01*
X77013599Y-77520557D01*
X76945557Y-77588599D01*
X76892097Y-77668608D01*
X76855272Y-77757510D01*
X76836500Y-77851887D01*
X76213322Y-77851887D01*
X76204443Y-77838599D01*
X76136401Y-77770557D01*
X76056392Y-77717097D01*
X75967490Y-77680272D01*
X75873113Y-77661500D01*
X75776887Y-77661500D01*
X75682510Y-77680272D01*
X75593608Y-77717097D01*
X75513599Y-77770557D01*
X75445557Y-77838599D01*
X75392097Y-77918608D01*
X75355272Y-78007510D01*
X75336500Y-78101887D01*
X75336500Y-78198113D01*
X75355272Y-78292490D01*
X75392097Y-78381392D01*
X75395510Y-78386500D01*
X74827344Y-78386500D01*
X74786401Y-78345557D01*
X74706392Y-78292097D01*
X74617490Y-78255272D01*
X74523113Y-78236500D01*
X74426887Y-78236500D01*
X74332510Y-78255272D01*
X74280512Y-78276811D01*
X74294728Y-78242490D01*
X74313500Y-78148113D01*
X74313500Y-78051887D01*
X74294728Y-77957510D01*
X74257903Y-77868608D01*
X74204443Y-77788599D01*
X74136401Y-77720557D01*
X74056392Y-77667097D01*
X73967490Y-77630272D01*
X73873113Y-77611500D01*
X73776887Y-77611500D01*
X73682510Y-77630272D01*
X73593608Y-77667097D01*
X73513599Y-77720557D01*
X73445557Y-77788599D01*
X73392097Y-77868608D01*
X73355272Y-77957510D01*
X73336500Y-78051887D01*
X73336500Y-78148113D01*
X73355272Y-78242490D01*
X73392097Y-78331392D01*
X73445557Y-78411401D01*
X73513599Y-78479443D01*
X73593608Y-78532903D01*
X73682510Y-78569728D01*
X73776887Y-78588500D01*
X73873113Y-78588500D01*
X73967490Y-78569728D01*
X74019488Y-78548189D01*
X74005272Y-78582510D01*
X73986500Y-78676887D01*
X73986500Y-78773113D01*
X74005272Y-78867490D01*
X74042097Y-78956392D01*
X74095557Y-79036401D01*
X74163599Y-79104443D01*
X74243608Y-79157903D01*
X74332510Y-79194728D01*
X74426887Y-79213500D01*
X74523113Y-79213500D01*
X74617490Y-79194728D01*
X74706392Y-79157903D01*
X74786401Y-79104443D01*
X74827344Y-79063500D01*
X76184790Y-79063500D01*
X76598891Y-79477602D01*
X76609487Y-79490513D01*
X76661030Y-79532814D01*
X76719835Y-79564246D01*
X76764287Y-79577730D01*
X76783642Y-79583601D01*
X76789936Y-79584221D01*
X76833380Y-79588500D01*
X76833387Y-79588500D01*
X76849999Y-79590136D01*
X76866611Y-79588500D01*
X80283388Y-79588500D01*
X80300000Y-79590136D01*
X80316612Y-79588500D01*
X80316620Y-79588500D01*
X80366357Y-79583601D01*
X80430165Y-79564246D01*
X80488970Y-79532814D01*
X80540513Y-79490513D01*
X80551113Y-79477597D01*
X85893973Y-74134737D01*
X89944350Y-74134737D01*
X89944350Y-74230963D01*
X89963122Y-74325340D01*
X89999947Y-74414242D01*
X90053407Y-74494251D01*
X90121449Y-74562293D01*
X90201458Y-74615753D01*
X90290360Y-74652578D01*
X90384737Y-74671350D01*
X90480963Y-74671350D01*
X90575340Y-74652578D01*
X90664242Y-74615753D01*
X90744251Y-74562293D01*
X90812293Y-74494251D01*
X90865753Y-74414242D01*
X90902578Y-74325340D01*
X90921350Y-74230963D01*
X90921350Y-74134737D01*
X90902578Y-74040360D01*
X90865753Y-73951458D01*
X90812293Y-73871449D01*
X90744251Y-73803407D01*
X90664242Y-73749947D01*
X90575340Y-73713122D01*
X90480963Y-73694350D01*
X90384737Y-73694350D01*
X90290360Y-73713122D01*
X90201458Y-73749947D01*
X90121449Y-73803407D01*
X90053407Y-73871449D01*
X89999947Y-73951458D01*
X89963122Y-74040360D01*
X89944350Y-74134737D01*
X85893973Y-74134737D01*
X89426819Y-70601891D01*
X92861500Y-70601891D01*
X92861500Y-70698117D01*
X92880272Y-70792494D01*
X92917097Y-70881396D01*
X92970557Y-70961405D01*
X93038599Y-71029447D01*
X93118608Y-71082907D01*
X93207510Y-71119732D01*
X93301887Y-71138504D01*
X93398113Y-71138504D01*
X93492490Y-71119732D01*
X93581392Y-71082907D01*
X93661401Y-71029447D01*
X93729443Y-70961405D01*
X93782903Y-70881396D01*
X93819728Y-70792494D01*
X93838500Y-70698117D01*
X93838500Y-70601891D01*
X93823582Y-70526887D01*
X94211500Y-70526887D01*
X94211500Y-70623113D01*
X94230272Y-70717490D01*
X94267097Y-70806392D01*
X94320557Y-70886401D01*
X94388599Y-70954443D01*
X94468608Y-71007903D01*
X94557510Y-71044728D01*
X94651887Y-71063500D01*
X94748113Y-71063500D01*
X94842490Y-71044728D01*
X94931392Y-71007903D01*
X95011401Y-70954443D01*
X95079443Y-70886401D01*
X95132903Y-70806392D01*
X95169728Y-70717490D01*
X95188500Y-70623113D01*
X95188500Y-70526887D01*
X95169728Y-70432510D01*
X95132903Y-70343608D01*
X95079443Y-70263599D01*
X95011401Y-70195557D01*
X94931392Y-70142097D01*
X94842490Y-70105272D01*
X94748113Y-70086500D01*
X94651887Y-70086500D01*
X94557510Y-70105272D01*
X94468608Y-70142097D01*
X94388599Y-70195557D01*
X94320557Y-70263599D01*
X94267097Y-70343608D01*
X94230272Y-70432510D01*
X94211500Y-70526887D01*
X93823582Y-70526887D01*
X93819728Y-70507514D01*
X93782903Y-70418612D01*
X93729443Y-70338603D01*
X93661401Y-70270561D01*
X93581392Y-70217101D01*
X93492490Y-70180276D01*
X93398113Y-70161504D01*
X93301887Y-70161504D01*
X93207510Y-70180276D01*
X93118608Y-70217101D01*
X93038599Y-70270561D01*
X92970557Y-70338603D01*
X92917097Y-70418612D01*
X92880272Y-70507514D01*
X92861500Y-70601891D01*
X89426819Y-70601891D01*
X92576824Y-67451887D01*
X92861502Y-67451887D01*
X92861502Y-67548113D01*
X92880274Y-67642490D01*
X92917099Y-67731392D01*
X92970559Y-67811401D01*
X93038601Y-67879443D01*
X93118610Y-67932903D01*
X93207512Y-67969728D01*
X93301889Y-67988500D01*
X93398115Y-67988500D01*
X93492492Y-67969728D01*
X93581394Y-67932903D01*
X93661403Y-67879443D01*
X93729445Y-67811401D01*
X93782905Y-67731392D01*
X93819730Y-67642490D01*
X93838502Y-67548113D01*
X93838502Y-67451887D01*
X93819730Y-67357510D01*
X93782905Y-67268608D01*
X93729445Y-67188599D01*
X93661403Y-67120557D01*
X93581394Y-67067097D01*
X93492492Y-67030272D01*
X93398115Y-67011500D01*
X93301889Y-67011500D01*
X93207512Y-67030272D01*
X93118610Y-67067097D01*
X93038601Y-67120557D01*
X92970559Y-67188599D01*
X92917099Y-67268608D01*
X92880274Y-67357510D01*
X92861502Y-67451887D01*
X92576824Y-67451887D01*
X93165212Y-66863500D01*
X93248113Y-66863500D01*
X93306497Y-66851887D01*
X94186500Y-66851887D01*
X94186500Y-66948113D01*
X94205272Y-67042490D01*
X94242097Y-67131392D01*
X94295557Y-67211401D01*
X94363599Y-67279443D01*
X94443608Y-67332903D01*
X94532510Y-67369728D01*
X94626887Y-67388500D01*
X94723113Y-67388500D01*
X94817490Y-67369728D01*
X94906392Y-67332903D01*
X94986401Y-67279443D01*
X95054443Y-67211401D01*
X95107903Y-67131392D01*
X95144728Y-67042490D01*
X95163500Y-66948113D01*
X95163500Y-66851887D01*
X95144728Y-66757510D01*
X95107903Y-66668608D01*
X95054443Y-66588599D01*
X94986401Y-66520557D01*
X94906392Y-66467097D01*
X94817490Y-66430272D01*
X94723113Y-66411500D01*
X94626887Y-66411500D01*
X94532510Y-66430272D01*
X94443608Y-66467097D01*
X94363599Y-66520557D01*
X94295557Y-66588599D01*
X94242097Y-66668608D01*
X94205272Y-66757510D01*
X94186500Y-66851887D01*
X93306497Y-66851887D01*
X93342490Y-66844728D01*
X93431392Y-66807903D01*
X93511401Y-66754443D01*
X93579443Y-66686401D01*
X93632903Y-66606392D01*
X93669728Y-66517490D01*
X93688500Y-66423113D01*
X93688500Y-66326887D01*
X93669728Y-66232510D01*
X93632903Y-66143608D01*
X93618617Y-66122227D01*
X93679443Y-66061401D01*
X93732903Y-65981392D01*
X93769728Y-65892490D01*
X93788500Y-65798113D01*
X93788500Y-65701887D01*
X93769728Y-65607510D01*
X93732903Y-65518608D01*
X93679443Y-65438599D01*
X93611401Y-65370557D01*
X93531392Y-65317097D01*
X93442490Y-65280272D01*
X93348113Y-65261500D01*
X93251887Y-65261500D01*
X93157510Y-65280272D01*
X93068608Y-65317097D01*
X92988599Y-65370557D01*
X92947656Y-65411500D01*
X90787275Y-65411500D01*
X90835267Y-65379433D01*
X90903309Y-65311391D01*
X90956769Y-65231382D01*
X90993594Y-65142480D01*
X91012366Y-65048103D01*
X91012366Y-64990201D01*
X91164068Y-64838500D01*
X92922656Y-64838500D01*
X92963599Y-64879443D01*
X93043608Y-64932903D01*
X93132510Y-64969728D01*
X93226887Y-64988500D01*
X93323113Y-64988500D01*
X93417490Y-64969728D01*
X93506392Y-64932903D01*
X93586401Y-64879443D01*
X93654443Y-64811401D01*
X93707903Y-64731392D01*
X93744728Y-64642490D01*
X93763500Y-64548113D01*
X93763500Y-64451887D01*
X93744728Y-64357510D01*
X93707903Y-64268608D01*
X93654443Y-64188599D01*
X93587101Y-64121257D01*
X93619728Y-64042490D01*
X93638500Y-63948113D01*
X93638500Y-63851887D01*
X93619728Y-63757510D01*
X93582903Y-63668608D01*
X93529443Y-63588599D01*
X93461401Y-63520557D01*
X93381392Y-63467097D01*
X93292490Y-63430272D01*
X93198113Y-63411500D01*
X93140210Y-63411500D01*
X93126113Y-63397403D01*
X93115513Y-63384487D01*
X93063970Y-63342186D01*
X93005165Y-63310754D01*
X92941357Y-63291399D01*
X92891620Y-63286500D01*
X92891612Y-63286500D01*
X92875000Y-63284864D01*
X92858388Y-63286500D01*
X90655865Y-63286500D01*
X90663500Y-63248113D01*
X90663500Y-63151887D01*
X90644728Y-63057510D01*
X90616143Y-62988500D01*
X92830255Y-62988500D01*
X92845557Y-63011401D01*
X92913599Y-63079443D01*
X92993608Y-63132903D01*
X93082510Y-63169728D01*
X93176887Y-63188500D01*
X93273113Y-63188500D01*
X93367490Y-63169728D01*
X93456392Y-63132903D01*
X93536401Y-63079443D01*
X93604443Y-63011401D01*
X93657903Y-62931392D01*
X93694728Y-62842490D01*
X93713500Y-62748113D01*
X93713500Y-62651887D01*
X93694728Y-62557510D01*
X93657903Y-62468608D01*
X93604443Y-62388599D01*
X93536401Y-62320557D01*
X93524343Y-62312500D01*
X93536401Y-62304443D01*
X93604443Y-62236401D01*
X93657903Y-62156392D01*
X93694728Y-62067490D01*
X93713500Y-61973113D01*
X93713500Y-61876887D01*
X93694728Y-61782510D01*
X93657903Y-61693608D01*
X93604443Y-61613599D01*
X93536401Y-61545557D01*
X93456392Y-61492097D01*
X93367490Y-61455272D01*
X93273113Y-61436500D01*
X93176887Y-61436500D01*
X93082510Y-61455272D01*
X92993608Y-61492097D01*
X92913599Y-61545557D01*
X92845557Y-61613599D01*
X92792097Y-61693608D01*
X92755272Y-61782510D01*
X92736500Y-61876887D01*
X92736500Y-61973113D01*
X92755272Y-62067490D01*
X92792097Y-62156392D01*
X92845557Y-62236401D01*
X92913599Y-62304443D01*
X92924161Y-62311500D01*
X87069124Y-62311500D01*
X87052512Y-62309864D01*
X87035900Y-62311500D01*
X87035892Y-62311500D01*
X86991903Y-62315833D01*
X86986154Y-62316399D01*
X86942539Y-62329629D01*
X86922347Y-62335754D01*
X86863542Y-62367186D01*
X86811999Y-62409487D01*
X86801403Y-62422398D01*
X86545190Y-62678612D01*
X86411327Y-62544749D01*
X86409971Y-62542780D01*
X86387808Y-62521230D01*
X86377697Y-62511119D01*
X86375853Y-62509606D01*
X86374139Y-62507939D01*
X86362943Y-62499011D01*
X86339064Y-62479413D01*
X86336955Y-62478286D01*
X86287932Y-62439191D01*
X86272144Y-62424679D01*
X86247735Y-62409814D01*
X86223732Y-62394259D01*
X86203801Y-62386329D01*
X86130126Y-62350849D01*
X86111491Y-62340206D01*
X86084370Y-62331141D01*
X86057526Y-62321323D01*
X86036323Y-62318025D01*
X85956612Y-62299833D01*
X85936074Y-62293603D01*
X85907588Y-62290797D01*
X85879254Y-62287202D01*
X85857866Y-62288704D01*
X85776073Y-62288704D01*
X85754685Y-62287202D01*
X85726348Y-62290798D01*
X85697866Y-62293603D01*
X85677330Y-62299832D01*
X85597609Y-62318027D01*
X85576413Y-62321324D01*
X85549579Y-62331138D01*
X85522449Y-62340206D01*
X85503814Y-62350849D01*
X85430143Y-62386327D01*
X85410208Y-62394259D01*
X85386212Y-62409810D01*
X85361795Y-62424679D01*
X85346003Y-62439195D01*
X85296984Y-62478286D01*
X85294880Y-62479411D01*
X85271003Y-62499005D01*
X85259801Y-62507939D01*
X85258090Y-62509603D01*
X85256246Y-62511116D01*
X85246128Y-62521234D01*
X85223969Y-62542780D01*
X85223796Y-62543032D01*
X85223541Y-62543207D01*
X85201984Y-62565377D01*
X85191883Y-62575478D01*
X85190370Y-62577321D01*
X85188700Y-62579039D01*
X85179753Y-62590258D01*
X85160177Y-62614111D01*
X85159051Y-62616218D01*
X85119953Y-62665245D01*
X85105438Y-62681036D01*
X85090578Y-62705440D01*
X85075020Y-62729446D01*
X85067087Y-62749385D01*
X85031611Y-62823053D01*
X85020970Y-62841684D01*
X85011902Y-62868812D01*
X85002085Y-62895655D01*
X84998789Y-62916846D01*
X84980594Y-62996564D01*
X84974364Y-63017104D01*
X84971560Y-63045568D01*
X84967963Y-63073919D01*
X84969465Y-63095307D01*
X84969465Y-63177107D01*
X84967963Y-63198495D01*
X84969117Y-63207592D01*
X84960021Y-63206438D01*
X84938633Y-63207940D01*
X84856834Y-63207940D01*
X84835446Y-63206438D01*
X84807098Y-63210035D01*
X84778630Y-63212839D01*
X84758098Y-63219067D01*
X84678372Y-63237264D01*
X84657177Y-63240561D01*
X84630325Y-63250382D01*
X84603211Y-63259445D01*
X84584586Y-63270082D01*
X84510905Y-63305565D01*
X84490974Y-63313495D01*
X84466983Y-63329043D01*
X84442559Y-63343916D01*
X84426764Y-63358435D01*
X84377748Y-63397523D01*
X84375640Y-63398650D01*
X84351747Y-63418258D01*
X84340567Y-63427174D01*
X84338856Y-63428837D01*
X84337007Y-63430355D01*
X84326877Y-63440485D01*
X84304735Y-63462014D01*
X84304560Y-63462269D01*
X84304305Y-63462444D01*
X84282754Y-63484608D01*
X84272644Y-63494718D01*
X84271131Y-63496562D01*
X84269464Y-63498276D01*
X84260536Y-63509472D01*
X84240938Y-63533351D01*
X84239811Y-63535460D01*
X84200717Y-63584482D01*
X84186202Y-63600273D01*
X84171342Y-63624677D01*
X84155784Y-63648683D01*
X84147851Y-63668622D01*
X84112375Y-63742290D01*
X84101734Y-63760921D01*
X84092666Y-63788049D01*
X84082849Y-63814892D01*
X84079553Y-63836083D01*
X84061358Y-63915801D01*
X84055128Y-63936341D01*
X84052324Y-63964805D01*
X84048727Y-63993156D01*
X84050229Y-64014544D01*
X84050229Y-64096344D01*
X84048727Y-64117732D01*
X84049881Y-64126829D01*
X84040784Y-64125675D01*
X84019396Y-64127177D01*
X83937597Y-64127177D01*
X83916209Y-64125675D01*
X83887861Y-64129272D01*
X83859393Y-64132076D01*
X83838861Y-64138304D01*
X83759135Y-64156501D01*
X83737940Y-64159798D01*
X83711088Y-64169619D01*
X83683974Y-64178682D01*
X83665349Y-64189319D01*
X83591668Y-64224802D01*
X83571737Y-64232732D01*
X83547746Y-64248280D01*
X83523322Y-64263153D01*
X83507527Y-64277672D01*
X83458511Y-64316760D01*
X83456403Y-64317887D01*
X83432510Y-64337495D01*
X83421330Y-64346411D01*
X83419619Y-64348074D01*
X83417770Y-64349592D01*
X83407640Y-64359722D01*
X83385498Y-64381251D01*
X83385323Y-64381506D01*
X83385068Y-64381681D01*
X83363517Y-64403845D01*
X83353407Y-64413955D01*
X83351894Y-64415799D01*
X83350227Y-64417513D01*
X83341299Y-64428709D01*
X83321701Y-64452588D01*
X83320574Y-64454697D01*
X83281480Y-64503719D01*
X83266965Y-64519510D01*
X83252105Y-64543914D01*
X83236547Y-64567920D01*
X83228614Y-64587859D01*
X83193138Y-64661527D01*
X83182497Y-64680158D01*
X83173429Y-64707286D01*
X83163612Y-64734129D01*
X83160316Y-64755320D01*
X83142121Y-64835038D01*
X83135891Y-64855578D01*
X83133087Y-64884042D01*
X83129490Y-64912393D01*
X83130992Y-64933781D01*
X83130992Y-65015581D01*
X83129490Y-65036969D01*
X83133087Y-65065313D01*
X83135891Y-65093786D01*
X83142120Y-65114320D01*
X83160316Y-65194042D01*
X83163612Y-65215235D01*
X83173431Y-65242083D01*
X83182497Y-65269205D01*
X83193135Y-65287833D01*
X83228614Y-65361505D01*
X83236547Y-65381444D01*
X83252105Y-65405450D01*
X83266965Y-65429854D01*
X83281480Y-65445645D01*
X83320579Y-65494674D01*
X83321706Y-65496782D01*
X83341296Y-65520652D01*
X83350227Y-65531851D01*
X83351894Y-65533566D01*
X83353412Y-65535415D01*
X83363535Y-65545538D01*
X83385068Y-65567683D01*
X83387040Y-65569041D01*
X83520899Y-65702900D01*
X82272399Y-66951403D01*
X82259487Y-66962000D01*
X82217186Y-67013543D01*
X82193685Y-67057510D01*
X82185754Y-67072348D01*
X82171131Y-67120557D01*
X82166399Y-67136156D01*
X82161500Y-67185893D01*
X82161500Y-67185900D01*
X82159864Y-67202512D01*
X82161500Y-67219124D01*
X82161501Y-70287300D01*
X78262302Y-74186500D01*
X75391611Y-74186500D01*
X75374999Y-74184864D01*
X75358387Y-74186500D01*
X75358380Y-74186500D01*
X75314936Y-74190779D01*
X75308642Y-74191399D01*
X75290284Y-74196968D01*
X75244835Y-74210754D01*
X75186030Y-74242186D01*
X75140637Y-74279440D01*
X75156627Y-74240837D01*
X75175399Y-74146460D01*
X75175399Y-74088558D01*
X75227606Y-74036351D01*
X75240512Y-74025759D01*
X75251401Y-74012492D01*
X75263037Y-73998313D01*
X75282814Y-73974216D01*
X75314246Y-73915411D01*
X75319628Y-73897669D01*
X75333601Y-73851604D01*
X75334367Y-73843829D01*
X75338500Y-73801866D01*
X75338500Y-73801858D01*
X75340136Y-73785246D01*
X75338500Y-73768634D01*
X75338500Y-71752344D01*
X75379443Y-71711401D01*
X75432903Y-71631392D01*
X75469728Y-71542490D01*
X75477804Y-71501887D01*
X77211500Y-71501887D01*
X77211500Y-71598113D01*
X77230272Y-71692490D01*
X77267097Y-71781392D01*
X77320557Y-71861401D01*
X77388599Y-71929443D01*
X77468608Y-71982903D01*
X77557510Y-72019728D01*
X77651887Y-72038500D01*
X77748113Y-72038500D01*
X77842490Y-72019728D01*
X77931392Y-71982903D01*
X78011401Y-71929443D01*
X78079443Y-71861401D01*
X78132903Y-71781392D01*
X78169728Y-71692490D01*
X78188500Y-71598113D01*
X78188500Y-71501887D01*
X78169728Y-71407510D01*
X78132903Y-71318608D01*
X78079443Y-71238599D01*
X78011401Y-71170557D01*
X77931392Y-71117097D01*
X77842490Y-71080272D01*
X77748113Y-71061500D01*
X77651887Y-71061500D01*
X77557510Y-71080272D01*
X77468608Y-71117097D01*
X77388599Y-71170557D01*
X77320557Y-71238599D01*
X77267097Y-71318608D01*
X77230272Y-71407510D01*
X77211500Y-71501887D01*
X75477804Y-71501887D01*
X75488500Y-71448113D01*
X75488500Y-71351887D01*
X75469728Y-71257510D01*
X75432903Y-71168608D01*
X75379443Y-71088599D01*
X75311401Y-71020557D01*
X75231392Y-70967097D01*
X75142490Y-70930272D01*
X75048113Y-70911500D01*
X74951887Y-70911500D01*
X74857510Y-70930272D01*
X74768608Y-70967097D01*
X74688599Y-71020557D01*
X74620557Y-71088599D01*
X74567097Y-71168608D01*
X74530272Y-71257510D01*
X74511500Y-71351887D01*
X74511500Y-71448113D01*
X74530272Y-71542490D01*
X74567097Y-71631392D01*
X74620557Y-71711401D01*
X74661501Y-71752345D01*
X74661500Y-73609847D01*
X74638786Y-73609847D01*
X74544409Y-73628619D01*
X74455507Y-73665444D01*
X74444576Y-73672748D01*
X74457242Y-73609068D01*
X74457242Y-73512842D01*
X74438470Y-73418465D01*
X74401645Y-73329563D01*
X74348185Y-73249554D01*
X74280143Y-73181512D01*
X74200134Y-73128052D01*
X74111232Y-73091227D01*
X74016855Y-73072455D01*
X73920629Y-73072455D01*
X73826252Y-73091227D01*
X73737350Y-73128052D01*
X73657341Y-73181512D01*
X73589299Y-73249554D01*
X73535839Y-73329563D01*
X73499014Y-73418465D01*
X73480242Y-73512842D01*
X73480242Y-73609068D01*
X73499014Y-73703445D01*
X73535839Y-73792347D01*
X73555954Y-73822451D01*
X72355660Y-73822451D01*
X72339048Y-73820815D01*
X72322436Y-73822451D01*
X72322429Y-73822451D01*
X72284188Y-73826218D01*
X72272690Y-73827350D01*
X72248006Y-73834838D01*
X72208884Y-73846705D01*
X72150079Y-73878137D01*
X72098536Y-73920438D01*
X72087940Y-73933349D01*
X71734790Y-74286500D01*
X71676887Y-74286500D01*
X71582510Y-74305272D01*
X71493608Y-74342097D01*
X71413599Y-74395557D01*
X71345557Y-74463599D01*
X71292097Y-74543608D01*
X71255272Y-74632510D01*
X71236500Y-74726887D01*
X50388500Y-74726887D01*
X50388500Y-72171887D01*
X72941500Y-72171887D01*
X72941500Y-72268113D01*
X72960272Y-72362490D01*
X72997097Y-72451392D01*
X73050557Y-72531401D01*
X73118599Y-72599443D01*
X73198608Y-72652903D01*
X73287510Y-72689728D01*
X73381887Y-72708500D01*
X73478113Y-72708500D01*
X73572490Y-72689728D01*
X73661392Y-72652903D01*
X73741401Y-72599443D01*
X73809443Y-72531401D01*
X73862903Y-72451392D01*
X73899728Y-72362490D01*
X73918500Y-72268113D01*
X73918500Y-72171887D01*
X73899728Y-72077510D01*
X73862903Y-71988608D01*
X73809443Y-71908599D01*
X73741401Y-71840557D01*
X73661392Y-71787097D01*
X73572490Y-71750272D01*
X73478113Y-71731500D01*
X73381887Y-71731500D01*
X73287510Y-71750272D01*
X73198608Y-71787097D01*
X73118599Y-71840557D01*
X73050557Y-71908599D01*
X72997097Y-71988608D01*
X72960272Y-72077510D01*
X72941500Y-72171887D01*
X50388500Y-72171887D01*
X50388500Y-59985837D01*
X51711500Y-59985837D01*
X51711501Y-70014164D01*
X51712701Y-70026352D01*
X51712693Y-70027543D01*
X51713086Y-70031552D01*
X51715110Y-70050814D01*
X51715676Y-70056556D01*
X51715734Y-70056748D01*
X51717166Y-70070371D01*
X51722421Y-70095971D01*
X51727323Y-70121669D01*
X51728487Y-70125521D01*
X51728488Y-70125527D01*
X51728490Y-70125533D01*
X51740030Y-70162813D01*
X51750161Y-70186914D01*
X51759959Y-70211164D01*
X51761842Y-70214706D01*
X51761848Y-70214719D01*
X51761855Y-70214730D01*
X51780415Y-70249056D01*
X51795050Y-70270754D01*
X51809354Y-70292612D01*
X51811896Y-70295729D01*
X51811900Y-70295735D01*
X51811905Y-70295740D01*
X51836781Y-70325810D01*
X51855303Y-70344203D01*
X51873628Y-70362916D01*
X51876732Y-70365483D01*
X51906980Y-70390153D01*
X51928763Y-70404626D01*
X51950341Y-70419400D01*
X51953884Y-70421316D01*
X51988349Y-70439640D01*
X52012516Y-70449601D01*
X52036551Y-70459902D01*
X52040396Y-70461092D01*
X52040406Y-70461096D01*
X52040415Y-70461098D01*
X52077766Y-70472375D01*
X52103375Y-70477446D01*
X52128993Y-70482891D01*
X52132999Y-70483312D01*
X52169324Y-70486874D01*
X52185836Y-70488500D01*
X60014164Y-70488500D01*
X60026361Y-70487299D01*
X60027543Y-70487307D01*
X60031552Y-70486914D01*
X60050663Y-70484905D01*
X60056556Y-70484325D01*
X60056753Y-70484265D01*
X60070371Y-70482834D01*
X60095986Y-70477576D01*
X60121669Y-70472677D01*
X60125521Y-70471513D01*
X60125527Y-70471512D01*
X60125533Y-70471510D01*
X60162813Y-70459970D01*
X60186953Y-70449823D01*
X60211164Y-70440041D01*
X60214706Y-70438158D01*
X60214719Y-70438152D01*
X60214730Y-70438145D01*
X60249056Y-70419585D01*
X60270754Y-70404950D01*
X60292612Y-70390646D01*
X60295729Y-70388104D01*
X60295735Y-70388100D01*
X60295740Y-70388095D01*
X60325810Y-70363219D01*
X60344205Y-70344695D01*
X60362916Y-70326372D01*
X60365483Y-70323268D01*
X60365487Y-70323264D01*
X60390153Y-70293020D01*
X60404626Y-70271237D01*
X60419400Y-70249659D01*
X60421316Y-70246116D01*
X60439640Y-70211651D01*
X60449601Y-70187484D01*
X60459902Y-70163449D01*
X60461093Y-70159601D01*
X60461094Y-70159598D01*
X60461096Y-70159594D01*
X60461098Y-70159585D01*
X60472375Y-70122234D01*
X60477446Y-70096625D01*
X60482891Y-70071007D01*
X60483312Y-70067001D01*
X60486903Y-70030381D01*
X60488500Y-70014164D01*
X60488500Y-69801887D01*
X71111500Y-69801887D01*
X71111500Y-69898113D01*
X71130272Y-69992490D01*
X71167097Y-70081392D01*
X71220557Y-70161401D01*
X71288599Y-70229443D01*
X71368608Y-70282903D01*
X71457510Y-70319728D01*
X71551887Y-70338500D01*
X71552746Y-70338500D01*
X71552746Y-70374766D01*
X71571518Y-70469143D01*
X71608343Y-70558045D01*
X71661803Y-70638054D01*
X71729845Y-70706096D01*
X71809854Y-70759556D01*
X71898756Y-70796381D01*
X71993133Y-70815153D01*
X72089359Y-70815153D01*
X72183736Y-70796381D01*
X72272638Y-70759556D01*
X72352647Y-70706096D01*
X72420689Y-70638054D01*
X72474149Y-70558045D01*
X72510974Y-70469143D01*
X72523356Y-70406889D01*
X72911500Y-70406889D01*
X72911500Y-70503115D01*
X72930272Y-70597492D01*
X72967097Y-70686394D01*
X73020557Y-70766403D01*
X73088599Y-70834445D01*
X73168608Y-70887905D01*
X73257510Y-70924730D01*
X73351887Y-70943502D01*
X73448113Y-70943502D01*
X73542490Y-70924730D01*
X73631392Y-70887905D01*
X73711401Y-70834445D01*
X73779443Y-70766403D01*
X73832903Y-70686394D01*
X73869728Y-70597492D01*
X73888500Y-70503115D01*
X73888500Y-70406889D01*
X75311500Y-70406889D01*
X75311500Y-70503115D01*
X75330272Y-70597492D01*
X75367097Y-70686394D01*
X75420557Y-70766403D01*
X75488599Y-70834445D01*
X75568608Y-70887905D01*
X75657510Y-70924730D01*
X75751887Y-70943502D01*
X75848113Y-70943502D01*
X75942490Y-70924730D01*
X76031392Y-70887905D01*
X76111401Y-70834445D01*
X76179443Y-70766403D01*
X76200000Y-70735637D01*
X76220557Y-70766403D01*
X76288599Y-70834445D01*
X76368608Y-70887905D01*
X76457510Y-70924730D01*
X76551887Y-70943502D01*
X76648113Y-70943502D01*
X76742490Y-70924730D01*
X76831392Y-70887905D01*
X76911401Y-70834445D01*
X76979443Y-70766403D01*
X77032903Y-70686394D01*
X77069728Y-70597492D01*
X77088500Y-70503115D01*
X77088500Y-70406889D01*
X77069728Y-70312512D01*
X77032903Y-70223610D01*
X76979443Y-70143601D01*
X76911401Y-70075559D01*
X76831392Y-70022099D01*
X76742490Y-69985274D01*
X76648113Y-69966502D01*
X76551887Y-69966502D01*
X76457510Y-69985274D01*
X76368608Y-70022099D01*
X76288599Y-70075559D01*
X76220557Y-70143601D01*
X76200000Y-70174367D01*
X76179443Y-70143601D01*
X76111401Y-70075559D01*
X76031392Y-70022099D01*
X75942490Y-69985274D01*
X75848113Y-69966502D01*
X75751887Y-69966502D01*
X75657510Y-69985274D01*
X75568608Y-70022099D01*
X75488599Y-70075559D01*
X75420557Y-70143601D01*
X75367097Y-70223610D01*
X75330272Y-70312512D01*
X75311500Y-70406889D01*
X73888500Y-70406889D01*
X73869728Y-70312512D01*
X73832903Y-70223610D01*
X73779443Y-70143601D01*
X73711401Y-70075559D01*
X73631392Y-70022099D01*
X73542490Y-69985274D01*
X73448113Y-69966502D01*
X73351887Y-69966502D01*
X73257510Y-69985274D01*
X73168608Y-70022099D01*
X73088599Y-70075559D01*
X73020557Y-70143601D01*
X72967097Y-70223610D01*
X72930272Y-70312512D01*
X72911500Y-70406889D01*
X72523356Y-70406889D01*
X72529746Y-70374766D01*
X72529746Y-70278540D01*
X72510974Y-70184163D01*
X72474149Y-70095261D01*
X72420689Y-70015252D01*
X72352647Y-69947210D01*
X72272638Y-69893750D01*
X72183736Y-69856925D01*
X72089359Y-69838153D01*
X72088500Y-69838153D01*
X72088500Y-69801887D01*
X72069728Y-69707510D01*
X72032903Y-69618608D01*
X71979443Y-69538599D01*
X71911401Y-69470557D01*
X71831392Y-69417097D01*
X71742490Y-69380272D01*
X71648113Y-69361500D01*
X71551887Y-69361500D01*
X71457510Y-69380272D01*
X71368608Y-69417097D01*
X71288599Y-69470557D01*
X71220557Y-69538599D01*
X71167097Y-69618608D01*
X71130272Y-69707510D01*
X71111500Y-69801887D01*
X60488500Y-69801887D01*
X60488500Y-61376887D01*
X89961500Y-61376887D01*
X89961500Y-61473113D01*
X89980272Y-61567490D01*
X90017097Y-61656392D01*
X90070557Y-61736401D01*
X90138599Y-61804443D01*
X90218608Y-61857903D01*
X90307510Y-61894728D01*
X90401887Y-61913500D01*
X90498113Y-61913500D01*
X90592490Y-61894728D01*
X90681392Y-61857903D01*
X90761401Y-61804443D01*
X90829443Y-61736401D01*
X90882903Y-61656392D01*
X90919728Y-61567490D01*
X90938500Y-61473113D01*
X90938500Y-61376887D01*
X90919728Y-61282510D01*
X90882903Y-61193608D01*
X90829443Y-61113599D01*
X90761401Y-61045557D01*
X90681392Y-60992097D01*
X90592490Y-60955272D01*
X90498113Y-60936500D01*
X90401887Y-60936500D01*
X90307510Y-60955272D01*
X90218608Y-60992097D01*
X90138599Y-61045557D01*
X90070557Y-61113599D01*
X90017097Y-61193608D01*
X89980272Y-61282510D01*
X89961500Y-61376887D01*
X60488500Y-61376887D01*
X60488500Y-60485837D01*
X95711500Y-60485837D01*
X95711501Y-69714164D01*
X95712700Y-69726342D01*
X95712692Y-69727543D01*
X95713085Y-69731551D01*
X95715125Y-69750965D01*
X95715676Y-69756556D01*
X95715733Y-69756742D01*
X95717165Y-69770372D01*
X95722427Y-69796007D01*
X95727322Y-69821668D01*
X95728484Y-69825518D01*
X95728486Y-69825527D01*
X95728490Y-69825535D01*
X95740028Y-69862812D01*
X95750160Y-69886917D01*
X95759961Y-69911172D01*
X95761843Y-69914712D01*
X95761846Y-69914718D01*
X95761852Y-69914728D01*
X95780418Y-69949063D01*
X95795027Y-69970721D01*
X95809350Y-69992610D01*
X95811896Y-69995731D01*
X95811899Y-69995735D01*
X95811904Y-69995742D01*
X95811910Y-69995748D01*
X95836776Y-70025807D01*
X95855322Y-70044225D01*
X95873631Y-70062921D01*
X95876723Y-70065478D01*
X95876728Y-70065483D01*
X95876733Y-70065486D01*
X95876735Y-70065488D01*
X95906983Y-70090158D01*
X95928761Y-70104627D01*
X95950338Y-70119401D01*
X95953882Y-70121317D01*
X95988347Y-70139642D01*
X96012532Y-70149610D01*
X96036552Y-70159905D01*
X96040397Y-70161095D01*
X96040404Y-70161098D01*
X96040412Y-70161100D01*
X96077767Y-70172378D01*
X96103391Y-70177452D01*
X96128995Y-70182894D01*
X96132999Y-70183315D01*
X96133001Y-70183315D01*
X96171848Y-70187124D01*
X96171856Y-70187124D01*
X96185838Y-70188501D01*
X98814164Y-70188499D01*
X98826352Y-70187299D01*
X98827543Y-70187307D01*
X98831552Y-70186914D01*
X98850814Y-70184890D01*
X98856556Y-70184324D01*
X98856748Y-70184266D01*
X98870371Y-70182834D01*
X98895981Y-70177577D01*
X98921667Y-70172677D01*
X98925523Y-70171513D01*
X98925525Y-70171512D01*
X98925527Y-70171512D01*
X98925529Y-70171511D01*
X98962811Y-70159971D01*
X98986938Y-70149829D01*
X99011165Y-70140041D01*
X99014709Y-70138156D01*
X99014717Y-70138153D01*
X99014723Y-70138149D01*
X99049057Y-70119585D01*
X99070725Y-70104970D01*
X99092609Y-70090650D01*
X99095730Y-70088104D01*
X99095736Y-70088100D01*
X99095741Y-70088095D01*
X99125806Y-70063224D01*
X99144203Y-70044699D01*
X99162917Y-70026373D01*
X99165484Y-70023269D01*
X99190154Y-69993021D01*
X99204626Y-69971240D01*
X99219398Y-69949666D01*
X99221314Y-69946123D01*
X99239639Y-69911658D01*
X99249606Y-69887477D01*
X99259904Y-69863450D01*
X99261092Y-69859612D01*
X99261096Y-69859602D01*
X99261098Y-69859592D01*
X99272377Y-69822235D01*
X99277457Y-69796582D01*
X99282893Y-69771007D01*
X99283314Y-69767001D01*
X99287123Y-69728154D01*
X99287123Y-69728146D01*
X99288500Y-69714164D01*
X99288500Y-60485836D01*
X99287300Y-60473648D01*
X99287308Y-60472458D01*
X99286915Y-60468449D01*
X99284891Y-60449194D01*
X99284325Y-60443444D01*
X99284267Y-60443252D01*
X99282835Y-60429629D01*
X99277572Y-60403988D01*
X99272678Y-60378331D01*
X99271517Y-60374486D01*
X99271514Y-60374473D01*
X99271509Y-60374461D01*
X99259971Y-60337187D01*
X99249839Y-60313083D01*
X99240044Y-60288839D01*
X99238157Y-60285290D01*
X99238153Y-60285280D01*
X99238148Y-60285272D01*
X99219588Y-60250946D01*
X99204966Y-60229267D01*
X99190644Y-60207382D01*
X99188107Y-60204273D01*
X99188103Y-60204266D01*
X99188098Y-60204261D01*
X99163217Y-60174186D01*
X99144690Y-60155788D01*
X99126369Y-60137080D01*
X99123265Y-60134512D01*
X99093016Y-60109843D01*
X99071259Y-60095388D01*
X99049665Y-60080602D01*
X99046122Y-60078686D01*
X99011658Y-60060361D01*
X98987463Y-60050388D01*
X98963449Y-60040096D01*
X98959611Y-60038908D01*
X98959601Y-60038904D01*
X98959591Y-60038902D01*
X98922234Y-60027623D01*
X98896610Y-60022549D01*
X98871006Y-60017107D01*
X98867002Y-60016686D01*
X98867000Y-60016686D01*
X98828153Y-60012877D01*
X98828146Y-60012877D01*
X98814164Y-60011500D01*
X96185836Y-60011500D01*
X96173639Y-60012701D01*
X96172457Y-60012693D01*
X96168448Y-60013086D01*
X96149337Y-60015095D01*
X96143444Y-60015675D01*
X96143247Y-60015735D01*
X96129629Y-60017166D01*
X96103993Y-60022428D01*
X96078333Y-60027323D01*
X96074477Y-60028487D01*
X96074475Y-60028488D01*
X96074473Y-60028488D01*
X96074471Y-60028489D01*
X96037189Y-60040029D01*
X96013111Y-60050150D01*
X95988835Y-60059958D01*
X95985295Y-60061842D01*
X95985282Y-60061847D01*
X95985272Y-60061854D01*
X95950944Y-60080415D01*
X95929267Y-60095036D01*
X95907383Y-60109357D01*
X95904274Y-60111893D01*
X95904264Y-60111900D01*
X95904257Y-60111908D01*
X95874187Y-60136784D01*
X95855794Y-60155306D01*
X95837084Y-60173628D01*
X95834517Y-60176732D01*
X95834512Y-60176737D01*
X95834508Y-60176743D01*
X95809847Y-60206980D01*
X95795385Y-60228747D01*
X95780603Y-60250335D01*
X95778687Y-60253878D01*
X95760362Y-60288342D01*
X95750389Y-60312537D01*
X95740097Y-60336551D01*
X95738909Y-60340389D01*
X95738905Y-60340399D01*
X95738903Y-60340409D01*
X95727624Y-60377766D01*
X95722550Y-60403390D01*
X95717108Y-60428994D01*
X95716687Y-60433000D01*
X95712997Y-60470634D01*
X95711500Y-60485837D01*
X60488500Y-60485837D01*
X60488500Y-59985836D01*
X60487299Y-59973639D01*
X60487307Y-59972457D01*
X60486914Y-59968448D01*
X60484905Y-59949337D01*
X60484325Y-59943444D01*
X60484265Y-59943247D01*
X60482834Y-59929629D01*
X60477574Y-59904007D01*
X60472677Y-59878332D01*
X60471512Y-59874475D01*
X60471512Y-59874473D01*
X60471510Y-59874467D01*
X60459970Y-59837188D01*
X60449854Y-59813122D01*
X60440042Y-59788836D01*
X60438158Y-59785294D01*
X60438152Y-59785281D01*
X60438145Y-59785270D01*
X60419585Y-59750945D01*
X60404967Y-59729272D01*
X60390646Y-59707388D01*
X60388108Y-59704277D01*
X60388100Y-59704265D01*
X60388091Y-59704256D01*
X60363219Y-59674190D01*
X60344678Y-59655778D01*
X60326372Y-59637084D01*
X60323274Y-59634522D01*
X60323267Y-59634515D01*
X60323259Y-59634510D01*
X60293020Y-59609847D01*
X60271255Y-59595386D01*
X60249660Y-59580600D01*
X60246116Y-59578684D01*
X60211652Y-59560360D01*
X60187470Y-59550393D01*
X60163449Y-59540098D01*
X60159601Y-59538907D01*
X60159602Y-59538907D01*
X60159594Y-59538904D01*
X60159585Y-59538902D01*
X60122234Y-59527625D01*
X60096617Y-59522552D01*
X60071006Y-59517109D01*
X60067002Y-59516688D01*
X60067000Y-59516688D01*
X60030691Y-59513128D01*
X60014164Y-59511500D01*
X52185836Y-59511500D01*
X52173639Y-59512701D01*
X52172457Y-59512693D01*
X52168448Y-59513086D01*
X52149337Y-59515095D01*
X52143444Y-59515675D01*
X52143247Y-59515735D01*
X52129629Y-59517166D01*
X52103993Y-59522428D01*
X52078333Y-59527323D01*
X52074477Y-59528487D01*
X52074475Y-59528488D01*
X52074473Y-59528488D01*
X52074471Y-59528489D01*
X52037189Y-59540029D01*
X52013111Y-59550150D01*
X51988835Y-59559958D01*
X51985295Y-59561842D01*
X51985282Y-59561847D01*
X51985272Y-59561854D01*
X51950944Y-59580415D01*
X51929267Y-59595036D01*
X51907383Y-59609357D01*
X51904274Y-59611893D01*
X51904264Y-59611900D01*
X51904257Y-59611908D01*
X51874187Y-59636784D01*
X51855794Y-59655306D01*
X51837084Y-59673628D01*
X51834517Y-59676732D01*
X51834512Y-59676737D01*
X51834508Y-59676743D01*
X51809847Y-59706980D01*
X51795385Y-59728747D01*
X51780603Y-59750335D01*
X51778687Y-59753878D01*
X51760362Y-59788342D01*
X51750389Y-59812537D01*
X51740097Y-59836551D01*
X51738909Y-59840389D01*
X51738905Y-59840399D01*
X51738903Y-59840409D01*
X51727624Y-59877766D01*
X51722550Y-59903390D01*
X51717108Y-59928994D01*
X51716687Y-59933000D01*
X51712920Y-59971416D01*
X51711500Y-59985837D01*
X50388500Y-59985837D01*
X50388500Y-57497677D01*
X52978206Y-57497677D01*
X53354890Y-57836787D01*
X53939930Y-58103224D01*
X54565708Y-58250406D01*
X55208175Y-58272677D01*
X55842642Y-58169180D01*
X56444727Y-57943894D01*
X56645110Y-57836787D01*
X57021794Y-57497677D01*
X92978206Y-57497677D01*
X93354890Y-57836787D01*
X93939930Y-58103224D01*
X94565708Y-58250406D01*
X95208175Y-58272677D01*
X95842642Y-58169180D01*
X96444727Y-57943894D01*
X96645110Y-57836787D01*
X97021794Y-57497677D01*
X96705022Y-57180905D01*
X96705022Y-57180904D01*
X96590990Y-57066873D01*
X96110546Y-56586429D01*
X96001076Y-56476958D01*
X96001075Y-56476958D01*
X95000000Y-55475883D01*
X93998925Y-56476958D01*
X93998924Y-56476958D01*
X93889454Y-56586429D01*
X93409010Y-57066873D01*
X93294978Y-57180904D01*
X93294978Y-57180905D01*
X92978206Y-57497677D01*
X57021794Y-57497677D01*
X56705022Y-57180905D01*
X56705022Y-57180904D01*
X56590990Y-57066873D01*
X56110546Y-56586429D01*
X56001076Y-56476958D01*
X56001075Y-56476958D01*
X55000000Y-55475883D01*
X53998925Y-56476958D01*
X53998924Y-56476958D01*
X53889454Y-56586429D01*
X53409010Y-57066873D01*
X53294978Y-57180904D01*
X53294978Y-57180905D01*
X52978206Y-57497677D01*
X50388500Y-57497677D01*
X50388500Y-55208175D01*
X51727323Y-55208175D01*
X51830820Y-55842642D01*
X52056106Y-56444727D01*
X52163213Y-56645110D01*
X52502323Y-57021794D01*
X52819095Y-56705022D01*
X52819096Y-56705022D01*
X52933127Y-56590990D01*
X53409010Y-56115107D01*
X53523042Y-56001076D01*
X53523042Y-56001075D01*
X54524117Y-55000000D01*
X55475883Y-55000000D01*
X56476958Y-56001075D01*
X56476958Y-56001076D01*
X56590990Y-56115107D01*
X57066873Y-56590990D01*
X57180904Y-56705022D01*
X57180905Y-56705022D01*
X57497677Y-57021794D01*
X57836787Y-56645110D01*
X58103224Y-56060070D01*
X58250406Y-55434292D01*
X58258244Y-55208175D01*
X91727323Y-55208175D01*
X91830820Y-55842642D01*
X92056106Y-56444727D01*
X92163213Y-56645110D01*
X92502323Y-57021794D01*
X92819095Y-56705022D01*
X92819096Y-56705022D01*
X92933127Y-56590990D01*
X93409010Y-56115107D01*
X93523042Y-56001076D01*
X93523042Y-56001075D01*
X94524117Y-55000000D01*
X95475883Y-55000000D01*
X96476958Y-56001075D01*
X96476958Y-56001076D01*
X96590990Y-56115107D01*
X97066873Y-56590990D01*
X97180904Y-56705022D01*
X97180905Y-56705022D01*
X97497677Y-57021794D01*
X97836787Y-56645110D01*
X98103224Y-56060070D01*
X98250406Y-55434292D01*
X98272677Y-54791825D01*
X98169180Y-54157358D01*
X97943894Y-53555273D01*
X97836787Y-53354890D01*
X97497677Y-52978206D01*
X97180905Y-53294978D01*
X97180904Y-53294978D01*
X97123614Y-53352269D01*
X96590990Y-53884893D01*
X96476958Y-53998924D01*
X96476958Y-53998925D01*
X95475883Y-55000000D01*
X94524117Y-55000000D01*
X93523042Y-53998925D01*
X93523042Y-53998924D01*
X93409010Y-53884893D01*
X92876386Y-53352269D01*
X92819096Y-53294978D01*
X92819095Y-53294978D01*
X92502323Y-52978206D01*
X92163213Y-53354890D01*
X91896776Y-53939930D01*
X91749594Y-54565708D01*
X91727323Y-55208175D01*
X58258244Y-55208175D01*
X58272677Y-54791825D01*
X58169180Y-54157358D01*
X57943894Y-53555273D01*
X57836787Y-53354890D01*
X57497677Y-52978206D01*
X57180905Y-53294978D01*
X57180904Y-53294978D01*
X57123614Y-53352269D01*
X56590990Y-53884893D01*
X56476958Y-53998924D01*
X56476958Y-53998925D01*
X55475883Y-55000000D01*
X54524117Y-55000000D01*
X53523042Y-53998925D01*
X53523042Y-53998924D01*
X53409010Y-53884893D01*
X52876386Y-53352269D01*
X52819096Y-53294978D01*
X52819095Y-53294978D01*
X52502323Y-52978206D01*
X52163213Y-53354890D01*
X51896776Y-53939930D01*
X51749594Y-54565708D01*
X51727323Y-55208175D01*
X50388500Y-55208175D01*
X50388500Y-55012850D01*
X50462511Y-54183577D01*
X50678799Y-53392959D01*
X51031676Y-52653138D01*
X51140047Y-52502323D01*
X52978206Y-52502323D01*
X53294978Y-52819095D01*
X53294978Y-52819096D01*
X53409010Y-52933127D01*
X53884893Y-53409010D01*
X53998924Y-53523042D01*
X53998925Y-53523042D01*
X55000000Y-54524117D01*
X56001075Y-53523042D01*
X56001076Y-53523042D01*
X56115107Y-53409010D01*
X56590990Y-52933127D01*
X56705022Y-52819096D01*
X56705022Y-52819095D01*
X57021794Y-52502323D01*
X92978206Y-52502323D01*
X93294978Y-52819095D01*
X93294978Y-52819096D01*
X93409010Y-52933127D01*
X93884893Y-53409010D01*
X93998924Y-53523042D01*
X93998925Y-53523042D01*
X95000000Y-54524117D01*
X96001075Y-53523042D01*
X96001076Y-53523042D01*
X96115107Y-53409010D01*
X96590990Y-52933127D01*
X96705022Y-52819096D01*
X96705022Y-52819095D01*
X97021794Y-52502323D01*
X96645110Y-52163213D01*
X96060070Y-51896776D01*
X95434292Y-51749594D01*
X94791825Y-51727323D01*
X94157358Y-51830820D01*
X93555273Y-52056106D01*
X93354890Y-52163213D01*
X92978206Y-52502323D01*
X57021794Y-52502323D01*
X56645110Y-52163213D01*
X56060070Y-51896776D01*
X55434292Y-51749594D01*
X54791825Y-51727323D01*
X54157358Y-51830820D01*
X53555273Y-52056106D01*
X53354890Y-52163213D01*
X52978206Y-52502323D01*
X51140047Y-52502323D01*
X51509984Y-51987502D01*
X52098614Y-51417081D01*
X52778944Y-50959917D01*
X53529485Y-50630453D01*
X54328728Y-50438572D01*
X55010577Y-50388500D01*
X94987150Y-50388500D01*
X95816423Y-50462511D01*
G37*
X95816423Y-50462511D02*
X96607041Y-50678799D01*
X97346862Y-51031676D01*
X98012498Y-51509984D01*
X98582919Y-52098614D01*
X99040083Y-52778944D01*
X99369547Y-53529485D01*
X99561428Y-54328728D01*
X99611500Y-55010577D01*
X99611501Y-94987139D01*
X99537489Y-95816423D01*
X99321201Y-96607041D01*
X98968325Y-97346860D01*
X98490014Y-98012501D01*
X97901386Y-98582919D01*
X97221055Y-99040083D01*
X96470515Y-99369547D01*
X95671272Y-99561428D01*
X94989424Y-99611500D01*
X55012850Y-99611500D01*
X54183577Y-99537489D01*
X53392959Y-99321201D01*
X52653140Y-98968325D01*
X51987499Y-98490014D01*
X51417081Y-97901386D01*
X51145800Y-97497677D01*
X52978206Y-97497677D01*
X53354890Y-97836787D01*
X53939930Y-98103224D01*
X54565708Y-98250406D01*
X55208175Y-98272677D01*
X55842642Y-98169180D01*
X56444727Y-97943894D01*
X56645110Y-97836787D01*
X57021794Y-97497677D01*
X92978206Y-97497677D01*
X93354890Y-97836787D01*
X93939930Y-98103224D01*
X94565708Y-98250406D01*
X95208175Y-98272677D01*
X95842642Y-98169180D01*
X96444727Y-97943894D01*
X96645110Y-97836787D01*
X97021794Y-97497677D01*
X96705022Y-97180905D01*
X96705022Y-97180904D01*
X96590990Y-97066873D01*
X96063769Y-96539652D01*
X96001076Y-96476958D01*
X96001075Y-96476958D01*
X95000000Y-95475883D01*
X93998925Y-96476958D01*
X93998924Y-96476958D01*
X93936231Y-96539652D01*
X93409010Y-97066873D01*
X93294978Y-97180904D01*
X93294978Y-97180905D01*
X92978206Y-97497677D01*
X57021794Y-97497677D01*
X56705022Y-97180905D01*
X56705022Y-97180904D01*
X56590990Y-97066873D01*
X56063769Y-96539652D01*
X56001076Y-96476958D01*
X56001075Y-96476958D01*
X55000000Y-95475883D01*
X53998925Y-96476958D01*
X53998924Y-96476958D01*
X53936231Y-96539652D01*
X53409010Y-97066873D01*
X53294978Y-97180904D01*
X53294978Y-97180905D01*
X52978206Y-97497677D01*
X51145800Y-97497677D01*
X50959917Y-97221055D01*
X50630453Y-96470515D01*
X50438572Y-95671272D01*
X50404565Y-95208175D01*
X51727323Y-95208175D01*
X51830820Y-95842642D01*
X52056106Y-96444727D01*
X52163213Y-96645110D01*
X52502323Y-97021794D01*
X52819095Y-96705022D01*
X52819096Y-96705022D01*
X52933127Y-96590990D01*
X53409010Y-96115107D01*
X53523042Y-96001076D01*
X53523042Y-96001075D01*
X54524117Y-95000000D01*
X55475883Y-95000000D01*
X56476958Y-96001075D01*
X56476958Y-96001076D01*
X56590990Y-96115107D01*
X57066873Y-96590990D01*
X57180904Y-96705022D01*
X57180905Y-96705022D01*
X57497677Y-97021794D01*
X57836787Y-96645110D01*
X58103224Y-96060070D01*
X58250406Y-95434292D01*
X58258244Y-95208175D01*
X91727323Y-95208175D01*
X91830820Y-95842642D01*
X92056106Y-96444727D01*
X92163213Y-96645110D01*
X92502323Y-97021794D01*
X92819095Y-96705022D01*
X92819096Y-96705022D01*
X92933127Y-96590990D01*
X93409010Y-96115107D01*
X93523042Y-96001076D01*
X93523042Y-96001075D01*
X94524117Y-95000000D01*
X95475883Y-95000000D01*
X96476958Y-96001075D01*
X96476958Y-96001076D01*
X96590990Y-96115107D01*
X97066873Y-96590990D01*
X97180904Y-96705022D01*
X97180905Y-96705022D01*
X97497677Y-97021794D01*
X97836787Y-96645110D01*
X98103224Y-96060070D01*
X98250406Y-95434292D01*
X98272677Y-94791825D01*
X98169180Y-94157358D01*
X97943894Y-93555273D01*
X97836787Y-93354890D01*
X97497677Y-92978206D01*
X97180905Y-93294978D01*
X97180904Y-93294978D01*
X97120993Y-93354890D01*
X96590990Y-93884893D01*
X96476958Y-93998924D01*
X96476958Y-93998925D01*
X95475883Y-95000000D01*
X94524117Y-95000000D01*
X93523042Y-93998925D01*
X93523042Y-93998924D01*
X93409010Y-93884893D01*
X92879007Y-93354890D01*
X92819096Y-93294978D01*
X92819095Y-93294978D01*
X92502323Y-92978206D01*
X92163213Y-93354890D01*
X91896776Y-93939930D01*
X91749594Y-94565708D01*
X91727323Y-95208175D01*
X58258244Y-95208175D01*
X58272677Y-94791825D01*
X58169180Y-94157358D01*
X57943894Y-93555273D01*
X57836787Y-93354890D01*
X57497677Y-92978206D01*
X57180905Y-93294978D01*
X57180904Y-93294978D01*
X57120993Y-93354890D01*
X56590990Y-93884893D01*
X56476958Y-93998924D01*
X56476958Y-93998925D01*
X55475883Y-95000000D01*
X54524117Y-95000000D01*
X53523042Y-93998925D01*
X53523042Y-93998924D01*
X53409010Y-93884893D01*
X52879007Y-93354890D01*
X52819096Y-93294978D01*
X52819095Y-93294978D01*
X52502323Y-92978206D01*
X52163213Y-93354890D01*
X51896776Y-93939930D01*
X51749594Y-94565708D01*
X51727323Y-95208175D01*
X50404565Y-95208175D01*
X50388500Y-94989424D01*
X50388500Y-92502323D01*
X52978206Y-92502323D01*
X53294978Y-92819095D01*
X53294978Y-92819096D01*
X53409010Y-92933127D01*
X53884893Y-93409010D01*
X53998924Y-93523042D01*
X53998925Y-93523042D01*
X55000000Y-94524117D01*
X56001075Y-93523042D01*
X56001076Y-93523042D01*
X56115107Y-93409010D01*
X56590990Y-92933127D01*
X56705022Y-92819096D01*
X56705022Y-92819095D01*
X57021794Y-92502323D01*
X92978206Y-92502323D01*
X93294978Y-92819095D01*
X93294978Y-92819096D01*
X93409010Y-92933127D01*
X93884893Y-93409010D01*
X93998924Y-93523042D01*
X93998925Y-93523042D01*
X95000000Y-94524117D01*
X96001075Y-93523042D01*
X96001076Y-93523042D01*
X96115107Y-93409010D01*
X96590990Y-92933127D01*
X96705022Y-92819096D01*
X96705022Y-92819095D01*
X97021794Y-92502323D01*
X96645110Y-92163213D01*
X96060070Y-91896776D01*
X95434292Y-91749594D01*
X94791825Y-91727323D01*
X94157358Y-91830820D01*
X93555273Y-92056106D01*
X93354890Y-92163213D01*
X92978206Y-92502323D01*
X57021794Y-92502323D01*
X56645110Y-92163213D01*
X56060070Y-91896776D01*
X55434292Y-91749594D01*
X54791825Y-91727323D01*
X54157358Y-91830820D01*
X53555273Y-92056106D01*
X53354890Y-92163213D01*
X52978206Y-92502323D01*
X50388500Y-92502323D01*
X50388500Y-78676887D01*
X72361500Y-78676887D01*
X72361500Y-78773113D01*
X72380272Y-78867490D01*
X72417097Y-78956392D01*
X72470557Y-79036401D01*
X72538599Y-79104443D01*
X72618608Y-79157903D01*
X72707510Y-79194728D01*
X72801887Y-79213500D01*
X72898113Y-79213500D01*
X72992490Y-79194728D01*
X73081392Y-79157903D01*
X73161401Y-79104443D01*
X73229443Y-79036401D01*
X73282903Y-78956392D01*
X73319728Y-78867490D01*
X73338500Y-78773113D01*
X73338500Y-78676887D01*
X73319728Y-78582510D01*
X73282903Y-78493608D01*
X73229443Y-78413599D01*
X73161401Y-78345557D01*
X73081392Y-78292097D01*
X72992490Y-78255272D01*
X72898113Y-78236500D01*
X72801887Y-78236500D01*
X72707510Y-78255272D01*
X72618608Y-78292097D01*
X72538599Y-78345557D01*
X72470557Y-78413599D01*
X72417097Y-78493608D01*
X72380272Y-78582510D01*
X72361500Y-78676887D01*
X50388500Y-78676887D01*
X50388500Y-74726887D01*
X71236500Y-74726887D01*
X71236500Y-74823113D01*
X71255272Y-74917490D01*
X71292097Y-75006392D01*
X71345557Y-75086401D01*
X71413599Y-75154443D01*
X71493608Y-75207903D01*
X71582510Y-75244728D01*
X71676887Y-75263500D01*
X71773113Y-75263500D01*
X71867490Y-75244728D01*
X71956392Y-75207903D01*
X72036401Y-75154443D01*
X72104443Y-75086401D01*
X72157903Y-75006392D01*
X72194728Y-74917490D01*
X72213500Y-74823113D01*
X72213500Y-74765210D01*
X72479260Y-74499451D01*
X73668479Y-74499451D01*
X73648364Y-74529555D01*
X73611539Y-74618457D01*
X73592767Y-74712834D01*
X73592767Y-74809060D01*
X73611539Y-74903437D01*
X73648364Y-74992339D01*
X73701824Y-75072348D01*
X73769866Y-75140390D01*
X73849875Y-75193850D01*
X73938777Y-75230675D01*
X74033154Y-75249447D01*
X74129380Y-75249447D01*
X74182386Y-75238904D01*
X73853667Y-75567623D01*
X73840755Y-75578220D01*
X73798454Y-75629763D01*
X73795832Y-75634669D01*
X73742668Y-75581505D01*
X73662659Y-75528045D01*
X73573757Y-75491220D01*
X73479380Y-75472448D01*
X73383154Y-75472448D01*
X73288777Y-75491220D01*
X73199875Y-75528045D01*
X73119866Y-75581505D01*
X73051824Y-75649547D01*
X72998364Y-75729556D01*
X72961539Y-75818458D01*
X72942767Y-75912835D01*
X72942767Y-76009061D01*
X72961539Y-76103438D01*
X72998364Y-76192340D01*
X73044206Y-76260947D01*
X72998357Y-76329565D01*
X72961532Y-76418467D01*
X72942760Y-76512844D01*
X72942760Y-76609070D01*
X72961532Y-76703447D01*
X72998357Y-76792349D01*
X73051817Y-76872358D01*
X73119859Y-76940400D01*
X73199868Y-76993860D01*
X73288770Y-77030685D01*
X73383147Y-77049457D01*
X73479373Y-77049457D01*
X73573750Y-77030685D01*
X73662652Y-76993860D01*
X73742661Y-76940400D01*
X73756269Y-76926793D01*
X73769867Y-76940391D01*
X73849876Y-76993851D01*
X73938778Y-77030676D01*
X74033155Y-77049448D01*
X74129381Y-77049448D01*
X74223758Y-77030676D01*
X74312660Y-76993851D01*
X74392669Y-76940391D01*
X74460711Y-76872349D01*
X74514171Y-76792340D01*
X74550996Y-76703438D01*
X74569768Y-76609061D01*
X74569768Y-76512835D01*
X74567828Y-76503084D01*
X74573103Y-76503084D01*
X74667480Y-76484312D01*
X74756382Y-76447487D01*
X74836391Y-76394027D01*
X74904433Y-76325985D01*
X74957893Y-76245976D01*
X74994718Y-76157074D01*
X75013490Y-76062697D01*
X75013490Y-76004794D01*
X75804785Y-75213500D01*
X76101070Y-75213500D01*
X76099013Y-75218465D01*
X76080241Y-75312842D01*
X76080241Y-75409068D01*
X76099013Y-75503445D01*
X76100727Y-75507583D01*
X76061223Y-75491220D01*
X75966846Y-75472448D01*
X75870620Y-75472448D01*
X75776243Y-75491220D01*
X75687341Y-75528045D01*
X75607332Y-75581505D01*
X75539290Y-75649547D01*
X75485830Y-75729556D01*
X75449005Y-75818458D01*
X75430233Y-75912835D01*
X75430233Y-76009061D01*
X75449005Y-76103438D01*
X75485830Y-76192340D01*
X75531672Y-76260948D01*
X75485830Y-76329555D01*
X75449005Y-76418457D01*
X75430233Y-76512834D01*
X75430233Y-76609060D01*
X75449005Y-76703437D01*
X75485830Y-76792339D01*
X75539290Y-76872348D01*
X75607332Y-76940390D01*
X75687341Y-76993850D01*
X75776243Y-77030675D01*
X75870620Y-77049447D01*
X75966846Y-77049447D01*
X76061223Y-77030675D01*
X76150125Y-76993850D01*
X76230134Y-76940390D01*
X76298176Y-76872348D01*
X76351636Y-76792339D01*
X76359047Y-76774447D01*
X79969929Y-76774447D01*
X79986541Y-76776083D01*
X80003153Y-76774447D01*
X80003161Y-76774447D01*
X80047150Y-76770114D01*
X80052899Y-76769548D01*
X80067749Y-76765043D01*
X80116706Y-76750193D01*
X80175511Y-76718761D01*
X80227054Y-76676460D01*
X80237650Y-76663549D01*
X80810681Y-76090516D01*
X80812643Y-76089165D01*
X80834194Y-76067001D01*
X80844304Y-76056891D01*
X80845817Y-76055047D01*
X80847484Y-76053333D01*
X80856412Y-76042137D01*
X80876010Y-76018258D01*
X80877137Y-76016149D01*
X80916227Y-75967132D01*
X80930746Y-75951337D01*
X80945611Y-75926926D01*
X80961164Y-75902926D01*
X80969099Y-75882983D01*
X81004576Y-75809315D01*
X81015214Y-75790687D01*
X81024278Y-75763570D01*
X81034099Y-75736718D01*
X81037395Y-75715523D01*
X81047400Y-75671690D01*
X81374943Y-75999233D01*
X81376303Y-76001208D01*
X81398445Y-76022738D01*
X81408559Y-76032853D01*
X81410414Y-76034375D01*
X81412135Y-76036049D01*
X81423324Y-76044972D01*
X81447190Y-76064561D01*
X81449307Y-76065693D01*
X81498336Y-76104792D01*
X81514131Y-76119311D01*
X81538542Y-76134176D01*
X81562542Y-76149729D01*
X81582485Y-76157664D01*
X81656150Y-76193139D01*
X81674784Y-76203781D01*
X81701905Y-76212846D01*
X81728750Y-76222664D01*
X81749947Y-76225961D01*
X81829680Y-76244159D01*
X81850198Y-76250383D01*
X81878642Y-76253185D01*
X81907021Y-76256785D01*
X81928418Y-76255282D01*
X82010199Y-76255284D01*
X82031593Y-76256786D01*
X82059955Y-76253187D01*
X82088405Y-76250385D01*
X82108931Y-76244159D01*
X82188666Y-76225960D01*
X82209857Y-76222664D01*
X82236700Y-76212847D01*
X82263828Y-76203779D01*
X82282459Y-76193138D01*
X82356127Y-76157662D01*
X82376066Y-76149729D01*
X82400072Y-76134171D01*
X82424476Y-76119311D01*
X82440267Y-76104796D01*
X82489294Y-76065698D01*
X82491401Y-76064572D01*
X82515254Y-76044996D01*
X82526473Y-76036049D01*
X82528191Y-76034379D01*
X82530034Y-76032866D01*
X82540135Y-76022765D01*
X82562305Y-76001208D01*
X82562481Y-76000953D01*
X82562733Y-76000779D01*
X82584279Y-75978620D01*
X82594397Y-75968502D01*
X82595910Y-75966658D01*
X82597574Y-75964947D01*
X82606508Y-75953745D01*
X82626102Y-75929868D01*
X82627227Y-75927764D01*
X82666318Y-75878745D01*
X82680835Y-75862952D01*
X82695709Y-75838526D01*
X82711254Y-75814540D01*
X82719184Y-75794610D01*
X82754668Y-75720926D01*
X82765303Y-75702305D01*
X82774367Y-75675191D01*
X82784189Y-75648334D01*
X82787485Y-75627141D01*
X82805684Y-75547409D01*
X82811912Y-75526875D01*
X82814715Y-75498416D01*
X82818312Y-75470069D01*
X82816809Y-75448667D01*
X82816808Y-75366890D01*
X82818310Y-75345496D01*
X82814709Y-75317112D01*
X82811907Y-75288670D01*
X82805684Y-75268157D01*
X82787487Y-75188428D01*
X82784188Y-75167218D01*
X82774361Y-75140349D01*
X82765306Y-75113259D01*
X82754668Y-75094632D01*
X82719182Y-75020948D01*
X82711252Y-75001018D01*
X82695697Y-74977015D01*
X82680829Y-74952602D01*
X82666318Y-74936815D01*
X82627224Y-74887793D01*
X82626098Y-74885687D01*
X82606490Y-74861793D01*
X82597572Y-74850611D01*
X82595911Y-74848903D01*
X82594393Y-74847053D01*
X82584245Y-74836905D01*
X82562731Y-74814779D01*
X82560766Y-74813426D01*
X82233218Y-74485876D01*
X82277050Y-74475871D01*
X82298243Y-74472575D01*
X82325091Y-74462756D01*
X82352213Y-74453690D01*
X82370841Y-74443052D01*
X82444513Y-74407573D01*
X82464452Y-74399640D01*
X82488458Y-74384082D01*
X82512862Y-74369222D01*
X82528653Y-74354707D01*
X82577677Y-74315612D01*
X82579783Y-74314486D01*
X82603650Y-74294899D01*
X82614859Y-74285960D01*
X82616574Y-74284293D01*
X82618417Y-74282780D01*
X82628527Y-74272670D01*
X82650691Y-74251119D01*
X82652047Y-74249150D01*
X84627602Y-72273597D01*
X84640513Y-72263001D01*
X84682814Y-72211458D01*
X84714246Y-72152653D01*
X84725811Y-72114527D01*
X84733601Y-72088847D01*
X84735308Y-72071510D01*
X84738500Y-72039108D01*
X84738500Y-72039101D01*
X84740136Y-72022489D01*
X84738500Y-72005877D01*
X84738500Y-71402044D01*
X84738933Y-71399695D01*
X84738500Y-71368827D01*
X84738500Y-71354488D01*
X84738265Y-71352107D01*
X84738232Y-71349722D01*
X84736631Y-71335516D01*
X84733601Y-71304751D01*
X84732907Y-71302463D01*
X84725887Y-71240160D01*
X84724984Y-71218726D01*
X84718230Y-71190935D01*
X84712261Y-71162984D01*
X84703777Y-71143287D01*
X84676765Y-71066095D01*
X84671116Y-71045401D01*
X84658349Y-71019813D01*
X84646308Y-70993886D01*
X84633654Y-70976571D01*
X84609732Y-70938500D01*
X85072956Y-70938500D01*
X85075305Y-70938933D01*
X85106172Y-70938500D01*
X85120512Y-70938500D01*
X85122893Y-70938265D01*
X85125277Y-70938232D01*
X85139476Y-70936632D01*
X85170249Y-70933601D01*
X85172538Y-70932907D01*
X85234839Y-70925887D01*
X85256273Y-70924984D01*
X85284064Y-70918230D01*
X85312015Y-70912261D01*
X85331713Y-70903777D01*
X85408905Y-70876765D01*
X85429599Y-70871116D01*
X85455193Y-70858346D01*
X85481113Y-70846308D01*
X85498424Y-70833657D01*
X85567674Y-70790144D01*
X85586593Y-70780031D01*
X85608689Y-70761897D01*
X85631296Y-70744381D01*
X85645367Y-70728184D01*
X85703185Y-70670366D01*
X85719382Y-70656295D01*
X85736904Y-70633680D01*
X85755032Y-70611591D01*
X85765142Y-70592677D01*
X85808655Y-70523428D01*
X85821309Y-70506113D01*
X85833350Y-70480186D01*
X85846117Y-70454598D01*
X85851766Y-70433904D01*
X85878779Y-70356709D01*
X85887263Y-70337011D01*
X85893233Y-70309055D01*
X85899985Y-70281273D01*
X85900888Y-70259842D01*
X85907908Y-70197533D01*
X85908601Y-70195247D01*
X85911631Y-70164481D01*
X85913232Y-70150274D01*
X85913265Y-70147892D01*
X85913500Y-70145510D01*
X85913500Y-70131141D01*
X85913932Y-70100301D01*
X85913876Y-70100000D01*
X85913932Y-70099698D01*
X85913500Y-70068858D01*
X85913500Y-70054488D01*
X85913265Y-70052106D01*
X85913232Y-70049725D01*
X85911632Y-70035519D01*
X85908601Y-70004751D01*
X85907907Y-70002465D01*
X85900888Y-69940157D01*
X85899985Y-69918726D01*
X85893233Y-69890944D01*
X85887263Y-69862988D01*
X85878779Y-69843290D01*
X85851766Y-69766095D01*
X85846117Y-69745401D01*
X85833350Y-69719813D01*
X85821309Y-69693886D01*
X85808655Y-69676571D01*
X85765142Y-69607322D01*
X85755032Y-69588408D01*
X85736904Y-69566319D01*
X85719382Y-69543704D01*
X85703185Y-69529633D01*
X85645367Y-69471815D01*
X85631296Y-69455618D01*
X85608689Y-69438102D01*
X85586593Y-69419968D01*
X85567674Y-69409855D01*
X85498424Y-69366342D01*
X85481113Y-69353691D01*
X85455193Y-69341653D01*
X85429599Y-69328883D01*
X85408905Y-69323234D01*
X85331713Y-69296223D01*
X85312012Y-69287737D01*
X85284052Y-69281766D01*
X85256273Y-69275015D01*
X85234842Y-69274112D01*
X85172536Y-69267093D01*
X85170249Y-69266399D01*
X85139467Y-69263367D01*
X85125274Y-69261768D01*
X85122894Y-69261735D01*
X85120512Y-69261500D01*
X85106142Y-69261500D01*
X85075302Y-69261068D01*
X85072959Y-69261500D01*
X84609731Y-69261500D01*
X84633654Y-69223428D01*
X84646308Y-69206113D01*
X84658349Y-69180186D01*
X84671116Y-69154598D01*
X84676765Y-69133904D01*
X84703777Y-69056712D01*
X84712261Y-69037015D01*
X84718230Y-69009064D01*
X84724984Y-68981273D01*
X84725887Y-68959839D01*
X84732907Y-68897536D01*
X84733601Y-68895248D01*
X84736631Y-68864483D01*
X84738232Y-68850277D01*
X84738265Y-68847892D01*
X84738500Y-68845511D01*
X84738500Y-68831172D01*
X84738933Y-68800304D01*
X84738500Y-68797955D01*
X84738500Y-68262698D01*
X85849312Y-67151887D01*
X90061500Y-67151887D01*
X90061500Y-67248113D01*
X90080272Y-67342490D01*
X90117097Y-67431392D01*
X90170557Y-67511401D01*
X90238599Y-67579443D01*
X90318608Y-67632903D01*
X90407510Y-67669728D01*
X90501887Y-67688500D01*
X90598113Y-67688500D01*
X90692490Y-67669728D01*
X90781392Y-67632903D01*
X90861401Y-67579443D01*
X90929443Y-67511401D01*
X90982903Y-67431392D01*
X91019728Y-67342490D01*
X91038500Y-67248113D01*
X91038500Y-67151887D01*
X91019728Y-67057510D01*
X90982903Y-66968608D01*
X90929443Y-66888599D01*
X90861401Y-66820557D01*
X90781392Y-66767097D01*
X90692490Y-66730272D01*
X90598113Y-66711500D01*
X90501887Y-66711500D01*
X90407510Y-66730272D01*
X90318608Y-66767097D01*
X90238599Y-66820557D01*
X90170557Y-66888599D01*
X90117097Y-66968608D01*
X90080272Y-67057510D01*
X90061500Y-67151887D01*
X85849312Y-67151887D01*
X86376322Y-66624878D01*
X86557393Y-66805949D01*
X86558745Y-66807912D01*
X86580883Y-66829439D01*
X86591023Y-66839579D01*
X86592868Y-66841093D01*
X86594576Y-66842754D01*
X86605767Y-66851679D01*
X86629656Y-66871284D01*
X86631760Y-66872408D01*
X86650828Y-66887616D01*
X86666628Y-66902138D01*
X86691037Y-66917001D01*
X86715025Y-66932547D01*
X86734966Y-66940482D01*
X86774125Y-66959339D01*
X86792743Y-66969972D01*
X86819862Y-66979038D01*
X86846728Y-66988862D01*
X86867909Y-66992156D01*
X86910294Y-67001831D01*
X86930817Y-67008056D01*
X86959250Y-67010857D01*
X86987621Y-67014457D01*
X87009027Y-67012954D01*
X87052493Y-67012954D01*
X87073887Y-67014456D01*
X87102244Y-67010858D01*
X87130710Y-67008054D01*
X87151241Y-67001826D01*
X87193603Y-66992157D01*
X87214799Y-66988861D01*
X87241653Y-66979040D01*
X87268766Y-66969977D01*
X87287390Y-66959341D01*
X87326558Y-66940479D01*
X87346489Y-66932548D01*
X87370472Y-66917005D01*
X87394897Y-66902131D01*
X87410696Y-66887609D01*
X87444666Y-66860518D01*
X87462338Y-66848348D01*
X87482278Y-66827841D01*
X87502770Y-66807915D01*
X87514935Y-66790250D01*
X87542027Y-66756277D01*
X87556547Y-66740481D01*
X87571426Y-66716048D01*
X87586967Y-66692067D01*
X87594897Y-66672138D01*
X87613754Y-66632980D01*
X87624393Y-66614352D01*
X87633455Y-66587241D01*
X87643278Y-66560384D01*
X87646575Y-66539184D01*
X87656246Y-66496814D01*
X87662473Y-66476286D01*
X87665276Y-66447827D01*
X87668874Y-66419472D01*
X87667372Y-66398084D01*
X87667372Y-66354598D01*
X87668874Y-66333210D01*
X87665277Y-66304859D01*
X87662473Y-66276395D01*
X87656245Y-66255864D01*
X87646575Y-66213498D01*
X87643278Y-66192298D01*
X87633455Y-66165441D01*
X87624393Y-66138330D01*
X87613754Y-66119702D01*
X87605494Y-66102549D01*
X87622652Y-66110812D01*
X87641270Y-66121445D01*
X87668389Y-66130511D01*
X87695255Y-66140335D01*
X87716436Y-66143629D01*
X87758821Y-66153304D01*
X87779344Y-66159529D01*
X87807777Y-66162330D01*
X87836148Y-66165930D01*
X87857554Y-66164427D01*
X87901020Y-66164427D01*
X87922414Y-66165929D01*
X87950771Y-66162331D01*
X87979237Y-66159527D01*
X87999768Y-66153299D01*
X88042130Y-66143630D01*
X88063326Y-66140334D01*
X88090180Y-66130513D01*
X88117293Y-66121450D01*
X88135917Y-66110814D01*
X88175085Y-66091952D01*
X88195016Y-66084021D01*
X88218999Y-66068478D01*
X88243424Y-66053604D01*
X88259223Y-66039082D01*
X88293193Y-66011991D01*
X88310865Y-65999821D01*
X88330805Y-65979314D01*
X88351297Y-65959388D01*
X88363462Y-65941723D01*
X88390554Y-65907750D01*
X88405074Y-65891954D01*
X88419953Y-65867521D01*
X88435494Y-65843540D01*
X88443424Y-65823611D01*
X88462281Y-65784453D01*
X88472920Y-65765825D01*
X88481982Y-65738714D01*
X88491805Y-65711857D01*
X88495102Y-65690657D01*
X88504773Y-65648287D01*
X88511000Y-65627759D01*
X88513803Y-65599300D01*
X88517401Y-65570945D01*
X88515899Y-65549557D01*
X88515899Y-65506071D01*
X88517401Y-65484683D01*
X88513804Y-65456332D01*
X88511000Y-65427868D01*
X88504772Y-65407337D01*
X88495102Y-65364971D01*
X88491805Y-65343771D01*
X88481982Y-65316914D01*
X88472920Y-65289803D01*
X88462281Y-65271175D01*
X88443425Y-65232020D01*
X88435497Y-65212093D01*
X88419942Y-65188089D01*
X88405074Y-65163674D01*
X88390562Y-65147886D01*
X88375360Y-65128823D01*
X88374231Y-65126711D01*
X88354607Y-65102799D01*
X88345709Y-65091641D01*
X88344048Y-65089932D01*
X88342525Y-65088077D01*
X88332364Y-65077916D01*
X88310869Y-65055809D01*
X88308903Y-65054455D01*
X88127823Y-64873375D01*
X88687700Y-64313500D01*
X89596846Y-64313500D01*
X89645557Y-64386401D01*
X89713599Y-64454443D01*
X89793608Y-64507903D01*
X89882510Y-64544728D01*
X89976887Y-64563500D01*
X90073113Y-64563500D01*
X90167490Y-64544728D01*
X90256392Y-64507903D01*
X90336401Y-64454443D01*
X90404443Y-64386401D01*
X90457903Y-64306392D01*
X90494728Y-64217490D01*
X90513500Y-64123113D01*
X90513500Y-64026887D01*
X90500892Y-63963500D01*
X92664561Y-63963500D01*
X92680272Y-64042490D01*
X92717097Y-64131392D01*
X92737214Y-64161500D01*
X91040476Y-64161500D01*
X91023856Y-64159863D01*
X90957498Y-64166399D01*
X90903222Y-64182863D01*
X90893691Y-64185754D01*
X90834886Y-64217186D01*
X90814885Y-64233601D01*
X90796252Y-64248892D01*
X90796248Y-64248896D01*
X90783343Y-64259487D01*
X90772751Y-64272393D01*
X90533655Y-64511490D01*
X90475753Y-64511490D01*
X90381376Y-64530262D01*
X90292474Y-64567087D01*
X90212465Y-64620547D01*
X90144423Y-64688589D01*
X90090963Y-64768598D01*
X90054138Y-64857500D01*
X90035366Y-64951877D01*
X90035366Y-65048103D01*
X90054138Y-65142480D01*
X90090963Y-65231382D01*
X90144423Y-65311391D01*
X90212465Y-65379433D01*
X90260457Y-65411500D01*
X89441611Y-65411500D01*
X89424999Y-65409864D01*
X89408387Y-65411500D01*
X89408380Y-65411500D01*
X89367872Y-65415490D01*
X89358642Y-65416399D01*
X89347823Y-65419681D01*
X89294835Y-65435754D01*
X89236030Y-65467186D01*
X89212496Y-65486500D01*
X89151887Y-65486500D01*
X89057510Y-65505272D01*
X88968608Y-65542097D01*
X88888599Y-65595557D01*
X88820557Y-65663599D01*
X88767097Y-65743608D01*
X88730272Y-65832510D01*
X88711500Y-65926887D01*
X88711500Y-66023113D01*
X88730272Y-66117490D01*
X88767097Y-66206392D01*
X88820557Y-66286401D01*
X88888599Y-66354443D01*
X88968608Y-66407903D01*
X89057510Y-66444728D01*
X89151887Y-66463500D01*
X89248113Y-66463500D01*
X89342490Y-66444728D01*
X89431392Y-66407903D01*
X89511401Y-66354443D01*
X89579443Y-66286401D01*
X89632903Y-66206392D01*
X89669728Y-66117490D01*
X89675494Y-66088500D01*
X92803919Y-66088500D01*
X92767097Y-66143608D01*
X92730272Y-66232510D01*
X92711500Y-66326887D01*
X92711500Y-66359788D01*
X80159790Y-78911500D01*
X76990211Y-78911500D01*
X76576113Y-78497403D01*
X76565513Y-78484487D01*
X76513970Y-78442186D01*
X76455165Y-78410754D01*
X76391357Y-78391399D01*
X76341620Y-78386500D01*
X76341612Y-78386500D01*
X76325000Y-78384864D01*
X76308388Y-78386500D01*
X76254490Y-78386500D01*
X76257903Y-78381392D01*
X76294728Y-78292490D01*
X76313500Y-78198113D01*
X76313500Y-78101887D01*
X76294728Y-78007510D01*
X76257903Y-77918608D01*
X76213322Y-77851887D01*
X76836500Y-77851887D01*
X76836500Y-77948113D01*
X76855272Y-78042490D01*
X76892097Y-78131392D01*
X76945557Y-78211401D01*
X77013599Y-78279443D01*
X77093608Y-78332903D01*
X77182510Y-78369728D01*
X77276887Y-78388500D01*
X77373113Y-78388500D01*
X77467490Y-78369728D01*
X77556392Y-78332903D01*
X77636401Y-78279443D01*
X77704443Y-78211401D01*
X77757903Y-78131392D01*
X77794728Y-78042490D01*
X77813500Y-77948113D01*
X77813500Y-77851887D01*
X77794728Y-77757510D01*
X77775334Y-77710689D01*
X77857510Y-77744728D01*
X77939647Y-77761065D01*
X77936500Y-77776887D01*
X77936500Y-77873113D01*
X77955272Y-77967490D01*
X77992097Y-78056392D01*
X78045557Y-78136401D01*
X78113599Y-78204443D01*
X78193608Y-78257903D01*
X78282510Y-78294728D01*
X78376887Y-78313500D01*
X78473113Y-78313500D01*
X78567490Y-78294728D01*
X78656392Y-78257903D01*
X78736401Y-78204443D01*
X78804443Y-78136401D01*
X78857903Y-78056392D01*
X78894728Y-77967490D01*
X78913500Y-77873113D01*
X78913500Y-77776887D01*
X78894728Y-77682510D01*
X78857903Y-77593608D01*
X78804443Y-77513599D01*
X78736401Y-77445557D01*
X78656392Y-77392097D01*
X78567490Y-77355272D01*
X78485353Y-77338935D01*
X78488500Y-77323113D01*
X78488500Y-77226887D01*
X78469728Y-77132510D01*
X78432903Y-77043608D01*
X78379443Y-76963599D01*
X78311401Y-76895557D01*
X78231392Y-76842097D01*
X78142490Y-76805272D01*
X78048113Y-76786500D01*
X77951887Y-76786500D01*
X77857510Y-76805272D01*
X77768608Y-76842097D01*
X77688599Y-76895557D01*
X77620557Y-76963599D01*
X77567097Y-77043608D01*
X77530272Y-77132510D01*
X77511500Y-77226887D01*
X77511500Y-77323113D01*
X77530272Y-77417490D01*
X77549666Y-77464311D01*
X77467490Y-77430272D01*
X77373113Y-77411500D01*
X77276887Y-77411500D01*
X77182510Y-77430272D01*
X77093608Y-77467097D01*
X77013599Y-77520557D01*
X76945557Y-77588599D01*
X76892097Y-77668608D01*
X76855272Y-77757510D01*
X76836500Y-77851887D01*
X76213322Y-77851887D01*
X76204443Y-77838599D01*
X76136401Y-77770557D01*
X76056392Y-77717097D01*
X75967490Y-77680272D01*
X75873113Y-77661500D01*
X75776887Y-77661500D01*
X75682510Y-77680272D01*
X75593608Y-77717097D01*
X75513599Y-77770557D01*
X75445557Y-77838599D01*
X75392097Y-77918608D01*
X75355272Y-78007510D01*
X75336500Y-78101887D01*
X75336500Y-78198113D01*
X75355272Y-78292490D01*
X75392097Y-78381392D01*
X75395510Y-78386500D01*
X74827344Y-78386500D01*
X74786401Y-78345557D01*
X74706392Y-78292097D01*
X74617490Y-78255272D01*
X74523113Y-78236500D01*
X74426887Y-78236500D01*
X74332510Y-78255272D01*
X74280512Y-78276811D01*
X74294728Y-78242490D01*
X74313500Y-78148113D01*
X74313500Y-78051887D01*
X74294728Y-77957510D01*
X74257903Y-77868608D01*
X74204443Y-77788599D01*
X74136401Y-77720557D01*
X74056392Y-77667097D01*
X73967490Y-77630272D01*
X73873113Y-77611500D01*
X73776887Y-77611500D01*
X73682510Y-77630272D01*
X73593608Y-77667097D01*
X73513599Y-77720557D01*
X73445557Y-77788599D01*
X73392097Y-77868608D01*
X73355272Y-77957510D01*
X73336500Y-78051887D01*
X73336500Y-78148113D01*
X73355272Y-78242490D01*
X73392097Y-78331392D01*
X73445557Y-78411401D01*
X73513599Y-78479443D01*
X73593608Y-78532903D01*
X73682510Y-78569728D01*
X73776887Y-78588500D01*
X73873113Y-78588500D01*
X73967490Y-78569728D01*
X74019488Y-78548189D01*
X74005272Y-78582510D01*
X73986500Y-78676887D01*
X73986500Y-78773113D01*
X74005272Y-78867490D01*
X74042097Y-78956392D01*
X74095557Y-79036401D01*
X74163599Y-79104443D01*
X74243608Y-79157903D01*
X74332510Y-79194728D01*
X74426887Y-79213500D01*
X74523113Y-79213500D01*
X74617490Y-79194728D01*
X74706392Y-79157903D01*
X74786401Y-79104443D01*
X74827344Y-79063500D01*
X76184790Y-79063500D01*
X76598891Y-79477602D01*
X76609487Y-79490513D01*
X76661030Y-79532814D01*
X76719835Y-79564246D01*
X76764287Y-79577730D01*
X76783642Y-79583601D01*
X76789936Y-79584221D01*
X76833380Y-79588500D01*
X76833387Y-79588500D01*
X76849999Y-79590136D01*
X76866611Y-79588500D01*
X80283388Y-79588500D01*
X80300000Y-79590136D01*
X80316612Y-79588500D01*
X80316620Y-79588500D01*
X80366357Y-79583601D01*
X80430165Y-79564246D01*
X80488970Y-79532814D01*
X80540513Y-79490513D01*
X80551113Y-79477597D01*
X85893973Y-74134737D01*
X89944350Y-74134737D01*
X89944350Y-74230963D01*
X89963122Y-74325340D01*
X89999947Y-74414242D01*
X90053407Y-74494251D01*
X90121449Y-74562293D01*
X90201458Y-74615753D01*
X90290360Y-74652578D01*
X90384737Y-74671350D01*
X90480963Y-74671350D01*
X90575340Y-74652578D01*
X90664242Y-74615753D01*
X90744251Y-74562293D01*
X90812293Y-74494251D01*
X90865753Y-74414242D01*
X90902578Y-74325340D01*
X90921350Y-74230963D01*
X90921350Y-74134737D01*
X90902578Y-74040360D01*
X90865753Y-73951458D01*
X90812293Y-73871449D01*
X90744251Y-73803407D01*
X90664242Y-73749947D01*
X90575340Y-73713122D01*
X90480963Y-73694350D01*
X90384737Y-73694350D01*
X90290360Y-73713122D01*
X90201458Y-73749947D01*
X90121449Y-73803407D01*
X90053407Y-73871449D01*
X89999947Y-73951458D01*
X89963122Y-74040360D01*
X89944350Y-74134737D01*
X85893973Y-74134737D01*
X89426819Y-70601891D01*
X92861500Y-70601891D01*
X92861500Y-70698117D01*
X92880272Y-70792494D01*
X92917097Y-70881396D01*
X92970557Y-70961405D01*
X93038599Y-71029447D01*
X93118608Y-71082907D01*
X93207510Y-71119732D01*
X93301887Y-71138504D01*
X93398113Y-71138504D01*
X93492490Y-71119732D01*
X93581392Y-71082907D01*
X93661401Y-71029447D01*
X93729443Y-70961405D01*
X93782903Y-70881396D01*
X93819728Y-70792494D01*
X93838500Y-70698117D01*
X93838500Y-70601891D01*
X93823582Y-70526887D01*
X94211500Y-70526887D01*
X94211500Y-70623113D01*
X94230272Y-70717490D01*
X94267097Y-70806392D01*
X94320557Y-70886401D01*
X94388599Y-70954443D01*
X94468608Y-71007903D01*
X94557510Y-71044728D01*
X94651887Y-71063500D01*
X94748113Y-71063500D01*
X94842490Y-71044728D01*
X94931392Y-71007903D01*
X95011401Y-70954443D01*
X95079443Y-70886401D01*
X95132903Y-70806392D01*
X95169728Y-70717490D01*
X95188500Y-70623113D01*
X95188500Y-70526887D01*
X95169728Y-70432510D01*
X95132903Y-70343608D01*
X95079443Y-70263599D01*
X95011401Y-70195557D01*
X94931392Y-70142097D01*
X94842490Y-70105272D01*
X94748113Y-70086500D01*
X94651887Y-70086500D01*
X94557510Y-70105272D01*
X94468608Y-70142097D01*
X94388599Y-70195557D01*
X94320557Y-70263599D01*
X94267097Y-70343608D01*
X94230272Y-70432510D01*
X94211500Y-70526887D01*
X93823582Y-70526887D01*
X93819728Y-70507514D01*
X93782903Y-70418612D01*
X93729443Y-70338603D01*
X93661401Y-70270561D01*
X93581392Y-70217101D01*
X93492490Y-70180276D01*
X93398113Y-70161504D01*
X93301887Y-70161504D01*
X93207510Y-70180276D01*
X93118608Y-70217101D01*
X93038599Y-70270561D01*
X92970557Y-70338603D01*
X92917097Y-70418612D01*
X92880272Y-70507514D01*
X92861500Y-70601891D01*
X89426819Y-70601891D01*
X92576824Y-67451887D01*
X92861502Y-67451887D01*
X92861502Y-67548113D01*
X92880274Y-67642490D01*
X92917099Y-67731392D01*
X92970559Y-67811401D01*
X93038601Y-67879443D01*
X93118610Y-67932903D01*
X93207512Y-67969728D01*
X93301889Y-67988500D01*
X93398115Y-67988500D01*
X93492492Y-67969728D01*
X93581394Y-67932903D01*
X93661403Y-67879443D01*
X93729445Y-67811401D01*
X93782905Y-67731392D01*
X93819730Y-67642490D01*
X93838502Y-67548113D01*
X93838502Y-67451887D01*
X93819730Y-67357510D01*
X93782905Y-67268608D01*
X93729445Y-67188599D01*
X93661403Y-67120557D01*
X93581394Y-67067097D01*
X93492492Y-67030272D01*
X93398115Y-67011500D01*
X93301889Y-67011500D01*
X93207512Y-67030272D01*
X93118610Y-67067097D01*
X93038601Y-67120557D01*
X92970559Y-67188599D01*
X92917099Y-67268608D01*
X92880274Y-67357510D01*
X92861502Y-67451887D01*
X92576824Y-67451887D01*
X93165212Y-66863500D01*
X93248113Y-66863500D01*
X93306497Y-66851887D01*
X94186500Y-66851887D01*
X94186500Y-66948113D01*
X94205272Y-67042490D01*
X94242097Y-67131392D01*
X94295557Y-67211401D01*
X94363599Y-67279443D01*
X94443608Y-67332903D01*
X94532510Y-67369728D01*
X94626887Y-67388500D01*
X94723113Y-67388500D01*
X94817490Y-67369728D01*
X94906392Y-67332903D01*
X94986401Y-67279443D01*
X95054443Y-67211401D01*
X95107903Y-67131392D01*
X95144728Y-67042490D01*
X95163500Y-66948113D01*
X95163500Y-66851887D01*
X95144728Y-66757510D01*
X95107903Y-66668608D01*
X95054443Y-66588599D01*
X94986401Y-66520557D01*
X94906392Y-66467097D01*
X94817490Y-66430272D01*
X94723113Y-66411500D01*
X94626887Y-66411500D01*
X94532510Y-66430272D01*
X94443608Y-66467097D01*
X94363599Y-66520557D01*
X94295557Y-66588599D01*
X94242097Y-66668608D01*
X94205272Y-66757510D01*
X94186500Y-66851887D01*
X93306497Y-66851887D01*
X93342490Y-66844728D01*
X93431392Y-66807903D01*
X93511401Y-66754443D01*
X93579443Y-66686401D01*
X93632903Y-66606392D01*
X93669728Y-66517490D01*
X93688500Y-66423113D01*
X93688500Y-66326887D01*
X93669728Y-66232510D01*
X93632903Y-66143608D01*
X93618617Y-66122227D01*
X93679443Y-66061401D01*
X93732903Y-65981392D01*
X93769728Y-65892490D01*
X93788500Y-65798113D01*
X93788500Y-65701887D01*
X93769728Y-65607510D01*
X93732903Y-65518608D01*
X93679443Y-65438599D01*
X93611401Y-65370557D01*
X93531392Y-65317097D01*
X93442490Y-65280272D01*
X93348113Y-65261500D01*
X93251887Y-65261500D01*
X93157510Y-65280272D01*
X93068608Y-65317097D01*
X92988599Y-65370557D01*
X92947656Y-65411500D01*
X90787275Y-65411500D01*
X90835267Y-65379433D01*
X90903309Y-65311391D01*
X90956769Y-65231382D01*
X90993594Y-65142480D01*
X91012366Y-65048103D01*
X91012366Y-64990201D01*
X91164068Y-64838500D01*
X92922656Y-64838500D01*
X92963599Y-64879443D01*
X93043608Y-64932903D01*
X93132510Y-64969728D01*
X93226887Y-64988500D01*
X93323113Y-64988500D01*
X93417490Y-64969728D01*
X93506392Y-64932903D01*
X93586401Y-64879443D01*
X93654443Y-64811401D01*
X93707903Y-64731392D01*
X93744728Y-64642490D01*
X93763500Y-64548113D01*
X93763500Y-64451887D01*
X93744728Y-64357510D01*
X93707903Y-64268608D01*
X93654443Y-64188599D01*
X93587101Y-64121257D01*
X93619728Y-64042490D01*
X93638500Y-63948113D01*
X93638500Y-63851887D01*
X93619728Y-63757510D01*
X93582903Y-63668608D01*
X93529443Y-63588599D01*
X93461401Y-63520557D01*
X93381392Y-63467097D01*
X93292490Y-63430272D01*
X93198113Y-63411500D01*
X93140210Y-63411500D01*
X93126113Y-63397403D01*
X93115513Y-63384487D01*
X93063970Y-63342186D01*
X93005165Y-63310754D01*
X92941357Y-63291399D01*
X92891620Y-63286500D01*
X92891612Y-63286500D01*
X92875000Y-63284864D01*
X92858388Y-63286500D01*
X90655865Y-63286500D01*
X90663500Y-63248113D01*
X90663500Y-63151887D01*
X90644728Y-63057510D01*
X90616143Y-62988500D01*
X92830255Y-62988500D01*
X92845557Y-63011401D01*
X92913599Y-63079443D01*
X92993608Y-63132903D01*
X93082510Y-63169728D01*
X93176887Y-63188500D01*
X93273113Y-63188500D01*
X93367490Y-63169728D01*
X93456392Y-63132903D01*
X93536401Y-63079443D01*
X93604443Y-63011401D01*
X93657903Y-62931392D01*
X93694728Y-62842490D01*
X93713500Y-62748113D01*
X93713500Y-62651887D01*
X93694728Y-62557510D01*
X93657903Y-62468608D01*
X93604443Y-62388599D01*
X93536401Y-62320557D01*
X93524343Y-62312500D01*
X93536401Y-62304443D01*
X93604443Y-62236401D01*
X93657903Y-62156392D01*
X93694728Y-62067490D01*
X93713500Y-61973113D01*
X93713500Y-61876887D01*
X93694728Y-61782510D01*
X93657903Y-61693608D01*
X93604443Y-61613599D01*
X93536401Y-61545557D01*
X93456392Y-61492097D01*
X93367490Y-61455272D01*
X93273113Y-61436500D01*
X93176887Y-61436500D01*
X93082510Y-61455272D01*
X92993608Y-61492097D01*
X92913599Y-61545557D01*
X92845557Y-61613599D01*
X92792097Y-61693608D01*
X92755272Y-61782510D01*
X92736500Y-61876887D01*
X92736500Y-61973113D01*
X92755272Y-62067490D01*
X92792097Y-62156392D01*
X92845557Y-62236401D01*
X92913599Y-62304443D01*
X92924161Y-62311500D01*
X87069124Y-62311500D01*
X87052512Y-62309864D01*
X87035900Y-62311500D01*
X87035892Y-62311500D01*
X86991903Y-62315833D01*
X86986154Y-62316399D01*
X86942539Y-62329629D01*
X86922347Y-62335754D01*
X86863542Y-62367186D01*
X86811999Y-62409487D01*
X86801403Y-62422398D01*
X86545190Y-62678612D01*
X86411327Y-62544749D01*
X86409971Y-62542780D01*
X86387808Y-62521230D01*
X86377697Y-62511119D01*
X86375853Y-62509606D01*
X86374139Y-62507939D01*
X86362943Y-62499011D01*
X86339064Y-62479413D01*
X86336955Y-62478286D01*
X86287932Y-62439191D01*
X86272144Y-62424679D01*
X86247735Y-62409814D01*
X86223732Y-62394259D01*
X86203801Y-62386329D01*
X86130126Y-62350849D01*
X86111491Y-62340206D01*
X86084370Y-62331141D01*
X86057526Y-62321323D01*
X86036323Y-62318025D01*
X85956612Y-62299833D01*
X85936074Y-62293603D01*
X85907588Y-62290797D01*
X85879254Y-62287202D01*
X85857866Y-62288704D01*
X85776073Y-62288704D01*
X85754685Y-62287202D01*
X85726348Y-62290798D01*
X85697866Y-62293603D01*
X85677330Y-62299832D01*
X85597609Y-62318027D01*
X85576413Y-62321324D01*
X85549579Y-62331138D01*
X85522449Y-62340206D01*
X85503814Y-62350849D01*
X85430143Y-62386327D01*
X85410208Y-62394259D01*
X85386212Y-62409810D01*
X85361795Y-62424679D01*
X85346003Y-62439195D01*
X85296984Y-62478286D01*
X85294880Y-62479411D01*
X85271003Y-62499005D01*
X85259801Y-62507939D01*
X85258090Y-62509603D01*
X85256246Y-62511116D01*
X85246128Y-62521234D01*
X85223969Y-62542780D01*
X85223796Y-62543032D01*
X85223541Y-62543207D01*
X85201984Y-62565377D01*
X85191883Y-62575478D01*
X85190370Y-62577321D01*
X85188700Y-62579039D01*
X85179753Y-62590258D01*
X85160177Y-62614111D01*
X85159051Y-62616218D01*
X85119953Y-62665245D01*
X85105438Y-62681036D01*
X85090578Y-62705440D01*
X85075020Y-62729446D01*
X85067087Y-62749385D01*
X85031611Y-62823053D01*
X85020970Y-62841684D01*
X85011902Y-62868812D01*
X85002085Y-62895655D01*
X84998789Y-62916846D01*
X84980594Y-62996564D01*
X84974364Y-63017104D01*
X84971560Y-63045568D01*
X84967963Y-63073919D01*
X84969465Y-63095307D01*
X84969465Y-63177107D01*
X84967963Y-63198495D01*
X84969117Y-63207592D01*
X84960021Y-63206438D01*
X84938633Y-63207940D01*
X84856834Y-63207940D01*
X84835446Y-63206438D01*
X84807098Y-63210035D01*
X84778630Y-63212839D01*
X84758098Y-63219067D01*
X84678372Y-63237264D01*
X84657177Y-63240561D01*
X84630325Y-63250382D01*
X84603211Y-63259445D01*
X84584586Y-63270082D01*
X84510905Y-63305565D01*
X84490974Y-63313495D01*
X84466983Y-63329043D01*
X84442559Y-63343916D01*
X84426764Y-63358435D01*
X84377748Y-63397523D01*
X84375640Y-63398650D01*
X84351747Y-63418258D01*
X84340567Y-63427174D01*
X84338856Y-63428837D01*
X84337007Y-63430355D01*
X84326877Y-63440485D01*
X84304735Y-63462014D01*
X84304560Y-63462269D01*
X84304305Y-63462444D01*
X84282754Y-63484608D01*
X84272644Y-63494718D01*
X84271131Y-63496562D01*
X84269464Y-63498276D01*
X84260536Y-63509472D01*
X84240938Y-63533351D01*
X84239811Y-63535460D01*
X84200717Y-63584482D01*
X84186202Y-63600273D01*
X84171342Y-63624677D01*
X84155784Y-63648683D01*
X84147851Y-63668622D01*
X84112375Y-63742290D01*
X84101734Y-63760921D01*
X84092666Y-63788049D01*
X84082849Y-63814892D01*
X84079553Y-63836083D01*
X84061358Y-63915801D01*
X84055128Y-63936341D01*
X84052324Y-63964805D01*
X84048727Y-63993156D01*
X84050229Y-64014544D01*
X84050229Y-64096344D01*
X84048727Y-64117732D01*
X84049881Y-64126829D01*
X84040784Y-64125675D01*
X84019396Y-64127177D01*
X83937597Y-64127177D01*
X83916209Y-64125675D01*
X83887861Y-64129272D01*
X83859393Y-64132076D01*
X83838861Y-64138304D01*
X83759135Y-64156501D01*
X83737940Y-64159798D01*
X83711088Y-64169619D01*
X83683974Y-64178682D01*
X83665349Y-64189319D01*
X83591668Y-64224802D01*
X83571737Y-64232732D01*
X83547746Y-64248280D01*
X83523322Y-64263153D01*
X83507527Y-64277672D01*
X83458511Y-64316760D01*
X83456403Y-64317887D01*
X83432510Y-64337495D01*
X83421330Y-64346411D01*
X83419619Y-64348074D01*
X83417770Y-64349592D01*
X83407640Y-64359722D01*
X83385498Y-64381251D01*
X83385323Y-64381506D01*
X83385068Y-64381681D01*
X83363517Y-64403845D01*
X83353407Y-64413955D01*
X83351894Y-64415799D01*
X83350227Y-64417513D01*
X83341299Y-64428709D01*
X83321701Y-64452588D01*
X83320574Y-64454697D01*
X83281480Y-64503719D01*
X83266965Y-64519510D01*
X83252105Y-64543914D01*
X83236547Y-64567920D01*
X83228614Y-64587859D01*
X83193138Y-64661527D01*
X83182497Y-64680158D01*
X83173429Y-64707286D01*
X83163612Y-64734129D01*
X83160316Y-64755320D01*
X83142121Y-64835038D01*
X83135891Y-64855578D01*
X83133087Y-64884042D01*
X83129490Y-64912393D01*
X83130992Y-64933781D01*
X83130992Y-65015581D01*
X83129490Y-65036969D01*
X83133087Y-65065313D01*
X83135891Y-65093786D01*
X83142120Y-65114320D01*
X83160316Y-65194042D01*
X83163612Y-65215235D01*
X83173431Y-65242083D01*
X83182497Y-65269205D01*
X83193135Y-65287833D01*
X83228614Y-65361505D01*
X83236547Y-65381444D01*
X83252105Y-65405450D01*
X83266965Y-65429854D01*
X83281480Y-65445645D01*
X83320579Y-65494674D01*
X83321706Y-65496782D01*
X83341296Y-65520652D01*
X83350227Y-65531851D01*
X83351894Y-65533566D01*
X83353412Y-65535415D01*
X83363535Y-65545538D01*
X83385068Y-65567683D01*
X83387040Y-65569041D01*
X83520899Y-65702900D01*
X82272399Y-66951403D01*
X82259487Y-66962000D01*
X82217186Y-67013543D01*
X82193685Y-67057510D01*
X82185754Y-67072348D01*
X82171131Y-67120557D01*
X82166399Y-67136156D01*
X82161500Y-67185893D01*
X82161500Y-67185900D01*
X82159864Y-67202512D01*
X82161500Y-67219124D01*
X82161501Y-70287300D01*
X78262302Y-74186500D01*
X75391611Y-74186500D01*
X75374999Y-74184864D01*
X75358387Y-74186500D01*
X75358380Y-74186500D01*
X75314936Y-74190779D01*
X75308642Y-74191399D01*
X75290284Y-74196968D01*
X75244835Y-74210754D01*
X75186030Y-74242186D01*
X75140637Y-74279440D01*
X75156627Y-74240837D01*
X75175399Y-74146460D01*
X75175399Y-74088558D01*
X75227606Y-74036351D01*
X75240512Y-74025759D01*
X75251401Y-74012492D01*
X75263037Y-73998313D01*
X75282814Y-73974216D01*
X75314246Y-73915411D01*
X75319628Y-73897669D01*
X75333601Y-73851604D01*
X75334367Y-73843829D01*
X75338500Y-73801866D01*
X75338500Y-73801858D01*
X75340136Y-73785246D01*
X75338500Y-73768634D01*
X75338500Y-71752344D01*
X75379443Y-71711401D01*
X75432903Y-71631392D01*
X75469728Y-71542490D01*
X75477804Y-71501887D01*
X77211500Y-71501887D01*
X77211500Y-71598113D01*
X77230272Y-71692490D01*
X77267097Y-71781392D01*
X77320557Y-71861401D01*
X77388599Y-71929443D01*
X77468608Y-71982903D01*
X77557510Y-72019728D01*
X77651887Y-72038500D01*
X77748113Y-72038500D01*
X77842490Y-72019728D01*
X77931392Y-71982903D01*
X78011401Y-71929443D01*
X78079443Y-71861401D01*
X78132903Y-71781392D01*
X78169728Y-71692490D01*
X78188500Y-71598113D01*
X78188500Y-71501887D01*
X78169728Y-71407510D01*
X78132903Y-71318608D01*
X78079443Y-71238599D01*
X78011401Y-71170557D01*
X77931392Y-71117097D01*
X77842490Y-71080272D01*
X77748113Y-71061500D01*
X77651887Y-71061500D01*
X77557510Y-71080272D01*
X77468608Y-71117097D01*
X77388599Y-71170557D01*
X77320557Y-71238599D01*
X77267097Y-71318608D01*
X77230272Y-71407510D01*
X77211500Y-71501887D01*
X75477804Y-71501887D01*
X75488500Y-71448113D01*
X75488500Y-71351887D01*
X75469728Y-71257510D01*
X75432903Y-71168608D01*
X75379443Y-71088599D01*
X75311401Y-71020557D01*
X75231392Y-70967097D01*
X75142490Y-70930272D01*
X75048113Y-70911500D01*
X74951887Y-70911500D01*
X74857510Y-70930272D01*
X74768608Y-70967097D01*
X74688599Y-71020557D01*
X74620557Y-71088599D01*
X74567097Y-71168608D01*
X74530272Y-71257510D01*
X74511500Y-71351887D01*
X74511500Y-71448113D01*
X74530272Y-71542490D01*
X74567097Y-71631392D01*
X74620557Y-71711401D01*
X74661501Y-71752345D01*
X74661500Y-73609847D01*
X74638786Y-73609847D01*
X74544409Y-73628619D01*
X74455507Y-73665444D01*
X74444576Y-73672748D01*
X74457242Y-73609068D01*
X74457242Y-73512842D01*
X74438470Y-73418465D01*
X74401645Y-73329563D01*
X74348185Y-73249554D01*
X74280143Y-73181512D01*
X74200134Y-73128052D01*
X74111232Y-73091227D01*
X74016855Y-73072455D01*
X73920629Y-73072455D01*
X73826252Y-73091227D01*
X73737350Y-73128052D01*
X73657341Y-73181512D01*
X73589299Y-73249554D01*
X73535839Y-73329563D01*
X73499014Y-73418465D01*
X73480242Y-73512842D01*
X73480242Y-73609068D01*
X73499014Y-73703445D01*
X73535839Y-73792347D01*
X73555954Y-73822451D01*
X72355660Y-73822451D01*
X72339048Y-73820815D01*
X72322436Y-73822451D01*
X72322429Y-73822451D01*
X72284188Y-73826218D01*
X72272690Y-73827350D01*
X72248006Y-73834838D01*
X72208884Y-73846705D01*
X72150079Y-73878137D01*
X72098536Y-73920438D01*
X72087940Y-73933349D01*
X71734790Y-74286500D01*
X71676887Y-74286500D01*
X71582510Y-74305272D01*
X71493608Y-74342097D01*
X71413599Y-74395557D01*
X71345557Y-74463599D01*
X71292097Y-74543608D01*
X71255272Y-74632510D01*
X71236500Y-74726887D01*
X50388500Y-74726887D01*
X50388500Y-72171887D01*
X72941500Y-72171887D01*
X72941500Y-72268113D01*
X72960272Y-72362490D01*
X72997097Y-72451392D01*
X73050557Y-72531401D01*
X73118599Y-72599443D01*
X73198608Y-72652903D01*
X73287510Y-72689728D01*
X73381887Y-72708500D01*
X73478113Y-72708500D01*
X73572490Y-72689728D01*
X73661392Y-72652903D01*
X73741401Y-72599443D01*
X73809443Y-72531401D01*
X73862903Y-72451392D01*
X73899728Y-72362490D01*
X73918500Y-72268113D01*
X73918500Y-72171887D01*
X73899728Y-72077510D01*
X73862903Y-71988608D01*
X73809443Y-71908599D01*
X73741401Y-71840557D01*
X73661392Y-71787097D01*
X73572490Y-71750272D01*
X73478113Y-71731500D01*
X73381887Y-71731500D01*
X73287510Y-71750272D01*
X73198608Y-71787097D01*
X73118599Y-71840557D01*
X73050557Y-71908599D01*
X72997097Y-71988608D01*
X72960272Y-72077510D01*
X72941500Y-72171887D01*
X50388500Y-72171887D01*
X50388500Y-59985837D01*
X51711500Y-59985837D01*
X51711501Y-70014164D01*
X51712701Y-70026352D01*
X51712693Y-70027543D01*
X51713086Y-70031552D01*
X51715110Y-70050814D01*
X51715676Y-70056556D01*
X51715734Y-70056748D01*
X51717166Y-70070371D01*
X51722421Y-70095971D01*
X51727323Y-70121669D01*
X51728487Y-70125521D01*
X51728488Y-70125527D01*
X51728490Y-70125533D01*
X51740030Y-70162813D01*
X51750161Y-70186914D01*
X51759959Y-70211164D01*
X51761842Y-70214706D01*
X51761848Y-70214719D01*
X51761855Y-70214730D01*
X51780415Y-70249056D01*
X51795050Y-70270754D01*
X51809354Y-70292612D01*
X51811896Y-70295729D01*
X51811900Y-70295735D01*
X51811905Y-70295740D01*
X51836781Y-70325810D01*
X51855303Y-70344203D01*
X51873628Y-70362916D01*
X51876732Y-70365483D01*
X51906980Y-70390153D01*
X51928763Y-70404626D01*
X51950341Y-70419400D01*
X51953884Y-70421316D01*
X51988349Y-70439640D01*
X52012516Y-70449601D01*
X52036551Y-70459902D01*
X52040396Y-70461092D01*
X52040406Y-70461096D01*
X52040415Y-70461098D01*
X52077766Y-70472375D01*
X52103375Y-70477446D01*
X52128993Y-70482891D01*
X52132999Y-70483312D01*
X52169324Y-70486874D01*
X52185836Y-70488500D01*
X60014164Y-70488500D01*
X60026361Y-70487299D01*
X60027543Y-70487307D01*
X60031552Y-70486914D01*
X60050663Y-70484905D01*
X60056556Y-70484325D01*
X60056753Y-70484265D01*
X60070371Y-70482834D01*
X60095986Y-70477576D01*
X60121669Y-70472677D01*
X60125521Y-70471513D01*
X60125527Y-70471512D01*
X60125533Y-70471510D01*
X60162813Y-70459970D01*
X60186953Y-70449823D01*
X60211164Y-70440041D01*
X60214706Y-70438158D01*
X60214719Y-70438152D01*
X60214730Y-70438145D01*
X60249056Y-70419585D01*
X60270754Y-70404950D01*
X60292612Y-70390646D01*
X60295729Y-70388104D01*
X60295735Y-70388100D01*
X60295740Y-70388095D01*
X60325810Y-70363219D01*
X60344205Y-70344695D01*
X60362916Y-70326372D01*
X60365483Y-70323268D01*
X60365487Y-70323264D01*
X60390153Y-70293020D01*
X60404626Y-70271237D01*
X60419400Y-70249659D01*
X60421316Y-70246116D01*
X60439640Y-70211651D01*
X60449601Y-70187484D01*
X60459902Y-70163449D01*
X60461093Y-70159601D01*
X60461094Y-70159598D01*
X60461096Y-70159594D01*
X60461098Y-70159585D01*
X60472375Y-70122234D01*
X60477446Y-70096625D01*
X60482891Y-70071007D01*
X60483312Y-70067001D01*
X60486903Y-70030381D01*
X60488500Y-70014164D01*
X60488500Y-69801887D01*
X71111500Y-69801887D01*
X71111500Y-69898113D01*
X71130272Y-69992490D01*
X71167097Y-70081392D01*
X71220557Y-70161401D01*
X71288599Y-70229443D01*
X71368608Y-70282903D01*
X71457510Y-70319728D01*
X71551887Y-70338500D01*
X71552746Y-70338500D01*
X71552746Y-70374766D01*
X71571518Y-70469143D01*
X71608343Y-70558045D01*
X71661803Y-70638054D01*
X71729845Y-70706096D01*
X71809854Y-70759556D01*
X71898756Y-70796381D01*
X71993133Y-70815153D01*
X72089359Y-70815153D01*
X72183736Y-70796381D01*
X72272638Y-70759556D01*
X72352647Y-70706096D01*
X72420689Y-70638054D01*
X72474149Y-70558045D01*
X72510974Y-70469143D01*
X72523356Y-70406889D01*
X72911500Y-70406889D01*
X72911500Y-70503115D01*
X72930272Y-70597492D01*
X72967097Y-70686394D01*
X73020557Y-70766403D01*
X73088599Y-70834445D01*
X73168608Y-70887905D01*
X73257510Y-70924730D01*
X73351887Y-70943502D01*
X73448113Y-70943502D01*
X73542490Y-70924730D01*
X73631392Y-70887905D01*
X73711401Y-70834445D01*
X73779443Y-70766403D01*
X73832903Y-70686394D01*
X73869728Y-70597492D01*
X73888500Y-70503115D01*
X73888500Y-70406889D01*
X75311500Y-70406889D01*
X75311500Y-70503115D01*
X75330272Y-70597492D01*
X75367097Y-70686394D01*
X75420557Y-70766403D01*
X75488599Y-70834445D01*
X75568608Y-70887905D01*
X75657510Y-70924730D01*
X75751887Y-70943502D01*
X75848113Y-70943502D01*
X75942490Y-70924730D01*
X76031392Y-70887905D01*
X76111401Y-70834445D01*
X76179443Y-70766403D01*
X76200000Y-70735637D01*
X76220557Y-70766403D01*
X76288599Y-70834445D01*
X76368608Y-70887905D01*
X76457510Y-70924730D01*
X76551887Y-70943502D01*
X76648113Y-70943502D01*
X76742490Y-70924730D01*
X76831392Y-70887905D01*
X76911401Y-70834445D01*
X76979443Y-70766403D01*
X77032903Y-70686394D01*
X77069728Y-70597492D01*
X77088500Y-70503115D01*
X77088500Y-70406889D01*
X77069728Y-70312512D01*
X77032903Y-70223610D01*
X76979443Y-70143601D01*
X76911401Y-70075559D01*
X76831392Y-70022099D01*
X76742490Y-69985274D01*
X76648113Y-69966502D01*
X76551887Y-69966502D01*
X76457510Y-69985274D01*
X76368608Y-70022099D01*
X76288599Y-70075559D01*
X76220557Y-70143601D01*
X76200000Y-70174367D01*
X76179443Y-70143601D01*
X76111401Y-70075559D01*
X76031392Y-70022099D01*
X75942490Y-69985274D01*
X75848113Y-69966502D01*
X75751887Y-69966502D01*
X75657510Y-69985274D01*
X75568608Y-70022099D01*
X75488599Y-70075559D01*
X75420557Y-70143601D01*
X75367097Y-70223610D01*
X75330272Y-70312512D01*
X75311500Y-70406889D01*
X73888500Y-70406889D01*
X73869728Y-70312512D01*
X73832903Y-70223610D01*
X73779443Y-70143601D01*
X73711401Y-70075559D01*
X73631392Y-70022099D01*
X73542490Y-69985274D01*
X73448113Y-69966502D01*
X73351887Y-69966502D01*
X73257510Y-69985274D01*
X73168608Y-70022099D01*
X73088599Y-70075559D01*
X73020557Y-70143601D01*
X72967097Y-70223610D01*
X72930272Y-70312512D01*
X72911500Y-70406889D01*
X72523356Y-70406889D01*
X72529746Y-70374766D01*
X72529746Y-70278540D01*
X72510974Y-70184163D01*
X72474149Y-70095261D01*
X72420689Y-70015252D01*
X72352647Y-69947210D01*
X72272638Y-69893750D01*
X72183736Y-69856925D01*
X72089359Y-69838153D01*
X72088500Y-69838153D01*
X72088500Y-69801887D01*
X72069728Y-69707510D01*
X72032903Y-69618608D01*
X71979443Y-69538599D01*
X71911401Y-69470557D01*
X71831392Y-69417097D01*
X71742490Y-69380272D01*
X71648113Y-69361500D01*
X71551887Y-69361500D01*
X71457510Y-69380272D01*
X71368608Y-69417097D01*
X71288599Y-69470557D01*
X71220557Y-69538599D01*
X71167097Y-69618608D01*
X71130272Y-69707510D01*
X71111500Y-69801887D01*
X60488500Y-69801887D01*
X60488500Y-61376887D01*
X89961500Y-61376887D01*
X89961500Y-61473113D01*
X89980272Y-61567490D01*
X90017097Y-61656392D01*
X90070557Y-61736401D01*
X90138599Y-61804443D01*
X90218608Y-61857903D01*
X90307510Y-61894728D01*
X90401887Y-61913500D01*
X90498113Y-61913500D01*
X90592490Y-61894728D01*
X90681392Y-61857903D01*
X90761401Y-61804443D01*
X90829443Y-61736401D01*
X90882903Y-61656392D01*
X90919728Y-61567490D01*
X90938500Y-61473113D01*
X90938500Y-61376887D01*
X90919728Y-61282510D01*
X90882903Y-61193608D01*
X90829443Y-61113599D01*
X90761401Y-61045557D01*
X90681392Y-60992097D01*
X90592490Y-60955272D01*
X90498113Y-60936500D01*
X90401887Y-60936500D01*
X90307510Y-60955272D01*
X90218608Y-60992097D01*
X90138599Y-61045557D01*
X90070557Y-61113599D01*
X90017097Y-61193608D01*
X89980272Y-61282510D01*
X89961500Y-61376887D01*
X60488500Y-61376887D01*
X60488500Y-60485837D01*
X95711500Y-60485837D01*
X95711501Y-69714164D01*
X95712700Y-69726342D01*
X95712692Y-69727543D01*
X95713085Y-69731551D01*
X95715125Y-69750965D01*
X95715676Y-69756556D01*
X95715733Y-69756742D01*
X95717165Y-69770372D01*
X95722427Y-69796007D01*
X95727322Y-69821668D01*
X95728484Y-69825518D01*
X95728486Y-69825527D01*
X95728490Y-69825535D01*
X95740028Y-69862812D01*
X95750160Y-69886917D01*
X95759961Y-69911172D01*
X95761843Y-69914712D01*
X95761846Y-69914718D01*
X95761852Y-69914728D01*
X95780418Y-69949063D01*
X95795027Y-69970721D01*
X95809350Y-69992610D01*
X95811896Y-69995731D01*
X95811899Y-69995735D01*
X95811904Y-69995742D01*
X95811910Y-69995748D01*
X95836776Y-70025807D01*
X95855322Y-70044225D01*
X95873631Y-70062921D01*
X95876723Y-70065478D01*
X95876728Y-70065483D01*
X95876733Y-70065486D01*
X95876735Y-70065488D01*
X95906983Y-70090158D01*
X95928761Y-70104627D01*
X95950338Y-70119401D01*
X95953882Y-70121317D01*
X95988347Y-70139642D01*
X96012532Y-70149610D01*
X96036552Y-70159905D01*
X96040397Y-70161095D01*
X96040404Y-70161098D01*
X96040412Y-70161100D01*
X96077767Y-70172378D01*
X96103391Y-70177452D01*
X96128995Y-70182894D01*
X96132999Y-70183315D01*
X96133001Y-70183315D01*
X96171848Y-70187124D01*
X96171856Y-70187124D01*
X96185838Y-70188501D01*
X98814164Y-70188499D01*
X98826352Y-70187299D01*
X98827543Y-70187307D01*
X98831552Y-70186914D01*
X98850814Y-70184890D01*
X98856556Y-70184324D01*
X98856748Y-70184266D01*
X98870371Y-70182834D01*
X98895981Y-70177577D01*
X98921667Y-70172677D01*
X98925523Y-70171513D01*
X98925525Y-70171512D01*
X98925527Y-70171512D01*
X98925529Y-70171511D01*
X98962811Y-70159971D01*
X98986938Y-70149829D01*
X99011165Y-70140041D01*
X99014709Y-70138156D01*
X99014717Y-70138153D01*
X99014723Y-70138149D01*
X99049057Y-70119585D01*
X99070725Y-70104970D01*
X99092609Y-70090650D01*
X99095730Y-70088104D01*
X99095736Y-70088100D01*
X99095741Y-70088095D01*
X99125806Y-70063224D01*
X99144203Y-70044699D01*
X99162917Y-70026373D01*
X99165484Y-70023269D01*
X99190154Y-69993021D01*
X99204626Y-69971240D01*
X99219398Y-69949666D01*
X99221314Y-69946123D01*
X99239639Y-69911658D01*
X99249606Y-69887477D01*
X99259904Y-69863450D01*
X99261092Y-69859612D01*
X99261096Y-69859602D01*
X99261098Y-69859592D01*
X99272377Y-69822235D01*
X99277457Y-69796582D01*
X99282893Y-69771007D01*
X99283314Y-69767001D01*
X99287123Y-69728154D01*
X99287123Y-69728146D01*
X99288500Y-69714164D01*
X99288500Y-60485836D01*
X99287300Y-60473648D01*
X99287308Y-60472458D01*
X99286915Y-60468449D01*
X99284891Y-60449194D01*
X99284325Y-60443444D01*
X99284267Y-60443252D01*
X99282835Y-60429629D01*
X99277572Y-60403988D01*
X99272678Y-60378331D01*
X99271517Y-60374486D01*
X99271514Y-60374473D01*
X99271509Y-60374461D01*
X99259971Y-60337187D01*
X99249839Y-60313083D01*
X99240044Y-60288839D01*
X99238157Y-60285290D01*
X99238153Y-60285280D01*
X99238148Y-60285272D01*
X99219588Y-60250946D01*
X99204966Y-60229267D01*
X99190644Y-60207382D01*
X99188107Y-60204273D01*
X99188103Y-60204266D01*
X99188098Y-60204261D01*
X99163217Y-60174186D01*
X99144690Y-60155788D01*
X99126369Y-60137080D01*
X99123265Y-60134512D01*
X99093016Y-60109843D01*
X99071259Y-60095388D01*
X99049665Y-60080602D01*
X99046122Y-60078686D01*
X99011658Y-60060361D01*
X98987463Y-60050388D01*
X98963449Y-60040096D01*
X98959611Y-60038908D01*
X98959601Y-60038904D01*
X98959591Y-60038902D01*
X98922234Y-60027623D01*
X98896610Y-60022549D01*
X98871006Y-60017107D01*
X98867002Y-60016686D01*
X98867000Y-60016686D01*
X98828153Y-60012877D01*
X98828146Y-60012877D01*
X98814164Y-60011500D01*
X96185836Y-60011500D01*
X96173639Y-60012701D01*
X96172457Y-60012693D01*
X96168448Y-60013086D01*
X96149337Y-60015095D01*
X96143444Y-60015675D01*
X96143247Y-60015735D01*
X96129629Y-60017166D01*
X96103993Y-60022428D01*
X96078333Y-60027323D01*
X96074477Y-60028487D01*
X96074475Y-60028488D01*
X96074473Y-60028488D01*
X96074471Y-60028489D01*
X96037189Y-60040029D01*
X96013111Y-60050150D01*
X95988835Y-60059958D01*
X95985295Y-60061842D01*
X95985282Y-60061847D01*
X95985272Y-60061854D01*
X95950944Y-60080415D01*
X95929267Y-60095036D01*
X95907383Y-60109357D01*
X95904274Y-60111893D01*
X95904264Y-60111900D01*
X95904257Y-60111908D01*
X95874187Y-60136784D01*
X95855794Y-60155306D01*
X95837084Y-60173628D01*
X95834517Y-60176732D01*
X95834512Y-60176737D01*
X95834508Y-60176743D01*
X95809847Y-60206980D01*
X95795385Y-60228747D01*
X95780603Y-60250335D01*
X95778687Y-60253878D01*
X95760362Y-60288342D01*
X95750389Y-60312537D01*
X95740097Y-60336551D01*
X95738909Y-60340389D01*
X95738905Y-60340399D01*
X95738903Y-60340409D01*
X95727624Y-60377766D01*
X95722550Y-60403390D01*
X95717108Y-60428994D01*
X95716687Y-60433000D01*
X95712997Y-60470634D01*
X95711500Y-60485837D01*
X60488500Y-60485837D01*
X60488500Y-59985836D01*
X60487299Y-59973639D01*
X60487307Y-59972457D01*
X60486914Y-59968448D01*
X60484905Y-59949337D01*
X60484325Y-59943444D01*
X60484265Y-59943247D01*
X60482834Y-59929629D01*
X60477574Y-59904007D01*
X60472677Y-59878332D01*
X60471512Y-59874475D01*
X60471512Y-59874473D01*
X60471510Y-59874467D01*
X60459970Y-59837188D01*
X60449854Y-59813122D01*
X60440042Y-59788836D01*
X60438158Y-59785294D01*
X60438152Y-59785281D01*
X60438145Y-59785270D01*
X60419585Y-59750945D01*
X60404967Y-59729272D01*
X60390646Y-59707388D01*
X60388108Y-59704277D01*
X60388100Y-59704265D01*
X60388091Y-59704256D01*
X60363219Y-59674190D01*
X60344678Y-59655778D01*
X60326372Y-59637084D01*
X60323274Y-59634522D01*
X60323267Y-59634515D01*
X60323259Y-59634510D01*
X60293020Y-59609847D01*
X60271255Y-59595386D01*
X60249660Y-59580600D01*
X60246116Y-59578684D01*
X60211652Y-59560360D01*
X60187470Y-59550393D01*
X60163449Y-59540098D01*
X60159601Y-59538907D01*
X60159602Y-59538907D01*
X60159594Y-59538904D01*
X60159585Y-59538902D01*
X60122234Y-59527625D01*
X60096617Y-59522552D01*
X60071006Y-59517109D01*
X60067002Y-59516688D01*
X60067000Y-59516688D01*
X60030691Y-59513128D01*
X60014164Y-59511500D01*
X52185836Y-59511500D01*
X52173639Y-59512701D01*
X52172457Y-59512693D01*
X52168448Y-59513086D01*
X52149337Y-59515095D01*
X52143444Y-59515675D01*
X52143247Y-59515735D01*
X52129629Y-59517166D01*
X52103993Y-59522428D01*
X52078333Y-59527323D01*
X52074477Y-59528487D01*
X52074475Y-59528488D01*
X52074473Y-59528488D01*
X52074471Y-59528489D01*
X52037189Y-59540029D01*
X52013111Y-59550150D01*
X51988835Y-59559958D01*
X51985295Y-59561842D01*
X51985282Y-59561847D01*
X51985272Y-59561854D01*
X51950944Y-59580415D01*
X51929267Y-59595036D01*
X51907383Y-59609357D01*
X51904274Y-59611893D01*
X51904264Y-59611900D01*
X51904257Y-59611908D01*
X51874187Y-59636784D01*
X51855794Y-59655306D01*
X51837084Y-59673628D01*
X51834517Y-59676732D01*
X51834512Y-59676737D01*
X51834508Y-59676743D01*
X51809847Y-59706980D01*
X51795385Y-59728747D01*
X51780603Y-59750335D01*
X51778687Y-59753878D01*
X51760362Y-59788342D01*
X51750389Y-59812537D01*
X51740097Y-59836551D01*
X51738909Y-59840389D01*
X51738905Y-59840399D01*
X51738903Y-59840409D01*
X51727624Y-59877766D01*
X51722550Y-59903390D01*
X51717108Y-59928994D01*
X51716687Y-59933000D01*
X51712920Y-59971416D01*
X51711500Y-59985837D01*
X50388500Y-59985837D01*
X50388500Y-57497677D01*
X52978206Y-57497677D01*
X53354890Y-57836787D01*
X53939930Y-58103224D01*
X54565708Y-58250406D01*
X55208175Y-58272677D01*
X55842642Y-58169180D01*
X56444727Y-57943894D01*
X56645110Y-57836787D01*
X57021794Y-57497677D01*
X92978206Y-57497677D01*
X93354890Y-57836787D01*
X93939930Y-58103224D01*
X94565708Y-58250406D01*
X95208175Y-58272677D01*
X95842642Y-58169180D01*
X96444727Y-57943894D01*
X96645110Y-57836787D01*
X97021794Y-57497677D01*
X96705022Y-57180905D01*
X96705022Y-57180904D01*
X96590990Y-57066873D01*
X96110546Y-56586429D01*
X96001076Y-56476958D01*
X96001075Y-56476958D01*
X95000000Y-55475883D01*
X93998925Y-56476958D01*
X93998924Y-56476958D01*
X93889454Y-56586429D01*
X93409010Y-57066873D01*
X93294978Y-57180904D01*
X93294978Y-57180905D01*
X92978206Y-57497677D01*
X57021794Y-57497677D01*
X56705022Y-57180905D01*
X56705022Y-57180904D01*
X56590990Y-57066873D01*
X56110546Y-56586429D01*
X56001076Y-56476958D01*
X56001075Y-56476958D01*
X55000000Y-55475883D01*
X53998925Y-56476958D01*
X53998924Y-56476958D01*
X53889454Y-56586429D01*
X53409010Y-57066873D01*
X53294978Y-57180904D01*
X53294978Y-57180905D01*
X52978206Y-57497677D01*
X50388500Y-57497677D01*
X50388500Y-55208175D01*
X51727323Y-55208175D01*
X51830820Y-55842642D01*
X52056106Y-56444727D01*
X52163213Y-56645110D01*
X52502323Y-57021794D01*
X52819095Y-56705022D01*
X52819096Y-56705022D01*
X52933127Y-56590990D01*
X53409010Y-56115107D01*
X53523042Y-56001076D01*
X53523042Y-56001075D01*
X54524117Y-55000000D01*
X55475883Y-55000000D01*
X56476958Y-56001075D01*
X56476958Y-56001076D01*
X56590990Y-56115107D01*
X57066873Y-56590990D01*
X57180904Y-56705022D01*
X57180905Y-56705022D01*
X57497677Y-57021794D01*
X57836787Y-56645110D01*
X58103224Y-56060070D01*
X58250406Y-55434292D01*
X58258244Y-55208175D01*
X91727323Y-55208175D01*
X91830820Y-55842642D01*
X92056106Y-56444727D01*
X92163213Y-56645110D01*
X92502323Y-57021794D01*
X92819095Y-56705022D01*
X92819096Y-56705022D01*
X92933127Y-56590990D01*
X93409010Y-56115107D01*
X93523042Y-56001076D01*
X93523042Y-56001075D01*
X94524117Y-55000000D01*
X95475883Y-55000000D01*
X96476958Y-56001075D01*
X96476958Y-56001076D01*
X96590990Y-56115107D01*
X97066873Y-56590990D01*
X97180904Y-56705022D01*
X97180905Y-56705022D01*
X97497677Y-57021794D01*
X97836787Y-56645110D01*
X98103224Y-56060070D01*
X98250406Y-55434292D01*
X98272677Y-54791825D01*
X98169180Y-54157358D01*
X97943894Y-53555273D01*
X97836787Y-53354890D01*
X97497677Y-52978206D01*
X97180905Y-53294978D01*
X97180904Y-53294978D01*
X97123614Y-53352269D01*
X96590990Y-53884893D01*
X96476958Y-53998924D01*
X96476958Y-53998925D01*
X95475883Y-55000000D01*
X94524117Y-55000000D01*
X93523042Y-53998925D01*
X93523042Y-53998924D01*
X93409010Y-53884893D01*
X92876386Y-53352269D01*
X92819096Y-53294978D01*
X92819095Y-53294978D01*
X92502323Y-52978206D01*
X92163213Y-53354890D01*
X91896776Y-53939930D01*
X91749594Y-54565708D01*
X91727323Y-55208175D01*
X58258244Y-55208175D01*
X58272677Y-54791825D01*
X58169180Y-54157358D01*
X57943894Y-53555273D01*
X57836787Y-53354890D01*
X57497677Y-52978206D01*
X57180905Y-53294978D01*
X57180904Y-53294978D01*
X57123614Y-53352269D01*
X56590990Y-53884893D01*
X56476958Y-53998924D01*
X56476958Y-53998925D01*
X55475883Y-55000000D01*
X54524117Y-55000000D01*
X53523042Y-53998925D01*
X53523042Y-53998924D01*
X53409010Y-53884893D01*
X52876386Y-53352269D01*
X52819096Y-53294978D01*
X52819095Y-53294978D01*
X52502323Y-52978206D01*
X52163213Y-53354890D01*
X51896776Y-53939930D01*
X51749594Y-54565708D01*
X51727323Y-55208175D01*
X50388500Y-55208175D01*
X50388500Y-55012850D01*
X50462511Y-54183577D01*
X50678799Y-53392959D01*
X51031676Y-52653138D01*
X51140047Y-52502323D01*
X52978206Y-52502323D01*
X53294978Y-52819095D01*
X53294978Y-52819096D01*
X53409010Y-52933127D01*
X53884893Y-53409010D01*
X53998924Y-53523042D01*
X53998925Y-53523042D01*
X55000000Y-54524117D01*
X56001075Y-53523042D01*
X56001076Y-53523042D01*
X56115107Y-53409010D01*
X56590990Y-52933127D01*
X56705022Y-52819096D01*
X56705022Y-52819095D01*
X57021794Y-52502323D01*
X92978206Y-52502323D01*
X93294978Y-52819095D01*
X93294978Y-52819096D01*
X93409010Y-52933127D01*
X93884893Y-53409010D01*
X93998924Y-53523042D01*
X93998925Y-53523042D01*
X95000000Y-54524117D01*
X96001075Y-53523042D01*
X96001076Y-53523042D01*
X96115107Y-53409010D01*
X96590990Y-52933127D01*
X96705022Y-52819096D01*
X96705022Y-52819095D01*
X97021794Y-52502323D01*
X96645110Y-52163213D01*
X96060070Y-51896776D01*
X95434292Y-51749594D01*
X94791825Y-51727323D01*
X94157358Y-51830820D01*
X93555273Y-52056106D01*
X93354890Y-52163213D01*
X92978206Y-52502323D01*
X57021794Y-52502323D01*
X56645110Y-52163213D01*
X56060070Y-51896776D01*
X55434292Y-51749594D01*
X54791825Y-51727323D01*
X54157358Y-51830820D01*
X53555273Y-52056106D01*
X53354890Y-52163213D01*
X52978206Y-52502323D01*
X51140047Y-52502323D01*
X51509984Y-51987502D01*
X52098614Y-51417081D01*
X52778944Y-50959917D01*
X53529485Y-50630453D01*
X54328728Y-50438572D01*
X55010577Y-50388500D01*
X94987150Y-50388500D01*
X95816423Y-50462511D01*
G36*
X82848234Y-71083904D02*
G01*
X82853883Y-71104598D01*
X82866653Y-71130192D01*
X82878691Y-71156112D01*
X82891342Y-71173423D01*
X82934855Y-71242673D01*
X82944968Y-71261592D01*
X82963102Y-71283688D01*
X82980618Y-71306295D01*
X82996815Y-71320366D01*
X83054633Y-71378184D01*
X83068704Y-71394381D01*
X83091319Y-71411903D01*
X83113408Y-71430031D01*
X83132322Y-71440141D01*
X83201571Y-71483654D01*
X83218886Y-71496308D01*
X83244813Y-71508349D01*
X83270401Y-71521116D01*
X83291095Y-71526765D01*
X83368287Y-71553777D01*
X83387984Y-71562261D01*
X83415935Y-71568230D01*
X83443726Y-71574984D01*
X83465160Y-71575887D01*
X83527463Y-71582907D01*
X83529751Y-71583601D01*
X83560516Y-71586631D01*
X83574722Y-71588232D01*
X83577107Y-71588265D01*
X83579488Y-71588500D01*
X83593827Y-71588500D01*
X83624695Y-71588933D01*
X83627044Y-71588500D01*
X83711500Y-71588500D01*
X83711501Y-71737300D01*
X82057690Y-73391112D01*
X81821196Y-73154618D01*
X81819840Y-73152649D01*
X81797676Y-73131098D01*
X81787566Y-73120988D01*
X81785722Y-73119475D01*
X81784008Y-73117808D01*
X81772812Y-73108880D01*
X81748933Y-73089282D01*
X81746824Y-73088155D01*
X81697802Y-73049061D01*
X81682011Y-73034546D01*
X81657607Y-73019686D01*
X81633601Y-73004128D01*
X81613662Y-72996195D01*
X81539990Y-72960716D01*
X81521362Y-72950078D01*
X81494240Y-72941012D01*
X81467392Y-72931193D01*
X81446199Y-72927897D01*
X81378482Y-72912441D01*
X81378770Y-72910590D01*
X81382208Y-72895525D01*
X81388438Y-72874987D01*
X81391243Y-72846511D01*
X81394839Y-72818170D01*
X81393337Y-72796781D01*
X81393337Y-72781291D01*
X81394839Y-72759902D01*
X81391242Y-72731557D01*
X81388438Y-72703086D01*
X81382209Y-72682551D01*
X81378769Y-72667481D01*
X81375471Y-72646275D01*
X81365649Y-72619421D01*
X81356588Y-72592311D01*
X81345947Y-72573680D01*
X81339956Y-72561240D01*
X81774849Y-72126350D01*
X82008590Y-72360092D01*
X82009942Y-72362055D01*
X82032079Y-72383581D01*
X82042220Y-72393722D01*
X82044065Y-72395236D01*
X82045773Y-72396897D01*
X82056947Y-72405809D01*
X82080853Y-72425428D01*
X82082960Y-72426554D01*
X82102025Y-72441759D01*
X82117825Y-72456281D01*
X82142234Y-72471144D01*
X82166222Y-72486690D01*
X82186163Y-72494625D01*
X82225322Y-72513482D01*
X82243940Y-72524115D01*
X82271059Y-72533181D01*
X82297925Y-72543005D01*
X82319106Y-72546299D01*
X82361491Y-72555974D01*
X82382014Y-72562199D01*
X82410447Y-72565000D01*
X82438818Y-72568600D01*
X82460224Y-72567097D01*
X82503690Y-72567097D01*
X82525084Y-72568599D01*
X82553441Y-72565001D01*
X82581907Y-72562197D01*
X82602438Y-72555969D01*
X82644800Y-72546300D01*
X82665996Y-72543004D01*
X82692850Y-72533183D01*
X82719963Y-72524120D01*
X82738587Y-72513484D01*
X82777755Y-72494622D01*
X82797686Y-72486691D01*
X82821669Y-72471148D01*
X82846094Y-72456274D01*
X82861893Y-72441752D01*
X82895863Y-72414661D01*
X82913535Y-72402491D01*
X82933475Y-72381984D01*
X82953967Y-72362058D01*
X82966132Y-72344393D01*
X82993224Y-72310420D01*
X83007744Y-72294624D01*
X83022623Y-72270191D01*
X83038164Y-72246210D01*
X83046094Y-72226281D01*
X83064951Y-72187123D01*
X83075588Y-72168499D01*
X83084653Y-72141381D01*
X83094475Y-72114527D01*
X83097771Y-72093332D01*
X83107446Y-72050949D01*
X83113671Y-72030425D01*
X83116472Y-72001983D01*
X83120072Y-71973619D01*
X83118569Y-71952218D01*
X83118569Y-71908748D01*
X83120071Y-71887358D01*
X83116471Y-71858984D01*
X83113669Y-71830534D01*
X83107443Y-71810011D01*
X83097774Y-71767647D01*
X83094476Y-71746441D01*
X83084650Y-71719576D01*
X83075593Y-71692478D01*
X83064954Y-71673848D01*
X83046094Y-71634686D01*
X83038166Y-71614760D01*
X83022623Y-71590776D01*
X83007745Y-71566344D01*
X82993229Y-71550551D01*
X82978028Y-71531490D01*
X82976900Y-71529380D01*
X82957294Y-71505489D01*
X82948377Y-71494308D01*
X82946713Y-71492596D01*
X82945195Y-71490747D01*
X82935054Y-71480606D01*
X82913536Y-71458476D01*
X82911570Y-71457122D01*
X82677823Y-71223375D01*
X82840214Y-71060985D01*
X82848234Y-71083904D01*
G37*
X82848234Y-71083904D02*
X82853883Y-71104598D01*
X82866653Y-71130192D01*
X82878691Y-71156112D01*
X82891342Y-71173423D01*
X82934855Y-71242673D01*
X82944968Y-71261592D01*
X82963102Y-71283688D01*
X82980618Y-71306295D01*
X82996815Y-71320366D01*
X83054633Y-71378184D01*
X83068704Y-71394381D01*
X83091319Y-71411903D01*
X83113408Y-71430031D01*
X83132322Y-71440141D01*
X83201571Y-71483654D01*
X83218886Y-71496308D01*
X83244813Y-71508349D01*
X83270401Y-71521116D01*
X83291095Y-71526765D01*
X83368287Y-71553777D01*
X83387984Y-71562261D01*
X83415935Y-71568230D01*
X83443726Y-71574984D01*
X83465160Y-71575887D01*
X83527463Y-71582907D01*
X83529751Y-71583601D01*
X83560516Y-71586631D01*
X83574722Y-71588232D01*
X83577107Y-71588265D01*
X83579488Y-71588500D01*
X83593827Y-71588500D01*
X83624695Y-71588933D01*
X83627044Y-71588500D01*
X83711500Y-71588500D01*
X83711501Y-71737300D01*
X82057690Y-73391112D01*
X81821196Y-73154618D01*
X81819840Y-73152649D01*
X81797676Y-73131098D01*
X81787566Y-73120988D01*
X81785722Y-73119475D01*
X81784008Y-73117808D01*
X81772812Y-73108880D01*
X81748933Y-73089282D01*
X81746824Y-73088155D01*
X81697802Y-73049061D01*
X81682011Y-73034546D01*
X81657607Y-73019686D01*
X81633601Y-73004128D01*
X81613662Y-72996195D01*
X81539990Y-72960716D01*
X81521362Y-72950078D01*
X81494240Y-72941012D01*
X81467392Y-72931193D01*
X81446199Y-72927897D01*
X81378482Y-72912441D01*
X81378770Y-72910590D01*
X81382208Y-72895525D01*
X81388438Y-72874987D01*
X81391243Y-72846511D01*
X81394839Y-72818170D01*
X81393337Y-72796781D01*
X81393337Y-72781291D01*
X81394839Y-72759902D01*
X81391242Y-72731557D01*
X81388438Y-72703086D01*
X81382209Y-72682551D01*
X81378769Y-72667481D01*
X81375471Y-72646275D01*
X81365649Y-72619421D01*
X81356588Y-72592311D01*
X81345947Y-72573680D01*
X81339956Y-72561240D01*
X81774849Y-72126350D01*
X82008590Y-72360092D01*
X82009942Y-72362055D01*
X82032079Y-72383581D01*
X82042220Y-72393722D01*
X82044065Y-72395236D01*
X82045773Y-72396897D01*
X82056947Y-72405809D01*
X82080853Y-72425428D01*
X82082960Y-72426554D01*
X82102025Y-72441759D01*
X82117825Y-72456281D01*
X82142234Y-72471144D01*
X82166222Y-72486690D01*
X82186163Y-72494625D01*
X82225322Y-72513482D01*
X82243940Y-72524115D01*
X82271059Y-72533181D01*
X82297925Y-72543005D01*
X82319106Y-72546299D01*
X82361491Y-72555974D01*
X82382014Y-72562199D01*
X82410447Y-72565000D01*
X82438818Y-72568600D01*
X82460224Y-72567097D01*
X82503690Y-72567097D01*
X82525084Y-72568599D01*
X82553441Y-72565001D01*
X82581907Y-72562197D01*
X82602438Y-72555969D01*
X82644800Y-72546300D01*
X82665996Y-72543004D01*
X82692850Y-72533183D01*
X82719963Y-72524120D01*
X82738587Y-72513484D01*
X82777755Y-72494622D01*
X82797686Y-72486691D01*
X82821669Y-72471148D01*
X82846094Y-72456274D01*
X82861893Y-72441752D01*
X82895863Y-72414661D01*
X82913535Y-72402491D01*
X82933475Y-72381984D01*
X82953967Y-72362058D01*
X82966132Y-72344393D01*
X82993224Y-72310420D01*
X83007744Y-72294624D01*
X83022623Y-72270191D01*
X83038164Y-72246210D01*
X83046094Y-72226281D01*
X83064951Y-72187123D01*
X83075588Y-72168499D01*
X83084653Y-72141381D01*
X83094475Y-72114527D01*
X83097771Y-72093332D01*
X83107446Y-72050949D01*
X83113671Y-72030425D01*
X83116472Y-72001983D01*
X83120072Y-71973619D01*
X83118569Y-71952218D01*
X83118569Y-71908748D01*
X83120071Y-71887358D01*
X83116471Y-71858984D01*
X83113669Y-71830534D01*
X83107443Y-71810011D01*
X83097774Y-71767647D01*
X83094476Y-71746441D01*
X83084650Y-71719576D01*
X83075593Y-71692478D01*
X83064954Y-71673848D01*
X83046094Y-71634686D01*
X83038166Y-71614760D01*
X83022623Y-71590776D01*
X83007745Y-71566344D01*
X82993229Y-71550551D01*
X82978028Y-71531490D01*
X82976900Y-71529380D01*
X82957294Y-71505489D01*
X82948377Y-71494308D01*
X82946713Y-71492596D01*
X82945195Y-71490747D01*
X82935054Y-71480606D01*
X82913536Y-71458476D01*
X82911570Y-71457122D01*
X82677823Y-71223375D01*
X82840214Y-71060985D01*
X82848234Y-71083904D01*
G36*
X84734509Y-65997273D02*
G01*
X84735869Y-65999248D01*
X84758011Y-66020778D01*
X84768125Y-66030893D01*
X84769980Y-66032415D01*
X84771701Y-66034089D01*
X84782890Y-66043012D01*
X84806756Y-66062601D01*
X84808873Y-66063733D01*
X84857902Y-66102832D01*
X84873697Y-66117351D01*
X84898108Y-66132216D01*
X84922108Y-66147769D01*
X84942051Y-66155704D01*
X85015716Y-66191179D01*
X85034350Y-66201821D01*
X85061471Y-66210886D01*
X85088316Y-66220704D01*
X85109513Y-66224001D01*
X85189246Y-66242199D01*
X85209764Y-66248423D01*
X85238208Y-66251225D01*
X85266587Y-66254825D01*
X85287984Y-66253322D01*
X85295479Y-66253323D01*
X83822399Y-67726403D01*
X83809487Y-67737000D01*
X83767186Y-67788543D01*
X83756657Y-67808242D01*
X83735754Y-67847348D01*
X83721335Y-67894885D01*
X83716399Y-67911156D01*
X83711500Y-67960893D01*
X83711500Y-67960900D01*
X83709864Y-67977512D01*
X83711500Y-67994124D01*
X83711501Y-68611500D01*
X83627041Y-68611500D01*
X83624698Y-68611068D01*
X83593858Y-68611500D01*
X83579488Y-68611500D01*
X83577106Y-68611735D01*
X83574725Y-68611768D01*
X83560525Y-68613368D01*
X83529751Y-68616399D01*
X83527465Y-68617093D01*
X83465157Y-68624112D01*
X83443726Y-68625015D01*
X83415944Y-68631767D01*
X83387988Y-68637737D01*
X83368290Y-68646221D01*
X83291095Y-68673234D01*
X83270401Y-68678883D01*
X83244813Y-68691650D01*
X83218886Y-68703691D01*
X83201571Y-68716345D01*
X83188500Y-68724559D01*
X83188500Y-67487698D01*
X84378940Y-66297256D01*
X84380906Y-66295902D01*
X84402422Y-66273774D01*
X84412568Y-66263628D01*
X84414086Y-66261778D01*
X84415747Y-66260070D01*
X84424654Y-66248901D01*
X84444273Y-66224995D01*
X84445400Y-66222886D01*
X84484491Y-66173868D01*
X84499007Y-66158076D01*
X84513876Y-66133659D01*
X84529427Y-66109663D01*
X84537359Y-66089728D01*
X84572837Y-66016057D01*
X84583480Y-65997422D01*
X84592548Y-65970292D01*
X84602362Y-65943458D01*
X84605659Y-65922262D01*
X84615663Y-65878427D01*
X84734509Y-65997273D01*
G37*
X84734509Y-65997273D02*
X84735869Y-65999248D01*
X84758011Y-66020778D01*
X84768125Y-66030893D01*
X84769980Y-66032415D01*
X84771701Y-66034089D01*
X84782890Y-66043012D01*
X84806756Y-66062601D01*
X84808873Y-66063733D01*
X84857902Y-66102832D01*
X84873697Y-66117351D01*
X84898108Y-66132216D01*
X84922108Y-66147769D01*
X84942051Y-66155704D01*
X85015716Y-66191179D01*
X85034350Y-66201821D01*
X85061471Y-66210886D01*
X85088316Y-66220704D01*
X85109513Y-66224001D01*
X85189246Y-66242199D01*
X85209764Y-66248423D01*
X85238208Y-66251225D01*
X85266587Y-66254825D01*
X85287984Y-66253322D01*
X85295479Y-66253323D01*
X83822399Y-67726403D01*
X83809487Y-67737000D01*
X83767186Y-67788543D01*
X83756657Y-67808242D01*
X83735754Y-67847348D01*
X83721335Y-67894885D01*
X83716399Y-67911156D01*
X83711500Y-67960893D01*
X83711500Y-67960900D01*
X83709864Y-67977512D01*
X83711500Y-67994124D01*
X83711501Y-68611500D01*
X83627041Y-68611500D01*
X83624698Y-68611068D01*
X83593858Y-68611500D01*
X83579488Y-68611500D01*
X83577106Y-68611735D01*
X83574725Y-68611768D01*
X83560525Y-68613368D01*
X83529751Y-68616399D01*
X83527465Y-68617093D01*
X83465157Y-68624112D01*
X83443726Y-68625015D01*
X83415944Y-68631767D01*
X83387988Y-68637737D01*
X83368290Y-68646221D01*
X83291095Y-68673234D01*
X83270401Y-68678883D01*
X83244813Y-68691650D01*
X83218886Y-68703691D01*
X83201571Y-68716345D01*
X83188500Y-68724559D01*
X83188500Y-67487698D01*
X84378940Y-66297256D01*
X84380906Y-66295902D01*
X84402422Y-66273774D01*
X84412568Y-66263628D01*
X84414086Y-66261778D01*
X84415747Y-66260070D01*
X84424654Y-66248901D01*
X84444273Y-66224995D01*
X84445400Y-66222886D01*
X84484491Y-66173868D01*
X84499007Y-66158076D01*
X84513876Y-66133659D01*
X84529427Y-66109663D01*
X84537359Y-66089728D01*
X84572837Y-66016057D01*
X84583480Y-65997422D01*
X84592548Y-65970292D01*
X84602362Y-65943458D01*
X84605659Y-65922262D01*
X84615663Y-65878427D01*
X84734509Y-65997273D01*
G36*
X88213542Y-63342186D02*
G01*
X88192337Y-63359589D01*
X88174908Y-63373892D01*
X88174904Y-63373896D01*
X88161999Y-63384487D01*
X88151408Y-63397392D01*
X87095611Y-64453190D01*
X87095611Y-64445693D01*
X87097113Y-64424299D01*
X87093512Y-64395915D01*
X87090710Y-64367473D01*
X87084487Y-64346960D01*
X87066290Y-64267231D01*
X87062991Y-64246021D01*
X87053164Y-64219152D01*
X87044109Y-64192062D01*
X87033471Y-64173435D01*
X86997984Y-64099749D01*
X86990058Y-64079827D01*
X86974499Y-64055817D01*
X86959632Y-64031405D01*
X86945125Y-64015623D01*
X86906023Y-63966588D01*
X86904889Y-63964468D01*
X86885290Y-63940590D01*
X86876381Y-63929418D01*
X86874708Y-63927697D01*
X86873181Y-63925837D01*
X86863049Y-63915706D01*
X86841541Y-63893586D01*
X86839566Y-63892225D01*
X86720717Y-63773376D01*
X86764550Y-63763371D01*
X86785743Y-63760075D01*
X86812591Y-63750256D01*
X86839713Y-63741190D01*
X86858341Y-63730552D01*
X86932013Y-63695073D01*
X86951952Y-63687140D01*
X86975958Y-63671582D01*
X87000362Y-63656722D01*
X87016153Y-63642207D01*
X87065177Y-63603112D01*
X87067283Y-63601986D01*
X87091177Y-63582378D01*
X87102359Y-63573460D01*
X87104067Y-63571799D01*
X87105917Y-63570281D01*
X87116065Y-63560133D01*
X87138191Y-63538619D01*
X87139544Y-63536654D01*
X87337699Y-63338500D01*
X88220438Y-63338500D01*
X88213542Y-63342186D01*
G37*
X88213542Y-63342186D02*
X88192337Y-63359589D01*
X88174908Y-63373892D01*
X88174904Y-63373896D01*
X88161999Y-63384487D01*
X88151408Y-63397392D01*
X87095611Y-64453190D01*
X87095611Y-64445693D01*
X87097113Y-64424299D01*
X87093512Y-64395915D01*
X87090710Y-64367473D01*
X87084487Y-64346960D01*
X87066290Y-64267231D01*
X87062991Y-64246021D01*
X87053164Y-64219152D01*
X87044109Y-64192062D01*
X87033471Y-64173435D01*
X86997984Y-64099749D01*
X86990058Y-64079827D01*
X86974499Y-64055817D01*
X86959632Y-64031405D01*
X86945125Y-64015623D01*
X86906023Y-63966588D01*
X86904889Y-63964468D01*
X86885290Y-63940590D01*
X86876381Y-63929418D01*
X86874708Y-63927697D01*
X86873181Y-63925837D01*
X86863049Y-63915706D01*
X86841541Y-63893586D01*
X86839566Y-63892225D01*
X86720717Y-63773376D01*
X86764550Y-63763371D01*
X86785743Y-63760075D01*
X86812591Y-63750256D01*
X86839713Y-63741190D01*
X86858341Y-63730552D01*
X86932013Y-63695073D01*
X86951952Y-63687140D01*
X86975958Y-63671582D01*
X87000362Y-63656722D01*
X87016153Y-63642207D01*
X87065177Y-63603112D01*
X87067283Y-63601986D01*
X87091177Y-63582378D01*
X87102359Y-63573460D01*
X87104067Y-63571799D01*
X87105917Y-63570281D01*
X87116065Y-63560133D01*
X87138191Y-63538619D01*
X87139544Y-63536654D01*
X87337699Y-63338500D01*
X88220438Y-63338500D01*
X88213542Y-63342186D01*
M02*
