M48
; DRILL file {KiCad 5.1.5+dfsg1-2build2} date Tue 18 May 2021 02:25:18 PM CEST
; FORMAT={-:-/ absolute / inch / decimal}
; #@! TF.CreationDate,2021-05-18T14:25:18+02:00
; #@! TF.GenerationSoftware,Kicad,Pcbnew,5.1.5+dfsg1-2build2
; #@! TF.FileFunction,Plated,1,4,PTH
FMAT,2
INCH
T1C0.0079
T2C0.0197
T3C0.1181
%
G90
G05
T1
X2.7165Y-2.9134
X2.7362Y-2.8307
X2.748Y-3.0787
X2.7559Y-2.5591
X2.7756Y-2.8583
X2.7835Y-2.6772
X2.7913Y-2.9488
X2.811Y-2.8819
X2.813Y-3.0236
X2.815Y-3.0787
X2.8189Y-2.75
X2.8228Y-2.3189
X2.8228Y-2.3858
X2.8238Y-2.9439
X2.8268Y-2.4646
X2.8346Y-2.815
X2.8363Y-2.7688
X2.8465Y-2.5591
X2.8583Y-2.7264
X2.8681Y-3.0994
X2.8898Y-2.7264
X2.8898Y-2.7738
X2.8909Y-2.8433
X2.891Y-3.0142
X2.891Y-2.9906
X2.9016Y-2.5591
X2.9065Y-3.0748
X2.9094Y-2.8228
X2.9122Y-2.8961
X2.9166Y-2.9433
X2.9166Y-3.0142
X2.9166Y-2.9197
X2.9213Y-2.7264
X2.9213Y-3.2441
X2.9252Y-2.6772
X2.9252Y-3.1732
X2.9321Y-3.0994
X2.9341Y-2.9927
X2.9404Y-2.9173
X2.9528Y-2.811
X2.9633Y-3.0094
X2.9646Y-2.3189
X2.9646Y-2.3858
X2.9665Y-3.1358
X2.9685Y-2.4646
X2.9783Y-2.9144
X2.9843Y-2.5591
X2.9843Y-2.7274
X2.9843Y-2.7738
X2.9852Y-3.0768
X2.9889Y-2.9906
X2.9889Y-3.0142
X2.9907Y-2.8701
X3.0145Y-2.967
X3.0157Y-2.7274
X3.0157Y-2.7738
X3.0394Y-2.5591
X3.0423Y-2.8941
X3.0443Y-3.0669
X3.0453Y-3.1713
X3.0591Y-2.7333
X3.0591Y-2.8169
X3.0669Y-2.6772
X3.0709Y-3.0423
X3.0866Y-3.1713
X3.0876Y-3.064
X3.0906Y-3.0268
X3.1063Y-2.3189
X3.1063Y-2.3858
X3.1102Y-2.4646
X3.1142Y-2.8031
X3.1142Y-2.878
X3.126Y-2.5591
X3.1378Y-3.0591
X3.1772Y-2.7362
X3.189Y-2.6024
X3.189Y-2.9921
X3.2283Y-2.6496
X3.2283Y-2.7598
X3.2283Y-2.8661
X3.2402Y-3.126
X3.248Y-3.2441
X3.252Y-2.937
X3.2874Y-2.6929
X3.3346Y-2.4528
X3.3346Y-2.6142
X3.3465Y-2.7008
X3.3465Y-2.8504
X3.3701Y-3.0
X3.4094Y-2.4606
X3.4094Y-2.7323
X3.4094Y-2.8268
X3.4331Y-2.5157
X3.4646Y-2.9055
X3.4724Y-3.0787
X3.4803Y-2.6929
X3.4803Y-2.7717
X3.4803Y-2.8346
X3.4961Y-2.5394
X3.5118Y-2.5974
X3.5315Y-2.4055
X3.5354Y-2.8858
X3.5443Y-2.5226
X3.5502Y-2.4882
X3.5551Y-2.6181
X3.5603Y-2.9206
X3.561Y-2.4183
X3.5639Y-2.5591
X3.565Y-2.6457
X3.5827Y-2.8425
X3.6063Y-2.9409
X3.6299Y-2.4862
X3.6299Y-2.7165
X3.6319Y-2.565
X3.6319Y-2.6142
X3.6378Y-2.4134
X3.6516Y-2.6575
X3.6673Y-2.5157
X3.6693Y-2.6132
X3.6703Y-2.438
X3.6703Y-2.4685
X3.6722Y-2.5394
X3.6732Y-2.5886
X3.6752Y-2.7815
X3.6752Y-2.6575
X3.7008Y-2.7638
X3.7274Y-2.6339
X3.7283Y-2.4567
X3.7283Y-2.5276
X3.7283Y-2.5984
X3.7283Y-2.7785
X3.752Y-2.3425
T2
X2.0768Y-2.1654
X2.1027Y-2.1027
X2.1027Y-2.228
X2.1654Y-2.0768
X2.1654Y-2.2539
X2.228Y-2.1027
X2.228Y-2.228
X2.2539Y-2.1654
X2.0768Y-3.7402
X2.1027Y-3.6775
X2.1027Y-3.8028
X2.1654Y-3.6516
X2.1654Y-3.8287
X2.228Y-3.6775
X2.228Y-3.8028
X2.2539Y-3.7402
X3.6516Y-3.7402
X3.6775Y-3.6775
X3.6775Y-3.8028
X3.7402Y-3.6516
X3.7402Y-3.8287
X3.8028Y-3.6775
X3.8028Y-3.8028
X3.8287Y-3.7402
X3.6516Y-2.1654
X3.6775Y-2.1027
X3.6775Y-2.228
X3.7402Y-2.0768
X3.7402Y-2.2539
X3.8028Y-2.1027
X3.8028Y-2.228
X3.8287Y-2.1654
T3
X2.1654Y-2.1654
X2.1654Y-3.7402
X3.7402Y-3.7402
X3.7402Y-2.1654
T0
M30
