G04 #@! TF.GenerationSoftware,KiCad,Pcbnew,6.0.0-d3dd2cf0fa~116~ubuntu20.04.1*
G04 #@! TF.CreationDate,2022-01-19T00:50:30+01:00*
G04 #@! TF.ProjectId,sensor,73656e73-6f72-42e6-9b69-6361645f7063,rev?*
G04 #@! TF.SameCoordinates,Original*
G04 #@! TF.FileFunction,Copper,L3,Inr*
G04 #@! TF.FilePolarity,Positive*
%FSLAX46Y46*%
G04 Gerber Fmt 4.6, Leading zero omitted, Abs format (unit mm)*
G04 Created by KiCad (PCBNEW 6.0.0-d3dd2cf0fa~116~ubuntu20.04.1) date 2022-01-19 00:50:30*
%MOMM*%
%LPD*%
G01*
G04 APERTURE LIST*
G04 #@! TA.AperFunction,ComponentPad*
%ADD10C,0.800000*%
G04 #@! TD*
G04 #@! TA.AperFunction,ComponentPad*
%ADD11C,6.000000*%
G04 #@! TD*
G04 #@! TA.AperFunction,ViaPad*
%ADD12C,0.450000*%
G04 #@! TD*
G04 #@! TA.AperFunction,Conductor*
%ADD13C,0.150000*%
G04 #@! TD*
G04 APERTURE END LIST*
D10*
X55000000Y-52750000D03*
X57250000Y-55000000D03*
X52750000Y-55000000D03*
X53409010Y-56590990D03*
X53409010Y-53409010D03*
D11*
X55000000Y-55000000D03*
D10*
X56590990Y-56590990D03*
X55000000Y-57250000D03*
X56590990Y-53409010D03*
X56590990Y-96590990D03*
X53409010Y-93409010D03*
X52750000Y-95000000D03*
D11*
X55000000Y-95000000D03*
D10*
X55000000Y-97250000D03*
X55000000Y-92750000D03*
X57250000Y-95000000D03*
X53409010Y-96590990D03*
X56590990Y-93409010D03*
X92750000Y-55000000D03*
X96590990Y-53409010D03*
X93409010Y-56590990D03*
X95000000Y-57250000D03*
X97250000Y-55000000D03*
X95000000Y-52750000D03*
X93409010Y-53409010D03*
D11*
X95000000Y-55000000D03*
D10*
X96590990Y-56590990D03*
X93409010Y-93409010D03*
X93409010Y-96590990D03*
X96590990Y-96590990D03*
X95000000Y-97250000D03*
X96590990Y-93409010D03*
D11*
X95000000Y-95000000D03*
D10*
X97250000Y-95000000D03*
X95000000Y-92750000D03*
X92750000Y-95000000D03*
D12*
X69000000Y-74000000D03*
X70000000Y-65000000D03*
X77700000Y-69425000D03*
X70700000Y-68000000D03*
X70900000Y-74900000D03*
X95300000Y-59500000D03*
X92250000Y-66400000D03*
X78502419Y-76881342D03*
X81125000Y-75450000D03*
X91025000Y-72200000D03*
X85600000Y-76200000D03*
X69800000Y-78200000D03*
X94700000Y-64200000D03*
X70500000Y-72600000D03*
X94700000Y-66000000D03*
X79700000Y-77700000D03*
X79100000Y-71200000D03*
X85950000Y-73325000D03*
X81700000Y-73175000D03*
X73400000Y-69250000D03*
X75249727Y-75954350D03*
X92750000Y-67500000D03*
X77350000Y-80550000D03*
X94850000Y-71340000D03*
X78900000Y-58900000D03*
X82500000Y-82400000D03*
X91600000Y-74700000D03*
X84700000Y-62300000D03*
X82050000Y-79875000D03*
X88200000Y-78200000D03*
X94700000Y-62400000D03*
X84800000Y-76925000D03*
X74200000Y-69250000D03*
X88400000Y-70400000D03*
X72000000Y-71500000D03*
X76600000Y-69275000D03*
X81000000Y-66100000D03*
X72300000Y-65000000D03*
X77900000Y-68000000D03*
X92250000Y-65150000D03*
X79400000Y-65000000D03*
X89875000Y-71750000D03*
X88400000Y-72000000D03*
X69500000Y-71900000D03*
X90425000Y-62350000D03*
X80875000Y-78675000D03*
X71700000Y-58900000D03*
X71400000Y-73200000D03*
X88325000Y-66250000D03*
X90920000Y-70440000D03*
X86725000Y-62625000D03*
X84750000Y-64450000D03*
X80100000Y-72350000D03*
X75800000Y-65000000D03*
X80700000Y-69500000D03*
X79000000Y-62600000D03*
X88000000Y-73800000D03*
X79250000Y-73150000D03*
X71500000Y-78200000D03*
X71700000Y-60600000D03*
X87875000Y-64700000D03*
X78400000Y-80550000D03*
X75650000Y-74025000D03*
X71800000Y-62600000D03*
X88400000Y-68400000D03*
X75300000Y-58900000D03*
X72220000Y-81220000D03*
X83100000Y-66125000D03*
X92400000Y-61300000D03*
X83750000Y-79475000D03*
X77274997Y-73571264D03*
X89900000Y-73300000D03*
X73900000Y-71700000D03*
X77200000Y-65000000D03*
X75300000Y-60600000D03*
X74150000Y-80400000D03*
X78900000Y-60600000D03*
X92200000Y-69000000D03*
X71450000Y-76800000D03*
X73700000Y-65000000D03*
X86700000Y-70025000D03*
X85950000Y-66650000D03*
X75925000Y-72975000D03*
X74300000Y-68000000D03*
X75400000Y-62600000D03*
X82200000Y-69250000D03*
X89700000Y-61100000D03*
X75800000Y-69275000D03*
X89720000Y-67860000D03*
X75350000Y-79650000D03*
X92200000Y-63150000D03*
X72600000Y-69250000D03*
X90300000Y-66500000D03*
X83975000Y-70675000D03*
X94000000Y-70200000D03*
X76425000Y-80625000D03*
X77700000Y-71550000D03*
X78000000Y-77275000D03*
X75825000Y-78150000D03*
X78425000Y-77825000D03*
X71600000Y-69850000D03*
X73430000Y-72220000D03*
X73949734Y-73634361D03*
X73400000Y-70455002D03*
X75800000Y-70455002D03*
X77325000Y-77900000D03*
X73825000Y-78100000D03*
X72041246Y-70326653D03*
X76600000Y-70455002D03*
X76549725Y-75374351D03*
X89200000Y-65975000D03*
X93300000Y-65750000D03*
X74100266Y-74794359D03*
X72850000Y-78725000D03*
X93600010Y-67424596D03*
X93350000Y-70650004D03*
X93225000Y-61925000D03*
X73450275Y-75954351D03*
X75899725Y-76534353D03*
X93275000Y-64500000D03*
X93250000Y-63925000D03*
X74599726Y-75954351D03*
X89825000Y-63050000D03*
X93175000Y-62700000D03*
X90350000Y-64500000D03*
X75899726Y-75954350D03*
X90550000Y-67200000D03*
X90432850Y-74182850D03*
X90450000Y-61425000D03*
X73480410Y-76608631D03*
X74599726Y-76534351D03*
X90375000Y-63600000D03*
X74910000Y-73970000D03*
X75000000Y-71400000D03*
X94700000Y-70575000D03*
X74100274Y-74214350D03*
X94675000Y-66900000D03*
X71725000Y-74775000D03*
X74475000Y-78725000D03*
X93200000Y-66375000D03*
D13*
X76549999Y-78374999D02*
X77625001Y-78374999D01*
X76549999Y-78374999D02*
X76550000Y-78375000D01*
X75825000Y-78150000D02*
X76049999Y-78374999D01*
X76550000Y-80500000D02*
X76425000Y-80625000D01*
X78000000Y-78000000D02*
X78000000Y-77275000D01*
X76049999Y-78374999D02*
X76549999Y-78374999D01*
X76550000Y-78375000D02*
X76550000Y-80500000D01*
X77625001Y-78374999D02*
X78000000Y-78000000D01*
X72850000Y-78725000D02*
X72100000Y-77975000D01*
X72100000Y-77975000D02*
X72100000Y-76476425D01*
X72100000Y-76476425D02*
X73782068Y-74794359D01*
X73782068Y-74794359D02*
X74100266Y-74794359D01*
X72930000Y-77340000D02*
X72930000Y-76474626D01*
X81525000Y-66897488D02*
X81525000Y-69972488D01*
X78600000Y-75947488D02*
X76872488Y-77675000D01*
X73265000Y-77675000D02*
X72930000Y-77340000D01*
X76872488Y-77675000D02*
X73265000Y-77675000D01*
X93225000Y-61925000D02*
X86497488Y-61925000D01*
X72930000Y-76474626D02*
X73225276Y-76179350D01*
X86497488Y-61925000D02*
X81525000Y-66897488D01*
X81525000Y-69972488D02*
X78600000Y-72897488D01*
X73225276Y-76179350D02*
X73450275Y-75954351D01*
X78600000Y-72897488D02*
X78600000Y-75947488D01*
X84850707Y-63034788D02*
X84785213Y-63049737D01*
X83804012Y-63883316D02*
X83743486Y-63854169D01*
X90225001Y-61649999D02*
X86277513Y-61649999D01*
X90450000Y-61425000D02*
X90225001Y-61649999D01*
X84963756Y-62963756D02*
X84911233Y-63005641D01*
X84157111Y-63440541D02*
X84186259Y-63501067D01*
X82972584Y-63702250D02*
X82957635Y-63767744D01*
X82195089Y-64861994D02*
X82418170Y-65085075D01*
X81175000Y-69827512D02*
X78250000Y-72752512D01*
X83869506Y-63898265D02*
X83804012Y-63883316D01*
X84718034Y-63049737D02*
X84652540Y-63034788D01*
X83892145Y-62740674D02*
X83850259Y-62793196D01*
X82440810Y-64351748D02*
X82373632Y-64351748D01*
X82957635Y-63834923D02*
X82972584Y-63900417D01*
X84203361Y-62669641D02*
X84137866Y-62654692D01*
X83266698Y-64236547D02*
X83308583Y-64289069D01*
X84911233Y-63005641D02*
X84850707Y-63034788D01*
X83308583Y-64289069D02*
X83337731Y-64349595D01*
X82124056Y-64550778D02*
X82109107Y-64616272D01*
X73270000Y-77220000D02*
X73270000Y-76819041D01*
X83415359Y-63547317D02*
X83354833Y-63518169D01*
X82247611Y-64395845D02*
X82195089Y-64437730D01*
X82504152Y-65263618D02*
X82504152Y-65330796D01*
X83821112Y-63051889D02*
X83850259Y-63112415D01*
X86277513Y-61649999D02*
X84963756Y-62963756D01*
X82308137Y-64366697D02*
X82247611Y-64395845D01*
X83043617Y-63589202D02*
X83001731Y-63641724D01*
X83850259Y-62793196D02*
X83821112Y-62853722D01*
X84785213Y-63049737D02*
X84718034Y-63049737D01*
X83266700Y-64660812D02*
X83214177Y-64702697D01*
X82109107Y-64616272D02*
X82109107Y-64683451D01*
X84062705Y-63854169D02*
X84002179Y-63883316D01*
X83354833Y-63518169D02*
X83289338Y-63503220D01*
X83690963Y-63812284D02*
X83467881Y-63589202D01*
X82312107Y-65615405D02*
X81175000Y-66752512D01*
X83020978Y-64746793D02*
X82955484Y-64731844D01*
X84005193Y-62669641D02*
X83944667Y-62698789D01*
X83088157Y-64746793D02*
X83020978Y-64746793D01*
X84002179Y-63883316D02*
X83936685Y-63898265D01*
X82109107Y-64683451D02*
X82124056Y-64748945D01*
X83222160Y-63503220D02*
X83156665Y-63518169D01*
X82460055Y-65137597D02*
X82489203Y-65198123D01*
X84201208Y-63566562D02*
X84201208Y-63633740D01*
X82418170Y-65085075D02*
X82460055Y-65137597D01*
X83467881Y-63589202D02*
X83415359Y-63547317D01*
X84201208Y-63633740D02*
X84186259Y-63699235D01*
X83743486Y-63854169D02*
X83690963Y-63812284D01*
X84115228Y-63812284D02*
X84062705Y-63854169D01*
X83337731Y-64349595D02*
X83352680Y-64415090D01*
X82489203Y-65396291D02*
X82460055Y-65456817D01*
X84115226Y-63388019D02*
X84157111Y-63440541D01*
X73270000Y-76819041D02*
X73480410Y-76608631D01*
X83043617Y-64013466D02*
X83266698Y-64236547D01*
X83892145Y-63164938D02*
X84115226Y-63388019D01*
X82153203Y-64809471D02*
X82195089Y-64861994D01*
X83850259Y-63112415D02*
X83892145Y-63164938D01*
X84539491Y-62963756D02*
X84316409Y-62740674D01*
X76727512Y-77325000D02*
X73375000Y-77325000D01*
X84157111Y-63759761D02*
X84115228Y-63812284D01*
X83153651Y-64731844D02*
X83088157Y-64746793D01*
X82489203Y-65198123D02*
X82504152Y-65263618D01*
X82972584Y-63900417D02*
X83001731Y-63960943D01*
X82153203Y-64490252D02*
X82124056Y-64550778D01*
X82124056Y-64748945D02*
X82153203Y-64809471D01*
X84652540Y-63034788D02*
X84592014Y-63005641D01*
X83806163Y-62986395D02*
X83821112Y-63051889D01*
X84070688Y-62654692D02*
X84005193Y-62669641D01*
X84316409Y-62740674D02*
X84263887Y-62698789D01*
X82566831Y-64395845D02*
X82506305Y-64366697D01*
X82460055Y-65456817D02*
X82418171Y-65509340D01*
X84137866Y-62654692D02*
X84070688Y-62654692D01*
X84592014Y-63005641D02*
X84539491Y-62963756D01*
X83337731Y-64547763D02*
X83308583Y-64608289D01*
X82506305Y-64366697D02*
X82440810Y-64351748D01*
X82894958Y-64702697D02*
X82842435Y-64660812D01*
X83308583Y-64608289D02*
X83266700Y-64660812D01*
X83001731Y-63641724D02*
X82972584Y-63702250D01*
X82195089Y-64437730D02*
X82153203Y-64490252D01*
X83001731Y-63960943D02*
X83043617Y-64013466D01*
X83352680Y-64415090D02*
X83352680Y-64482268D01*
X84263887Y-62698789D02*
X84203361Y-62669641D01*
X73375000Y-77325000D02*
X73270000Y-77220000D01*
X83821112Y-62853722D02*
X83806163Y-62919216D01*
X82955484Y-64731844D02*
X82894958Y-64702697D01*
X84186259Y-63501067D02*
X84201208Y-63566562D01*
X78250000Y-75802512D02*
X76727512Y-77325000D01*
X82619353Y-64437730D02*
X82566831Y-64395845D01*
X82418171Y-65509340D02*
X82312107Y-65615405D01*
X83096139Y-63547317D02*
X83043617Y-63589202D01*
X78250000Y-72752512D02*
X78250000Y-75802512D01*
X84186259Y-63699235D02*
X84157111Y-63759761D01*
X83156665Y-63518169D02*
X83096139Y-63547317D01*
X81175000Y-66752512D02*
X81175000Y-69827512D01*
X82504152Y-65330796D02*
X82489203Y-65396291D01*
X82373632Y-64351748D02*
X82308137Y-64366697D01*
X82957635Y-63767744D02*
X82957635Y-63834923D01*
X82842435Y-64660812D02*
X82619353Y-64437730D01*
X83289338Y-63503220D02*
X83222160Y-63503220D01*
X83214177Y-64702697D02*
X83153651Y-64731844D01*
X83944667Y-62698789D02*
X83892145Y-62740674D01*
X83936685Y-63898265D02*
X83869506Y-63898265D01*
X83352680Y-64482268D02*
X83337731Y-64547763D01*
X83806163Y-62919216D02*
X83806163Y-62986395D01*
G04 #@! TA.AperFunction,Conductor*
G36*
X94984190Y-50301590D02*
G01*
X94988870Y-50302666D01*
X94999642Y-50305143D01*
X95006506Y-50303590D01*
X95006509Y-50303590D01*
X95010591Y-50302666D01*
X95027109Y-50301184D01*
X95117789Y-50305143D01*
X95406922Y-50317767D01*
X95412339Y-50318241D01*
X95667477Y-50351831D01*
X95813433Y-50371047D01*
X95818802Y-50371993D01*
X96213792Y-50459560D01*
X96219061Y-50460972D01*
X96604898Y-50582626D01*
X96610011Y-50584487D01*
X96796901Y-50661900D01*
X96983785Y-50739310D01*
X96988726Y-50741614D01*
X97347577Y-50928420D01*
X97352299Y-50931146D01*
X97693501Y-51148516D01*
X97697968Y-51151643D01*
X98018943Y-51397935D01*
X98023119Y-51401440D01*
X98321390Y-51674754D01*
X98325242Y-51678606D01*
X98452798Y-51817809D01*
X98598560Y-51976881D01*
X98602065Y-51981057D01*
X98848357Y-52302032D01*
X98851484Y-52306499D01*
X99068854Y-52647701D01*
X99071580Y-52652423D01*
X99258386Y-53011274D01*
X99260690Y-53016215D01*
X99415511Y-53389984D01*
X99417374Y-53395102D01*
X99486270Y-53613613D01*
X99539028Y-53780941D01*
X99540440Y-53786208D01*
X99628007Y-54181198D01*
X99628953Y-54186567D01*
X99681758Y-54587654D01*
X99682234Y-54593086D01*
X99698796Y-54972437D01*
X99697266Y-54989164D01*
X99694857Y-54999642D01*
X99696410Y-55006505D01*
X99696410Y-55006507D01*
X99698459Y-55015561D01*
X99700000Y-55029354D01*
X99700000Y-94970184D01*
X99698410Y-94984190D01*
X99694857Y-94999642D01*
X99696410Y-95006506D01*
X99696410Y-95006509D01*
X99697334Y-95010591D01*
X99698816Y-95027109D01*
X99682234Y-95406914D01*
X99681758Y-95412346D01*
X99628953Y-95813433D01*
X99628007Y-95818802D01*
X99540440Y-96213792D01*
X99539028Y-96219059D01*
X99417376Y-96604892D01*
X99415513Y-96610011D01*
X99348360Y-96772131D01*
X99260690Y-96983785D01*
X99258386Y-96988726D01*
X99071580Y-97347577D01*
X99068854Y-97352299D01*
X98851484Y-97693501D01*
X98848357Y-97697968D01*
X98602065Y-98018943D01*
X98598562Y-98023117D01*
X98457959Y-98176559D01*
X98325246Y-98321390D01*
X98321390Y-98325246D01*
X98023119Y-98598560D01*
X98018943Y-98602065D01*
X97697968Y-98848357D01*
X97693501Y-98851484D01*
X97352299Y-99068854D01*
X97347577Y-99071580D01*
X96988726Y-99258386D01*
X96983785Y-99260690D01*
X96953586Y-99273199D01*
X96610011Y-99415513D01*
X96604898Y-99417374D01*
X96298421Y-99514005D01*
X96219059Y-99539028D01*
X96213792Y-99540440D01*
X95818802Y-99628007D01*
X95813433Y-99628953D01*
X95667477Y-99648169D01*
X95412339Y-99681759D01*
X95406922Y-99682233D01*
X95227747Y-99690056D01*
X95027563Y-99698796D01*
X95010836Y-99697266D01*
X95000358Y-99694857D01*
X94993495Y-99696410D01*
X94993493Y-99696410D01*
X94984439Y-99698459D01*
X94970646Y-99700000D01*
X55029816Y-99700000D01*
X55015810Y-99698410D01*
X55007220Y-99696435D01*
X55000358Y-99694857D01*
X54993494Y-99696410D01*
X54993491Y-99696410D01*
X54989409Y-99697334D01*
X54972891Y-99698816D01*
X54866026Y-99694150D01*
X54593078Y-99682233D01*
X54587661Y-99681759D01*
X54332523Y-99648169D01*
X54186567Y-99628953D01*
X54181198Y-99628007D01*
X53786208Y-99540440D01*
X53780941Y-99539028D01*
X53701579Y-99514005D01*
X53395102Y-99417374D01*
X53389989Y-99415513D01*
X53046414Y-99273199D01*
X53016215Y-99260690D01*
X53011274Y-99258386D01*
X52652423Y-99071580D01*
X52647701Y-99068854D01*
X52306499Y-98851484D01*
X52302032Y-98848357D01*
X51981057Y-98602065D01*
X51976881Y-98598560D01*
X51678610Y-98325246D01*
X51674754Y-98321390D01*
X51542042Y-98176559D01*
X51401438Y-98023117D01*
X51397935Y-98018943D01*
X51151643Y-97697968D01*
X51148516Y-97693501D01*
X51043444Y-97528571D01*
X53042264Y-97528571D01*
X53044528Y-97534037D01*
X53243631Y-97680828D01*
X53246549Y-97682738D01*
X53553406Y-97859902D01*
X53556519Y-97861474D01*
X53881214Y-98003330D01*
X53884479Y-98004544D01*
X54222964Y-98109323D01*
X54226344Y-98110166D01*
X54574394Y-98176559D01*
X54577856Y-98177021D01*
X54931147Y-98204206D01*
X54934616Y-98204278D01*
X55288741Y-98191912D01*
X55292200Y-98191597D01*
X55642734Y-98139835D01*
X55646161Y-98139131D01*
X55988720Y-98048623D01*
X55992040Y-98047545D01*
X56322385Y-97919412D01*
X56325566Y-97917969D01*
X56639568Y-97753814D01*
X56642569Y-97752025D01*
X56936330Y-97553881D01*
X56939086Y-97551789D01*
X56955019Y-97538229D01*
X56959353Y-97529759D01*
X56958969Y-97528571D01*
X93042264Y-97528571D01*
X93044528Y-97534037D01*
X93243631Y-97680828D01*
X93246549Y-97682738D01*
X93553406Y-97859902D01*
X93556519Y-97861474D01*
X93881214Y-98003330D01*
X93884479Y-98004544D01*
X94222964Y-98109323D01*
X94226344Y-98110166D01*
X94574394Y-98176559D01*
X94577856Y-98177021D01*
X94931147Y-98204206D01*
X94934616Y-98204278D01*
X95288741Y-98191912D01*
X95292200Y-98191597D01*
X95642734Y-98139835D01*
X95646161Y-98139131D01*
X95988720Y-98048623D01*
X95992040Y-98047545D01*
X96322385Y-97919412D01*
X96325566Y-97917969D01*
X96639568Y-97753814D01*
X96642569Y-97752025D01*
X96936330Y-97553881D01*
X96939086Y-97551789D01*
X96955019Y-97538229D01*
X96959353Y-97529759D01*
X96957102Y-97522788D01*
X95008790Y-95574475D01*
X95000000Y-95570834D01*
X94991210Y-95574475D01*
X93045905Y-97519781D01*
X93042264Y-97528571D01*
X56958969Y-97528571D01*
X56957102Y-97522788D01*
X55008790Y-95574475D01*
X55000000Y-95570834D01*
X54991210Y-95574475D01*
X53045905Y-97519781D01*
X53042264Y-97528571D01*
X51043444Y-97528571D01*
X50931146Y-97352299D01*
X50928420Y-97347577D01*
X50741614Y-96988726D01*
X50739310Y-96983785D01*
X50651640Y-96772131D01*
X50584487Y-96610011D01*
X50582624Y-96604892D01*
X50460972Y-96219059D01*
X50459560Y-96213792D01*
X50371993Y-95818802D01*
X50371047Y-95813433D01*
X50318242Y-95412346D01*
X50317766Y-95406914D01*
X50301204Y-95027563D01*
X50302734Y-95010836D01*
X50305143Y-95000358D01*
X50303429Y-94992780D01*
X50301541Y-94984439D01*
X50300000Y-94970646D01*
X50300000Y-94956997D01*
X51795343Y-94956997D01*
X51810181Y-95311004D01*
X51810522Y-95314491D01*
X51864730Y-95664651D01*
X51865449Y-95668035D01*
X51958359Y-96009997D01*
X51959452Y-96013282D01*
X52089893Y-96342740D01*
X52091355Y-96345905D01*
X52257701Y-96658753D01*
X52259509Y-96661739D01*
X52459692Y-96954101D01*
X52461093Y-96955920D01*
X52468229Y-96959510D01*
X52478697Y-96955617D01*
X54425525Y-95008790D01*
X54429166Y-95000000D01*
X55570834Y-95000000D01*
X55574475Y-95008790D01*
X57519441Y-96953755D01*
X57528231Y-96957396D01*
X57533813Y-96955084D01*
X57668500Y-96775044D01*
X57670435Y-96772131D01*
X57849728Y-96466534D01*
X57851330Y-96463416D01*
X57995449Y-96139720D01*
X57996683Y-96136470D01*
X58103819Y-95798735D01*
X58104690Y-95795347D01*
X58173513Y-95447764D01*
X58173997Y-95444320D01*
X58203702Y-95090560D01*
X58203807Y-95088415D01*
X58205027Y-95001074D01*
X58204982Y-94998932D01*
X58202638Y-94956997D01*
X91795343Y-94956997D01*
X91810181Y-95311004D01*
X91810522Y-95314491D01*
X91864730Y-95664651D01*
X91865449Y-95668035D01*
X91958359Y-96009997D01*
X91959452Y-96013282D01*
X92089893Y-96342740D01*
X92091355Y-96345905D01*
X92257701Y-96658753D01*
X92259509Y-96661739D01*
X92459692Y-96954101D01*
X92461093Y-96955920D01*
X92468229Y-96959510D01*
X92478697Y-96955617D01*
X94425525Y-95008790D01*
X94429166Y-95000000D01*
X95570834Y-95000000D01*
X95574475Y-95008790D01*
X97519441Y-96953755D01*
X97528231Y-96957396D01*
X97533813Y-96955084D01*
X97668500Y-96775044D01*
X97670435Y-96772131D01*
X97849728Y-96466534D01*
X97851330Y-96463416D01*
X97995449Y-96139720D01*
X97996683Y-96136470D01*
X98103819Y-95798735D01*
X98104690Y-95795347D01*
X98173513Y-95447764D01*
X98173997Y-95444320D01*
X98203702Y-95090560D01*
X98203807Y-95088415D01*
X98205027Y-95001074D01*
X98204982Y-94998932D01*
X98185165Y-94644468D01*
X98184778Y-94641025D01*
X98125687Y-94291654D01*
X98124912Y-94288244D01*
X98027246Y-93947643D01*
X98026102Y-93944358D01*
X97891078Y-93616766D01*
X97889568Y-93613613D01*
X97718868Y-93303112D01*
X97717029Y-93300168D01*
X97537434Y-93045577D01*
X97529391Y-93040492D01*
X97523973Y-93041713D01*
X95574475Y-94991210D01*
X95570834Y-95000000D01*
X94429166Y-95000000D01*
X94425525Y-94991210D01*
X92479766Y-93045452D01*
X92470976Y-93041811D01*
X92465624Y-93044028D01*
X92306971Y-93262395D01*
X92305085Y-93265323D01*
X92130070Y-93573406D01*
X92128519Y-93576529D01*
X91988933Y-93902208D01*
X91987741Y-93905482D01*
X91885333Y-94244673D01*
X91884506Y-94248093D01*
X91820548Y-94596575D01*
X91820109Y-94600049D01*
X91795392Y-94953511D01*
X91795343Y-94956997D01*
X58202638Y-94956997D01*
X58185165Y-94644468D01*
X58184778Y-94641025D01*
X58125687Y-94291654D01*
X58124912Y-94288244D01*
X58027246Y-93947643D01*
X58026102Y-93944358D01*
X57891078Y-93616766D01*
X57889568Y-93613613D01*
X57718868Y-93303112D01*
X57717029Y-93300168D01*
X57537434Y-93045577D01*
X57529391Y-93040492D01*
X57523973Y-93041713D01*
X55574475Y-94991210D01*
X55570834Y-95000000D01*
X54429166Y-95000000D01*
X54425525Y-94991210D01*
X52479766Y-93045452D01*
X52470976Y-93041811D01*
X52465624Y-93044028D01*
X52306971Y-93262395D01*
X52305085Y-93265323D01*
X52130070Y-93573406D01*
X52128519Y-93576529D01*
X51988933Y-93902208D01*
X51987741Y-93905482D01*
X51885333Y-94244673D01*
X51884506Y-94248093D01*
X51820548Y-94596575D01*
X51820109Y-94600049D01*
X51795392Y-94953511D01*
X51795343Y-94956997D01*
X50300000Y-94956997D01*
X50300000Y-92469851D01*
X53039693Y-92469851D01*
X53040851Y-92475165D01*
X54991210Y-94425525D01*
X55000000Y-94429166D01*
X55008790Y-94425525D01*
X56955114Y-92479200D01*
X56958755Y-92470410D01*
X56958523Y-92469851D01*
X93039693Y-92469851D01*
X93040851Y-92475165D01*
X94991210Y-94425525D01*
X95000000Y-94429166D01*
X95008790Y-94425525D01*
X96955114Y-92479200D01*
X96958755Y-92470410D01*
X96956584Y-92465169D01*
X96718772Y-92294914D01*
X96715821Y-92293041D01*
X96406525Y-92120180D01*
X96403381Y-92118647D01*
X96076748Y-91981344D01*
X96073459Y-91980172D01*
X95733551Y-91880133D01*
X95730150Y-91879335D01*
X95381223Y-91817809D01*
X95377741Y-91817394D01*
X95024123Y-91795146D01*
X95020619Y-91795122D01*
X94666732Y-91812430D01*
X94663255Y-91812796D01*
X94313494Y-91869444D01*
X94310079Y-91870194D01*
X93968802Y-91965481D01*
X93965509Y-91966602D01*
X93636972Y-92099339D01*
X93633829Y-92100818D01*
X93322140Y-92269348D01*
X93319170Y-92271175D01*
X93044833Y-92461844D01*
X93039693Y-92469851D01*
X56958523Y-92469851D01*
X56956584Y-92465169D01*
X56718772Y-92294914D01*
X56715821Y-92293041D01*
X56406525Y-92120180D01*
X56403381Y-92118647D01*
X56076748Y-91981344D01*
X56073459Y-91980172D01*
X55733551Y-91880133D01*
X55730150Y-91879335D01*
X55381223Y-91817809D01*
X55377741Y-91817394D01*
X55024123Y-91795146D01*
X55020619Y-91795122D01*
X54666732Y-91812430D01*
X54663255Y-91812796D01*
X54313494Y-91869444D01*
X54310079Y-91870194D01*
X53968802Y-91965481D01*
X53965509Y-91966602D01*
X53636972Y-92099339D01*
X53633829Y-92100818D01*
X53322140Y-92269348D01*
X53319170Y-92271175D01*
X53044833Y-92461844D01*
X53039693Y-92469851D01*
X50300000Y-92469851D01*
X50300000Y-77975000D01*
X71819103Y-77975000D01*
X71824500Y-78002132D01*
X71824500Y-78002133D01*
X71840485Y-78082495D01*
X71843904Y-78087612D01*
X71843905Y-78087614D01*
X71865872Y-78120489D01*
X71885591Y-78150000D01*
X71901376Y-78173624D01*
X71906493Y-78177043D01*
X71906494Y-78177044D01*
X71919261Y-78185575D01*
X71928731Y-78193347D01*
X72402310Y-78666926D01*
X72420616Y-78711120D01*
X72419966Y-78719380D01*
X72419966Y-78720139D01*
X72419196Y-78725000D01*
X72440281Y-78858126D01*
X72501472Y-78978220D01*
X72596780Y-79073528D01*
X72601163Y-79075761D01*
X72712489Y-79132485D01*
X72712490Y-79132485D01*
X72716874Y-79134719D01*
X72721731Y-79135488D01*
X72721733Y-79135489D01*
X72845145Y-79155035D01*
X72850000Y-79155804D01*
X72854855Y-79155035D01*
X72978267Y-79135489D01*
X72978269Y-79135488D01*
X72983126Y-79134719D01*
X72987510Y-79132485D01*
X72987511Y-79132485D01*
X73098837Y-79075761D01*
X73103220Y-79073528D01*
X73198528Y-78978220D01*
X73259719Y-78858126D01*
X73280804Y-78725000D01*
X73269669Y-78654695D01*
X73260489Y-78596733D01*
X73260488Y-78596731D01*
X73259719Y-78591874D01*
X73247813Y-78568506D01*
X73216721Y-78507485D01*
X73198528Y-78471780D01*
X73103220Y-78376472D01*
X73045202Y-78346910D01*
X72987511Y-78317515D01*
X72987510Y-78317515D01*
X72983126Y-78315281D01*
X72978269Y-78314512D01*
X72978267Y-78314511D01*
X72854857Y-78294965D01*
X72854855Y-78294965D01*
X72850000Y-78294196D01*
X72845141Y-78294966D01*
X72840225Y-78294966D01*
X72840225Y-78293483D01*
X72799387Y-78283682D01*
X72791926Y-78277310D01*
X72393806Y-77879190D01*
X72375500Y-77834996D01*
X72375500Y-76616429D01*
X72393806Y-76572235D01*
X72543610Y-76422431D01*
X72587804Y-76404125D01*
X72631998Y-76422431D01*
X72650304Y-76466625D01*
X72650304Y-76468588D01*
X72649103Y-76474626D01*
X72650304Y-76480663D01*
X72653299Y-76495719D01*
X72654500Y-76507913D01*
X72654500Y-77306713D01*
X72653299Y-77318904D01*
X72649103Y-77340000D01*
X72650304Y-77346038D01*
X72654500Y-77367132D01*
X72654500Y-77367133D01*
X72670485Y-77447495D01*
X72673904Y-77452612D01*
X72673905Y-77452614D01*
X72699074Y-77490281D01*
X72731376Y-77538624D01*
X72736493Y-77542043D01*
X72736494Y-77542044D01*
X72749261Y-77550575D01*
X72758731Y-77558347D01*
X73046653Y-77846269D01*
X73054425Y-77855739D01*
X73066376Y-77873624D01*
X73071493Y-77877043D01*
X73089377Y-77888993D01*
X73089378Y-77888994D01*
X73152387Y-77931096D01*
X73152389Y-77931097D01*
X73157506Y-77934516D01*
X73265000Y-77955897D01*
X73271038Y-77954696D01*
X73271039Y-77954696D01*
X73286097Y-77951701D01*
X73298289Y-77950500D01*
X73344696Y-77950500D01*
X73388890Y-77968806D01*
X73407196Y-78013000D01*
X73406427Y-78022775D01*
X73394196Y-78100000D01*
X73394965Y-78104855D01*
X73412251Y-78213993D01*
X73415281Y-78233126D01*
X73417514Y-78237509D01*
X73417515Y-78237511D01*
X73440757Y-78283126D01*
X73476472Y-78353220D01*
X73571780Y-78448528D01*
X73576163Y-78450761D01*
X73687489Y-78507485D01*
X73687490Y-78507485D01*
X73691874Y-78509719D01*
X73696731Y-78510488D01*
X73696733Y-78510489D01*
X73820145Y-78530035D01*
X73825000Y-78530804D01*
X73829855Y-78530035D01*
X73953267Y-78510489D01*
X73953269Y-78510488D01*
X73958126Y-78509719D01*
X73988005Y-78494495D01*
X74035691Y-78490742D01*
X74072066Y-78521808D01*
X74075819Y-78569496D01*
X74072068Y-78578555D01*
X74065281Y-78591874D01*
X74064512Y-78596731D01*
X74064511Y-78596733D01*
X74055331Y-78654695D01*
X74044196Y-78725000D01*
X74065281Y-78858126D01*
X74126472Y-78978220D01*
X74221780Y-79073528D01*
X74226163Y-79075761D01*
X74337489Y-79132485D01*
X74337490Y-79132485D01*
X74341874Y-79134719D01*
X74346731Y-79135488D01*
X74346733Y-79135489D01*
X74470145Y-79155035D01*
X74475000Y-79155804D01*
X74479855Y-79155035D01*
X74603267Y-79135489D01*
X74603269Y-79135488D01*
X74608126Y-79134719D01*
X74612510Y-79132485D01*
X74612511Y-79132485D01*
X74723837Y-79075761D01*
X74728220Y-79073528D01*
X74823528Y-78978220D01*
X74884719Y-78858126D01*
X74905804Y-78725000D01*
X74894669Y-78654695D01*
X74885489Y-78596733D01*
X74885488Y-78596731D01*
X74884719Y-78591874D01*
X74872813Y-78568506D01*
X74841721Y-78507485D01*
X74823528Y-78471780D01*
X74728220Y-78376472D01*
X74670202Y-78346910D01*
X74612511Y-78317515D01*
X74612510Y-78317515D01*
X74608126Y-78315281D01*
X74603269Y-78314512D01*
X74603267Y-78314511D01*
X74492391Y-78296950D01*
X74475000Y-78294196D01*
X74457609Y-78296950D01*
X74346733Y-78314511D01*
X74346731Y-78314512D01*
X74341874Y-78315281D01*
X74311995Y-78330505D01*
X74264309Y-78334258D01*
X74227934Y-78303192D01*
X74224181Y-78255504D01*
X74227933Y-78246444D01*
X74232486Y-78237509D01*
X74232486Y-78237508D01*
X74234719Y-78233126D01*
X74237750Y-78213993D01*
X74255035Y-78104855D01*
X74255804Y-78100000D01*
X74243573Y-78022777D01*
X74254740Y-77976263D01*
X74295527Y-77951269D01*
X74305304Y-77950500D01*
X75352615Y-77950500D01*
X75396809Y-77968806D01*
X75415115Y-78013000D01*
X75414346Y-78022777D01*
X75394196Y-78150000D01*
X75394965Y-78154855D01*
X75414360Y-78277310D01*
X75415281Y-78283126D01*
X75417515Y-78287510D01*
X75417515Y-78287511D01*
X75432803Y-78317515D01*
X75476472Y-78403220D01*
X75571780Y-78498528D01*
X75576163Y-78500761D01*
X75687489Y-78557485D01*
X75687490Y-78557485D01*
X75691874Y-78559719D01*
X75696731Y-78560488D01*
X75696733Y-78560489D01*
X75801260Y-78577044D01*
X75819154Y-78579878D01*
X75820145Y-78580035D01*
X75825000Y-78580804D01*
X75829855Y-78580035D01*
X75829858Y-78580035D01*
X75830850Y-78579878D01*
X75831566Y-78580035D01*
X75834777Y-78580035D01*
X75834777Y-78580740D01*
X75875348Y-78589642D01*
X75937386Y-78631095D01*
X75937388Y-78631096D01*
X75942505Y-78634515D01*
X76049999Y-78655896D01*
X76056037Y-78654695D01*
X76056038Y-78654695D01*
X76071096Y-78651700D01*
X76083288Y-78650499D01*
X76212000Y-78650499D01*
X76256194Y-78668805D01*
X76274500Y-78712999D01*
X76274500Y-80185834D01*
X76256194Y-80230028D01*
X76240374Y-80241522D01*
X76176162Y-80274239D01*
X76176161Y-80274240D01*
X76171780Y-80276472D01*
X76076472Y-80371780D01*
X76074239Y-80376163D01*
X76017689Y-80487149D01*
X76015281Y-80491874D01*
X75994196Y-80625000D01*
X76015281Y-80758126D01*
X76076472Y-80878220D01*
X76171780Y-80973528D01*
X76176163Y-80975761D01*
X76287489Y-81032485D01*
X76287490Y-81032485D01*
X76291874Y-81034719D01*
X76296731Y-81035488D01*
X76296733Y-81035489D01*
X76420145Y-81055035D01*
X76425000Y-81055804D01*
X76429855Y-81055035D01*
X76553267Y-81035489D01*
X76553269Y-81035488D01*
X76558126Y-81034719D01*
X76562510Y-81032485D01*
X76562511Y-81032485D01*
X76673837Y-80975761D01*
X76678220Y-80973528D01*
X76773528Y-80878220D01*
X76834719Y-80758126D01*
X76855804Y-80625000D01*
X76834719Y-80491874D01*
X76832487Y-80487494D01*
X76832486Y-80487490D01*
X76832312Y-80487149D01*
X76832134Y-80486408D01*
X76830966Y-80482813D01*
X76831249Y-80482721D01*
X76825500Y-80458775D01*
X76825500Y-78712999D01*
X76843806Y-78668805D01*
X76888000Y-78650499D01*
X77591714Y-78650499D01*
X77603905Y-78651700D01*
X77625001Y-78655896D01*
X77652133Y-78650499D01*
X77652134Y-78650499D01*
X77732496Y-78634514D01*
X77737613Y-78631095D01*
X77737615Y-78631094D01*
X77796310Y-78591875D01*
X77796311Y-78591874D01*
X77800623Y-78588993D01*
X77800627Y-78588990D01*
X77818506Y-78577044D01*
X77818508Y-78577042D01*
X77823625Y-78573623D01*
X77835576Y-78555738D01*
X77843347Y-78546269D01*
X78169023Y-78220593D01*
X78213217Y-78202287D01*
X78241591Y-78209099D01*
X78287489Y-78232485D01*
X78287490Y-78232485D01*
X78291874Y-78234719D01*
X78296731Y-78235488D01*
X78296733Y-78235489D01*
X78420145Y-78255035D01*
X78425000Y-78255804D01*
X78429855Y-78255035D01*
X78553267Y-78235489D01*
X78553269Y-78235488D01*
X78558126Y-78234719D01*
X78562510Y-78232485D01*
X78562511Y-78232485D01*
X78673837Y-78175761D01*
X78678220Y-78173528D01*
X78773528Y-78078220D01*
X78826121Y-77975000D01*
X78832485Y-77962511D01*
X78832485Y-77962510D01*
X78834719Y-77958126D01*
X78836006Y-77950004D01*
X78855035Y-77829855D01*
X78855804Y-77825000D01*
X78834719Y-77691874D01*
X78811743Y-77646780D01*
X78775761Y-77576163D01*
X78773528Y-77571780D01*
X78678220Y-77476472D01*
X78609497Y-77441456D01*
X78562511Y-77417515D01*
X78562510Y-77417515D01*
X78558126Y-77415281D01*
X78553269Y-77414512D01*
X78553267Y-77414511D01*
X78473976Y-77401953D01*
X78433189Y-77376959D01*
X78422023Y-77330444D01*
X78430035Y-77279860D01*
X78430035Y-77279855D01*
X78430804Y-77275000D01*
X78409719Y-77141874D01*
X78348528Y-77021780D01*
X78253220Y-76926472D01*
X78169163Y-76883643D01*
X78138096Y-76847269D01*
X78141849Y-76799581D01*
X78153343Y-76783761D01*
X78771269Y-76165835D01*
X78780739Y-76158063D01*
X78793506Y-76149532D01*
X78793507Y-76149531D01*
X78798624Y-76146112D01*
X78841050Y-76082618D01*
X78856095Y-76060102D01*
X78856096Y-76060100D01*
X78859515Y-76054983D01*
X78875500Y-75974621D01*
X78875500Y-75974620D01*
X78880897Y-75947488D01*
X78876701Y-75926392D01*
X78875500Y-75914201D01*
X78875500Y-74182850D01*
X90002046Y-74182850D01*
X90002815Y-74187705D01*
X90017830Y-74282505D01*
X90023131Y-74315976D01*
X90025365Y-74320360D01*
X90025365Y-74320361D01*
X90039181Y-74347476D01*
X90084322Y-74436070D01*
X90179630Y-74531378D01*
X90225031Y-74554511D01*
X90295339Y-74590335D01*
X90295340Y-74590335D01*
X90299724Y-74592569D01*
X90304581Y-74593338D01*
X90304583Y-74593339D01*
X90427995Y-74612885D01*
X90432850Y-74613654D01*
X90437705Y-74612885D01*
X90561117Y-74593339D01*
X90561119Y-74593338D01*
X90565976Y-74592569D01*
X90570360Y-74590335D01*
X90570361Y-74590335D01*
X90640669Y-74554511D01*
X90686070Y-74531378D01*
X90781378Y-74436070D01*
X90826519Y-74347476D01*
X90840335Y-74320361D01*
X90840335Y-74320360D01*
X90842569Y-74315976D01*
X90847871Y-74282505D01*
X90862885Y-74187705D01*
X90863654Y-74182850D01*
X90851027Y-74103126D01*
X90843339Y-74054583D01*
X90843338Y-74054581D01*
X90842569Y-74049724D01*
X90817614Y-74000746D01*
X90804421Y-73974855D01*
X90781378Y-73929630D01*
X90686070Y-73834322D01*
X90628052Y-73804760D01*
X90570361Y-73775365D01*
X90570360Y-73775365D01*
X90565976Y-73773131D01*
X90561119Y-73772362D01*
X90561117Y-73772361D01*
X90437705Y-73752815D01*
X90432850Y-73752046D01*
X90427995Y-73752815D01*
X90304583Y-73772361D01*
X90304581Y-73772362D01*
X90299724Y-73773131D01*
X90295340Y-73775365D01*
X90295339Y-73775365D01*
X90237648Y-73804760D01*
X90179630Y-73834322D01*
X90084322Y-73929630D01*
X90061279Y-73974855D01*
X90048087Y-74000746D01*
X90023131Y-74049724D01*
X90022362Y-74054581D01*
X90022361Y-74054583D01*
X90014673Y-74103126D01*
X90002046Y-74182850D01*
X78875500Y-74182850D01*
X78875500Y-73037492D01*
X78893806Y-72993298D01*
X81237100Y-70650004D01*
X92919196Y-70650004D01*
X92919965Y-70654859D01*
X92936215Y-70757457D01*
X92940281Y-70783130D01*
X92942515Y-70787514D01*
X92942515Y-70787515D01*
X92965028Y-70831698D01*
X93001472Y-70903224D01*
X93096780Y-70998532D01*
X93101163Y-71000765D01*
X93212489Y-71057489D01*
X93212490Y-71057489D01*
X93216874Y-71059723D01*
X93221731Y-71060492D01*
X93221733Y-71060493D01*
X93345145Y-71080039D01*
X93350000Y-71080808D01*
X93354855Y-71080039D01*
X93478267Y-71060493D01*
X93478269Y-71060492D01*
X93483126Y-71059723D01*
X93487510Y-71057489D01*
X93487511Y-71057489D01*
X93598837Y-71000765D01*
X93603220Y-70998532D01*
X93698528Y-70903224D01*
X93734972Y-70831698D01*
X93757485Y-70787515D01*
X93757485Y-70787514D01*
X93759719Y-70783130D01*
X93763786Y-70757457D01*
X93780035Y-70654859D01*
X93780804Y-70650004D01*
X93774025Y-70607203D01*
X93768925Y-70575000D01*
X94269196Y-70575000D01*
X94269965Y-70579855D01*
X94285417Y-70677414D01*
X94290281Y-70708126D01*
X94351472Y-70828220D01*
X94446780Y-70923528D01*
X94451163Y-70925761D01*
X94562489Y-70982485D01*
X94562490Y-70982485D01*
X94566874Y-70984719D01*
X94571731Y-70985488D01*
X94571733Y-70985489D01*
X94695145Y-71005035D01*
X94700000Y-71005804D01*
X94704855Y-71005035D01*
X94828267Y-70985489D01*
X94828269Y-70985488D01*
X94833126Y-70984719D01*
X94837510Y-70982485D01*
X94837511Y-70982485D01*
X94948837Y-70925761D01*
X94953220Y-70923528D01*
X95048528Y-70828220D01*
X95109719Y-70708126D01*
X95114584Y-70677414D01*
X95130035Y-70579855D01*
X95130804Y-70575000D01*
X95122368Y-70521737D01*
X95110489Y-70446733D01*
X95110488Y-70446731D01*
X95109719Y-70441874D01*
X95090596Y-70404342D01*
X95078090Y-70379798D01*
X95048528Y-70321780D01*
X94953220Y-70226472D01*
X94844570Y-70171112D01*
X94837511Y-70167515D01*
X94837510Y-70167515D01*
X94833126Y-70165281D01*
X94828269Y-70164512D01*
X94828267Y-70164511D01*
X94704855Y-70144965D01*
X94700000Y-70144196D01*
X94695145Y-70144965D01*
X94571733Y-70164511D01*
X94571731Y-70164512D01*
X94566874Y-70165281D01*
X94562490Y-70167515D01*
X94562489Y-70167515D01*
X94555430Y-70171112D01*
X94446780Y-70226472D01*
X94351472Y-70321780D01*
X94321910Y-70379798D01*
X94309405Y-70404342D01*
X94290281Y-70441874D01*
X94289512Y-70446731D01*
X94289511Y-70446733D01*
X94277632Y-70521737D01*
X94269196Y-70575000D01*
X93768925Y-70575000D01*
X93760489Y-70521737D01*
X93760488Y-70521735D01*
X93759719Y-70516878D01*
X93698528Y-70396784D01*
X93603220Y-70301476D01*
X93522779Y-70260489D01*
X93487511Y-70242519D01*
X93487510Y-70242519D01*
X93483126Y-70240285D01*
X93478269Y-70239516D01*
X93478267Y-70239515D01*
X93354855Y-70219969D01*
X93350000Y-70219200D01*
X93345145Y-70219969D01*
X93221733Y-70239515D01*
X93221731Y-70239516D01*
X93216874Y-70240285D01*
X93212490Y-70242519D01*
X93212489Y-70242519D01*
X93177221Y-70260489D01*
X93096780Y-70301476D01*
X93001472Y-70396784D01*
X92940281Y-70516878D01*
X92939512Y-70521735D01*
X92939511Y-70521737D01*
X92925975Y-70607203D01*
X92919196Y-70650004D01*
X81237100Y-70650004D01*
X81696269Y-70190835D01*
X81705739Y-70183063D01*
X81718506Y-70174532D01*
X81718507Y-70174531D01*
X81723624Y-70171112D01*
X81764490Y-70109952D01*
X81781095Y-70085102D01*
X81781096Y-70085100D01*
X81784515Y-70079983D01*
X81800500Y-69999621D01*
X81800500Y-69999620D01*
X81803542Y-69984325D01*
X81804696Y-69978526D01*
X81805897Y-69972488D01*
X81801701Y-69951393D01*
X81800500Y-69939200D01*
X81800500Y-69699642D01*
X95794857Y-69699642D01*
X95798159Y-69714235D01*
X95799162Y-69719857D01*
X95810295Y-69804421D01*
X95811861Y-69808202D01*
X95811862Y-69808205D01*
X95849032Y-69897943D01*
X95849034Y-69897947D01*
X95850600Y-69901727D01*
X95853092Y-69904975D01*
X95853094Y-69904978D01*
X95888711Y-69951393D01*
X95914717Y-69985284D01*
X95998275Y-70049401D01*
X96057527Y-70073944D01*
X96091794Y-70088138D01*
X96091795Y-70088138D01*
X96095580Y-70089706D01*
X96099642Y-70090241D01*
X96099643Y-70090241D01*
X96178458Y-70100617D01*
X96184412Y-70101696D01*
X96195837Y-70104344D01*
X96195839Y-70104344D01*
X96199285Y-70105143D01*
X96200001Y-70105144D01*
X96215687Y-70101566D01*
X96229586Y-70100001D01*
X97489923Y-70100001D01*
X98769955Y-70100000D01*
X98784068Y-70101614D01*
X98799284Y-70105141D01*
X98800000Y-70105142D01*
X98814691Y-70101791D01*
X98820430Y-70100761D01*
X98840981Y-70098056D01*
X98900358Y-70090239D01*
X98900360Y-70090239D01*
X98904420Y-70089704D01*
X98908205Y-70088136D01*
X98908206Y-70088136D01*
X98997940Y-70050967D01*
X98997941Y-70050966D01*
X99001725Y-70049399D01*
X99085282Y-69985284D01*
X99149398Y-69901727D01*
X99159463Y-69877430D01*
X99188135Y-69808210D01*
X99189704Y-69804423D01*
X99200616Y-69721545D01*
X99201695Y-69715590D01*
X99204343Y-69704165D01*
X99205142Y-69700719D01*
X99205143Y-69700003D01*
X99201565Y-69684317D01*
X99200000Y-69670418D01*
X99200000Y-60530049D01*
X99201614Y-60515937D01*
X99204343Y-60504163D01*
X99204343Y-60504161D01*
X99205142Y-60500715D01*
X99205143Y-60499999D01*
X99201792Y-60485306D01*
X99200763Y-60479573D01*
X99190239Y-60399641D01*
X99189704Y-60395578D01*
X99173135Y-60355578D01*
X99150969Y-60302063D01*
X99150967Y-60302060D01*
X99149399Y-60298274D01*
X99085283Y-60214717D01*
X99001726Y-60150601D01*
X98997940Y-60149033D01*
X98997937Y-60149031D01*
X98944422Y-60126865D01*
X98904422Y-60110296D01*
X98821534Y-60099383D01*
X98815604Y-60098308D01*
X98800717Y-60094858D01*
X98800001Y-60094857D01*
X98784316Y-60098435D01*
X98770416Y-60100000D01*
X96230046Y-60100000D01*
X96215934Y-60098386D01*
X96204164Y-60095658D01*
X96200717Y-60094859D01*
X96200001Y-60094858D01*
X96185311Y-60098209D01*
X96179571Y-60099239D01*
X96173788Y-60100000D01*
X96099642Y-60109761D01*
X96099640Y-60109761D01*
X96095580Y-60110296D01*
X96091795Y-60111864D01*
X96091794Y-60111864D01*
X96091792Y-60111865D01*
X95998275Y-60150601D01*
X95914717Y-60214717D01*
X95850601Y-60298275D01*
X95810296Y-60395580D01*
X95809761Y-60399642D01*
X95809761Y-60399643D01*
X95799385Y-60478458D01*
X95798306Y-60484412D01*
X95795658Y-60495837D01*
X95794859Y-60499285D01*
X95794858Y-60500001D01*
X95795835Y-60504284D01*
X95798435Y-60515682D01*
X95800000Y-60529582D01*
X95800000Y-69670184D01*
X95798410Y-69684190D01*
X95794857Y-69699642D01*
X81800500Y-69699642D01*
X81800500Y-67200000D01*
X90119196Y-67200000D01*
X90119965Y-67204855D01*
X90136696Y-67310489D01*
X90140281Y-67333126D01*
X90201472Y-67453220D01*
X90296780Y-67548528D01*
X90354798Y-67578090D01*
X90412489Y-67607485D01*
X90412490Y-67607485D01*
X90416874Y-67609719D01*
X90421731Y-67610488D01*
X90421733Y-67610489D01*
X90545145Y-67630035D01*
X90550000Y-67630804D01*
X90554855Y-67630035D01*
X90678267Y-67610489D01*
X90678269Y-67610488D01*
X90683126Y-67609719D01*
X90687510Y-67607485D01*
X90687511Y-67607485D01*
X90745202Y-67578090D01*
X90803220Y-67548528D01*
X90898528Y-67453220D01*
X90913113Y-67424596D01*
X93169206Y-67424596D01*
X93169975Y-67429451D01*
X93188835Y-67548528D01*
X93190291Y-67557722D01*
X93192525Y-67562106D01*
X93192525Y-67562107D01*
X93216785Y-67609719D01*
X93251482Y-67677816D01*
X93346790Y-67773124D01*
X93351173Y-67775357D01*
X93462499Y-67832081D01*
X93462500Y-67832081D01*
X93466884Y-67834315D01*
X93471741Y-67835084D01*
X93471743Y-67835085D01*
X93595155Y-67854631D01*
X93600010Y-67855400D01*
X93604865Y-67854631D01*
X93728277Y-67835085D01*
X93728279Y-67835084D01*
X93733136Y-67834315D01*
X93737520Y-67832081D01*
X93737521Y-67832081D01*
X93848847Y-67775357D01*
X93853230Y-67773124D01*
X93948538Y-67677816D01*
X93983235Y-67609719D01*
X94007495Y-67562107D01*
X94007495Y-67562106D01*
X94009729Y-67557722D01*
X94011186Y-67548528D01*
X94030045Y-67429451D01*
X94030814Y-67424596D01*
X94015557Y-67328267D01*
X94010499Y-67296329D01*
X94010498Y-67296327D01*
X94009729Y-67291470D01*
X93948538Y-67171376D01*
X93853230Y-67076068D01*
X93777558Y-67037511D01*
X93737521Y-67017111D01*
X93737520Y-67017111D01*
X93733136Y-67014877D01*
X93728279Y-67014108D01*
X93728277Y-67014107D01*
X93604865Y-66994561D01*
X93600010Y-66993792D01*
X93595155Y-66994561D01*
X93471743Y-67014107D01*
X93471741Y-67014108D01*
X93466884Y-67014877D01*
X93462500Y-67017111D01*
X93462499Y-67017111D01*
X93422462Y-67037511D01*
X93346790Y-67076068D01*
X93251482Y-67171376D01*
X93190291Y-67291470D01*
X93189522Y-67296327D01*
X93189521Y-67296329D01*
X93184463Y-67328267D01*
X93169206Y-67424596D01*
X90913113Y-67424596D01*
X90959719Y-67333126D01*
X90963305Y-67310489D01*
X90980035Y-67204855D01*
X90980804Y-67200000D01*
X90961726Y-67079546D01*
X90960489Y-67071733D01*
X90960488Y-67071731D01*
X90959719Y-67066874D01*
X90934364Y-67017111D01*
X90900761Y-66951163D01*
X90898528Y-66946780D01*
X90851748Y-66900000D01*
X94244196Y-66900000D01*
X94244965Y-66904855D01*
X94262391Y-67014877D01*
X94265281Y-67033126D01*
X94326472Y-67153220D01*
X94421780Y-67248528D01*
X94426163Y-67250761D01*
X94537489Y-67307485D01*
X94537490Y-67307485D01*
X94541874Y-67309719D01*
X94546731Y-67310488D01*
X94546733Y-67310489D01*
X94670145Y-67330035D01*
X94675000Y-67330804D01*
X94679855Y-67330035D01*
X94803267Y-67310489D01*
X94803269Y-67310488D01*
X94808126Y-67309719D01*
X94812510Y-67307485D01*
X94812511Y-67307485D01*
X94923837Y-67250761D01*
X94928220Y-67248528D01*
X95023528Y-67153220D01*
X95084719Y-67033126D01*
X95087610Y-67014877D01*
X95105035Y-66904855D01*
X95105804Y-66900000D01*
X95088780Y-66792515D01*
X95085489Y-66771733D01*
X95085488Y-66771731D01*
X95084719Y-66766874D01*
X95023528Y-66646780D01*
X94928220Y-66551472D01*
X94843149Y-66508126D01*
X94812511Y-66492515D01*
X94812510Y-66492515D01*
X94808126Y-66490281D01*
X94803269Y-66489512D01*
X94803267Y-66489511D01*
X94679855Y-66469965D01*
X94675000Y-66469196D01*
X94670145Y-66469965D01*
X94546733Y-66489511D01*
X94546731Y-66489512D01*
X94541874Y-66490281D01*
X94537490Y-66492515D01*
X94537489Y-66492515D01*
X94506851Y-66508126D01*
X94421780Y-66551472D01*
X94326472Y-66646780D01*
X94265281Y-66766874D01*
X94264512Y-66771731D01*
X94264511Y-66771733D01*
X94261220Y-66792515D01*
X94244196Y-66900000D01*
X90851748Y-66900000D01*
X90803220Y-66851472D01*
X90713592Y-66805804D01*
X90687511Y-66792515D01*
X90687510Y-66792515D01*
X90683126Y-66790281D01*
X90678269Y-66789512D01*
X90678267Y-66789511D01*
X90554855Y-66769965D01*
X90550000Y-66769196D01*
X90545145Y-66769965D01*
X90421733Y-66789511D01*
X90421731Y-66789512D01*
X90416874Y-66790281D01*
X90412490Y-66792515D01*
X90412489Y-66792515D01*
X90386408Y-66805804D01*
X90296780Y-66851472D01*
X90201472Y-66946780D01*
X90199239Y-66951163D01*
X90165637Y-67017111D01*
X90140281Y-67066874D01*
X90139512Y-67071731D01*
X90139511Y-67071733D01*
X90138274Y-67079546D01*
X90119196Y-67200000D01*
X81800500Y-67200000D01*
X81800500Y-67037492D01*
X81818806Y-66993298D01*
X82837104Y-65975000D01*
X88769196Y-65975000D01*
X88769965Y-65979855D01*
X88788761Y-66098528D01*
X88790281Y-66108126D01*
X88851472Y-66228220D01*
X88946780Y-66323528D01*
X88951163Y-66325761D01*
X89062489Y-66382485D01*
X89062490Y-66382485D01*
X89066874Y-66384719D01*
X89071731Y-66385488D01*
X89071733Y-66385489D01*
X89195145Y-66405035D01*
X89200000Y-66405804D01*
X89204855Y-66405035D01*
X89328267Y-66385489D01*
X89328269Y-66385488D01*
X89333126Y-66384719D01*
X89337510Y-66382485D01*
X89337511Y-66382485D01*
X89352201Y-66375000D01*
X92769196Y-66375000D01*
X92769965Y-66379855D01*
X92787455Y-66490281D01*
X92790281Y-66508126D01*
X92792515Y-66512510D01*
X92792515Y-66512511D01*
X92811229Y-66549239D01*
X92851472Y-66628220D01*
X92946780Y-66723528D01*
X92951163Y-66725761D01*
X93062489Y-66782485D01*
X93062490Y-66782485D01*
X93066874Y-66784719D01*
X93071731Y-66785488D01*
X93071733Y-66785489D01*
X93195145Y-66805035D01*
X93200000Y-66805804D01*
X93204855Y-66805035D01*
X93328267Y-66785489D01*
X93328269Y-66785488D01*
X93333126Y-66784719D01*
X93337510Y-66782485D01*
X93337511Y-66782485D01*
X93448837Y-66725761D01*
X93453220Y-66723528D01*
X93548528Y-66628220D01*
X93588771Y-66549239D01*
X93607485Y-66512511D01*
X93607485Y-66512510D01*
X93609719Y-66508126D01*
X93612546Y-66490281D01*
X93630035Y-66379855D01*
X93630804Y-66375000D01*
X93609719Y-66241874D01*
X93562878Y-66149943D01*
X93559125Y-66102257D01*
X93574372Y-66077376D01*
X93648528Y-66003220D01*
X93709719Y-65883126D01*
X93730804Y-65750000D01*
X93711790Y-65629950D01*
X93710489Y-65621733D01*
X93710488Y-65621731D01*
X93709719Y-65616874D01*
X93648528Y-65496780D01*
X93553220Y-65401472D01*
X93495202Y-65371910D01*
X93437511Y-65342515D01*
X93437510Y-65342515D01*
X93433126Y-65340281D01*
X93428269Y-65339512D01*
X93428267Y-65339511D01*
X93304855Y-65319965D01*
X93300000Y-65319196D01*
X93295145Y-65319965D01*
X93171733Y-65339511D01*
X93171731Y-65339512D01*
X93166874Y-65340281D01*
X93162490Y-65342515D01*
X93162489Y-65342515D01*
X93104798Y-65371910D01*
X93046780Y-65401472D01*
X92951472Y-65496780D01*
X92890281Y-65616874D01*
X92889512Y-65621731D01*
X92889511Y-65621733D01*
X92888210Y-65629950D01*
X92869196Y-65750000D01*
X92890281Y-65883126D01*
X92937122Y-65975057D01*
X92940875Y-66022743D01*
X92925628Y-66047624D01*
X92851472Y-66121780D01*
X92790281Y-66241874D01*
X92769196Y-66375000D01*
X89352201Y-66375000D01*
X89448837Y-66325761D01*
X89453220Y-66323528D01*
X89548528Y-66228220D01*
X89609719Y-66108126D01*
X89611240Y-66098528D01*
X89630035Y-65979855D01*
X89630804Y-65975000D01*
X89609719Y-65841874D01*
X89548528Y-65721780D01*
X89453220Y-65626472D01*
X89395202Y-65596910D01*
X89337511Y-65567515D01*
X89337510Y-65567515D01*
X89333126Y-65565281D01*
X89328269Y-65564512D01*
X89328267Y-65564511D01*
X89204855Y-65544965D01*
X89200000Y-65544196D01*
X89195145Y-65544965D01*
X89071733Y-65564511D01*
X89071731Y-65564512D01*
X89066874Y-65565281D01*
X89062490Y-65567515D01*
X89062489Y-65567515D01*
X89004798Y-65596910D01*
X88946780Y-65626472D01*
X88851472Y-65721780D01*
X88790281Y-65841874D01*
X88769196Y-65975000D01*
X82837104Y-65975000D01*
X85762104Y-63050000D01*
X89394196Y-63050000D01*
X89394965Y-63054855D01*
X89414430Y-63177750D01*
X89415281Y-63183126D01*
X89417515Y-63187510D01*
X89417515Y-63187511D01*
X89441897Y-63235362D01*
X89476472Y-63303220D01*
X89571780Y-63398528D01*
X89629798Y-63428090D01*
X89687489Y-63457485D01*
X89687490Y-63457485D01*
X89691874Y-63459719D01*
X89696731Y-63460488D01*
X89696733Y-63460489D01*
X89820145Y-63480035D01*
X89825000Y-63480804D01*
X89829855Y-63480035D01*
X89881662Y-63471830D01*
X89928176Y-63482998D01*
X89953170Y-63523784D01*
X89953170Y-63543338D01*
X89944196Y-63600000D01*
X89945850Y-63610442D01*
X89961514Y-63709341D01*
X89965281Y-63733126D01*
X89967515Y-63737510D01*
X89967515Y-63737511D01*
X89993866Y-63789227D01*
X90026472Y-63853220D01*
X90121780Y-63948528D01*
X90126163Y-63950761D01*
X90199136Y-63987943D01*
X90230203Y-64024318D01*
X90226450Y-64072005D01*
X90199136Y-64099319D01*
X90096780Y-64151472D01*
X90001472Y-64246780D01*
X89940281Y-64366874D01*
X89939512Y-64371731D01*
X89939511Y-64371733D01*
X89923922Y-64470158D01*
X89919196Y-64500000D01*
X89919965Y-64504855D01*
X89937142Y-64613305D01*
X89940281Y-64633126D01*
X89942515Y-64637510D01*
X89942515Y-64637511D01*
X89952638Y-64657378D01*
X90001472Y-64753220D01*
X90096780Y-64848528D01*
X90101163Y-64850761D01*
X90212489Y-64907485D01*
X90212490Y-64907485D01*
X90216874Y-64909719D01*
X90221731Y-64910488D01*
X90221733Y-64910489D01*
X90345145Y-64930035D01*
X90350000Y-64930804D01*
X90354855Y-64930035D01*
X90478267Y-64910489D01*
X90478269Y-64910488D01*
X90483126Y-64909719D01*
X90487510Y-64907485D01*
X90487511Y-64907485D01*
X90598837Y-64850761D01*
X90603220Y-64848528D01*
X90698528Y-64753220D01*
X90747362Y-64657378D01*
X90757485Y-64637511D01*
X90757485Y-64637510D01*
X90759719Y-64633126D01*
X90762859Y-64613305D01*
X90780035Y-64504855D01*
X90780804Y-64500000D01*
X90776078Y-64470158D01*
X90760489Y-64371733D01*
X90760488Y-64371731D01*
X90759719Y-64366874D01*
X90698528Y-64246780D01*
X90603220Y-64151472D01*
X90535875Y-64117158D01*
X90525864Y-64112057D01*
X90494797Y-64075682D01*
X90498550Y-64027995D01*
X90525864Y-64000681D01*
X90542460Y-63992225D01*
X90628220Y-63948528D01*
X90651748Y-63925000D01*
X92819196Y-63925000D01*
X92819965Y-63929855D01*
X92839010Y-64050099D01*
X92840281Y-64058126D01*
X92842515Y-64062510D01*
X92842515Y-64062511D01*
X92856665Y-64090281D01*
X92901472Y-64178220D01*
X92909066Y-64185814D01*
X92927372Y-64230008D01*
X92920560Y-64258382D01*
X92879131Y-64339691D01*
X92865281Y-64366874D01*
X92864512Y-64371731D01*
X92864511Y-64371733D01*
X92848922Y-64470158D01*
X92844196Y-64500000D01*
X92844965Y-64504855D01*
X92862142Y-64613305D01*
X92865281Y-64633126D01*
X92867515Y-64637510D01*
X92867515Y-64637511D01*
X92877638Y-64657378D01*
X92926472Y-64753220D01*
X93021780Y-64848528D01*
X93026163Y-64850761D01*
X93137489Y-64907485D01*
X93137490Y-64907485D01*
X93141874Y-64909719D01*
X93146731Y-64910488D01*
X93146733Y-64910489D01*
X93270145Y-64930035D01*
X93275000Y-64930804D01*
X93279855Y-64930035D01*
X93403267Y-64910489D01*
X93403269Y-64910488D01*
X93408126Y-64909719D01*
X93412510Y-64907485D01*
X93412511Y-64907485D01*
X93523837Y-64850761D01*
X93528220Y-64848528D01*
X93623528Y-64753220D01*
X93672362Y-64657378D01*
X93682485Y-64637511D01*
X93682485Y-64637510D01*
X93684719Y-64633126D01*
X93687859Y-64613305D01*
X93705035Y-64504855D01*
X93705804Y-64500000D01*
X93701078Y-64470158D01*
X93685489Y-64371733D01*
X93685488Y-64371731D01*
X93684719Y-64366874D01*
X93623528Y-64246780D01*
X93615934Y-64239186D01*
X93597628Y-64194992D01*
X93604440Y-64166618D01*
X93657485Y-64062511D01*
X93657485Y-64062510D01*
X93659719Y-64058126D01*
X93660991Y-64050099D01*
X93680035Y-63929855D01*
X93680804Y-63925000D01*
X93672530Y-63872762D01*
X93660489Y-63796733D01*
X93660488Y-63796731D01*
X93659719Y-63791874D01*
X93653595Y-63779854D01*
X93600761Y-63676163D01*
X93598528Y-63671780D01*
X93503220Y-63576472D01*
X93389854Y-63518709D01*
X93387511Y-63517515D01*
X93387510Y-63517515D01*
X93383126Y-63515281D01*
X93378269Y-63514512D01*
X93378267Y-63514511D01*
X93254855Y-63494965D01*
X93250000Y-63494196D01*
X93245145Y-63494965D01*
X93121733Y-63514511D01*
X93121731Y-63514512D01*
X93116874Y-63515281D01*
X93112490Y-63517515D01*
X93112489Y-63517515D01*
X93110146Y-63518709D01*
X92996780Y-63576472D01*
X92901472Y-63671780D01*
X92899239Y-63676163D01*
X92846406Y-63779854D01*
X92840281Y-63791874D01*
X92839512Y-63796731D01*
X92839511Y-63796733D01*
X92827470Y-63872762D01*
X92819196Y-63925000D01*
X90651748Y-63925000D01*
X90723528Y-63853220D01*
X90756134Y-63789227D01*
X90782485Y-63737511D01*
X90782485Y-63737510D01*
X90784719Y-63733126D01*
X90788487Y-63709341D01*
X90804150Y-63610442D01*
X90805804Y-63600000D01*
X90796037Y-63538335D01*
X90785489Y-63471733D01*
X90785488Y-63471731D01*
X90784719Y-63466874D01*
X90781074Y-63459719D01*
X90738013Y-63375208D01*
X90723528Y-63346780D01*
X90628220Y-63251472D01*
X90551531Y-63212397D01*
X90512511Y-63192515D01*
X90512510Y-63192515D01*
X90508126Y-63190281D01*
X90503269Y-63189512D01*
X90503267Y-63189511D01*
X90379855Y-63169965D01*
X90375000Y-63169196D01*
X90370145Y-63169965D01*
X90318338Y-63178170D01*
X90271824Y-63167002D01*
X90246830Y-63126216D01*
X90246830Y-63106662D01*
X90255035Y-63054855D01*
X90255804Y-63050000D01*
X90242881Y-62968404D01*
X90235489Y-62921733D01*
X90235488Y-62921731D01*
X90234719Y-62916874D01*
X90222088Y-62892083D01*
X90189571Y-62828267D01*
X90173528Y-62796780D01*
X90078220Y-62701472D01*
X90015263Y-62669394D01*
X89962511Y-62642515D01*
X89962510Y-62642515D01*
X89958126Y-62640281D01*
X89953269Y-62639512D01*
X89953267Y-62639511D01*
X89829855Y-62619965D01*
X89825000Y-62619196D01*
X89820145Y-62619965D01*
X89696733Y-62639511D01*
X89696731Y-62639512D01*
X89691874Y-62640281D01*
X89687490Y-62642515D01*
X89687489Y-62642515D01*
X89634737Y-62669394D01*
X89571780Y-62701472D01*
X89476472Y-62796780D01*
X89460429Y-62828267D01*
X89427913Y-62892083D01*
X89415281Y-62916874D01*
X89414512Y-62921731D01*
X89414511Y-62921733D01*
X89407119Y-62968404D01*
X89394196Y-63050000D01*
X85762104Y-63050000D01*
X86593298Y-62218806D01*
X86637492Y-62200500D01*
X92872864Y-62200500D01*
X92917058Y-62218806D01*
X92945710Y-62247458D01*
X92964016Y-62291652D01*
X92945710Y-62335846D01*
X92929892Y-62347339D01*
X92921780Y-62351472D01*
X92826472Y-62446780D01*
X92815463Y-62468386D01*
X92771809Y-62554063D01*
X92765281Y-62566874D01*
X92764512Y-62571731D01*
X92764511Y-62571733D01*
X92752675Y-62646466D01*
X92744196Y-62700000D01*
X92746640Y-62715430D01*
X92762809Y-62817517D01*
X92765281Y-62833126D01*
X92767515Y-62837510D01*
X92767515Y-62837511D01*
X92768903Y-62840235D01*
X92826472Y-62953220D01*
X92921780Y-63048528D01*
X92954846Y-63065376D01*
X93037489Y-63107485D01*
X93037490Y-63107485D01*
X93041874Y-63109719D01*
X93046731Y-63110488D01*
X93046733Y-63110489D01*
X93170145Y-63130035D01*
X93175000Y-63130804D01*
X93179855Y-63130035D01*
X93303267Y-63110489D01*
X93303269Y-63110488D01*
X93308126Y-63109719D01*
X93312510Y-63107485D01*
X93312511Y-63107485D01*
X93395154Y-63065376D01*
X93428220Y-63048528D01*
X93523528Y-62953220D01*
X93581097Y-62840235D01*
X93582485Y-62837511D01*
X93582485Y-62837510D01*
X93584719Y-62833126D01*
X93587192Y-62817517D01*
X93603360Y-62715430D01*
X93605804Y-62700000D01*
X93597325Y-62646466D01*
X93585489Y-62571733D01*
X93585488Y-62571731D01*
X93584719Y-62566874D01*
X93578192Y-62554063D01*
X93534537Y-62468386D01*
X93523528Y-62446780D01*
X93454290Y-62377542D01*
X93435984Y-62333348D01*
X93454290Y-62289154D01*
X93470108Y-62277661D01*
X93478220Y-62273528D01*
X93573528Y-62178220D01*
X93634719Y-62058126D01*
X93655804Y-61925000D01*
X93634719Y-61791874D01*
X93573528Y-61671780D01*
X93478220Y-61576472D01*
X93420202Y-61546910D01*
X93362511Y-61517515D01*
X93362510Y-61517515D01*
X93358126Y-61515281D01*
X93353269Y-61514512D01*
X93353267Y-61514511D01*
X93229855Y-61494965D01*
X93225000Y-61494196D01*
X93220145Y-61494965D01*
X93096733Y-61514511D01*
X93096731Y-61514512D01*
X93091874Y-61515281D01*
X93087490Y-61517515D01*
X93087489Y-61517515D01*
X93029798Y-61546910D01*
X92971780Y-61576472D01*
X92917058Y-61631194D01*
X92872864Y-61649500D01*
X90915152Y-61649500D01*
X90870958Y-61631194D01*
X90852652Y-61587000D01*
X90857308Y-61567621D01*
X90855966Y-61567185D01*
X90857485Y-61562510D01*
X90859719Y-61558126D01*
X90869845Y-61494196D01*
X90880035Y-61429855D01*
X90880804Y-61425000D01*
X90872806Y-61374500D01*
X90860489Y-61296733D01*
X90860488Y-61296731D01*
X90859719Y-61291874D01*
X90798528Y-61171780D01*
X90703220Y-61076472D01*
X90645202Y-61046910D01*
X90587511Y-61017515D01*
X90587510Y-61017515D01*
X90583126Y-61015281D01*
X90578269Y-61014512D01*
X90578267Y-61014511D01*
X90454855Y-60994965D01*
X90450000Y-60994196D01*
X90445145Y-60994965D01*
X90321733Y-61014511D01*
X90321731Y-61014512D01*
X90316874Y-61015281D01*
X90312490Y-61017515D01*
X90312489Y-61017515D01*
X90254798Y-61046910D01*
X90196780Y-61076472D01*
X90101472Y-61171780D01*
X90040281Y-61291874D01*
X90039512Y-61296730D01*
X90039511Y-61296733D01*
X90035545Y-61321776D01*
X90010551Y-61362563D01*
X89973814Y-61374499D01*
X86310800Y-61374499D01*
X86298609Y-61373298D01*
X86277513Y-61369102D01*
X86250381Y-61374499D01*
X86250380Y-61374499D01*
X86211346Y-61382263D01*
X86176054Y-61389283D01*
X86176052Y-61389284D01*
X86170018Y-61390484D01*
X86164904Y-61393901D01*
X86164902Y-61393902D01*
X86143705Y-61408066D01*
X86128048Y-61418528D01*
X86101891Y-61436005D01*
X86101890Y-61436006D01*
X86101887Y-61436008D01*
X86101883Y-61436010D01*
X86086691Y-61446161D01*
X86078889Y-61451375D01*
X86075470Y-61456492D01*
X86075469Y-61456493D01*
X86066938Y-61469260D01*
X86059166Y-61478730D01*
X84795816Y-62742080D01*
X84751624Y-62760385D01*
X84707430Y-62742079D01*
X84521273Y-62555922D01*
X84517715Y-62552051D01*
X84511379Y-62544548D01*
X84509394Y-62542197D01*
X84503015Y-62537110D01*
X84497798Y-62532447D01*
X84492031Y-62526680D01*
X84489483Y-62524977D01*
X84489480Y-62524975D01*
X84481641Y-62519737D01*
X84474436Y-62513478D01*
X84473337Y-62511615D01*
X84433304Y-62481487D01*
X84432006Y-62480481D01*
X84414445Y-62466477D01*
X84411767Y-62465093D01*
X84411438Y-62464863D01*
X84410616Y-62464347D01*
X84410276Y-62464156D01*
X84407869Y-62462345D01*
X84387628Y-62452597D01*
X84386113Y-62451840D01*
X84367993Y-62442479D01*
X84367480Y-62442214D01*
X84365909Y-62440553D01*
X84355186Y-62435754D01*
X84352093Y-62434265D01*
X84341649Y-62428870D01*
X84341647Y-62428870D01*
X84342288Y-62427629D01*
X84340486Y-62426191D01*
X84339373Y-62428678D01*
X84339371Y-62428678D01*
X84320162Y-62420082D01*
X84318646Y-62419378D01*
X84309288Y-62414871D01*
X84301220Y-62410985D01*
X84301215Y-62410983D01*
X84298451Y-62409652D01*
X84295533Y-62408899D01*
X84295172Y-62408753D01*
X84294248Y-62408429D01*
X84293873Y-62408318D01*
X84291119Y-62407086D01*
X84269269Y-62402099D01*
X84267567Y-62401685D01*
X84247631Y-62396543D01*
X84247263Y-62396448D01*
X84245361Y-62395177D01*
X84233858Y-62392889D01*
X84230443Y-62392109D01*
X84219111Y-62389186D01*
X84219459Y-62387836D01*
X84217379Y-62386834D01*
X84216848Y-62389504D01*
X84196268Y-62385411D01*
X84194551Y-62385045D01*
X84175716Y-62380746D01*
X84175715Y-62380746D01*
X84172719Y-62380062D01*
X84169708Y-62379978D01*
X84169315Y-62379914D01*
X84168356Y-62379806D01*
X84167958Y-62379781D01*
X84164999Y-62379192D01*
X84142574Y-62379192D01*
X84140820Y-62379167D01*
X84119875Y-62378579D01*
X84117739Y-62377764D01*
X84106022Y-62378093D01*
X84102532Y-62378093D01*
X84090814Y-62377764D01*
X84090813Y-62377764D01*
X84090852Y-62376371D01*
X84088602Y-62375857D01*
X84088678Y-62378579D01*
X84067733Y-62379167D01*
X84065979Y-62379192D01*
X84043555Y-62379192D01*
X84040596Y-62379781D01*
X84040198Y-62379806D01*
X84039239Y-62379914D01*
X84038846Y-62379978D01*
X84035835Y-62380062D01*
X84032839Y-62380746D01*
X84032838Y-62380746D01*
X84014003Y-62385045D01*
X84012286Y-62385411D01*
X83992031Y-62389439D01*
X83992028Y-62389441D01*
X83991706Y-62389505D01*
X83989443Y-62389186D01*
X83983721Y-62390662D01*
X83983720Y-62390662D01*
X83978111Y-62392109D01*
X83974696Y-62392889D01*
X83963193Y-62395177D01*
X83962921Y-62393808D01*
X83960609Y-62393808D01*
X83961290Y-62396448D01*
X83940987Y-62401685D01*
X83939285Y-62402099D01*
X83917435Y-62407086D01*
X83914681Y-62408318D01*
X83914306Y-62408429D01*
X83913382Y-62408753D01*
X83913021Y-62408899D01*
X83910103Y-62409652D01*
X83907339Y-62410983D01*
X83907334Y-62410985D01*
X83899266Y-62414871D01*
X83889908Y-62419378D01*
X83888392Y-62420082D01*
X83869183Y-62428678D01*
X83866905Y-62428870D01*
X83859115Y-62432894D01*
X83856492Y-62434249D01*
X83853358Y-62435759D01*
X83842647Y-62440552D01*
X83842077Y-62439279D01*
X83839822Y-62439793D01*
X83841073Y-62442215D01*
X83822444Y-62451839D01*
X83820891Y-62452615D01*
X83800685Y-62462345D01*
X83798273Y-62464160D01*
X83797925Y-62464355D01*
X83797120Y-62464861D01*
X83796788Y-62465093D01*
X83794109Y-62466478D01*
X83791705Y-62468395D01*
X83776630Y-62480416D01*
X83775248Y-62481487D01*
X83758782Y-62493880D01*
X83758450Y-62494130D01*
X83756273Y-62494824D01*
X83751760Y-62498635D01*
X83751758Y-62498636D01*
X83747333Y-62502373D01*
X83744606Y-62504549D01*
X83735217Y-62511615D01*
X83735216Y-62511616D01*
X83734377Y-62510501D01*
X83732296Y-62511503D01*
X83734054Y-62513586D01*
X83718005Y-62527137D01*
X83716667Y-62528235D01*
X83699160Y-62542197D01*
X83697216Y-62544499D01*
X83696922Y-62544765D01*
X83696231Y-62545456D01*
X83695972Y-62545742D01*
X83693670Y-62547686D01*
X83691761Y-62550080D01*
X83691756Y-62550085D01*
X83679686Y-62565220D01*
X83678574Y-62566576D01*
X83665055Y-62582585D01*
X83663082Y-62583749D01*
X83656011Y-62593145D01*
X83653836Y-62595871D01*
X83646297Y-62604799D01*
X83645230Y-62603898D01*
X83643428Y-62605335D01*
X83645604Y-62606973D01*
X83645604Y-62606974D01*
X83632968Y-62623764D01*
X83631960Y-62625065D01*
X83617949Y-62642635D01*
X83616562Y-62645319D01*
X83616334Y-62645646D01*
X83615819Y-62646466D01*
X83615627Y-62646808D01*
X83613813Y-62649218D01*
X83612481Y-62651984D01*
X83612478Y-62651989D01*
X83604097Y-62669394D01*
X83603313Y-62670964D01*
X83593683Y-62689606D01*
X83592024Y-62691174D01*
X83587416Y-62701472D01*
X83587249Y-62701845D01*
X83585729Y-62705000D01*
X83580341Y-62715430D01*
X83579102Y-62714790D01*
X83577659Y-62716599D01*
X83580148Y-62717713D01*
X83571557Y-62736911D01*
X83570843Y-62738450D01*
X83561122Y-62758636D01*
X83560370Y-62761553D01*
X83560223Y-62761914D01*
X83559896Y-62762847D01*
X83559788Y-62763213D01*
X83558557Y-62765964D01*
X83557874Y-62768955D01*
X83557874Y-62768956D01*
X83553565Y-62787834D01*
X83553151Y-62789536D01*
X83547920Y-62809817D01*
X83546648Y-62811721D01*
X83545495Y-62817517D01*
X83544357Y-62823238D01*
X83543581Y-62826639D01*
X83540657Y-62837975D01*
X83540657Y-62837976D01*
X83539306Y-62837627D01*
X83538305Y-62839704D01*
X83540976Y-62840235D01*
X83536883Y-62860813D01*
X83536522Y-62862503D01*
X83531533Y-62884363D01*
X83531449Y-62887367D01*
X83531388Y-62887741D01*
X83531276Y-62888741D01*
X83531252Y-62889124D01*
X83530663Y-62892083D01*
X83530663Y-62914496D01*
X83530638Y-62916249D01*
X83530064Y-62936716D01*
X83530050Y-62937207D01*
X83529234Y-62939344D01*
X83529541Y-62950257D01*
X83529563Y-62951049D01*
X83529563Y-62954550D01*
X83529503Y-62956698D01*
X83529234Y-62966269D01*
X83527840Y-62966230D01*
X83527327Y-62968480D01*
X83530050Y-62968404D01*
X83530638Y-62989362D01*
X83530663Y-62991115D01*
X83530663Y-63013528D01*
X83531252Y-63016487D01*
X83531276Y-63016870D01*
X83531388Y-63017870D01*
X83531449Y-63018244D01*
X83531533Y-63021248D01*
X83532215Y-63024234D01*
X83536517Y-63043083D01*
X83536881Y-63044789D01*
X83540976Y-63065376D01*
X83540657Y-63067636D01*
X83543581Y-63078972D01*
X83544357Y-63082373D01*
X83546648Y-63093891D01*
X83545282Y-63094163D01*
X83545282Y-63096475D01*
X83547920Y-63095795D01*
X83553151Y-63116075D01*
X83553565Y-63117777D01*
X83557874Y-63136655D01*
X83558557Y-63139647D01*
X83559788Y-63142398D01*
X83559896Y-63142764D01*
X83560223Y-63143697D01*
X83560370Y-63144058D01*
X83561122Y-63146975D01*
X83570856Y-63167187D01*
X83571560Y-63168705D01*
X83572124Y-63169965D01*
X83579976Y-63187511D01*
X83580148Y-63187896D01*
X83580340Y-63190178D01*
X83583055Y-63195433D01*
X83583057Y-63195439D01*
X83583553Y-63196398D01*
X83583624Y-63197235D01*
X83584872Y-63201571D01*
X83584010Y-63201819D01*
X83587572Y-63244064D01*
X83556708Y-63280611D01*
X83509042Y-63284630D01*
X83499343Y-63280612D01*
X83493122Y-63277399D01*
X83493763Y-63276158D01*
X83491958Y-63274719D01*
X83490845Y-63277206D01*
X83490843Y-63277206D01*
X83471634Y-63268610D01*
X83470118Y-63267906D01*
X83458304Y-63262216D01*
X83452692Y-63259513D01*
X83452687Y-63259511D01*
X83449923Y-63258180D01*
X83447005Y-63257427D01*
X83446644Y-63257281D01*
X83445720Y-63256957D01*
X83445345Y-63256846D01*
X83442591Y-63255614D01*
X83420741Y-63250627D01*
X83419039Y-63250213D01*
X83399103Y-63245071D01*
X83398735Y-63244976D01*
X83396833Y-63243705D01*
X83385330Y-63241417D01*
X83381915Y-63240637D01*
X83370583Y-63237714D01*
X83370931Y-63236364D01*
X83368851Y-63235362D01*
X83368320Y-63238032D01*
X83347740Y-63233939D01*
X83346023Y-63233573D01*
X83327188Y-63229274D01*
X83327187Y-63229274D01*
X83324191Y-63228590D01*
X83321180Y-63228506D01*
X83320787Y-63228442D01*
X83319828Y-63228334D01*
X83319430Y-63228309D01*
X83316471Y-63227720D01*
X83294046Y-63227720D01*
X83292292Y-63227695D01*
X83271347Y-63227107D01*
X83269211Y-63226292D01*
X83257494Y-63226621D01*
X83254004Y-63226621D01*
X83242286Y-63226292D01*
X83242285Y-63226292D01*
X83242324Y-63224899D01*
X83240074Y-63224385D01*
X83240150Y-63227107D01*
X83219205Y-63227695D01*
X83217451Y-63227720D01*
X83195027Y-63227720D01*
X83192068Y-63228309D01*
X83191670Y-63228334D01*
X83190711Y-63228442D01*
X83190318Y-63228506D01*
X83187307Y-63228590D01*
X83184311Y-63229274D01*
X83184310Y-63229274D01*
X83165475Y-63233573D01*
X83163758Y-63233939D01*
X83143503Y-63237967D01*
X83143500Y-63237969D01*
X83143178Y-63238033D01*
X83140915Y-63237714D01*
X83135193Y-63239190D01*
X83135192Y-63239190D01*
X83129583Y-63240637D01*
X83126168Y-63241417D01*
X83114665Y-63243705D01*
X83114393Y-63242336D01*
X83112081Y-63242336D01*
X83112762Y-63244976D01*
X83092459Y-63250213D01*
X83090757Y-63250627D01*
X83068907Y-63255614D01*
X83066153Y-63256846D01*
X83065778Y-63256957D01*
X83064854Y-63257281D01*
X83064493Y-63257427D01*
X83061575Y-63258180D01*
X83058811Y-63259511D01*
X83058806Y-63259513D01*
X83053194Y-63262216D01*
X83041380Y-63267906D01*
X83039864Y-63268610D01*
X83020655Y-63277206D01*
X83018377Y-63277398D01*
X83011066Y-63281175D01*
X83007964Y-63282777D01*
X83004830Y-63284287D01*
X82994119Y-63289080D01*
X82993549Y-63287807D01*
X82991294Y-63288321D01*
X82992545Y-63290743D01*
X82973916Y-63300367D01*
X82972363Y-63301143D01*
X82952157Y-63310873D01*
X82949745Y-63312688D01*
X82949397Y-63312883D01*
X82948592Y-63313389D01*
X82948260Y-63313621D01*
X82945581Y-63315006D01*
X82943177Y-63316923D01*
X82928102Y-63328944D01*
X82926720Y-63330015D01*
X82910254Y-63342408D01*
X82909922Y-63342658D01*
X82907745Y-63343352D01*
X82898906Y-63350816D01*
X82898805Y-63350901D01*
X82896078Y-63353077D01*
X82886689Y-63360143D01*
X82886688Y-63360144D01*
X82885849Y-63359029D01*
X82883768Y-63360031D01*
X82885526Y-63362114D01*
X82869477Y-63375665D01*
X82868139Y-63376763D01*
X82850632Y-63390725D01*
X82848688Y-63393027D01*
X82848394Y-63393293D01*
X82847703Y-63393984D01*
X82847444Y-63394270D01*
X82845142Y-63396214D01*
X82843233Y-63398608D01*
X82843228Y-63398613D01*
X82831158Y-63413748D01*
X82830046Y-63415104D01*
X82816527Y-63431113D01*
X82814554Y-63432277D01*
X82807483Y-63441673D01*
X82805308Y-63444399D01*
X82797769Y-63453327D01*
X82796702Y-63452426D01*
X82794900Y-63453863D01*
X82797076Y-63455501D01*
X82797076Y-63455502D01*
X82784447Y-63472283D01*
X82783432Y-63473593D01*
X82769421Y-63491163D01*
X82768034Y-63493847D01*
X82767806Y-63494174D01*
X82767291Y-63494994D01*
X82767099Y-63495336D01*
X82765285Y-63497746D01*
X82763953Y-63500512D01*
X82763950Y-63500517D01*
X82755569Y-63517922D01*
X82754785Y-63519492D01*
X82745155Y-63538134D01*
X82743496Y-63539702D01*
X82741080Y-63545102D01*
X82738721Y-63550373D01*
X82737201Y-63553528D01*
X82731813Y-63563958D01*
X82730574Y-63563318D01*
X82729131Y-63565127D01*
X82731620Y-63566241D01*
X82723029Y-63585439D01*
X82722315Y-63586978D01*
X82712594Y-63607164D01*
X82711842Y-63610081D01*
X82711695Y-63610442D01*
X82711368Y-63611375D01*
X82711260Y-63611741D01*
X82710029Y-63614492D01*
X82709346Y-63617483D01*
X82709346Y-63617484D01*
X82705037Y-63636362D01*
X82704623Y-63638064D01*
X82699392Y-63658345D01*
X82698120Y-63660249D01*
X82696967Y-63666045D01*
X82695829Y-63671766D01*
X82695053Y-63675167D01*
X82692129Y-63686503D01*
X82692129Y-63686504D01*
X82690778Y-63686155D01*
X82689777Y-63688232D01*
X82692448Y-63688763D01*
X82688355Y-63709341D01*
X82687994Y-63711031D01*
X82683005Y-63732891D01*
X82682921Y-63735895D01*
X82682860Y-63736269D01*
X82682748Y-63737269D01*
X82682724Y-63737652D01*
X82682135Y-63740611D01*
X82682135Y-63763024D01*
X82682110Y-63764777D01*
X82681536Y-63785244D01*
X82681522Y-63785735D01*
X82680706Y-63787872D01*
X82681013Y-63798785D01*
X82681035Y-63799578D01*
X82681035Y-63803079D01*
X82680873Y-63808850D01*
X82680706Y-63814797D01*
X82679312Y-63814758D01*
X82678799Y-63817008D01*
X82681522Y-63816932D01*
X82682110Y-63837890D01*
X82682135Y-63839643D01*
X82682135Y-63862056D01*
X82682724Y-63865015D01*
X82682748Y-63865398D01*
X82682860Y-63866398D01*
X82682921Y-63866772D01*
X82683005Y-63869776D01*
X82683687Y-63872762D01*
X82687989Y-63891611D01*
X82688353Y-63893317D01*
X82692448Y-63913904D01*
X82692129Y-63916164D01*
X82695053Y-63927500D01*
X82695829Y-63930901D01*
X82698120Y-63942419D01*
X82696754Y-63942691D01*
X82696754Y-63945003D01*
X82699392Y-63944323D01*
X82704623Y-63964603D01*
X82705037Y-63966305D01*
X82710029Y-63988175D01*
X82711260Y-63990926D01*
X82711368Y-63991292D01*
X82711695Y-63992225D01*
X82711842Y-63992586D01*
X82712594Y-63995503D01*
X82722328Y-64015715D01*
X82723032Y-64017233D01*
X82731620Y-64036424D01*
X82731812Y-64038706D01*
X82734527Y-64043961D01*
X82734529Y-64043967D01*
X82735025Y-64044926D01*
X82735096Y-64045763D01*
X82736344Y-64050099D01*
X82735482Y-64050347D01*
X82739044Y-64092592D01*
X82708180Y-64129139D01*
X82660514Y-64133158D01*
X82650815Y-64129140D01*
X82644594Y-64125927D01*
X82645235Y-64124686D01*
X82643430Y-64123247D01*
X82642317Y-64125734D01*
X82642315Y-64125734D01*
X82623106Y-64117138D01*
X82621590Y-64116434D01*
X82609776Y-64110744D01*
X82604164Y-64108041D01*
X82604159Y-64108039D01*
X82601395Y-64106708D01*
X82598477Y-64105955D01*
X82598116Y-64105809D01*
X82597192Y-64105485D01*
X82596817Y-64105374D01*
X82594063Y-64104142D01*
X82578488Y-64100587D01*
X82572213Y-64099155D01*
X82570511Y-64098741D01*
X82550575Y-64093599D01*
X82550207Y-64093504D01*
X82548305Y-64092233D01*
X82536802Y-64089945D01*
X82533387Y-64089165D01*
X82522055Y-64086242D01*
X82522403Y-64084892D01*
X82520323Y-64083890D01*
X82519792Y-64086560D01*
X82499212Y-64082467D01*
X82497495Y-64082101D01*
X82478660Y-64077802D01*
X82478659Y-64077802D01*
X82475663Y-64077118D01*
X82472652Y-64077034D01*
X82472259Y-64076970D01*
X82471300Y-64076862D01*
X82470902Y-64076837D01*
X82467943Y-64076248D01*
X82445518Y-64076248D01*
X82443764Y-64076223D01*
X82422819Y-64075635D01*
X82420683Y-64074820D01*
X82408966Y-64075149D01*
X82405476Y-64075149D01*
X82393758Y-64074820D01*
X82393757Y-64074820D01*
X82393796Y-64073427D01*
X82391546Y-64072913D01*
X82391622Y-64075635D01*
X82370677Y-64076223D01*
X82368923Y-64076248D01*
X82346499Y-64076248D01*
X82343540Y-64076837D01*
X82343142Y-64076862D01*
X82342183Y-64076970D01*
X82341790Y-64077034D01*
X82338779Y-64077118D01*
X82335783Y-64077802D01*
X82335782Y-64077802D01*
X82316947Y-64082101D01*
X82315230Y-64082467D01*
X82294975Y-64086495D01*
X82294972Y-64086497D01*
X82294650Y-64086561D01*
X82292387Y-64086242D01*
X82286665Y-64087718D01*
X82286664Y-64087718D01*
X82281055Y-64089165D01*
X82277640Y-64089945D01*
X82266137Y-64092233D01*
X82265865Y-64090864D01*
X82263553Y-64090864D01*
X82264234Y-64093504D01*
X82243931Y-64098741D01*
X82242229Y-64099155D01*
X82235954Y-64100587D01*
X82220379Y-64104142D01*
X82217625Y-64105374D01*
X82217250Y-64105485D01*
X82216326Y-64105809D01*
X82215965Y-64105955D01*
X82213047Y-64106708D01*
X82210283Y-64108039D01*
X82210278Y-64108041D01*
X82204666Y-64110744D01*
X82192852Y-64116434D01*
X82191336Y-64117138D01*
X82172127Y-64125734D01*
X82169849Y-64125926D01*
X82162538Y-64129703D01*
X82159436Y-64131305D01*
X82156302Y-64132815D01*
X82145591Y-64137608D01*
X82145021Y-64136335D01*
X82142766Y-64136849D01*
X82144017Y-64139271D01*
X82125388Y-64148895D01*
X82123835Y-64149671D01*
X82103629Y-64159401D01*
X82101217Y-64161216D01*
X82100869Y-64161411D01*
X82100064Y-64161917D01*
X82099732Y-64162149D01*
X82097053Y-64163534D01*
X82094649Y-64165451D01*
X82079574Y-64177472D01*
X82078192Y-64178543D01*
X82061726Y-64190936D01*
X82061394Y-64191186D01*
X82059217Y-64191880D01*
X82050378Y-64199344D01*
X82050277Y-64199429D01*
X82047550Y-64201605D01*
X82038161Y-64208671D01*
X82038160Y-64208672D01*
X82037321Y-64207557D01*
X82035240Y-64208559D01*
X82036998Y-64210642D01*
X82020949Y-64224193D01*
X82019611Y-64225291D01*
X82002104Y-64239253D01*
X82000160Y-64241555D01*
X81999866Y-64241821D01*
X81999175Y-64242512D01*
X81998916Y-64242798D01*
X81996614Y-64244742D01*
X81994705Y-64247136D01*
X81994700Y-64247141D01*
X81982630Y-64262276D01*
X81981518Y-64263632D01*
X81967999Y-64279641D01*
X81966026Y-64280805D01*
X81958955Y-64290201D01*
X81956780Y-64292927D01*
X81949241Y-64301855D01*
X81948174Y-64300954D01*
X81946372Y-64302391D01*
X81948548Y-64304029D01*
X81948548Y-64304030D01*
X81935919Y-64320811D01*
X81934904Y-64322121D01*
X81920893Y-64339691D01*
X81919506Y-64342375D01*
X81919278Y-64342702D01*
X81918763Y-64343522D01*
X81918571Y-64343864D01*
X81916757Y-64346274D01*
X81915425Y-64349040D01*
X81915422Y-64349045D01*
X81907041Y-64366450D01*
X81906257Y-64368020D01*
X81896627Y-64386662D01*
X81894968Y-64388230D01*
X81892552Y-64393630D01*
X81890193Y-64398901D01*
X81888673Y-64402056D01*
X81883285Y-64412486D01*
X81882046Y-64411846D01*
X81880603Y-64413655D01*
X81883092Y-64414769D01*
X81874501Y-64433967D01*
X81873787Y-64435506D01*
X81864066Y-64455692D01*
X81863314Y-64458609D01*
X81863167Y-64458970D01*
X81862840Y-64459903D01*
X81862732Y-64460269D01*
X81861501Y-64463020D01*
X81860818Y-64466011D01*
X81860818Y-64466012D01*
X81856509Y-64484890D01*
X81856095Y-64486592D01*
X81850864Y-64506873D01*
X81849592Y-64508777D01*
X81848439Y-64514573D01*
X81847301Y-64520294D01*
X81846525Y-64523695D01*
X81843601Y-64535031D01*
X81843601Y-64535032D01*
X81842250Y-64534683D01*
X81841249Y-64536760D01*
X81843920Y-64537291D01*
X81839827Y-64557869D01*
X81839466Y-64559559D01*
X81834477Y-64581419D01*
X81834393Y-64584423D01*
X81834332Y-64584797D01*
X81834220Y-64585797D01*
X81834196Y-64586180D01*
X81833607Y-64589139D01*
X81833607Y-64611552D01*
X81833582Y-64613305D01*
X81833008Y-64633772D01*
X81832994Y-64634263D01*
X81832178Y-64636400D01*
X81832485Y-64647313D01*
X81832507Y-64648106D01*
X81832507Y-64651607D01*
X81832345Y-64657378D01*
X81832178Y-64663325D01*
X81830784Y-64663286D01*
X81830271Y-64665536D01*
X81832994Y-64665460D01*
X81833582Y-64686418D01*
X81833607Y-64688171D01*
X81833607Y-64710584D01*
X81834196Y-64713543D01*
X81834220Y-64713926D01*
X81834332Y-64714926D01*
X81834393Y-64715300D01*
X81834477Y-64718304D01*
X81835159Y-64721290D01*
X81839461Y-64740139D01*
X81839825Y-64741845D01*
X81843920Y-64762432D01*
X81843601Y-64764692D01*
X81846525Y-64776028D01*
X81847301Y-64779429D01*
X81849592Y-64790947D01*
X81848226Y-64791219D01*
X81848226Y-64793531D01*
X81850864Y-64792851D01*
X81856095Y-64813131D01*
X81856509Y-64814833D01*
X81861501Y-64836703D01*
X81862732Y-64839454D01*
X81862840Y-64839820D01*
X81863167Y-64840753D01*
X81863314Y-64841114D01*
X81864066Y-64844031D01*
X81873800Y-64864243D01*
X81874504Y-64865761D01*
X81883092Y-64884952D01*
X81883284Y-64887234D01*
X81886000Y-64892491D01*
X81888674Y-64897667D01*
X81890190Y-64900816D01*
X81894175Y-64909719D01*
X81894968Y-64911492D01*
X81893691Y-64912063D01*
X81894205Y-64914312D01*
X81896627Y-64913061D01*
X81906272Y-64931732D01*
X81907053Y-64933299D01*
X81916757Y-64953449D01*
X81918571Y-64955859D01*
X81918765Y-64956205D01*
X81919280Y-64957024D01*
X81919507Y-64957349D01*
X81920892Y-64960030D01*
X81934888Y-64977581D01*
X81935920Y-64978912D01*
X81966026Y-65018918D01*
X81967892Y-65020019D01*
X81974154Y-65027228D01*
X81978682Y-65034004D01*
X81981095Y-65037616D01*
X81986858Y-65043379D01*
X81991521Y-65048597D01*
X81996612Y-65054980D01*
X82002362Y-65059835D01*
X82006478Y-65063311D01*
X82010349Y-65066870D01*
X82196493Y-65253014D01*
X82214799Y-65297208D01*
X82196495Y-65341401D01*
X81003726Y-66534170D01*
X80994261Y-66541937D01*
X80981494Y-66550468D01*
X80976376Y-66553888D01*
X80972957Y-66559005D01*
X80924385Y-66631698D01*
X80915485Y-66645017D01*
X80908624Y-66679511D01*
X80894103Y-66752512D01*
X80897927Y-66771733D01*
X80898299Y-66773605D01*
X80899500Y-66785799D01*
X80899500Y-69687508D01*
X80881194Y-69731702D01*
X78078731Y-72534165D01*
X78069261Y-72541937D01*
X78056494Y-72550468D01*
X78051376Y-72553888D01*
X77990485Y-72645017D01*
X77990485Y-72645018D01*
X77969103Y-72752512D01*
X77970304Y-72758549D01*
X77973299Y-72773605D01*
X77974500Y-72785799D01*
X77974500Y-75662508D01*
X77956194Y-75706702D01*
X76631702Y-77031194D01*
X76587508Y-77049500D01*
X76086268Y-77049500D01*
X76042074Y-77031194D01*
X76023768Y-76987000D01*
X76042074Y-76942806D01*
X76057894Y-76931312D01*
X76148562Y-76885114D01*
X76152945Y-76882881D01*
X76248253Y-76787573D01*
X76309444Y-76667479D01*
X76317530Y-76616429D01*
X76329760Y-76539208D01*
X76329760Y-76539206D01*
X76330529Y-76534353D01*
X76325651Y-76503557D01*
X76310214Y-76406086D01*
X76310213Y-76406084D01*
X76309444Y-76401227D01*
X76302777Y-76388141D01*
X76250487Y-76285517D01*
X76250486Y-76285516D01*
X76248253Y-76281133D01*
X76246972Y-76279852D01*
X76236103Y-76234575D01*
X76246606Y-76209218D01*
X76248254Y-76207570D01*
X76309445Y-76087476D01*
X76310214Y-76082619D01*
X76310215Y-76082617D01*
X76329761Y-75959205D01*
X76330530Y-75954350D01*
X76312826Y-75842571D01*
X76323993Y-75796057D01*
X76364780Y-75771063D01*
X76402931Y-75777106D01*
X76412214Y-75781836D01*
X76412215Y-75781836D01*
X76416599Y-75784070D01*
X76421456Y-75784839D01*
X76421458Y-75784840D01*
X76544870Y-75804386D01*
X76549725Y-75805155D01*
X76554580Y-75804386D01*
X76677992Y-75784840D01*
X76677994Y-75784839D01*
X76682851Y-75784070D01*
X76687235Y-75781836D01*
X76687236Y-75781836D01*
X76798562Y-75725112D01*
X76802945Y-75722879D01*
X76898253Y-75627571D01*
X76940905Y-75543862D01*
X76957210Y-75511862D01*
X76957210Y-75511861D01*
X76959444Y-75507477D01*
X76980529Y-75374351D01*
X76959444Y-75241225D01*
X76898253Y-75121131D01*
X76802945Y-75025823D01*
X76744927Y-74996261D01*
X76687236Y-74966866D01*
X76687235Y-74966866D01*
X76682851Y-74964632D01*
X76677994Y-74963863D01*
X76677992Y-74963862D01*
X76554580Y-74944316D01*
X76549725Y-74943547D01*
X76544870Y-74944316D01*
X76421458Y-74963862D01*
X76421456Y-74963863D01*
X76416599Y-74964632D01*
X76412215Y-74966866D01*
X76412214Y-74966866D01*
X76354523Y-74996261D01*
X76296505Y-75025823D01*
X76201197Y-75121131D01*
X76140006Y-75241225D01*
X76118921Y-75374351D01*
X76119690Y-75379206D01*
X76136625Y-75486130D01*
X76125458Y-75532644D01*
X76084671Y-75557638D01*
X76046520Y-75551595D01*
X76037237Y-75546865D01*
X76037236Y-75546865D01*
X76032852Y-75544631D01*
X76027995Y-75543862D01*
X76027993Y-75543861D01*
X75917117Y-75526300D01*
X75899726Y-75523546D01*
X75882335Y-75526300D01*
X75771459Y-75543861D01*
X75771457Y-75543862D01*
X75766600Y-75544631D01*
X75762216Y-75546865D01*
X75762215Y-75546865D01*
X75752932Y-75551595D01*
X75646506Y-75605822D01*
X75551198Y-75701130D01*
X75540116Y-75722879D01*
X75498195Y-75805155D01*
X75490007Y-75821224D01*
X75468922Y-75954350D01*
X75469691Y-75959205D01*
X75489237Y-76082617D01*
X75489238Y-76082619D01*
X75490007Y-76087476D01*
X75492241Y-76091860D01*
X75492241Y-76091861D01*
X75521626Y-76149532D01*
X75551198Y-76207570D01*
X75552479Y-76208851D01*
X75563348Y-76254128D01*
X75552845Y-76279485D01*
X75551197Y-76281133D01*
X75548964Y-76285516D01*
X75496674Y-76388141D01*
X75490006Y-76401227D01*
X75489237Y-76406084D01*
X75489236Y-76406086D01*
X75473799Y-76503557D01*
X75468921Y-76534353D01*
X75469690Y-76539206D01*
X75469690Y-76539208D01*
X75481921Y-76616429D01*
X75490006Y-76667479D01*
X75551197Y-76787573D01*
X75646505Y-76882881D01*
X75650888Y-76885114D01*
X75741556Y-76931312D01*
X75772623Y-76967686D01*
X75768870Y-77015374D01*
X75732496Y-77046441D01*
X75713182Y-77049500D01*
X74786265Y-77049500D01*
X74742071Y-77031194D01*
X74723765Y-76987000D01*
X74742071Y-76942806D01*
X74757891Y-76931312D01*
X74771772Y-76924239D01*
X74852946Y-76882879D01*
X74948254Y-76787571D01*
X75009445Y-76667477D01*
X75017997Y-76613486D01*
X75029761Y-76539206D01*
X75030530Y-76534351D01*
X75021979Y-76480364D01*
X75010215Y-76406084D01*
X75010214Y-76406082D01*
X75009445Y-76401225D01*
X75002779Y-76388142D01*
X74950486Y-76285511D01*
X74950485Y-76285510D01*
X74948254Y-76281131D01*
X74946975Y-76279852D01*
X74936105Y-76234572D01*
X74946608Y-76209217D01*
X74948254Y-76207571D01*
X74950489Y-76203186D01*
X75007211Y-76091862D01*
X75007211Y-76091861D01*
X75009445Y-76087477D01*
X75030530Y-75954351D01*
X75010215Y-75826083D01*
X75010214Y-75826082D01*
X75009445Y-75821225D01*
X74948254Y-75701131D01*
X74852946Y-75605823D01*
X74746518Y-75551595D01*
X74737237Y-75546866D01*
X74737236Y-75546866D01*
X74732852Y-75544632D01*
X74727995Y-75543863D01*
X74727993Y-75543862D01*
X74604581Y-75524316D01*
X74599726Y-75523547D01*
X74594871Y-75524316D01*
X74471459Y-75543862D01*
X74471457Y-75543863D01*
X74466600Y-75544632D01*
X74462216Y-75546866D01*
X74462215Y-75546866D01*
X74452934Y-75551595D01*
X74346506Y-75605823D01*
X74251198Y-75701131D01*
X74190007Y-75821225D01*
X74189238Y-75826082D01*
X74189238Y-75826083D01*
X74168922Y-75954351D01*
X74190007Y-76087477D01*
X74192241Y-76091861D01*
X74192241Y-76091862D01*
X74248964Y-76203186D01*
X74251198Y-76207571D01*
X74252477Y-76208850D01*
X74263347Y-76254130D01*
X74252844Y-76279485D01*
X74251198Y-76281131D01*
X74248967Y-76285510D01*
X74248966Y-76285511D01*
X74196673Y-76388142D01*
X74190007Y-76401225D01*
X74189238Y-76406082D01*
X74189237Y-76406084D01*
X74177473Y-76480364D01*
X74168922Y-76534351D01*
X74169691Y-76539206D01*
X74181456Y-76613486D01*
X74190007Y-76667477D01*
X74251198Y-76787571D01*
X74346506Y-76882879D01*
X74427680Y-76924239D01*
X74441561Y-76931312D01*
X74472628Y-76967686D01*
X74468875Y-77015374D01*
X74432501Y-77046441D01*
X74413187Y-77049500D01*
X73792177Y-77049500D01*
X73747983Y-77031194D01*
X73729677Y-76987000D01*
X73747983Y-76942806D01*
X73828938Y-76861851D01*
X73865012Y-76791051D01*
X73887895Y-76746142D01*
X73887895Y-76746141D01*
X73890129Y-76741757D01*
X73901894Y-76667479D01*
X73910445Y-76613486D01*
X73911214Y-76608631D01*
X73908349Y-76590541D01*
X73890899Y-76480364D01*
X73890898Y-76480362D01*
X73890129Y-76475505D01*
X73887522Y-76470387D01*
X73835826Y-76368930D01*
X73828938Y-76355411D01*
X73784145Y-76310618D01*
X73765839Y-76266424D01*
X73784145Y-76222230D01*
X73795323Y-76211052D01*
X73795325Y-76211049D01*
X73798803Y-76207571D01*
X73801037Y-76203187D01*
X73857760Y-76091862D01*
X73857760Y-76091861D01*
X73859994Y-76087477D01*
X73881079Y-75954351D01*
X73860764Y-75826083D01*
X73860763Y-75826082D01*
X73859994Y-75821225D01*
X73798803Y-75701131D01*
X73703495Y-75605823D01*
X73597067Y-75551595D01*
X73587786Y-75546866D01*
X73587785Y-75546866D01*
X73583401Y-75544632D01*
X73578544Y-75543863D01*
X73578542Y-75543862D01*
X73564712Y-75541672D01*
X73523926Y-75516678D01*
X73512758Y-75470164D01*
X73530295Y-75435747D01*
X73799111Y-75166932D01*
X73843305Y-75148626D01*
X73871679Y-75155438D01*
X73962755Y-75201844D01*
X73962756Y-75201844D01*
X73967140Y-75204078D01*
X73971997Y-75204847D01*
X73971999Y-75204848D01*
X74095411Y-75224394D01*
X74100266Y-75225163D01*
X74105121Y-75224394D01*
X74228533Y-75204848D01*
X74228535Y-75204847D01*
X74233392Y-75204078D01*
X74237776Y-75201844D01*
X74237777Y-75201844D01*
X74328853Y-75155438D01*
X74353486Y-75142887D01*
X74448794Y-75047579D01*
X74509985Y-74927485D01*
X74513052Y-74908126D01*
X74530301Y-74799214D01*
X74531070Y-74794359D01*
X74509985Y-74661233D01*
X74488332Y-74618736D01*
X74451026Y-74545519D01*
X74451025Y-74545518D01*
X74448794Y-74541139D01*
X74447515Y-74539860D01*
X74436646Y-74494580D01*
X74447150Y-74469222D01*
X74448802Y-74467570D01*
X74467086Y-74431687D01*
X74507759Y-74351861D01*
X74507759Y-74351860D01*
X74509993Y-74347476D01*
X74514832Y-74316921D01*
X74539826Y-74276136D01*
X74586340Y-74264968D01*
X74620757Y-74282505D01*
X74656780Y-74318528D01*
X74713594Y-74347476D01*
X74772489Y-74377485D01*
X74772490Y-74377485D01*
X74776874Y-74379719D01*
X74781731Y-74380488D01*
X74781733Y-74380489D01*
X74905145Y-74400035D01*
X74910000Y-74400804D01*
X74914855Y-74400035D01*
X75038267Y-74380489D01*
X75038269Y-74380488D01*
X75043126Y-74379719D01*
X75047510Y-74377485D01*
X75047511Y-74377485D01*
X75106406Y-74347476D01*
X75163220Y-74318528D01*
X75258528Y-74223220D01*
X75319719Y-74103126D01*
X75323883Y-74076839D01*
X75340035Y-73974855D01*
X75340804Y-73970000D01*
X75331018Y-73908214D01*
X75320489Y-73841733D01*
X75320488Y-73841731D01*
X75319719Y-73836874D01*
X75258528Y-73716780D01*
X75163220Y-73621472D01*
X75105202Y-73591910D01*
X75047511Y-73562515D01*
X75047510Y-73562515D01*
X75043126Y-73560281D01*
X75038269Y-73559512D01*
X75038267Y-73559511D01*
X74914855Y-73539965D01*
X74910000Y-73539196D01*
X74905145Y-73539965D01*
X74781733Y-73559511D01*
X74781731Y-73559512D01*
X74776874Y-73560281D01*
X74772490Y-73562515D01*
X74772489Y-73562515D01*
X74714798Y-73591910D01*
X74656780Y-73621472D01*
X74561472Y-73716780D01*
X74500281Y-73836874D01*
X74499512Y-73841731D01*
X74499511Y-73841733D01*
X74495442Y-73867428D01*
X74470448Y-73908214D01*
X74423934Y-73919382D01*
X74389517Y-73901845D01*
X74356359Y-73868687D01*
X74338053Y-73824493D01*
X74344865Y-73796119D01*
X74357220Y-73771872D01*
X74357222Y-73771865D01*
X74359453Y-73767487D01*
X74380538Y-73634361D01*
X74365587Y-73539965D01*
X74360223Y-73506094D01*
X74360222Y-73506092D01*
X74359453Y-73501235D01*
X74298262Y-73381141D01*
X74202954Y-73285833D01*
X74144936Y-73256271D01*
X74087245Y-73226876D01*
X74087244Y-73226876D01*
X74082860Y-73224642D01*
X74078003Y-73223873D01*
X74078001Y-73223872D01*
X73954589Y-73204326D01*
X73949734Y-73203557D01*
X73944879Y-73204326D01*
X73821467Y-73223872D01*
X73821465Y-73223873D01*
X73816608Y-73224642D01*
X73812224Y-73226876D01*
X73812223Y-73226876D01*
X73754532Y-73256271D01*
X73696514Y-73285833D01*
X73601206Y-73381141D01*
X73540015Y-73501235D01*
X73539246Y-73506092D01*
X73539245Y-73506094D01*
X73533881Y-73539965D01*
X73518930Y-73634361D01*
X73540015Y-73767487D01*
X73542249Y-73771871D01*
X73542249Y-73771872D01*
X73544029Y-73775365D01*
X73601206Y-73887581D01*
X73693649Y-73980024D01*
X73711955Y-74024218D01*
X73705143Y-74052592D01*
X73692788Y-74076839D01*
X73692786Y-74076846D01*
X73690555Y-74081224D01*
X73669470Y-74214350D01*
X73670239Y-74219205D01*
X73686324Y-74320761D01*
X73690555Y-74347476D01*
X73692789Y-74351860D01*
X73692789Y-74351861D01*
X73738284Y-74441150D01*
X73742037Y-74488838D01*
X73710970Y-74525212D01*
X73694790Y-74530822D01*
X73691998Y-74531378D01*
X73680610Y-74533643D01*
X73680609Y-74533643D01*
X73674573Y-74534844D01*
X73645140Y-74554511D01*
X73606446Y-74580365D01*
X73606445Y-74580366D01*
X73583444Y-74595735D01*
X73580025Y-74600852D01*
X73580024Y-74600853D01*
X73571493Y-74613620D01*
X73563721Y-74623090D01*
X73143614Y-75043196D01*
X71928731Y-76258078D01*
X71919261Y-76265850D01*
X71906494Y-76274381D01*
X71901376Y-76277801D01*
X71886007Y-76300802D01*
X71886006Y-76300803D01*
X71849518Y-76355411D01*
X71840485Y-76368930D01*
X71836664Y-76388142D01*
X71819103Y-76476425D01*
X71820304Y-76482462D01*
X71823299Y-76497518D01*
X71824500Y-76509712D01*
X71824500Y-77941713D01*
X71823299Y-77953904D01*
X71819103Y-77975000D01*
X50300000Y-77975000D01*
X50300000Y-74775000D01*
X71294196Y-74775000D01*
X71315281Y-74908126D01*
X71376472Y-75028220D01*
X71471780Y-75123528D01*
X71476163Y-75125761D01*
X71587489Y-75182485D01*
X71587490Y-75182485D01*
X71591874Y-75184719D01*
X71596731Y-75185488D01*
X71596733Y-75185489D01*
X71699997Y-75201844D01*
X71714103Y-75204078D01*
X71720145Y-75205035D01*
X71725000Y-75205804D01*
X71729855Y-75205035D01*
X71735898Y-75204078D01*
X71750003Y-75201844D01*
X71853267Y-75185489D01*
X71853269Y-75185488D01*
X71858126Y-75184719D01*
X71862510Y-75182485D01*
X71862511Y-75182485D01*
X71973837Y-75125761D01*
X71978220Y-75123528D01*
X72073528Y-75028220D01*
X72134719Y-74908126D01*
X72155804Y-74775000D01*
X72138555Y-74666092D01*
X72135489Y-74646733D01*
X72135488Y-74646731D01*
X72134719Y-74641874D01*
X72119949Y-74612885D01*
X72090205Y-74554511D01*
X72073528Y-74521780D01*
X71978220Y-74426472D01*
X71920202Y-74396910D01*
X71862511Y-74367515D01*
X71862510Y-74367515D01*
X71858126Y-74365281D01*
X71853269Y-74364512D01*
X71853267Y-74364511D01*
X71729855Y-74344965D01*
X71725000Y-74344196D01*
X71720145Y-74344965D01*
X71596733Y-74364511D01*
X71596731Y-74364512D01*
X71591874Y-74365281D01*
X71587490Y-74367515D01*
X71587489Y-74367515D01*
X71529798Y-74396910D01*
X71471780Y-74426472D01*
X71376472Y-74521780D01*
X71359795Y-74554511D01*
X71330052Y-74612885D01*
X71315281Y-74641874D01*
X71314512Y-74646731D01*
X71314511Y-74646733D01*
X71311445Y-74666092D01*
X71294196Y-74775000D01*
X50300000Y-74775000D01*
X50300000Y-72220000D01*
X72999196Y-72220000D01*
X73020281Y-72353126D01*
X73081472Y-72473220D01*
X73176780Y-72568528D01*
X73181163Y-72570761D01*
X73292489Y-72627485D01*
X73292490Y-72627485D01*
X73296874Y-72629719D01*
X73301731Y-72630488D01*
X73301733Y-72630489D01*
X73425145Y-72650035D01*
X73430000Y-72650804D01*
X73434855Y-72650035D01*
X73558267Y-72630489D01*
X73558269Y-72630488D01*
X73563126Y-72629719D01*
X73567510Y-72627485D01*
X73567511Y-72627485D01*
X73678837Y-72570761D01*
X73683220Y-72568528D01*
X73778528Y-72473220D01*
X73839719Y-72353126D01*
X73860804Y-72220000D01*
X73839719Y-72086874D01*
X73778528Y-71966780D01*
X73683220Y-71871472D01*
X73603405Y-71830804D01*
X73567511Y-71812515D01*
X73567510Y-71812515D01*
X73563126Y-71810281D01*
X73558269Y-71809512D01*
X73558267Y-71809511D01*
X73434855Y-71789965D01*
X73430000Y-71789196D01*
X73425145Y-71789965D01*
X73301733Y-71809511D01*
X73301731Y-71809512D01*
X73296874Y-71810281D01*
X73292490Y-71812515D01*
X73292489Y-71812515D01*
X73256595Y-71830804D01*
X73176780Y-71871472D01*
X73081472Y-71966780D01*
X73020281Y-72086874D01*
X72999196Y-72220000D01*
X50300000Y-72220000D01*
X50300000Y-71400000D01*
X74569196Y-71400000D01*
X74590281Y-71533126D01*
X74651472Y-71653220D01*
X74746780Y-71748528D01*
X74751163Y-71750761D01*
X74862489Y-71807485D01*
X74862490Y-71807485D01*
X74866874Y-71809719D01*
X74871731Y-71810488D01*
X74871733Y-71810489D01*
X74995145Y-71830035D01*
X75000000Y-71830804D01*
X75004855Y-71830035D01*
X75128267Y-71810489D01*
X75128269Y-71810488D01*
X75133126Y-71809719D01*
X75137510Y-71807485D01*
X75137511Y-71807485D01*
X75248837Y-71750761D01*
X75253220Y-71748528D01*
X75348528Y-71653220D01*
X75401121Y-71550000D01*
X77269196Y-71550000D01*
X77290281Y-71683126D01*
X77351472Y-71803220D01*
X77446780Y-71898528D01*
X77451163Y-71900761D01*
X77562489Y-71957485D01*
X77562490Y-71957485D01*
X77566874Y-71959719D01*
X77571731Y-71960488D01*
X77571733Y-71960489D01*
X77695145Y-71980035D01*
X77700000Y-71980804D01*
X77704855Y-71980035D01*
X77828267Y-71960489D01*
X77828269Y-71960488D01*
X77833126Y-71959719D01*
X77837510Y-71957485D01*
X77837511Y-71957485D01*
X77948837Y-71900761D01*
X77953220Y-71898528D01*
X78048528Y-71803220D01*
X78109719Y-71683126D01*
X78130804Y-71550000D01*
X78109719Y-71416874D01*
X78048528Y-71296780D01*
X77953220Y-71201472D01*
X77845881Y-71146780D01*
X77837511Y-71142515D01*
X77837510Y-71142515D01*
X77833126Y-71140281D01*
X77828269Y-71139512D01*
X77828267Y-71139511D01*
X77704855Y-71119965D01*
X77700000Y-71119196D01*
X77695145Y-71119965D01*
X77571733Y-71139511D01*
X77571731Y-71139512D01*
X77566874Y-71140281D01*
X77562490Y-71142515D01*
X77562489Y-71142515D01*
X77554119Y-71146780D01*
X77446780Y-71201472D01*
X77351472Y-71296780D01*
X77290281Y-71416874D01*
X77269196Y-71550000D01*
X75401121Y-71550000D01*
X75409719Y-71533126D01*
X75430804Y-71400000D01*
X75409719Y-71266874D01*
X75348528Y-71146780D01*
X75253220Y-71051472D01*
X75163592Y-71005804D01*
X75137511Y-70992515D01*
X75137510Y-70992515D01*
X75133126Y-70990281D01*
X75128269Y-70989512D01*
X75128267Y-70989511D01*
X75004855Y-70969965D01*
X75000000Y-70969196D01*
X74995145Y-70969965D01*
X74871733Y-70989511D01*
X74871731Y-70989512D01*
X74866874Y-70990281D01*
X74862490Y-70992515D01*
X74862489Y-70992515D01*
X74836408Y-71005804D01*
X74746780Y-71051472D01*
X74651472Y-71146780D01*
X74590281Y-71266874D01*
X74569196Y-71400000D01*
X50300000Y-71400000D01*
X50300000Y-69999642D01*
X51794858Y-69999642D01*
X51798160Y-70014235D01*
X51799163Y-70019857D01*
X51803053Y-70049401D01*
X51808359Y-70089704D01*
X51810296Y-70104421D01*
X51811864Y-70108205D01*
X51811864Y-70108207D01*
X51849031Y-70197936D01*
X51849032Y-70197937D01*
X51850601Y-70201725D01*
X51914717Y-70285282D01*
X51998274Y-70349398D01*
X52002060Y-70350966D01*
X52002063Y-70350968D01*
X52091792Y-70388135D01*
X52091794Y-70388135D01*
X52095578Y-70389703D01*
X52099640Y-70390238D01*
X52099641Y-70390238D01*
X52178456Y-70400614D01*
X52184410Y-70401693D01*
X52195835Y-70404341D01*
X52195837Y-70404341D01*
X52199283Y-70405140D01*
X52199999Y-70405141D01*
X52215677Y-70401565D01*
X52229575Y-70400000D01*
X59969955Y-70400000D01*
X59984068Y-70401614D01*
X59999284Y-70405141D01*
X60000000Y-70405142D01*
X60014691Y-70401791D01*
X60020430Y-70400761D01*
X60050642Y-70396784D01*
X60100359Y-70390239D01*
X60100361Y-70390239D01*
X60104421Y-70389704D01*
X60108205Y-70388136D01*
X60108207Y-70388136D01*
X60197936Y-70350969D01*
X60197939Y-70350967D01*
X60201725Y-70349399D01*
X60285282Y-70285283D01*
X60349398Y-70201726D01*
X60350966Y-70197940D01*
X60350968Y-70197937D01*
X60388135Y-70108208D01*
X60388135Y-70108206D01*
X60389703Y-70104422D01*
X60391847Y-70088136D01*
X60400614Y-70021544D01*
X60401693Y-70015590D01*
X60404341Y-70004165D01*
X60404341Y-70004163D01*
X60405140Y-70000717D01*
X60405141Y-70000001D01*
X60401565Y-69984323D01*
X60400000Y-69970425D01*
X60400000Y-69850000D01*
X71169196Y-69850000D01*
X71169965Y-69854855D01*
X71188232Y-69970188D01*
X71190281Y-69983126D01*
X71192515Y-69987510D01*
X71192515Y-69987511D01*
X71199244Y-70000717D01*
X71251472Y-70103220D01*
X71346780Y-70198528D01*
X71385326Y-70218168D01*
X71462489Y-70257485D01*
X71462490Y-70257485D01*
X71466874Y-70259719D01*
X71471731Y-70260488D01*
X71471733Y-70260489D01*
X71532963Y-70270186D01*
X71558488Y-70274229D01*
X71599274Y-70299223D01*
X71608297Y-70326993D01*
X71610442Y-70326653D01*
X71629461Y-70446733D01*
X71631527Y-70459779D01*
X71692718Y-70579873D01*
X71788026Y-70675181D01*
X71792409Y-70677414D01*
X71903735Y-70734138D01*
X71903736Y-70734138D01*
X71908120Y-70736372D01*
X71912977Y-70737141D01*
X71912979Y-70737142D01*
X72036391Y-70756688D01*
X72041246Y-70757457D01*
X72046101Y-70756688D01*
X72169513Y-70737142D01*
X72169515Y-70737141D01*
X72174372Y-70736372D01*
X72178756Y-70734138D01*
X72178757Y-70734138D01*
X72290083Y-70677414D01*
X72294466Y-70675181D01*
X72389774Y-70579873D01*
X72450965Y-70459779D01*
X72451722Y-70455002D01*
X72969196Y-70455002D01*
X72969965Y-70459857D01*
X72988974Y-70579873D01*
X72990281Y-70588128D01*
X73051472Y-70708222D01*
X73146780Y-70803530D01*
X73151163Y-70805763D01*
X73262489Y-70862487D01*
X73262490Y-70862487D01*
X73266874Y-70864721D01*
X73271731Y-70865490D01*
X73271733Y-70865491D01*
X73395145Y-70885037D01*
X73400000Y-70885806D01*
X73404855Y-70885037D01*
X73528267Y-70865491D01*
X73528269Y-70865490D01*
X73533126Y-70864721D01*
X73537510Y-70862487D01*
X73537511Y-70862487D01*
X73648837Y-70805763D01*
X73653220Y-70803530D01*
X73748528Y-70708222D01*
X73809719Y-70588128D01*
X73811027Y-70579873D01*
X73830035Y-70459857D01*
X73830804Y-70455002D01*
X75369196Y-70455002D01*
X75369965Y-70459857D01*
X75388974Y-70579873D01*
X75390281Y-70588128D01*
X75451472Y-70708222D01*
X75546780Y-70803530D01*
X75551163Y-70805763D01*
X75662489Y-70862487D01*
X75662490Y-70862487D01*
X75666874Y-70864721D01*
X75671731Y-70865490D01*
X75671733Y-70865491D01*
X75795145Y-70885037D01*
X75800000Y-70885806D01*
X75804855Y-70885037D01*
X75928267Y-70865491D01*
X75928269Y-70865490D01*
X75933126Y-70864721D01*
X75937510Y-70862487D01*
X75937511Y-70862487D01*
X76048837Y-70805763D01*
X76053220Y-70803530D01*
X76148528Y-70708222D01*
X76150012Y-70705310D01*
X76190224Y-70680668D01*
X76236737Y-70691836D01*
X76249757Y-70704856D01*
X76251472Y-70708222D01*
X76346780Y-70803530D01*
X76351163Y-70805763D01*
X76462489Y-70862487D01*
X76462490Y-70862487D01*
X76466874Y-70864721D01*
X76471731Y-70865490D01*
X76471733Y-70865491D01*
X76595145Y-70885037D01*
X76600000Y-70885806D01*
X76604855Y-70885037D01*
X76728267Y-70865491D01*
X76728269Y-70865490D01*
X76733126Y-70864721D01*
X76737510Y-70862487D01*
X76737511Y-70862487D01*
X76848837Y-70805763D01*
X76853220Y-70803530D01*
X76948528Y-70708222D01*
X77009719Y-70588128D01*
X77011027Y-70579873D01*
X77030035Y-70459857D01*
X77030804Y-70455002D01*
X77022348Y-70401614D01*
X77010489Y-70326735D01*
X77010488Y-70326733D01*
X77009719Y-70321876D01*
X76991074Y-70285282D01*
X76976910Y-70257485D01*
X76948528Y-70201782D01*
X76853220Y-70106474D01*
X76789376Y-70073944D01*
X76737511Y-70047517D01*
X76737510Y-70047517D01*
X76733126Y-70045283D01*
X76728269Y-70044514D01*
X76728267Y-70044513D01*
X76604855Y-70024967D01*
X76600000Y-70024198D01*
X76595145Y-70024967D01*
X76471733Y-70044513D01*
X76471731Y-70044514D01*
X76466874Y-70045283D01*
X76462490Y-70047517D01*
X76462489Y-70047517D01*
X76410624Y-70073944D01*
X76346780Y-70106474D01*
X76251472Y-70201782D01*
X76249988Y-70204694D01*
X76209776Y-70229336D01*
X76163263Y-70218168D01*
X76150243Y-70205148D01*
X76148528Y-70201782D01*
X76053220Y-70106474D01*
X75989376Y-70073944D01*
X75937511Y-70047517D01*
X75937510Y-70047517D01*
X75933126Y-70045283D01*
X75928269Y-70044514D01*
X75928267Y-70044513D01*
X75804855Y-70024967D01*
X75800000Y-70024198D01*
X75795145Y-70024967D01*
X75671733Y-70044513D01*
X75671731Y-70044514D01*
X75666874Y-70045283D01*
X75662490Y-70047517D01*
X75662489Y-70047517D01*
X75610624Y-70073944D01*
X75546780Y-70106474D01*
X75451472Y-70201782D01*
X75423090Y-70257485D01*
X75408927Y-70285282D01*
X75390281Y-70321876D01*
X75389512Y-70326733D01*
X75389511Y-70326735D01*
X75377652Y-70401614D01*
X75369196Y-70455002D01*
X73830804Y-70455002D01*
X73822348Y-70401614D01*
X73810489Y-70326735D01*
X73810488Y-70326733D01*
X73809719Y-70321876D01*
X73791074Y-70285282D01*
X73776910Y-70257485D01*
X73748528Y-70201782D01*
X73653220Y-70106474D01*
X73589376Y-70073944D01*
X73537511Y-70047517D01*
X73537510Y-70047517D01*
X73533126Y-70045283D01*
X73528269Y-70044514D01*
X73528267Y-70044513D01*
X73404855Y-70024967D01*
X73400000Y-70024198D01*
X73395145Y-70024967D01*
X73271733Y-70044513D01*
X73271731Y-70044514D01*
X73266874Y-70045283D01*
X73262490Y-70047517D01*
X73262489Y-70047517D01*
X73210624Y-70073944D01*
X73146780Y-70106474D01*
X73051472Y-70201782D01*
X73023090Y-70257485D01*
X73008927Y-70285282D01*
X72990281Y-70321876D01*
X72989512Y-70326733D01*
X72989511Y-70326735D01*
X72977652Y-70401614D01*
X72969196Y-70455002D01*
X72451722Y-70455002D01*
X72453032Y-70446733D01*
X72471281Y-70331508D01*
X72472050Y-70326653D01*
X72456183Y-70226472D01*
X72451735Y-70198386D01*
X72451734Y-70198384D01*
X72450965Y-70193527D01*
X72445634Y-70183063D01*
X72406609Y-70106474D01*
X72389774Y-70073433D01*
X72294466Y-69978125D01*
X72230151Y-69945355D01*
X72178757Y-69919168D01*
X72178756Y-69919168D01*
X72174372Y-69916934D01*
X72169515Y-69916165D01*
X72169513Y-69916164D01*
X72098884Y-69904978D01*
X72082758Y-69902424D01*
X72041972Y-69877430D01*
X72032949Y-69849660D01*
X72030804Y-69850000D01*
X72010489Y-69721733D01*
X72010488Y-69721731D01*
X72009719Y-69716874D01*
X72003244Y-69704165D01*
X71950761Y-69601163D01*
X71948528Y-69596780D01*
X71853220Y-69501472D01*
X71795202Y-69471910D01*
X71737511Y-69442515D01*
X71737510Y-69442515D01*
X71733126Y-69440281D01*
X71728269Y-69439512D01*
X71728267Y-69439511D01*
X71604855Y-69419965D01*
X71600000Y-69419196D01*
X71595145Y-69419965D01*
X71471733Y-69439511D01*
X71471731Y-69439512D01*
X71466874Y-69440281D01*
X71462490Y-69442515D01*
X71462489Y-69442515D01*
X71404798Y-69471910D01*
X71346780Y-69501472D01*
X71251472Y-69596780D01*
X71249239Y-69601163D01*
X71196757Y-69704165D01*
X71190281Y-69716874D01*
X71169196Y-69850000D01*
X60400000Y-69850000D01*
X60400000Y-60030045D01*
X60401614Y-60015933D01*
X60403487Y-60007852D01*
X60405141Y-60000716D01*
X60405142Y-60000000D01*
X60401791Y-59985309D01*
X60400761Y-59979568D01*
X60390239Y-59899641D01*
X60390239Y-59899639D01*
X60389704Y-59895579D01*
X60388136Y-59891793D01*
X60350969Y-59802064D01*
X60350967Y-59802060D01*
X60349399Y-59798275D01*
X60285283Y-59714718D01*
X60201726Y-59650602D01*
X60197940Y-59649034D01*
X60197937Y-59649032D01*
X60108208Y-59611865D01*
X60108206Y-59611865D01*
X60104422Y-59610297D01*
X60100360Y-59609762D01*
X60100359Y-59609762D01*
X60021544Y-59599386D01*
X60015590Y-59598307D01*
X60004165Y-59595659D01*
X60004163Y-59595659D01*
X60000717Y-59594860D01*
X60000001Y-59594859D01*
X59984323Y-59598435D01*
X59970425Y-59600000D01*
X52230046Y-59600000D01*
X52215934Y-59598386D01*
X52204164Y-59595658D01*
X52200717Y-59594859D01*
X52200001Y-59594858D01*
X52196490Y-59595659D01*
X52185311Y-59598209D01*
X52179571Y-59599239D01*
X52178452Y-59599386D01*
X52099642Y-59609761D01*
X52099640Y-59609761D01*
X52095580Y-59610296D01*
X52091795Y-59611864D01*
X52091794Y-59611864D01*
X52002060Y-59649033D01*
X51998275Y-59650601D01*
X51995026Y-59653094D01*
X51956496Y-59682659D01*
X51914717Y-59714717D01*
X51850601Y-59798275D01*
X51849034Y-59802059D01*
X51849033Y-59802060D01*
X51811865Y-59891793D01*
X51810296Y-59895580D01*
X51809761Y-59899642D01*
X51809761Y-59899643D01*
X51799385Y-59978458D01*
X51798306Y-59984412D01*
X51794859Y-59999285D01*
X51794858Y-60000001D01*
X51798435Y-60015682D01*
X51800000Y-60029582D01*
X51800000Y-69970188D01*
X51798410Y-69984194D01*
X51797586Y-69987777D01*
X51794858Y-69999642D01*
X50300000Y-69999642D01*
X50300000Y-57528571D01*
X53042264Y-57528571D01*
X53044528Y-57534037D01*
X53243631Y-57680828D01*
X53246549Y-57682738D01*
X53553406Y-57859902D01*
X53556519Y-57861474D01*
X53881214Y-58003330D01*
X53884479Y-58004544D01*
X54222964Y-58109323D01*
X54226344Y-58110166D01*
X54574394Y-58176559D01*
X54577856Y-58177021D01*
X54931147Y-58204206D01*
X54934616Y-58204278D01*
X55288741Y-58191912D01*
X55292200Y-58191597D01*
X55642734Y-58139835D01*
X55646161Y-58139131D01*
X55988720Y-58048623D01*
X55992040Y-58047545D01*
X56322385Y-57919412D01*
X56325566Y-57917969D01*
X56639568Y-57753814D01*
X56642569Y-57752025D01*
X56936330Y-57553881D01*
X56939086Y-57551789D01*
X56955019Y-57538229D01*
X56959353Y-57529759D01*
X56958969Y-57528571D01*
X93042264Y-57528571D01*
X93044528Y-57534037D01*
X93243631Y-57680828D01*
X93246549Y-57682738D01*
X93553406Y-57859902D01*
X93556519Y-57861474D01*
X93881214Y-58003330D01*
X93884479Y-58004544D01*
X94222964Y-58109323D01*
X94226344Y-58110166D01*
X94574394Y-58176559D01*
X94577856Y-58177021D01*
X94931147Y-58204206D01*
X94934616Y-58204278D01*
X95288741Y-58191912D01*
X95292200Y-58191597D01*
X95642734Y-58139835D01*
X95646161Y-58139131D01*
X95988720Y-58048623D01*
X95992040Y-58047545D01*
X96322385Y-57919412D01*
X96325566Y-57917969D01*
X96639568Y-57753814D01*
X96642569Y-57752025D01*
X96936330Y-57553881D01*
X96939086Y-57551789D01*
X96955019Y-57538229D01*
X96959353Y-57529759D01*
X96957102Y-57522788D01*
X95008790Y-55574475D01*
X95000000Y-55570834D01*
X94991210Y-55574475D01*
X93045905Y-57519781D01*
X93042264Y-57528571D01*
X56958969Y-57528571D01*
X56957102Y-57522788D01*
X55008790Y-55574475D01*
X55000000Y-55570834D01*
X54991210Y-55574475D01*
X53045905Y-57519781D01*
X53042264Y-57528571D01*
X50300000Y-57528571D01*
X50300000Y-55029816D01*
X50301590Y-55015810D01*
X50303565Y-55007220D01*
X50305143Y-55000358D01*
X50303590Y-54993494D01*
X50303590Y-54993491D01*
X50302666Y-54989409D01*
X50301184Y-54972891D01*
X50301878Y-54956997D01*
X51795343Y-54956997D01*
X51810181Y-55311004D01*
X51810522Y-55314491D01*
X51864730Y-55664651D01*
X51865449Y-55668035D01*
X51958359Y-56009997D01*
X51959452Y-56013282D01*
X52089893Y-56342740D01*
X52091355Y-56345905D01*
X52257701Y-56658753D01*
X52259509Y-56661739D01*
X52459692Y-56954101D01*
X52461093Y-56955920D01*
X52468229Y-56959510D01*
X52478697Y-56955617D01*
X54425525Y-55008790D01*
X54429166Y-55000000D01*
X55570834Y-55000000D01*
X55574475Y-55008790D01*
X57519441Y-56953755D01*
X57528231Y-56957396D01*
X57533813Y-56955084D01*
X57668500Y-56775044D01*
X57670435Y-56772131D01*
X57849728Y-56466534D01*
X57851330Y-56463416D01*
X57995449Y-56139720D01*
X57996683Y-56136470D01*
X58103819Y-55798735D01*
X58104690Y-55795347D01*
X58173513Y-55447764D01*
X58173997Y-55444320D01*
X58203702Y-55090560D01*
X58203807Y-55088415D01*
X58205027Y-55001074D01*
X58204982Y-54998932D01*
X58202638Y-54956997D01*
X91795343Y-54956997D01*
X91810181Y-55311004D01*
X91810522Y-55314491D01*
X91864730Y-55664651D01*
X91865449Y-55668035D01*
X91958359Y-56009997D01*
X91959452Y-56013282D01*
X92089893Y-56342740D01*
X92091355Y-56345905D01*
X92257701Y-56658753D01*
X92259509Y-56661739D01*
X92459692Y-56954101D01*
X92461093Y-56955920D01*
X92468229Y-56959510D01*
X92478697Y-56955617D01*
X94425525Y-55008790D01*
X94429166Y-55000000D01*
X95570834Y-55000000D01*
X95574475Y-55008790D01*
X97519441Y-56953755D01*
X97528231Y-56957396D01*
X97533813Y-56955084D01*
X97668500Y-56775044D01*
X97670435Y-56772131D01*
X97849728Y-56466534D01*
X97851330Y-56463416D01*
X97995449Y-56139720D01*
X97996683Y-56136470D01*
X98103819Y-55798735D01*
X98104690Y-55795347D01*
X98173513Y-55447764D01*
X98173997Y-55444320D01*
X98203702Y-55090560D01*
X98203807Y-55088415D01*
X98205027Y-55001074D01*
X98204982Y-54998932D01*
X98185165Y-54644468D01*
X98184778Y-54641025D01*
X98125687Y-54291654D01*
X98124912Y-54288244D01*
X98027246Y-53947643D01*
X98026102Y-53944358D01*
X97891078Y-53616766D01*
X97889568Y-53613613D01*
X97718868Y-53303112D01*
X97717029Y-53300168D01*
X97537434Y-53045577D01*
X97529391Y-53040492D01*
X97523973Y-53041713D01*
X95574475Y-54991210D01*
X95570834Y-55000000D01*
X94429166Y-55000000D01*
X94425525Y-54991210D01*
X92479766Y-53045452D01*
X92470976Y-53041811D01*
X92465624Y-53044028D01*
X92306971Y-53262395D01*
X92305085Y-53265323D01*
X92130070Y-53573406D01*
X92128519Y-53576529D01*
X91988933Y-53902208D01*
X91987741Y-53905482D01*
X91885333Y-54244673D01*
X91884506Y-54248093D01*
X91820548Y-54596575D01*
X91820109Y-54600049D01*
X91795392Y-54953511D01*
X91795343Y-54956997D01*
X58202638Y-54956997D01*
X58185165Y-54644468D01*
X58184778Y-54641025D01*
X58125687Y-54291654D01*
X58124912Y-54288244D01*
X58027246Y-53947643D01*
X58026102Y-53944358D01*
X57891078Y-53616766D01*
X57889568Y-53613613D01*
X57718868Y-53303112D01*
X57717029Y-53300168D01*
X57537434Y-53045577D01*
X57529391Y-53040492D01*
X57523973Y-53041713D01*
X55574475Y-54991210D01*
X55570834Y-55000000D01*
X54429166Y-55000000D01*
X54425525Y-54991210D01*
X52479766Y-53045452D01*
X52470976Y-53041811D01*
X52465624Y-53044028D01*
X52306971Y-53262395D01*
X52305085Y-53265323D01*
X52130070Y-53573406D01*
X52128519Y-53576529D01*
X51988933Y-53902208D01*
X51987741Y-53905482D01*
X51885333Y-54244673D01*
X51884506Y-54248093D01*
X51820548Y-54596575D01*
X51820109Y-54600049D01*
X51795392Y-54953511D01*
X51795343Y-54956997D01*
X50301878Y-54956997D01*
X50317766Y-54593086D01*
X50318242Y-54587654D01*
X50371047Y-54186567D01*
X50371993Y-54181198D01*
X50459560Y-53786208D01*
X50460972Y-53780941D01*
X50513730Y-53613613D01*
X50582626Y-53395102D01*
X50584489Y-53389984D01*
X50739310Y-53016215D01*
X50741614Y-53011274D01*
X50928420Y-52652423D01*
X50931146Y-52647701D01*
X51044449Y-52469851D01*
X53039693Y-52469851D01*
X53040851Y-52475165D01*
X54991210Y-54425525D01*
X55000000Y-54429166D01*
X55008790Y-54425525D01*
X56955114Y-52479200D01*
X56958755Y-52470410D01*
X56958523Y-52469851D01*
X93039693Y-52469851D01*
X93040851Y-52475165D01*
X94991210Y-54425525D01*
X95000000Y-54429166D01*
X95008790Y-54425525D01*
X96955114Y-52479200D01*
X96958755Y-52470410D01*
X96956584Y-52465169D01*
X96718772Y-52294914D01*
X96715821Y-52293041D01*
X96406525Y-52120180D01*
X96403381Y-52118647D01*
X96076748Y-51981344D01*
X96073459Y-51980172D01*
X95733551Y-51880133D01*
X95730150Y-51879335D01*
X95381223Y-51817809D01*
X95377741Y-51817394D01*
X95024123Y-51795146D01*
X95020619Y-51795122D01*
X94666732Y-51812430D01*
X94663255Y-51812796D01*
X94313494Y-51869444D01*
X94310079Y-51870194D01*
X93968802Y-51965481D01*
X93965509Y-51966602D01*
X93636972Y-52099339D01*
X93633829Y-52100818D01*
X93322140Y-52269348D01*
X93319170Y-52271175D01*
X93044833Y-52461844D01*
X93039693Y-52469851D01*
X56958523Y-52469851D01*
X56956584Y-52465169D01*
X56718772Y-52294914D01*
X56715821Y-52293041D01*
X56406525Y-52120180D01*
X56403381Y-52118647D01*
X56076748Y-51981344D01*
X56073459Y-51980172D01*
X55733551Y-51880133D01*
X55730150Y-51879335D01*
X55381223Y-51817809D01*
X55377741Y-51817394D01*
X55024123Y-51795146D01*
X55020619Y-51795122D01*
X54666732Y-51812430D01*
X54663255Y-51812796D01*
X54313494Y-51869444D01*
X54310079Y-51870194D01*
X53968802Y-51965481D01*
X53965509Y-51966602D01*
X53636972Y-52099339D01*
X53633829Y-52100818D01*
X53322140Y-52269348D01*
X53319170Y-52271175D01*
X53044833Y-52461844D01*
X53039693Y-52469851D01*
X51044449Y-52469851D01*
X51148516Y-52306499D01*
X51151643Y-52302032D01*
X51397935Y-51981057D01*
X51401440Y-51976881D01*
X51547202Y-51817809D01*
X51674758Y-51678606D01*
X51678610Y-51674754D01*
X51976881Y-51401440D01*
X51981057Y-51397935D01*
X52302032Y-51151643D01*
X52306499Y-51148516D01*
X52647701Y-50931146D01*
X52652423Y-50928420D01*
X53011274Y-50741614D01*
X53016215Y-50739310D01*
X53203100Y-50661899D01*
X53389989Y-50584487D01*
X53395102Y-50582626D01*
X53780939Y-50460972D01*
X53786208Y-50459560D01*
X54181198Y-50371993D01*
X54186567Y-50371047D01*
X54332523Y-50351831D01*
X54587661Y-50318241D01*
X54593078Y-50317767D01*
X54772253Y-50309944D01*
X54972437Y-50301204D01*
X54989164Y-50302734D01*
X54999642Y-50305143D01*
X55006505Y-50303590D01*
X55006507Y-50303590D01*
X55015561Y-50301541D01*
X55029354Y-50300000D01*
X94970184Y-50300000D01*
X94984190Y-50301590D01*
G37*
G04 #@! TD.AperFunction*
M02*
