M48
; DRILL file {KiCad 6.0.0-d3dd2cf0fa~116~ubuntu20.04.1} date Wed 19 Jan 2022 12:50:33 AM CET
; FORMAT={-:-/ absolute / metric / decimal}
; #@! TF.CreationDate,2022-01-19T00:50:33+01:00
; #@! TF.GenerationSoftware,Kicad,Pcbnew,6.0.0-d3dd2cf0fa~116~ubuntu20.04.1
; #@! TF.FileFunction,Plated,1,4,PTH
FMAT,2
METRIC
; #@! TA.AperFunction,Plated,PTH,ViaDrill
T1C0.200
; #@! TA.AperFunction,Plated,PTH,ComponentDrill
T2C0.500
; #@! TA.AperFunction,Plated,PTH,ComponentDrill
T3C3.000
%
G90
G05
T1
X69.0Y-74.0
X69.5Y-71.9
X69.8Y-78.2
X70.0Y-65.0
X70.5Y-72.6
X70.7Y-68.0
X70.9Y-74.9
X71.4Y-73.2
X71.45Y-76.8
X71.5Y-78.2
X71.6Y-69.85
X71.7Y-58.9
X71.7Y-60.6
X71.725Y-74.775
X71.8Y-62.6
X72.0Y-71.5
X72.041Y-70.327
X72.22Y-81.22
X72.3Y-65.0
X72.6Y-69.25
X72.85Y-78.725
X73.4Y-69.25
X73.4Y-70.455
X73.43Y-72.22
X73.45Y-75.954
X73.48Y-76.609
X73.7Y-65.0
X73.825Y-78.1
X73.9Y-71.7
X73.95Y-73.634
X74.1Y-74.794
X74.1Y-74.214
X74.15Y-80.4
X74.2Y-69.25
X74.3Y-68.0
X74.475Y-78.725
X74.6Y-75.954
X74.6Y-76.534
X74.91Y-73.97
X75.0Y-71.4
X75.25Y-75.954
X75.3Y-58.9
X75.3Y-60.6
X75.35Y-79.65
X75.4Y-62.6
X75.65Y-74.025
X75.8Y-65.0
X75.8Y-69.275
X75.8Y-70.455
X75.825Y-78.15
X75.9Y-76.534
X75.9Y-75.954
X75.925Y-72.975
X76.425Y-80.625
X76.55Y-75.374
X76.6Y-69.275
X76.6Y-70.455
X77.2Y-65.0
X77.275Y-73.571
X77.325Y-77.9
X77.35Y-80.55
X77.7Y-69.425
X77.7Y-71.55
X77.9Y-68.0
X78.0Y-77.275
X78.4Y-80.55
X78.425Y-77.825
X78.502Y-76.881
X78.9Y-58.9
X78.9Y-60.6
X79.0Y-62.6
X79.1Y-71.2
X79.25Y-73.15
X79.4Y-65.0
X79.7Y-77.7
X80.1Y-72.35
X80.7Y-69.5
X80.875Y-78.675
X81.0Y-66.1
X81.125Y-75.45
X81.7Y-73.175
X82.05Y-79.875
X82.2Y-69.25
X82.5Y-82.4
X83.1Y-66.125
X83.75Y-79.475
X83.975Y-70.675
X84.7Y-62.3
X84.75Y-64.45
X84.8Y-76.925
X85.6Y-76.2
X85.95Y-66.65
X85.95Y-73.325
X86.7Y-70.025
X86.725Y-62.625
X87.875Y-64.7
X88.0Y-73.8
X88.2Y-78.2
X88.325Y-66.25
X88.4Y-68.4
X88.4Y-70.4
X88.4Y-72.0
X89.2Y-65.975
X89.7Y-61.1
X89.72Y-67.86
X89.825Y-63.05
X89.875Y-71.75
X89.9Y-73.3
X90.3Y-66.5
X90.35Y-64.5
X90.375Y-63.6
X90.425Y-62.35
X90.433Y-74.183
X90.45Y-61.425
X90.55Y-67.2
X90.92Y-70.44
X91.025Y-72.2
X91.6Y-74.7
X92.2Y-63.15
X92.2Y-69.0
X92.25Y-65.15
X92.25Y-66.4
X92.4Y-61.3
X92.75Y-67.5
X93.175Y-62.7
X93.2Y-66.375
X93.225Y-61.925
X93.25Y-63.925
X93.275Y-64.5
X93.3Y-65.75
X93.35Y-70.65
X93.6Y-67.425
X94.0Y-70.2
X94.675Y-66.9
X94.7Y-62.4
X94.7Y-64.2
X94.7Y-66.0
X94.7Y-70.575
X94.85Y-71.34
X95.3Y-59.5
T2
X52.75Y-55.0
X52.75Y-95.0
X53.409Y-53.409
X53.409Y-56.591
X53.409Y-93.409
X53.409Y-96.591
X55.0Y-52.75
X55.0Y-57.25
X55.0Y-92.75
X55.0Y-97.25
X56.591Y-53.409
X56.591Y-56.591
X56.591Y-93.409
X56.591Y-96.591
X57.25Y-55.0
X57.25Y-95.0
X92.75Y-55.0
X92.75Y-95.0
X93.409Y-53.409
X93.409Y-56.591
X93.409Y-93.409
X93.409Y-96.591
X95.0Y-52.75
X95.0Y-57.25
X95.0Y-92.75
X95.0Y-97.25
X96.591Y-53.409
X96.591Y-56.591
X96.591Y-93.409
X96.591Y-96.591
X97.25Y-55.0
X97.25Y-95.0
T3
X55.0Y-55.0
X55.0Y-95.0
X95.0Y-55.0
X95.0Y-95.0
T0
M30
