G04 #@! TF.GenerationSoftware,KiCad,Pcbnew,6.0.0-d3dd2cf0fa~116~ubuntu20.04.1*
G04 #@! TF.CreationDate,2022-01-19T00:50:29+01:00*
G04 #@! TF.ProjectId,sensor,73656e73-6f72-42e6-9b69-6361645f7063,rev?*
G04 #@! TF.SameCoordinates,Original*
G04 #@! TF.FileFunction,Copper,L1,Top*
G04 #@! TF.FilePolarity,Positive*
%FSLAX46Y46*%
G04 Gerber Fmt 4.6, Leading zero omitted, Abs format (unit mm)*
G04 Created by KiCad (PCBNEW 6.0.0-d3dd2cf0fa~116~ubuntu20.04.1) date 2022-01-19 00:50:29*
%MOMM*%
%LPD*%
G01*
G04 APERTURE LIST*
G04 #@! TA.AperFunction,SMDPad,CuDef*
%ADD10R,0.600000X0.500000*%
G04 #@! TD*
G04 #@! TA.AperFunction,SMDPad,CuDef*
%ADD11R,0.500000X0.600000*%
G04 #@! TD*
G04 #@! TA.AperFunction,ComponentPad*
%ADD12C,0.800000*%
G04 #@! TD*
G04 #@! TA.AperFunction,ComponentPad*
%ADD13C,6.000000*%
G04 #@! TD*
G04 #@! TA.AperFunction,ViaPad*
%ADD14C,0.450000*%
G04 #@! TD*
G04 #@! TA.AperFunction,Conductor*
%ADD15C,0.200000*%
G04 #@! TD*
G04 #@! TA.AperFunction,Conductor*
%ADD16C,0.150000*%
G04 #@! TD*
G04 APERTURE END LIST*
D10*
X78400000Y-78830000D03*
X78400000Y-79770000D03*
X77350000Y-78830000D03*
X77350000Y-79770000D03*
D11*
X76520000Y-74700000D03*
X75580000Y-74700000D03*
D12*
X55000000Y-52750000D03*
X57250000Y-55000000D03*
X52750000Y-55000000D03*
X53409010Y-56590990D03*
X53409010Y-53409010D03*
D13*
X55000000Y-55000000D03*
D12*
X56590990Y-56590990D03*
X55000000Y-57250000D03*
X56590990Y-53409010D03*
X56590990Y-96590990D03*
X53409010Y-93409010D03*
X52750000Y-95000000D03*
D13*
X55000000Y-95000000D03*
D12*
X55000000Y-97250000D03*
X55000000Y-92750000D03*
X57250000Y-95000000D03*
X53409010Y-96590990D03*
X56590990Y-93409010D03*
X92750000Y-55000000D03*
X96590990Y-53409010D03*
X93409010Y-56590990D03*
X95000000Y-57250000D03*
X97250000Y-55000000D03*
X95000000Y-52750000D03*
X93409010Y-53409010D03*
D13*
X95000000Y-55000000D03*
D12*
X96590990Y-56590990D03*
X93409010Y-93409010D03*
X93409010Y-96590990D03*
X96590990Y-96590990D03*
X95000000Y-97250000D03*
X96590990Y-93409010D03*
D13*
X95000000Y-95000000D03*
D12*
X97250000Y-95000000D03*
X95000000Y-92750000D03*
X92750000Y-95000000D03*
D14*
X69000000Y-74000000D03*
X70000000Y-65000000D03*
X77700000Y-69425000D03*
X70700000Y-68000000D03*
X70900000Y-74900000D03*
X95300000Y-59500000D03*
X92250000Y-66400000D03*
X78502419Y-76881342D03*
X81125000Y-75450000D03*
X91025000Y-72200000D03*
X85600000Y-76200000D03*
X69800000Y-78200000D03*
X94700000Y-64200000D03*
X70500000Y-72600000D03*
X94700000Y-66000000D03*
X79700000Y-77700000D03*
X79100000Y-71200000D03*
X85950000Y-73325000D03*
X81700000Y-73175000D03*
X73400000Y-69250000D03*
X75249727Y-75954350D03*
X92750000Y-67500000D03*
X77350000Y-80550000D03*
X94850000Y-71340000D03*
X78900000Y-58900000D03*
X82500000Y-82400000D03*
X91600000Y-74700000D03*
X84700000Y-62300000D03*
X82050000Y-79875000D03*
X88200000Y-78200000D03*
X94700000Y-62400000D03*
X84800000Y-76925000D03*
X74200000Y-69250000D03*
X88400000Y-70400000D03*
X72000000Y-71500000D03*
X76600000Y-69275000D03*
X81000000Y-66100000D03*
X72300000Y-65000000D03*
X77900000Y-68000000D03*
X92250000Y-65150000D03*
X79400000Y-65000000D03*
X89875000Y-71750000D03*
X88400000Y-72000000D03*
X69500000Y-71900000D03*
X90425000Y-62350000D03*
X80875000Y-78675000D03*
X71700000Y-58900000D03*
X71400000Y-73200000D03*
X88325000Y-66250000D03*
X90920000Y-70440000D03*
X86725000Y-62625000D03*
X84750000Y-64450000D03*
X80100000Y-72350000D03*
X75800000Y-65000000D03*
X80700000Y-69500000D03*
X79000000Y-62600000D03*
X88000000Y-73800000D03*
X79250000Y-73150000D03*
X71500000Y-78200000D03*
X71700000Y-60600000D03*
X87875000Y-64700000D03*
X78400000Y-80550000D03*
X75650000Y-74025000D03*
X71800000Y-62600000D03*
X88400000Y-68400000D03*
X75300000Y-58900000D03*
X72220000Y-81220000D03*
X83100000Y-66125000D03*
X92400000Y-61300000D03*
X83750000Y-79475000D03*
X77274997Y-73571264D03*
X89900000Y-73300000D03*
X73900000Y-71700000D03*
X77200000Y-65000000D03*
X75300000Y-60600000D03*
X74150000Y-80400000D03*
X78900000Y-60600000D03*
X92200000Y-69000000D03*
X71450000Y-76800000D03*
X73700000Y-65000000D03*
X86700000Y-70025000D03*
X85950000Y-66650000D03*
X75925000Y-72975000D03*
X74300000Y-68000000D03*
X75400000Y-62600000D03*
X82200000Y-69250000D03*
X89700000Y-61100000D03*
X75800000Y-69275000D03*
X89720000Y-67860000D03*
X75350000Y-79650000D03*
X92200000Y-63150000D03*
X72600000Y-69250000D03*
X90300000Y-66500000D03*
X83975000Y-70675000D03*
X94000000Y-70200000D03*
X76425000Y-80625000D03*
X77700000Y-71550000D03*
X78000000Y-77275000D03*
X75825000Y-78150000D03*
X78425000Y-77825000D03*
X71600000Y-69850000D03*
X73430000Y-72220000D03*
X73949734Y-73634361D03*
X73400000Y-70455002D03*
X75800000Y-70455002D03*
X77325000Y-77900000D03*
X73825000Y-78100000D03*
X72041246Y-70326653D03*
X76600000Y-70455002D03*
X76549725Y-75374351D03*
X89200000Y-65975000D03*
X93300000Y-65750000D03*
X74100266Y-74794359D03*
X72850000Y-78725000D03*
X93600010Y-67424596D03*
X93350000Y-70650004D03*
X93225000Y-61925000D03*
X73450275Y-75954351D03*
X75899725Y-76534353D03*
X93275000Y-64500000D03*
X93250000Y-63925000D03*
X74599726Y-75954351D03*
X89825000Y-63050000D03*
X93175000Y-62700000D03*
X90350000Y-64500000D03*
X75899726Y-75954350D03*
X90550000Y-67200000D03*
X90432850Y-74182850D03*
X90450000Y-61425000D03*
X73480410Y-76608631D03*
X74599726Y-76534351D03*
X90375000Y-63600000D03*
X74910000Y-73970000D03*
X75000000Y-71400000D03*
X94700000Y-70575000D03*
X74100274Y-74214350D03*
X94675000Y-66900000D03*
X71725000Y-74775000D03*
X74475000Y-78725000D03*
X93200000Y-66375000D03*
D15*
X77350000Y-79770000D02*
X77350000Y-80550000D01*
X78400000Y-79770000D02*
X78400000Y-80550000D01*
X77924999Y-71774999D02*
X77700000Y-71550000D01*
X78025009Y-77249991D02*
X78025009Y-71875009D01*
X78025009Y-71875009D02*
X77924999Y-71774999D01*
X78000000Y-77275000D02*
X78025009Y-77249991D01*
X78425000Y-77825000D02*
X77875000Y-77825000D01*
X75800000Y-70455002D02*
X73400000Y-70455002D01*
X76330002Y-69925000D02*
X75800000Y-70455002D01*
X77700002Y-72550002D02*
X77150000Y-72000000D01*
X73430000Y-72220000D02*
X73949734Y-72739734D01*
X77150000Y-70225000D02*
X76850000Y-69925000D01*
X72855002Y-70455002D02*
X72250000Y-69850000D01*
X77525000Y-77100000D02*
X77700002Y-76924998D01*
X76850000Y-69925000D02*
X76330002Y-69925000D01*
X77700002Y-76924998D02*
X77700002Y-72550002D01*
X73400000Y-70455002D02*
X72855002Y-70455002D01*
X78425000Y-77825000D02*
X78425000Y-78805000D01*
X73949734Y-72739734D02*
X73949734Y-73634361D01*
X77875000Y-77825000D02*
X77525000Y-77475000D01*
X77150000Y-72000000D02*
X77150000Y-70225000D01*
X77525000Y-77475000D02*
X77525000Y-77100000D01*
X72250000Y-69850000D02*
X71600000Y-69850000D01*
X78425000Y-78805000D02*
X78400000Y-78830000D01*
X76520000Y-74700000D02*
X76520000Y-75344626D01*
X72614593Y-70900000D02*
X72041246Y-70326653D01*
X76520000Y-74700000D02*
X76520000Y-70946800D01*
X77325000Y-77900000D02*
X76568741Y-77143741D01*
X76600000Y-70455002D02*
X76600000Y-70773200D01*
X76568741Y-77143741D02*
X76549726Y-77124726D01*
X77325000Y-78805000D02*
X77350000Y-78830000D01*
X76600000Y-70773200D02*
X76473200Y-70900000D01*
X76473200Y-70900000D02*
X72614593Y-70900000D01*
X74750000Y-78100000D02*
X73825000Y-78100000D01*
X76549726Y-77124726D02*
X76549725Y-75692549D01*
X76549725Y-75692549D02*
X76549725Y-75374351D01*
X76568741Y-77143741D02*
X75706259Y-77143741D01*
X77325000Y-77900000D02*
X77325000Y-78805000D01*
X75706259Y-77143741D02*
X74750000Y-78100000D01*
X76520000Y-70946800D02*
X76473200Y-70900000D01*
X76520000Y-75344626D02*
X76549725Y-75374351D01*
D16*
X93375011Y-67649595D02*
X93600010Y-67424596D01*
X93350000Y-70650004D02*
X93350000Y-67674606D01*
X93350000Y-67674606D02*
X93375011Y-67649595D01*
X90432850Y-74182850D02*
X90432850Y-67317150D01*
X90432850Y-67317150D02*
X90550000Y-67200000D01*
X94675000Y-66900000D02*
X94675000Y-70550000D01*
X94675000Y-70550000D02*
X94700000Y-70575000D01*
G04 #@! TA.AperFunction,Conductor*
G36*
X94984190Y-50301590D02*
G01*
X94988870Y-50302666D01*
X94999642Y-50305143D01*
X95006506Y-50303590D01*
X95006509Y-50303590D01*
X95010591Y-50302666D01*
X95027109Y-50301184D01*
X95117789Y-50305143D01*
X95406922Y-50317767D01*
X95412339Y-50318241D01*
X95667477Y-50351831D01*
X95813433Y-50371047D01*
X95818802Y-50371993D01*
X96213792Y-50459560D01*
X96219061Y-50460972D01*
X96604898Y-50582626D01*
X96610011Y-50584487D01*
X96796901Y-50661900D01*
X96983785Y-50739310D01*
X96988726Y-50741614D01*
X97347577Y-50928420D01*
X97352299Y-50931146D01*
X97693501Y-51148516D01*
X97697968Y-51151643D01*
X98018943Y-51397935D01*
X98023119Y-51401440D01*
X98321390Y-51674754D01*
X98325242Y-51678606D01*
X98452798Y-51817809D01*
X98598560Y-51976881D01*
X98602065Y-51981057D01*
X98848357Y-52302032D01*
X98851484Y-52306499D01*
X99068854Y-52647701D01*
X99071580Y-52652423D01*
X99258386Y-53011274D01*
X99260690Y-53016215D01*
X99415511Y-53389984D01*
X99417374Y-53395102D01*
X99486270Y-53613613D01*
X99539028Y-53780941D01*
X99540440Y-53786208D01*
X99628007Y-54181198D01*
X99628953Y-54186567D01*
X99681758Y-54587654D01*
X99682234Y-54593086D01*
X99698796Y-54972437D01*
X99697266Y-54989164D01*
X99694857Y-54999642D01*
X99696410Y-55006505D01*
X99696410Y-55006507D01*
X99698459Y-55015561D01*
X99700000Y-55029354D01*
X99700000Y-94970184D01*
X99698410Y-94984190D01*
X99694857Y-94999642D01*
X99696410Y-95006506D01*
X99696410Y-95006509D01*
X99697334Y-95010591D01*
X99698816Y-95027109D01*
X99682234Y-95406914D01*
X99681758Y-95412346D01*
X99628953Y-95813433D01*
X99628007Y-95818802D01*
X99540440Y-96213792D01*
X99539028Y-96219059D01*
X99417376Y-96604892D01*
X99415513Y-96610011D01*
X99348360Y-96772131D01*
X99260690Y-96983785D01*
X99258386Y-96988726D01*
X99071580Y-97347577D01*
X99068854Y-97352299D01*
X98851484Y-97693501D01*
X98848357Y-97697968D01*
X98602065Y-98018943D01*
X98598562Y-98023117D01*
X98457959Y-98176559D01*
X98325246Y-98321390D01*
X98321390Y-98325246D01*
X98023119Y-98598560D01*
X98018943Y-98602065D01*
X97697968Y-98848357D01*
X97693501Y-98851484D01*
X97352299Y-99068854D01*
X97347577Y-99071580D01*
X96988726Y-99258386D01*
X96983785Y-99260690D01*
X96953586Y-99273199D01*
X96610011Y-99415513D01*
X96604898Y-99417374D01*
X96298421Y-99514005D01*
X96219059Y-99539028D01*
X96213792Y-99540440D01*
X95818802Y-99628007D01*
X95813433Y-99628953D01*
X95667477Y-99648169D01*
X95412339Y-99681759D01*
X95406922Y-99682233D01*
X95227747Y-99690056D01*
X95027563Y-99698796D01*
X95010836Y-99697266D01*
X95000358Y-99694857D01*
X94993495Y-99696410D01*
X94993493Y-99696410D01*
X94984439Y-99698459D01*
X94970646Y-99700000D01*
X55029816Y-99700000D01*
X55015810Y-99698410D01*
X55007220Y-99696435D01*
X55000358Y-99694857D01*
X54993494Y-99696410D01*
X54993491Y-99696410D01*
X54989409Y-99697334D01*
X54972891Y-99698816D01*
X54866026Y-99694150D01*
X54593078Y-99682233D01*
X54587661Y-99681759D01*
X54332523Y-99648169D01*
X54186567Y-99628953D01*
X54181198Y-99628007D01*
X53786208Y-99540440D01*
X53780941Y-99539028D01*
X53701579Y-99514005D01*
X53395102Y-99417374D01*
X53389989Y-99415513D01*
X53046414Y-99273199D01*
X53016215Y-99260690D01*
X53011274Y-99258386D01*
X52652423Y-99071580D01*
X52647701Y-99068854D01*
X52306499Y-98851484D01*
X52302032Y-98848357D01*
X51981057Y-98602065D01*
X51976881Y-98598560D01*
X51678610Y-98325246D01*
X51674754Y-98321390D01*
X51542042Y-98176559D01*
X51401438Y-98023117D01*
X51397935Y-98018943D01*
X51151643Y-97697968D01*
X51148516Y-97693501D01*
X51043444Y-97528571D01*
X53042264Y-97528571D01*
X53044528Y-97534037D01*
X53243631Y-97680828D01*
X53246549Y-97682738D01*
X53553406Y-97859902D01*
X53556519Y-97861474D01*
X53881214Y-98003330D01*
X53884479Y-98004544D01*
X54222964Y-98109323D01*
X54226344Y-98110166D01*
X54574394Y-98176559D01*
X54577856Y-98177021D01*
X54931147Y-98204206D01*
X54934616Y-98204278D01*
X55288741Y-98191912D01*
X55292200Y-98191597D01*
X55642734Y-98139835D01*
X55646161Y-98139131D01*
X55988720Y-98048623D01*
X55992040Y-98047545D01*
X56322385Y-97919412D01*
X56325566Y-97917969D01*
X56639568Y-97753814D01*
X56642569Y-97752025D01*
X56936330Y-97553881D01*
X56939086Y-97551789D01*
X56955019Y-97538229D01*
X56959353Y-97529759D01*
X56958969Y-97528571D01*
X93042264Y-97528571D01*
X93044528Y-97534037D01*
X93243631Y-97680828D01*
X93246549Y-97682738D01*
X93553406Y-97859902D01*
X93556519Y-97861474D01*
X93881214Y-98003330D01*
X93884479Y-98004544D01*
X94222964Y-98109323D01*
X94226344Y-98110166D01*
X94574394Y-98176559D01*
X94577856Y-98177021D01*
X94931147Y-98204206D01*
X94934616Y-98204278D01*
X95288741Y-98191912D01*
X95292200Y-98191597D01*
X95642734Y-98139835D01*
X95646161Y-98139131D01*
X95988720Y-98048623D01*
X95992040Y-98047545D01*
X96322385Y-97919412D01*
X96325566Y-97917969D01*
X96639568Y-97753814D01*
X96642569Y-97752025D01*
X96936330Y-97553881D01*
X96939086Y-97551789D01*
X96955019Y-97538229D01*
X96959353Y-97529759D01*
X96957102Y-97522788D01*
X95008790Y-95574475D01*
X95000000Y-95570834D01*
X94991210Y-95574475D01*
X93045905Y-97519781D01*
X93042264Y-97528571D01*
X56958969Y-97528571D01*
X56957102Y-97522788D01*
X55008790Y-95574475D01*
X55000000Y-95570834D01*
X54991210Y-95574475D01*
X53045905Y-97519781D01*
X53042264Y-97528571D01*
X51043444Y-97528571D01*
X50931146Y-97352299D01*
X50928420Y-97347577D01*
X50741614Y-96988726D01*
X50739310Y-96983785D01*
X50651640Y-96772131D01*
X50584487Y-96610011D01*
X50582624Y-96604892D01*
X50460972Y-96219059D01*
X50459560Y-96213792D01*
X50371993Y-95818802D01*
X50371047Y-95813433D01*
X50318242Y-95412346D01*
X50317766Y-95406914D01*
X50301204Y-95027563D01*
X50302734Y-95010836D01*
X50305143Y-95000358D01*
X50303429Y-94992780D01*
X50301541Y-94984439D01*
X50300000Y-94970646D01*
X50300000Y-94956997D01*
X51795343Y-94956997D01*
X51810181Y-95311004D01*
X51810522Y-95314491D01*
X51864730Y-95664651D01*
X51865449Y-95668035D01*
X51958359Y-96009997D01*
X51959452Y-96013282D01*
X52089893Y-96342740D01*
X52091355Y-96345905D01*
X52257701Y-96658753D01*
X52259509Y-96661739D01*
X52459692Y-96954101D01*
X52461093Y-96955920D01*
X52468229Y-96959510D01*
X52478697Y-96955617D01*
X54425525Y-95008790D01*
X54429166Y-95000000D01*
X55570834Y-95000000D01*
X55574475Y-95008790D01*
X57519441Y-96953755D01*
X57528231Y-96957396D01*
X57533813Y-96955084D01*
X57668500Y-96775044D01*
X57670435Y-96772131D01*
X57849728Y-96466534D01*
X57851330Y-96463416D01*
X57995449Y-96139720D01*
X57996683Y-96136470D01*
X58103819Y-95798735D01*
X58104690Y-95795347D01*
X58173513Y-95447764D01*
X58173997Y-95444320D01*
X58203702Y-95090560D01*
X58203807Y-95088415D01*
X58205027Y-95001074D01*
X58204982Y-94998932D01*
X58202638Y-94956997D01*
X91795343Y-94956997D01*
X91810181Y-95311004D01*
X91810522Y-95314491D01*
X91864730Y-95664651D01*
X91865449Y-95668035D01*
X91958359Y-96009997D01*
X91959452Y-96013282D01*
X92089893Y-96342740D01*
X92091355Y-96345905D01*
X92257701Y-96658753D01*
X92259509Y-96661739D01*
X92459692Y-96954101D01*
X92461093Y-96955920D01*
X92468229Y-96959510D01*
X92478697Y-96955617D01*
X94425525Y-95008790D01*
X94429166Y-95000000D01*
X95570834Y-95000000D01*
X95574475Y-95008790D01*
X97519441Y-96953755D01*
X97528231Y-96957396D01*
X97533813Y-96955084D01*
X97668500Y-96775044D01*
X97670435Y-96772131D01*
X97849728Y-96466534D01*
X97851330Y-96463416D01*
X97995449Y-96139720D01*
X97996683Y-96136470D01*
X98103819Y-95798735D01*
X98104690Y-95795347D01*
X98173513Y-95447764D01*
X98173997Y-95444320D01*
X98203702Y-95090560D01*
X98203807Y-95088415D01*
X98205027Y-95001074D01*
X98204982Y-94998932D01*
X98185165Y-94644468D01*
X98184778Y-94641025D01*
X98125687Y-94291654D01*
X98124912Y-94288244D01*
X98027246Y-93947643D01*
X98026102Y-93944358D01*
X97891078Y-93616766D01*
X97889568Y-93613613D01*
X97718868Y-93303112D01*
X97717029Y-93300168D01*
X97537434Y-93045577D01*
X97529391Y-93040492D01*
X97523973Y-93041713D01*
X95574475Y-94991210D01*
X95570834Y-95000000D01*
X94429166Y-95000000D01*
X94425525Y-94991210D01*
X92479766Y-93045452D01*
X92470976Y-93041811D01*
X92465624Y-93044028D01*
X92306971Y-93262395D01*
X92305085Y-93265323D01*
X92130070Y-93573406D01*
X92128519Y-93576529D01*
X91988933Y-93902208D01*
X91987741Y-93905482D01*
X91885333Y-94244673D01*
X91884506Y-94248093D01*
X91820548Y-94596575D01*
X91820109Y-94600049D01*
X91795392Y-94953511D01*
X91795343Y-94956997D01*
X58202638Y-94956997D01*
X58185165Y-94644468D01*
X58184778Y-94641025D01*
X58125687Y-94291654D01*
X58124912Y-94288244D01*
X58027246Y-93947643D01*
X58026102Y-93944358D01*
X57891078Y-93616766D01*
X57889568Y-93613613D01*
X57718868Y-93303112D01*
X57717029Y-93300168D01*
X57537434Y-93045577D01*
X57529391Y-93040492D01*
X57523973Y-93041713D01*
X55574475Y-94991210D01*
X55570834Y-95000000D01*
X54429166Y-95000000D01*
X54425525Y-94991210D01*
X52479766Y-93045452D01*
X52470976Y-93041811D01*
X52465624Y-93044028D01*
X52306971Y-93262395D01*
X52305085Y-93265323D01*
X52130070Y-93573406D01*
X52128519Y-93576529D01*
X51988933Y-93902208D01*
X51987741Y-93905482D01*
X51885333Y-94244673D01*
X51884506Y-94248093D01*
X51820548Y-94596575D01*
X51820109Y-94600049D01*
X51795392Y-94953511D01*
X51795343Y-94956997D01*
X50300000Y-94956997D01*
X50300000Y-92469851D01*
X53039693Y-92469851D01*
X53040851Y-92475165D01*
X54991210Y-94425525D01*
X55000000Y-94429166D01*
X55008790Y-94425525D01*
X56955114Y-92479200D01*
X56958755Y-92470410D01*
X56958523Y-92469851D01*
X93039693Y-92469851D01*
X93040851Y-92475165D01*
X94991210Y-94425525D01*
X95000000Y-94429166D01*
X95008790Y-94425525D01*
X96955114Y-92479200D01*
X96958755Y-92470410D01*
X96956584Y-92465169D01*
X96718772Y-92294914D01*
X96715821Y-92293041D01*
X96406525Y-92120180D01*
X96403381Y-92118647D01*
X96076748Y-91981344D01*
X96073459Y-91980172D01*
X95733551Y-91880133D01*
X95730150Y-91879335D01*
X95381223Y-91817809D01*
X95377741Y-91817394D01*
X95024123Y-91795146D01*
X95020619Y-91795122D01*
X94666732Y-91812430D01*
X94663255Y-91812796D01*
X94313494Y-91869444D01*
X94310079Y-91870194D01*
X93968802Y-91965481D01*
X93965509Y-91966602D01*
X93636972Y-92099339D01*
X93633829Y-92100818D01*
X93322140Y-92269348D01*
X93319170Y-92271175D01*
X93044833Y-92461844D01*
X93039693Y-92469851D01*
X56958523Y-92469851D01*
X56956584Y-92465169D01*
X56718772Y-92294914D01*
X56715821Y-92293041D01*
X56406525Y-92120180D01*
X56403381Y-92118647D01*
X56076748Y-91981344D01*
X56073459Y-91980172D01*
X55733551Y-91880133D01*
X55730150Y-91879335D01*
X55381223Y-91817809D01*
X55377741Y-91817394D01*
X55024123Y-91795146D01*
X55020619Y-91795122D01*
X54666732Y-91812430D01*
X54663255Y-91812796D01*
X54313494Y-91869444D01*
X54310079Y-91870194D01*
X53968802Y-91965481D01*
X53965509Y-91966602D01*
X53636972Y-92099339D01*
X53633829Y-92100818D01*
X53322140Y-92269348D01*
X53319170Y-92271175D01*
X53044833Y-92461844D01*
X53039693Y-92469851D01*
X50300000Y-92469851D01*
X50300000Y-80625000D01*
X75994196Y-80625000D01*
X76015281Y-80758126D01*
X76076472Y-80878220D01*
X76171780Y-80973528D01*
X76176163Y-80975761D01*
X76287489Y-81032485D01*
X76287490Y-81032485D01*
X76291874Y-81034719D01*
X76296731Y-81035488D01*
X76296733Y-81035489D01*
X76420145Y-81055035D01*
X76425000Y-81055804D01*
X76429855Y-81055035D01*
X76553267Y-81035489D01*
X76553269Y-81035488D01*
X76558126Y-81034719D01*
X76562510Y-81032485D01*
X76562511Y-81032485D01*
X76673837Y-80975761D01*
X76678220Y-80973528D01*
X76773528Y-80878220D01*
X76834719Y-80758126D01*
X76855804Y-80625000D01*
X76834719Y-80491874D01*
X76773528Y-80371780D01*
X76678220Y-80276472D01*
X76566212Y-80219401D01*
X76562511Y-80217515D01*
X76562510Y-80217515D01*
X76558126Y-80215281D01*
X76553269Y-80214512D01*
X76553267Y-80214511D01*
X76429855Y-80194965D01*
X76425000Y-80194196D01*
X76420145Y-80194965D01*
X76296733Y-80214511D01*
X76296731Y-80214512D01*
X76291874Y-80215281D01*
X76287490Y-80217515D01*
X76287489Y-80217515D01*
X76283788Y-80219401D01*
X76171780Y-80276472D01*
X76076472Y-80371780D01*
X76015281Y-80491874D01*
X75994196Y-80625000D01*
X50300000Y-80625000D01*
X50300000Y-80036627D01*
X76850000Y-80036627D01*
X76850599Y-80042711D01*
X76860403Y-80091997D01*
X76865024Y-80103155D01*
X76902389Y-80159075D01*
X76910925Y-80167611D01*
X76966845Y-80204976D01*
X76978003Y-80209597D01*
X77027289Y-80219401D01*
X77033373Y-80220000D01*
X77087569Y-80220000D01*
X77096359Y-80216359D01*
X77100000Y-80207569D01*
X77600000Y-80207569D01*
X77603641Y-80216359D01*
X77612431Y-80220000D01*
X77666627Y-80220000D01*
X77672711Y-80219401D01*
X77721997Y-80209597D01*
X77733155Y-80204976D01*
X77789075Y-80167611D01*
X77797611Y-80159075D01*
X77823033Y-80121028D01*
X77862807Y-80094452D01*
X77909723Y-80103784D01*
X77926967Y-80121028D01*
X77952389Y-80159075D01*
X77960925Y-80167611D01*
X78016845Y-80204976D01*
X78028003Y-80209597D01*
X78077289Y-80219401D01*
X78083373Y-80220000D01*
X78137569Y-80220000D01*
X78146359Y-80216359D01*
X78150000Y-80207569D01*
X78650000Y-80207569D01*
X78653641Y-80216359D01*
X78662431Y-80220000D01*
X78716627Y-80220000D01*
X78722711Y-80219401D01*
X78771997Y-80209597D01*
X78783155Y-80204976D01*
X78839075Y-80167611D01*
X78847611Y-80159075D01*
X78884976Y-80103155D01*
X78889597Y-80091997D01*
X78899401Y-80042711D01*
X78900000Y-80036627D01*
X78900000Y-80032431D01*
X78896359Y-80023641D01*
X78887569Y-80020000D01*
X78662431Y-80020000D01*
X78653641Y-80023641D01*
X78650000Y-80032431D01*
X78650000Y-80207569D01*
X78150000Y-80207569D01*
X78150000Y-80032431D01*
X78146359Y-80023641D01*
X78137569Y-80020000D01*
X77912432Y-80020000D01*
X77898917Y-80025598D01*
X77851083Y-80025598D01*
X77837568Y-80020000D01*
X77612431Y-80020000D01*
X77603641Y-80023641D01*
X77600000Y-80032431D01*
X77600000Y-80207569D01*
X77100000Y-80207569D01*
X77100000Y-80032431D01*
X77096359Y-80023641D01*
X77087569Y-80020000D01*
X76862431Y-80020000D01*
X76853641Y-80023641D01*
X76850000Y-80032431D01*
X76850000Y-80036627D01*
X50300000Y-80036627D01*
X50300000Y-78725000D01*
X72419196Y-78725000D01*
X72440281Y-78858126D01*
X72501472Y-78978220D01*
X72596780Y-79073528D01*
X72648240Y-79099748D01*
X72712489Y-79132485D01*
X72712490Y-79132485D01*
X72716874Y-79134719D01*
X72721731Y-79135488D01*
X72721733Y-79135489D01*
X72845145Y-79155035D01*
X72850000Y-79155804D01*
X72854855Y-79155035D01*
X72978267Y-79135489D01*
X72978269Y-79135488D01*
X72983126Y-79134719D01*
X72987510Y-79132485D01*
X72987511Y-79132485D01*
X73051760Y-79099748D01*
X73103220Y-79073528D01*
X73198528Y-78978220D01*
X73259719Y-78858126D01*
X73280804Y-78725000D01*
X73259719Y-78591874D01*
X73198528Y-78471780D01*
X73103220Y-78376472D01*
X73036821Y-78342640D01*
X72987511Y-78317515D01*
X72987510Y-78317515D01*
X72983126Y-78315281D01*
X72978269Y-78314512D01*
X72978267Y-78314511D01*
X72854855Y-78294965D01*
X72850000Y-78294196D01*
X72845145Y-78294965D01*
X72721733Y-78314511D01*
X72721731Y-78314512D01*
X72716874Y-78315281D01*
X72712490Y-78317515D01*
X72712489Y-78317515D01*
X72663179Y-78342640D01*
X72596780Y-78376472D01*
X72501472Y-78471780D01*
X72440281Y-78591874D01*
X72419196Y-78725000D01*
X50300000Y-78725000D01*
X50300000Y-75954351D01*
X73019471Y-75954351D01*
X73040556Y-76087477D01*
X73101747Y-76207571D01*
X73146540Y-76252364D01*
X73164846Y-76296558D01*
X73146540Y-76340752D01*
X73135363Y-76351929D01*
X73135360Y-76351933D01*
X73131882Y-76355411D01*
X73129649Y-76359794D01*
X73129648Y-76359795D01*
X73108538Y-76401227D01*
X73070691Y-76475505D01*
X73069922Y-76480362D01*
X73069921Y-76480364D01*
X73062139Y-76529498D01*
X73049606Y-76608631D01*
X73050375Y-76613486D01*
X73058927Y-76667479D01*
X73070691Y-76741757D01*
X73072925Y-76746141D01*
X73072925Y-76746142D01*
X73097835Y-76795030D01*
X73131882Y-76861851D01*
X73227190Y-76957159D01*
X73260963Y-76974367D01*
X73342899Y-77016116D01*
X73342900Y-77016116D01*
X73347284Y-77018350D01*
X73352141Y-77019119D01*
X73352143Y-77019120D01*
X73475555Y-77038666D01*
X73480410Y-77039435D01*
X73485265Y-77038666D01*
X73608677Y-77019120D01*
X73608679Y-77019119D01*
X73613536Y-77018350D01*
X73617920Y-77016116D01*
X73617921Y-77016116D01*
X73699857Y-76974367D01*
X73733630Y-76957159D01*
X73828938Y-76861851D01*
X73862985Y-76795030D01*
X73887895Y-76746142D01*
X73887895Y-76746141D01*
X73890129Y-76741757D01*
X73901894Y-76667479D01*
X73910445Y-76613486D01*
X73911214Y-76608631D01*
X73899450Y-76534351D01*
X74168922Y-76534351D01*
X74169691Y-76539206D01*
X74181456Y-76613486D01*
X74190007Y-76667477D01*
X74251198Y-76787571D01*
X74346506Y-76882879D01*
X74382269Y-76901101D01*
X74462215Y-76941836D01*
X74462216Y-76941836D01*
X74466600Y-76944070D01*
X74471457Y-76944839D01*
X74471459Y-76944840D01*
X74594871Y-76964386D01*
X74599726Y-76965155D01*
X74604581Y-76964386D01*
X74727993Y-76944840D01*
X74727995Y-76944839D01*
X74732852Y-76944070D01*
X74737236Y-76941836D01*
X74737237Y-76941836D01*
X74817183Y-76901101D01*
X74852946Y-76882879D01*
X74948254Y-76787571D01*
X75009445Y-76667477D01*
X75017997Y-76613486D01*
X75029761Y-76539206D01*
X75030530Y-76534351D01*
X75009445Y-76401225D01*
X75007211Y-76396840D01*
X74950486Y-76285511D01*
X74950485Y-76285510D01*
X74948254Y-76281131D01*
X74946975Y-76279852D01*
X74936105Y-76234572D01*
X74946608Y-76209217D01*
X74948254Y-76207571D01*
X74950488Y-76203188D01*
X75007211Y-76091862D01*
X75007211Y-76091861D01*
X75009445Y-76087477D01*
X75030530Y-75954351D01*
X75010215Y-75826083D01*
X75010214Y-75826082D01*
X75009445Y-75821225D01*
X74948254Y-75701131D01*
X74852946Y-75605823D01*
X74746518Y-75551595D01*
X74737237Y-75546866D01*
X74737236Y-75546866D01*
X74732852Y-75544632D01*
X74727995Y-75543863D01*
X74727993Y-75543862D01*
X74604581Y-75524316D01*
X74599726Y-75523547D01*
X74594871Y-75524316D01*
X74471459Y-75543862D01*
X74471457Y-75543863D01*
X74466600Y-75544632D01*
X74462216Y-75546866D01*
X74462215Y-75546866D01*
X74452934Y-75551595D01*
X74346506Y-75605823D01*
X74251198Y-75701131D01*
X74190007Y-75821225D01*
X74189238Y-75826082D01*
X74189238Y-75826083D01*
X74168922Y-75954351D01*
X74190007Y-76087477D01*
X74192241Y-76091861D01*
X74192241Y-76091862D01*
X74248965Y-76203188D01*
X74251198Y-76207571D01*
X74252477Y-76208850D01*
X74263347Y-76254130D01*
X74252844Y-76279485D01*
X74251198Y-76281131D01*
X74248967Y-76285510D01*
X74248966Y-76285511D01*
X74192241Y-76396840D01*
X74190007Y-76401225D01*
X74168922Y-76534351D01*
X73899450Y-76534351D01*
X73898681Y-76529498D01*
X73890899Y-76480364D01*
X73890898Y-76480362D01*
X73890129Y-76475505D01*
X73828938Y-76355411D01*
X73784145Y-76310618D01*
X73765839Y-76266424D01*
X73784145Y-76222230D01*
X73795323Y-76211052D01*
X73795325Y-76211049D01*
X73798803Y-76207571D01*
X73801037Y-76203187D01*
X73857760Y-76091862D01*
X73857760Y-76091861D01*
X73859994Y-76087477D01*
X73881079Y-75954351D01*
X73860764Y-75826083D01*
X73860763Y-75826082D01*
X73859994Y-75821225D01*
X73798803Y-75701131D01*
X73703495Y-75605823D01*
X73597067Y-75551595D01*
X73587786Y-75546866D01*
X73587785Y-75546866D01*
X73583401Y-75544632D01*
X73578544Y-75543863D01*
X73578542Y-75543862D01*
X73455130Y-75524316D01*
X73450275Y-75523547D01*
X73445420Y-75524316D01*
X73322008Y-75543862D01*
X73322006Y-75543863D01*
X73317149Y-75544632D01*
X73312765Y-75546866D01*
X73312764Y-75546866D01*
X73303483Y-75551595D01*
X73197055Y-75605823D01*
X73101747Y-75701131D01*
X73040556Y-75821225D01*
X73039787Y-75826082D01*
X73039787Y-75826083D01*
X73019471Y-75954351D01*
X50300000Y-75954351D01*
X50300000Y-74775000D01*
X71294196Y-74775000D01*
X71315281Y-74908126D01*
X71376472Y-75028220D01*
X71471780Y-75123528D01*
X71509774Y-75142887D01*
X71587489Y-75182485D01*
X71587490Y-75182485D01*
X71591874Y-75184719D01*
X71596731Y-75185488D01*
X71596733Y-75185489D01*
X71699997Y-75201844D01*
X71714103Y-75204078D01*
X71720145Y-75205035D01*
X71725000Y-75205804D01*
X71729855Y-75205035D01*
X71735898Y-75204078D01*
X71750003Y-75201844D01*
X71853267Y-75185489D01*
X71853269Y-75185488D01*
X71858126Y-75184719D01*
X71862510Y-75182485D01*
X71862511Y-75182485D01*
X71940226Y-75142887D01*
X71978220Y-75123528D01*
X72073528Y-75028220D01*
X72134719Y-74908126D01*
X72155804Y-74775000D01*
X72138555Y-74666092D01*
X72135489Y-74646733D01*
X72135488Y-74646731D01*
X72134719Y-74641874D01*
X72119949Y-74612885D01*
X72103090Y-74579798D01*
X72073528Y-74521780D01*
X71978220Y-74426472D01*
X71920202Y-74396910D01*
X71862511Y-74367515D01*
X71862510Y-74367515D01*
X71858126Y-74365281D01*
X71853269Y-74364512D01*
X71853267Y-74364511D01*
X71729855Y-74344965D01*
X71725000Y-74344196D01*
X71720145Y-74344965D01*
X71596733Y-74364511D01*
X71596731Y-74364512D01*
X71591874Y-74365281D01*
X71587490Y-74367515D01*
X71587489Y-74367515D01*
X71529798Y-74396910D01*
X71471780Y-74426472D01*
X71376472Y-74521780D01*
X71346910Y-74579798D01*
X71330052Y-74612885D01*
X71315281Y-74641874D01*
X71314512Y-74646731D01*
X71314511Y-74646733D01*
X71311445Y-74666092D01*
X71294196Y-74775000D01*
X50300000Y-74775000D01*
X50300000Y-72220000D01*
X72999196Y-72220000D01*
X73020281Y-72353126D01*
X73081472Y-72473220D01*
X73176780Y-72568528D01*
X73181163Y-72570761D01*
X73292489Y-72627485D01*
X73292490Y-72627485D01*
X73296874Y-72629719D01*
X73301731Y-72630488D01*
X73301733Y-72630489D01*
X73416874Y-72648725D01*
X73451291Y-72666262D01*
X73630928Y-72845899D01*
X73649234Y-72890093D01*
X73649234Y-73307225D01*
X73630928Y-73351419D01*
X73601206Y-73381141D01*
X73540015Y-73501235D01*
X73539246Y-73506092D01*
X73539245Y-73506094D01*
X73533881Y-73539965D01*
X73518930Y-73634361D01*
X73540015Y-73767487D01*
X73601206Y-73887581D01*
X73693649Y-73980024D01*
X73711955Y-74024218D01*
X73705143Y-74052592D01*
X73692788Y-74076839D01*
X73692786Y-74076846D01*
X73690555Y-74081224D01*
X73669470Y-74214350D01*
X73670239Y-74219205D01*
X73686324Y-74320761D01*
X73690555Y-74347476D01*
X73692789Y-74351860D01*
X73692789Y-74351861D01*
X73742794Y-74450000D01*
X73751746Y-74467570D01*
X73753025Y-74468849D01*
X73763894Y-74514129D01*
X73753390Y-74539487D01*
X73751738Y-74541139D01*
X73749507Y-74545518D01*
X73749506Y-74545519D01*
X73702645Y-74637489D01*
X73690547Y-74661233D01*
X73669462Y-74794359D01*
X73670231Y-74799214D01*
X73687481Y-74908126D01*
X73690547Y-74927485D01*
X73751738Y-75047579D01*
X73847046Y-75142887D01*
X73869665Y-75154412D01*
X73962755Y-75201844D01*
X73962756Y-75201844D01*
X73967140Y-75204078D01*
X73971997Y-75204847D01*
X73971999Y-75204848D01*
X74095411Y-75224394D01*
X74100266Y-75225163D01*
X74105121Y-75224394D01*
X74228533Y-75204848D01*
X74228535Y-75204847D01*
X74233392Y-75204078D01*
X74237776Y-75201844D01*
X74237777Y-75201844D01*
X74330867Y-75154412D01*
X74353486Y-75142887D01*
X74448794Y-75047579D01*
X74464565Y-75016627D01*
X75130000Y-75016627D01*
X75130599Y-75022711D01*
X75140403Y-75071997D01*
X75145024Y-75083155D01*
X75182389Y-75139075D01*
X75190925Y-75147611D01*
X75246845Y-75184976D01*
X75258003Y-75189597D01*
X75307289Y-75199401D01*
X75313373Y-75200000D01*
X75317569Y-75200000D01*
X75326359Y-75196359D01*
X75330000Y-75187569D01*
X75330000Y-74962431D01*
X75326359Y-74953641D01*
X75317569Y-74950000D01*
X75142431Y-74950000D01*
X75133641Y-74953641D01*
X75130000Y-74962431D01*
X75130000Y-75016627D01*
X74464565Y-75016627D01*
X74509985Y-74927485D01*
X74513052Y-74908126D01*
X74530301Y-74799214D01*
X74531070Y-74794359D01*
X74509985Y-74661233D01*
X74497887Y-74637489D01*
X74451026Y-74545519D01*
X74451025Y-74545518D01*
X74448794Y-74541139D01*
X74447515Y-74539860D01*
X74436646Y-74494580D01*
X74447150Y-74469222D01*
X74448802Y-74467570D01*
X74457755Y-74450000D01*
X74507759Y-74351861D01*
X74507759Y-74351860D01*
X74509993Y-74347476D01*
X74514832Y-74316921D01*
X74539826Y-74276136D01*
X74586340Y-74264968D01*
X74620757Y-74282505D01*
X74656780Y-74318528D01*
X74713594Y-74347476D01*
X74772489Y-74377485D01*
X74772490Y-74377485D01*
X74776874Y-74379719D01*
X74781731Y-74380488D01*
X74781733Y-74380489D01*
X74905145Y-74400035D01*
X74910000Y-74400804D01*
X75043126Y-74379719D01*
X75047508Y-74377486D01*
X75048186Y-74377266D01*
X75095874Y-74381019D01*
X75126941Y-74417393D01*
X75130000Y-74436707D01*
X75130000Y-74437569D01*
X75133641Y-74446359D01*
X75142431Y-74450000D01*
X75317569Y-74450000D01*
X75326359Y-74446359D01*
X75330000Y-74437569D01*
X75330000Y-74212431D01*
X75320272Y-74188947D01*
X75307227Y-74175901D01*
X75309282Y-74123611D01*
X75317486Y-74107510D01*
X75317487Y-74107506D01*
X75319719Y-74103126D01*
X75340804Y-73970000D01*
X75331018Y-73908214D01*
X75320489Y-73841733D01*
X75320488Y-73841731D01*
X75319719Y-73836874D01*
X75316581Y-73830714D01*
X75286599Y-73771872D01*
X75258528Y-73716780D01*
X75163220Y-73621472D01*
X75105202Y-73591910D01*
X75047511Y-73562515D01*
X75047510Y-73562515D01*
X75043126Y-73560281D01*
X75038269Y-73559512D01*
X75038267Y-73559511D01*
X74914855Y-73539965D01*
X74910000Y-73539196D01*
X74905145Y-73539965D01*
X74781733Y-73559511D01*
X74781731Y-73559512D01*
X74776874Y-73560281D01*
X74772490Y-73562515D01*
X74772489Y-73562515D01*
X74714798Y-73591910D01*
X74656780Y-73621472D01*
X74561472Y-73716780D01*
X74533401Y-73771872D01*
X74503420Y-73830714D01*
X74500281Y-73836874D01*
X74499512Y-73841731D01*
X74499511Y-73841733D01*
X74495442Y-73867428D01*
X74470448Y-73908214D01*
X74423934Y-73919382D01*
X74389517Y-73901845D01*
X74356359Y-73868687D01*
X74338053Y-73824493D01*
X74344865Y-73796119D01*
X74357220Y-73771872D01*
X74357222Y-73771865D01*
X74359453Y-73767487D01*
X74380538Y-73634361D01*
X74365587Y-73539965D01*
X74360223Y-73506094D01*
X74360222Y-73506092D01*
X74359453Y-73501235D01*
X74298262Y-73381141D01*
X74268540Y-73351419D01*
X74250234Y-73307225D01*
X74250234Y-72794786D01*
X74250681Y-72788698D01*
X74252159Y-72784392D01*
X74250278Y-72734280D01*
X74250234Y-72731936D01*
X74250234Y-72711786D01*
X74249708Y-72708959D01*
X74249443Y-72706092D01*
X74249534Y-72706084D01*
X74249060Y-72701822D01*
X74248176Y-72678291D01*
X74247960Y-72672526D01*
X74241812Y-72658216D01*
X74237794Y-72644988D01*
X74236000Y-72635356D01*
X74234943Y-72629681D01*
X74219556Y-72604718D01*
X74215347Y-72596617D01*
X74203770Y-72569671D01*
X74199756Y-72564785D01*
X74192374Y-72557403D01*
X74183364Y-72546004D01*
X74179232Y-72539301D01*
X74179231Y-72539300D01*
X74176202Y-72534386D01*
X74151000Y-72515222D01*
X74144637Y-72509666D01*
X73876262Y-72241291D01*
X73858725Y-72206874D01*
X73840489Y-72091733D01*
X73840488Y-72091731D01*
X73839719Y-72086874D01*
X73778528Y-71966780D01*
X73683220Y-71871472D01*
X73603405Y-71830804D01*
X73567511Y-71812515D01*
X73567510Y-71812515D01*
X73563126Y-71810281D01*
X73558269Y-71809512D01*
X73558267Y-71809511D01*
X73434855Y-71789965D01*
X73430000Y-71789196D01*
X73425145Y-71789965D01*
X73301733Y-71809511D01*
X73301731Y-71809512D01*
X73296874Y-71810281D01*
X73292490Y-71812515D01*
X73292489Y-71812515D01*
X73256595Y-71830804D01*
X73176780Y-71871472D01*
X73081472Y-71966780D01*
X73020281Y-72086874D01*
X73019512Y-72091731D01*
X73019511Y-72091733D01*
X73010356Y-72149538D01*
X72999196Y-72220000D01*
X50300000Y-72220000D01*
X50300000Y-69999642D01*
X51794858Y-69999642D01*
X51798160Y-70014235D01*
X51799163Y-70019857D01*
X51803053Y-70049401D01*
X51808359Y-70089704D01*
X51810296Y-70104421D01*
X51811864Y-70108205D01*
X51811864Y-70108207D01*
X51849031Y-70197936D01*
X51849032Y-70197937D01*
X51850601Y-70201725D01*
X51914717Y-70285282D01*
X51998274Y-70349398D01*
X52002060Y-70350966D01*
X52002063Y-70350968D01*
X52091792Y-70388135D01*
X52091794Y-70388135D01*
X52095578Y-70389703D01*
X52099640Y-70390238D01*
X52099641Y-70390238D01*
X52178456Y-70400614D01*
X52184410Y-70401693D01*
X52195835Y-70404341D01*
X52195837Y-70404341D01*
X52199283Y-70405140D01*
X52199999Y-70405141D01*
X52215677Y-70401565D01*
X52229575Y-70400000D01*
X59969955Y-70400000D01*
X59984068Y-70401614D01*
X59999284Y-70405141D01*
X60000000Y-70405142D01*
X60014691Y-70401791D01*
X60020430Y-70400761D01*
X60050642Y-70396784D01*
X60100359Y-70390239D01*
X60100361Y-70390239D01*
X60104421Y-70389704D01*
X60108205Y-70388136D01*
X60108207Y-70388136D01*
X60197936Y-70350969D01*
X60197939Y-70350967D01*
X60201725Y-70349399D01*
X60285282Y-70285283D01*
X60349398Y-70201726D01*
X60350966Y-70197940D01*
X60350968Y-70197937D01*
X60388135Y-70108208D01*
X60388135Y-70108206D01*
X60389703Y-70104422D01*
X60396666Y-70051529D01*
X60400614Y-70021544D01*
X60401693Y-70015590D01*
X60404341Y-70004165D01*
X60404341Y-70004163D01*
X60405140Y-70000717D01*
X60405141Y-70000001D01*
X60401565Y-69984323D01*
X60400000Y-69970425D01*
X60400000Y-69850000D01*
X71169196Y-69850000D01*
X71169965Y-69854855D01*
X71188232Y-69970188D01*
X71190281Y-69983126D01*
X71192515Y-69987510D01*
X71192515Y-69987511D01*
X71214812Y-70031270D01*
X71251472Y-70103220D01*
X71346780Y-70198528D01*
X71359441Y-70204979D01*
X71462489Y-70257485D01*
X71462490Y-70257485D01*
X71466874Y-70259719D01*
X71471731Y-70260488D01*
X71471733Y-70260489D01*
X71532963Y-70270186D01*
X71558488Y-70274229D01*
X71599274Y-70299223D01*
X71608297Y-70326993D01*
X71610442Y-70326653D01*
X71629461Y-70446733D01*
X71631527Y-70459779D01*
X71692718Y-70579873D01*
X71788026Y-70675181D01*
X71792409Y-70677414D01*
X71903735Y-70734138D01*
X71903736Y-70734138D01*
X71908120Y-70736372D01*
X71912977Y-70737141D01*
X71912979Y-70737142D01*
X72028120Y-70755378D01*
X72062537Y-70772915D01*
X72363177Y-71073555D01*
X72367169Y-71078180D01*
X72369168Y-71082269D01*
X72373398Y-71086193D01*
X72405940Y-71116380D01*
X72407629Y-71118007D01*
X72421870Y-71132248D01*
X72424241Y-71133875D01*
X72426460Y-71135719D01*
X72426401Y-71135789D01*
X72429749Y-71138466D01*
X72451239Y-71158401D01*
X72465704Y-71164172D01*
X72477896Y-71170682D01*
X72485980Y-71176228D01*
X72485983Y-71176229D01*
X72490739Y-71179492D01*
X72515420Y-71185349D01*
X72519263Y-71186261D01*
X72527980Y-71189017D01*
X72555215Y-71199883D01*
X72559606Y-71200314D01*
X72559608Y-71200314D01*
X72559748Y-71200327D01*
X72561508Y-71200500D01*
X72571950Y-71200500D01*
X72586381Y-71202189D01*
X72599659Y-71205340D01*
X72631028Y-71201071D01*
X72639455Y-71200500D01*
X74527615Y-71200500D01*
X74571809Y-71218806D01*
X74590115Y-71263000D01*
X74589346Y-71272777D01*
X74569196Y-71400000D01*
X74590281Y-71533126D01*
X74592515Y-71537510D01*
X74592515Y-71537511D01*
X74621910Y-71595202D01*
X74651472Y-71653220D01*
X74746780Y-71748528D01*
X74779022Y-71764956D01*
X74862489Y-71807485D01*
X74862490Y-71807485D01*
X74866874Y-71809719D01*
X74871731Y-71810488D01*
X74871733Y-71810489D01*
X74995145Y-71830035D01*
X75000000Y-71830804D01*
X75004855Y-71830035D01*
X75128267Y-71810489D01*
X75128269Y-71810488D01*
X75133126Y-71809719D01*
X75137510Y-71807485D01*
X75137511Y-71807485D01*
X75220978Y-71764956D01*
X75253220Y-71748528D01*
X75348528Y-71653220D01*
X75378090Y-71595202D01*
X75407485Y-71537511D01*
X75407485Y-71537510D01*
X75409719Y-71533126D01*
X75430804Y-71400000D01*
X75410654Y-71272777D01*
X75421821Y-71226263D01*
X75462608Y-71201269D01*
X75472385Y-71200500D01*
X76157000Y-71200500D01*
X76201194Y-71218806D01*
X76219500Y-71263000D01*
X76219500Y-74159196D01*
X76201194Y-74203390D01*
X76191724Y-74211163D01*
X76125448Y-74255448D01*
X76122031Y-74260562D01*
X76122027Y-74260566D01*
X76101665Y-74291039D01*
X76061891Y-74317614D01*
X76014975Y-74308281D01*
X75997732Y-74291038D01*
X75977611Y-74260925D01*
X75969075Y-74252389D01*
X75913155Y-74215024D01*
X75901997Y-74210403D01*
X75852711Y-74200599D01*
X75846627Y-74200000D01*
X75842431Y-74200000D01*
X75833641Y-74203641D01*
X75830000Y-74212431D01*
X75830000Y-75187569D01*
X75833641Y-75196359D01*
X75842431Y-75200000D01*
X75846627Y-75200000D01*
X75852711Y-75199401D01*
X75901997Y-75189597D01*
X75913155Y-75184976D01*
X75969075Y-75147611D01*
X75977611Y-75139075D01*
X75997732Y-75108962D01*
X76037506Y-75082386D01*
X76084422Y-75091718D01*
X76101665Y-75108961D01*
X76122027Y-75139434D01*
X76122031Y-75139438D01*
X76125448Y-75144552D01*
X76130565Y-75147971D01*
X76134917Y-75152323D01*
X76132828Y-75154412D01*
X76153453Y-75185285D01*
X76147841Y-75225847D01*
X76142239Y-75236841D01*
X76142238Y-75236844D01*
X76140006Y-75241225D01*
X76118921Y-75374351D01*
X76119690Y-75379206D01*
X76136625Y-75486130D01*
X76125458Y-75532644D01*
X76084671Y-75557638D01*
X76046520Y-75551595D01*
X76037237Y-75546865D01*
X76037236Y-75546865D01*
X76032852Y-75544631D01*
X76027995Y-75543862D01*
X76027993Y-75543861D01*
X75917117Y-75526300D01*
X75899726Y-75523546D01*
X75882335Y-75526300D01*
X75771459Y-75543861D01*
X75771457Y-75543862D01*
X75766600Y-75544631D01*
X75762216Y-75546865D01*
X75762215Y-75546865D01*
X75752932Y-75551595D01*
X75646506Y-75605822D01*
X75551198Y-75701130D01*
X75490007Y-75821224D01*
X75468922Y-75954350D01*
X75469691Y-75959205D01*
X75489237Y-76082617D01*
X75489238Y-76082619D01*
X75490007Y-76087476D01*
X75551198Y-76207570D01*
X75552479Y-76208851D01*
X75563348Y-76254128D01*
X75552845Y-76279485D01*
X75551197Y-76281133D01*
X75490006Y-76401227D01*
X75489237Y-76406084D01*
X75489236Y-76406086D01*
X75477472Y-76480364D01*
X75468921Y-76534353D01*
X75490006Y-76667479D01*
X75551197Y-76787573D01*
X75554676Y-76791052D01*
X75557566Y-76795030D01*
X75555959Y-76796198D01*
X75571533Y-76833797D01*
X75553227Y-76877991D01*
X75541528Y-76887185D01*
X75540248Y-76887964D01*
X75536196Y-76889705D01*
X75531310Y-76893719D01*
X75523928Y-76901101D01*
X75512529Y-76910111D01*
X75505826Y-76914243D01*
X75500911Y-76917273D01*
X75497418Y-76921867D01*
X75481747Y-76942475D01*
X75476191Y-76948838D01*
X74643835Y-77781194D01*
X74599641Y-77799500D01*
X74152136Y-77799500D01*
X74107942Y-77781194D01*
X74078220Y-77751472D01*
X73970789Y-77696733D01*
X73962511Y-77692515D01*
X73962510Y-77692515D01*
X73958126Y-77690281D01*
X73953269Y-77689512D01*
X73953267Y-77689511D01*
X73829855Y-77669965D01*
X73825000Y-77669196D01*
X73820145Y-77669965D01*
X73696733Y-77689511D01*
X73696731Y-77689512D01*
X73691874Y-77690281D01*
X73687490Y-77692515D01*
X73687489Y-77692515D01*
X73679211Y-77696733D01*
X73571780Y-77751472D01*
X73476472Y-77846780D01*
X73415281Y-77966874D01*
X73394196Y-78100000D01*
X73394965Y-78104855D01*
X73407333Y-78182942D01*
X73415281Y-78233126D01*
X73417515Y-78237510D01*
X73417515Y-78237511D01*
X73440757Y-78283126D01*
X73476472Y-78353220D01*
X73571780Y-78448528D01*
X73576163Y-78450761D01*
X73687489Y-78507485D01*
X73687490Y-78507485D01*
X73691874Y-78509719D01*
X73696731Y-78510488D01*
X73696733Y-78510489D01*
X73820145Y-78530035D01*
X73825000Y-78530804D01*
X73829855Y-78530035D01*
X73953267Y-78510489D01*
X73953269Y-78510488D01*
X73958126Y-78509719D01*
X73988005Y-78494495D01*
X74035691Y-78490742D01*
X74072066Y-78521808D01*
X74075819Y-78569496D01*
X74072068Y-78578555D01*
X74065281Y-78591874D01*
X74044196Y-78725000D01*
X74065281Y-78858126D01*
X74126472Y-78978220D01*
X74221780Y-79073528D01*
X74273240Y-79099748D01*
X74337489Y-79132485D01*
X74337490Y-79132485D01*
X74341874Y-79134719D01*
X74346731Y-79135488D01*
X74346733Y-79135489D01*
X74470145Y-79155035D01*
X74475000Y-79155804D01*
X74479855Y-79155035D01*
X74603267Y-79135489D01*
X74603269Y-79135488D01*
X74608126Y-79134719D01*
X74612510Y-79132485D01*
X74612511Y-79132485D01*
X74676760Y-79099748D01*
X74728220Y-79073528D01*
X74823528Y-78978220D01*
X74884719Y-78858126D01*
X74905804Y-78725000D01*
X74884719Y-78591874D01*
X74867072Y-78557239D01*
X74823642Y-78472003D01*
X74819889Y-78424315D01*
X74850956Y-78387941D01*
X74854946Y-78386160D01*
X74860053Y-78385209D01*
X74885016Y-78369822D01*
X74893117Y-78365613D01*
X74920063Y-78354036D01*
X74924949Y-78350022D01*
X74932331Y-78342640D01*
X74943730Y-78333630D01*
X74950433Y-78329498D01*
X74950434Y-78329497D01*
X74955348Y-78326468D01*
X74974512Y-78301266D01*
X74980068Y-78294903D01*
X75308846Y-77966125D01*
X75353040Y-77947819D01*
X75397234Y-77966125D01*
X75415540Y-78010319D01*
X75414771Y-78020092D01*
X75394196Y-78150000D01*
X75415281Y-78283126D01*
X75417515Y-78287510D01*
X75417515Y-78287511D01*
X75435024Y-78321874D01*
X75476472Y-78403220D01*
X75571780Y-78498528D01*
X75589359Y-78507485D01*
X75687489Y-78557485D01*
X75687490Y-78557485D01*
X75691874Y-78559719D01*
X75696731Y-78560488D01*
X75696733Y-78560489D01*
X75820145Y-78580035D01*
X75825000Y-78580804D01*
X75829855Y-78580035D01*
X75953267Y-78560489D01*
X75953269Y-78560488D01*
X75958126Y-78559719D01*
X75962510Y-78557485D01*
X75962511Y-78557485D01*
X76060641Y-78507485D01*
X76078220Y-78498528D01*
X76173528Y-78403220D01*
X76214976Y-78321874D01*
X76232485Y-78287511D01*
X76232485Y-78287510D01*
X76234719Y-78283126D01*
X76255804Y-78150000D01*
X76248623Y-78104663D01*
X76235489Y-78021733D01*
X76235488Y-78021731D01*
X76234719Y-78016874D01*
X76211719Y-77971733D01*
X76175761Y-77901163D01*
X76173528Y-77896780D01*
X76078220Y-77801472D01*
X75975707Y-77749239D01*
X75962511Y-77742515D01*
X75962510Y-77742515D01*
X75958126Y-77740281D01*
X75953269Y-77739512D01*
X75953267Y-77739511D01*
X75829855Y-77719965D01*
X75825000Y-77719196D01*
X75695095Y-77739771D01*
X75648583Y-77728604D01*
X75623588Y-77687817D01*
X75634755Y-77641304D01*
X75641125Y-77633846D01*
X75812424Y-77462547D01*
X75856618Y-77444241D01*
X76418382Y-77444241D01*
X76462576Y-77462547D01*
X76878738Y-77878709D01*
X76896275Y-77913126D01*
X76913477Y-78021733D01*
X76915281Y-78033126D01*
X76917515Y-78037510D01*
X76917515Y-78037511D01*
X76940030Y-78081698D01*
X76976472Y-78153220D01*
X77006194Y-78182942D01*
X77024500Y-78227136D01*
X77024500Y-78329352D01*
X77006194Y-78373546D01*
X76982849Y-78386024D01*
X76983492Y-78387577D01*
X76977805Y-78389932D01*
X76971769Y-78391133D01*
X76966655Y-78394550D01*
X76966653Y-78394551D01*
X76922320Y-78424174D01*
X76905448Y-78435448D01*
X76902031Y-78440562D01*
X76865623Y-78495050D01*
X76861133Y-78501769D01*
X76859933Y-78507803D01*
X76859932Y-78507805D01*
X76850099Y-78557239D01*
X76849500Y-78560252D01*
X76849500Y-79099748D01*
X76850099Y-79102758D01*
X76850099Y-79102761D01*
X76856012Y-79132485D01*
X76861133Y-79158231D01*
X76905448Y-79224552D01*
X76910562Y-79227969D01*
X76910566Y-79227973D01*
X76941039Y-79248335D01*
X76967614Y-79288109D01*
X76958281Y-79335025D01*
X76941038Y-79352268D01*
X76910925Y-79372389D01*
X76902389Y-79380925D01*
X76865024Y-79436845D01*
X76860403Y-79448003D01*
X76850599Y-79497289D01*
X76850000Y-79503373D01*
X76850000Y-79507569D01*
X76853641Y-79516359D01*
X76862431Y-79520000D01*
X77837568Y-79520000D01*
X77851083Y-79514402D01*
X77898917Y-79514402D01*
X77912432Y-79520000D01*
X78887569Y-79520000D01*
X78896359Y-79516359D01*
X78900000Y-79507569D01*
X78900000Y-79503373D01*
X78899401Y-79497289D01*
X78889597Y-79448003D01*
X78884976Y-79436845D01*
X78847611Y-79380925D01*
X78839075Y-79372389D01*
X78808962Y-79352268D01*
X78782386Y-79312494D01*
X78791718Y-79265578D01*
X78808961Y-79248335D01*
X78839434Y-79227973D01*
X78839438Y-79227969D01*
X78844552Y-79224552D01*
X78888867Y-79158231D01*
X78893989Y-79132485D01*
X78899901Y-79102761D01*
X78899901Y-79102758D01*
X78900500Y-79099748D01*
X78900500Y-78560252D01*
X78899901Y-78557239D01*
X78890068Y-78507805D01*
X78890067Y-78507803D01*
X78888867Y-78501769D01*
X78884378Y-78495050D01*
X78847969Y-78440562D01*
X78844552Y-78435448D01*
X78827680Y-78424174D01*
X78783347Y-78394551D01*
X78783345Y-78394550D01*
X78778231Y-78391133D01*
X78772195Y-78389932D01*
X78766508Y-78387577D01*
X78767527Y-78385118D01*
X78736035Y-78364079D01*
X78725500Y-78329352D01*
X78725500Y-78152136D01*
X78743806Y-78107942D01*
X78773528Y-78078220D01*
X78830262Y-77966874D01*
X78832485Y-77962511D01*
X78832485Y-77962510D01*
X78834719Y-77958126D01*
X78836352Y-77947819D01*
X78855035Y-77829855D01*
X78855804Y-77825000D01*
X78844709Y-77754950D01*
X78835489Y-77696733D01*
X78835488Y-77696731D01*
X78834719Y-77691874D01*
X78773528Y-77571780D01*
X78678220Y-77476472D01*
X78614963Y-77444241D01*
X78562511Y-77417515D01*
X78562510Y-77417515D01*
X78558126Y-77415281D01*
X78553269Y-77414512D01*
X78553267Y-77414511D01*
X78473976Y-77401953D01*
X78433189Y-77376959D01*
X78422023Y-77330444D01*
X78430035Y-77279860D01*
X78430035Y-77279855D01*
X78430804Y-77275000D01*
X78428050Y-77257609D01*
X78410489Y-77146733D01*
X78410488Y-77146731D01*
X78409719Y-77141874D01*
X78348528Y-77021780D01*
X78343815Y-77017067D01*
X78343367Y-77015986D01*
X78342159Y-77014323D01*
X78342558Y-77014033D01*
X78325509Y-76972873D01*
X78325509Y-74182850D01*
X90002046Y-74182850D01*
X90002815Y-74187705D01*
X90017830Y-74282505D01*
X90023131Y-74315976D01*
X90025365Y-74320360D01*
X90025365Y-74320361D01*
X90039181Y-74347476D01*
X90084322Y-74436070D01*
X90179630Y-74531378D01*
X90237648Y-74560940D01*
X90295339Y-74590335D01*
X90295340Y-74590335D01*
X90299724Y-74592569D01*
X90304581Y-74593338D01*
X90304583Y-74593339D01*
X90427995Y-74612885D01*
X90432850Y-74613654D01*
X90437705Y-74612885D01*
X90561117Y-74593339D01*
X90561119Y-74593338D01*
X90565976Y-74592569D01*
X90570360Y-74590335D01*
X90570361Y-74590335D01*
X90628052Y-74560940D01*
X90686070Y-74531378D01*
X90781378Y-74436070D01*
X90826519Y-74347476D01*
X90840335Y-74320361D01*
X90840335Y-74320360D01*
X90842569Y-74315976D01*
X90847871Y-74282505D01*
X90862885Y-74187705D01*
X90863654Y-74182850D01*
X90854272Y-74123611D01*
X90843339Y-74054583D01*
X90843338Y-74054581D01*
X90842569Y-74049724D01*
X90817614Y-74000746D01*
X90804421Y-73974855D01*
X90781378Y-73929630D01*
X90726656Y-73874908D01*
X90708350Y-73830714D01*
X90708350Y-70650004D01*
X92919196Y-70650004D01*
X92919965Y-70654859D01*
X92936215Y-70757457D01*
X92940281Y-70783130D01*
X92942515Y-70787514D01*
X92942515Y-70787515D01*
X92965028Y-70831698D01*
X93001472Y-70903224D01*
X93096780Y-70998532D01*
X93101163Y-71000765D01*
X93212489Y-71057489D01*
X93212490Y-71057489D01*
X93216874Y-71059723D01*
X93221731Y-71060492D01*
X93221733Y-71060493D01*
X93345145Y-71080039D01*
X93350000Y-71080808D01*
X93354855Y-71080039D01*
X93478267Y-71060493D01*
X93478269Y-71060492D01*
X93483126Y-71059723D01*
X93487510Y-71057489D01*
X93487511Y-71057489D01*
X93598837Y-71000765D01*
X93603220Y-70998532D01*
X93698528Y-70903224D01*
X93734972Y-70831698D01*
X93757485Y-70787515D01*
X93757485Y-70787514D01*
X93759719Y-70783130D01*
X93763786Y-70757457D01*
X93780035Y-70654859D01*
X93780804Y-70650004D01*
X93770247Y-70583351D01*
X93760489Y-70521737D01*
X93760488Y-70521735D01*
X93759719Y-70516878D01*
X93698528Y-70396784D01*
X93643806Y-70342062D01*
X93625500Y-70297868D01*
X93625500Y-67904743D01*
X93643806Y-67860549D01*
X93678222Y-67843013D01*
X93704096Y-67838914D01*
X93728277Y-67835085D01*
X93728279Y-67835084D01*
X93733136Y-67834315D01*
X93737520Y-67832081D01*
X93737521Y-67832081D01*
X93848847Y-67775357D01*
X93853230Y-67773124D01*
X93948538Y-67677816D01*
X94009729Y-67557722D01*
X94011186Y-67548528D01*
X94030045Y-67429451D01*
X94030814Y-67424596D01*
X94024009Y-67381631D01*
X94010499Y-67296329D01*
X94010498Y-67296327D01*
X94009729Y-67291470D01*
X93948538Y-67171376D01*
X93853230Y-67076068D01*
X93768952Y-67033126D01*
X93737521Y-67017111D01*
X93737520Y-67017111D01*
X93733136Y-67014877D01*
X93728279Y-67014108D01*
X93728277Y-67014107D01*
X93604865Y-66994561D01*
X93600010Y-66993792D01*
X93595155Y-66994561D01*
X93471743Y-67014107D01*
X93471741Y-67014108D01*
X93466884Y-67014877D01*
X93462500Y-67017111D01*
X93462499Y-67017111D01*
X93431068Y-67033126D01*
X93346790Y-67076068D01*
X93251482Y-67171376D01*
X93190291Y-67291470D01*
X93189522Y-67296327D01*
X93189521Y-67296329D01*
X93176011Y-67381631D01*
X93169206Y-67424596D01*
X93169976Y-67429455D01*
X93169976Y-67433189D01*
X93152587Y-67475173D01*
X93151376Y-67475982D01*
X93147957Y-67481099D01*
X93136011Y-67498976D01*
X93136009Y-67498980D01*
X93136007Y-67498983D01*
X93136006Y-67498984D01*
X93118529Y-67525141D01*
X93090485Y-67567111D01*
X93083900Y-67600218D01*
X93069103Y-67674606D01*
X93070304Y-67680643D01*
X93073299Y-67695699D01*
X93074500Y-67707893D01*
X93074500Y-70297868D01*
X93056194Y-70342062D01*
X93001472Y-70396784D01*
X92940281Y-70516878D01*
X92939512Y-70521735D01*
X92939511Y-70521737D01*
X92929753Y-70583351D01*
X92919196Y-70650004D01*
X90708350Y-70650004D01*
X90708350Y-67635167D01*
X90726656Y-67590973D01*
X90742476Y-67579479D01*
X90798839Y-67550761D01*
X90798842Y-67550758D01*
X90803220Y-67548528D01*
X90898528Y-67453220D01*
X90928090Y-67395202D01*
X90957485Y-67337511D01*
X90957485Y-67337510D01*
X90959719Y-67333126D01*
X90980804Y-67200000D01*
X90961726Y-67079546D01*
X90960489Y-67071733D01*
X90960488Y-67071731D01*
X90959719Y-67066874D01*
X90934364Y-67017111D01*
X90900761Y-66951163D01*
X90898528Y-66946780D01*
X90851748Y-66900000D01*
X94244196Y-66900000D01*
X94244965Y-66904855D01*
X94262391Y-67014877D01*
X94265281Y-67033126D01*
X94326472Y-67153220D01*
X94381194Y-67207942D01*
X94399500Y-67252136D01*
X94399500Y-70247864D01*
X94381194Y-70292058D01*
X94351472Y-70321780D01*
X94321910Y-70379798D01*
X94309405Y-70404342D01*
X94290281Y-70441874D01*
X94289512Y-70446731D01*
X94289511Y-70446733D01*
X94277632Y-70521737D01*
X94269196Y-70575000D01*
X94269965Y-70579855D01*
X94285417Y-70677414D01*
X94290281Y-70708126D01*
X94351472Y-70828220D01*
X94446780Y-70923528D01*
X94451163Y-70925761D01*
X94562489Y-70982485D01*
X94562490Y-70982485D01*
X94566874Y-70984719D01*
X94571731Y-70985488D01*
X94571733Y-70985489D01*
X94695145Y-71005035D01*
X94700000Y-71005804D01*
X94704855Y-71005035D01*
X94828267Y-70985489D01*
X94828269Y-70985488D01*
X94833126Y-70984719D01*
X94837510Y-70982485D01*
X94837511Y-70982485D01*
X94948837Y-70925761D01*
X94953220Y-70923528D01*
X95048528Y-70828220D01*
X95109719Y-70708126D01*
X95114584Y-70677414D01*
X95130035Y-70579855D01*
X95130804Y-70575000D01*
X95122368Y-70521737D01*
X95110489Y-70446733D01*
X95110488Y-70446731D01*
X95109719Y-70441874D01*
X95090596Y-70404342D01*
X95078090Y-70379798D01*
X95048528Y-70321780D01*
X94968806Y-70242058D01*
X94950500Y-70197864D01*
X94950500Y-69699642D01*
X95794857Y-69699642D01*
X95798159Y-69714235D01*
X95799162Y-69719857D01*
X95810295Y-69804421D01*
X95811861Y-69808202D01*
X95811862Y-69808205D01*
X95849032Y-69897943D01*
X95849034Y-69897947D01*
X95850600Y-69901727D01*
X95853092Y-69904975D01*
X95853094Y-69904978D01*
X95903133Y-69970188D01*
X95914717Y-69985284D01*
X95998275Y-70049401D01*
X96063329Y-70076347D01*
X96091794Y-70088138D01*
X96091795Y-70088138D01*
X96095580Y-70089706D01*
X96099642Y-70090241D01*
X96099643Y-70090241D01*
X96178458Y-70100617D01*
X96184412Y-70101696D01*
X96195837Y-70104344D01*
X96195839Y-70104344D01*
X96199285Y-70105143D01*
X96200001Y-70105144D01*
X96215687Y-70101566D01*
X96229586Y-70100001D01*
X97489923Y-70100001D01*
X98769955Y-70100000D01*
X98784068Y-70101614D01*
X98799284Y-70105141D01*
X98800000Y-70105142D01*
X98814691Y-70101791D01*
X98820430Y-70100761D01*
X98840981Y-70098056D01*
X98900358Y-70090239D01*
X98900360Y-70090239D01*
X98904420Y-70089704D01*
X98908205Y-70088136D01*
X98908206Y-70088136D01*
X98997940Y-70050967D01*
X98997941Y-70050966D01*
X99001725Y-70049399D01*
X99085282Y-69985284D01*
X99149398Y-69901727D01*
X99189704Y-69804423D01*
X99200616Y-69721545D01*
X99201695Y-69715590D01*
X99202414Y-69712489D01*
X99205142Y-69700719D01*
X99205143Y-69700003D01*
X99201565Y-69684317D01*
X99200000Y-69670418D01*
X99200000Y-60530049D01*
X99201614Y-60515937D01*
X99204343Y-60504163D01*
X99204343Y-60504161D01*
X99205142Y-60500715D01*
X99205143Y-60499999D01*
X99201792Y-60485306D01*
X99200763Y-60479573D01*
X99190239Y-60399641D01*
X99189704Y-60395578D01*
X99173135Y-60355578D01*
X99150969Y-60302063D01*
X99150967Y-60302060D01*
X99149399Y-60298274D01*
X99085283Y-60214717D01*
X99001726Y-60150601D01*
X98997940Y-60149033D01*
X98997937Y-60149031D01*
X98944422Y-60126865D01*
X98904422Y-60110296D01*
X98821534Y-60099383D01*
X98815604Y-60098308D01*
X98800717Y-60094858D01*
X98800001Y-60094857D01*
X98784316Y-60098435D01*
X98770416Y-60100000D01*
X96230046Y-60100000D01*
X96215934Y-60098386D01*
X96204164Y-60095658D01*
X96200717Y-60094859D01*
X96200001Y-60094858D01*
X96185311Y-60098209D01*
X96179571Y-60099239D01*
X96173788Y-60100000D01*
X96099642Y-60109761D01*
X96099640Y-60109761D01*
X96095580Y-60110296D01*
X96091795Y-60111864D01*
X96091794Y-60111864D01*
X96091792Y-60111865D01*
X95998275Y-60150601D01*
X95914717Y-60214717D01*
X95850601Y-60298275D01*
X95810296Y-60395580D01*
X95809761Y-60399642D01*
X95809761Y-60399643D01*
X95799385Y-60478458D01*
X95798306Y-60484412D01*
X95795658Y-60495837D01*
X95794859Y-60499285D01*
X95794858Y-60500001D01*
X95795835Y-60504284D01*
X95798435Y-60515682D01*
X95800000Y-60529582D01*
X95800000Y-69670184D01*
X95798410Y-69684190D01*
X95796759Y-69691370D01*
X95794857Y-69699642D01*
X94950500Y-69699642D01*
X94950500Y-67252136D01*
X94968806Y-67207942D01*
X95023528Y-67153220D01*
X95084719Y-67033126D01*
X95087610Y-67014877D01*
X95105035Y-66904855D01*
X95105804Y-66900000D01*
X95088780Y-66792515D01*
X95085489Y-66771733D01*
X95085488Y-66771731D01*
X95084719Y-66766874D01*
X95023528Y-66646780D01*
X94928220Y-66551472D01*
X94843149Y-66508126D01*
X94812511Y-66492515D01*
X94812510Y-66492515D01*
X94808126Y-66490281D01*
X94803269Y-66489512D01*
X94803267Y-66489511D01*
X94679855Y-66469965D01*
X94675000Y-66469196D01*
X94670145Y-66469965D01*
X94546733Y-66489511D01*
X94546731Y-66489512D01*
X94541874Y-66490281D01*
X94537490Y-66492515D01*
X94537489Y-66492515D01*
X94506851Y-66508126D01*
X94421780Y-66551472D01*
X94326472Y-66646780D01*
X94265281Y-66766874D01*
X94264512Y-66771731D01*
X94264511Y-66771733D01*
X94261220Y-66792515D01*
X94244196Y-66900000D01*
X90851748Y-66900000D01*
X90803220Y-66851472D01*
X90713592Y-66805804D01*
X90687511Y-66792515D01*
X90687510Y-66792515D01*
X90683126Y-66790281D01*
X90678269Y-66789512D01*
X90678267Y-66789511D01*
X90554855Y-66769965D01*
X90550000Y-66769196D01*
X90545145Y-66769965D01*
X90421733Y-66789511D01*
X90421731Y-66789512D01*
X90416874Y-66790281D01*
X90412490Y-66792515D01*
X90412489Y-66792515D01*
X90386408Y-66805804D01*
X90296780Y-66851472D01*
X90201472Y-66946780D01*
X90199239Y-66951163D01*
X90165637Y-67017111D01*
X90140281Y-67066874D01*
X90139512Y-67071731D01*
X90139511Y-67071733D01*
X90138274Y-67079546D01*
X90119196Y-67200000D01*
X90140281Y-67333126D01*
X90142515Y-67337510D01*
X90142515Y-67337511D01*
X90150538Y-67353257D01*
X90157350Y-67381631D01*
X90157350Y-73830714D01*
X90139044Y-73874908D01*
X90084322Y-73929630D01*
X90061279Y-73974855D01*
X90048087Y-74000746D01*
X90023131Y-74049724D01*
X90022362Y-74054581D01*
X90022361Y-74054583D01*
X90011428Y-74123611D01*
X90002046Y-74182850D01*
X78325509Y-74182850D01*
X78325509Y-71930061D01*
X78325956Y-71923973D01*
X78327434Y-71919667D01*
X78325553Y-71869567D01*
X78325509Y-71867222D01*
X78325509Y-71847061D01*
X78324983Y-71844235D01*
X78324718Y-71841366D01*
X78324809Y-71841358D01*
X78324334Y-71837091D01*
X78323451Y-71813568D01*
X78323451Y-71813566D01*
X78323234Y-71807800D01*
X78317090Y-71793499D01*
X78313070Y-71780270D01*
X78311274Y-71770627D01*
X78310218Y-71764956D01*
X78294836Y-71740002D01*
X78290616Y-71731879D01*
X78280787Y-71709000D01*
X78280786Y-71708998D01*
X78279045Y-71704946D01*
X78275031Y-71700060D01*
X78267649Y-71692678D01*
X78258639Y-71681279D01*
X78254507Y-71674576D01*
X78254506Y-71674575D01*
X78251477Y-71669661D01*
X78226275Y-71650497D01*
X78219912Y-71644941D01*
X78175027Y-71600056D01*
X78175022Y-71600050D01*
X78146262Y-71571290D01*
X78128725Y-71536873D01*
X78110489Y-71421733D01*
X78110488Y-71421731D01*
X78109719Y-71416874D01*
X78048528Y-71296780D01*
X77953220Y-71201472D01*
X77872883Y-71160538D01*
X77837511Y-71142515D01*
X77837510Y-71142515D01*
X77833126Y-71140281D01*
X77828269Y-71139512D01*
X77828267Y-71139511D01*
X77704855Y-71119965D01*
X77700000Y-71119196D01*
X77566874Y-71140281D01*
X77562491Y-71142514D01*
X77562489Y-71142515D01*
X77541374Y-71153273D01*
X77493686Y-71157026D01*
X77457312Y-71125959D01*
X77450500Y-71097585D01*
X77450500Y-70280052D01*
X77450947Y-70273964D01*
X77452425Y-70269658D01*
X77450544Y-70219546D01*
X77450500Y-70217202D01*
X77450500Y-70197052D01*
X77449974Y-70194225D01*
X77449709Y-70191358D01*
X77449800Y-70191350D01*
X77449326Y-70187088D01*
X77448442Y-70163557D01*
X77448226Y-70157792D01*
X77442078Y-70143482D01*
X77438060Y-70130254D01*
X77436266Y-70120622D01*
X77435209Y-70114947D01*
X77419822Y-70089984D01*
X77415613Y-70081883D01*
X77404036Y-70054937D01*
X77400022Y-70050051D01*
X77392640Y-70042669D01*
X77383630Y-70031270D01*
X77379498Y-70024567D01*
X77379497Y-70024566D01*
X77376468Y-70019652D01*
X77351266Y-70000488D01*
X77344903Y-69994932D01*
X77101416Y-69751445D01*
X77097424Y-69746820D01*
X77095425Y-69742731D01*
X77081806Y-69730097D01*
X77058653Y-69708620D01*
X77056964Y-69706993D01*
X77042723Y-69692752D01*
X77040352Y-69691125D01*
X77038133Y-69689281D01*
X77038192Y-69689211D01*
X77034842Y-69686532D01*
X77032318Y-69684190D01*
X77013354Y-69666599D01*
X76998889Y-69660828D01*
X76986697Y-69654318D01*
X76978613Y-69648772D01*
X76978610Y-69648771D01*
X76973854Y-69645508D01*
X76945331Y-69638739D01*
X76936613Y-69635983D01*
X76909378Y-69625117D01*
X76904987Y-69624686D01*
X76904985Y-69624686D01*
X76904845Y-69624673D01*
X76903085Y-69624500D01*
X76892643Y-69624500D01*
X76878212Y-69622811D01*
X76870547Y-69620992D01*
X76864934Y-69619660D01*
X76841781Y-69622811D01*
X76833566Y-69623929D01*
X76825138Y-69624500D01*
X76385054Y-69624500D01*
X76378966Y-69624053D01*
X76374660Y-69622575D01*
X76325233Y-69624430D01*
X76324548Y-69624456D01*
X76322204Y-69624500D01*
X76302054Y-69624500D01*
X76299227Y-69625026D01*
X76296360Y-69625291D01*
X76296352Y-69625200D01*
X76292090Y-69625674D01*
X76290277Y-69625742D01*
X76262794Y-69626774D01*
X76248710Y-69632825D01*
X76248484Y-69632922D01*
X76235256Y-69636940D01*
X76231283Y-69637680D01*
X76219949Y-69639791D01*
X76194986Y-69655178D01*
X76186885Y-69659387D01*
X76159939Y-69670964D01*
X76155053Y-69674978D01*
X76147671Y-69682360D01*
X76136272Y-69691370D01*
X76129569Y-69695502D01*
X76124654Y-69698532D01*
X76116983Y-69708620D01*
X76105490Y-69723734D01*
X76099934Y-69730097D01*
X75821291Y-70008740D01*
X75786874Y-70026277D01*
X75671733Y-70044513D01*
X75671731Y-70044514D01*
X75666874Y-70045283D01*
X75662490Y-70047517D01*
X75662489Y-70047517D01*
X75647927Y-70054937D01*
X75546780Y-70106474D01*
X75517058Y-70136196D01*
X75472864Y-70154502D01*
X73727136Y-70154502D01*
X73682942Y-70136196D01*
X73653220Y-70106474D01*
X73552073Y-70054937D01*
X73537511Y-70047517D01*
X73537510Y-70047517D01*
X73533126Y-70045283D01*
X73528269Y-70044514D01*
X73528267Y-70044513D01*
X73404855Y-70024967D01*
X73400000Y-70024198D01*
X73395145Y-70024967D01*
X73271733Y-70044513D01*
X73271731Y-70044514D01*
X73266874Y-70045283D01*
X73262490Y-70047517D01*
X73262489Y-70047517D01*
X73247927Y-70054937D01*
X73146780Y-70106474D01*
X73117058Y-70136196D01*
X73072864Y-70154502D01*
X73005361Y-70154502D01*
X72961167Y-70136196D01*
X72501416Y-69676445D01*
X72497424Y-69671820D01*
X72495425Y-69667731D01*
X72485206Y-69658251D01*
X72458653Y-69633620D01*
X72456964Y-69631993D01*
X72442723Y-69617752D01*
X72440352Y-69616125D01*
X72438133Y-69614281D01*
X72438192Y-69614211D01*
X72434842Y-69611532D01*
X72417583Y-69595522D01*
X72413354Y-69591599D01*
X72398889Y-69585828D01*
X72386697Y-69579318D01*
X72378613Y-69573772D01*
X72378610Y-69573771D01*
X72373854Y-69570508D01*
X72345331Y-69563739D01*
X72336613Y-69560983D01*
X72309378Y-69550117D01*
X72304987Y-69549686D01*
X72304985Y-69549686D01*
X72304845Y-69549673D01*
X72303085Y-69549500D01*
X72292643Y-69549500D01*
X72278212Y-69547811D01*
X72270547Y-69545992D01*
X72264934Y-69544660D01*
X72255147Y-69545992D01*
X72233566Y-69548929D01*
X72225138Y-69549500D01*
X71927136Y-69549500D01*
X71882942Y-69531194D01*
X71853220Y-69501472D01*
X71795202Y-69471910D01*
X71737511Y-69442515D01*
X71737510Y-69442515D01*
X71733126Y-69440281D01*
X71728269Y-69439512D01*
X71728267Y-69439511D01*
X71604855Y-69419965D01*
X71600000Y-69419196D01*
X71595145Y-69419965D01*
X71471733Y-69439511D01*
X71471731Y-69439512D01*
X71466874Y-69440281D01*
X71462490Y-69442515D01*
X71462489Y-69442515D01*
X71404798Y-69471910D01*
X71346780Y-69501472D01*
X71251472Y-69596780D01*
X71230632Y-69637680D01*
X71194487Y-69708620D01*
X71190281Y-69716874D01*
X71189512Y-69721731D01*
X71189511Y-69721733D01*
X71177058Y-69800358D01*
X71169196Y-69850000D01*
X60400000Y-69850000D01*
X60400000Y-65975000D01*
X88769196Y-65975000D01*
X88769965Y-65979855D01*
X88788761Y-66098528D01*
X88790281Y-66108126D01*
X88851472Y-66228220D01*
X88946780Y-66323528D01*
X88951163Y-66325761D01*
X89062489Y-66382485D01*
X89062490Y-66382485D01*
X89066874Y-66384719D01*
X89071731Y-66385488D01*
X89071733Y-66385489D01*
X89195145Y-66405035D01*
X89200000Y-66405804D01*
X89204855Y-66405035D01*
X89328267Y-66385489D01*
X89328269Y-66385488D01*
X89333126Y-66384719D01*
X89337510Y-66382485D01*
X89337511Y-66382485D01*
X89352201Y-66375000D01*
X92769196Y-66375000D01*
X92769965Y-66379855D01*
X92787455Y-66490281D01*
X92790281Y-66508126D01*
X92851472Y-66628220D01*
X92946780Y-66723528D01*
X92951163Y-66725761D01*
X93062489Y-66782485D01*
X93062490Y-66782485D01*
X93066874Y-66784719D01*
X93071731Y-66785488D01*
X93071733Y-66785489D01*
X93195145Y-66805035D01*
X93200000Y-66805804D01*
X93204855Y-66805035D01*
X93328267Y-66785489D01*
X93328269Y-66785488D01*
X93333126Y-66784719D01*
X93337510Y-66782485D01*
X93337511Y-66782485D01*
X93448837Y-66725761D01*
X93453220Y-66723528D01*
X93548528Y-66628220D01*
X93609719Y-66508126D01*
X93612546Y-66490281D01*
X93630035Y-66379855D01*
X93630804Y-66375000D01*
X93609719Y-66241874D01*
X93562878Y-66149943D01*
X93559125Y-66102257D01*
X93574372Y-66077376D01*
X93648528Y-66003220D01*
X93709719Y-65883126D01*
X93730804Y-65750000D01*
X93711790Y-65629950D01*
X93710489Y-65621733D01*
X93710488Y-65621731D01*
X93709719Y-65616874D01*
X93648528Y-65496780D01*
X93553220Y-65401472D01*
X93495202Y-65371910D01*
X93437511Y-65342515D01*
X93437510Y-65342515D01*
X93433126Y-65340281D01*
X93428269Y-65339512D01*
X93428267Y-65339511D01*
X93304855Y-65319965D01*
X93300000Y-65319196D01*
X93295145Y-65319965D01*
X93171733Y-65339511D01*
X93171731Y-65339512D01*
X93166874Y-65340281D01*
X93162490Y-65342515D01*
X93162489Y-65342515D01*
X93104798Y-65371910D01*
X93046780Y-65401472D01*
X92951472Y-65496780D01*
X92890281Y-65616874D01*
X92889512Y-65621731D01*
X92889511Y-65621733D01*
X92888210Y-65629950D01*
X92869196Y-65750000D01*
X92890281Y-65883126D01*
X92937122Y-65975057D01*
X92940875Y-66022743D01*
X92925628Y-66047624D01*
X92851472Y-66121780D01*
X92790281Y-66241874D01*
X92769196Y-66375000D01*
X89352201Y-66375000D01*
X89448837Y-66325761D01*
X89453220Y-66323528D01*
X89548528Y-66228220D01*
X89609719Y-66108126D01*
X89611240Y-66098528D01*
X89630035Y-65979855D01*
X89630804Y-65975000D01*
X89609719Y-65841874D01*
X89548528Y-65721780D01*
X89453220Y-65626472D01*
X89395202Y-65596910D01*
X89337511Y-65567515D01*
X89337510Y-65567515D01*
X89333126Y-65565281D01*
X89328269Y-65564512D01*
X89328267Y-65564511D01*
X89204855Y-65544965D01*
X89200000Y-65544196D01*
X89195145Y-65544965D01*
X89071733Y-65564511D01*
X89071731Y-65564512D01*
X89066874Y-65565281D01*
X89062490Y-65567515D01*
X89062489Y-65567515D01*
X89004798Y-65596910D01*
X88946780Y-65626472D01*
X88851472Y-65721780D01*
X88790281Y-65841874D01*
X88769196Y-65975000D01*
X60400000Y-65975000D01*
X60400000Y-63050000D01*
X89394196Y-63050000D01*
X89394965Y-63054855D01*
X89413197Y-63169965D01*
X89415281Y-63183126D01*
X89417515Y-63187510D01*
X89417515Y-63187511D01*
X89420065Y-63192515D01*
X89476472Y-63303220D01*
X89571780Y-63398528D01*
X89576163Y-63400761D01*
X89687489Y-63457485D01*
X89687490Y-63457485D01*
X89691874Y-63459719D01*
X89696731Y-63460488D01*
X89696733Y-63460489D01*
X89820145Y-63480035D01*
X89825000Y-63480804D01*
X89829855Y-63480035D01*
X89881662Y-63471830D01*
X89928176Y-63482998D01*
X89953170Y-63523784D01*
X89953170Y-63543338D01*
X89944196Y-63600000D01*
X89965281Y-63733126D01*
X90026472Y-63853220D01*
X90121780Y-63948528D01*
X90126163Y-63950761D01*
X90199136Y-63987943D01*
X90230203Y-64024318D01*
X90226450Y-64072005D01*
X90199136Y-64099319D01*
X90096780Y-64151472D01*
X90001472Y-64246780D01*
X89940281Y-64366874D01*
X89919196Y-64500000D01*
X89940281Y-64633126D01*
X90001472Y-64753220D01*
X90096780Y-64848528D01*
X90101163Y-64850761D01*
X90212489Y-64907485D01*
X90212490Y-64907485D01*
X90216874Y-64909719D01*
X90221731Y-64910488D01*
X90221733Y-64910489D01*
X90345145Y-64930035D01*
X90350000Y-64930804D01*
X90354855Y-64930035D01*
X90478267Y-64910489D01*
X90478269Y-64910488D01*
X90483126Y-64909719D01*
X90487510Y-64907485D01*
X90487511Y-64907485D01*
X90598837Y-64850761D01*
X90603220Y-64848528D01*
X90698528Y-64753220D01*
X90759719Y-64633126D01*
X90780804Y-64500000D01*
X90759719Y-64366874D01*
X90698528Y-64246780D01*
X90603220Y-64151472D01*
X90525864Y-64112057D01*
X90494797Y-64075682D01*
X90498550Y-64027995D01*
X90525864Y-64000681D01*
X90623837Y-63950761D01*
X90628220Y-63948528D01*
X90651748Y-63925000D01*
X92819196Y-63925000D01*
X92819965Y-63929855D01*
X92835954Y-64030804D01*
X92840281Y-64058126D01*
X92842515Y-64062510D01*
X92842515Y-64062511D01*
X92849226Y-64075682D01*
X92901472Y-64178220D01*
X92909066Y-64185814D01*
X92927372Y-64230008D01*
X92920560Y-64258382D01*
X92865281Y-64366874D01*
X92844196Y-64500000D01*
X92865281Y-64633126D01*
X92926472Y-64753220D01*
X93021780Y-64848528D01*
X93026163Y-64850761D01*
X93137489Y-64907485D01*
X93137490Y-64907485D01*
X93141874Y-64909719D01*
X93146731Y-64910488D01*
X93146733Y-64910489D01*
X93270145Y-64930035D01*
X93275000Y-64930804D01*
X93279855Y-64930035D01*
X93403267Y-64910489D01*
X93403269Y-64910488D01*
X93408126Y-64909719D01*
X93412510Y-64907485D01*
X93412511Y-64907485D01*
X93523837Y-64850761D01*
X93528220Y-64848528D01*
X93623528Y-64753220D01*
X93684719Y-64633126D01*
X93705804Y-64500000D01*
X93684719Y-64366874D01*
X93623528Y-64246780D01*
X93615934Y-64239186D01*
X93597628Y-64194992D01*
X93604440Y-64166618D01*
X93657485Y-64062511D01*
X93657485Y-64062510D01*
X93659719Y-64058126D01*
X93664047Y-64030804D01*
X93680035Y-63929855D01*
X93680804Y-63925000D01*
X93659719Y-63791874D01*
X93598528Y-63671780D01*
X93503220Y-63576472D01*
X93399814Y-63523784D01*
X93387511Y-63517515D01*
X93387510Y-63517515D01*
X93383126Y-63515281D01*
X93378269Y-63514512D01*
X93378267Y-63514511D01*
X93254855Y-63494965D01*
X93250000Y-63494196D01*
X93245145Y-63494965D01*
X93121733Y-63514511D01*
X93121731Y-63514512D01*
X93116874Y-63515281D01*
X93112490Y-63517515D01*
X93112489Y-63517515D01*
X93100186Y-63523784D01*
X92996780Y-63576472D01*
X92901472Y-63671780D01*
X92840281Y-63791874D01*
X92819196Y-63925000D01*
X90651748Y-63925000D01*
X90723528Y-63853220D01*
X90784719Y-63733126D01*
X90805804Y-63600000D01*
X90789168Y-63494965D01*
X90785489Y-63471733D01*
X90785488Y-63471731D01*
X90784719Y-63466874D01*
X90781074Y-63459719D01*
X90725761Y-63351163D01*
X90723528Y-63346780D01*
X90628220Y-63251472D01*
X90570202Y-63221910D01*
X90512511Y-63192515D01*
X90512510Y-63192515D01*
X90508126Y-63190281D01*
X90503269Y-63189512D01*
X90503267Y-63189511D01*
X90379855Y-63169965D01*
X90375000Y-63169196D01*
X90370145Y-63169965D01*
X90318338Y-63178170D01*
X90271824Y-63167002D01*
X90246830Y-63126216D01*
X90246830Y-63106662D01*
X90255035Y-63054855D01*
X90255804Y-63050000D01*
X90253050Y-63032609D01*
X90235489Y-62921733D01*
X90235488Y-62921731D01*
X90234719Y-62916874D01*
X90173528Y-62796780D01*
X90078220Y-62701472D01*
X90075331Y-62700000D01*
X92744196Y-62700000D01*
X92744965Y-62704855D01*
X92760219Y-62801163D01*
X92765281Y-62833126D01*
X92826472Y-62953220D01*
X92921780Y-63048528D01*
X92979798Y-63078090D01*
X93037489Y-63107485D01*
X93037490Y-63107485D01*
X93041874Y-63109719D01*
X93046731Y-63110488D01*
X93046733Y-63110489D01*
X93170145Y-63130035D01*
X93175000Y-63130804D01*
X93179855Y-63130035D01*
X93303267Y-63110489D01*
X93303269Y-63110488D01*
X93308126Y-63109719D01*
X93312510Y-63107485D01*
X93312511Y-63107485D01*
X93370202Y-63078090D01*
X93428220Y-63048528D01*
X93523528Y-62953220D01*
X93584719Y-62833126D01*
X93589782Y-62801163D01*
X93605035Y-62704855D01*
X93605804Y-62700000D01*
X93596699Y-62642515D01*
X93585489Y-62571733D01*
X93585488Y-62571731D01*
X93584719Y-62566874D01*
X93523528Y-62446780D01*
X93454290Y-62377542D01*
X93435984Y-62333348D01*
X93454290Y-62289154D01*
X93470108Y-62277661D01*
X93478220Y-62273528D01*
X93573528Y-62178220D01*
X93634719Y-62058126D01*
X93655804Y-61925000D01*
X93653050Y-61907609D01*
X93635489Y-61796733D01*
X93635488Y-61796731D01*
X93634719Y-61791874D01*
X93573528Y-61671780D01*
X93478220Y-61576472D01*
X93420202Y-61546910D01*
X93362511Y-61517515D01*
X93362510Y-61517515D01*
X93358126Y-61515281D01*
X93353269Y-61514512D01*
X93353267Y-61514511D01*
X93229855Y-61494965D01*
X93225000Y-61494196D01*
X93220145Y-61494965D01*
X93096733Y-61514511D01*
X93096731Y-61514512D01*
X93091874Y-61515281D01*
X93087490Y-61517515D01*
X93087489Y-61517515D01*
X93029798Y-61546910D01*
X92971780Y-61576472D01*
X92876472Y-61671780D01*
X92815281Y-61791874D01*
X92814512Y-61796731D01*
X92814511Y-61796733D01*
X92796950Y-61907609D01*
X92794196Y-61925000D01*
X92815281Y-62058126D01*
X92876472Y-62178220D01*
X92945710Y-62247458D01*
X92964016Y-62291652D01*
X92945710Y-62335846D01*
X92929892Y-62347339D01*
X92921780Y-62351472D01*
X92826472Y-62446780D01*
X92765281Y-62566874D01*
X92764512Y-62571731D01*
X92764511Y-62571733D01*
X92753301Y-62642515D01*
X92744196Y-62700000D01*
X90075331Y-62700000D01*
X90020202Y-62671910D01*
X89962511Y-62642515D01*
X89962510Y-62642515D01*
X89958126Y-62640281D01*
X89953269Y-62639512D01*
X89953267Y-62639511D01*
X89829855Y-62619965D01*
X89825000Y-62619196D01*
X89820145Y-62619965D01*
X89696733Y-62639511D01*
X89696731Y-62639512D01*
X89691874Y-62640281D01*
X89687490Y-62642515D01*
X89687489Y-62642515D01*
X89629798Y-62671910D01*
X89571780Y-62701472D01*
X89476472Y-62796780D01*
X89415281Y-62916874D01*
X89414512Y-62921731D01*
X89414511Y-62921733D01*
X89396950Y-63032609D01*
X89394196Y-63050000D01*
X60400000Y-63050000D01*
X60400000Y-61425000D01*
X90019196Y-61425000D01*
X90019965Y-61429855D01*
X90030156Y-61494196D01*
X90040281Y-61558126D01*
X90101472Y-61678220D01*
X90196780Y-61773528D01*
X90201163Y-61775761D01*
X90312489Y-61832485D01*
X90312490Y-61832485D01*
X90316874Y-61834719D01*
X90321731Y-61835488D01*
X90321733Y-61835489D01*
X90445145Y-61855035D01*
X90450000Y-61855804D01*
X90454855Y-61855035D01*
X90578267Y-61835489D01*
X90578269Y-61835488D01*
X90583126Y-61834719D01*
X90587510Y-61832485D01*
X90587511Y-61832485D01*
X90698837Y-61775761D01*
X90703220Y-61773528D01*
X90798528Y-61678220D01*
X90859719Y-61558126D01*
X90869845Y-61494196D01*
X90880035Y-61429855D01*
X90880804Y-61425000D01*
X90859719Y-61291874D01*
X90798528Y-61171780D01*
X90703220Y-61076472D01*
X90645202Y-61046910D01*
X90587511Y-61017515D01*
X90587510Y-61017515D01*
X90583126Y-61015281D01*
X90578269Y-61014512D01*
X90578267Y-61014511D01*
X90454855Y-60994965D01*
X90450000Y-60994196D01*
X90445145Y-60994965D01*
X90321733Y-61014511D01*
X90321731Y-61014512D01*
X90316874Y-61015281D01*
X90312490Y-61017515D01*
X90312489Y-61017515D01*
X90254798Y-61046910D01*
X90196780Y-61076472D01*
X90101472Y-61171780D01*
X90040281Y-61291874D01*
X90019196Y-61425000D01*
X60400000Y-61425000D01*
X60400000Y-60030045D01*
X60401614Y-60015933D01*
X60403487Y-60007852D01*
X60405141Y-60000716D01*
X60405142Y-60000000D01*
X60401791Y-59985309D01*
X60400761Y-59979568D01*
X60390239Y-59899641D01*
X60390239Y-59899639D01*
X60389704Y-59895579D01*
X60388136Y-59891793D01*
X60350969Y-59802064D01*
X60350967Y-59802060D01*
X60349399Y-59798275D01*
X60285283Y-59714718D01*
X60201726Y-59650602D01*
X60197940Y-59649034D01*
X60197937Y-59649032D01*
X60108208Y-59611865D01*
X60108206Y-59611865D01*
X60104422Y-59610297D01*
X60100360Y-59609762D01*
X60100359Y-59609762D01*
X60021544Y-59599386D01*
X60015590Y-59598307D01*
X60004165Y-59595659D01*
X60004163Y-59595659D01*
X60000717Y-59594860D01*
X60000001Y-59594859D01*
X59984323Y-59598435D01*
X59970425Y-59600000D01*
X52230046Y-59600000D01*
X52215934Y-59598386D01*
X52204164Y-59595658D01*
X52200717Y-59594859D01*
X52200001Y-59594858D01*
X52196490Y-59595659D01*
X52185311Y-59598209D01*
X52179571Y-59599239D01*
X52178452Y-59599386D01*
X52099642Y-59609761D01*
X52099640Y-59609761D01*
X52095580Y-59610296D01*
X52091795Y-59611864D01*
X52091794Y-59611864D01*
X52002060Y-59649033D01*
X51998275Y-59650601D01*
X51995026Y-59653094D01*
X51956496Y-59682659D01*
X51914717Y-59714717D01*
X51850601Y-59798275D01*
X51849034Y-59802059D01*
X51849033Y-59802060D01*
X51811865Y-59891793D01*
X51810296Y-59895580D01*
X51809761Y-59899642D01*
X51809761Y-59899643D01*
X51799385Y-59978458D01*
X51798306Y-59984412D01*
X51794859Y-59999285D01*
X51794858Y-60000001D01*
X51798435Y-60015682D01*
X51800000Y-60029582D01*
X51800000Y-69970188D01*
X51798410Y-69984194D01*
X51797586Y-69987777D01*
X51794858Y-69999642D01*
X50300000Y-69999642D01*
X50300000Y-57528571D01*
X53042264Y-57528571D01*
X53044528Y-57534037D01*
X53243631Y-57680828D01*
X53246549Y-57682738D01*
X53553406Y-57859902D01*
X53556519Y-57861474D01*
X53881214Y-58003330D01*
X53884479Y-58004544D01*
X54222964Y-58109323D01*
X54226344Y-58110166D01*
X54574394Y-58176559D01*
X54577856Y-58177021D01*
X54931147Y-58204206D01*
X54934616Y-58204278D01*
X55288741Y-58191912D01*
X55292200Y-58191597D01*
X55642734Y-58139835D01*
X55646161Y-58139131D01*
X55988720Y-58048623D01*
X55992040Y-58047545D01*
X56322385Y-57919412D01*
X56325566Y-57917969D01*
X56639568Y-57753814D01*
X56642569Y-57752025D01*
X56936330Y-57553881D01*
X56939086Y-57551789D01*
X56955019Y-57538229D01*
X56959353Y-57529759D01*
X56958969Y-57528571D01*
X93042264Y-57528571D01*
X93044528Y-57534037D01*
X93243631Y-57680828D01*
X93246549Y-57682738D01*
X93553406Y-57859902D01*
X93556519Y-57861474D01*
X93881214Y-58003330D01*
X93884479Y-58004544D01*
X94222964Y-58109323D01*
X94226344Y-58110166D01*
X94574394Y-58176559D01*
X94577856Y-58177021D01*
X94931147Y-58204206D01*
X94934616Y-58204278D01*
X95288741Y-58191912D01*
X95292200Y-58191597D01*
X95642734Y-58139835D01*
X95646161Y-58139131D01*
X95988720Y-58048623D01*
X95992040Y-58047545D01*
X96322385Y-57919412D01*
X96325566Y-57917969D01*
X96639568Y-57753814D01*
X96642569Y-57752025D01*
X96936330Y-57553881D01*
X96939086Y-57551789D01*
X96955019Y-57538229D01*
X96959353Y-57529759D01*
X96957102Y-57522788D01*
X95008790Y-55574475D01*
X95000000Y-55570834D01*
X94991210Y-55574475D01*
X93045905Y-57519781D01*
X93042264Y-57528571D01*
X56958969Y-57528571D01*
X56957102Y-57522788D01*
X55008790Y-55574475D01*
X55000000Y-55570834D01*
X54991210Y-55574475D01*
X53045905Y-57519781D01*
X53042264Y-57528571D01*
X50300000Y-57528571D01*
X50300000Y-55029816D01*
X50301590Y-55015810D01*
X50303565Y-55007220D01*
X50305143Y-55000358D01*
X50303590Y-54993494D01*
X50303590Y-54993491D01*
X50302666Y-54989409D01*
X50301184Y-54972891D01*
X50301878Y-54956997D01*
X51795343Y-54956997D01*
X51810181Y-55311004D01*
X51810522Y-55314491D01*
X51864730Y-55664651D01*
X51865449Y-55668035D01*
X51958359Y-56009997D01*
X51959452Y-56013282D01*
X52089893Y-56342740D01*
X52091355Y-56345905D01*
X52257701Y-56658753D01*
X52259509Y-56661739D01*
X52459692Y-56954101D01*
X52461093Y-56955920D01*
X52468229Y-56959510D01*
X52478697Y-56955617D01*
X54425525Y-55008790D01*
X54429166Y-55000000D01*
X55570834Y-55000000D01*
X55574475Y-55008790D01*
X57519441Y-56953755D01*
X57528231Y-56957396D01*
X57533813Y-56955084D01*
X57668500Y-56775044D01*
X57670435Y-56772131D01*
X57849728Y-56466534D01*
X57851330Y-56463416D01*
X57995449Y-56139720D01*
X57996683Y-56136470D01*
X58103819Y-55798735D01*
X58104690Y-55795347D01*
X58173513Y-55447764D01*
X58173997Y-55444320D01*
X58203702Y-55090560D01*
X58203807Y-55088415D01*
X58205027Y-55001074D01*
X58204982Y-54998932D01*
X58202638Y-54956997D01*
X91795343Y-54956997D01*
X91810181Y-55311004D01*
X91810522Y-55314491D01*
X91864730Y-55664651D01*
X91865449Y-55668035D01*
X91958359Y-56009997D01*
X91959452Y-56013282D01*
X92089893Y-56342740D01*
X92091355Y-56345905D01*
X92257701Y-56658753D01*
X92259509Y-56661739D01*
X92459692Y-56954101D01*
X92461093Y-56955920D01*
X92468229Y-56959510D01*
X92478697Y-56955617D01*
X94425525Y-55008790D01*
X94429166Y-55000000D01*
X95570834Y-55000000D01*
X95574475Y-55008790D01*
X97519441Y-56953755D01*
X97528231Y-56957396D01*
X97533813Y-56955084D01*
X97668500Y-56775044D01*
X97670435Y-56772131D01*
X97849728Y-56466534D01*
X97851330Y-56463416D01*
X97995449Y-56139720D01*
X97996683Y-56136470D01*
X98103819Y-55798735D01*
X98104690Y-55795347D01*
X98173513Y-55447764D01*
X98173997Y-55444320D01*
X98203702Y-55090560D01*
X98203807Y-55088415D01*
X98205027Y-55001074D01*
X98204982Y-54998932D01*
X98185165Y-54644468D01*
X98184778Y-54641025D01*
X98125687Y-54291654D01*
X98124912Y-54288244D01*
X98027246Y-53947643D01*
X98026102Y-53944358D01*
X97891078Y-53616766D01*
X97889568Y-53613613D01*
X97718868Y-53303112D01*
X97717029Y-53300168D01*
X97537434Y-53045577D01*
X97529391Y-53040492D01*
X97523973Y-53041713D01*
X95574475Y-54991210D01*
X95570834Y-55000000D01*
X94429166Y-55000000D01*
X94425525Y-54991210D01*
X92479766Y-53045452D01*
X92470976Y-53041811D01*
X92465624Y-53044028D01*
X92306971Y-53262395D01*
X92305085Y-53265323D01*
X92130070Y-53573406D01*
X92128519Y-53576529D01*
X91988933Y-53902208D01*
X91987741Y-53905482D01*
X91885333Y-54244673D01*
X91884506Y-54248093D01*
X91820548Y-54596575D01*
X91820109Y-54600049D01*
X91795392Y-54953511D01*
X91795343Y-54956997D01*
X58202638Y-54956997D01*
X58185165Y-54644468D01*
X58184778Y-54641025D01*
X58125687Y-54291654D01*
X58124912Y-54288244D01*
X58027246Y-53947643D01*
X58026102Y-53944358D01*
X57891078Y-53616766D01*
X57889568Y-53613613D01*
X57718868Y-53303112D01*
X57717029Y-53300168D01*
X57537434Y-53045577D01*
X57529391Y-53040492D01*
X57523973Y-53041713D01*
X55574475Y-54991210D01*
X55570834Y-55000000D01*
X54429166Y-55000000D01*
X54425525Y-54991210D01*
X52479766Y-53045452D01*
X52470976Y-53041811D01*
X52465624Y-53044028D01*
X52306971Y-53262395D01*
X52305085Y-53265323D01*
X52130070Y-53573406D01*
X52128519Y-53576529D01*
X51988933Y-53902208D01*
X51987741Y-53905482D01*
X51885333Y-54244673D01*
X51884506Y-54248093D01*
X51820548Y-54596575D01*
X51820109Y-54600049D01*
X51795392Y-54953511D01*
X51795343Y-54956997D01*
X50301878Y-54956997D01*
X50317766Y-54593086D01*
X50318242Y-54587654D01*
X50371047Y-54186567D01*
X50371993Y-54181198D01*
X50459560Y-53786208D01*
X50460972Y-53780941D01*
X50513730Y-53613613D01*
X50582626Y-53395102D01*
X50584489Y-53389984D01*
X50739310Y-53016215D01*
X50741614Y-53011274D01*
X50928420Y-52652423D01*
X50931146Y-52647701D01*
X51044449Y-52469851D01*
X53039693Y-52469851D01*
X53040851Y-52475165D01*
X54991210Y-54425525D01*
X55000000Y-54429166D01*
X55008790Y-54425525D01*
X56955114Y-52479200D01*
X56958755Y-52470410D01*
X56958523Y-52469851D01*
X93039693Y-52469851D01*
X93040851Y-52475165D01*
X94991210Y-54425525D01*
X95000000Y-54429166D01*
X95008790Y-54425525D01*
X96955114Y-52479200D01*
X96958755Y-52470410D01*
X96956584Y-52465169D01*
X96718772Y-52294914D01*
X96715821Y-52293041D01*
X96406525Y-52120180D01*
X96403381Y-52118647D01*
X96076748Y-51981344D01*
X96073459Y-51980172D01*
X95733551Y-51880133D01*
X95730150Y-51879335D01*
X95381223Y-51817809D01*
X95377741Y-51817394D01*
X95024123Y-51795146D01*
X95020619Y-51795122D01*
X94666732Y-51812430D01*
X94663255Y-51812796D01*
X94313494Y-51869444D01*
X94310079Y-51870194D01*
X93968802Y-51965481D01*
X93965509Y-51966602D01*
X93636972Y-52099339D01*
X93633829Y-52100818D01*
X93322140Y-52269348D01*
X93319170Y-52271175D01*
X93044833Y-52461844D01*
X93039693Y-52469851D01*
X56958523Y-52469851D01*
X56956584Y-52465169D01*
X56718772Y-52294914D01*
X56715821Y-52293041D01*
X56406525Y-52120180D01*
X56403381Y-52118647D01*
X56076748Y-51981344D01*
X56073459Y-51980172D01*
X55733551Y-51880133D01*
X55730150Y-51879335D01*
X55381223Y-51817809D01*
X55377741Y-51817394D01*
X55024123Y-51795146D01*
X55020619Y-51795122D01*
X54666732Y-51812430D01*
X54663255Y-51812796D01*
X54313494Y-51869444D01*
X54310079Y-51870194D01*
X53968802Y-51965481D01*
X53965509Y-51966602D01*
X53636972Y-52099339D01*
X53633829Y-52100818D01*
X53322140Y-52269348D01*
X53319170Y-52271175D01*
X53044833Y-52461844D01*
X53039693Y-52469851D01*
X51044449Y-52469851D01*
X51148516Y-52306499D01*
X51151643Y-52302032D01*
X51397935Y-51981057D01*
X51401440Y-51976881D01*
X51547202Y-51817809D01*
X51674758Y-51678606D01*
X51678610Y-51674754D01*
X51976881Y-51401440D01*
X51981057Y-51397935D01*
X52302032Y-51151643D01*
X52306499Y-51148516D01*
X52647701Y-50931146D01*
X52652423Y-50928420D01*
X53011274Y-50741614D01*
X53016215Y-50739310D01*
X53203100Y-50661899D01*
X53389989Y-50584487D01*
X53395102Y-50582626D01*
X53780939Y-50460972D01*
X53786208Y-50459560D01*
X54181198Y-50371993D01*
X54186567Y-50371047D01*
X54332523Y-50351831D01*
X54587661Y-50318241D01*
X54593078Y-50317767D01*
X54772253Y-50309944D01*
X54972437Y-50301204D01*
X54989164Y-50302734D01*
X54999642Y-50305143D01*
X55006505Y-50303590D01*
X55006507Y-50303590D01*
X55015561Y-50301541D01*
X55029354Y-50300000D01*
X94970184Y-50300000D01*
X94984190Y-50301590D01*
G37*
G04 #@! TD.AperFunction*
G04 #@! TA.AperFunction,Conductor*
G36*
X76922262Y-72207018D02*
G01*
X76923532Y-72205348D01*
X76948734Y-72224512D01*
X76955097Y-72230068D01*
X77381196Y-72656168D01*
X77399502Y-72700362D01*
X77399502Y-76774639D01*
X77381196Y-76818833D01*
X77351445Y-76848584D01*
X77346820Y-76852576D01*
X77342731Y-76854575D01*
X77338807Y-76858805D01*
X77308620Y-76891347D01*
X77306993Y-76893036D01*
X77292752Y-76907277D01*
X77291125Y-76909648D01*
X77289281Y-76911867D01*
X77289211Y-76911808D01*
X77286534Y-76915156D01*
X77266599Y-76936646D01*
X77263330Y-76944840D01*
X77260829Y-76951109D01*
X77254318Y-76963303D01*
X77248772Y-76971387D01*
X77248771Y-76971390D01*
X77245508Y-76976146D01*
X77244176Y-76981761D01*
X77238739Y-77004670D01*
X77235983Y-77013387D01*
X77225117Y-77040622D01*
X77224500Y-77046915D01*
X77224500Y-77057357D01*
X77222811Y-77071788D01*
X77219660Y-77085066D01*
X77220438Y-77090782D01*
X77223929Y-77116434D01*
X77224500Y-77124862D01*
X77224500Y-77223640D01*
X77206194Y-77267834D01*
X77162000Y-77286140D01*
X77117806Y-77267834D01*
X76868532Y-77018561D01*
X76850226Y-76974367D01*
X76850225Y-75701487D01*
X76868531Y-75657293D01*
X76898253Y-75627571D01*
X76940905Y-75543862D01*
X76957210Y-75511862D01*
X76957210Y-75511861D01*
X76959444Y-75507477D01*
X76980529Y-75374351D01*
X76959444Y-75241225D01*
X76951609Y-75225847D01*
X76930783Y-75184976D01*
X76928706Y-75180899D01*
X76924953Y-75133211D01*
X76932428Y-75117800D01*
X76955447Y-75083351D01*
X76955449Y-75083347D01*
X76958867Y-75078231D01*
X76964273Y-75051057D01*
X76969901Y-75022761D01*
X76969901Y-75022758D01*
X76970500Y-75019748D01*
X76970500Y-74380252D01*
X76969901Y-74377239D01*
X76960068Y-74327805D01*
X76960067Y-74327803D01*
X76958867Y-74321769D01*
X76954997Y-74315976D01*
X76917969Y-74260562D01*
X76914552Y-74255448D01*
X76848276Y-74211163D01*
X76821701Y-74171389D01*
X76820500Y-74159196D01*
X76820500Y-72252119D01*
X76838806Y-72207925D01*
X76883000Y-72189619D01*
X76922262Y-72207018D01*
G37*
G04 #@! TD.AperFunction*
M02*
