M48
; DRILL file {KiCad 5.1.5+dfsg1-2build2} date Mon 11 Oct 2021 05:45:58 PM CEST
; FORMAT={-:-/ absolute / inch / decimal}
; #@! TF.CreationDate,2021-10-11T17:45:58+02:00
; #@! TF.GenerationSoftware,Kicad,Pcbnew,5.1.5+dfsg1-2build2
; #@! TF.FileFunction,Plated,1,4,PTH
FMAT,2
INCH
T1C0.0079
T2C0.0197
T3C0.1181
%
G90
G05
T1
X2.7165Y-2.9134
X2.7362Y-2.8307
X2.748Y-3.0787
X2.7559Y-2.5591
X2.7756Y-2.8583
X2.7835Y-2.6772
X2.7913Y-2.9488
X2.811Y-2.8819
X2.813Y-3.0236
X2.815Y-3.0787
X2.8189Y-2.75
X2.8228Y-2.3189
X2.8228Y-2.3858
X2.8238Y-2.9439
X2.8268Y-2.4646
X2.8346Y-2.815
X2.8363Y-2.7688
X2.8433Y-3.1976
X2.8465Y-2.5591
X2.8583Y-2.7264
X2.8681Y-3.0994
X2.8898Y-2.7264
X2.8898Y-2.7738
X2.8909Y-2.8433
X2.8917Y-2.9903
X2.8929Y-3.0161
X2.9016Y-2.5591
X2.9065Y-3.0748
X2.9094Y-2.8228
X2.9114Y-2.899
X2.9173Y-2.9447
X2.9173Y-2.9218
X2.9193Y-3.1654
X2.9213Y-2.7264
X2.9252Y-2.6772
X2.9321Y-3.0994
X2.937Y-2.9903
X2.937Y-3.0132
X2.9492Y-2.9122
X2.9528Y-2.811
X2.9626Y-2.9903
X2.9646Y-2.3189
X2.9646Y-2.3858
X2.9665Y-3.1358
X2.9685Y-2.4646
X2.9783Y-2.9144
X2.9843Y-2.5591
X2.9843Y-2.7274
X2.9843Y-2.7738
X2.9852Y-3.0768
X2.9882Y-3.0132
X2.9882Y-2.9903
X2.9892Y-2.873
X3.0089Y-3.1742
X3.0138Y-2.9675
X3.0157Y-2.7274
X3.0157Y-2.7738
X3.0394Y-2.5591
X3.0423Y-2.8965
X3.0443Y-3.0669
X3.0453Y-3.1713
X3.0591Y-2.7333
X3.0591Y-2.8169
X3.0669Y-2.6772
X3.0709Y-3.0423
X3.0866Y-3.1713
X3.0876Y-3.064
X3.0906Y-3.0268
X3.1063Y-2.3189
X3.1063Y-2.3858
X3.1102Y-2.4646
X3.1142Y-2.8031
X3.1201Y-2.8799
X3.126Y-2.5591
X3.1378Y-3.0591
X3.1535Y-2.8484
X3.1772Y-2.7362
X3.1841Y-3.0974
X3.189Y-2.6024
X3.1939Y-2.9705
X3.2165Y-2.8809
X3.2303Y-3.1447
X3.2362Y-2.7264
X3.248Y-3.2441
X3.2717Y-2.6033
X3.2972Y-3.1289
X3.3061Y-2.7825
X3.3346Y-2.4528
X3.3366Y-2.5374
X3.3386Y-3.0285
X3.3701Y-3.0
X3.3839Y-2.624
X3.3839Y-2.8868
X3.4134Y-2.7569
X3.4144Y-2.4656
X3.4596Y-2.5472
X3.4646Y-2.9055
X3.4724Y-3.0787
X3.4774Y-2.6083
X3.4803Y-2.6929
X3.4803Y-2.7717
X3.4803Y-2.8346
X3.5118Y-2.5974
X3.5315Y-2.4055
X3.5323Y-2.6717
X3.5364Y-2.4823
X3.5384Y-2.8248
X3.5394Y-2.8858
X3.5551Y-2.6181
X3.5571Y-2.5394
X3.5581Y-2.5039
X3.56Y-2.4547
X3.5603Y-2.9206
X3.561Y-2.4183
X3.565Y-2.6457
X3.5795Y-2.7732
X3.5837Y-2.8425
X3.6063Y-2.9409
X3.6299Y-2.4862
X3.6299Y-2.7165
X3.6319Y-2.565
X3.6319Y-2.6142
X3.6378Y-2.4134
X3.6516Y-2.6575
X3.6683Y-2.4685
X3.6693Y-2.6132
X3.6703Y-2.438
X3.6713Y-2.5167
X3.6722Y-2.5394
X3.6732Y-2.5886
X3.6752Y-2.7815
X3.685Y-2.6545
X3.7008Y-2.7638
X3.7274Y-2.6339
X3.7283Y-2.4567
X3.7283Y-2.5276
X3.7283Y-2.5984
X3.7283Y-2.7785
X3.7343Y-2.8087
X3.752Y-2.3425
T2
X2.0768Y-2.1654
X2.1027Y-2.1027
X2.1027Y-2.228
X2.1654Y-2.0768
X2.1654Y-2.2539
X2.228Y-2.1027
X2.228Y-2.228
X2.2539Y-2.1654
X3.6516Y-2.1654
X3.6775Y-2.1027
X3.6775Y-2.228
X3.7402Y-2.0768
X3.7402Y-2.2539
X3.8028Y-2.1027
X3.8028Y-2.228
X3.8287Y-2.1654
X2.0768Y-3.7402
X2.1027Y-3.6775
X2.1027Y-3.8028
X2.1654Y-3.6516
X2.1654Y-3.8287
X2.228Y-3.6775
X2.228Y-3.8028
X2.2539Y-3.7402
X3.6516Y-3.7402
X3.6775Y-3.6775
X3.6775Y-3.8028
X3.7402Y-3.6516
X3.7402Y-3.8287
X3.8028Y-3.6775
X3.8028Y-3.8028
X3.8287Y-3.7402
T3
X2.1654Y-2.1654
X3.7402Y-2.1654
X2.1654Y-3.7402
X3.7402Y-3.7402
T0
M30
