G04 #@! TF.GenerationSoftware,KiCad,Pcbnew,6.0.0-d3dd2cf0fa~116~ubuntu20.04.1*
G04 #@! TF.CreationDate,2022-01-19T00:50:30+01:00*
G04 #@! TF.ProjectId,sensor,73656e73-6f72-42e6-9b69-6361645f7063,rev?*
G04 #@! TF.SameCoordinates,Original*
G04 #@! TF.FileFunction,Legend,Top*
G04 #@! TF.FilePolarity,Positive*
%FSLAX46Y46*%
G04 Gerber Fmt 4.6, Leading zero omitted, Abs format (unit mm)*
G04 Created by KiCad (PCBNEW 6.0.0-d3dd2cf0fa~116~ubuntu20.04.1) date 2022-01-19 00:50:30*
%MOMM*%
%LPD*%
G01*
G04 APERTURE LIST*
%ADD10C,0.100000*%
%ADD11C,0.120000*%
G04 APERTURE END LIST*
D10*
X78964285Y-80789285D02*
X78935714Y-80817857D01*
X78850000Y-80846428D01*
X78792857Y-80846428D01*
X78707142Y-80817857D01*
X78650000Y-80760714D01*
X78621428Y-80703571D01*
X78592857Y-80589285D01*
X78592857Y-80503571D01*
X78621428Y-80389285D01*
X78650000Y-80332142D01*
X78707142Y-80275000D01*
X78792857Y-80246428D01*
X78850000Y-80246428D01*
X78935714Y-80275000D01*
X78964285Y-80303571D01*
X79192857Y-80303571D02*
X79221428Y-80275000D01*
X79278571Y-80246428D01*
X79421428Y-80246428D01*
X79478571Y-80275000D01*
X79507142Y-80303571D01*
X79535714Y-80360714D01*
X79535714Y-80417857D01*
X79507142Y-80503571D01*
X79164285Y-80846428D01*
X79535714Y-80846428D01*
X79907142Y-80246428D02*
X79964285Y-80246428D01*
X80021428Y-80275000D01*
X80050000Y-80303571D01*
X80078571Y-80360714D01*
X80107142Y-80475000D01*
X80107142Y-80617857D01*
X80078571Y-80732142D01*
X80050000Y-80789285D01*
X80021428Y-80817857D01*
X79964285Y-80846428D01*
X79907142Y-80846428D01*
X79850000Y-80817857D01*
X79821428Y-80789285D01*
X79792857Y-80732142D01*
X79764285Y-80617857D01*
X79764285Y-80475000D01*
X79792857Y-80360714D01*
X79821428Y-80303571D01*
X79850000Y-80275000D01*
X79907142Y-80246428D01*
X77364285Y-80789285D02*
X77335714Y-80817857D01*
X77250000Y-80846428D01*
X77192857Y-80846428D01*
X77107142Y-80817857D01*
X77050000Y-80760714D01*
X77021428Y-80703571D01*
X76992857Y-80589285D01*
X76992857Y-80503571D01*
X77021428Y-80389285D01*
X77050000Y-80332142D01*
X77107142Y-80275000D01*
X77192857Y-80246428D01*
X77250000Y-80246428D01*
X77335714Y-80275000D01*
X77364285Y-80303571D01*
X77592857Y-80303571D02*
X77621428Y-80275000D01*
X77678571Y-80246428D01*
X77821428Y-80246428D01*
X77878571Y-80275000D01*
X77907142Y-80303571D01*
X77935714Y-80360714D01*
X77935714Y-80417857D01*
X77907142Y-80503571D01*
X77564285Y-80846428D01*
X77935714Y-80846428D01*
X78507142Y-80846428D02*
X78164285Y-80846428D01*
X78335714Y-80846428D02*
X78335714Y-80246428D01*
X78278571Y-80332142D01*
X78221428Y-80389285D01*
X78164285Y-80417857D01*
X75760714Y-75610714D02*
X75739285Y-75632142D01*
X75675000Y-75653571D01*
X75632142Y-75653571D01*
X75567857Y-75632142D01*
X75525000Y-75589285D01*
X75503571Y-75546428D01*
X75482142Y-75460714D01*
X75482142Y-75396428D01*
X75503571Y-75310714D01*
X75525000Y-75267857D01*
X75567857Y-75225000D01*
X75632142Y-75203571D01*
X75675000Y-75203571D01*
X75739285Y-75225000D01*
X75760714Y-75246428D01*
X75932142Y-75246428D02*
X75953571Y-75225000D01*
X75996428Y-75203571D01*
X76103571Y-75203571D01*
X76146428Y-75225000D01*
X76167857Y-75246428D01*
X76189285Y-75289285D01*
X76189285Y-75332142D01*
X76167857Y-75396428D01*
X75910714Y-75653571D01*
X76189285Y-75653571D01*
X76339285Y-75203571D02*
X76617857Y-75203571D01*
X76467857Y-75375000D01*
X76532142Y-75375000D01*
X76575000Y-75396428D01*
X76596428Y-75417857D01*
X76617857Y-75460714D01*
X76617857Y-75567857D01*
X76596428Y-75610714D01*
X76575000Y-75632142D01*
X76532142Y-75653571D01*
X76403571Y-75653571D01*
X76360714Y-75632142D01*
X76339285Y-75610714D01*
D11*
X78250000Y-79300000D02*
X78550000Y-79300000D01*
X77200000Y-79300000D02*
X77500000Y-79300000D01*
X76050000Y-74550000D02*
X76050000Y-74850000D01*
M02*
