G04 #@! TF.GenerationSoftware,KiCad,Pcbnew,6.0.0-d3dd2cf0fa~116~ubuntu20.04.1*
G04 #@! TF.CreationDate,2022-01-19T00:50:30+01:00*
G04 #@! TF.ProjectId,sensor,73656e73-6f72-42e6-9b69-6361645f7063,rev?*
G04 #@! TF.SameCoordinates,Original*
G04 #@! TF.FileFunction,Soldermask,Top*
G04 #@! TF.FilePolarity,Negative*
%FSLAX46Y46*%
G04 Gerber Fmt 4.6, Leading zero omitted, Abs format (unit mm)*
G04 Created by KiCad (PCBNEW 6.0.0-d3dd2cf0fa~116~ubuntu20.04.1) date 2022-01-19 00:50:30*
%MOMM*%
%LPD*%
G01*
G04 APERTURE LIST*
%ADD10R,0.600000X0.500000*%
%ADD11R,0.500000X0.600000*%
%ADD12C,0.800000*%
%ADD13C,6.000000*%
G04 APERTURE END LIST*
D10*
X78400000Y-78830000D03*
X78400000Y-79770000D03*
X77350000Y-78830000D03*
X77350000Y-79770000D03*
D11*
X76520000Y-74700000D03*
X75580000Y-74700000D03*
D12*
X55000000Y-52750000D03*
X57250000Y-55000000D03*
X52750000Y-55000000D03*
X53409010Y-56590990D03*
X53409010Y-53409010D03*
D13*
X55000000Y-55000000D03*
D12*
X56590990Y-56590990D03*
X55000000Y-57250000D03*
X56590990Y-53409010D03*
X56590990Y-96590990D03*
X53409010Y-93409010D03*
X52750000Y-95000000D03*
D13*
X55000000Y-95000000D03*
D12*
X55000000Y-97250000D03*
X55000000Y-92750000D03*
X57250000Y-95000000D03*
X53409010Y-96590990D03*
X56590990Y-93409010D03*
X92750000Y-55000000D03*
X96590990Y-53409010D03*
X93409010Y-56590990D03*
X95000000Y-57250000D03*
X97250000Y-55000000D03*
X95000000Y-52750000D03*
X93409010Y-53409010D03*
D13*
X95000000Y-55000000D03*
D12*
X96590990Y-56590990D03*
X93409010Y-93409010D03*
X93409010Y-96590990D03*
X96590990Y-96590990D03*
X95000000Y-97250000D03*
X96590990Y-93409010D03*
D13*
X95000000Y-95000000D03*
D12*
X97250000Y-95000000D03*
X95000000Y-92750000D03*
X92750000Y-95000000D03*
M02*
