G04 #@! TF.GenerationSoftware,KiCad,Pcbnew,6.0.0-d3dd2cf0fa~116~ubuntu20.04.1*
G04 #@! TF.CreationDate,2022-01-19T00:50:30+01:00*
G04 #@! TF.ProjectId,sensor,73656e73-6f72-42e6-9b69-6361645f7063,rev?*
G04 #@! TF.SameCoordinates,Original*
G04 #@! TF.FileFunction,Legend,Bot*
G04 #@! TF.FilePolarity,Positive*
%FSLAX46Y46*%
G04 Gerber Fmt 4.6, Leading zero omitted, Abs format (unit mm)*
G04 Created by KiCad (PCBNEW 6.0.0-d3dd2cf0fa~116~ubuntu20.04.1) date 2022-01-19 00:50:30*
%MOMM*%
%LPD*%
G01*
G04 APERTURE LIST*
%ADD10C,0.130000*%
%ADD11C,0.100000*%
%ADD12C,0.120000*%
%ADD13C,0.200000*%
G04 APERTURE END LIST*
D10*
X88488095Y-88741119D02*
X88278571Y-88741119D01*
X88173809Y-88793500D01*
X88069047Y-88898261D01*
X88016666Y-89107785D01*
X88016666Y-89474452D01*
X88069047Y-89683976D01*
X88173809Y-89788738D01*
X88278571Y-89841119D01*
X88488095Y-89841119D01*
X88592857Y-89788738D01*
X88697619Y-89683976D01*
X88750000Y-89474452D01*
X88750000Y-89107785D01*
X88697619Y-88898261D01*
X88592857Y-88793500D01*
X88488095Y-88741119D01*
X87702380Y-89107785D02*
X87283333Y-89107785D01*
X87545238Y-88741119D02*
X87545238Y-89683976D01*
X87492857Y-89788738D01*
X87388095Y-89841119D01*
X87283333Y-89841119D01*
X87073809Y-89107785D02*
X86654761Y-89107785D01*
X86916666Y-88741119D02*
X86916666Y-89683976D01*
X86864285Y-89788738D01*
X86759523Y-89841119D01*
X86654761Y-89841119D01*
X85869047Y-89788738D02*
X85973809Y-89841119D01*
X86183333Y-89841119D01*
X86288095Y-89788738D01*
X86340476Y-89683976D01*
X86340476Y-89264928D01*
X86288095Y-89160166D01*
X86183333Y-89107785D01*
X85973809Y-89107785D01*
X85869047Y-89160166D01*
X85816666Y-89264928D01*
X85816666Y-89369690D01*
X86340476Y-89474452D01*
X85345238Y-89841119D02*
X85345238Y-89107785D01*
X85345238Y-89317309D02*
X85292857Y-89212547D01*
X85240476Y-89160166D01*
X85135714Y-89107785D01*
X85030952Y-89107785D01*
X84035714Y-89736357D02*
X84088095Y-89788738D01*
X84245238Y-89841119D01*
X84350000Y-89841119D01*
X84507142Y-89788738D01*
X84611904Y-89683976D01*
X84664285Y-89579214D01*
X84716666Y-89369690D01*
X84716666Y-89212547D01*
X84664285Y-89003023D01*
X84611904Y-88898261D01*
X84507142Y-88793500D01*
X84350000Y-88741119D01*
X84245238Y-88741119D01*
X84088095Y-88793500D01*
X84035714Y-88845880D01*
X83092857Y-89841119D02*
X83092857Y-89264928D01*
X83145238Y-89160166D01*
X83250000Y-89107785D01*
X83459523Y-89107785D01*
X83564285Y-89160166D01*
X83092857Y-89788738D02*
X83197619Y-89841119D01*
X83459523Y-89841119D01*
X83564285Y-89788738D01*
X83616666Y-89683976D01*
X83616666Y-89579214D01*
X83564285Y-89474452D01*
X83459523Y-89422071D01*
X83197619Y-89422071D01*
X83092857Y-89369690D01*
X82569047Y-89841119D02*
X82569047Y-89107785D01*
X82569047Y-89212547D02*
X82516666Y-89160166D01*
X82411904Y-89107785D01*
X82254761Y-89107785D01*
X82150000Y-89160166D01*
X82097619Y-89264928D01*
X82097619Y-89841119D01*
X82097619Y-89264928D02*
X82045238Y-89160166D01*
X81940476Y-89107785D01*
X81783333Y-89107785D01*
X81678571Y-89160166D01*
X81626190Y-89264928D01*
X81626190Y-89841119D01*
X81102380Y-89422071D02*
X80264285Y-89422071D01*
X79792857Y-89788738D02*
X79688095Y-89841119D01*
X79478571Y-89841119D01*
X79373809Y-89788738D01*
X79321428Y-89683976D01*
X79321428Y-89631595D01*
X79373809Y-89526833D01*
X79478571Y-89474452D01*
X79635714Y-89474452D01*
X79740476Y-89422071D01*
X79792857Y-89317309D01*
X79792857Y-89264928D01*
X79740476Y-89160166D01*
X79635714Y-89107785D01*
X79478571Y-89107785D01*
X79373809Y-89160166D01*
X78954761Y-88741119D02*
X78273809Y-88741119D01*
X78640476Y-89160166D01*
X78483333Y-89160166D01*
X78378571Y-89212547D01*
X78326190Y-89264928D01*
X78273809Y-89369690D01*
X78273809Y-89631595D01*
X78326190Y-89736357D01*
X78378571Y-89788738D01*
X78483333Y-89841119D01*
X78797619Y-89841119D01*
X78902380Y-89788738D01*
X78954761Y-89736357D01*
X76754761Y-88741119D02*
X76545238Y-88741119D01*
X76440476Y-88793500D01*
X76335714Y-88898261D01*
X76283333Y-89107785D01*
X76283333Y-89474452D01*
X76335714Y-89683976D01*
X76440476Y-89788738D01*
X76545238Y-89841119D01*
X76754761Y-89841119D01*
X76859523Y-89788738D01*
X76964285Y-89683976D01*
X77016666Y-89474452D01*
X77016666Y-89107785D01*
X76964285Y-88898261D01*
X76859523Y-88793500D01*
X76754761Y-88741119D01*
X75864285Y-89788738D02*
X75707142Y-89841119D01*
X75445238Y-89841119D01*
X75340476Y-89788738D01*
X75288095Y-89736357D01*
X75235714Y-89631595D01*
X75235714Y-89526833D01*
X75288095Y-89422071D01*
X75340476Y-89369690D01*
X75445238Y-89317309D01*
X75654761Y-89264928D01*
X75759523Y-89212547D01*
X75811904Y-89160166D01*
X75864285Y-89055404D01*
X75864285Y-88950642D01*
X75811904Y-88845880D01*
X75759523Y-88793500D01*
X75654761Y-88741119D01*
X75392857Y-88741119D01*
X75235714Y-88793500D01*
X74554761Y-88741119D02*
X74450000Y-88741119D01*
X74345238Y-88793500D01*
X74292857Y-88845880D01*
X74240476Y-88950642D01*
X74188095Y-89160166D01*
X74188095Y-89422071D01*
X74240476Y-89631595D01*
X74292857Y-89736357D01*
X74345238Y-89788738D01*
X74450000Y-89841119D01*
X74554761Y-89841119D01*
X74659523Y-89788738D01*
X74711904Y-89736357D01*
X74764285Y-89631595D01*
X74816666Y-89422071D01*
X74816666Y-89160166D01*
X74764285Y-88950642D01*
X74711904Y-88845880D01*
X74659523Y-88793500D01*
X74554761Y-88741119D01*
X73192857Y-88741119D02*
X73716666Y-88741119D01*
X73769047Y-89264928D01*
X73716666Y-89212547D01*
X73611904Y-89160166D01*
X73350000Y-89160166D01*
X73245238Y-89212547D01*
X73192857Y-89264928D01*
X73140476Y-89369690D01*
X73140476Y-89631595D01*
X73192857Y-89736357D01*
X73245238Y-89788738D01*
X73350000Y-89841119D01*
X73611904Y-89841119D01*
X73716666Y-89788738D01*
X73769047Y-89736357D01*
X72721428Y-89526833D02*
X72197619Y-89526833D01*
X72826190Y-89841119D02*
X72459523Y-88741119D01*
X72092857Y-89841119D01*
X71150000Y-89841119D02*
X71778571Y-89841119D01*
X71464285Y-89841119D02*
X71464285Y-88741119D01*
X71569047Y-88898261D01*
X71673809Y-89003023D01*
X71778571Y-89055404D01*
X70469047Y-88741119D02*
X70364285Y-88741119D01*
X70259523Y-88793500D01*
X70207142Y-88845880D01*
X70154761Y-88950642D01*
X70102380Y-89160166D01*
X70102380Y-89422071D01*
X70154761Y-89631595D01*
X70207142Y-89736357D01*
X70259523Y-89788738D01*
X70364285Y-89841119D01*
X70469047Y-89841119D01*
X70573809Y-89788738D01*
X70626190Y-89736357D01*
X70678571Y-89631595D01*
X70730952Y-89422071D01*
X70730952Y-89160166D01*
X70678571Y-88950642D01*
X70626190Y-88845880D01*
X70573809Y-88793500D01*
X70469047Y-88741119D01*
X68845238Y-88688738D02*
X69788095Y-90103023D01*
X68530952Y-88845880D02*
X68478571Y-88793500D01*
X68373809Y-88741119D01*
X68111904Y-88741119D01*
X68007142Y-88793500D01*
X67954761Y-88845880D01*
X67902380Y-88950642D01*
X67902380Y-89055404D01*
X67954761Y-89212547D01*
X68583333Y-89841119D01*
X67902380Y-89841119D01*
X67221428Y-88741119D02*
X67116666Y-88741119D01*
X67011904Y-88793500D01*
X66959523Y-88845880D01*
X66907142Y-88950642D01*
X66854761Y-89160166D01*
X66854761Y-89422071D01*
X66907142Y-89631595D01*
X66959523Y-89736357D01*
X67011904Y-89788738D01*
X67116666Y-89841119D01*
X67221428Y-89841119D01*
X67326190Y-89788738D01*
X67378571Y-89736357D01*
X67430952Y-89631595D01*
X67483333Y-89422071D01*
X67483333Y-89160166D01*
X67430952Y-88950642D01*
X67378571Y-88845880D01*
X67326190Y-88793500D01*
X67221428Y-88741119D01*
X65178571Y-89264928D02*
X65021428Y-89317309D01*
X64969047Y-89369690D01*
X64916666Y-89474452D01*
X64916666Y-89631595D01*
X64969047Y-89736357D01*
X65021428Y-89788738D01*
X65126190Y-89841119D01*
X65545238Y-89841119D01*
X65545238Y-88741119D01*
X65178571Y-88741119D01*
X65073809Y-88793500D01*
X65021428Y-88845880D01*
X64969047Y-88950642D01*
X64969047Y-89055404D01*
X65021428Y-89160166D01*
X65073809Y-89212547D01*
X65178571Y-89264928D01*
X65545238Y-89264928D01*
X64288095Y-89841119D02*
X64392857Y-89788738D01*
X64445238Y-89736357D01*
X64497619Y-89631595D01*
X64497619Y-89317309D01*
X64445238Y-89212547D01*
X64392857Y-89160166D01*
X64288095Y-89107785D01*
X64130952Y-89107785D01*
X64026190Y-89160166D01*
X63973809Y-89212547D01*
X63921428Y-89317309D01*
X63921428Y-89631595D01*
X63973809Y-89736357D01*
X64026190Y-89788738D01*
X64130952Y-89841119D01*
X64288095Y-89841119D01*
X62978571Y-89841119D02*
X62978571Y-89264928D01*
X63030952Y-89160166D01*
X63135714Y-89107785D01*
X63345238Y-89107785D01*
X63450000Y-89160166D01*
X62978571Y-89788738D02*
X63083333Y-89841119D01*
X63345238Y-89841119D01*
X63450000Y-89788738D01*
X63502380Y-89683976D01*
X63502380Y-89579214D01*
X63450000Y-89474452D01*
X63345238Y-89422071D01*
X63083333Y-89422071D01*
X62978571Y-89369690D01*
X62454761Y-89841119D02*
X62454761Y-89107785D01*
X62454761Y-89317309D02*
X62402380Y-89212547D01*
X62350000Y-89160166D01*
X62245238Y-89107785D01*
X62140476Y-89107785D01*
X61302380Y-89841119D02*
X61302380Y-88741119D01*
X61302380Y-89788738D02*
X61407142Y-89841119D01*
X61616666Y-89841119D01*
X61721428Y-89788738D01*
X61773809Y-89736357D01*
X61826190Y-89631595D01*
X61826190Y-89317309D01*
X61773809Y-89212547D01*
X61721428Y-89160166D01*
X61616666Y-89107785D01*
X61407142Y-89107785D01*
X61302380Y-89160166D01*
X82857142Y-90512119D02*
X82857142Y-91297833D01*
X82909523Y-91454976D01*
X83014285Y-91559738D01*
X83171428Y-91612119D01*
X83276190Y-91612119D01*
X81861904Y-91612119D02*
X81861904Y-91035928D01*
X81914285Y-90931166D01*
X82019047Y-90878785D01*
X82228571Y-90878785D01*
X82333333Y-90931166D01*
X81861904Y-91559738D02*
X81966666Y-91612119D01*
X82228571Y-91612119D01*
X82333333Y-91559738D01*
X82385714Y-91454976D01*
X82385714Y-91350214D01*
X82333333Y-91245452D01*
X82228571Y-91193071D01*
X81966666Y-91193071D01*
X81861904Y-91140690D01*
X81338095Y-90878785D02*
X81338095Y-91612119D01*
X81338095Y-90983547D02*
X81285714Y-90931166D01*
X81180952Y-90878785D01*
X81023809Y-90878785D01*
X80919047Y-90931166D01*
X80866666Y-91035928D01*
X80866666Y-91612119D01*
X79871428Y-91612119D02*
X79871428Y-91035928D01*
X79923809Y-90931166D01*
X80028571Y-90878785D01*
X80238095Y-90878785D01*
X80342857Y-90931166D01*
X79871428Y-91559738D02*
X79976190Y-91612119D01*
X80238095Y-91612119D01*
X80342857Y-91559738D01*
X80395238Y-91454976D01*
X80395238Y-91350214D01*
X80342857Y-91245452D01*
X80238095Y-91193071D01*
X79976190Y-91193071D01*
X79871428Y-91140690D01*
X78509523Y-91612119D02*
X78509523Y-90512119D01*
X78142857Y-91297833D01*
X77776190Y-90512119D01*
X77776190Y-91612119D01*
X76780952Y-91612119D02*
X76780952Y-91035928D01*
X76833333Y-90931166D01*
X76938095Y-90878785D01*
X77147619Y-90878785D01*
X77252380Y-90931166D01*
X76780952Y-91559738D02*
X76885714Y-91612119D01*
X77147619Y-91612119D01*
X77252380Y-91559738D01*
X77304761Y-91454976D01*
X77304761Y-91350214D01*
X77252380Y-91245452D01*
X77147619Y-91193071D01*
X76885714Y-91193071D01*
X76780952Y-91140690D01*
X76257142Y-91612119D02*
X76257142Y-90878785D01*
X76257142Y-91088309D02*
X76204761Y-90983547D01*
X76152380Y-90931166D01*
X76047619Y-90878785D01*
X75942857Y-90878785D01*
X75576190Y-91612119D02*
X75576190Y-90878785D01*
X75576190Y-90512119D02*
X75628571Y-90564500D01*
X75576190Y-90616880D01*
X75523809Y-90564500D01*
X75576190Y-90512119D01*
X75576190Y-90616880D01*
X74633333Y-91559738D02*
X74738095Y-91612119D01*
X74947619Y-91612119D01*
X75052380Y-91559738D01*
X75104761Y-91454976D01*
X75104761Y-91035928D01*
X75052380Y-90931166D01*
X74947619Y-90878785D01*
X74738095Y-90878785D01*
X74633333Y-90931166D01*
X74580952Y-91035928D01*
X74580952Y-91140690D01*
X75104761Y-91245452D01*
X73271428Y-91612119D02*
X73271428Y-90512119D01*
X73271428Y-91035928D02*
X72642857Y-91035928D01*
X72642857Y-91612119D02*
X72642857Y-90512119D01*
X71700000Y-91559738D02*
X71804761Y-91612119D01*
X72014285Y-91612119D01*
X72119047Y-91559738D01*
X72171428Y-91454976D01*
X72171428Y-91035928D01*
X72119047Y-90931166D01*
X72014285Y-90878785D01*
X71804761Y-90878785D01*
X71700000Y-90931166D01*
X71647619Y-91035928D01*
X71647619Y-91140690D01*
X72171428Y-91245452D01*
X71176190Y-91612119D02*
X71176190Y-90878785D01*
X71176190Y-90983547D02*
X71123809Y-90931166D01*
X71019047Y-90878785D01*
X70861904Y-90878785D01*
X70757142Y-90931166D01*
X70704761Y-91035928D01*
X70704761Y-91612119D01*
X70704761Y-91035928D02*
X70652380Y-90931166D01*
X70547619Y-90878785D01*
X70390476Y-90878785D01*
X70285714Y-90931166D01*
X70233333Y-91035928D01*
X70233333Y-91612119D01*
X69761904Y-91559738D02*
X69657142Y-91612119D01*
X69447619Y-91612119D01*
X69342857Y-91559738D01*
X69290476Y-91454976D01*
X69290476Y-91402595D01*
X69342857Y-91297833D01*
X69447619Y-91245452D01*
X69604761Y-91245452D01*
X69709523Y-91193071D01*
X69761904Y-91088309D01*
X69761904Y-91035928D01*
X69709523Y-90931166D01*
X69604761Y-90878785D01*
X69447619Y-90878785D01*
X69342857Y-90931166D01*
X68819047Y-91612119D02*
X68819047Y-90878785D01*
X68819047Y-90512119D02*
X68871428Y-90564500D01*
X68819047Y-90616880D01*
X68766666Y-90564500D01*
X68819047Y-90512119D01*
X68819047Y-90616880D01*
X68295238Y-90878785D02*
X68295238Y-91612119D01*
X68295238Y-90983547D02*
X68242857Y-90931166D01*
X68138095Y-90878785D01*
X67980952Y-90878785D01*
X67876190Y-90931166D01*
X67823809Y-91035928D01*
X67823809Y-91612119D01*
X66828571Y-90878785D02*
X66828571Y-91769261D01*
X66880952Y-91874023D01*
X66933333Y-91926404D01*
X67038095Y-91978785D01*
X67195238Y-91978785D01*
X67300000Y-91926404D01*
X66828571Y-91559738D02*
X66933333Y-91612119D01*
X67142857Y-91612119D01*
X67247619Y-91559738D01*
X67300000Y-91507357D01*
X67352380Y-91402595D01*
X67352380Y-91088309D01*
X67300000Y-90983547D01*
X67247619Y-90931166D01*
X67142857Y-90878785D01*
X66933333Y-90878785D01*
X66828571Y-90931166D01*
X86130952Y-92859309D02*
X86183333Y-92806928D01*
X86288095Y-92754547D01*
X86392857Y-92754547D01*
X86497619Y-92806928D01*
X86550000Y-92859309D01*
X86602380Y-92964071D01*
X86602380Y-93068833D01*
X86550000Y-93173595D01*
X86497619Y-93225976D01*
X86392857Y-93278357D01*
X86288095Y-93278357D01*
X86183333Y-93225976D01*
X86130952Y-93173595D01*
X86130952Y-92754547D02*
X86130952Y-93173595D01*
X86078571Y-93225976D01*
X86026190Y-93225976D01*
X85921428Y-93173595D01*
X85869047Y-93068833D01*
X85869047Y-92806928D01*
X85973809Y-92649785D01*
X86130952Y-92545023D01*
X86340476Y-92492642D01*
X86550000Y-92545023D01*
X86707142Y-92649785D01*
X86811904Y-92806928D01*
X86864285Y-93016452D01*
X86811904Y-93225976D01*
X86707142Y-93383119D01*
X86550000Y-93487880D01*
X86340476Y-93540261D01*
X86130952Y-93487880D01*
X85973809Y-93383119D01*
X85659523Y-93487880D02*
X84821428Y-93487880D01*
X84245238Y-92283119D02*
X84245238Y-93068833D01*
X84297619Y-93225976D01*
X84402380Y-93330738D01*
X84559523Y-93383119D01*
X84664285Y-93383119D01*
X83250000Y-93383119D02*
X83250000Y-92806928D01*
X83302380Y-92702166D01*
X83407142Y-92649785D01*
X83616666Y-92649785D01*
X83721428Y-92702166D01*
X83250000Y-93330738D02*
X83354761Y-93383119D01*
X83616666Y-93383119D01*
X83721428Y-93330738D01*
X83773809Y-93225976D01*
X83773809Y-93121214D01*
X83721428Y-93016452D01*
X83616666Y-92964071D01*
X83354761Y-92964071D01*
X83250000Y-92911690D01*
X82726190Y-92649785D02*
X82726190Y-93383119D01*
X82726190Y-92754547D02*
X82673809Y-92702166D01*
X82569047Y-92649785D01*
X82411904Y-92649785D01*
X82307142Y-92702166D01*
X82254761Y-92806928D01*
X82254761Y-93383119D01*
X81259523Y-93383119D02*
X81259523Y-92806928D01*
X81311904Y-92702166D01*
X81416666Y-92649785D01*
X81626190Y-92649785D01*
X81730952Y-92702166D01*
X81259523Y-93330738D02*
X81364285Y-93383119D01*
X81626190Y-93383119D01*
X81730952Y-93330738D01*
X81783333Y-93225976D01*
X81783333Y-93121214D01*
X81730952Y-93016452D01*
X81626190Y-92964071D01*
X81364285Y-92964071D01*
X81259523Y-92911690D01*
X80997619Y-93487880D02*
X80159523Y-93487880D01*
X79897619Y-93383119D02*
X79897619Y-92283119D01*
X79530952Y-93068833D01*
X79164285Y-92283119D01*
X79164285Y-93383119D01*
X78169047Y-93383119D02*
X78169047Y-92806928D01*
X78221428Y-92702166D01*
X78326190Y-92649785D01*
X78535714Y-92649785D01*
X78640476Y-92702166D01*
X78169047Y-93330738D02*
X78273809Y-93383119D01*
X78535714Y-93383119D01*
X78640476Y-93330738D01*
X78692857Y-93225976D01*
X78692857Y-93121214D01*
X78640476Y-93016452D01*
X78535714Y-92964071D01*
X78273809Y-92964071D01*
X78169047Y-92911690D01*
X77645238Y-93383119D02*
X77645238Y-92649785D01*
X77645238Y-92859309D02*
X77592857Y-92754547D01*
X77540476Y-92702166D01*
X77435714Y-92649785D01*
X77330952Y-92649785D01*
X76964285Y-93383119D02*
X76964285Y-92649785D01*
X76964285Y-92283119D02*
X77016666Y-92335500D01*
X76964285Y-92387880D01*
X76911904Y-92335500D01*
X76964285Y-92283119D01*
X76964285Y-92387880D01*
X76021428Y-93330738D02*
X76126190Y-93383119D01*
X76335714Y-93383119D01*
X76440476Y-93330738D01*
X76492857Y-93225976D01*
X76492857Y-92806928D01*
X76440476Y-92702166D01*
X76335714Y-92649785D01*
X76126190Y-92649785D01*
X76021428Y-92702166D01*
X75969047Y-92806928D01*
X75969047Y-92911690D01*
X76492857Y-93016452D01*
X74711904Y-92387880D02*
X74659523Y-92335500D01*
X74554761Y-92283119D01*
X74292857Y-92283119D01*
X74188095Y-92335500D01*
X74135714Y-92387880D01*
X74083333Y-92492642D01*
X74083333Y-92597404D01*
X74135714Y-92754547D01*
X74764285Y-93383119D01*
X74083333Y-93383119D01*
X73402380Y-92283119D02*
X73297619Y-92283119D01*
X73192857Y-92335500D01*
X73140476Y-92387880D01*
X73088095Y-92492642D01*
X73035714Y-92702166D01*
X73035714Y-92964071D01*
X73088095Y-93173595D01*
X73140476Y-93278357D01*
X73192857Y-93330738D01*
X73297619Y-93383119D01*
X73402380Y-93383119D01*
X73507142Y-93330738D01*
X73559523Y-93278357D01*
X73611904Y-93173595D01*
X73664285Y-92964071D01*
X73664285Y-92702166D01*
X73611904Y-92492642D01*
X73559523Y-92387880D01*
X73507142Y-92335500D01*
X73402380Y-92283119D01*
X72616666Y-92387880D02*
X72564285Y-92335500D01*
X72459523Y-92283119D01*
X72197619Y-92283119D01*
X72092857Y-92335500D01*
X72040476Y-92387880D01*
X71988095Y-92492642D01*
X71988095Y-92597404D01*
X72040476Y-92754547D01*
X72669047Y-93383119D01*
X71988095Y-93383119D01*
X71569047Y-92387880D02*
X71516666Y-92335500D01*
X71411904Y-92283119D01*
X71150000Y-92283119D01*
X71045238Y-92335500D01*
X70992857Y-92387880D01*
X70940476Y-92492642D01*
X70940476Y-92597404D01*
X70992857Y-92754547D01*
X71621428Y-93383119D01*
X70940476Y-93383119D01*
X69630952Y-93383119D02*
X69630952Y-92649785D01*
X69630952Y-92859309D02*
X69578571Y-92754547D01*
X69526190Y-92702166D01*
X69421428Y-92649785D01*
X69316666Y-92649785D01*
X68530952Y-93330738D02*
X68635714Y-93383119D01*
X68845238Y-93383119D01*
X68950000Y-93330738D01*
X69002380Y-93225976D01*
X69002380Y-92806928D01*
X68950000Y-92702166D01*
X68845238Y-92649785D01*
X68635714Y-92649785D01*
X68530952Y-92702166D01*
X68478571Y-92806928D01*
X68478571Y-92911690D01*
X69002380Y-93016452D01*
X68111904Y-92649785D02*
X67850000Y-93383119D01*
X67588095Y-92649785D01*
X65754761Y-93383119D02*
X66383333Y-93383119D01*
X66069047Y-93383119D02*
X66069047Y-92283119D01*
X66173809Y-92440261D01*
X66278571Y-92545023D01*
X66383333Y-92597404D01*
X65283333Y-93278357D02*
X65230952Y-93330738D01*
X65283333Y-93383119D01*
X65335714Y-93330738D01*
X65283333Y-93278357D01*
X65283333Y-93383119D01*
X64183333Y-93383119D02*
X64811904Y-93383119D01*
X64497619Y-93383119D02*
X64497619Y-92283119D01*
X64602380Y-92440261D01*
X64707142Y-92545023D01*
X64811904Y-92597404D01*
X63135714Y-93383119D02*
X63764285Y-93383119D01*
X63450000Y-93383119D02*
X63450000Y-92283119D01*
X63554761Y-92440261D01*
X63659523Y-92545023D01*
X63764285Y-92597404D01*
X90190476Y-94420785D02*
X90190476Y-95311261D01*
X90242857Y-95416023D01*
X90295238Y-95468404D01*
X90400000Y-95520785D01*
X90557142Y-95520785D01*
X90661904Y-95468404D01*
X90190476Y-95101738D02*
X90295238Y-95154119D01*
X90504761Y-95154119D01*
X90609523Y-95101738D01*
X90661904Y-95049357D01*
X90714285Y-94944595D01*
X90714285Y-94630309D01*
X90661904Y-94525547D01*
X90609523Y-94473166D01*
X90504761Y-94420785D01*
X90295238Y-94420785D01*
X90190476Y-94473166D01*
X89666666Y-95154119D02*
X89666666Y-94420785D01*
X89666666Y-94054119D02*
X89719047Y-94106500D01*
X89666666Y-94158880D01*
X89614285Y-94106500D01*
X89666666Y-94054119D01*
X89666666Y-94158880D01*
X89300000Y-94420785D02*
X88880952Y-94420785D01*
X89142857Y-94054119D02*
X89142857Y-94996976D01*
X89090476Y-95101738D01*
X88985714Y-95154119D01*
X88880952Y-95154119D01*
X88514285Y-95154119D02*
X88514285Y-94054119D01*
X88042857Y-95154119D02*
X88042857Y-94577928D01*
X88095238Y-94473166D01*
X88200000Y-94420785D01*
X88357142Y-94420785D01*
X88461904Y-94473166D01*
X88514285Y-94525547D01*
X87047619Y-94420785D02*
X87047619Y-95154119D01*
X87519047Y-94420785D02*
X87519047Y-94996976D01*
X87466666Y-95101738D01*
X87361904Y-95154119D01*
X87204761Y-95154119D01*
X87100000Y-95101738D01*
X87047619Y-95049357D01*
X86523809Y-95154119D02*
X86523809Y-94054119D01*
X86523809Y-94473166D02*
X86419047Y-94420785D01*
X86209523Y-94420785D01*
X86104761Y-94473166D01*
X86052380Y-94525547D01*
X86000000Y-94630309D01*
X86000000Y-94944595D01*
X86052380Y-95049357D01*
X86104761Y-95101738D01*
X86209523Y-95154119D01*
X86419047Y-95154119D01*
X86523809Y-95101738D01*
X85528571Y-95049357D02*
X85476190Y-95101738D01*
X85528571Y-95154119D01*
X85580952Y-95101738D01*
X85528571Y-95049357D01*
X85528571Y-95154119D01*
X84533333Y-95101738D02*
X84638095Y-95154119D01*
X84847619Y-95154119D01*
X84952380Y-95101738D01*
X85004761Y-95049357D01*
X85057142Y-94944595D01*
X85057142Y-94630309D01*
X85004761Y-94525547D01*
X84952380Y-94473166D01*
X84847619Y-94420785D01*
X84638095Y-94420785D01*
X84533333Y-94473166D01*
X83904761Y-95154119D02*
X84009523Y-95101738D01*
X84061904Y-95049357D01*
X84114285Y-94944595D01*
X84114285Y-94630309D01*
X84061904Y-94525547D01*
X84009523Y-94473166D01*
X83904761Y-94420785D01*
X83747619Y-94420785D01*
X83642857Y-94473166D01*
X83590476Y-94525547D01*
X83538095Y-94630309D01*
X83538095Y-94944595D01*
X83590476Y-95049357D01*
X83642857Y-95101738D01*
X83747619Y-95154119D01*
X83904761Y-95154119D01*
X83066666Y-95154119D02*
X83066666Y-94420785D01*
X83066666Y-94525547D02*
X83014285Y-94473166D01*
X82909523Y-94420785D01*
X82752380Y-94420785D01*
X82647619Y-94473166D01*
X82595238Y-94577928D01*
X82595238Y-95154119D01*
X82595238Y-94577928D02*
X82542857Y-94473166D01*
X82438095Y-94420785D01*
X82280952Y-94420785D01*
X82176190Y-94473166D01*
X82123809Y-94577928D01*
X82123809Y-95154119D01*
X80814285Y-94001738D02*
X81757142Y-95416023D01*
X80133333Y-94054119D02*
X80133333Y-94839833D01*
X80185714Y-94996976D01*
X80290476Y-95101738D01*
X80447619Y-95154119D01*
X80552380Y-95154119D01*
X79138095Y-95154119D02*
X79138095Y-94577928D01*
X79190476Y-94473166D01*
X79295238Y-94420785D01*
X79504761Y-94420785D01*
X79609523Y-94473166D01*
X79138095Y-95101738D02*
X79242857Y-95154119D01*
X79504761Y-95154119D01*
X79609523Y-95101738D01*
X79661904Y-94996976D01*
X79661904Y-94892214D01*
X79609523Y-94787452D01*
X79504761Y-94735071D01*
X79242857Y-94735071D01*
X79138095Y-94682690D01*
X78614285Y-94420785D02*
X78614285Y-95154119D01*
X78614285Y-94525547D02*
X78561904Y-94473166D01*
X78457142Y-94420785D01*
X78300000Y-94420785D01*
X78195238Y-94473166D01*
X78142857Y-94577928D01*
X78142857Y-95154119D01*
X77147619Y-95154119D02*
X77147619Y-94577928D01*
X77200000Y-94473166D01*
X77304761Y-94420785D01*
X77514285Y-94420785D01*
X77619047Y-94473166D01*
X77147619Y-95101738D02*
X77252380Y-95154119D01*
X77514285Y-95154119D01*
X77619047Y-95101738D01*
X77671428Y-94996976D01*
X77671428Y-94892214D01*
X77619047Y-94787452D01*
X77514285Y-94735071D01*
X77252380Y-94735071D01*
X77147619Y-94682690D01*
X76623809Y-94735071D02*
X75785714Y-94735071D01*
X75261904Y-95154119D02*
X75261904Y-94054119D01*
X74895238Y-94839833D01*
X74528571Y-94054119D01*
X74528571Y-95154119D01*
X73533333Y-95154119D02*
X73533333Y-94577928D01*
X73585714Y-94473166D01*
X73690476Y-94420785D01*
X73900000Y-94420785D01*
X74004761Y-94473166D01*
X73533333Y-95101738D02*
X73638095Y-95154119D01*
X73900000Y-95154119D01*
X74004761Y-95101738D01*
X74057142Y-94996976D01*
X74057142Y-94892214D01*
X74004761Y-94787452D01*
X73900000Y-94735071D01*
X73638095Y-94735071D01*
X73533333Y-94682690D01*
X73009523Y-95154119D02*
X73009523Y-94420785D01*
X73009523Y-94630309D02*
X72957142Y-94525547D01*
X72904761Y-94473166D01*
X72800000Y-94420785D01*
X72695238Y-94420785D01*
X72328571Y-95154119D02*
X72328571Y-94420785D01*
X72328571Y-94054119D02*
X72380952Y-94106500D01*
X72328571Y-94158880D01*
X72276190Y-94106500D01*
X72328571Y-94054119D01*
X72328571Y-94158880D01*
X71385714Y-95101738D02*
X71490476Y-95154119D01*
X71700000Y-95154119D01*
X71804761Y-95101738D01*
X71857142Y-94996976D01*
X71857142Y-94577928D01*
X71804761Y-94473166D01*
X71700000Y-94420785D01*
X71490476Y-94420785D01*
X71385714Y-94473166D01*
X71333333Y-94577928D01*
X71333333Y-94682690D01*
X71857142Y-94787452D01*
X70076190Y-94001738D02*
X71019047Y-95416023D01*
X69500000Y-94054119D02*
X69290476Y-94054119D01*
X69185714Y-94106500D01*
X69080952Y-94211261D01*
X69028571Y-94420785D01*
X69028571Y-94787452D01*
X69080952Y-94996976D01*
X69185714Y-95101738D01*
X69290476Y-95154119D01*
X69500000Y-95154119D01*
X69604761Y-95101738D01*
X69709523Y-94996976D01*
X69761904Y-94787452D01*
X69761904Y-94420785D01*
X69709523Y-94211261D01*
X69604761Y-94106500D01*
X69500000Y-94054119D01*
X68714285Y-94420785D02*
X68295238Y-94420785D01*
X68557142Y-94054119D02*
X68557142Y-94996976D01*
X68504761Y-95101738D01*
X68400000Y-95154119D01*
X68295238Y-95154119D01*
X68085714Y-94420785D02*
X67666666Y-94420785D01*
X67928571Y-94054119D02*
X67928571Y-94996976D01*
X67876190Y-95101738D01*
X67771428Y-95154119D01*
X67666666Y-95154119D01*
X66880952Y-95101738D02*
X66985714Y-95154119D01*
X67195238Y-95154119D01*
X67300000Y-95101738D01*
X67352380Y-94996976D01*
X67352380Y-94577928D01*
X67300000Y-94473166D01*
X67195238Y-94420785D01*
X66985714Y-94420785D01*
X66880952Y-94473166D01*
X66828571Y-94577928D01*
X66828571Y-94682690D01*
X67352380Y-94787452D01*
X66357142Y-95154119D02*
X66357142Y-94420785D01*
X66357142Y-94630309D02*
X66304761Y-94525547D01*
X66252380Y-94473166D01*
X66147619Y-94420785D01*
X66042857Y-94420785D01*
X65047619Y-95049357D02*
X65100000Y-95101738D01*
X65257142Y-95154119D01*
X65361904Y-95154119D01*
X65519047Y-95101738D01*
X65623809Y-94996976D01*
X65676190Y-94892214D01*
X65728571Y-94682690D01*
X65728571Y-94525547D01*
X65676190Y-94316023D01*
X65623809Y-94211261D01*
X65519047Y-94106500D01*
X65361904Y-94054119D01*
X65257142Y-94054119D01*
X65100000Y-94106500D01*
X65047619Y-94158880D01*
X64104761Y-95154119D02*
X64104761Y-94577928D01*
X64157142Y-94473166D01*
X64261904Y-94420785D01*
X64471428Y-94420785D01*
X64576190Y-94473166D01*
X64104761Y-95101738D02*
X64209523Y-95154119D01*
X64471428Y-95154119D01*
X64576190Y-95101738D01*
X64628571Y-94996976D01*
X64628571Y-94892214D01*
X64576190Y-94787452D01*
X64471428Y-94735071D01*
X64209523Y-94735071D01*
X64104761Y-94682690D01*
X63580952Y-95154119D02*
X63580952Y-94420785D01*
X63580952Y-94525547D02*
X63528571Y-94473166D01*
X63423809Y-94420785D01*
X63266666Y-94420785D01*
X63161904Y-94473166D01*
X63109523Y-94577928D01*
X63109523Y-95154119D01*
X63109523Y-94577928D02*
X63057142Y-94473166D01*
X62952380Y-94420785D01*
X62795238Y-94420785D01*
X62690476Y-94473166D01*
X62638095Y-94577928D01*
X62638095Y-95154119D01*
X62114285Y-94735071D02*
X61276190Y-94735071D01*
X60804761Y-95101738D02*
X60700000Y-95154119D01*
X60490476Y-95154119D01*
X60385714Y-95101738D01*
X60333333Y-94996976D01*
X60333333Y-94944595D01*
X60385714Y-94839833D01*
X60490476Y-94787452D01*
X60647619Y-94787452D01*
X60752380Y-94735071D01*
X60804761Y-94630309D01*
X60804761Y-94577928D01*
X60752380Y-94473166D01*
X60647619Y-94420785D01*
X60490476Y-94420785D01*
X60385714Y-94473166D01*
X59966666Y-94054119D02*
X59285714Y-94054119D01*
X59652380Y-94473166D01*
X59495238Y-94473166D01*
X59390476Y-94525547D01*
X59338095Y-94577928D01*
X59285714Y-94682690D01*
X59285714Y-94944595D01*
X59338095Y-95049357D01*
X59390476Y-95101738D01*
X59495238Y-95154119D01*
X59809523Y-95154119D01*
X59914285Y-95101738D01*
X59966666Y-95049357D01*
D11*
X72800000Y-61914285D02*
X72828571Y-61942857D01*
X72914285Y-61971428D01*
X72971428Y-61971428D01*
X73057142Y-61942857D01*
X73114285Y-61885714D01*
X73142857Y-61828571D01*
X73171428Y-61714285D01*
X73171428Y-61628571D01*
X73142857Y-61514285D01*
X73114285Y-61457142D01*
X73057142Y-61400000D01*
X72971428Y-61371428D01*
X72914285Y-61371428D01*
X72828571Y-61400000D01*
X72800000Y-61428571D01*
X72228571Y-61971428D02*
X72571428Y-61971428D01*
X72400000Y-61971428D02*
X72400000Y-61371428D01*
X72457142Y-61457142D01*
X72514285Y-61514285D01*
X72571428Y-61542857D01*
X76400000Y-61914285D02*
X76428571Y-61942857D01*
X76514285Y-61971428D01*
X76571428Y-61971428D01*
X76657142Y-61942857D01*
X76714285Y-61885714D01*
X76742857Y-61828571D01*
X76771428Y-61714285D01*
X76771428Y-61628571D01*
X76742857Y-61514285D01*
X76714285Y-61457142D01*
X76657142Y-61400000D01*
X76571428Y-61371428D01*
X76514285Y-61371428D01*
X76428571Y-61400000D01*
X76400000Y-61428571D01*
X76171428Y-61428571D02*
X76142857Y-61400000D01*
X76085714Y-61371428D01*
X75942857Y-61371428D01*
X75885714Y-61400000D01*
X75857142Y-61428571D01*
X75828571Y-61485714D01*
X75828571Y-61542857D01*
X75857142Y-61628571D01*
X76200000Y-61971428D01*
X75828571Y-61971428D01*
X80000000Y-61914285D02*
X80028571Y-61942857D01*
X80114285Y-61971428D01*
X80171428Y-61971428D01*
X80257142Y-61942857D01*
X80314285Y-61885714D01*
X80342857Y-61828571D01*
X80371428Y-61714285D01*
X80371428Y-61628571D01*
X80342857Y-61514285D01*
X80314285Y-61457142D01*
X80257142Y-61400000D01*
X80171428Y-61371428D01*
X80114285Y-61371428D01*
X80028571Y-61400000D01*
X80000000Y-61428571D01*
X79800000Y-61371428D02*
X79428571Y-61371428D01*
X79628571Y-61600000D01*
X79542857Y-61600000D01*
X79485714Y-61628571D01*
X79457142Y-61657142D01*
X79428571Y-61714285D01*
X79428571Y-61857142D01*
X79457142Y-61914285D01*
X79485714Y-61942857D01*
X79542857Y-61971428D01*
X79714285Y-61971428D01*
X79771428Y-61942857D01*
X79800000Y-61914285D01*
X72200000Y-62914285D02*
X72228571Y-62942857D01*
X72314285Y-62971428D01*
X72371428Y-62971428D01*
X72457142Y-62942857D01*
X72514285Y-62885714D01*
X72542857Y-62828571D01*
X72571428Y-62714285D01*
X72571428Y-62628571D01*
X72542857Y-62514285D01*
X72514285Y-62457142D01*
X72457142Y-62400000D01*
X72371428Y-62371428D01*
X72314285Y-62371428D01*
X72228571Y-62400000D01*
X72200000Y-62428571D01*
X71685714Y-62571428D02*
X71685714Y-62971428D01*
X71828571Y-62342857D02*
X71971428Y-62771428D01*
X71600000Y-62771428D01*
X75800000Y-62914285D02*
X75828571Y-62942857D01*
X75914285Y-62971428D01*
X75971428Y-62971428D01*
X76057142Y-62942857D01*
X76114285Y-62885714D01*
X76142857Y-62828571D01*
X76171428Y-62714285D01*
X76171428Y-62628571D01*
X76142857Y-62514285D01*
X76114285Y-62457142D01*
X76057142Y-62400000D01*
X75971428Y-62371428D01*
X75914285Y-62371428D01*
X75828571Y-62400000D01*
X75800000Y-62428571D01*
X75257142Y-62371428D02*
X75542857Y-62371428D01*
X75571428Y-62657142D01*
X75542857Y-62628571D01*
X75485714Y-62600000D01*
X75342857Y-62600000D01*
X75285714Y-62628571D01*
X75257142Y-62657142D01*
X75228571Y-62714285D01*
X75228571Y-62857142D01*
X75257142Y-62914285D01*
X75285714Y-62942857D01*
X75342857Y-62971428D01*
X75485714Y-62971428D01*
X75542857Y-62942857D01*
X75571428Y-62914285D01*
X79400000Y-62914285D02*
X79428571Y-62942857D01*
X79514285Y-62971428D01*
X79571428Y-62971428D01*
X79657142Y-62942857D01*
X79714285Y-62885714D01*
X79742857Y-62828571D01*
X79771428Y-62714285D01*
X79771428Y-62628571D01*
X79742857Y-62514285D01*
X79714285Y-62457142D01*
X79657142Y-62400000D01*
X79571428Y-62371428D01*
X79514285Y-62371428D01*
X79428571Y-62400000D01*
X79400000Y-62428571D01*
X78885714Y-62371428D02*
X79000000Y-62371428D01*
X79057142Y-62400000D01*
X79085714Y-62428571D01*
X79142857Y-62514285D01*
X79171428Y-62628571D01*
X79171428Y-62857142D01*
X79142857Y-62914285D01*
X79114285Y-62942857D01*
X79057142Y-62971428D01*
X78942857Y-62971428D01*
X78885714Y-62942857D01*
X78857142Y-62914285D01*
X78828571Y-62857142D01*
X78828571Y-62714285D01*
X78857142Y-62657142D01*
X78885714Y-62628571D01*
X78942857Y-62600000D01*
X79057142Y-62600000D01*
X79114285Y-62628571D01*
X79142857Y-62657142D01*
X79171428Y-62714285D01*
X78875000Y-68264285D02*
X78903571Y-68292857D01*
X78989285Y-68321428D01*
X79046428Y-68321428D01*
X79132142Y-68292857D01*
X79189285Y-68235714D01*
X79217857Y-68178571D01*
X79246428Y-68064285D01*
X79246428Y-67978571D01*
X79217857Y-67864285D01*
X79189285Y-67807142D01*
X79132142Y-67750000D01*
X79046428Y-67721428D01*
X78989285Y-67721428D01*
X78903571Y-67750000D01*
X78875000Y-67778571D01*
X78675000Y-67721428D02*
X78275000Y-67721428D01*
X78532142Y-68321428D01*
X71675000Y-68264285D02*
X71703571Y-68292857D01*
X71789285Y-68321428D01*
X71846428Y-68321428D01*
X71932142Y-68292857D01*
X71989285Y-68235714D01*
X72017857Y-68178571D01*
X72046428Y-68064285D01*
X72046428Y-67978571D01*
X72017857Y-67864285D01*
X71989285Y-67807142D01*
X71932142Y-67750000D01*
X71846428Y-67721428D01*
X71789285Y-67721428D01*
X71703571Y-67750000D01*
X71675000Y-67778571D01*
X71332142Y-67978571D02*
X71389285Y-67950000D01*
X71417857Y-67921428D01*
X71446428Y-67864285D01*
X71446428Y-67835714D01*
X71417857Y-67778571D01*
X71389285Y-67750000D01*
X71332142Y-67721428D01*
X71217857Y-67721428D01*
X71160714Y-67750000D01*
X71132142Y-67778571D01*
X71103571Y-67835714D01*
X71103571Y-67864285D01*
X71132142Y-67921428D01*
X71160714Y-67950000D01*
X71217857Y-67978571D01*
X71332142Y-67978571D01*
X71389285Y-68007142D01*
X71417857Y-68035714D01*
X71446428Y-68092857D01*
X71446428Y-68207142D01*
X71417857Y-68264285D01*
X71389285Y-68292857D01*
X71332142Y-68321428D01*
X71217857Y-68321428D01*
X71160714Y-68292857D01*
X71132142Y-68264285D01*
X71103571Y-68207142D01*
X71103571Y-68092857D01*
X71132142Y-68035714D01*
X71160714Y-68007142D01*
X71217857Y-67978571D01*
X75275000Y-68264285D02*
X75303571Y-68292857D01*
X75389285Y-68321428D01*
X75446428Y-68321428D01*
X75532142Y-68292857D01*
X75589285Y-68235714D01*
X75617857Y-68178571D01*
X75646428Y-68064285D01*
X75646428Y-67978571D01*
X75617857Y-67864285D01*
X75589285Y-67807142D01*
X75532142Y-67750000D01*
X75446428Y-67721428D01*
X75389285Y-67721428D01*
X75303571Y-67750000D01*
X75275000Y-67778571D01*
X74989285Y-68321428D02*
X74875000Y-68321428D01*
X74817857Y-68292857D01*
X74789285Y-68264285D01*
X74732142Y-68178571D01*
X74703571Y-68064285D01*
X74703571Y-67835714D01*
X74732142Y-67778571D01*
X74760714Y-67750000D01*
X74817857Y-67721428D01*
X74932142Y-67721428D01*
X74989285Y-67750000D01*
X75017857Y-67778571D01*
X75046428Y-67835714D01*
X75046428Y-67978571D01*
X75017857Y-68035714D01*
X74989285Y-68064285D01*
X74932142Y-68092857D01*
X74817857Y-68092857D01*
X74760714Y-68064285D01*
X74732142Y-68035714D01*
X74703571Y-67978571D01*
X77510714Y-68264285D02*
X77539285Y-68292857D01*
X77625000Y-68321428D01*
X77682142Y-68321428D01*
X77767857Y-68292857D01*
X77825000Y-68235714D01*
X77853571Y-68178571D01*
X77882142Y-68064285D01*
X77882142Y-67978571D01*
X77853571Y-67864285D01*
X77825000Y-67807142D01*
X77767857Y-67750000D01*
X77682142Y-67721428D01*
X77625000Y-67721428D01*
X77539285Y-67750000D01*
X77510714Y-67778571D01*
X76939285Y-68321428D02*
X77282142Y-68321428D01*
X77110714Y-68321428D02*
X77110714Y-67721428D01*
X77167857Y-67807142D01*
X77225000Y-67864285D01*
X77282142Y-67892857D01*
X76567857Y-67721428D02*
X76510714Y-67721428D01*
X76453571Y-67750000D01*
X76425000Y-67778571D01*
X76396428Y-67835714D01*
X76367857Y-67950000D01*
X76367857Y-68092857D01*
X76396428Y-68207142D01*
X76425000Y-68264285D01*
X76453571Y-68292857D01*
X76510714Y-68321428D01*
X76567857Y-68321428D01*
X76625000Y-68292857D01*
X76653571Y-68264285D01*
X76682142Y-68207142D01*
X76710714Y-68092857D01*
X76710714Y-67950000D01*
X76682142Y-67835714D01*
X76653571Y-67778571D01*
X76625000Y-67750000D01*
X76567857Y-67721428D01*
X70310714Y-68264285D02*
X70339285Y-68292857D01*
X70425000Y-68321428D01*
X70482142Y-68321428D01*
X70567857Y-68292857D01*
X70625000Y-68235714D01*
X70653571Y-68178571D01*
X70682142Y-68064285D01*
X70682142Y-67978571D01*
X70653571Y-67864285D01*
X70625000Y-67807142D01*
X70567857Y-67750000D01*
X70482142Y-67721428D01*
X70425000Y-67721428D01*
X70339285Y-67750000D01*
X70310714Y-67778571D01*
X69739285Y-68321428D02*
X70082142Y-68321428D01*
X69910714Y-68321428D02*
X69910714Y-67721428D01*
X69967857Y-67807142D01*
X70025000Y-67864285D01*
X70082142Y-67892857D01*
X69167857Y-68321428D02*
X69510714Y-68321428D01*
X69339285Y-68321428D02*
X69339285Y-67721428D01*
X69396428Y-67807142D01*
X69453571Y-67864285D01*
X69510714Y-67892857D01*
X73910714Y-68264285D02*
X73939285Y-68292857D01*
X74025000Y-68321428D01*
X74082142Y-68321428D01*
X74167857Y-68292857D01*
X74225000Y-68235714D01*
X74253571Y-68178571D01*
X74282142Y-68064285D01*
X74282142Y-67978571D01*
X74253571Y-67864285D01*
X74225000Y-67807142D01*
X74167857Y-67750000D01*
X74082142Y-67721428D01*
X74025000Y-67721428D01*
X73939285Y-67750000D01*
X73910714Y-67778571D01*
X73339285Y-68321428D02*
X73682142Y-68321428D01*
X73510714Y-68321428D02*
X73510714Y-67721428D01*
X73567857Y-67807142D01*
X73625000Y-67864285D01*
X73682142Y-67892857D01*
X73110714Y-67778571D02*
X73082142Y-67750000D01*
X73025000Y-67721428D01*
X72882142Y-67721428D01*
X72825000Y-67750000D01*
X72796428Y-67778571D01*
X72767857Y-67835714D01*
X72767857Y-67892857D01*
X72796428Y-67978571D01*
X73139285Y-68321428D01*
X72767857Y-68321428D01*
X73785714Y-71814285D02*
X73814285Y-71842857D01*
X73900000Y-71871428D01*
X73957142Y-71871428D01*
X74042857Y-71842857D01*
X74100000Y-71785714D01*
X74128571Y-71728571D01*
X74157142Y-71614285D01*
X74157142Y-71528571D01*
X74128571Y-71414285D01*
X74100000Y-71357142D01*
X74042857Y-71300000D01*
X73957142Y-71271428D01*
X73900000Y-71271428D01*
X73814285Y-71300000D01*
X73785714Y-71328571D01*
X73214285Y-71871428D02*
X73557142Y-71871428D01*
X73385714Y-71871428D02*
X73385714Y-71271428D01*
X73442857Y-71357142D01*
X73500000Y-71414285D01*
X73557142Y-71442857D01*
X72700000Y-71471428D02*
X72700000Y-71871428D01*
X72842857Y-71242857D02*
X72985714Y-71671428D01*
X72614285Y-71671428D01*
X70685714Y-75314285D02*
X70714285Y-75342857D01*
X70800000Y-75371428D01*
X70857142Y-75371428D01*
X70942857Y-75342857D01*
X71000000Y-75285714D01*
X71028571Y-75228571D01*
X71057142Y-75114285D01*
X71057142Y-75028571D01*
X71028571Y-74914285D01*
X71000000Y-74857142D01*
X70942857Y-74800000D01*
X70857142Y-74771428D01*
X70800000Y-74771428D01*
X70714285Y-74800000D01*
X70685714Y-74828571D01*
X70114285Y-75371428D02*
X70457142Y-75371428D01*
X70285714Y-75371428D02*
X70285714Y-74771428D01*
X70342857Y-74857142D01*
X70400000Y-74914285D01*
X70457142Y-74942857D01*
X69571428Y-74771428D02*
X69857142Y-74771428D01*
X69885714Y-75057142D01*
X69857142Y-75028571D01*
X69800000Y-75000000D01*
X69657142Y-75000000D01*
X69600000Y-75028571D01*
X69571428Y-75057142D01*
X69542857Y-75114285D01*
X69542857Y-75257142D01*
X69571428Y-75314285D01*
X69600000Y-75342857D01*
X69657142Y-75371428D01*
X69800000Y-75371428D01*
X69857142Y-75342857D01*
X69885714Y-75314285D01*
X74585714Y-69314285D02*
X74614285Y-69342857D01*
X74700000Y-69371428D01*
X74757142Y-69371428D01*
X74842857Y-69342857D01*
X74900000Y-69285714D01*
X74928571Y-69228571D01*
X74957142Y-69114285D01*
X74957142Y-69028571D01*
X74928571Y-68914285D01*
X74900000Y-68857142D01*
X74842857Y-68800000D01*
X74757142Y-68771428D01*
X74700000Y-68771428D01*
X74614285Y-68800000D01*
X74585714Y-68828571D01*
X74014285Y-69371428D02*
X74357142Y-69371428D01*
X74185714Y-69371428D02*
X74185714Y-68771428D01*
X74242857Y-68857142D01*
X74300000Y-68914285D01*
X74357142Y-68942857D01*
X73500000Y-68771428D02*
X73614285Y-68771428D01*
X73671428Y-68800000D01*
X73700000Y-68828571D01*
X73757142Y-68914285D01*
X73785714Y-69028571D01*
X73785714Y-69257142D01*
X73757142Y-69314285D01*
X73728571Y-69342857D01*
X73671428Y-69371428D01*
X73557142Y-69371428D01*
X73500000Y-69342857D01*
X73471428Y-69314285D01*
X73442857Y-69257142D01*
X73442857Y-69114285D01*
X73471428Y-69057142D01*
X73500000Y-69028571D01*
X73557142Y-69000000D01*
X73671428Y-69000000D01*
X73728571Y-69028571D01*
X73757142Y-69057142D01*
X73785714Y-69114285D01*
X76185714Y-69314285D02*
X76214285Y-69342857D01*
X76300000Y-69371428D01*
X76357142Y-69371428D01*
X76442857Y-69342857D01*
X76500000Y-69285714D01*
X76528571Y-69228571D01*
X76557142Y-69114285D01*
X76557142Y-69028571D01*
X76528571Y-68914285D01*
X76500000Y-68857142D01*
X76442857Y-68800000D01*
X76357142Y-68771428D01*
X76300000Y-68771428D01*
X76214285Y-68800000D01*
X76185714Y-68828571D01*
X75614285Y-69371428D02*
X75957142Y-69371428D01*
X75785714Y-69371428D02*
X75785714Y-68771428D01*
X75842857Y-68857142D01*
X75900000Y-68914285D01*
X75957142Y-68942857D01*
X75414285Y-68771428D02*
X75014285Y-68771428D01*
X75271428Y-69371428D01*
X72985714Y-69314285D02*
X73014285Y-69342857D01*
X73100000Y-69371428D01*
X73157142Y-69371428D01*
X73242857Y-69342857D01*
X73300000Y-69285714D01*
X73328571Y-69228571D01*
X73357142Y-69114285D01*
X73357142Y-69028571D01*
X73328571Y-68914285D01*
X73300000Y-68857142D01*
X73242857Y-68800000D01*
X73157142Y-68771428D01*
X73100000Y-68771428D01*
X73014285Y-68800000D01*
X72985714Y-68828571D01*
X72414285Y-69371428D02*
X72757142Y-69371428D01*
X72585714Y-69371428D02*
X72585714Y-68771428D01*
X72642857Y-68857142D01*
X72700000Y-68914285D01*
X72757142Y-68942857D01*
X72071428Y-69028571D02*
X72128571Y-69000000D01*
X72157142Y-68971428D01*
X72185714Y-68914285D01*
X72185714Y-68885714D01*
X72157142Y-68828571D01*
X72128571Y-68800000D01*
X72071428Y-68771428D01*
X71957142Y-68771428D01*
X71900000Y-68800000D01*
X71871428Y-68828571D01*
X71842857Y-68885714D01*
X71842857Y-68914285D01*
X71871428Y-68971428D01*
X71900000Y-69000000D01*
X71957142Y-69028571D01*
X72071428Y-69028571D01*
X72128571Y-69057142D01*
X72157142Y-69085714D01*
X72185714Y-69142857D01*
X72185714Y-69257142D01*
X72157142Y-69314285D01*
X72128571Y-69342857D01*
X72071428Y-69371428D01*
X71957142Y-69371428D01*
X71900000Y-69342857D01*
X71871428Y-69314285D01*
X71842857Y-69257142D01*
X71842857Y-69142857D01*
X71871428Y-69085714D01*
X71900000Y-69057142D01*
X71957142Y-69028571D01*
X81685714Y-77514285D02*
X81714285Y-77542857D01*
X81800000Y-77571428D01*
X81857142Y-77571428D01*
X81942857Y-77542857D01*
X82000000Y-77485714D01*
X82028571Y-77428571D01*
X82057142Y-77314285D01*
X82057142Y-77228571D01*
X82028571Y-77114285D01*
X82000000Y-77057142D01*
X81942857Y-77000000D01*
X81857142Y-76971428D01*
X81800000Y-76971428D01*
X81714285Y-77000000D01*
X81685714Y-77028571D01*
X81114285Y-77571428D02*
X81457142Y-77571428D01*
X81285714Y-77571428D02*
X81285714Y-76971428D01*
X81342857Y-77057142D01*
X81400000Y-77114285D01*
X81457142Y-77142857D01*
X80828571Y-77571428D02*
X80714285Y-77571428D01*
X80657142Y-77542857D01*
X80628571Y-77514285D01*
X80571428Y-77428571D01*
X80542857Y-77314285D01*
X80542857Y-77085714D01*
X80571428Y-77028571D01*
X80600000Y-77000000D01*
X80657142Y-76971428D01*
X80771428Y-76971428D01*
X80828571Y-77000000D01*
X80857142Y-77028571D01*
X80885714Y-77085714D01*
X80885714Y-77228571D01*
X80857142Y-77285714D01*
X80828571Y-77314285D01*
X80771428Y-77342857D01*
X80657142Y-77342857D01*
X80600000Y-77314285D01*
X80571428Y-77285714D01*
X80542857Y-77228571D01*
X78385714Y-69514285D02*
X78414285Y-69542857D01*
X78500000Y-69571428D01*
X78557142Y-69571428D01*
X78642857Y-69542857D01*
X78700000Y-69485714D01*
X78728571Y-69428571D01*
X78757142Y-69314285D01*
X78757142Y-69228571D01*
X78728571Y-69114285D01*
X78700000Y-69057142D01*
X78642857Y-69000000D01*
X78557142Y-68971428D01*
X78500000Y-68971428D01*
X78414285Y-69000000D01*
X78385714Y-69028571D01*
X78157142Y-69028571D02*
X78128571Y-69000000D01*
X78071428Y-68971428D01*
X77928571Y-68971428D01*
X77871428Y-69000000D01*
X77842857Y-69028571D01*
X77814285Y-69085714D01*
X77814285Y-69142857D01*
X77842857Y-69228571D01*
X78185714Y-69571428D01*
X77814285Y-69571428D01*
X77585714Y-69028571D02*
X77557142Y-69000000D01*
X77500000Y-68971428D01*
X77357142Y-68971428D01*
X77300000Y-69000000D01*
X77271428Y-69028571D01*
X77242857Y-69085714D01*
X77242857Y-69142857D01*
X77271428Y-69228571D01*
X77614285Y-69571428D01*
X77242857Y-69571428D01*
X76885714Y-71814285D02*
X76914285Y-71842857D01*
X77000000Y-71871428D01*
X77057142Y-71871428D01*
X77142857Y-71842857D01*
X77200000Y-71785714D01*
X77228571Y-71728571D01*
X77257142Y-71614285D01*
X77257142Y-71528571D01*
X77228571Y-71414285D01*
X77200000Y-71357142D01*
X77142857Y-71300000D01*
X77057142Y-71271428D01*
X77000000Y-71271428D01*
X76914285Y-71300000D01*
X76885714Y-71328571D01*
X76657142Y-71328571D02*
X76628571Y-71300000D01*
X76571428Y-71271428D01*
X76428571Y-71271428D01*
X76371428Y-71300000D01*
X76342857Y-71328571D01*
X76314285Y-71385714D01*
X76314285Y-71442857D01*
X76342857Y-71528571D01*
X76685714Y-71871428D01*
X76314285Y-71871428D01*
X75800000Y-71471428D02*
X75800000Y-71871428D01*
X75942857Y-71242857D02*
X76085714Y-71671428D01*
X75714285Y-71671428D01*
X81885714Y-74314285D02*
X81914285Y-74342857D01*
X82000000Y-74371428D01*
X82057142Y-74371428D01*
X82142857Y-74342857D01*
X82200000Y-74285714D01*
X82228571Y-74228571D01*
X82257142Y-74114285D01*
X82257142Y-74028571D01*
X82228571Y-73914285D01*
X82200000Y-73857142D01*
X82142857Y-73800000D01*
X82057142Y-73771428D01*
X82000000Y-73771428D01*
X81914285Y-73800000D01*
X81885714Y-73828571D01*
X81657142Y-73828571D02*
X81628571Y-73800000D01*
X81571428Y-73771428D01*
X81428571Y-73771428D01*
X81371428Y-73800000D01*
X81342857Y-73828571D01*
X81314285Y-73885714D01*
X81314285Y-73942857D01*
X81342857Y-74028571D01*
X81685714Y-74371428D01*
X81314285Y-74371428D01*
X80771428Y-73771428D02*
X81057142Y-73771428D01*
X81085714Y-74057142D01*
X81057142Y-74028571D01*
X81000000Y-74000000D01*
X80857142Y-74000000D01*
X80800000Y-74028571D01*
X80771428Y-74057142D01*
X80742857Y-74114285D01*
X80742857Y-74257142D01*
X80771428Y-74314285D01*
X80800000Y-74342857D01*
X80857142Y-74371428D01*
X81000000Y-74371428D01*
X81057142Y-74342857D01*
X81085714Y-74314285D01*
X81885714Y-75114285D02*
X81914285Y-75142857D01*
X82000000Y-75171428D01*
X82057142Y-75171428D01*
X82142857Y-75142857D01*
X82200000Y-75085714D01*
X82228571Y-75028571D01*
X82257142Y-74914285D01*
X82257142Y-74828571D01*
X82228571Y-74714285D01*
X82200000Y-74657142D01*
X82142857Y-74600000D01*
X82057142Y-74571428D01*
X82000000Y-74571428D01*
X81914285Y-74600000D01*
X81885714Y-74628571D01*
X81657142Y-74628571D02*
X81628571Y-74600000D01*
X81571428Y-74571428D01*
X81428571Y-74571428D01*
X81371428Y-74600000D01*
X81342857Y-74628571D01*
X81314285Y-74685714D01*
X81314285Y-74742857D01*
X81342857Y-74828571D01*
X81685714Y-75171428D01*
X81314285Y-75171428D01*
X80800000Y-74571428D02*
X80914285Y-74571428D01*
X80971428Y-74600000D01*
X81000000Y-74628571D01*
X81057142Y-74714285D01*
X81085714Y-74828571D01*
X81085714Y-75057142D01*
X81057142Y-75114285D01*
X81028571Y-75142857D01*
X80971428Y-75171428D01*
X80857142Y-75171428D01*
X80800000Y-75142857D01*
X80771428Y-75114285D01*
X80742857Y-75057142D01*
X80742857Y-74914285D01*
X80771428Y-74857142D01*
X80800000Y-74828571D01*
X80857142Y-74800000D01*
X80971428Y-74800000D01*
X81028571Y-74828571D01*
X81057142Y-74857142D01*
X81085714Y-74914285D01*
X81885714Y-75914285D02*
X81914285Y-75942857D01*
X82000000Y-75971428D01*
X82057142Y-75971428D01*
X82142857Y-75942857D01*
X82200000Y-75885714D01*
X82228571Y-75828571D01*
X82257142Y-75714285D01*
X82257142Y-75628571D01*
X82228571Y-75514285D01*
X82200000Y-75457142D01*
X82142857Y-75400000D01*
X82057142Y-75371428D01*
X82000000Y-75371428D01*
X81914285Y-75400000D01*
X81885714Y-75428571D01*
X81657142Y-75428571D02*
X81628571Y-75400000D01*
X81571428Y-75371428D01*
X81428571Y-75371428D01*
X81371428Y-75400000D01*
X81342857Y-75428571D01*
X81314285Y-75485714D01*
X81314285Y-75542857D01*
X81342857Y-75628571D01*
X81685714Y-75971428D01*
X81314285Y-75971428D01*
X81114285Y-75371428D02*
X80714285Y-75371428D01*
X80971428Y-75971428D01*
X81885714Y-76714285D02*
X81914285Y-76742857D01*
X82000000Y-76771428D01*
X82057142Y-76771428D01*
X82142857Y-76742857D01*
X82200000Y-76685714D01*
X82228571Y-76628571D01*
X82257142Y-76514285D01*
X82257142Y-76428571D01*
X82228571Y-76314285D01*
X82200000Y-76257142D01*
X82142857Y-76200000D01*
X82057142Y-76171428D01*
X82000000Y-76171428D01*
X81914285Y-76200000D01*
X81885714Y-76228571D01*
X81657142Y-76228571D02*
X81628571Y-76200000D01*
X81571428Y-76171428D01*
X81428571Y-76171428D01*
X81371428Y-76200000D01*
X81342857Y-76228571D01*
X81314285Y-76285714D01*
X81314285Y-76342857D01*
X81342857Y-76428571D01*
X81685714Y-76771428D01*
X81314285Y-76771428D01*
X80971428Y-76428571D02*
X81028571Y-76400000D01*
X81057142Y-76371428D01*
X81085714Y-76314285D01*
X81085714Y-76285714D01*
X81057142Y-76228571D01*
X81028571Y-76200000D01*
X80971428Y-76171428D01*
X80857142Y-76171428D01*
X80800000Y-76200000D01*
X80771428Y-76228571D01*
X80742857Y-76285714D01*
X80742857Y-76314285D01*
X80771428Y-76371428D01*
X80800000Y-76400000D01*
X80857142Y-76428571D01*
X80971428Y-76428571D01*
X81028571Y-76457142D01*
X81057142Y-76485714D01*
X81085714Y-76542857D01*
X81085714Y-76657142D01*
X81057142Y-76714285D01*
X81028571Y-76742857D01*
X80971428Y-76771428D01*
X80857142Y-76771428D01*
X80800000Y-76742857D01*
X80771428Y-76714285D01*
X80742857Y-76657142D01*
X80742857Y-76542857D01*
X80771428Y-76485714D01*
X80800000Y-76457142D01*
X80857142Y-76428571D01*
X75100000Y-71871428D02*
X75300000Y-71585714D01*
X75442857Y-71871428D02*
X75442857Y-71271428D01*
X75214285Y-71271428D01*
X75157142Y-71300000D01*
X75128571Y-71328571D01*
X75100000Y-71385714D01*
X75100000Y-71471428D01*
X75128571Y-71528571D01*
X75157142Y-71557142D01*
X75214285Y-71585714D01*
X75442857Y-71585714D01*
X74528571Y-71871428D02*
X74871428Y-71871428D01*
X74700000Y-71871428D02*
X74700000Y-71271428D01*
X74757142Y-71357142D01*
X74814285Y-71414285D01*
X74871428Y-71442857D01*
X72550000Y-79021428D02*
X72750000Y-78735714D01*
X72892857Y-79021428D02*
X72892857Y-78421428D01*
X72664285Y-78421428D01*
X72607142Y-78450000D01*
X72578571Y-78478571D01*
X72550000Y-78535714D01*
X72550000Y-78621428D01*
X72578571Y-78678571D01*
X72607142Y-78707142D01*
X72664285Y-78735714D01*
X72892857Y-78735714D01*
X72321428Y-78478571D02*
X72292857Y-78450000D01*
X72235714Y-78421428D01*
X72092857Y-78421428D01*
X72035714Y-78450000D01*
X72007142Y-78478571D01*
X71978571Y-78535714D01*
X71978571Y-78592857D01*
X72007142Y-78678571D01*
X72350000Y-79021428D01*
X71978571Y-79021428D01*
X78757142Y-60371428D02*
X78757142Y-60857142D01*
X78728571Y-60914285D01*
X78700000Y-60942857D01*
X78642857Y-60971428D01*
X78528571Y-60971428D01*
X78471428Y-60942857D01*
X78442857Y-60914285D01*
X78414285Y-60857142D01*
X78414285Y-60371428D01*
X77814285Y-60971428D02*
X78157142Y-60971428D01*
X77985714Y-60971428D02*
X77985714Y-60371428D01*
X78042857Y-60457142D01*
X78100000Y-60514285D01*
X78157142Y-60542857D01*
X71657142Y-60371428D02*
X71657142Y-60857142D01*
X71628571Y-60914285D01*
X71600000Y-60942857D01*
X71542857Y-60971428D01*
X71428571Y-60971428D01*
X71371428Y-60942857D01*
X71342857Y-60914285D01*
X71314285Y-60857142D01*
X71314285Y-60371428D01*
X71057142Y-60428571D02*
X71028571Y-60400000D01*
X70971428Y-60371428D01*
X70828571Y-60371428D01*
X70771428Y-60400000D01*
X70742857Y-60428571D01*
X70714285Y-60485714D01*
X70714285Y-60542857D01*
X70742857Y-60628571D01*
X71085714Y-60971428D01*
X70714285Y-60971428D01*
X75157142Y-60371428D02*
X75157142Y-60857142D01*
X75128571Y-60914285D01*
X75100000Y-60942857D01*
X75042857Y-60971428D01*
X74928571Y-60971428D01*
X74871428Y-60942857D01*
X74842857Y-60914285D01*
X74814285Y-60857142D01*
X74814285Y-60371428D01*
X74585714Y-60371428D02*
X74214285Y-60371428D01*
X74414285Y-60600000D01*
X74328571Y-60600000D01*
X74271428Y-60628571D01*
X74242857Y-60657142D01*
X74214285Y-60714285D01*
X74214285Y-60857142D01*
X74242857Y-60914285D01*
X74271428Y-60942857D01*
X74328571Y-60971428D01*
X74500000Y-60971428D01*
X74557142Y-60942857D01*
X74585714Y-60914285D01*
X73039285Y-79810714D02*
X73060714Y-79832142D01*
X73125000Y-79853571D01*
X73167857Y-79853571D01*
X73232142Y-79832142D01*
X73275000Y-79789285D01*
X73296428Y-79746428D01*
X73317857Y-79660714D01*
X73317857Y-79596428D01*
X73296428Y-79510714D01*
X73275000Y-79467857D01*
X73232142Y-79425000D01*
X73167857Y-79403571D01*
X73125000Y-79403571D01*
X73060714Y-79425000D01*
X73039285Y-79446428D01*
X72867857Y-79446428D02*
X72846428Y-79425000D01*
X72803571Y-79403571D01*
X72696428Y-79403571D01*
X72653571Y-79425000D01*
X72632142Y-79446428D01*
X72610714Y-79489285D01*
X72610714Y-79532142D01*
X72632142Y-79596428D01*
X72889285Y-79853571D01*
X72610714Y-79853571D01*
X72396428Y-79853571D02*
X72310714Y-79853571D01*
X72267857Y-79832142D01*
X72246428Y-79810714D01*
X72203571Y-79746428D01*
X72182142Y-79660714D01*
X72182142Y-79489285D01*
X72203571Y-79446428D01*
X72225000Y-79425000D01*
X72267857Y-79403571D01*
X72353571Y-79403571D01*
X72396428Y-79425000D01*
X72417857Y-79446428D01*
X72439285Y-79489285D01*
X72439285Y-79596428D01*
X72417857Y-79639285D01*
X72396428Y-79660714D01*
X72353571Y-79682142D01*
X72267857Y-79682142D01*
X72225000Y-79660714D01*
X72203571Y-79639285D01*
X72182142Y-79596428D01*
X75875000Y-82278571D02*
X76025000Y-82064285D01*
X76132142Y-82278571D02*
X76132142Y-81828571D01*
X75960714Y-81828571D01*
X75917857Y-81850000D01*
X75896428Y-81871428D01*
X75875000Y-81914285D01*
X75875000Y-81978571D01*
X75896428Y-82021428D01*
X75917857Y-82042857D01*
X75960714Y-82064285D01*
X76132142Y-82064285D01*
X75725000Y-81828571D02*
X75446428Y-81828571D01*
X75596428Y-82000000D01*
X75532142Y-82000000D01*
X75489285Y-82021428D01*
X75467857Y-82042857D01*
X75446428Y-82085714D01*
X75446428Y-82192857D01*
X75467857Y-82235714D01*
X75489285Y-82257142D01*
X75532142Y-82278571D01*
X75660714Y-82278571D01*
X75703571Y-82257142D01*
X75725000Y-82235714D01*
X75025000Y-82278571D02*
X75175000Y-82064285D01*
X75282142Y-82278571D02*
X75282142Y-81828571D01*
X75110714Y-81828571D01*
X75067857Y-81850000D01*
X75046428Y-81871428D01*
X75025000Y-81914285D01*
X75025000Y-81978571D01*
X75046428Y-82021428D01*
X75067857Y-82042857D01*
X75110714Y-82064285D01*
X75282142Y-82064285D01*
X74639285Y-81978571D02*
X74639285Y-82278571D01*
X74746428Y-81807142D02*
X74853571Y-82128571D01*
X74575000Y-82128571D01*
D12*
X70900000Y-61325000D02*
X70900000Y-62025000D01*
X74500000Y-61325000D02*
X74500000Y-62025000D01*
X78100000Y-61325000D02*
X78100000Y-62025000D01*
X70625000Y-62475000D02*
X70625000Y-62775000D01*
X74225000Y-62475000D02*
X74225000Y-62775000D01*
X77825000Y-62475000D02*
X77825000Y-62775000D01*
X78775000Y-67375000D02*
X78775000Y-67075000D01*
X71575000Y-67375000D02*
X71575000Y-67075000D01*
X75175000Y-67375000D02*
X75175000Y-67075000D01*
X77125000Y-67075000D02*
X77125000Y-67375000D01*
X69925000Y-67075000D02*
X69925000Y-67375000D01*
X73525000Y-67075000D02*
X73525000Y-67375000D01*
X73250000Y-70350000D02*
X73550000Y-70350000D01*
X70150000Y-73800000D02*
X70450000Y-73800000D01*
X74050000Y-70350000D02*
X74350000Y-70350000D01*
X75650000Y-70350000D02*
X75950000Y-70350000D01*
X72450000Y-70350000D02*
X72750000Y-70350000D01*
X79525000Y-77150000D02*
X79525000Y-77450000D01*
X77550000Y-70500000D02*
X77850000Y-70500000D01*
X76450000Y-70350000D02*
X76750000Y-70350000D01*
X79800000Y-74250000D02*
X79800000Y-73950000D01*
X79800000Y-75050000D02*
X79800000Y-74750000D01*
X79800000Y-75850000D02*
X79800000Y-75550000D01*
X79800000Y-76650000D02*
X79800000Y-76350000D01*
X75150000Y-70350000D02*
X74850000Y-70350000D01*
X73850000Y-78875000D02*
X73850000Y-78575000D01*
X79910000Y-64025000D02*
X79910000Y-65825000D01*
X76690000Y-65825000D02*
X76690000Y-63375000D01*
X72710000Y-64025000D02*
X72710000Y-65825000D01*
X69490000Y-65825000D02*
X69490000Y-63375000D01*
X73090000Y-65825000D02*
X73090000Y-63375000D01*
X76310000Y-64025000D02*
X76310000Y-65825000D01*
X78300000Y-78000000D02*
X78300000Y-76620000D01*
X73400000Y-72000000D02*
X71700000Y-72000000D01*
X76600000Y-78000000D02*
X78300000Y-78000000D01*
X73380000Y-78000000D02*
X71700000Y-78000000D01*
X76620000Y-72000000D02*
X78300000Y-72000000D01*
X78300000Y-72000000D02*
X78300000Y-73380000D01*
X71700000Y-78000000D02*
X71700000Y-76620000D01*
X71700000Y-72000000D02*
X71700000Y-73380000D01*
D13*
X78100000Y-72300000D02*
G75*
G03*
X78100000Y-72300000I-100000J0D01*
G01*
D12*
X90300000Y-69800000D02*
X90300000Y-60400000D01*
X92900000Y-69800000D02*
X90300000Y-69800000D01*
X90300000Y-60400000D02*
X92900000Y-60400000D01*
X74300000Y-79500000D02*
X74300000Y-79800000D01*
X75925000Y-80900000D02*
X75625000Y-80900000D01*
X75100000Y-80900000D02*
X74800000Y-80900000D01*
M02*
