G04 #@! TF.GenerationSoftware,KiCad,Pcbnew,6.0.0-d3dd2cf0fa~116~ubuntu20.04.1*
G04 #@! TF.CreationDate,2022-01-19T00:50:30+01:00*
G04 #@! TF.ProjectId,sensor,73656e73-6f72-42e6-9b69-6361645f7063,rev?*
G04 #@! TF.SameCoordinates,Original*
G04 #@! TF.FileFunction,Profile,NP*
%FSLAX46Y46*%
G04 Gerber Fmt 4.6, Leading zero omitted, Abs format (unit mm)*
G04 Created by KiCad (PCBNEW 6.0.0-d3dd2cf0fa~116~ubuntu20.04.1) date 2022-01-19 00:50:30*
%MOMM*%
%LPD*%
G01*
G04 APERTURE LIST*
G04 #@! TA.AperFunction,Profile*
%ADD10C,0.050000*%
G04 #@! TD*
G04 APERTURE END LIST*
D10*
X99900000Y-55000000D02*
G75*
G03*
X95000000Y-50100000I-4900001J-1D01*
G01*
X99900000Y-55000000D02*
X99900000Y-95000000D01*
X96000000Y-60500000D02*
X96000000Y-69700000D01*
X96200000Y-60300001D02*
G75*
G03*
X96000001Y-60500000I-1J-199998D01*
G01*
X96200001Y-69900001D02*
X98800000Y-69900000D01*
X96000000Y-69700000D02*
G75*
G03*
X96200001Y-69900001I200001J0D01*
G01*
X98800000Y-69899999D02*
G75*
G03*
X99000000Y-69700001I0J200000D01*
G01*
X52000000Y-60000000D02*
X52000000Y-70000000D01*
X52200000Y-59800001D02*
G75*
G03*
X52000001Y-60000000I-1J-199998D01*
G01*
X52200000Y-59800000D02*
X60000000Y-59800000D01*
X52000001Y-70000000D02*
G75*
G03*
X52199999Y-70199998I199998J0D01*
G01*
X52200000Y-70200000D02*
X60000000Y-70200000D01*
X60199999Y-60000000D02*
G75*
G03*
X60000001Y-59800002I-199998J0D01*
G01*
X60200000Y-70000000D02*
X60200000Y-60000000D01*
X60000000Y-70199999D02*
G75*
G03*
X60199998Y-70000001I0J199998D01*
G01*
X95000000Y-99900000D02*
G75*
G03*
X99900000Y-95000000I-1J4900001D01*
G01*
X99000000Y-60500000D02*
X99000000Y-69700000D01*
X55000000Y-50100000D02*
X95000000Y-50100000D01*
X55000000Y-50100000D02*
G75*
G03*
X50100000Y-55000000I1J-4900001D01*
G01*
X50100000Y-95000000D02*
X50100000Y-55000000D01*
X50100000Y-95000000D02*
G75*
G03*
X55000000Y-99900000I4900001J1D01*
G01*
X95000000Y-99900000D02*
X55000000Y-99900000D01*
X98800000Y-60300000D02*
X96200000Y-60300000D01*
X99000000Y-60500000D02*
G75*
G03*
X98800000Y-60300000I-200001J-1D01*
G01*
M02*
