G04 #@! TF.GenerationSoftware,KiCad,Pcbnew,5.1.5+dfsg1-2build2*
G04 #@! TF.CreationDate,2021-10-11T17:45:53+02:00*
G04 #@! TF.ProjectId,sensor_v1.0,73656e73-6f72-45f7-9631-2e302e6b6963,rev?*
G04 #@! TF.SameCoordinates,Original*
G04 #@! TF.FileFunction,Paste,Bot*
G04 #@! TF.FilePolarity,Positive*
%FSLAX46Y46*%
G04 Gerber Fmt 4.6, Leading zero omitted, Abs format (unit mm)*
G04 Created by KiCad (PCBNEW 5.1.5+dfsg1-2build2) date 2021-10-11 17:45:53*
%MOMM*%
%LPD*%
G04 APERTURE LIST*
%ADD10C,0.250000*%
%ADD11R,0.600000X0.500000*%
%ADD12R,0.500000X0.600000*%
%ADD13R,0.650000X1.060000*%
%ADD14R,0.650000X0.300000*%
%ADD15R,1.000000X0.500000*%
%ADD16R,0.600000X0.900000*%
G04 APERTURE END LIST*
D10*
X72400000Y-76740000D03*
X72400000Y-76160000D03*
X72400000Y-75580000D03*
X72400000Y-75000000D03*
X72400000Y-74420000D03*
X72400000Y-73840000D03*
X72400000Y-73260000D03*
X73050000Y-77320000D03*
X73050000Y-76740000D03*
X73050000Y-76160000D03*
X73050000Y-75580000D03*
X73050000Y-75000000D03*
X73050000Y-74420000D03*
X73050000Y-73840000D03*
X73050000Y-73260000D03*
X73050000Y-72680000D03*
X73700000Y-77320000D03*
X73700000Y-76740000D03*
X73700000Y-76160000D03*
X73700000Y-75580000D03*
X73700000Y-75000000D03*
X73700000Y-74420000D03*
X73700000Y-73840000D03*
X73700000Y-73260000D03*
X73700000Y-72680000D03*
X74350000Y-77320000D03*
X74350000Y-76740000D03*
X74350000Y-76160000D03*
X74350000Y-75580000D03*
X74350000Y-75000000D03*
X74350000Y-74420000D03*
X74350000Y-73840000D03*
X74350000Y-73260000D03*
X74350000Y-72680000D03*
X75000000Y-77320000D03*
X75000000Y-76740000D03*
X75000000Y-76160000D03*
X75000000Y-75580000D03*
X75000000Y-75000000D03*
X75000000Y-74420000D03*
X75000000Y-73260000D03*
X75000000Y-72680000D03*
X75650000Y-77320000D03*
X75650000Y-76740000D03*
X75650000Y-76160000D03*
X75650000Y-75580000D03*
X75650000Y-75000000D03*
X75650000Y-74420000D03*
X75650000Y-73260000D03*
X75650000Y-72680000D03*
X76300000Y-76740000D03*
X76300000Y-76160000D03*
X76300000Y-75580000D03*
X76300000Y-75000000D03*
X76300000Y-74420000D03*
X76300000Y-73260000D03*
X76300000Y-72680000D03*
X76950000Y-77320000D03*
X76950000Y-76740000D03*
X76950000Y-76160000D03*
X76950000Y-75580000D03*
X76950000Y-75000000D03*
X76950000Y-74420000D03*
X76950000Y-73840000D03*
X76950000Y-73260000D03*
X76950000Y-72680000D03*
X77600000Y-76740000D03*
X77600000Y-76160000D03*
X77600000Y-75580000D03*
X77600000Y-75000000D03*
X77600000Y-74420000D03*
X77600000Y-73840000D03*
X77600000Y-73260000D03*
D11*
X74950000Y-81370000D03*
X74950000Y-80430000D03*
X75775000Y-81370000D03*
X75775000Y-80430000D03*
D12*
X74770000Y-79650000D03*
X73830000Y-79650000D03*
D13*
X73750000Y-66025000D03*
X75650000Y-66025000D03*
X75650000Y-63825000D03*
X74700000Y-63825000D03*
X73750000Y-63825000D03*
X70150000Y-66025000D03*
X72050000Y-66025000D03*
X72050000Y-63825000D03*
X71100000Y-63825000D03*
X70150000Y-63825000D03*
X77350000Y-66025000D03*
X79250000Y-66025000D03*
X79250000Y-63825000D03*
X78300000Y-63825000D03*
X77350000Y-63825000D03*
D12*
X73380000Y-78725000D03*
X74320000Y-78725000D03*
D11*
X75000000Y-70820000D03*
X75000000Y-69880000D03*
D14*
X94000000Y-64500000D03*
X94000000Y-65100000D03*
X94000000Y-63900000D03*
X94000000Y-63300000D03*
X94000000Y-62700000D03*
X94000000Y-62100000D03*
X94000000Y-61500000D03*
X94000000Y-68700000D03*
X94000000Y-68100000D03*
X94000000Y-66900000D03*
X94000000Y-65700000D03*
X94000000Y-66300000D03*
X94000000Y-67500000D03*
X91200000Y-65400000D03*
X91200000Y-66000000D03*
X91200000Y-64800000D03*
X91200000Y-63000000D03*
X91200000Y-67200000D03*
X91200000Y-62400000D03*
X91200000Y-63600000D03*
X91200000Y-61800000D03*
X91200000Y-68400000D03*
X91200000Y-64200000D03*
X91200000Y-67800000D03*
X91200000Y-66600000D03*
D15*
X93600000Y-69500000D03*
X93600000Y-60700000D03*
D12*
X79330000Y-76500000D03*
X80270000Y-76500000D03*
X79330000Y-75700000D03*
X80270000Y-75700000D03*
X79330000Y-74900000D03*
X80270000Y-74900000D03*
X79330000Y-74100000D03*
X80270000Y-74100000D03*
D11*
X76600000Y-69880000D03*
X76600000Y-70820000D03*
X77700000Y-70030000D03*
X77700000Y-70970000D03*
D12*
X79995000Y-77300000D03*
X79055000Y-77300000D03*
D11*
X72600000Y-69880000D03*
X72600000Y-70820000D03*
X75800000Y-69880000D03*
X75800000Y-70820000D03*
X74200000Y-69880000D03*
X74200000Y-70820000D03*
X70300000Y-73330000D03*
X70300000Y-74270000D03*
X73400000Y-69880000D03*
X73400000Y-70820000D03*
D12*
X73995000Y-67225000D03*
X73055000Y-67225000D03*
X70395000Y-67225000D03*
X69455000Y-67225000D03*
X77595000Y-67225000D03*
X76655000Y-67225000D03*
X74705000Y-67225000D03*
X75645000Y-67225000D03*
X71105000Y-67225000D03*
X72045000Y-67225000D03*
X78305000Y-67225000D03*
X79245000Y-67225000D03*
X78295000Y-62625000D03*
X77355000Y-62625000D03*
X74695000Y-62625000D03*
X73755000Y-62625000D03*
X71095000Y-62625000D03*
X70155000Y-62625000D03*
D16*
X78850000Y-61675000D03*
X77350000Y-61675000D03*
X75250000Y-61675000D03*
X73750000Y-61675000D03*
X71650000Y-61675000D03*
X70150000Y-61675000D03*
M02*
