G04 #@! TF.GenerationSoftware,KiCad,Pcbnew,5.1.5+dfsg1-2build2*
G04 #@! TF.CreationDate,2021-05-18T14:25:16+02:00*
G04 #@! TF.ProjectId,sensor_v1.0,73656e73-6f72-45f7-9631-2e302e6b6963,rev?*
G04 #@! TF.SameCoordinates,Original*
G04 #@! TF.FileFunction,Profile,NP*
%FSLAX46Y46*%
G04 Gerber Fmt 4.6, Leading zero omitted, Abs format (unit mm)*
G04 Created by KiCad (PCBNEW 5.1.5+dfsg1-2build2) date 2021-05-18 14:25:16*
%MOMM*%
%LPD*%
G04 APERTURE LIST*
%ADD10C,0.050000*%
G04 APERTURE END LIST*
D10*
X60199998Y-70000001D02*
G75*
G02X60000000Y-70199999I-199998J0D01*
G01*
X60200000Y-70000000D02*
X60200000Y-60000000D01*
X60000001Y-59800002D02*
G75*
G02X60199999Y-60000000I0J-199998D01*
G01*
X52200000Y-70200000D02*
X60000000Y-70200000D01*
X52199999Y-70199998D02*
G75*
G02X52000001Y-70000000I0J199998D01*
G01*
X52200000Y-59800000D02*
X60000000Y-59800000D01*
X52000001Y-60000000D02*
G75*
G02X52200000Y-59800001I199999J0D01*
G01*
X52000000Y-60000000D02*
X52000000Y-70000000D01*
X99000000Y-69700001D02*
G75*
G02X98800000Y-69899999I-199999J1D01*
G01*
X96200001Y-69900001D02*
G75*
G02X96000000Y-69700000I0J200001D01*
G01*
X96200001Y-69900001D02*
X98800000Y-69900000D01*
X96000001Y-60500000D02*
G75*
G02X96200000Y-60300001I199999J0D01*
G01*
X98800000Y-60300000D02*
G75*
G02X99000000Y-60500000I0J-200000D01*
G01*
X98800000Y-60300000D02*
X96200000Y-60300000D01*
X96000000Y-60500000D02*
X96000000Y-69700000D01*
X99000000Y-60500000D02*
X99000000Y-69700000D01*
X99900000Y-55000000D02*
X99900000Y-95000000D01*
X95000000Y-50100000D02*
G75*
G02X99900000Y-55000000I0J-4900000D01*
G01*
X95000000Y-99900000D02*
X55000000Y-99900000D01*
X99900000Y-95000000D02*
G75*
G02X95000000Y-99900000I-4900000J0D01*
G01*
X50100000Y-95000000D02*
X50100000Y-55000000D01*
X55000000Y-99900000D02*
G75*
G02X50100000Y-95000000I0J4900000D01*
G01*
X50100000Y-55000000D02*
G75*
G02X55000000Y-50100000I4900000J0D01*
G01*
X55000000Y-50100000D02*
X95000000Y-50100000D01*
M02*
