G04 #@! TF.GenerationSoftware,KiCad,Pcbnew,5.1.5+dfsg1-2build2*
G04 #@! TF.CreationDate,2021-05-18T14:25:16+02:00*
G04 #@! TF.ProjectId,sensor_v1.0,73656e73-6f72-45f7-9631-2e302e6b6963,rev?*
G04 #@! TF.SameCoordinates,Original*
G04 #@! TF.FileFunction,Copper,L3,Inr*
G04 #@! TF.FilePolarity,Positive*
%FSLAX46Y46*%
G04 Gerber Fmt 4.6, Leading zero omitted, Abs format (unit mm)*
G04 Created by KiCad (PCBNEW 5.1.5+dfsg1-2build2) date 2021-05-18 14:25:16*
%MOMM*%
%LPD*%
G04 APERTURE LIST*
%ADD10C,0.800000*%
%ADD11C,6.000000*%
%ADD12C,0.450000*%
%ADD13C,0.150000*%
%ADD14C,0.127000*%
G04 APERTURE END LIST*
D10*
X96590990Y-96590990D03*
X95000000Y-97250000D03*
X93409010Y-96590990D03*
X92750000Y-95000000D03*
X93409010Y-93409010D03*
X95000000Y-92750000D03*
X96590990Y-93409010D03*
X97250000Y-95000000D03*
D11*
X95000000Y-95000000D03*
D10*
X96590990Y-56590990D03*
X95000000Y-57250000D03*
X93409010Y-56590990D03*
X92750000Y-55000000D03*
X93409010Y-53409010D03*
X95000000Y-52750000D03*
X96590990Y-53409010D03*
X97250000Y-55000000D03*
D11*
X95000000Y-55000000D03*
D10*
X56590990Y-96590990D03*
X55000000Y-97250000D03*
X53409010Y-96590990D03*
X52750000Y-95000000D03*
X53409010Y-93409010D03*
X55000000Y-92750000D03*
X56590990Y-93409010D03*
X57250000Y-95000000D03*
D11*
X55000000Y-95000000D03*
D10*
X56590990Y-56590990D03*
X55000000Y-57250000D03*
X53409010Y-56590990D03*
X52750000Y-55000000D03*
X53409010Y-53409010D03*
X55000000Y-52750000D03*
X56590990Y-53409010D03*
X57250000Y-55000000D03*
D11*
X55000000Y-55000000D03*
D12*
X75268740Y-76439044D03*
X75650000Y-74025000D03*
X77275001Y-73511265D03*
X78502419Y-76881342D03*
X75964407Y-72900188D03*
X71400000Y-73200000D03*
X71450000Y-76800000D03*
X74200000Y-69250000D03*
X73400000Y-69250000D03*
X75800000Y-69275000D03*
X76600000Y-69275000D03*
X77700000Y-69425000D03*
X72600000Y-69250000D03*
X75350000Y-79650000D03*
X77350000Y-80550000D03*
X78400000Y-80550000D03*
X82000000Y-72800000D03*
X85000000Y-72400000D03*
X86600000Y-71800000D03*
X86600000Y-69400000D03*
X85000000Y-68600000D03*
X82600000Y-74600000D03*
X85600000Y-76200000D03*
X88000000Y-73800000D03*
X88400000Y-72000000D03*
X88400000Y-70400000D03*
X88800000Y-64500000D03*
X87200000Y-63900000D03*
X84700000Y-66400000D03*
X83500000Y-68400000D03*
X82000000Y-67300000D03*
X82000000Y-70100000D03*
X79100000Y-73100000D03*
X79100000Y-71200000D03*
X80700000Y-69500000D03*
X81000000Y-66100000D03*
X84700000Y-62300000D03*
X86600000Y-62500000D03*
X89700000Y-61100000D03*
X92200000Y-63150000D03*
X92250000Y-65150000D03*
X92250000Y-66400000D03*
X92750000Y-67500000D03*
X90300000Y-66500000D03*
X88400000Y-68400000D03*
X82300000Y-79400000D03*
X79700000Y-77700000D03*
X81000000Y-76000000D03*
X94700000Y-62400000D03*
X94700000Y-64200000D03*
X94700000Y-66000000D03*
X92400000Y-61300000D03*
X92200000Y-69000000D03*
X94000000Y-70200000D03*
X91600000Y-74700000D03*
X91000000Y-72200000D03*
X89800000Y-73300000D03*
X82500000Y-82400000D03*
X74200000Y-82400000D03*
X69800000Y-78200000D03*
X71500000Y-78200000D03*
X70900000Y-74900000D03*
X70500000Y-72600000D03*
X74300000Y-80600000D03*
X73900000Y-71700000D03*
X72000000Y-71500000D03*
X69500000Y-71900000D03*
X69000000Y-74000000D03*
X70700000Y-68000000D03*
X74300000Y-68000000D03*
X77900000Y-68000000D03*
X73700000Y-65000000D03*
X75800000Y-65000000D03*
X77200000Y-65000000D03*
X79400000Y-65000000D03*
X72300000Y-65000000D03*
X70000000Y-65000000D03*
X71700000Y-60600000D03*
X75300000Y-60600000D03*
X78900000Y-60600000D03*
X75400000Y-62600000D03*
X79000000Y-62600000D03*
X71800000Y-62600000D03*
X95300000Y-59500000D03*
X78900000Y-58900000D03*
X75300000Y-58900000D03*
X71700000Y-58900000D03*
X88200000Y-78200000D03*
X75825000Y-78150000D03*
X78000000Y-77275000D03*
X77700000Y-71550000D03*
X73968742Y-73560955D03*
X78425000Y-77825000D03*
X73400000Y-70455002D03*
X75800000Y-70455002D03*
X71600000Y-69850000D03*
X73430000Y-72220000D03*
X76568741Y-75360955D03*
X77325000Y-77900000D03*
X76600000Y-70455002D03*
X72041246Y-70326653D03*
X73825000Y-78100000D03*
X89200000Y-65975000D03*
X93300000Y-65750000D03*
X74081267Y-74760947D03*
X72850000Y-78725000D03*
X93350002Y-67500000D03*
X93350000Y-70650004D03*
X73431267Y-75960948D03*
X93225000Y-61925000D03*
X93275000Y-64500000D03*
X90523866Y-64999990D03*
X75918733Y-75960948D03*
X93150000Y-63900000D03*
X74081268Y-76560948D03*
X93225000Y-62700000D03*
X90432850Y-74182850D03*
X90550000Y-67200000D03*
X74524990Y-76014584D03*
X90175000Y-63200000D03*
X73431260Y-76560957D03*
X90450000Y-61425000D03*
X75918733Y-76560947D03*
X90025000Y-64075000D03*
X74686899Y-74098347D03*
X75000000Y-71400000D03*
X74081269Y-74160951D03*
X71725000Y-74775000D03*
X94675000Y-66900000D03*
X94700000Y-70575000D03*
X74475000Y-78725000D03*
X93200000Y-66375000D03*
D13*
X76049999Y-78374999D02*
X77625001Y-78374999D01*
X75825000Y-78150000D02*
X76049999Y-78374999D01*
X78000000Y-78000000D02*
X78000000Y-77275000D01*
X77625001Y-78374999D02*
X78000000Y-78000000D01*
X72450000Y-78725000D02*
X72850000Y-78725000D01*
X72100000Y-78375000D02*
X72450000Y-78725000D01*
X72100000Y-76424016D02*
X72100000Y-78375000D01*
X73763069Y-74760947D02*
X72100000Y-76424016D01*
X74081267Y-74760947D02*
X73763069Y-74760947D01*
X86522488Y-61900000D02*
X93200000Y-61900000D01*
X78600000Y-75947488D02*
X78600000Y-72897488D01*
X76872488Y-77675000D02*
X78600000Y-75947488D01*
X93200000Y-61900000D02*
X93225000Y-61925000D01*
X73202512Y-77675000D02*
X76872488Y-77675000D01*
X81525000Y-66897488D02*
X86522488Y-61900000D01*
X81525000Y-69972488D02*
X81525000Y-66897488D01*
X78600000Y-72897488D02*
X81525000Y-69972488D01*
X72775000Y-77247488D02*
X73202512Y-77675000D01*
X72775000Y-76617215D02*
X72775000Y-77247488D01*
X73431267Y-75960948D02*
X72775000Y-76617215D01*
X73125000Y-76762190D02*
X73326233Y-76560957D01*
X73125000Y-77102512D02*
X73125000Y-76762190D01*
X73347488Y-77325000D02*
X73125000Y-77102512D01*
X81175000Y-69827512D02*
X78250000Y-72752512D01*
X82504152Y-65330796D02*
X82489203Y-65396291D01*
X82504152Y-65263618D02*
X82504152Y-65330796D01*
X82489203Y-65198123D02*
X82504152Y-65263618D01*
X82460055Y-65137597D02*
X82489203Y-65198123D01*
X73326233Y-76560957D02*
X73431260Y-76560957D01*
X82195089Y-64861994D02*
X82418170Y-65085075D01*
X82153203Y-64809471D02*
X82195089Y-64861994D01*
X82124056Y-64748945D02*
X82153203Y-64809471D01*
X82109107Y-64616272D02*
X82109107Y-64683451D01*
X82124056Y-64550778D02*
X82109107Y-64616272D01*
X82153203Y-64490252D02*
X82124056Y-64550778D01*
X82195089Y-64437730D02*
X82153203Y-64490252D01*
X82247611Y-64395845D02*
X82195089Y-64437730D01*
X82373632Y-64351748D02*
X82308137Y-64366697D01*
X82312107Y-65615405D02*
X81175000Y-66752512D01*
X82440810Y-64351748D02*
X82373632Y-64351748D01*
X82619353Y-64437730D02*
X82566831Y-64395845D01*
X82842435Y-64660812D02*
X82619353Y-64437730D01*
X83020978Y-64746793D02*
X82955484Y-64731844D01*
X83088157Y-64746793D02*
X83020978Y-64746793D01*
X83153651Y-64731844D02*
X83088157Y-64746793D01*
X83266700Y-64660812D02*
X83214177Y-64702697D01*
X83352680Y-64415090D02*
X83352680Y-64482268D01*
X83337731Y-64349595D02*
X83352680Y-64415090D01*
X84186259Y-63501067D02*
X84201208Y-63566562D01*
X84157111Y-63440541D02*
X84186259Y-63501067D01*
X84115226Y-63388019D02*
X84157111Y-63440541D01*
X83944667Y-62698789D02*
X83892145Y-62740674D01*
X83892145Y-63164938D02*
X84115226Y-63388019D01*
X83850259Y-63112415D02*
X83892145Y-63164938D01*
X83821112Y-63051889D02*
X83850259Y-63112415D01*
X83806163Y-62986395D02*
X83821112Y-63051889D01*
X86377512Y-61550000D02*
X84963756Y-62963756D01*
X84539491Y-62963756D02*
X84316409Y-62740674D01*
X83266699Y-64660812D02*
X83266700Y-64660812D01*
X83936685Y-63898265D02*
X83869506Y-63898265D01*
X83806163Y-62919216D02*
X83806163Y-62986395D01*
X82489203Y-65396291D02*
X82460055Y-65456817D01*
X83821112Y-62853722D02*
X83806163Y-62919216D01*
X83850259Y-62793196D02*
X83821112Y-62853722D01*
X83892145Y-62740674D02*
X83850259Y-62793196D01*
X84070688Y-62654692D02*
X84005193Y-62669641D01*
X83214177Y-64702697D02*
X83153651Y-64731844D01*
X83415359Y-63547317D02*
X83354833Y-63518169D01*
X83289338Y-63503220D02*
X83222160Y-63503220D01*
X84137866Y-62654692D02*
X84070688Y-62654692D01*
X84201208Y-63633740D02*
X84186259Y-63699235D01*
X84203361Y-62669641D02*
X84137866Y-62654692D01*
X78250000Y-72752512D02*
X78250000Y-75802512D01*
X82566831Y-64395845D02*
X82506305Y-64366697D01*
X90325000Y-61550000D02*
X86377512Y-61550000D01*
X84785213Y-63049737D02*
X84718034Y-63049737D01*
X84963756Y-62963756D02*
X84911233Y-63005641D01*
X84911233Y-63005641D02*
X84850707Y-63034788D01*
X84850707Y-63034788D02*
X84785213Y-63049737D01*
X84263887Y-62698789D02*
X84203361Y-62669641D01*
X84115227Y-63812284D02*
X84115228Y-63812284D01*
X84005193Y-62669641D02*
X83944667Y-62698789D01*
X84652540Y-63034788D02*
X84592014Y-63005641D01*
X82894958Y-64702697D02*
X82842435Y-64660812D01*
X83096139Y-63547317D02*
X83043617Y-63589202D01*
X82308137Y-64366697D02*
X82247611Y-64395845D01*
X84592014Y-63005641D02*
X84539491Y-62963756D01*
X82955484Y-64731844D02*
X82894958Y-64702697D01*
X83156665Y-63518169D02*
X83096139Y-63547317D01*
X83043617Y-63589202D02*
X83001731Y-63641724D01*
X84201208Y-63566562D02*
X84201208Y-63633740D01*
X84157111Y-63759761D02*
X84115227Y-63812284D01*
X76727512Y-77325000D02*
X73347488Y-77325000D01*
X82109107Y-64683451D02*
X82124056Y-64748945D01*
X83352680Y-64482268D02*
X83337731Y-64547763D01*
X84115228Y-63812284D02*
X84062705Y-63854169D01*
X83308583Y-64608289D02*
X83266699Y-64660812D01*
X84002179Y-63883316D02*
X83936685Y-63898265D01*
X83337731Y-64547763D02*
X83308583Y-64608289D01*
X84062705Y-63854169D02*
X84002179Y-63883316D01*
X82418170Y-65085075D02*
X82460055Y-65137597D01*
X83869506Y-63898265D02*
X83804012Y-63883316D01*
X81175000Y-66752512D02*
X81175000Y-69827512D01*
X84316409Y-62740674D02*
X84263887Y-62698789D01*
X83804012Y-63883316D02*
X83743486Y-63854169D01*
X82460055Y-65456817D02*
X82418171Y-65509340D01*
X90450000Y-61425000D02*
X90325000Y-61550000D01*
X82972584Y-63702250D02*
X82957635Y-63767744D01*
X82957635Y-63834923D02*
X82972584Y-63900417D01*
X83266698Y-64236547D02*
X83308583Y-64289069D01*
X83001731Y-63641724D02*
X82972584Y-63702250D01*
X83743486Y-63854169D02*
X83690963Y-63812284D01*
X83690963Y-63812284D02*
X83467881Y-63589202D01*
X83467881Y-63589202D02*
X83415359Y-63547317D01*
X83354833Y-63518169D02*
X83289338Y-63503220D01*
X83222160Y-63503220D02*
X83156665Y-63518169D01*
X82418171Y-65509340D02*
X82312107Y-65615405D01*
X82506305Y-64366697D02*
X82440810Y-64351748D01*
X82957635Y-63767744D02*
X82957635Y-63834923D01*
X84718034Y-63049737D02*
X84652540Y-63034788D01*
X84186259Y-63699235D02*
X84157111Y-63759761D01*
X82972584Y-63900417D02*
X83001731Y-63960943D01*
X83308583Y-64289069D02*
X83337731Y-64349595D01*
X83001731Y-63960943D02*
X83043617Y-64013466D01*
X78250000Y-75802512D02*
X76727512Y-77325000D01*
X83043617Y-64013466D02*
X83266698Y-64236547D01*
D14*
G36*
X95816423Y-50462511D02*
G01*
X96607041Y-50678799D01*
X97346862Y-51031676D01*
X98012498Y-51509984D01*
X98582919Y-52098614D01*
X99040083Y-52778944D01*
X99369547Y-53529485D01*
X99561428Y-54328728D01*
X99611500Y-55010577D01*
X99611501Y-94987139D01*
X99537489Y-95816423D01*
X99321201Y-96607041D01*
X98968325Y-97346860D01*
X98490014Y-98012501D01*
X97901386Y-98582919D01*
X97221055Y-99040083D01*
X96470515Y-99369547D01*
X95671272Y-99561428D01*
X94989424Y-99611500D01*
X55012850Y-99611500D01*
X54183577Y-99537489D01*
X53392959Y-99321201D01*
X52653140Y-98968325D01*
X51987499Y-98490014D01*
X51417081Y-97901386D01*
X51145800Y-97497677D01*
X52978206Y-97497677D01*
X53354890Y-97836787D01*
X53939930Y-98103224D01*
X54565708Y-98250406D01*
X55208175Y-98272677D01*
X55842642Y-98169180D01*
X56444727Y-97943894D01*
X56645110Y-97836787D01*
X57021794Y-97497677D01*
X92978206Y-97497677D01*
X93354890Y-97836787D01*
X93939930Y-98103224D01*
X94565708Y-98250406D01*
X95208175Y-98272677D01*
X95842642Y-98169180D01*
X96444727Y-97943894D01*
X96645110Y-97836787D01*
X97021794Y-97497677D01*
X96705022Y-97180905D01*
X96705022Y-97180904D01*
X96590990Y-97066873D01*
X96063769Y-96539652D01*
X96001076Y-96476958D01*
X96001075Y-96476958D01*
X95000000Y-95475883D01*
X93998925Y-96476958D01*
X93998924Y-96476958D01*
X93936231Y-96539652D01*
X93409010Y-97066873D01*
X93294978Y-97180904D01*
X93294978Y-97180905D01*
X92978206Y-97497677D01*
X57021794Y-97497677D01*
X56705022Y-97180905D01*
X56705022Y-97180904D01*
X56590990Y-97066873D01*
X56063769Y-96539652D01*
X56001076Y-96476958D01*
X56001075Y-96476958D01*
X55000000Y-95475883D01*
X53998925Y-96476958D01*
X53998924Y-96476958D01*
X53936231Y-96539652D01*
X53409010Y-97066873D01*
X53294978Y-97180904D01*
X53294978Y-97180905D01*
X52978206Y-97497677D01*
X51145800Y-97497677D01*
X50959917Y-97221055D01*
X50630453Y-96470515D01*
X50438572Y-95671272D01*
X50404565Y-95208175D01*
X51727323Y-95208175D01*
X51830820Y-95842642D01*
X52056106Y-96444727D01*
X52163213Y-96645110D01*
X52502323Y-97021794D01*
X52819095Y-96705022D01*
X52819096Y-96705022D01*
X52933127Y-96590990D01*
X53409010Y-96115107D01*
X53523042Y-96001076D01*
X53523042Y-96001075D01*
X54524117Y-95000000D01*
X55475883Y-95000000D01*
X56476958Y-96001075D01*
X56476958Y-96001076D01*
X56590990Y-96115107D01*
X57066873Y-96590990D01*
X57180904Y-96705022D01*
X57180905Y-96705022D01*
X57497677Y-97021794D01*
X57836787Y-96645110D01*
X58103224Y-96060070D01*
X58250406Y-95434292D01*
X58258244Y-95208175D01*
X91727323Y-95208175D01*
X91830820Y-95842642D01*
X92056106Y-96444727D01*
X92163213Y-96645110D01*
X92502323Y-97021794D01*
X92819095Y-96705022D01*
X92819096Y-96705022D01*
X92933127Y-96590990D01*
X93409010Y-96115107D01*
X93523042Y-96001076D01*
X93523042Y-96001075D01*
X94524117Y-95000000D01*
X95475883Y-95000000D01*
X96476958Y-96001075D01*
X96476958Y-96001076D01*
X96590990Y-96115107D01*
X97066873Y-96590990D01*
X97180904Y-96705022D01*
X97180905Y-96705022D01*
X97497677Y-97021794D01*
X97836787Y-96645110D01*
X98103224Y-96060070D01*
X98250406Y-95434292D01*
X98272677Y-94791825D01*
X98169180Y-94157358D01*
X97943894Y-93555273D01*
X97836787Y-93354890D01*
X97497677Y-92978206D01*
X97180905Y-93294978D01*
X97180904Y-93294978D01*
X97120993Y-93354890D01*
X96590990Y-93884893D01*
X96476958Y-93998924D01*
X96476958Y-93998925D01*
X95475883Y-95000000D01*
X94524117Y-95000000D01*
X93523042Y-93998925D01*
X93523042Y-93998924D01*
X93409010Y-93884893D01*
X92879007Y-93354890D01*
X92819096Y-93294978D01*
X92819095Y-93294978D01*
X92502323Y-92978206D01*
X92163213Y-93354890D01*
X91896776Y-93939930D01*
X91749594Y-94565708D01*
X91727323Y-95208175D01*
X58258244Y-95208175D01*
X58272677Y-94791825D01*
X58169180Y-94157358D01*
X57943894Y-93555273D01*
X57836787Y-93354890D01*
X57497677Y-92978206D01*
X57180905Y-93294978D01*
X57180904Y-93294978D01*
X57120993Y-93354890D01*
X56590990Y-93884893D01*
X56476958Y-93998924D01*
X56476958Y-93998925D01*
X55475883Y-95000000D01*
X54524117Y-95000000D01*
X53523042Y-93998925D01*
X53523042Y-93998924D01*
X53409010Y-93884893D01*
X52879007Y-93354890D01*
X52819096Y-93294978D01*
X52819095Y-93294978D01*
X52502323Y-92978206D01*
X52163213Y-93354890D01*
X51896776Y-93939930D01*
X51749594Y-94565708D01*
X51727323Y-95208175D01*
X50404565Y-95208175D01*
X50388500Y-94989424D01*
X50388500Y-92502323D01*
X52978206Y-92502323D01*
X53294978Y-92819095D01*
X53294978Y-92819096D01*
X53409010Y-92933127D01*
X53884893Y-93409010D01*
X53998924Y-93523042D01*
X53998925Y-93523042D01*
X55000000Y-94524117D01*
X56001075Y-93523042D01*
X56001076Y-93523042D01*
X56115107Y-93409010D01*
X56590990Y-92933127D01*
X56705022Y-92819096D01*
X56705022Y-92819095D01*
X57021794Y-92502323D01*
X92978206Y-92502323D01*
X93294978Y-92819095D01*
X93294978Y-92819096D01*
X93409010Y-92933127D01*
X93884893Y-93409010D01*
X93998924Y-93523042D01*
X93998925Y-93523042D01*
X95000000Y-94524117D01*
X96001075Y-93523042D01*
X96001076Y-93523042D01*
X96115107Y-93409010D01*
X96590990Y-92933127D01*
X96705022Y-92819096D01*
X96705022Y-92819095D01*
X97021794Y-92502323D01*
X96645110Y-92163213D01*
X96060070Y-91896776D01*
X95434292Y-91749594D01*
X94791825Y-91727323D01*
X94157358Y-91830820D01*
X93555273Y-92056106D01*
X93354890Y-92163213D01*
X92978206Y-92502323D01*
X57021794Y-92502323D01*
X56645110Y-92163213D01*
X56060070Y-91896776D01*
X55434292Y-91749594D01*
X54791825Y-91727323D01*
X54157358Y-91830820D01*
X53555273Y-92056106D01*
X53354890Y-92163213D01*
X52978206Y-92502323D01*
X50388500Y-92502323D01*
X50388500Y-76424016D01*
X71759864Y-76424016D01*
X71761500Y-76440628D01*
X71761501Y-78358378D01*
X71759864Y-78375000D01*
X71766399Y-78441357D01*
X71785754Y-78505164D01*
X71785755Y-78505165D01*
X71817187Y-78563970D01*
X71859488Y-78615513D01*
X71872397Y-78626107D01*
X72198891Y-78952602D01*
X72209487Y-78965513D01*
X72261030Y-79007814D01*
X72319835Y-79039246D01*
X72383642Y-79058601D01*
X72389391Y-79059167D01*
X72433380Y-79063500D01*
X72433388Y-79063500D01*
X72450000Y-79065136D01*
X72466612Y-79063500D01*
X72497656Y-79063500D01*
X72538599Y-79104443D01*
X72618608Y-79157903D01*
X72707510Y-79194728D01*
X72801887Y-79213500D01*
X72898113Y-79213500D01*
X72992490Y-79194728D01*
X73081392Y-79157903D01*
X73161401Y-79104443D01*
X73229443Y-79036401D01*
X73282903Y-78956392D01*
X73319728Y-78867490D01*
X73338500Y-78773113D01*
X73338500Y-78676887D01*
X73319728Y-78582510D01*
X73282903Y-78493608D01*
X73229443Y-78413599D01*
X73161401Y-78345557D01*
X73081392Y-78292097D01*
X72992490Y-78255272D01*
X72898113Y-78236500D01*
X72801887Y-78236500D01*
X72707510Y-78255272D01*
X72618608Y-78292097D01*
X72544994Y-78341284D01*
X72438500Y-78234790D01*
X72438500Y-77284408D01*
X72441399Y-77313845D01*
X72460754Y-77377652D01*
X72491133Y-77434487D01*
X72492187Y-77436458D01*
X72534488Y-77488001D01*
X72547399Y-77498597D01*
X72951403Y-77902602D01*
X72961999Y-77915513D01*
X73013542Y-77957814D01*
X73072347Y-77989246D01*
X73107800Y-78000000D01*
X73136154Y-78008601D01*
X73142448Y-78009221D01*
X73185892Y-78013500D01*
X73185899Y-78013500D01*
X73202511Y-78015136D01*
X73219123Y-78013500D01*
X73344135Y-78013500D01*
X73336500Y-78051887D01*
X73336500Y-78148113D01*
X73355272Y-78242490D01*
X73392097Y-78331392D01*
X73445557Y-78411401D01*
X73513599Y-78479443D01*
X73593608Y-78532903D01*
X73682510Y-78569728D01*
X73776887Y-78588500D01*
X73873113Y-78588500D01*
X73967490Y-78569728D01*
X74019488Y-78548189D01*
X74005272Y-78582510D01*
X73986500Y-78676887D01*
X73986500Y-78773113D01*
X74005272Y-78867490D01*
X74042097Y-78956392D01*
X74095557Y-79036401D01*
X74163599Y-79104443D01*
X74243608Y-79157903D01*
X74332510Y-79194728D01*
X74426887Y-79213500D01*
X74523113Y-79213500D01*
X74617490Y-79194728D01*
X74706392Y-79157903D01*
X74786401Y-79104443D01*
X74854443Y-79036401D01*
X74907903Y-78956392D01*
X74944728Y-78867490D01*
X74963500Y-78773113D01*
X74963500Y-78676887D01*
X74944728Y-78582510D01*
X74907903Y-78493608D01*
X74854443Y-78413599D01*
X74786401Y-78345557D01*
X74706392Y-78292097D01*
X74617490Y-78255272D01*
X74523113Y-78236500D01*
X74426887Y-78236500D01*
X74332510Y-78255272D01*
X74280512Y-78276811D01*
X74294728Y-78242490D01*
X74313500Y-78148113D01*
X74313500Y-78051887D01*
X74305865Y-78013500D01*
X75354081Y-78013500D01*
X75336500Y-78101887D01*
X75336500Y-78198113D01*
X75355272Y-78292490D01*
X75392097Y-78381392D01*
X75445557Y-78461401D01*
X75513599Y-78529443D01*
X75593608Y-78582903D01*
X75682510Y-78619728D01*
X75776887Y-78638500D01*
X75837496Y-78638500D01*
X75861029Y-78657813D01*
X75919834Y-78689245D01*
X75983641Y-78708600D01*
X76049999Y-78715136D01*
X76066619Y-78713499D01*
X77608389Y-78713499D01*
X77625001Y-78715135D01*
X77641613Y-78713499D01*
X77641621Y-78713499D01*
X77691358Y-78708600D01*
X77755166Y-78689245D01*
X77813971Y-78657813D01*
X77865514Y-78615512D01*
X77876114Y-78602596D01*
X78212841Y-78265870D01*
X78282510Y-78294728D01*
X78376887Y-78313500D01*
X78473113Y-78313500D01*
X78567490Y-78294728D01*
X78656392Y-78257903D01*
X78736401Y-78204443D01*
X78804443Y-78136401D01*
X78857903Y-78056392D01*
X78894728Y-77967490D01*
X78913500Y-77873113D01*
X78913500Y-77776887D01*
X78894728Y-77682510D01*
X78857903Y-77593608D01*
X78804443Y-77513599D01*
X78736401Y-77445557D01*
X78656392Y-77392097D01*
X78567490Y-77355272D01*
X78485353Y-77338935D01*
X78488500Y-77323113D01*
X78488500Y-77226887D01*
X78469728Y-77132510D01*
X78432903Y-77043608D01*
X78379443Y-76963599D01*
X78311401Y-76895557D01*
X78231392Y-76842097D01*
X78197953Y-76828246D01*
X78827607Y-76198592D01*
X78840512Y-76188001D01*
X78882814Y-76136458D01*
X78914246Y-76077653D01*
X78924750Y-76043025D01*
X78933601Y-76013846D01*
X78934167Y-76008097D01*
X78938500Y-75964108D01*
X78938500Y-75964100D01*
X78940136Y-75947488D01*
X78938500Y-75930876D01*
X78938500Y-74134737D01*
X89944350Y-74134737D01*
X89944350Y-74230963D01*
X89963122Y-74325340D01*
X89999947Y-74414242D01*
X90053407Y-74494251D01*
X90121449Y-74562293D01*
X90201458Y-74615753D01*
X90290360Y-74652578D01*
X90384737Y-74671350D01*
X90480963Y-74671350D01*
X90575340Y-74652578D01*
X90664242Y-74615753D01*
X90744251Y-74562293D01*
X90812293Y-74494251D01*
X90865753Y-74414242D01*
X90902578Y-74325340D01*
X90921350Y-74230963D01*
X90921350Y-74134737D01*
X90902578Y-74040360D01*
X90865753Y-73951458D01*
X90812293Y-73871449D01*
X90744251Y-73803407D01*
X90664242Y-73749947D01*
X90575340Y-73713122D01*
X90480963Y-73694350D01*
X90384737Y-73694350D01*
X90290360Y-73713122D01*
X90201458Y-73749947D01*
X90121449Y-73803407D01*
X90053407Y-73871449D01*
X89999947Y-73951458D01*
X89963122Y-74040360D01*
X89944350Y-74134737D01*
X78938500Y-74134737D01*
X78938500Y-73037698D01*
X81374307Y-70601891D01*
X92861500Y-70601891D01*
X92861500Y-70698117D01*
X92880272Y-70792494D01*
X92917097Y-70881396D01*
X92970557Y-70961405D01*
X93038599Y-71029447D01*
X93118608Y-71082907D01*
X93207510Y-71119732D01*
X93301887Y-71138504D01*
X93398113Y-71138504D01*
X93492490Y-71119732D01*
X93581392Y-71082907D01*
X93661401Y-71029447D01*
X93729443Y-70961405D01*
X93782903Y-70881396D01*
X93819728Y-70792494D01*
X93838500Y-70698117D01*
X93838500Y-70601891D01*
X93823582Y-70526887D01*
X94211500Y-70526887D01*
X94211500Y-70623113D01*
X94230272Y-70717490D01*
X94267097Y-70806392D01*
X94320557Y-70886401D01*
X94388599Y-70954443D01*
X94468608Y-71007903D01*
X94557510Y-71044728D01*
X94651887Y-71063500D01*
X94748113Y-71063500D01*
X94842490Y-71044728D01*
X94931392Y-71007903D01*
X95011401Y-70954443D01*
X95079443Y-70886401D01*
X95132903Y-70806392D01*
X95169728Y-70717490D01*
X95188500Y-70623113D01*
X95188500Y-70526887D01*
X95169728Y-70432510D01*
X95132903Y-70343608D01*
X95079443Y-70263599D01*
X95011401Y-70195557D01*
X94931392Y-70142097D01*
X94842490Y-70105272D01*
X94748113Y-70086500D01*
X94651887Y-70086500D01*
X94557510Y-70105272D01*
X94468608Y-70142097D01*
X94388599Y-70195557D01*
X94320557Y-70263599D01*
X94267097Y-70343608D01*
X94230272Y-70432510D01*
X94211500Y-70526887D01*
X93823582Y-70526887D01*
X93819728Y-70507514D01*
X93782903Y-70418612D01*
X93729443Y-70338603D01*
X93661401Y-70270561D01*
X93581392Y-70217101D01*
X93492490Y-70180276D01*
X93398113Y-70161504D01*
X93301887Y-70161504D01*
X93207510Y-70180276D01*
X93118608Y-70217101D01*
X93038599Y-70270561D01*
X92970557Y-70338603D01*
X92917097Y-70418612D01*
X92880272Y-70507514D01*
X92861500Y-70601891D01*
X81374307Y-70601891D01*
X81752607Y-70223592D01*
X81765512Y-70213001D01*
X81776183Y-70200000D01*
X81789046Y-70184326D01*
X81807814Y-70161458D01*
X81839246Y-70102653D01*
X81845409Y-70082334D01*
X81858601Y-70038846D01*
X81860135Y-70023269D01*
X81863500Y-69989108D01*
X81863500Y-69989100D01*
X81865136Y-69972488D01*
X81863500Y-69955876D01*
X81863500Y-67151887D01*
X90061500Y-67151887D01*
X90061500Y-67248113D01*
X90080272Y-67342490D01*
X90117097Y-67431392D01*
X90170557Y-67511401D01*
X90238599Y-67579443D01*
X90318608Y-67632903D01*
X90407510Y-67669728D01*
X90501887Y-67688500D01*
X90598113Y-67688500D01*
X90692490Y-67669728D01*
X90781392Y-67632903D01*
X90861401Y-67579443D01*
X90929443Y-67511401D01*
X90969208Y-67451887D01*
X92861502Y-67451887D01*
X92861502Y-67548113D01*
X92880274Y-67642490D01*
X92917099Y-67731392D01*
X92970559Y-67811401D01*
X93038601Y-67879443D01*
X93118610Y-67932903D01*
X93207512Y-67969728D01*
X93301889Y-67988500D01*
X93398115Y-67988500D01*
X93492492Y-67969728D01*
X93581394Y-67932903D01*
X93661403Y-67879443D01*
X93729445Y-67811401D01*
X93782905Y-67731392D01*
X93819730Y-67642490D01*
X93838502Y-67548113D01*
X93838502Y-67451887D01*
X93819730Y-67357510D01*
X93782905Y-67268608D01*
X93729445Y-67188599D01*
X93661403Y-67120557D01*
X93581394Y-67067097D01*
X93492492Y-67030272D01*
X93398115Y-67011500D01*
X93301889Y-67011500D01*
X93207512Y-67030272D01*
X93118610Y-67067097D01*
X93038601Y-67120557D01*
X92970559Y-67188599D01*
X92917099Y-67268608D01*
X92880274Y-67357510D01*
X92861502Y-67451887D01*
X90969208Y-67451887D01*
X90982903Y-67431392D01*
X91019728Y-67342490D01*
X91038500Y-67248113D01*
X91038500Y-67151887D01*
X91019728Y-67057510D01*
X90982903Y-66968608D01*
X90929443Y-66888599D01*
X90861401Y-66820557D01*
X90781392Y-66767097D01*
X90692490Y-66730272D01*
X90598113Y-66711500D01*
X90501887Y-66711500D01*
X90407510Y-66730272D01*
X90318608Y-66767097D01*
X90238599Y-66820557D01*
X90170557Y-66888599D01*
X90117097Y-66968608D01*
X90080272Y-67057510D01*
X90061500Y-67151887D01*
X81863500Y-67151887D01*
X81863500Y-67037698D01*
X82974311Y-65926887D01*
X88711500Y-65926887D01*
X88711500Y-66023113D01*
X88730272Y-66117490D01*
X88767097Y-66206392D01*
X88820557Y-66286401D01*
X88888599Y-66354443D01*
X88968608Y-66407903D01*
X89057510Y-66444728D01*
X89151887Y-66463500D01*
X89248113Y-66463500D01*
X89342490Y-66444728D01*
X89431392Y-66407903D01*
X89511401Y-66354443D01*
X89538957Y-66326887D01*
X92711500Y-66326887D01*
X92711500Y-66423113D01*
X92730272Y-66517490D01*
X92767097Y-66606392D01*
X92820557Y-66686401D01*
X92888599Y-66754443D01*
X92968608Y-66807903D01*
X93057510Y-66844728D01*
X93151887Y-66863500D01*
X93248113Y-66863500D01*
X93306497Y-66851887D01*
X94186500Y-66851887D01*
X94186500Y-66948113D01*
X94205272Y-67042490D01*
X94242097Y-67131392D01*
X94295557Y-67211401D01*
X94363599Y-67279443D01*
X94443608Y-67332903D01*
X94532510Y-67369728D01*
X94626887Y-67388500D01*
X94723113Y-67388500D01*
X94817490Y-67369728D01*
X94906392Y-67332903D01*
X94986401Y-67279443D01*
X95054443Y-67211401D01*
X95107903Y-67131392D01*
X95144728Y-67042490D01*
X95163500Y-66948113D01*
X95163500Y-66851887D01*
X95144728Y-66757510D01*
X95107903Y-66668608D01*
X95054443Y-66588599D01*
X94986401Y-66520557D01*
X94906392Y-66467097D01*
X94817490Y-66430272D01*
X94723113Y-66411500D01*
X94626887Y-66411500D01*
X94532510Y-66430272D01*
X94443608Y-66467097D01*
X94363599Y-66520557D01*
X94295557Y-66588599D01*
X94242097Y-66668608D01*
X94205272Y-66757510D01*
X94186500Y-66851887D01*
X93306497Y-66851887D01*
X93342490Y-66844728D01*
X93431392Y-66807903D01*
X93511401Y-66754443D01*
X93579443Y-66686401D01*
X93632903Y-66606392D01*
X93669728Y-66517490D01*
X93688500Y-66423113D01*
X93688500Y-66326887D01*
X93669728Y-66232510D01*
X93632903Y-66143608D01*
X93618617Y-66122227D01*
X93679443Y-66061401D01*
X93732903Y-65981392D01*
X93769728Y-65892490D01*
X93788500Y-65798113D01*
X93788500Y-65701887D01*
X93769728Y-65607510D01*
X93732903Y-65518608D01*
X93679443Y-65438599D01*
X93611401Y-65370557D01*
X93531392Y-65317097D01*
X93442490Y-65280272D01*
X93348113Y-65261500D01*
X93251887Y-65261500D01*
X93157510Y-65280272D01*
X93068608Y-65317097D01*
X92988599Y-65370557D01*
X92920557Y-65438599D01*
X92867097Y-65518608D01*
X92830272Y-65607510D01*
X92811500Y-65701887D01*
X92811500Y-65798113D01*
X92830272Y-65892490D01*
X92867097Y-65981392D01*
X92881383Y-66002773D01*
X92820557Y-66063599D01*
X92767097Y-66143608D01*
X92730272Y-66232510D01*
X92711500Y-66326887D01*
X89538957Y-66326887D01*
X89579443Y-66286401D01*
X89632903Y-66206392D01*
X89669728Y-66117490D01*
X89688500Y-66023113D01*
X89688500Y-65926887D01*
X89669728Y-65832510D01*
X89632903Y-65743608D01*
X89579443Y-65663599D01*
X89511401Y-65595557D01*
X89431392Y-65542097D01*
X89342490Y-65505272D01*
X89248113Y-65486500D01*
X89151887Y-65486500D01*
X89057510Y-65505272D01*
X88968608Y-65542097D01*
X88888599Y-65595557D01*
X88820557Y-65663599D01*
X88767097Y-65743608D01*
X88730272Y-65832510D01*
X88711500Y-65926887D01*
X82974311Y-65926887D01*
X83949321Y-64951877D01*
X90035366Y-64951877D01*
X90035366Y-65048103D01*
X90054138Y-65142480D01*
X90090963Y-65231382D01*
X90144423Y-65311391D01*
X90212465Y-65379433D01*
X90292474Y-65432893D01*
X90381376Y-65469718D01*
X90475753Y-65488490D01*
X90571979Y-65488490D01*
X90666356Y-65469718D01*
X90755258Y-65432893D01*
X90835267Y-65379433D01*
X90903309Y-65311391D01*
X90956769Y-65231382D01*
X90993594Y-65142480D01*
X91012366Y-65048103D01*
X91012366Y-64951877D01*
X90993594Y-64857500D01*
X90956769Y-64768598D01*
X90903309Y-64688589D01*
X90835267Y-64620547D01*
X90755258Y-64567087D01*
X90666356Y-64530262D01*
X90571979Y-64511490D01*
X90475753Y-64511490D01*
X90381376Y-64530262D01*
X90292474Y-64567087D01*
X90212465Y-64620547D01*
X90144423Y-64688589D01*
X90090963Y-64768598D01*
X90054138Y-64857500D01*
X90035366Y-64951877D01*
X83949321Y-64951877D01*
X84874311Y-64026887D01*
X89536500Y-64026887D01*
X89536500Y-64123113D01*
X89555272Y-64217490D01*
X89592097Y-64306392D01*
X89645557Y-64386401D01*
X89713599Y-64454443D01*
X89793608Y-64507903D01*
X89882510Y-64544728D01*
X89976887Y-64563500D01*
X90073113Y-64563500D01*
X90167490Y-64544728D01*
X90256392Y-64507903D01*
X90336401Y-64454443D01*
X90404443Y-64386401D01*
X90457903Y-64306392D01*
X90494728Y-64217490D01*
X90513500Y-64123113D01*
X90513500Y-64026887D01*
X90494728Y-63932510D01*
X90461333Y-63851887D01*
X92661500Y-63851887D01*
X92661500Y-63948113D01*
X92680272Y-64042490D01*
X92717097Y-64131392D01*
X92770557Y-64211401D01*
X92837899Y-64278743D01*
X92805272Y-64357510D01*
X92786500Y-64451887D01*
X92786500Y-64548113D01*
X92805272Y-64642490D01*
X92842097Y-64731392D01*
X92895557Y-64811401D01*
X92963599Y-64879443D01*
X93043608Y-64932903D01*
X93132510Y-64969728D01*
X93226887Y-64988500D01*
X93323113Y-64988500D01*
X93417490Y-64969728D01*
X93506392Y-64932903D01*
X93586401Y-64879443D01*
X93654443Y-64811401D01*
X93707903Y-64731392D01*
X93744728Y-64642490D01*
X93763500Y-64548113D01*
X93763500Y-64451887D01*
X93744728Y-64357510D01*
X93707903Y-64268608D01*
X93654443Y-64188599D01*
X93587101Y-64121257D01*
X93619728Y-64042490D01*
X93638500Y-63948113D01*
X93638500Y-63851887D01*
X93619728Y-63757510D01*
X93582903Y-63668608D01*
X93529443Y-63588599D01*
X93461401Y-63520557D01*
X93381392Y-63467097D01*
X93292490Y-63430272D01*
X93198113Y-63411500D01*
X93101887Y-63411500D01*
X93007510Y-63430272D01*
X92918608Y-63467097D01*
X92838599Y-63520557D01*
X92770557Y-63588599D01*
X92717097Y-63668608D01*
X92680272Y-63757510D01*
X92661500Y-63851887D01*
X90461333Y-63851887D01*
X90457903Y-63843608D01*
X90404443Y-63763599D01*
X90336401Y-63695557D01*
X90302274Y-63672754D01*
X90317490Y-63669728D01*
X90406392Y-63632903D01*
X90486401Y-63579443D01*
X90554443Y-63511401D01*
X90607903Y-63431392D01*
X90644728Y-63342490D01*
X90663500Y-63248113D01*
X90663500Y-63151887D01*
X90644728Y-63057510D01*
X90607903Y-62968608D01*
X90554443Y-62888599D01*
X90486401Y-62820557D01*
X90406392Y-62767097D01*
X90317490Y-62730272D01*
X90223113Y-62711500D01*
X90126887Y-62711500D01*
X90032510Y-62730272D01*
X89943608Y-62767097D01*
X89863599Y-62820557D01*
X89795557Y-62888599D01*
X89742097Y-62968608D01*
X89705272Y-63057510D01*
X89686500Y-63151887D01*
X89686500Y-63248113D01*
X89705272Y-63342490D01*
X89742097Y-63431392D01*
X89795557Y-63511401D01*
X89863599Y-63579443D01*
X89897726Y-63602246D01*
X89882510Y-63605272D01*
X89793608Y-63642097D01*
X89713599Y-63695557D01*
X89645557Y-63763599D01*
X89592097Y-63843608D01*
X89555272Y-63932510D01*
X89536500Y-64026887D01*
X84874311Y-64026887D01*
X86662699Y-62238500D01*
X92847656Y-62238500D01*
X92913599Y-62304443D01*
X92925657Y-62312500D01*
X92913599Y-62320557D01*
X92845557Y-62388599D01*
X92792097Y-62468608D01*
X92755272Y-62557510D01*
X92736500Y-62651887D01*
X92736500Y-62748113D01*
X92755272Y-62842490D01*
X92792097Y-62931392D01*
X92845557Y-63011401D01*
X92913599Y-63079443D01*
X92993608Y-63132903D01*
X93082510Y-63169728D01*
X93176887Y-63188500D01*
X93273113Y-63188500D01*
X93367490Y-63169728D01*
X93456392Y-63132903D01*
X93536401Y-63079443D01*
X93604443Y-63011401D01*
X93657903Y-62931392D01*
X93694728Y-62842490D01*
X93713500Y-62748113D01*
X93713500Y-62651887D01*
X93694728Y-62557510D01*
X93657903Y-62468608D01*
X93604443Y-62388599D01*
X93536401Y-62320557D01*
X93524343Y-62312500D01*
X93536401Y-62304443D01*
X93604443Y-62236401D01*
X93657903Y-62156392D01*
X93694728Y-62067490D01*
X93713500Y-61973113D01*
X93713500Y-61876887D01*
X93694728Y-61782510D01*
X93657903Y-61693608D01*
X93604443Y-61613599D01*
X93536401Y-61545557D01*
X93456392Y-61492097D01*
X93367490Y-61455272D01*
X93273113Y-61436500D01*
X93176887Y-61436500D01*
X93082510Y-61455272D01*
X92993608Y-61492097D01*
X92913599Y-61545557D01*
X92897656Y-61561500D01*
X90920919Y-61561500D01*
X90938500Y-61473113D01*
X90938500Y-61376887D01*
X90919728Y-61282510D01*
X90882903Y-61193608D01*
X90829443Y-61113599D01*
X90761401Y-61045557D01*
X90681392Y-60992097D01*
X90592490Y-60955272D01*
X90498113Y-60936500D01*
X90401887Y-60936500D01*
X90307510Y-60955272D01*
X90218608Y-60992097D01*
X90138599Y-61045557D01*
X90070557Y-61113599D01*
X90017097Y-61193608D01*
X90009686Y-61211500D01*
X86394124Y-61211500D01*
X86377512Y-61209864D01*
X86360900Y-61211500D01*
X86360892Y-61211500D01*
X86316903Y-61215833D01*
X86311154Y-61216399D01*
X86247347Y-61235754D01*
X86188542Y-61267186D01*
X86136999Y-61309487D01*
X86126404Y-61322397D01*
X84751624Y-62697178D01*
X84577639Y-62523193D01*
X84576285Y-62521228D01*
X84554136Y-62499691D01*
X84544012Y-62489567D01*
X84542168Y-62488054D01*
X84540454Y-62486387D01*
X84529258Y-62477459D01*
X84505379Y-62457861D01*
X84503270Y-62456734D01*
X84484209Y-62441533D01*
X84468417Y-62427017D01*
X84444000Y-62412148D01*
X84420004Y-62396597D01*
X84400073Y-62388667D01*
X84360916Y-62369810D01*
X84342288Y-62359171D01*
X84315177Y-62350109D01*
X84288320Y-62340286D01*
X84267119Y-62336989D01*
X84224758Y-62327320D01*
X84204223Y-62321091D01*
X84175750Y-62318287D01*
X84147406Y-62314690D01*
X84126018Y-62316192D01*
X84082534Y-62316192D01*
X84061146Y-62314690D01*
X84032795Y-62318287D01*
X84004331Y-62321091D01*
X83983800Y-62327319D01*
X83941434Y-62336989D01*
X83920234Y-62340286D01*
X83893377Y-62350109D01*
X83866266Y-62359171D01*
X83847638Y-62369810D01*
X83808481Y-62388667D01*
X83788550Y-62396597D01*
X83764568Y-62412139D01*
X83740137Y-62427017D01*
X83724339Y-62441538D01*
X83690367Y-62468630D01*
X83672702Y-62480795D01*
X83652776Y-62501287D01*
X83632268Y-62521228D01*
X83620099Y-62538899D01*
X83593009Y-62572867D01*
X83578484Y-62588670D01*
X83563609Y-62613099D01*
X83548069Y-62637076D01*
X83540138Y-62657008D01*
X83521280Y-62696168D01*
X83510642Y-62714794D01*
X83501575Y-62741918D01*
X83491756Y-62768768D01*
X83488461Y-62789959D01*
X83478789Y-62832332D01*
X83472562Y-62852860D01*
X83469759Y-62881321D01*
X83466161Y-62909675D01*
X83467663Y-62931063D01*
X83467663Y-62974548D01*
X83466161Y-62995936D01*
X83469758Y-63024286D01*
X83472562Y-63052752D01*
X83478790Y-63073283D01*
X83488461Y-63115652D01*
X83491756Y-63136843D01*
X83501575Y-63163693D01*
X83510642Y-63190817D01*
X83521280Y-63209443D01*
X83529541Y-63226598D01*
X83512388Y-63218338D01*
X83493760Y-63207699D01*
X83466649Y-63198637D01*
X83439792Y-63188814D01*
X83418591Y-63185517D01*
X83376230Y-63175848D01*
X83355695Y-63169619D01*
X83327222Y-63166815D01*
X83298878Y-63163218D01*
X83277490Y-63164720D01*
X83234006Y-63164720D01*
X83212618Y-63163218D01*
X83184267Y-63166815D01*
X83155803Y-63169619D01*
X83135272Y-63175847D01*
X83092906Y-63185517D01*
X83071706Y-63188814D01*
X83044849Y-63198637D01*
X83017738Y-63207699D01*
X82999110Y-63218338D01*
X82959953Y-63237195D01*
X82940022Y-63245125D01*
X82916040Y-63260667D01*
X82891609Y-63275545D01*
X82875811Y-63290066D01*
X82841839Y-63317158D01*
X82824174Y-63329323D01*
X82804248Y-63349815D01*
X82783740Y-63369756D01*
X82771571Y-63387427D01*
X82744481Y-63421395D01*
X82729956Y-63437198D01*
X82715081Y-63461627D01*
X82699541Y-63485604D01*
X82691610Y-63505536D01*
X82672752Y-63544696D01*
X82662114Y-63563322D01*
X82653047Y-63590446D01*
X82643228Y-63617296D01*
X82639933Y-63638487D01*
X82630261Y-63680860D01*
X82624034Y-63701388D01*
X82621231Y-63729849D01*
X82617633Y-63758203D01*
X82619135Y-63779591D01*
X82619135Y-63823076D01*
X82617633Y-63844464D01*
X82621230Y-63872814D01*
X82624034Y-63901280D01*
X82630262Y-63921811D01*
X82639933Y-63964180D01*
X82643228Y-63985371D01*
X82653047Y-64012221D01*
X82662114Y-64039345D01*
X82672752Y-64057971D01*
X82681013Y-64075126D01*
X82663860Y-64066866D01*
X82645232Y-64056227D01*
X82618121Y-64047165D01*
X82591264Y-64037342D01*
X82570063Y-64034045D01*
X82527702Y-64024376D01*
X82507167Y-64018147D01*
X82478694Y-64015343D01*
X82450350Y-64011746D01*
X82428962Y-64013248D01*
X82385478Y-64013248D01*
X82364090Y-64011746D01*
X82335739Y-64015343D01*
X82307275Y-64018147D01*
X82286744Y-64024375D01*
X82244378Y-64034045D01*
X82223178Y-64037342D01*
X82196321Y-64047165D01*
X82169210Y-64056227D01*
X82150582Y-64066866D01*
X82111425Y-64085723D01*
X82091494Y-64093653D01*
X82067512Y-64109195D01*
X82043081Y-64124073D01*
X82027283Y-64138594D01*
X81993311Y-64165686D01*
X81975646Y-64177851D01*
X81955720Y-64198343D01*
X81935212Y-64218284D01*
X81923043Y-64235955D01*
X81895953Y-64269923D01*
X81881428Y-64285726D01*
X81866553Y-64310155D01*
X81851013Y-64334132D01*
X81843082Y-64354064D01*
X81824224Y-64393224D01*
X81813586Y-64411850D01*
X81804519Y-64438974D01*
X81794700Y-64465824D01*
X81791405Y-64487015D01*
X81781733Y-64529388D01*
X81775506Y-64549916D01*
X81772703Y-64578377D01*
X81769105Y-64606731D01*
X81770607Y-64628119D01*
X81770607Y-64671604D01*
X81769105Y-64692992D01*
X81772702Y-64721342D01*
X81775506Y-64749808D01*
X81781734Y-64770339D01*
X81791405Y-64812708D01*
X81794700Y-64833899D01*
X81804519Y-64860749D01*
X81813586Y-64887873D01*
X81824224Y-64906499D01*
X81843079Y-64945653D01*
X81851011Y-64965588D01*
X81866559Y-64989579D01*
X81881428Y-65013997D01*
X81895948Y-65029795D01*
X81911149Y-65048855D01*
X81912276Y-65050964D01*
X81931880Y-65074851D01*
X81940803Y-65086040D01*
X81942468Y-65087753D01*
X81943982Y-65089597D01*
X81954106Y-65099721D01*
X81975644Y-65121871D01*
X81977610Y-65123225D01*
X82151593Y-65297208D01*
X82084508Y-65364294D01*
X82084503Y-65364298D01*
X80947399Y-66501403D01*
X80934487Y-66512000D01*
X80892186Y-66563543D01*
X80869283Y-66606392D01*
X80860754Y-66622348D01*
X80846335Y-66669885D01*
X80841399Y-66686156D01*
X80836500Y-66735893D01*
X80836500Y-66735900D01*
X80834864Y-66752512D01*
X80836500Y-66769124D01*
X80836501Y-69687300D01*
X78022399Y-72501403D01*
X78009487Y-72512000D01*
X77967186Y-72563543D01*
X77956657Y-72583242D01*
X77935754Y-72622348D01*
X77921335Y-72669885D01*
X77916399Y-72686156D01*
X77911500Y-72735893D01*
X77911500Y-72735900D01*
X77909864Y-72752512D01*
X77911500Y-72769124D01*
X77911501Y-75662300D01*
X76587302Y-76986500D01*
X76161125Y-76986500D01*
X76230134Y-76940390D01*
X76298176Y-76872348D01*
X76351636Y-76792339D01*
X76388461Y-76703437D01*
X76407233Y-76609060D01*
X76407233Y-76512834D01*
X76388461Y-76418457D01*
X76351636Y-76329555D01*
X76305794Y-76260948D01*
X76351636Y-76192340D01*
X76388461Y-76103438D01*
X76407233Y-76009061D01*
X76407233Y-75912835D01*
X76388461Y-75818458D01*
X76386747Y-75814320D01*
X76426251Y-75830683D01*
X76520628Y-75849455D01*
X76616854Y-75849455D01*
X76711231Y-75830683D01*
X76800133Y-75793858D01*
X76880142Y-75740398D01*
X76948184Y-75672356D01*
X77001644Y-75592347D01*
X77038469Y-75503445D01*
X77057241Y-75409068D01*
X77057241Y-75312842D01*
X77038469Y-75218465D01*
X77001644Y-75129563D01*
X76948184Y-75049554D01*
X76880142Y-74981512D01*
X76800133Y-74928052D01*
X76711231Y-74891227D01*
X76616854Y-74872455D01*
X76520628Y-74872455D01*
X76426251Y-74891227D01*
X76337349Y-74928052D01*
X76257340Y-74981512D01*
X76189298Y-75049554D01*
X76135838Y-75129563D01*
X76099013Y-75218465D01*
X76080241Y-75312842D01*
X76080241Y-75409068D01*
X76099013Y-75503445D01*
X76100727Y-75507583D01*
X76061223Y-75491220D01*
X75966846Y-75472448D01*
X75870620Y-75472448D01*
X75776243Y-75491220D01*
X75687341Y-75528045D01*
X75607332Y-75581505D01*
X75539290Y-75649547D01*
X75485830Y-75729556D01*
X75449005Y-75818458D01*
X75430233Y-75912835D01*
X75430233Y-76009061D01*
X75449005Y-76103438D01*
X75485830Y-76192340D01*
X75531672Y-76260948D01*
X75485830Y-76329555D01*
X75449005Y-76418457D01*
X75430233Y-76512834D01*
X75430233Y-76609060D01*
X75449005Y-76703437D01*
X75485830Y-76792339D01*
X75539290Y-76872348D01*
X75607332Y-76940390D01*
X75676341Y-76986500D01*
X74323662Y-76986500D01*
X74392669Y-76940391D01*
X74460711Y-76872349D01*
X74514171Y-76792340D01*
X74550996Y-76703438D01*
X74569768Y-76609061D01*
X74569768Y-76512835D01*
X74567828Y-76503084D01*
X74573103Y-76503084D01*
X74667480Y-76484312D01*
X74756382Y-76447487D01*
X74836391Y-76394027D01*
X74904433Y-76325985D01*
X74957893Y-76245976D01*
X74994718Y-76157074D01*
X75013490Y-76062697D01*
X75013490Y-75966471D01*
X74994718Y-75872094D01*
X74957893Y-75783192D01*
X74904433Y-75703183D01*
X74836391Y-75635141D01*
X74756382Y-75581681D01*
X74667480Y-75544856D01*
X74573103Y-75526084D01*
X74476877Y-75526084D01*
X74382500Y-75544856D01*
X74293598Y-75581681D01*
X74213589Y-75635141D01*
X74145547Y-75703183D01*
X74092087Y-75783192D01*
X74055262Y-75872094D01*
X74036490Y-75966471D01*
X74036490Y-76062697D01*
X74038430Y-76072448D01*
X74033155Y-76072448D01*
X73938778Y-76091220D01*
X73899279Y-76107581D01*
X73900995Y-76103438D01*
X73919767Y-76009061D01*
X73919767Y-75912835D01*
X73900995Y-75818458D01*
X73864170Y-75729556D01*
X73810710Y-75649547D01*
X73742668Y-75581505D01*
X73662659Y-75528045D01*
X73573757Y-75491220D01*
X73521834Y-75480892D01*
X73825298Y-75177429D01*
X73849875Y-75193850D01*
X73938777Y-75230675D01*
X74033154Y-75249447D01*
X74129380Y-75249447D01*
X74223757Y-75230675D01*
X74312659Y-75193850D01*
X74392668Y-75140390D01*
X74460710Y-75072348D01*
X74514170Y-74992339D01*
X74550995Y-74903437D01*
X74569767Y-74809060D01*
X74569767Y-74712834D01*
X74550995Y-74618457D01*
X74527167Y-74560933D01*
X74544409Y-74568075D01*
X74638786Y-74586847D01*
X74735012Y-74586847D01*
X74829389Y-74568075D01*
X74918291Y-74531250D01*
X74998300Y-74477790D01*
X75066342Y-74409748D01*
X75119802Y-74329739D01*
X75156627Y-74240837D01*
X75175399Y-74146460D01*
X75175399Y-74050234D01*
X75156627Y-73955857D01*
X75119802Y-73866955D01*
X75066342Y-73786946D01*
X74998300Y-73718904D01*
X74918291Y-73665444D01*
X74829389Y-73628619D01*
X74735012Y-73609847D01*
X74638786Y-73609847D01*
X74544409Y-73628619D01*
X74455507Y-73665444D01*
X74444576Y-73672748D01*
X74457242Y-73609068D01*
X74457242Y-73512842D01*
X74438470Y-73418465D01*
X74401645Y-73329563D01*
X74348185Y-73249554D01*
X74280143Y-73181512D01*
X74200134Y-73128052D01*
X74111232Y-73091227D01*
X74016855Y-73072455D01*
X73920629Y-73072455D01*
X73826252Y-73091227D01*
X73737350Y-73128052D01*
X73657341Y-73181512D01*
X73589299Y-73249554D01*
X73535839Y-73329563D01*
X73499014Y-73418465D01*
X73480242Y-73512842D01*
X73480242Y-73609068D01*
X73499014Y-73703445D01*
X73535839Y-73792347D01*
X73589299Y-73872356D01*
X73647820Y-73930877D01*
X73611541Y-74018461D01*
X73592769Y-74112838D01*
X73592769Y-74209064D01*
X73611541Y-74303441D01*
X73648366Y-74392343D01*
X73675960Y-74433641D01*
X73632904Y-74446701D01*
X73574099Y-74478133D01*
X73522556Y-74520434D01*
X73511960Y-74533345D01*
X71872399Y-76172907D01*
X71859487Y-76183504D01*
X71817186Y-76235047D01*
X71797248Y-76272349D01*
X71785754Y-76293852D01*
X71782989Y-76302969D01*
X71766399Y-76357660D01*
X71761500Y-76407397D01*
X71761500Y-76407404D01*
X71759864Y-76424016D01*
X50388500Y-76424016D01*
X50388500Y-74726887D01*
X71236500Y-74726887D01*
X71236500Y-74823113D01*
X71255272Y-74917490D01*
X71292097Y-75006392D01*
X71345557Y-75086401D01*
X71413599Y-75154443D01*
X71493608Y-75207903D01*
X71582510Y-75244728D01*
X71676887Y-75263500D01*
X71773113Y-75263500D01*
X71867490Y-75244728D01*
X71956392Y-75207903D01*
X72036401Y-75154443D01*
X72104443Y-75086401D01*
X72157903Y-75006392D01*
X72194728Y-74917490D01*
X72213500Y-74823113D01*
X72213500Y-74726887D01*
X72194728Y-74632510D01*
X72157903Y-74543608D01*
X72104443Y-74463599D01*
X72036401Y-74395557D01*
X71956392Y-74342097D01*
X71867490Y-74305272D01*
X71773113Y-74286500D01*
X71676887Y-74286500D01*
X71582510Y-74305272D01*
X71493608Y-74342097D01*
X71413599Y-74395557D01*
X71345557Y-74463599D01*
X71292097Y-74543608D01*
X71255272Y-74632510D01*
X71236500Y-74726887D01*
X50388500Y-74726887D01*
X50388500Y-72171887D01*
X72941500Y-72171887D01*
X72941500Y-72268113D01*
X72960272Y-72362490D01*
X72997097Y-72451392D01*
X73050557Y-72531401D01*
X73118599Y-72599443D01*
X73198608Y-72652903D01*
X73287510Y-72689728D01*
X73381887Y-72708500D01*
X73478113Y-72708500D01*
X73572490Y-72689728D01*
X73661392Y-72652903D01*
X73741401Y-72599443D01*
X73809443Y-72531401D01*
X73862903Y-72451392D01*
X73899728Y-72362490D01*
X73918500Y-72268113D01*
X73918500Y-72171887D01*
X73899728Y-72077510D01*
X73862903Y-71988608D01*
X73809443Y-71908599D01*
X73741401Y-71840557D01*
X73661392Y-71787097D01*
X73572490Y-71750272D01*
X73478113Y-71731500D01*
X73381887Y-71731500D01*
X73287510Y-71750272D01*
X73198608Y-71787097D01*
X73118599Y-71840557D01*
X73050557Y-71908599D01*
X72997097Y-71988608D01*
X72960272Y-72077510D01*
X72941500Y-72171887D01*
X50388500Y-72171887D01*
X50388500Y-71351887D01*
X74511500Y-71351887D01*
X74511500Y-71448113D01*
X74530272Y-71542490D01*
X74567097Y-71631392D01*
X74620557Y-71711401D01*
X74688599Y-71779443D01*
X74768608Y-71832903D01*
X74857510Y-71869728D01*
X74951887Y-71888500D01*
X75048113Y-71888500D01*
X75142490Y-71869728D01*
X75231392Y-71832903D01*
X75311401Y-71779443D01*
X75379443Y-71711401D01*
X75432903Y-71631392D01*
X75469728Y-71542490D01*
X75477804Y-71501887D01*
X77211500Y-71501887D01*
X77211500Y-71598113D01*
X77230272Y-71692490D01*
X77267097Y-71781392D01*
X77320557Y-71861401D01*
X77388599Y-71929443D01*
X77468608Y-71982903D01*
X77557510Y-72019728D01*
X77651887Y-72038500D01*
X77748113Y-72038500D01*
X77842490Y-72019728D01*
X77931392Y-71982903D01*
X78011401Y-71929443D01*
X78079443Y-71861401D01*
X78132903Y-71781392D01*
X78169728Y-71692490D01*
X78188500Y-71598113D01*
X78188500Y-71501887D01*
X78169728Y-71407510D01*
X78132903Y-71318608D01*
X78079443Y-71238599D01*
X78011401Y-71170557D01*
X77931392Y-71117097D01*
X77842490Y-71080272D01*
X77748113Y-71061500D01*
X77651887Y-71061500D01*
X77557510Y-71080272D01*
X77468608Y-71117097D01*
X77388599Y-71170557D01*
X77320557Y-71238599D01*
X77267097Y-71318608D01*
X77230272Y-71407510D01*
X77211500Y-71501887D01*
X75477804Y-71501887D01*
X75488500Y-71448113D01*
X75488500Y-71351887D01*
X75469728Y-71257510D01*
X75432903Y-71168608D01*
X75379443Y-71088599D01*
X75311401Y-71020557D01*
X75231392Y-70967097D01*
X75142490Y-70930272D01*
X75048113Y-70911500D01*
X74951887Y-70911500D01*
X74857510Y-70930272D01*
X74768608Y-70967097D01*
X74688599Y-71020557D01*
X74620557Y-71088599D01*
X74567097Y-71168608D01*
X74530272Y-71257510D01*
X74511500Y-71351887D01*
X50388500Y-71351887D01*
X50388500Y-59985837D01*
X51711500Y-59985837D01*
X51711501Y-70014164D01*
X51712701Y-70026352D01*
X51712693Y-70027543D01*
X51713086Y-70031552D01*
X51715110Y-70050814D01*
X51715676Y-70056556D01*
X51715734Y-70056748D01*
X51717166Y-70070371D01*
X51722424Y-70095986D01*
X51727323Y-70121669D01*
X51728487Y-70125521D01*
X51728488Y-70125527D01*
X51728490Y-70125533D01*
X51740030Y-70162813D01*
X51750161Y-70186914D01*
X51759959Y-70211164D01*
X51761842Y-70214706D01*
X51761848Y-70214719D01*
X51761855Y-70214730D01*
X51780415Y-70249056D01*
X51795050Y-70270754D01*
X51809354Y-70292612D01*
X51811896Y-70295729D01*
X51811900Y-70295735D01*
X51811905Y-70295740D01*
X51836781Y-70325810D01*
X51855305Y-70344205D01*
X51873628Y-70362916D01*
X51876732Y-70365483D01*
X51906980Y-70390153D01*
X51928763Y-70404626D01*
X51950341Y-70419400D01*
X51953884Y-70421316D01*
X51988349Y-70439640D01*
X52012516Y-70449601D01*
X52036551Y-70459902D01*
X52040396Y-70461092D01*
X52040406Y-70461096D01*
X52040415Y-70461098D01*
X52077766Y-70472375D01*
X52103375Y-70477446D01*
X52128993Y-70482891D01*
X52132999Y-70483312D01*
X52169324Y-70486874D01*
X52185836Y-70488500D01*
X60014164Y-70488500D01*
X60026361Y-70487299D01*
X60027543Y-70487307D01*
X60031552Y-70486914D01*
X60050663Y-70484905D01*
X60056556Y-70484325D01*
X60056753Y-70484265D01*
X60070371Y-70482834D01*
X60095986Y-70477576D01*
X60121669Y-70472677D01*
X60125521Y-70471513D01*
X60125527Y-70471512D01*
X60125533Y-70471510D01*
X60162813Y-70459970D01*
X60186953Y-70449823D01*
X60211164Y-70440041D01*
X60214706Y-70438158D01*
X60214719Y-70438152D01*
X60214730Y-70438145D01*
X60249056Y-70419585D01*
X60270754Y-70404950D01*
X60292612Y-70390646D01*
X60295729Y-70388104D01*
X60295735Y-70388100D01*
X60295740Y-70388095D01*
X60325810Y-70363219D01*
X60344205Y-70344695D01*
X60362916Y-70326372D01*
X60365483Y-70323268D01*
X60365487Y-70323264D01*
X60390153Y-70293020D01*
X60404626Y-70271237D01*
X60419400Y-70249659D01*
X60421316Y-70246116D01*
X60439640Y-70211651D01*
X60449601Y-70187484D01*
X60459902Y-70163449D01*
X60461093Y-70159601D01*
X60461094Y-70159598D01*
X60461096Y-70159594D01*
X60461098Y-70159585D01*
X60472375Y-70122234D01*
X60477446Y-70096625D01*
X60482891Y-70071007D01*
X60483312Y-70067001D01*
X60486903Y-70030381D01*
X60488500Y-70014164D01*
X60488500Y-69801887D01*
X71111500Y-69801887D01*
X71111500Y-69898113D01*
X71130272Y-69992490D01*
X71167097Y-70081392D01*
X71220557Y-70161401D01*
X71288599Y-70229443D01*
X71368608Y-70282903D01*
X71457510Y-70319728D01*
X71551887Y-70338500D01*
X71552746Y-70338500D01*
X71552746Y-70374766D01*
X71571518Y-70469143D01*
X71608343Y-70558045D01*
X71661803Y-70638054D01*
X71729845Y-70706096D01*
X71809854Y-70759556D01*
X71898756Y-70796381D01*
X71993133Y-70815153D01*
X72089359Y-70815153D01*
X72183736Y-70796381D01*
X72272638Y-70759556D01*
X72352647Y-70706096D01*
X72420689Y-70638054D01*
X72474149Y-70558045D01*
X72510974Y-70469143D01*
X72523356Y-70406889D01*
X72911500Y-70406889D01*
X72911500Y-70503115D01*
X72930272Y-70597492D01*
X72967097Y-70686394D01*
X73020557Y-70766403D01*
X73088599Y-70834445D01*
X73168608Y-70887905D01*
X73257510Y-70924730D01*
X73351887Y-70943502D01*
X73448113Y-70943502D01*
X73542490Y-70924730D01*
X73631392Y-70887905D01*
X73711401Y-70834445D01*
X73779443Y-70766403D01*
X73832903Y-70686394D01*
X73869728Y-70597492D01*
X73888500Y-70503115D01*
X73888500Y-70406889D01*
X75311500Y-70406889D01*
X75311500Y-70503115D01*
X75330272Y-70597492D01*
X75367097Y-70686394D01*
X75420557Y-70766403D01*
X75488599Y-70834445D01*
X75568608Y-70887905D01*
X75657510Y-70924730D01*
X75751887Y-70943502D01*
X75848113Y-70943502D01*
X75942490Y-70924730D01*
X76031392Y-70887905D01*
X76111401Y-70834445D01*
X76179443Y-70766403D01*
X76200000Y-70735637D01*
X76220557Y-70766403D01*
X76288599Y-70834445D01*
X76368608Y-70887905D01*
X76457510Y-70924730D01*
X76551887Y-70943502D01*
X76648113Y-70943502D01*
X76742490Y-70924730D01*
X76831392Y-70887905D01*
X76911401Y-70834445D01*
X76979443Y-70766403D01*
X77032903Y-70686394D01*
X77069728Y-70597492D01*
X77088500Y-70503115D01*
X77088500Y-70406889D01*
X77069728Y-70312512D01*
X77032903Y-70223610D01*
X76979443Y-70143601D01*
X76911401Y-70075559D01*
X76831392Y-70022099D01*
X76742490Y-69985274D01*
X76648113Y-69966502D01*
X76551887Y-69966502D01*
X76457510Y-69985274D01*
X76368608Y-70022099D01*
X76288599Y-70075559D01*
X76220557Y-70143601D01*
X76200000Y-70174367D01*
X76179443Y-70143601D01*
X76111401Y-70075559D01*
X76031392Y-70022099D01*
X75942490Y-69985274D01*
X75848113Y-69966502D01*
X75751887Y-69966502D01*
X75657510Y-69985274D01*
X75568608Y-70022099D01*
X75488599Y-70075559D01*
X75420557Y-70143601D01*
X75367097Y-70223610D01*
X75330272Y-70312512D01*
X75311500Y-70406889D01*
X73888500Y-70406889D01*
X73869728Y-70312512D01*
X73832903Y-70223610D01*
X73779443Y-70143601D01*
X73711401Y-70075559D01*
X73631392Y-70022099D01*
X73542490Y-69985274D01*
X73448113Y-69966502D01*
X73351887Y-69966502D01*
X73257510Y-69985274D01*
X73168608Y-70022099D01*
X73088599Y-70075559D01*
X73020557Y-70143601D01*
X72967097Y-70223610D01*
X72930272Y-70312512D01*
X72911500Y-70406889D01*
X72523356Y-70406889D01*
X72529746Y-70374766D01*
X72529746Y-70278540D01*
X72510974Y-70184163D01*
X72474149Y-70095261D01*
X72420689Y-70015252D01*
X72352647Y-69947210D01*
X72272638Y-69893750D01*
X72183736Y-69856925D01*
X72089359Y-69838153D01*
X72088500Y-69838153D01*
X72088500Y-69801887D01*
X72069728Y-69707510D01*
X72032903Y-69618608D01*
X71979443Y-69538599D01*
X71911401Y-69470557D01*
X71831392Y-69417097D01*
X71742490Y-69380272D01*
X71648113Y-69361500D01*
X71551887Y-69361500D01*
X71457510Y-69380272D01*
X71368608Y-69417097D01*
X71288599Y-69470557D01*
X71220557Y-69538599D01*
X71167097Y-69618608D01*
X71130272Y-69707510D01*
X71111500Y-69801887D01*
X60488500Y-69801887D01*
X60488500Y-60485837D01*
X95711500Y-60485837D01*
X95711501Y-69714164D01*
X95712700Y-69726342D01*
X95712692Y-69727543D01*
X95713085Y-69731551D01*
X95715125Y-69750965D01*
X95715676Y-69756556D01*
X95715733Y-69756742D01*
X95717165Y-69770372D01*
X95722427Y-69796007D01*
X95727322Y-69821668D01*
X95728484Y-69825518D01*
X95728486Y-69825527D01*
X95728490Y-69825535D01*
X95740028Y-69862812D01*
X95750160Y-69886917D01*
X95759961Y-69911172D01*
X95761843Y-69914712D01*
X95761846Y-69914718D01*
X95761852Y-69914728D01*
X95780418Y-69949063D01*
X95795027Y-69970721D01*
X95809350Y-69992610D01*
X95811896Y-69995731D01*
X95811899Y-69995735D01*
X95811904Y-69995742D01*
X95811910Y-69995748D01*
X95836776Y-70025807D01*
X95855322Y-70044225D01*
X95873631Y-70062921D01*
X95876723Y-70065478D01*
X95876728Y-70065483D01*
X95876733Y-70065486D01*
X95876735Y-70065488D01*
X95906983Y-70090158D01*
X95928761Y-70104627D01*
X95950338Y-70119401D01*
X95953882Y-70121317D01*
X95988347Y-70139642D01*
X96012532Y-70149610D01*
X96036552Y-70159905D01*
X96040397Y-70161095D01*
X96040404Y-70161098D01*
X96040412Y-70161100D01*
X96077767Y-70172378D01*
X96103391Y-70177452D01*
X96128995Y-70182894D01*
X96132999Y-70183315D01*
X96133001Y-70183315D01*
X96171848Y-70187124D01*
X96171856Y-70187124D01*
X96185838Y-70188501D01*
X98814164Y-70188499D01*
X98826352Y-70187299D01*
X98827543Y-70187307D01*
X98831552Y-70186914D01*
X98850814Y-70184890D01*
X98856556Y-70184324D01*
X98856748Y-70184266D01*
X98870371Y-70182834D01*
X98895981Y-70177577D01*
X98921667Y-70172677D01*
X98925523Y-70171513D01*
X98925525Y-70171512D01*
X98925527Y-70171512D01*
X98925529Y-70171511D01*
X98962811Y-70159971D01*
X98986938Y-70149829D01*
X99011165Y-70140041D01*
X99014709Y-70138156D01*
X99014717Y-70138153D01*
X99014723Y-70138149D01*
X99049057Y-70119585D01*
X99070725Y-70104970D01*
X99092609Y-70090650D01*
X99095730Y-70088104D01*
X99095736Y-70088100D01*
X99095741Y-70088095D01*
X99125806Y-70063224D01*
X99144203Y-70044699D01*
X99162917Y-70026373D01*
X99165484Y-70023269D01*
X99190154Y-69993021D01*
X99204626Y-69971240D01*
X99219398Y-69949666D01*
X99221314Y-69946123D01*
X99239639Y-69911658D01*
X99249606Y-69887477D01*
X99259904Y-69863450D01*
X99261092Y-69859612D01*
X99261096Y-69859602D01*
X99261098Y-69859592D01*
X99272377Y-69822235D01*
X99277451Y-69796611D01*
X99282893Y-69771007D01*
X99283314Y-69767001D01*
X99287123Y-69728154D01*
X99287123Y-69728146D01*
X99288500Y-69714164D01*
X99288500Y-60485836D01*
X99287300Y-60473648D01*
X99287308Y-60472458D01*
X99286915Y-60468449D01*
X99284891Y-60449194D01*
X99284325Y-60443444D01*
X99284267Y-60443252D01*
X99282835Y-60429629D01*
X99277572Y-60403988D01*
X99272678Y-60378331D01*
X99271517Y-60374486D01*
X99271514Y-60374473D01*
X99271509Y-60374461D01*
X99259971Y-60337187D01*
X99249839Y-60313083D01*
X99240044Y-60288839D01*
X99238157Y-60285290D01*
X99238153Y-60285280D01*
X99238148Y-60285272D01*
X99219588Y-60250946D01*
X99204966Y-60229267D01*
X99190644Y-60207382D01*
X99188107Y-60204273D01*
X99188103Y-60204266D01*
X99188098Y-60204261D01*
X99163217Y-60174186D01*
X99144690Y-60155788D01*
X99126369Y-60137080D01*
X99123265Y-60134512D01*
X99093016Y-60109843D01*
X99071259Y-60095388D01*
X99049665Y-60080602D01*
X99046122Y-60078686D01*
X99011658Y-60060361D01*
X98987463Y-60050388D01*
X98963449Y-60040096D01*
X98959611Y-60038908D01*
X98959601Y-60038904D01*
X98959591Y-60038902D01*
X98922234Y-60027623D01*
X98896610Y-60022549D01*
X98871006Y-60017107D01*
X98867002Y-60016686D01*
X98867000Y-60016686D01*
X98828153Y-60012877D01*
X98828146Y-60012877D01*
X98814164Y-60011500D01*
X96185836Y-60011500D01*
X96173639Y-60012701D01*
X96172457Y-60012693D01*
X96168448Y-60013086D01*
X96149337Y-60015095D01*
X96143444Y-60015675D01*
X96143247Y-60015735D01*
X96129629Y-60017166D01*
X96103993Y-60022428D01*
X96078333Y-60027323D01*
X96074477Y-60028487D01*
X96074475Y-60028488D01*
X96074473Y-60028488D01*
X96074471Y-60028489D01*
X96037189Y-60040029D01*
X96013111Y-60050150D01*
X95988835Y-60059958D01*
X95985295Y-60061842D01*
X95985282Y-60061847D01*
X95985272Y-60061854D01*
X95950944Y-60080415D01*
X95929267Y-60095036D01*
X95907383Y-60109357D01*
X95904274Y-60111893D01*
X95904264Y-60111900D01*
X95904257Y-60111908D01*
X95874187Y-60136784D01*
X95855794Y-60155306D01*
X95837084Y-60173628D01*
X95834517Y-60176732D01*
X95834512Y-60176737D01*
X95834508Y-60176743D01*
X95809847Y-60206980D01*
X95795385Y-60228747D01*
X95780603Y-60250335D01*
X95778687Y-60253878D01*
X95760362Y-60288342D01*
X95750389Y-60312537D01*
X95740097Y-60336551D01*
X95738909Y-60340389D01*
X95738905Y-60340399D01*
X95738903Y-60340409D01*
X95727624Y-60377766D01*
X95722550Y-60403390D01*
X95717108Y-60428994D01*
X95716687Y-60433000D01*
X95712997Y-60470634D01*
X95711500Y-60485837D01*
X60488500Y-60485837D01*
X60488500Y-59985836D01*
X60487299Y-59973639D01*
X60487307Y-59972457D01*
X60486914Y-59968448D01*
X60484905Y-59949337D01*
X60484325Y-59943444D01*
X60484265Y-59943247D01*
X60482834Y-59929629D01*
X60477574Y-59904007D01*
X60472677Y-59878332D01*
X60471512Y-59874475D01*
X60471512Y-59874473D01*
X60471510Y-59874467D01*
X60459970Y-59837188D01*
X60449854Y-59813122D01*
X60440042Y-59788836D01*
X60438158Y-59785294D01*
X60438152Y-59785281D01*
X60438145Y-59785270D01*
X60419585Y-59750945D01*
X60404967Y-59729272D01*
X60390646Y-59707388D01*
X60388108Y-59704277D01*
X60388100Y-59704265D01*
X60388091Y-59704256D01*
X60363219Y-59674190D01*
X60344678Y-59655778D01*
X60326372Y-59637084D01*
X60323274Y-59634522D01*
X60323267Y-59634515D01*
X60323259Y-59634510D01*
X60293020Y-59609847D01*
X60271255Y-59595386D01*
X60249660Y-59580600D01*
X60246116Y-59578684D01*
X60211652Y-59560360D01*
X60187470Y-59550393D01*
X60163449Y-59540098D01*
X60159601Y-59538907D01*
X60159602Y-59538907D01*
X60159594Y-59538904D01*
X60159585Y-59538902D01*
X60122234Y-59527625D01*
X60096617Y-59522552D01*
X60071006Y-59517109D01*
X60067002Y-59516688D01*
X60067000Y-59516688D01*
X60030691Y-59513128D01*
X60014164Y-59511500D01*
X52185836Y-59511500D01*
X52173639Y-59512701D01*
X52172457Y-59512693D01*
X52168448Y-59513086D01*
X52149337Y-59515095D01*
X52143444Y-59515675D01*
X52143247Y-59515735D01*
X52129629Y-59517166D01*
X52103993Y-59522428D01*
X52078333Y-59527323D01*
X52074477Y-59528487D01*
X52074475Y-59528488D01*
X52074473Y-59528488D01*
X52074471Y-59528489D01*
X52037189Y-59540029D01*
X52013111Y-59550150D01*
X51988835Y-59559958D01*
X51985295Y-59561842D01*
X51985282Y-59561847D01*
X51985272Y-59561854D01*
X51950944Y-59580415D01*
X51929267Y-59595036D01*
X51907383Y-59609357D01*
X51904274Y-59611893D01*
X51904264Y-59611900D01*
X51904257Y-59611908D01*
X51874187Y-59636784D01*
X51855794Y-59655306D01*
X51837084Y-59673628D01*
X51834517Y-59676732D01*
X51834512Y-59676737D01*
X51834508Y-59676743D01*
X51809847Y-59706980D01*
X51795385Y-59728747D01*
X51780603Y-59750335D01*
X51778687Y-59753878D01*
X51760362Y-59788342D01*
X51750389Y-59812537D01*
X51740097Y-59836551D01*
X51738909Y-59840389D01*
X51738905Y-59840399D01*
X51738903Y-59840409D01*
X51727624Y-59877766D01*
X51722550Y-59903390D01*
X51717108Y-59928994D01*
X51716687Y-59933000D01*
X51712920Y-59971416D01*
X51711500Y-59985837D01*
X50388500Y-59985837D01*
X50388500Y-57497677D01*
X52978206Y-57497677D01*
X53354890Y-57836787D01*
X53939930Y-58103224D01*
X54565708Y-58250406D01*
X55208175Y-58272677D01*
X55842642Y-58169180D01*
X56444727Y-57943894D01*
X56645110Y-57836787D01*
X57021794Y-57497677D01*
X92978206Y-57497677D01*
X93354890Y-57836787D01*
X93939930Y-58103224D01*
X94565708Y-58250406D01*
X95208175Y-58272677D01*
X95842642Y-58169180D01*
X96444727Y-57943894D01*
X96645110Y-57836787D01*
X97021794Y-57497677D01*
X96705022Y-57180905D01*
X96705022Y-57180904D01*
X96590990Y-57066873D01*
X96110546Y-56586429D01*
X96001076Y-56476958D01*
X96001075Y-56476958D01*
X95000000Y-55475883D01*
X93998925Y-56476958D01*
X93998924Y-56476958D01*
X93889454Y-56586429D01*
X93409010Y-57066873D01*
X93294978Y-57180904D01*
X93294978Y-57180905D01*
X92978206Y-57497677D01*
X57021794Y-57497677D01*
X56705022Y-57180905D01*
X56705022Y-57180904D01*
X56590990Y-57066873D01*
X56110546Y-56586429D01*
X56001076Y-56476958D01*
X56001075Y-56476958D01*
X55000000Y-55475883D01*
X53998925Y-56476958D01*
X53998924Y-56476958D01*
X53889454Y-56586429D01*
X53409010Y-57066873D01*
X53294978Y-57180904D01*
X53294978Y-57180905D01*
X52978206Y-57497677D01*
X50388500Y-57497677D01*
X50388500Y-55208175D01*
X51727323Y-55208175D01*
X51830820Y-55842642D01*
X52056106Y-56444727D01*
X52163213Y-56645110D01*
X52502323Y-57021794D01*
X52819095Y-56705022D01*
X52819096Y-56705022D01*
X52933127Y-56590990D01*
X53409010Y-56115107D01*
X53523042Y-56001076D01*
X53523042Y-56001075D01*
X54524117Y-55000000D01*
X55475883Y-55000000D01*
X56476958Y-56001075D01*
X56476958Y-56001076D01*
X56590990Y-56115107D01*
X57066873Y-56590990D01*
X57180904Y-56705022D01*
X57180905Y-56705022D01*
X57497677Y-57021794D01*
X57836787Y-56645110D01*
X58103224Y-56060070D01*
X58250406Y-55434292D01*
X58258244Y-55208175D01*
X91727323Y-55208175D01*
X91830820Y-55842642D01*
X92056106Y-56444727D01*
X92163213Y-56645110D01*
X92502323Y-57021794D01*
X92819095Y-56705022D01*
X92819096Y-56705022D01*
X92933127Y-56590990D01*
X93409010Y-56115107D01*
X93523042Y-56001076D01*
X93523042Y-56001075D01*
X94524117Y-55000000D01*
X95475883Y-55000000D01*
X96476958Y-56001075D01*
X96476958Y-56001076D01*
X96590990Y-56115107D01*
X97066873Y-56590990D01*
X97180904Y-56705022D01*
X97180905Y-56705022D01*
X97497677Y-57021794D01*
X97836787Y-56645110D01*
X98103224Y-56060070D01*
X98250406Y-55434292D01*
X98272677Y-54791825D01*
X98169180Y-54157358D01*
X97943894Y-53555273D01*
X97836787Y-53354890D01*
X97497677Y-52978206D01*
X97180905Y-53294978D01*
X97180904Y-53294978D01*
X97123614Y-53352269D01*
X96590990Y-53884893D01*
X96476958Y-53998924D01*
X96476958Y-53998925D01*
X95475883Y-55000000D01*
X94524117Y-55000000D01*
X93523042Y-53998925D01*
X93523042Y-53998924D01*
X93409010Y-53884893D01*
X92876386Y-53352269D01*
X92819096Y-53294978D01*
X92819095Y-53294978D01*
X92502323Y-52978206D01*
X92163213Y-53354890D01*
X91896776Y-53939930D01*
X91749594Y-54565708D01*
X91727323Y-55208175D01*
X58258244Y-55208175D01*
X58272677Y-54791825D01*
X58169180Y-54157358D01*
X57943894Y-53555273D01*
X57836787Y-53354890D01*
X57497677Y-52978206D01*
X57180905Y-53294978D01*
X57180904Y-53294978D01*
X57123614Y-53352269D01*
X56590990Y-53884893D01*
X56476958Y-53998924D01*
X56476958Y-53998925D01*
X55475883Y-55000000D01*
X54524117Y-55000000D01*
X53523042Y-53998925D01*
X53523042Y-53998924D01*
X53409010Y-53884893D01*
X52876386Y-53352269D01*
X52819096Y-53294978D01*
X52819095Y-53294978D01*
X52502323Y-52978206D01*
X52163213Y-53354890D01*
X51896776Y-53939930D01*
X51749594Y-54565708D01*
X51727323Y-55208175D01*
X50388500Y-55208175D01*
X50388500Y-55012850D01*
X50462511Y-54183577D01*
X50678799Y-53392959D01*
X51031676Y-52653138D01*
X51140047Y-52502323D01*
X52978206Y-52502323D01*
X53294978Y-52819095D01*
X53294978Y-52819096D01*
X53409010Y-52933127D01*
X53884893Y-53409010D01*
X53998924Y-53523042D01*
X53998925Y-53523042D01*
X55000000Y-54524117D01*
X56001075Y-53523042D01*
X56001076Y-53523042D01*
X56115107Y-53409010D01*
X56590990Y-52933127D01*
X56705022Y-52819096D01*
X56705022Y-52819095D01*
X57021794Y-52502323D01*
X92978206Y-52502323D01*
X93294978Y-52819095D01*
X93294978Y-52819096D01*
X93409010Y-52933127D01*
X93884893Y-53409010D01*
X93998924Y-53523042D01*
X93998925Y-53523042D01*
X95000000Y-54524117D01*
X96001075Y-53523042D01*
X96001076Y-53523042D01*
X96115107Y-53409010D01*
X96590990Y-52933127D01*
X96705022Y-52819096D01*
X96705022Y-52819095D01*
X97021794Y-52502323D01*
X96645110Y-52163213D01*
X96060070Y-51896776D01*
X95434292Y-51749594D01*
X94791825Y-51727323D01*
X94157358Y-51830820D01*
X93555273Y-52056106D01*
X93354890Y-52163213D01*
X92978206Y-52502323D01*
X57021794Y-52502323D01*
X56645110Y-52163213D01*
X56060070Y-51896776D01*
X55434292Y-51749594D01*
X54791825Y-51727323D01*
X54157358Y-51830820D01*
X53555273Y-52056106D01*
X53354890Y-52163213D01*
X52978206Y-52502323D01*
X51140047Y-52502323D01*
X51509984Y-51987502D01*
X52098614Y-51417081D01*
X52778944Y-50959917D01*
X53529485Y-50630453D01*
X54328728Y-50438572D01*
X55010577Y-50388500D01*
X94987150Y-50388500D01*
X95816423Y-50462511D01*
G37*
X95816423Y-50462511D02*
X96607041Y-50678799D01*
X97346862Y-51031676D01*
X98012498Y-51509984D01*
X98582919Y-52098614D01*
X99040083Y-52778944D01*
X99369547Y-53529485D01*
X99561428Y-54328728D01*
X99611500Y-55010577D01*
X99611501Y-94987139D01*
X99537489Y-95816423D01*
X99321201Y-96607041D01*
X98968325Y-97346860D01*
X98490014Y-98012501D01*
X97901386Y-98582919D01*
X97221055Y-99040083D01*
X96470515Y-99369547D01*
X95671272Y-99561428D01*
X94989424Y-99611500D01*
X55012850Y-99611500D01*
X54183577Y-99537489D01*
X53392959Y-99321201D01*
X52653140Y-98968325D01*
X51987499Y-98490014D01*
X51417081Y-97901386D01*
X51145800Y-97497677D01*
X52978206Y-97497677D01*
X53354890Y-97836787D01*
X53939930Y-98103224D01*
X54565708Y-98250406D01*
X55208175Y-98272677D01*
X55842642Y-98169180D01*
X56444727Y-97943894D01*
X56645110Y-97836787D01*
X57021794Y-97497677D01*
X92978206Y-97497677D01*
X93354890Y-97836787D01*
X93939930Y-98103224D01*
X94565708Y-98250406D01*
X95208175Y-98272677D01*
X95842642Y-98169180D01*
X96444727Y-97943894D01*
X96645110Y-97836787D01*
X97021794Y-97497677D01*
X96705022Y-97180905D01*
X96705022Y-97180904D01*
X96590990Y-97066873D01*
X96063769Y-96539652D01*
X96001076Y-96476958D01*
X96001075Y-96476958D01*
X95000000Y-95475883D01*
X93998925Y-96476958D01*
X93998924Y-96476958D01*
X93936231Y-96539652D01*
X93409010Y-97066873D01*
X93294978Y-97180904D01*
X93294978Y-97180905D01*
X92978206Y-97497677D01*
X57021794Y-97497677D01*
X56705022Y-97180905D01*
X56705022Y-97180904D01*
X56590990Y-97066873D01*
X56063769Y-96539652D01*
X56001076Y-96476958D01*
X56001075Y-96476958D01*
X55000000Y-95475883D01*
X53998925Y-96476958D01*
X53998924Y-96476958D01*
X53936231Y-96539652D01*
X53409010Y-97066873D01*
X53294978Y-97180904D01*
X53294978Y-97180905D01*
X52978206Y-97497677D01*
X51145800Y-97497677D01*
X50959917Y-97221055D01*
X50630453Y-96470515D01*
X50438572Y-95671272D01*
X50404565Y-95208175D01*
X51727323Y-95208175D01*
X51830820Y-95842642D01*
X52056106Y-96444727D01*
X52163213Y-96645110D01*
X52502323Y-97021794D01*
X52819095Y-96705022D01*
X52819096Y-96705022D01*
X52933127Y-96590990D01*
X53409010Y-96115107D01*
X53523042Y-96001076D01*
X53523042Y-96001075D01*
X54524117Y-95000000D01*
X55475883Y-95000000D01*
X56476958Y-96001075D01*
X56476958Y-96001076D01*
X56590990Y-96115107D01*
X57066873Y-96590990D01*
X57180904Y-96705022D01*
X57180905Y-96705022D01*
X57497677Y-97021794D01*
X57836787Y-96645110D01*
X58103224Y-96060070D01*
X58250406Y-95434292D01*
X58258244Y-95208175D01*
X91727323Y-95208175D01*
X91830820Y-95842642D01*
X92056106Y-96444727D01*
X92163213Y-96645110D01*
X92502323Y-97021794D01*
X92819095Y-96705022D01*
X92819096Y-96705022D01*
X92933127Y-96590990D01*
X93409010Y-96115107D01*
X93523042Y-96001076D01*
X93523042Y-96001075D01*
X94524117Y-95000000D01*
X95475883Y-95000000D01*
X96476958Y-96001075D01*
X96476958Y-96001076D01*
X96590990Y-96115107D01*
X97066873Y-96590990D01*
X97180904Y-96705022D01*
X97180905Y-96705022D01*
X97497677Y-97021794D01*
X97836787Y-96645110D01*
X98103224Y-96060070D01*
X98250406Y-95434292D01*
X98272677Y-94791825D01*
X98169180Y-94157358D01*
X97943894Y-93555273D01*
X97836787Y-93354890D01*
X97497677Y-92978206D01*
X97180905Y-93294978D01*
X97180904Y-93294978D01*
X97120993Y-93354890D01*
X96590990Y-93884893D01*
X96476958Y-93998924D01*
X96476958Y-93998925D01*
X95475883Y-95000000D01*
X94524117Y-95000000D01*
X93523042Y-93998925D01*
X93523042Y-93998924D01*
X93409010Y-93884893D01*
X92879007Y-93354890D01*
X92819096Y-93294978D01*
X92819095Y-93294978D01*
X92502323Y-92978206D01*
X92163213Y-93354890D01*
X91896776Y-93939930D01*
X91749594Y-94565708D01*
X91727323Y-95208175D01*
X58258244Y-95208175D01*
X58272677Y-94791825D01*
X58169180Y-94157358D01*
X57943894Y-93555273D01*
X57836787Y-93354890D01*
X57497677Y-92978206D01*
X57180905Y-93294978D01*
X57180904Y-93294978D01*
X57120993Y-93354890D01*
X56590990Y-93884893D01*
X56476958Y-93998924D01*
X56476958Y-93998925D01*
X55475883Y-95000000D01*
X54524117Y-95000000D01*
X53523042Y-93998925D01*
X53523042Y-93998924D01*
X53409010Y-93884893D01*
X52879007Y-93354890D01*
X52819096Y-93294978D01*
X52819095Y-93294978D01*
X52502323Y-92978206D01*
X52163213Y-93354890D01*
X51896776Y-93939930D01*
X51749594Y-94565708D01*
X51727323Y-95208175D01*
X50404565Y-95208175D01*
X50388500Y-94989424D01*
X50388500Y-92502323D01*
X52978206Y-92502323D01*
X53294978Y-92819095D01*
X53294978Y-92819096D01*
X53409010Y-92933127D01*
X53884893Y-93409010D01*
X53998924Y-93523042D01*
X53998925Y-93523042D01*
X55000000Y-94524117D01*
X56001075Y-93523042D01*
X56001076Y-93523042D01*
X56115107Y-93409010D01*
X56590990Y-92933127D01*
X56705022Y-92819096D01*
X56705022Y-92819095D01*
X57021794Y-92502323D01*
X92978206Y-92502323D01*
X93294978Y-92819095D01*
X93294978Y-92819096D01*
X93409010Y-92933127D01*
X93884893Y-93409010D01*
X93998924Y-93523042D01*
X93998925Y-93523042D01*
X95000000Y-94524117D01*
X96001075Y-93523042D01*
X96001076Y-93523042D01*
X96115107Y-93409010D01*
X96590990Y-92933127D01*
X96705022Y-92819096D01*
X96705022Y-92819095D01*
X97021794Y-92502323D01*
X96645110Y-92163213D01*
X96060070Y-91896776D01*
X95434292Y-91749594D01*
X94791825Y-91727323D01*
X94157358Y-91830820D01*
X93555273Y-92056106D01*
X93354890Y-92163213D01*
X92978206Y-92502323D01*
X57021794Y-92502323D01*
X56645110Y-92163213D01*
X56060070Y-91896776D01*
X55434292Y-91749594D01*
X54791825Y-91727323D01*
X54157358Y-91830820D01*
X53555273Y-92056106D01*
X53354890Y-92163213D01*
X52978206Y-92502323D01*
X50388500Y-92502323D01*
X50388500Y-76424016D01*
X71759864Y-76424016D01*
X71761500Y-76440628D01*
X71761501Y-78358378D01*
X71759864Y-78375000D01*
X71766399Y-78441357D01*
X71785754Y-78505164D01*
X71785755Y-78505165D01*
X71817187Y-78563970D01*
X71859488Y-78615513D01*
X71872397Y-78626107D01*
X72198891Y-78952602D01*
X72209487Y-78965513D01*
X72261030Y-79007814D01*
X72319835Y-79039246D01*
X72383642Y-79058601D01*
X72389391Y-79059167D01*
X72433380Y-79063500D01*
X72433388Y-79063500D01*
X72450000Y-79065136D01*
X72466612Y-79063500D01*
X72497656Y-79063500D01*
X72538599Y-79104443D01*
X72618608Y-79157903D01*
X72707510Y-79194728D01*
X72801887Y-79213500D01*
X72898113Y-79213500D01*
X72992490Y-79194728D01*
X73081392Y-79157903D01*
X73161401Y-79104443D01*
X73229443Y-79036401D01*
X73282903Y-78956392D01*
X73319728Y-78867490D01*
X73338500Y-78773113D01*
X73338500Y-78676887D01*
X73319728Y-78582510D01*
X73282903Y-78493608D01*
X73229443Y-78413599D01*
X73161401Y-78345557D01*
X73081392Y-78292097D01*
X72992490Y-78255272D01*
X72898113Y-78236500D01*
X72801887Y-78236500D01*
X72707510Y-78255272D01*
X72618608Y-78292097D01*
X72544994Y-78341284D01*
X72438500Y-78234790D01*
X72438500Y-77284408D01*
X72441399Y-77313845D01*
X72460754Y-77377652D01*
X72491133Y-77434487D01*
X72492187Y-77436458D01*
X72534488Y-77488001D01*
X72547399Y-77498597D01*
X72951403Y-77902602D01*
X72961999Y-77915513D01*
X73013542Y-77957814D01*
X73072347Y-77989246D01*
X73107800Y-78000000D01*
X73136154Y-78008601D01*
X73142448Y-78009221D01*
X73185892Y-78013500D01*
X73185899Y-78013500D01*
X73202511Y-78015136D01*
X73219123Y-78013500D01*
X73344135Y-78013500D01*
X73336500Y-78051887D01*
X73336500Y-78148113D01*
X73355272Y-78242490D01*
X73392097Y-78331392D01*
X73445557Y-78411401D01*
X73513599Y-78479443D01*
X73593608Y-78532903D01*
X73682510Y-78569728D01*
X73776887Y-78588500D01*
X73873113Y-78588500D01*
X73967490Y-78569728D01*
X74019488Y-78548189D01*
X74005272Y-78582510D01*
X73986500Y-78676887D01*
X73986500Y-78773113D01*
X74005272Y-78867490D01*
X74042097Y-78956392D01*
X74095557Y-79036401D01*
X74163599Y-79104443D01*
X74243608Y-79157903D01*
X74332510Y-79194728D01*
X74426887Y-79213500D01*
X74523113Y-79213500D01*
X74617490Y-79194728D01*
X74706392Y-79157903D01*
X74786401Y-79104443D01*
X74854443Y-79036401D01*
X74907903Y-78956392D01*
X74944728Y-78867490D01*
X74963500Y-78773113D01*
X74963500Y-78676887D01*
X74944728Y-78582510D01*
X74907903Y-78493608D01*
X74854443Y-78413599D01*
X74786401Y-78345557D01*
X74706392Y-78292097D01*
X74617490Y-78255272D01*
X74523113Y-78236500D01*
X74426887Y-78236500D01*
X74332510Y-78255272D01*
X74280512Y-78276811D01*
X74294728Y-78242490D01*
X74313500Y-78148113D01*
X74313500Y-78051887D01*
X74305865Y-78013500D01*
X75354081Y-78013500D01*
X75336500Y-78101887D01*
X75336500Y-78198113D01*
X75355272Y-78292490D01*
X75392097Y-78381392D01*
X75445557Y-78461401D01*
X75513599Y-78529443D01*
X75593608Y-78582903D01*
X75682510Y-78619728D01*
X75776887Y-78638500D01*
X75837496Y-78638500D01*
X75861029Y-78657813D01*
X75919834Y-78689245D01*
X75983641Y-78708600D01*
X76049999Y-78715136D01*
X76066619Y-78713499D01*
X77608389Y-78713499D01*
X77625001Y-78715135D01*
X77641613Y-78713499D01*
X77641621Y-78713499D01*
X77691358Y-78708600D01*
X77755166Y-78689245D01*
X77813971Y-78657813D01*
X77865514Y-78615512D01*
X77876114Y-78602596D01*
X78212841Y-78265870D01*
X78282510Y-78294728D01*
X78376887Y-78313500D01*
X78473113Y-78313500D01*
X78567490Y-78294728D01*
X78656392Y-78257903D01*
X78736401Y-78204443D01*
X78804443Y-78136401D01*
X78857903Y-78056392D01*
X78894728Y-77967490D01*
X78913500Y-77873113D01*
X78913500Y-77776887D01*
X78894728Y-77682510D01*
X78857903Y-77593608D01*
X78804443Y-77513599D01*
X78736401Y-77445557D01*
X78656392Y-77392097D01*
X78567490Y-77355272D01*
X78485353Y-77338935D01*
X78488500Y-77323113D01*
X78488500Y-77226887D01*
X78469728Y-77132510D01*
X78432903Y-77043608D01*
X78379443Y-76963599D01*
X78311401Y-76895557D01*
X78231392Y-76842097D01*
X78197953Y-76828246D01*
X78827607Y-76198592D01*
X78840512Y-76188001D01*
X78882814Y-76136458D01*
X78914246Y-76077653D01*
X78924750Y-76043025D01*
X78933601Y-76013846D01*
X78934167Y-76008097D01*
X78938500Y-75964108D01*
X78938500Y-75964100D01*
X78940136Y-75947488D01*
X78938500Y-75930876D01*
X78938500Y-74134737D01*
X89944350Y-74134737D01*
X89944350Y-74230963D01*
X89963122Y-74325340D01*
X89999947Y-74414242D01*
X90053407Y-74494251D01*
X90121449Y-74562293D01*
X90201458Y-74615753D01*
X90290360Y-74652578D01*
X90384737Y-74671350D01*
X90480963Y-74671350D01*
X90575340Y-74652578D01*
X90664242Y-74615753D01*
X90744251Y-74562293D01*
X90812293Y-74494251D01*
X90865753Y-74414242D01*
X90902578Y-74325340D01*
X90921350Y-74230963D01*
X90921350Y-74134737D01*
X90902578Y-74040360D01*
X90865753Y-73951458D01*
X90812293Y-73871449D01*
X90744251Y-73803407D01*
X90664242Y-73749947D01*
X90575340Y-73713122D01*
X90480963Y-73694350D01*
X90384737Y-73694350D01*
X90290360Y-73713122D01*
X90201458Y-73749947D01*
X90121449Y-73803407D01*
X90053407Y-73871449D01*
X89999947Y-73951458D01*
X89963122Y-74040360D01*
X89944350Y-74134737D01*
X78938500Y-74134737D01*
X78938500Y-73037698D01*
X81374307Y-70601891D01*
X92861500Y-70601891D01*
X92861500Y-70698117D01*
X92880272Y-70792494D01*
X92917097Y-70881396D01*
X92970557Y-70961405D01*
X93038599Y-71029447D01*
X93118608Y-71082907D01*
X93207510Y-71119732D01*
X93301887Y-71138504D01*
X93398113Y-71138504D01*
X93492490Y-71119732D01*
X93581392Y-71082907D01*
X93661401Y-71029447D01*
X93729443Y-70961405D01*
X93782903Y-70881396D01*
X93819728Y-70792494D01*
X93838500Y-70698117D01*
X93838500Y-70601891D01*
X93823582Y-70526887D01*
X94211500Y-70526887D01*
X94211500Y-70623113D01*
X94230272Y-70717490D01*
X94267097Y-70806392D01*
X94320557Y-70886401D01*
X94388599Y-70954443D01*
X94468608Y-71007903D01*
X94557510Y-71044728D01*
X94651887Y-71063500D01*
X94748113Y-71063500D01*
X94842490Y-71044728D01*
X94931392Y-71007903D01*
X95011401Y-70954443D01*
X95079443Y-70886401D01*
X95132903Y-70806392D01*
X95169728Y-70717490D01*
X95188500Y-70623113D01*
X95188500Y-70526887D01*
X95169728Y-70432510D01*
X95132903Y-70343608D01*
X95079443Y-70263599D01*
X95011401Y-70195557D01*
X94931392Y-70142097D01*
X94842490Y-70105272D01*
X94748113Y-70086500D01*
X94651887Y-70086500D01*
X94557510Y-70105272D01*
X94468608Y-70142097D01*
X94388599Y-70195557D01*
X94320557Y-70263599D01*
X94267097Y-70343608D01*
X94230272Y-70432510D01*
X94211500Y-70526887D01*
X93823582Y-70526887D01*
X93819728Y-70507514D01*
X93782903Y-70418612D01*
X93729443Y-70338603D01*
X93661401Y-70270561D01*
X93581392Y-70217101D01*
X93492490Y-70180276D01*
X93398113Y-70161504D01*
X93301887Y-70161504D01*
X93207510Y-70180276D01*
X93118608Y-70217101D01*
X93038599Y-70270561D01*
X92970557Y-70338603D01*
X92917097Y-70418612D01*
X92880272Y-70507514D01*
X92861500Y-70601891D01*
X81374307Y-70601891D01*
X81752607Y-70223592D01*
X81765512Y-70213001D01*
X81776183Y-70200000D01*
X81789046Y-70184326D01*
X81807814Y-70161458D01*
X81839246Y-70102653D01*
X81845409Y-70082334D01*
X81858601Y-70038846D01*
X81860135Y-70023269D01*
X81863500Y-69989108D01*
X81863500Y-69989100D01*
X81865136Y-69972488D01*
X81863500Y-69955876D01*
X81863500Y-67151887D01*
X90061500Y-67151887D01*
X90061500Y-67248113D01*
X90080272Y-67342490D01*
X90117097Y-67431392D01*
X90170557Y-67511401D01*
X90238599Y-67579443D01*
X90318608Y-67632903D01*
X90407510Y-67669728D01*
X90501887Y-67688500D01*
X90598113Y-67688500D01*
X90692490Y-67669728D01*
X90781392Y-67632903D01*
X90861401Y-67579443D01*
X90929443Y-67511401D01*
X90969208Y-67451887D01*
X92861502Y-67451887D01*
X92861502Y-67548113D01*
X92880274Y-67642490D01*
X92917099Y-67731392D01*
X92970559Y-67811401D01*
X93038601Y-67879443D01*
X93118610Y-67932903D01*
X93207512Y-67969728D01*
X93301889Y-67988500D01*
X93398115Y-67988500D01*
X93492492Y-67969728D01*
X93581394Y-67932903D01*
X93661403Y-67879443D01*
X93729445Y-67811401D01*
X93782905Y-67731392D01*
X93819730Y-67642490D01*
X93838502Y-67548113D01*
X93838502Y-67451887D01*
X93819730Y-67357510D01*
X93782905Y-67268608D01*
X93729445Y-67188599D01*
X93661403Y-67120557D01*
X93581394Y-67067097D01*
X93492492Y-67030272D01*
X93398115Y-67011500D01*
X93301889Y-67011500D01*
X93207512Y-67030272D01*
X93118610Y-67067097D01*
X93038601Y-67120557D01*
X92970559Y-67188599D01*
X92917099Y-67268608D01*
X92880274Y-67357510D01*
X92861502Y-67451887D01*
X90969208Y-67451887D01*
X90982903Y-67431392D01*
X91019728Y-67342490D01*
X91038500Y-67248113D01*
X91038500Y-67151887D01*
X91019728Y-67057510D01*
X90982903Y-66968608D01*
X90929443Y-66888599D01*
X90861401Y-66820557D01*
X90781392Y-66767097D01*
X90692490Y-66730272D01*
X90598113Y-66711500D01*
X90501887Y-66711500D01*
X90407510Y-66730272D01*
X90318608Y-66767097D01*
X90238599Y-66820557D01*
X90170557Y-66888599D01*
X90117097Y-66968608D01*
X90080272Y-67057510D01*
X90061500Y-67151887D01*
X81863500Y-67151887D01*
X81863500Y-67037698D01*
X82974311Y-65926887D01*
X88711500Y-65926887D01*
X88711500Y-66023113D01*
X88730272Y-66117490D01*
X88767097Y-66206392D01*
X88820557Y-66286401D01*
X88888599Y-66354443D01*
X88968608Y-66407903D01*
X89057510Y-66444728D01*
X89151887Y-66463500D01*
X89248113Y-66463500D01*
X89342490Y-66444728D01*
X89431392Y-66407903D01*
X89511401Y-66354443D01*
X89538957Y-66326887D01*
X92711500Y-66326887D01*
X92711500Y-66423113D01*
X92730272Y-66517490D01*
X92767097Y-66606392D01*
X92820557Y-66686401D01*
X92888599Y-66754443D01*
X92968608Y-66807903D01*
X93057510Y-66844728D01*
X93151887Y-66863500D01*
X93248113Y-66863500D01*
X93306497Y-66851887D01*
X94186500Y-66851887D01*
X94186500Y-66948113D01*
X94205272Y-67042490D01*
X94242097Y-67131392D01*
X94295557Y-67211401D01*
X94363599Y-67279443D01*
X94443608Y-67332903D01*
X94532510Y-67369728D01*
X94626887Y-67388500D01*
X94723113Y-67388500D01*
X94817490Y-67369728D01*
X94906392Y-67332903D01*
X94986401Y-67279443D01*
X95054443Y-67211401D01*
X95107903Y-67131392D01*
X95144728Y-67042490D01*
X95163500Y-66948113D01*
X95163500Y-66851887D01*
X95144728Y-66757510D01*
X95107903Y-66668608D01*
X95054443Y-66588599D01*
X94986401Y-66520557D01*
X94906392Y-66467097D01*
X94817490Y-66430272D01*
X94723113Y-66411500D01*
X94626887Y-66411500D01*
X94532510Y-66430272D01*
X94443608Y-66467097D01*
X94363599Y-66520557D01*
X94295557Y-66588599D01*
X94242097Y-66668608D01*
X94205272Y-66757510D01*
X94186500Y-66851887D01*
X93306497Y-66851887D01*
X93342490Y-66844728D01*
X93431392Y-66807903D01*
X93511401Y-66754443D01*
X93579443Y-66686401D01*
X93632903Y-66606392D01*
X93669728Y-66517490D01*
X93688500Y-66423113D01*
X93688500Y-66326887D01*
X93669728Y-66232510D01*
X93632903Y-66143608D01*
X93618617Y-66122227D01*
X93679443Y-66061401D01*
X93732903Y-65981392D01*
X93769728Y-65892490D01*
X93788500Y-65798113D01*
X93788500Y-65701887D01*
X93769728Y-65607510D01*
X93732903Y-65518608D01*
X93679443Y-65438599D01*
X93611401Y-65370557D01*
X93531392Y-65317097D01*
X93442490Y-65280272D01*
X93348113Y-65261500D01*
X93251887Y-65261500D01*
X93157510Y-65280272D01*
X93068608Y-65317097D01*
X92988599Y-65370557D01*
X92920557Y-65438599D01*
X92867097Y-65518608D01*
X92830272Y-65607510D01*
X92811500Y-65701887D01*
X92811500Y-65798113D01*
X92830272Y-65892490D01*
X92867097Y-65981392D01*
X92881383Y-66002773D01*
X92820557Y-66063599D01*
X92767097Y-66143608D01*
X92730272Y-66232510D01*
X92711500Y-66326887D01*
X89538957Y-66326887D01*
X89579443Y-66286401D01*
X89632903Y-66206392D01*
X89669728Y-66117490D01*
X89688500Y-66023113D01*
X89688500Y-65926887D01*
X89669728Y-65832510D01*
X89632903Y-65743608D01*
X89579443Y-65663599D01*
X89511401Y-65595557D01*
X89431392Y-65542097D01*
X89342490Y-65505272D01*
X89248113Y-65486500D01*
X89151887Y-65486500D01*
X89057510Y-65505272D01*
X88968608Y-65542097D01*
X88888599Y-65595557D01*
X88820557Y-65663599D01*
X88767097Y-65743608D01*
X88730272Y-65832510D01*
X88711500Y-65926887D01*
X82974311Y-65926887D01*
X83949321Y-64951877D01*
X90035366Y-64951877D01*
X90035366Y-65048103D01*
X90054138Y-65142480D01*
X90090963Y-65231382D01*
X90144423Y-65311391D01*
X90212465Y-65379433D01*
X90292474Y-65432893D01*
X90381376Y-65469718D01*
X90475753Y-65488490D01*
X90571979Y-65488490D01*
X90666356Y-65469718D01*
X90755258Y-65432893D01*
X90835267Y-65379433D01*
X90903309Y-65311391D01*
X90956769Y-65231382D01*
X90993594Y-65142480D01*
X91012366Y-65048103D01*
X91012366Y-64951877D01*
X90993594Y-64857500D01*
X90956769Y-64768598D01*
X90903309Y-64688589D01*
X90835267Y-64620547D01*
X90755258Y-64567087D01*
X90666356Y-64530262D01*
X90571979Y-64511490D01*
X90475753Y-64511490D01*
X90381376Y-64530262D01*
X90292474Y-64567087D01*
X90212465Y-64620547D01*
X90144423Y-64688589D01*
X90090963Y-64768598D01*
X90054138Y-64857500D01*
X90035366Y-64951877D01*
X83949321Y-64951877D01*
X84874311Y-64026887D01*
X89536500Y-64026887D01*
X89536500Y-64123113D01*
X89555272Y-64217490D01*
X89592097Y-64306392D01*
X89645557Y-64386401D01*
X89713599Y-64454443D01*
X89793608Y-64507903D01*
X89882510Y-64544728D01*
X89976887Y-64563500D01*
X90073113Y-64563500D01*
X90167490Y-64544728D01*
X90256392Y-64507903D01*
X90336401Y-64454443D01*
X90404443Y-64386401D01*
X90457903Y-64306392D01*
X90494728Y-64217490D01*
X90513500Y-64123113D01*
X90513500Y-64026887D01*
X90494728Y-63932510D01*
X90461333Y-63851887D01*
X92661500Y-63851887D01*
X92661500Y-63948113D01*
X92680272Y-64042490D01*
X92717097Y-64131392D01*
X92770557Y-64211401D01*
X92837899Y-64278743D01*
X92805272Y-64357510D01*
X92786500Y-64451887D01*
X92786500Y-64548113D01*
X92805272Y-64642490D01*
X92842097Y-64731392D01*
X92895557Y-64811401D01*
X92963599Y-64879443D01*
X93043608Y-64932903D01*
X93132510Y-64969728D01*
X93226887Y-64988500D01*
X93323113Y-64988500D01*
X93417490Y-64969728D01*
X93506392Y-64932903D01*
X93586401Y-64879443D01*
X93654443Y-64811401D01*
X93707903Y-64731392D01*
X93744728Y-64642490D01*
X93763500Y-64548113D01*
X93763500Y-64451887D01*
X93744728Y-64357510D01*
X93707903Y-64268608D01*
X93654443Y-64188599D01*
X93587101Y-64121257D01*
X93619728Y-64042490D01*
X93638500Y-63948113D01*
X93638500Y-63851887D01*
X93619728Y-63757510D01*
X93582903Y-63668608D01*
X93529443Y-63588599D01*
X93461401Y-63520557D01*
X93381392Y-63467097D01*
X93292490Y-63430272D01*
X93198113Y-63411500D01*
X93101887Y-63411500D01*
X93007510Y-63430272D01*
X92918608Y-63467097D01*
X92838599Y-63520557D01*
X92770557Y-63588599D01*
X92717097Y-63668608D01*
X92680272Y-63757510D01*
X92661500Y-63851887D01*
X90461333Y-63851887D01*
X90457903Y-63843608D01*
X90404443Y-63763599D01*
X90336401Y-63695557D01*
X90302274Y-63672754D01*
X90317490Y-63669728D01*
X90406392Y-63632903D01*
X90486401Y-63579443D01*
X90554443Y-63511401D01*
X90607903Y-63431392D01*
X90644728Y-63342490D01*
X90663500Y-63248113D01*
X90663500Y-63151887D01*
X90644728Y-63057510D01*
X90607903Y-62968608D01*
X90554443Y-62888599D01*
X90486401Y-62820557D01*
X90406392Y-62767097D01*
X90317490Y-62730272D01*
X90223113Y-62711500D01*
X90126887Y-62711500D01*
X90032510Y-62730272D01*
X89943608Y-62767097D01*
X89863599Y-62820557D01*
X89795557Y-62888599D01*
X89742097Y-62968608D01*
X89705272Y-63057510D01*
X89686500Y-63151887D01*
X89686500Y-63248113D01*
X89705272Y-63342490D01*
X89742097Y-63431392D01*
X89795557Y-63511401D01*
X89863599Y-63579443D01*
X89897726Y-63602246D01*
X89882510Y-63605272D01*
X89793608Y-63642097D01*
X89713599Y-63695557D01*
X89645557Y-63763599D01*
X89592097Y-63843608D01*
X89555272Y-63932510D01*
X89536500Y-64026887D01*
X84874311Y-64026887D01*
X86662699Y-62238500D01*
X92847656Y-62238500D01*
X92913599Y-62304443D01*
X92925657Y-62312500D01*
X92913599Y-62320557D01*
X92845557Y-62388599D01*
X92792097Y-62468608D01*
X92755272Y-62557510D01*
X92736500Y-62651887D01*
X92736500Y-62748113D01*
X92755272Y-62842490D01*
X92792097Y-62931392D01*
X92845557Y-63011401D01*
X92913599Y-63079443D01*
X92993608Y-63132903D01*
X93082510Y-63169728D01*
X93176887Y-63188500D01*
X93273113Y-63188500D01*
X93367490Y-63169728D01*
X93456392Y-63132903D01*
X93536401Y-63079443D01*
X93604443Y-63011401D01*
X93657903Y-62931392D01*
X93694728Y-62842490D01*
X93713500Y-62748113D01*
X93713500Y-62651887D01*
X93694728Y-62557510D01*
X93657903Y-62468608D01*
X93604443Y-62388599D01*
X93536401Y-62320557D01*
X93524343Y-62312500D01*
X93536401Y-62304443D01*
X93604443Y-62236401D01*
X93657903Y-62156392D01*
X93694728Y-62067490D01*
X93713500Y-61973113D01*
X93713500Y-61876887D01*
X93694728Y-61782510D01*
X93657903Y-61693608D01*
X93604443Y-61613599D01*
X93536401Y-61545557D01*
X93456392Y-61492097D01*
X93367490Y-61455272D01*
X93273113Y-61436500D01*
X93176887Y-61436500D01*
X93082510Y-61455272D01*
X92993608Y-61492097D01*
X92913599Y-61545557D01*
X92897656Y-61561500D01*
X90920919Y-61561500D01*
X90938500Y-61473113D01*
X90938500Y-61376887D01*
X90919728Y-61282510D01*
X90882903Y-61193608D01*
X90829443Y-61113599D01*
X90761401Y-61045557D01*
X90681392Y-60992097D01*
X90592490Y-60955272D01*
X90498113Y-60936500D01*
X90401887Y-60936500D01*
X90307510Y-60955272D01*
X90218608Y-60992097D01*
X90138599Y-61045557D01*
X90070557Y-61113599D01*
X90017097Y-61193608D01*
X90009686Y-61211500D01*
X86394124Y-61211500D01*
X86377512Y-61209864D01*
X86360900Y-61211500D01*
X86360892Y-61211500D01*
X86316903Y-61215833D01*
X86311154Y-61216399D01*
X86247347Y-61235754D01*
X86188542Y-61267186D01*
X86136999Y-61309487D01*
X86126404Y-61322397D01*
X84751624Y-62697178D01*
X84577639Y-62523193D01*
X84576285Y-62521228D01*
X84554136Y-62499691D01*
X84544012Y-62489567D01*
X84542168Y-62488054D01*
X84540454Y-62486387D01*
X84529258Y-62477459D01*
X84505379Y-62457861D01*
X84503270Y-62456734D01*
X84484209Y-62441533D01*
X84468417Y-62427017D01*
X84444000Y-62412148D01*
X84420004Y-62396597D01*
X84400073Y-62388667D01*
X84360916Y-62369810D01*
X84342288Y-62359171D01*
X84315177Y-62350109D01*
X84288320Y-62340286D01*
X84267119Y-62336989D01*
X84224758Y-62327320D01*
X84204223Y-62321091D01*
X84175750Y-62318287D01*
X84147406Y-62314690D01*
X84126018Y-62316192D01*
X84082534Y-62316192D01*
X84061146Y-62314690D01*
X84032795Y-62318287D01*
X84004331Y-62321091D01*
X83983800Y-62327319D01*
X83941434Y-62336989D01*
X83920234Y-62340286D01*
X83893377Y-62350109D01*
X83866266Y-62359171D01*
X83847638Y-62369810D01*
X83808481Y-62388667D01*
X83788550Y-62396597D01*
X83764568Y-62412139D01*
X83740137Y-62427017D01*
X83724339Y-62441538D01*
X83690367Y-62468630D01*
X83672702Y-62480795D01*
X83652776Y-62501287D01*
X83632268Y-62521228D01*
X83620099Y-62538899D01*
X83593009Y-62572867D01*
X83578484Y-62588670D01*
X83563609Y-62613099D01*
X83548069Y-62637076D01*
X83540138Y-62657008D01*
X83521280Y-62696168D01*
X83510642Y-62714794D01*
X83501575Y-62741918D01*
X83491756Y-62768768D01*
X83488461Y-62789959D01*
X83478789Y-62832332D01*
X83472562Y-62852860D01*
X83469759Y-62881321D01*
X83466161Y-62909675D01*
X83467663Y-62931063D01*
X83467663Y-62974548D01*
X83466161Y-62995936D01*
X83469758Y-63024286D01*
X83472562Y-63052752D01*
X83478790Y-63073283D01*
X83488461Y-63115652D01*
X83491756Y-63136843D01*
X83501575Y-63163693D01*
X83510642Y-63190817D01*
X83521280Y-63209443D01*
X83529541Y-63226598D01*
X83512388Y-63218338D01*
X83493760Y-63207699D01*
X83466649Y-63198637D01*
X83439792Y-63188814D01*
X83418591Y-63185517D01*
X83376230Y-63175848D01*
X83355695Y-63169619D01*
X83327222Y-63166815D01*
X83298878Y-63163218D01*
X83277490Y-63164720D01*
X83234006Y-63164720D01*
X83212618Y-63163218D01*
X83184267Y-63166815D01*
X83155803Y-63169619D01*
X83135272Y-63175847D01*
X83092906Y-63185517D01*
X83071706Y-63188814D01*
X83044849Y-63198637D01*
X83017738Y-63207699D01*
X82999110Y-63218338D01*
X82959953Y-63237195D01*
X82940022Y-63245125D01*
X82916040Y-63260667D01*
X82891609Y-63275545D01*
X82875811Y-63290066D01*
X82841839Y-63317158D01*
X82824174Y-63329323D01*
X82804248Y-63349815D01*
X82783740Y-63369756D01*
X82771571Y-63387427D01*
X82744481Y-63421395D01*
X82729956Y-63437198D01*
X82715081Y-63461627D01*
X82699541Y-63485604D01*
X82691610Y-63505536D01*
X82672752Y-63544696D01*
X82662114Y-63563322D01*
X82653047Y-63590446D01*
X82643228Y-63617296D01*
X82639933Y-63638487D01*
X82630261Y-63680860D01*
X82624034Y-63701388D01*
X82621231Y-63729849D01*
X82617633Y-63758203D01*
X82619135Y-63779591D01*
X82619135Y-63823076D01*
X82617633Y-63844464D01*
X82621230Y-63872814D01*
X82624034Y-63901280D01*
X82630262Y-63921811D01*
X82639933Y-63964180D01*
X82643228Y-63985371D01*
X82653047Y-64012221D01*
X82662114Y-64039345D01*
X82672752Y-64057971D01*
X82681013Y-64075126D01*
X82663860Y-64066866D01*
X82645232Y-64056227D01*
X82618121Y-64047165D01*
X82591264Y-64037342D01*
X82570063Y-64034045D01*
X82527702Y-64024376D01*
X82507167Y-64018147D01*
X82478694Y-64015343D01*
X82450350Y-64011746D01*
X82428962Y-64013248D01*
X82385478Y-64013248D01*
X82364090Y-64011746D01*
X82335739Y-64015343D01*
X82307275Y-64018147D01*
X82286744Y-64024375D01*
X82244378Y-64034045D01*
X82223178Y-64037342D01*
X82196321Y-64047165D01*
X82169210Y-64056227D01*
X82150582Y-64066866D01*
X82111425Y-64085723D01*
X82091494Y-64093653D01*
X82067512Y-64109195D01*
X82043081Y-64124073D01*
X82027283Y-64138594D01*
X81993311Y-64165686D01*
X81975646Y-64177851D01*
X81955720Y-64198343D01*
X81935212Y-64218284D01*
X81923043Y-64235955D01*
X81895953Y-64269923D01*
X81881428Y-64285726D01*
X81866553Y-64310155D01*
X81851013Y-64334132D01*
X81843082Y-64354064D01*
X81824224Y-64393224D01*
X81813586Y-64411850D01*
X81804519Y-64438974D01*
X81794700Y-64465824D01*
X81791405Y-64487015D01*
X81781733Y-64529388D01*
X81775506Y-64549916D01*
X81772703Y-64578377D01*
X81769105Y-64606731D01*
X81770607Y-64628119D01*
X81770607Y-64671604D01*
X81769105Y-64692992D01*
X81772702Y-64721342D01*
X81775506Y-64749808D01*
X81781734Y-64770339D01*
X81791405Y-64812708D01*
X81794700Y-64833899D01*
X81804519Y-64860749D01*
X81813586Y-64887873D01*
X81824224Y-64906499D01*
X81843079Y-64945653D01*
X81851011Y-64965588D01*
X81866559Y-64989579D01*
X81881428Y-65013997D01*
X81895948Y-65029795D01*
X81911149Y-65048855D01*
X81912276Y-65050964D01*
X81931880Y-65074851D01*
X81940803Y-65086040D01*
X81942468Y-65087753D01*
X81943982Y-65089597D01*
X81954106Y-65099721D01*
X81975644Y-65121871D01*
X81977610Y-65123225D01*
X82151593Y-65297208D01*
X82084508Y-65364294D01*
X82084503Y-65364298D01*
X80947399Y-66501403D01*
X80934487Y-66512000D01*
X80892186Y-66563543D01*
X80869283Y-66606392D01*
X80860754Y-66622348D01*
X80846335Y-66669885D01*
X80841399Y-66686156D01*
X80836500Y-66735893D01*
X80836500Y-66735900D01*
X80834864Y-66752512D01*
X80836500Y-66769124D01*
X80836501Y-69687300D01*
X78022399Y-72501403D01*
X78009487Y-72512000D01*
X77967186Y-72563543D01*
X77956657Y-72583242D01*
X77935754Y-72622348D01*
X77921335Y-72669885D01*
X77916399Y-72686156D01*
X77911500Y-72735893D01*
X77911500Y-72735900D01*
X77909864Y-72752512D01*
X77911500Y-72769124D01*
X77911501Y-75662300D01*
X76587302Y-76986500D01*
X76161125Y-76986500D01*
X76230134Y-76940390D01*
X76298176Y-76872348D01*
X76351636Y-76792339D01*
X76388461Y-76703437D01*
X76407233Y-76609060D01*
X76407233Y-76512834D01*
X76388461Y-76418457D01*
X76351636Y-76329555D01*
X76305794Y-76260948D01*
X76351636Y-76192340D01*
X76388461Y-76103438D01*
X76407233Y-76009061D01*
X76407233Y-75912835D01*
X76388461Y-75818458D01*
X76386747Y-75814320D01*
X76426251Y-75830683D01*
X76520628Y-75849455D01*
X76616854Y-75849455D01*
X76711231Y-75830683D01*
X76800133Y-75793858D01*
X76880142Y-75740398D01*
X76948184Y-75672356D01*
X77001644Y-75592347D01*
X77038469Y-75503445D01*
X77057241Y-75409068D01*
X77057241Y-75312842D01*
X77038469Y-75218465D01*
X77001644Y-75129563D01*
X76948184Y-75049554D01*
X76880142Y-74981512D01*
X76800133Y-74928052D01*
X76711231Y-74891227D01*
X76616854Y-74872455D01*
X76520628Y-74872455D01*
X76426251Y-74891227D01*
X76337349Y-74928052D01*
X76257340Y-74981512D01*
X76189298Y-75049554D01*
X76135838Y-75129563D01*
X76099013Y-75218465D01*
X76080241Y-75312842D01*
X76080241Y-75409068D01*
X76099013Y-75503445D01*
X76100727Y-75507583D01*
X76061223Y-75491220D01*
X75966846Y-75472448D01*
X75870620Y-75472448D01*
X75776243Y-75491220D01*
X75687341Y-75528045D01*
X75607332Y-75581505D01*
X75539290Y-75649547D01*
X75485830Y-75729556D01*
X75449005Y-75818458D01*
X75430233Y-75912835D01*
X75430233Y-76009061D01*
X75449005Y-76103438D01*
X75485830Y-76192340D01*
X75531672Y-76260948D01*
X75485830Y-76329555D01*
X75449005Y-76418457D01*
X75430233Y-76512834D01*
X75430233Y-76609060D01*
X75449005Y-76703437D01*
X75485830Y-76792339D01*
X75539290Y-76872348D01*
X75607332Y-76940390D01*
X75676341Y-76986500D01*
X74323662Y-76986500D01*
X74392669Y-76940391D01*
X74460711Y-76872349D01*
X74514171Y-76792340D01*
X74550996Y-76703438D01*
X74569768Y-76609061D01*
X74569768Y-76512835D01*
X74567828Y-76503084D01*
X74573103Y-76503084D01*
X74667480Y-76484312D01*
X74756382Y-76447487D01*
X74836391Y-76394027D01*
X74904433Y-76325985D01*
X74957893Y-76245976D01*
X74994718Y-76157074D01*
X75013490Y-76062697D01*
X75013490Y-75966471D01*
X74994718Y-75872094D01*
X74957893Y-75783192D01*
X74904433Y-75703183D01*
X74836391Y-75635141D01*
X74756382Y-75581681D01*
X74667480Y-75544856D01*
X74573103Y-75526084D01*
X74476877Y-75526084D01*
X74382500Y-75544856D01*
X74293598Y-75581681D01*
X74213589Y-75635141D01*
X74145547Y-75703183D01*
X74092087Y-75783192D01*
X74055262Y-75872094D01*
X74036490Y-75966471D01*
X74036490Y-76062697D01*
X74038430Y-76072448D01*
X74033155Y-76072448D01*
X73938778Y-76091220D01*
X73899279Y-76107581D01*
X73900995Y-76103438D01*
X73919767Y-76009061D01*
X73919767Y-75912835D01*
X73900995Y-75818458D01*
X73864170Y-75729556D01*
X73810710Y-75649547D01*
X73742668Y-75581505D01*
X73662659Y-75528045D01*
X73573757Y-75491220D01*
X73521834Y-75480892D01*
X73825298Y-75177429D01*
X73849875Y-75193850D01*
X73938777Y-75230675D01*
X74033154Y-75249447D01*
X74129380Y-75249447D01*
X74223757Y-75230675D01*
X74312659Y-75193850D01*
X74392668Y-75140390D01*
X74460710Y-75072348D01*
X74514170Y-74992339D01*
X74550995Y-74903437D01*
X74569767Y-74809060D01*
X74569767Y-74712834D01*
X74550995Y-74618457D01*
X74527167Y-74560933D01*
X74544409Y-74568075D01*
X74638786Y-74586847D01*
X74735012Y-74586847D01*
X74829389Y-74568075D01*
X74918291Y-74531250D01*
X74998300Y-74477790D01*
X75066342Y-74409748D01*
X75119802Y-74329739D01*
X75156627Y-74240837D01*
X75175399Y-74146460D01*
X75175399Y-74050234D01*
X75156627Y-73955857D01*
X75119802Y-73866955D01*
X75066342Y-73786946D01*
X74998300Y-73718904D01*
X74918291Y-73665444D01*
X74829389Y-73628619D01*
X74735012Y-73609847D01*
X74638786Y-73609847D01*
X74544409Y-73628619D01*
X74455507Y-73665444D01*
X74444576Y-73672748D01*
X74457242Y-73609068D01*
X74457242Y-73512842D01*
X74438470Y-73418465D01*
X74401645Y-73329563D01*
X74348185Y-73249554D01*
X74280143Y-73181512D01*
X74200134Y-73128052D01*
X74111232Y-73091227D01*
X74016855Y-73072455D01*
X73920629Y-73072455D01*
X73826252Y-73091227D01*
X73737350Y-73128052D01*
X73657341Y-73181512D01*
X73589299Y-73249554D01*
X73535839Y-73329563D01*
X73499014Y-73418465D01*
X73480242Y-73512842D01*
X73480242Y-73609068D01*
X73499014Y-73703445D01*
X73535839Y-73792347D01*
X73589299Y-73872356D01*
X73647820Y-73930877D01*
X73611541Y-74018461D01*
X73592769Y-74112838D01*
X73592769Y-74209064D01*
X73611541Y-74303441D01*
X73648366Y-74392343D01*
X73675960Y-74433641D01*
X73632904Y-74446701D01*
X73574099Y-74478133D01*
X73522556Y-74520434D01*
X73511960Y-74533345D01*
X71872399Y-76172907D01*
X71859487Y-76183504D01*
X71817186Y-76235047D01*
X71797248Y-76272349D01*
X71785754Y-76293852D01*
X71782989Y-76302969D01*
X71766399Y-76357660D01*
X71761500Y-76407397D01*
X71761500Y-76407404D01*
X71759864Y-76424016D01*
X50388500Y-76424016D01*
X50388500Y-74726887D01*
X71236500Y-74726887D01*
X71236500Y-74823113D01*
X71255272Y-74917490D01*
X71292097Y-75006392D01*
X71345557Y-75086401D01*
X71413599Y-75154443D01*
X71493608Y-75207903D01*
X71582510Y-75244728D01*
X71676887Y-75263500D01*
X71773113Y-75263500D01*
X71867490Y-75244728D01*
X71956392Y-75207903D01*
X72036401Y-75154443D01*
X72104443Y-75086401D01*
X72157903Y-75006392D01*
X72194728Y-74917490D01*
X72213500Y-74823113D01*
X72213500Y-74726887D01*
X72194728Y-74632510D01*
X72157903Y-74543608D01*
X72104443Y-74463599D01*
X72036401Y-74395557D01*
X71956392Y-74342097D01*
X71867490Y-74305272D01*
X71773113Y-74286500D01*
X71676887Y-74286500D01*
X71582510Y-74305272D01*
X71493608Y-74342097D01*
X71413599Y-74395557D01*
X71345557Y-74463599D01*
X71292097Y-74543608D01*
X71255272Y-74632510D01*
X71236500Y-74726887D01*
X50388500Y-74726887D01*
X50388500Y-72171887D01*
X72941500Y-72171887D01*
X72941500Y-72268113D01*
X72960272Y-72362490D01*
X72997097Y-72451392D01*
X73050557Y-72531401D01*
X73118599Y-72599443D01*
X73198608Y-72652903D01*
X73287510Y-72689728D01*
X73381887Y-72708500D01*
X73478113Y-72708500D01*
X73572490Y-72689728D01*
X73661392Y-72652903D01*
X73741401Y-72599443D01*
X73809443Y-72531401D01*
X73862903Y-72451392D01*
X73899728Y-72362490D01*
X73918500Y-72268113D01*
X73918500Y-72171887D01*
X73899728Y-72077510D01*
X73862903Y-71988608D01*
X73809443Y-71908599D01*
X73741401Y-71840557D01*
X73661392Y-71787097D01*
X73572490Y-71750272D01*
X73478113Y-71731500D01*
X73381887Y-71731500D01*
X73287510Y-71750272D01*
X73198608Y-71787097D01*
X73118599Y-71840557D01*
X73050557Y-71908599D01*
X72997097Y-71988608D01*
X72960272Y-72077510D01*
X72941500Y-72171887D01*
X50388500Y-72171887D01*
X50388500Y-71351887D01*
X74511500Y-71351887D01*
X74511500Y-71448113D01*
X74530272Y-71542490D01*
X74567097Y-71631392D01*
X74620557Y-71711401D01*
X74688599Y-71779443D01*
X74768608Y-71832903D01*
X74857510Y-71869728D01*
X74951887Y-71888500D01*
X75048113Y-71888500D01*
X75142490Y-71869728D01*
X75231392Y-71832903D01*
X75311401Y-71779443D01*
X75379443Y-71711401D01*
X75432903Y-71631392D01*
X75469728Y-71542490D01*
X75477804Y-71501887D01*
X77211500Y-71501887D01*
X77211500Y-71598113D01*
X77230272Y-71692490D01*
X77267097Y-71781392D01*
X77320557Y-71861401D01*
X77388599Y-71929443D01*
X77468608Y-71982903D01*
X77557510Y-72019728D01*
X77651887Y-72038500D01*
X77748113Y-72038500D01*
X77842490Y-72019728D01*
X77931392Y-71982903D01*
X78011401Y-71929443D01*
X78079443Y-71861401D01*
X78132903Y-71781392D01*
X78169728Y-71692490D01*
X78188500Y-71598113D01*
X78188500Y-71501887D01*
X78169728Y-71407510D01*
X78132903Y-71318608D01*
X78079443Y-71238599D01*
X78011401Y-71170557D01*
X77931392Y-71117097D01*
X77842490Y-71080272D01*
X77748113Y-71061500D01*
X77651887Y-71061500D01*
X77557510Y-71080272D01*
X77468608Y-71117097D01*
X77388599Y-71170557D01*
X77320557Y-71238599D01*
X77267097Y-71318608D01*
X77230272Y-71407510D01*
X77211500Y-71501887D01*
X75477804Y-71501887D01*
X75488500Y-71448113D01*
X75488500Y-71351887D01*
X75469728Y-71257510D01*
X75432903Y-71168608D01*
X75379443Y-71088599D01*
X75311401Y-71020557D01*
X75231392Y-70967097D01*
X75142490Y-70930272D01*
X75048113Y-70911500D01*
X74951887Y-70911500D01*
X74857510Y-70930272D01*
X74768608Y-70967097D01*
X74688599Y-71020557D01*
X74620557Y-71088599D01*
X74567097Y-71168608D01*
X74530272Y-71257510D01*
X74511500Y-71351887D01*
X50388500Y-71351887D01*
X50388500Y-59985837D01*
X51711500Y-59985837D01*
X51711501Y-70014164D01*
X51712701Y-70026352D01*
X51712693Y-70027543D01*
X51713086Y-70031552D01*
X51715110Y-70050814D01*
X51715676Y-70056556D01*
X51715734Y-70056748D01*
X51717166Y-70070371D01*
X51722424Y-70095986D01*
X51727323Y-70121669D01*
X51728487Y-70125521D01*
X51728488Y-70125527D01*
X51728490Y-70125533D01*
X51740030Y-70162813D01*
X51750161Y-70186914D01*
X51759959Y-70211164D01*
X51761842Y-70214706D01*
X51761848Y-70214719D01*
X51761855Y-70214730D01*
X51780415Y-70249056D01*
X51795050Y-70270754D01*
X51809354Y-70292612D01*
X51811896Y-70295729D01*
X51811900Y-70295735D01*
X51811905Y-70295740D01*
X51836781Y-70325810D01*
X51855305Y-70344205D01*
X51873628Y-70362916D01*
X51876732Y-70365483D01*
X51906980Y-70390153D01*
X51928763Y-70404626D01*
X51950341Y-70419400D01*
X51953884Y-70421316D01*
X51988349Y-70439640D01*
X52012516Y-70449601D01*
X52036551Y-70459902D01*
X52040396Y-70461092D01*
X52040406Y-70461096D01*
X52040415Y-70461098D01*
X52077766Y-70472375D01*
X52103375Y-70477446D01*
X52128993Y-70482891D01*
X52132999Y-70483312D01*
X52169324Y-70486874D01*
X52185836Y-70488500D01*
X60014164Y-70488500D01*
X60026361Y-70487299D01*
X60027543Y-70487307D01*
X60031552Y-70486914D01*
X60050663Y-70484905D01*
X60056556Y-70484325D01*
X60056753Y-70484265D01*
X60070371Y-70482834D01*
X60095986Y-70477576D01*
X60121669Y-70472677D01*
X60125521Y-70471513D01*
X60125527Y-70471512D01*
X60125533Y-70471510D01*
X60162813Y-70459970D01*
X60186953Y-70449823D01*
X60211164Y-70440041D01*
X60214706Y-70438158D01*
X60214719Y-70438152D01*
X60214730Y-70438145D01*
X60249056Y-70419585D01*
X60270754Y-70404950D01*
X60292612Y-70390646D01*
X60295729Y-70388104D01*
X60295735Y-70388100D01*
X60295740Y-70388095D01*
X60325810Y-70363219D01*
X60344205Y-70344695D01*
X60362916Y-70326372D01*
X60365483Y-70323268D01*
X60365487Y-70323264D01*
X60390153Y-70293020D01*
X60404626Y-70271237D01*
X60419400Y-70249659D01*
X60421316Y-70246116D01*
X60439640Y-70211651D01*
X60449601Y-70187484D01*
X60459902Y-70163449D01*
X60461093Y-70159601D01*
X60461094Y-70159598D01*
X60461096Y-70159594D01*
X60461098Y-70159585D01*
X60472375Y-70122234D01*
X60477446Y-70096625D01*
X60482891Y-70071007D01*
X60483312Y-70067001D01*
X60486903Y-70030381D01*
X60488500Y-70014164D01*
X60488500Y-69801887D01*
X71111500Y-69801887D01*
X71111500Y-69898113D01*
X71130272Y-69992490D01*
X71167097Y-70081392D01*
X71220557Y-70161401D01*
X71288599Y-70229443D01*
X71368608Y-70282903D01*
X71457510Y-70319728D01*
X71551887Y-70338500D01*
X71552746Y-70338500D01*
X71552746Y-70374766D01*
X71571518Y-70469143D01*
X71608343Y-70558045D01*
X71661803Y-70638054D01*
X71729845Y-70706096D01*
X71809854Y-70759556D01*
X71898756Y-70796381D01*
X71993133Y-70815153D01*
X72089359Y-70815153D01*
X72183736Y-70796381D01*
X72272638Y-70759556D01*
X72352647Y-70706096D01*
X72420689Y-70638054D01*
X72474149Y-70558045D01*
X72510974Y-70469143D01*
X72523356Y-70406889D01*
X72911500Y-70406889D01*
X72911500Y-70503115D01*
X72930272Y-70597492D01*
X72967097Y-70686394D01*
X73020557Y-70766403D01*
X73088599Y-70834445D01*
X73168608Y-70887905D01*
X73257510Y-70924730D01*
X73351887Y-70943502D01*
X73448113Y-70943502D01*
X73542490Y-70924730D01*
X73631392Y-70887905D01*
X73711401Y-70834445D01*
X73779443Y-70766403D01*
X73832903Y-70686394D01*
X73869728Y-70597492D01*
X73888500Y-70503115D01*
X73888500Y-70406889D01*
X75311500Y-70406889D01*
X75311500Y-70503115D01*
X75330272Y-70597492D01*
X75367097Y-70686394D01*
X75420557Y-70766403D01*
X75488599Y-70834445D01*
X75568608Y-70887905D01*
X75657510Y-70924730D01*
X75751887Y-70943502D01*
X75848113Y-70943502D01*
X75942490Y-70924730D01*
X76031392Y-70887905D01*
X76111401Y-70834445D01*
X76179443Y-70766403D01*
X76200000Y-70735637D01*
X76220557Y-70766403D01*
X76288599Y-70834445D01*
X76368608Y-70887905D01*
X76457510Y-70924730D01*
X76551887Y-70943502D01*
X76648113Y-70943502D01*
X76742490Y-70924730D01*
X76831392Y-70887905D01*
X76911401Y-70834445D01*
X76979443Y-70766403D01*
X77032903Y-70686394D01*
X77069728Y-70597492D01*
X77088500Y-70503115D01*
X77088500Y-70406889D01*
X77069728Y-70312512D01*
X77032903Y-70223610D01*
X76979443Y-70143601D01*
X76911401Y-70075559D01*
X76831392Y-70022099D01*
X76742490Y-69985274D01*
X76648113Y-69966502D01*
X76551887Y-69966502D01*
X76457510Y-69985274D01*
X76368608Y-70022099D01*
X76288599Y-70075559D01*
X76220557Y-70143601D01*
X76200000Y-70174367D01*
X76179443Y-70143601D01*
X76111401Y-70075559D01*
X76031392Y-70022099D01*
X75942490Y-69985274D01*
X75848113Y-69966502D01*
X75751887Y-69966502D01*
X75657510Y-69985274D01*
X75568608Y-70022099D01*
X75488599Y-70075559D01*
X75420557Y-70143601D01*
X75367097Y-70223610D01*
X75330272Y-70312512D01*
X75311500Y-70406889D01*
X73888500Y-70406889D01*
X73869728Y-70312512D01*
X73832903Y-70223610D01*
X73779443Y-70143601D01*
X73711401Y-70075559D01*
X73631392Y-70022099D01*
X73542490Y-69985274D01*
X73448113Y-69966502D01*
X73351887Y-69966502D01*
X73257510Y-69985274D01*
X73168608Y-70022099D01*
X73088599Y-70075559D01*
X73020557Y-70143601D01*
X72967097Y-70223610D01*
X72930272Y-70312512D01*
X72911500Y-70406889D01*
X72523356Y-70406889D01*
X72529746Y-70374766D01*
X72529746Y-70278540D01*
X72510974Y-70184163D01*
X72474149Y-70095261D01*
X72420689Y-70015252D01*
X72352647Y-69947210D01*
X72272638Y-69893750D01*
X72183736Y-69856925D01*
X72089359Y-69838153D01*
X72088500Y-69838153D01*
X72088500Y-69801887D01*
X72069728Y-69707510D01*
X72032903Y-69618608D01*
X71979443Y-69538599D01*
X71911401Y-69470557D01*
X71831392Y-69417097D01*
X71742490Y-69380272D01*
X71648113Y-69361500D01*
X71551887Y-69361500D01*
X71457510Y-69380272D01*
X71368608Y-69417097D01*
X71288599Y-69470557D01*
X71220557Y-69538599D01*
X71167097Y-69618608D01*
X71130272Y-69707510D01*
X71111500Y-69801887D01*
X60488500Y-69801887D01*
X60488500Y-60485837D01*
X95711500Y-60485837D01*
X95711501Y-69714164D01*
X95712700Y-69726342D01*
X95712692Y-69727543D01*
X95713085Y-69731551D01*
X95715125Y-69750965D01*
X95715676Y-69756556D01*
X95715733Y-69756742D01*
X95717165Y-69770372D01*
X95722427Y-69796007D01*
X95727322Y-69821668D01*
X95728484Y-69825518D01*
X95728486Y-69825527D01*
X95728490Y-69825535D01*
X95740028Y-69862812D01*
X95750160Y-69886917D01*
X95759961Y-69911172D01*
X95761843Y-69914712D01*
X95761846Y-69914718D01*
X95761852Y-69914728D01*
X95780418Y-69949063D01*
X95795027Y-69970721D01*
X95809350Y-69992610D01*
X95811896Y-69995731D01*
X95811899Y-69995735D01*
X95811904Y-69995742D01*
X95811910Y-69995748D01*
X95836776Y-70025807D01*
X95855322Y-70044225D01*
X95873631Y-70062921D01*
X95876723Y-70065478D01*
X95876728Y-70065483D01*
X95876733Y-70065486D01*
X95876735Y-70065488D01*
X95906983Y-70090158D01*
X95928761Y-70104627D01*
X95950338Y-70119401D01*
X95953882Y-70121317D01*
X95988347Y-70139642D01*
X96012532Y-70149610D01*
X96036552Y-70159905D01*
X96040397Y-70161095D01*
X96040404Y-70161098D01*
X96040412Y-70161100D01*
X96077767Y-70172378D01*
X96103391Y-70177452D01*
X96128995Y-70182894D01*
X96132999Y-70183315D01*
X96133001Y-70183315D01*
X96171848Y-70187124D01*
X96171856Y-70187124D01*
X96185838Y-70188501D01*
X98814164Y-70188499D01*
X98826352Y-70187299D01*
X98827543Y-70187307D01*
X98831552Y-70186914D01*
X98850814Y-70184890D01*
X98856556Y-70184324D01*
X98856748Y-70184266D01*
X98870371Y-70182834D01*
X98895981Y-70177577D01*
X98921667Y-70172677D01*
X98925523Y-70171513D01*
X98925525Y-70171512D01*
X98925527Y-70171512D01*
X98925529Y-70171511D01*
X98962811Y-70159971D01*
X98986938Y-70149829D01*
X99011165Y-70140041D01*
X99014709Y-70138156D01*
X99014717Y-70138153D01*
X99014723Y-70138149D01*
X99049057Y-70119585D01*
X99070725Y-70104970D01*
X99092609Y-70090650D01*
X99095730Y-70088104D01*
X99095736Y-70088100D01*
X99095741Y-70088095D01*
X99125806Y-70063224D01*
X99144203Y-70044699D01*
X99162917Y-70026373D01*
X99165484Y-70023269D01*
X99190154Y-69993021D01*
X99204626Y-69971240D01*
X99219398Y-69949666D01*
X99221314Y-69946123D01*
X99239639Y-69911658D01*
X99249606Y-69887477D01*
X99259904Y-69863450D01*
X99261092Y-69859612D01*
X99261096Y-69859602D01*
X99261098Y-69859592D01*
X99272377Y-69822235D01*
X99277451Y-69796611D01*
X99282893Y-69771007D01*
X99283314Y-69767001D01*
X99287123Y-69728154D01*
X99287123Y-69728146D01*
X99288500Y-69714164D01*
X99288500Y-60485836D01*
X99287300Y-60473648D01*
X99287308Y-60472458D01*
X99286915Y-60468449D01*
X99284891Y-60449194D01*
X99284325Y-60443444D01*
X99284267Y-60443252D01*
X99282835Y-60429629D01*
X99277572Y-60403988D01*
X99272678Y-60378331D01*
X99271517Y-60374486D01*
X99271514Y-60374473D01*
X99271509Y-60374461D01*
X99259971Y-60337187D01*
X99249839Y-60313083D01*
X99240044Y-60288839D01*
X99238157Y-60285290D01*
X99238153Y-60285280D01*
X99238148Y-60285272D01*
X99219588Y-60250946D01*
X99204966Y-60229267D01*
X99190644Y-60207382D01*
X99188107Y-60204273D01*
X99188103Y-60204266D01*
X99188098Y-60204261D01*
X99163217Y-60174186D01*
X99144690Y-60155788D01*
X99126369Y-60137080D01*
X99123265Y-60134512D01*
X99093016Y-60109843D01*
X99071259Y-60095388D01*
X99049665Y-60080602D01*
X99046122Y-60078686D01*
X99011658Y-60060361D01*
X98987463Y-60050388D01*
X98963449Y-60040096D01*
X98959611Y-60038908D01*
X98959601Y-60038904D01*
X98959591Y-60038902D01*
X98922234Y-60027623D01*
X98896610Y-60022549D01*
X98871006Y-60017107D01*
X98867002Y-60016686D01*
X98867000Y-60016686D01*
X98828153Y-60012877D01*
X98828146Y-60012877D01*
X98814164Y-60011500D01*
X96185836Y-60011500D01*
X96173639Y-60012701D01*
X96172457Y-60012693D01*
X96168448Y-60013086D01*
X96149337Y-60015095D01*
X96143444Y-60015675D01*
X96143247Y-60015735D01*
X96129629Y-60017166D01*
X96103993Y-60022428D01*
X96078333Y-60027323D01*
X96074477Y-60028487D01*
X96074475Y-60028488D01*
X96074473Y-60028488D01*
X96074471Y-60028489D01*
X96037189Y-60040029D01*
X96013111Y-60050150D01*
X95988835Y-60059958D01*
X95985295Y-60061842D01*
X95985282Y-60061847D01*
X95985272Y-60061854D01*
X95950944Y-60080415D01*
X95929267Y-60095036D01*
X95907383Y-60109357D01*
X95904274Y-60111893D01*
X95904264Y-60111900D01*
X95904257Y-60111908D01*
X95874187Y-60136784D01*
X95855794Y-60155306D01*
X95837084Y-60173628D01*
X95834517Y-60176732D01*
X95834512Y-60176737D01*
X95834508Y-60176743D01*
X95809847Y-60206980D01*
X95795385Y-60228747D01*
X95780603Y-60250335D01*
X95778687Y-60253878D01*
X95760362Y-60288342D01*
X95750389Y-60312537D01*
X95740097Y-60336551D01*
X95738909Y-60340389D01*
X95738905Y-60340399D01*
X95738903Y-60340409D01*
X95727624Y-60377766D01*
X95722550Y-60403390D01*
X95717108Y-60428994D01*
X95716687Y-60433000D01*
X95712997Y-60470634D01*
X95711500Y-60485837D01*
X60488500Y-60485837D01*
X60488500Y-59985836D01*
X60487299Y-59973639D01*
X60487307Y-59972457D01*
X60486914Y-59968448D01*
X60484905Y-59949337D01*
X60484325Y-59943444D01*
X60484265Y-59943247D01*
X60482834Y-59929629D01*
X60477574Y-59904007D01*
X60472677Y-59878332D01*
X60471512Y-59874475D01*
X60471512Y-59874473D01*
X60471510Y-59874467D01*
X60459970Y-59837188D01*
X60449854Y-59813122D01*
X60440042Y-59788836D01*
X60438158Y-59785294D01*
X60438152Y-59785281D01*
X60438145Y-59785270D01*
X60419585Y-59750945D01*
X60404967Y-59729272D01*
X60390646Y-59707388D01*
X60388108Y-59704277D01*
X60388100Y-59704265D01*
X60388091Y-59704256D01*
X60363219Y-59674190D01*
X60344678Y-59655778D01*
X60326372Y-59637084D01*
X60323274Y-59634522D01*
X60323267Y-59634515D01*
X60323259Y-59634510D01*
X60293020Y-59609847D01*
X60271255Y-59595386D01*
X60249660Y-59580600D01*
X60246116Y-59578684D01*
X60211652Y-59560360D01*
X60187470Y-59550393D01*
X60163449Y-59540098D01*
X60159601Y-59538907D01*
X60159602Y-59538907D01*
X60159594Y-59538904D01*
X60159585Y-59538902D01*
X60122234Y-59527625D01*
X60096617Y-59522552D01*
X60071006Y-59517109D01*
X60067002Y-59516688D01*
X60067000Y-59516688D01*
X60030691Y-59513128D01*
X60014164Y-59511500D01*
X52185836Y-59511500D01*
X52173639Y-59512701D01*
X52172457Y-59512693D01*
X52168448Y-59513086D01*
X52149337Y-59515095D01*
X52143444Y-59515675D01*
X52143247Y-59515735D01*
X52129629Y-59517166D01*
X52103993Y-59522428D01*
X52078333Y-59527323D01*
X52074477Y-59528487D01*
X52074475Y-59528488D01*
X52074473Y-59528488D01*
X52074471Y-59528489D01*
X52037189Y-59540029D01*
X52013111Y-59550150D01*
X51988835Y-59559958D01*
X51985295Y-59561842D01*
X51985282Y-59561847D01*
X51985272Y-59561854D01*
X51950944Y-59580415D01*
X51929267Y-59595036D01*
X51907383Y-59609357D01*
X51904274Y-59611893D01*
X51904264Y-59611900D01*
X51904257Y-59611908D01*
X51874187Y-59636784D01*
X51855794Y-59655306D01*
X51837084Y-59673628D01*
X51834517Y-59676732D01*
X51834512Y-59676737D01*
X51834508Y-59676743D01*
X51809847Y-59706980D01*
X51795385Y-59728747D01*
X51780603Y-59750335D01*
X51778687Y-59753878D01*
X51760362Y-59788342D01*
X51750389Y-59812537D01*
X51740097Y-59836551D01*
X51738909Y-59840389D01*
X51738905Y-59840399D01*
X51738903Y-59840409D01*
X51727624Y-59877766D01*
X51722550Y-59903390D01*
X51717108Y-59928994D01*
X51716687Y-59933000D01*
X51712920Y-59971416D01*
X51711500Y-59985837D01*
X50388500Y-59985837D01*
X50388500Y-57497677D01*
X52978206Y-57497677D01*
X53354890Y-57836787D01*
X53939930Y-58103224D01*
X54565708Y-58250406D01*
X55208175Y-58272677D01*
X55842642Y-58169180D01*
X56444727Y-57943894D01*
X56645110Y-57836787D01*
X57021794Y-57497677D01*
X92978206Y-57497677D01*
X93354890Y-57836787D01*
X93939930Y-58103224D01*
X94565708Y-58250406D01*
X95208175Y-58272677D01*
X95842642Y-58169180D01*
X96444727Y-57943894D01*
X96645110Y-57836787D01*
X97021794Y-57497677D01*
X96705022Y-57180905D01*
X96705022Y-57180904D01*
X96590990Y-57066873D01*
X96110546Y-56586429D01*
X96001076Y-56476958D01*
X96001075Y-56476958D01*
X95000000Y-55475883D01*
X93998925Y-56476958D01*
X93998924Y-56476958D01*
X93889454Y-56586429D01*
X93409010Y-57066873D01*
X93294978Y-57180904D01*
X93294978Y-57180905D01*
X92978206Y-57497677D01*
X57021794Y-57497677D01*
X56705022Y-57180905D01*
X56705022Y-57180904D01*
X56590990Y-57066873D01*
X56110546Y-56586429D01*
X56001076Y-56476958D01*
X56001075Y-56476958D01*
X55000000Y-55475883D01*
X53998925Y-56476958D01*
X53998924Y-56476958D01*
X53889454Y-56586429D01*
X53409010Y-57066873D01*
X53294978Y-57180904D01*
X53294978Y-57180905D01*
X52978206Y-57497677D01*
X50388500Y-57497677D01*
X50388500Y-55208175D01*
X51727323Y-55208175D01*
X51830820Y-55842642D01*
X52056106Y-56444727D01*
X52163213Y-56645110D01*
X52502323Y-57021794D01*
X52819095Y-56705022D01*
X52819096Y-56705022D01*
X52933127Y-56590990D01*
X53409010Y-56115107D01*
X53523042Y-56001076D01*
X53523042Y-56001075D01*
X54524117Y-55000000D01*
X55475883Y-55000000D01*
X56476958Y-56001075D01*
X56476958Y-56001076D01*
X56590990Y-56115107D01*
X57066873Y-56590990D01*
X57180904Y-56705022D01*
X57180905Y-56705022D01*
X57497677Y-57021794D01*
X57836787Y-56645110D01*
X58103224Y-56060070D01*
X58250406Y-55434292D01*
X58258244Y-55208175D01*
X91727323Y-55208175D01*
X91830820Y-55842642D01*
X92056106Y-56444727D01*
X92163213Y-56645110D01*
X92502323Y-57021794D01*
X92819095Y-56705022D01*
X92819096Y-56705022D01*
X92933127Y-56590990D01*
X93409010Y-56115107D01*
X93523042Y-56001076D01*
X93523042Y-56001075D01*
X94524117Y-55000000D01*
X95475883Y-55000000D01*
X96476958Y-56001075D01*
X96476958Y-56001076D01*
X96590990Y-56115107D01*
X97066873Y-56590990D01*
X97180904Y-56705022D01*
X97180905Y-56705022D01*
X97497677Y-57021794D01*
X97836787Y-56645110D01*
X98103224Y-56060070D01*
X98250406Y-55434292D01*
X98272677Y-54791825D01*
X98169180Y-54157358D01*
X97943894Y-53555273D01*
X97836787Y-53354890D01*
X97497677Y-52978206D01*
X97180905Y-53294978D01*
X97180904Y-53294978D01*
X97123614Y-53352269D01*
X96590990Y-53884893D01*
X96476958Y-53998924D01*
X96476958Y-53998925D01*
X95475883Y-55000000D01*
X94524117Y-55000000D01*
X93523042Y-53998925D01*
X93523042Y-53998924D01*
X93409010Y-53884893D01*
X92876386Y-53352269D01*
X92819096Y-53294978D01*
X92819095Y-53294978D01*
X92502323Y-52978206D01*
X92163213Y-53354890D01*
X91896776Y-53939930D01*
X91749594Y-54565708D01*
X91727323Y-55208175D01*
X58258244Y-55208175D01*
X58272677Y-54791825D01*
X58169180Y-54157358D01*
X57943894Y-53555273D01*
X57836787Y-53354890D01*
X57497677Y-52978206D01*
X57180905Y-53294978D01*
X57180904Y-53294978D01*
X57123614Y-53352269D01*
X56590990Y-53884893D01*
X56476958Y-53998924D01*
X56476958Y-53998925D01*
X55475883Y-55000000D01*
X54524117Y-55000000D01*
X53523042Y-53998925D01*
X53523042Y-53998924D01*
X53409010Y-53884893D01*
X52876386Y-53352269D01*
X52819096Y-53294978D01*
X52819095Y-53294978D01*
X52502323Y-52978206D01*
X52163213Y-53354890D01*
X51896776Y-53939930D01*
X51749594Y-54565708D01*
X51727323Y-55208175D01*
X50388500Y-55208175D01*
X50388500Y-55012850D01*
X50462511Y-54183577D01*
X50678799Y-53392959D01*
X51031676Y-52653138D01*
X51140047Y-52502323D01*
X52978206Y-52502323D01*
X53294978Y-52819095D01*
X53294978Y-52819096D01*
X53409010Y-52933127D01*
X53884893Y-53409010D01*
X53998924Y-53523042D01*
X53998925Y-53523042D01*
X55000000Y-54524117D01*
X56001075Y-53523042D01*
X56001076Y-53523042D01*
X56115107Y-53409010D01*
X56590990Y-52933127D01*
X56705022Y-52819096D01*
X56705022Y-52819095D01*
X57021794Y-52502323D01*
X92978206Y-52502323D01*
X93294978Y-52819095D01*
X93294978Y-52819096D01*
X93409010Y-52933127D01*
X93884893Y-53409010D01*
X93998924Y-53523042D01*
X93998925Y-53523042D01*
X95000000Y-54524117D01*
X96001075Y-53523042D01*
X96001076Y-53523042D01*
X96115107Y-53409010D01*
X96590990Y-52933127D01*
X96705022Y-52819096D01*
X96705022Y-52819095D01*
X97021794Y-52502323D01*
X96645110Y-52163213D01*
X96060070Y-51896776D01*
X95434292Y-51749594D01*
X94791825Y-51727323D01*
X94157358Y-51830820D01*
X93555273Y-52056106D01*
X93354890Y-52163213D01*
X92978206Y-52502323D01*
X57021794Y-52502323D01*
X56645110Y-52163213D01*
X56060070Y-51896776D01*
X55434292Y-51749594D01*
X54791825Y-51727323D01*
X54157358Y-51830820D01*
X53555273Y-52056106D01*
X53354890Y-52163213D01*
X52978206Y-52502323D01*
X51140047Y-52502323D01*
X51509984Y-51987502D01*
X52098614Y-51417081D01*
X52778944Y-50959917D01*
X53529485Y-50630453D01*
X54328728Y-50438572D01*
X55010577Y-50388500D01*
X94987150Y-50388500D01*
X95816423Y-50462511D01*
M02*
