M48
; DRILL file {KiCad 5.1.5+dfsg1-2build2} date Tue 18 May 2021 02:32:30 PM CEST
; FORMAT={-:-/ absolute / inch / decimal}
; #@! TF.CreationDate,2021-05-18T14:32:30+02:00
; #@! TF.GenerationSoftware,Kicad,Pcbnew,5.1.5+dfsg1-2build2
; #@! TF.FileFunction,Plated,1,4,PTH
FMAT,2
INCH
T1C0.0079
T2C0.0118
T3C0.0197
T4C0.0276
T5C0.0315
T6C0.1181
%
G90
G05
T1
X2.1142Y-3.3268
X2.1988Y-3.3799
X2.2008Y-3.3268
X2.2657Y-3.372
X2.2657Y-3.3465
X2.3917Y-3.1004
X2.3917Y-3.1339
X2.4094Y-3.6949
X2.4331Y-3.6949
X2.4567Y-3.6949
X2.501Y-3.4705
X2.5512Y-3.7795
X2.5787Y-3.4429
X2.6063Y-2.2815
X2.628Y-3.2224
X2.6299Y-2.2815
X2.6417Y-3.7795
X2.6575Y-3.2402
X2.6575Y-3.2697
X2.687Y-3.7795
X2.7008Y-2.2697
X2.7085Y-3.0372
X2.7106Y-3.437
X2.7244Y-3.4232
X2.7246Y-3.0533
X2.7283Y-2.315
X2.7323Y-3.6969
X2.7638Y-3.6772
X2.8287Y-3.6358
X2.8287Y-3.6811
X2.8563Y-3.2717
X2.8705Y-2.7087
X2.8932Y-2.7087
X2.9055Y-2.5433
X2.9055Y-2.5669
X2.9154Y-2.9882
X2.9154Y-3.0138
X2.9823Y-3.2323
X2.9921Y-2.5217
X3.002Y-3.252
X3.0138Y-2.8858
X3.0394Y-2.5335
X3.0394Y-2.5807
X3.0689Y-2.1831
X3.0728Y-2.935
X3.0787Y-2.5793
X3.0886Y-2.2835
X3.0965Y-2.4961
X3.0965Y-2.687
X3.0983Y-2.7183
X3.0984Y-2.7776
X3.0984Y-2.8031
X3.1083Y-2.9783
X3.1143Y-2.7344
X3.1181Y-2.5793
X3.122Y-2.873
X3.124Y-3.0531
X3.126Y-2.6693
X3.1319Y-3.2106
X3.1417Y-2.3504
X3.1417Y-3.6142
X3.1455Y-2.7343
X3.1506Y-3.0933
X3.1535Y-2.2224
X3.1575Y-2.5793
X3.1575Y-2.7756
X3.1701Y-3.1037
X3.1729Y-3.0299
X3.1752Y-2.4528
X3.1791Y-2.374
X3.1815Y-2.774
X3.1929Y-2.2618
X3.1969Y-2.5793
X3.1969Y-3.1778
X3.1984Y-2.9531
X3.1984Y-2.7228
X3.2028Y-2.8484
X3.2071Y-2.774
X3.2071Y-2.7996
X3.2087Y-3.2148
X3.2126Y-2.2815
X3.2126Y-2.3268
X3.2185Y-2.4528
X3.2196Y-3.0844
X3.2323Y-2.7697
X3.2327Y-2.7398
X3.2362Y-2.5793
X3.2362Y-2.6417
X3.2362Y-3.185
X3.2482Y-2.7242
X3.2496Y-3.0213
X3.2513Y-3.0497
X3.2528Y-2.9487
X3.254Y-2.8479
X3.2559Y-3.1063
X3.2559Y-3.126
X3.2579Y-2.9016
X3.2598Y-2.3327
X3.2756Y-2.5793
X3.2801Y-3.1969
X3.2835Y-2.8681
X3.2842Y-2.7908
X3.2959Y-3.1024
X3.2959Y-3.123
X3.3008Y-2.9701
X3.3031Y-3.0669
X3.3051Y-2.7441
X3.3051Y-2.8189
X3.3268Y-2.9528
X3.3307Y-2.7441
X3.3325Y-2.8976
X3.3352Y-2.8161
X3.3465Y-3.1043
X3.3465Y-3.126
X3.3472Y-2.9292
X3.3563Y-2.7697
X3.3578Y-2.9718
X3.3583Y-2.8228
X3.3819Y-2.8976
X3.3858Y-2.8504
X3.3898Y-2.9783
X3.3898Y-3.1102
X3.3953Y-3.0668
X3.403Y-2.8673
X3.4032Y-2.774
X3.4075Y-2.6705
X3.4118Y-3.0043
X3.4134Y-3.124
X3.4252Y-2.685
X3.4285Y-2.7396
X3.4288Y-2.7142
X3.4331Y-2.8465
X3.4331Y-2.8976
X3.4331Y-3.0709
X3.435Y-2.9469
X3.4572Y-2.7697
X3.4606Y-2.9961
X3.4621Y-3.1137
X3.4665Y-3.2657
X3.4795Y-2.7494
X3.4799Y-2.774
X3.4902Y-3.1161
X3.4961Y-2.5197
X3.5Y-2.6008
X3.5Y-2.6236
X3.5055Y-2.7228
X3.506Y-2.7482
X3.5118Y-3.0768
X3.5256Y-3.7421
X3.5433Y-2.6713
X3.5433Y-2.8209
X3.5433Y-2.8465
X3.5443Y-3.0089
X3.5453Y-2.7805
X3.5453Y-2.872
X3.5453Y-2.872
X3.5453Y-2.8937
X3.5453Y-3.3366
X3.5492Y-2.4665
X3.5492Y-2.6929
X3.5506Y-2.7539
X3.551Y-2.618
X3.5531Y-3.7441
X3.5671Y-2.634
X3.5728Y-3.1988
X3.5821Y-2.8071
X3.6004Y-3.5472
X3.6201Y-3.5236
X3.626Y-2.4646
X3.628Y-3.4587
X3.6378Y-2.5906
X3.6417Y-2.4488
X3.6417Y-2.5039
X3.6417Y-3.498
X3.6429Y-2.5582
X3.6581Y-2.8071
X3.6949Y-2.6693
X3.6949Y-2.6929
X3.7008Y-2.6457
X3.7303Y-2.935
X3.7303Y-3.1004
X3.748Y-2.4449
X3.748Y-2.5157
X3.748Y-2.5433
X3.748Y-2.5866
X3.748Y-2.4685
X3.7539Y-2.6811
X3.7539Y-2.7047
X3.8081Y-2.5974
X3.8199Y-2.5787
X3.8209Y-2.6496
T2
X2.0276Y-2.5551
X2.0276Y-2.6496
X2.0276Y-2.7756
X2.0276Y-2.8701
X2.1339Y-2.3386
X2.1339Y-2.437
X2.1339Y-2.9882
X2.1339Y-3.0866
X2.1732Y-2.5551
X2.1732Y-2.6496
X2.1732Y-2.7756
X2.1732Y-2.8701
X2.252Y-2.9882
X2.252Y-3.0866
X2.2559Y-2.3386
X2.2559Y-2.437
X2.3051Y-3.1969
X2.3091Y-3.1043
X2.3406Y-3.7028
X2.3425Y-3.7815
X2.3622Y-2.7559
X2.3622Y-2.7953
X2.3622Y-2.8346
X2.3622Y-2.874
X2.378Y-3.7028
X2.3819Y-3.3465
X2.3819Y-3.7815
X2.3957Y-3.502
X2.3957Y-3.5295
X2.4075Y-3.2028
X2.4094Y-2.4724
X2.4114Y-3.064
X2.4114Y-3.4665
X2.4213Y-3.3465
X2.4213Y-3.7795
X2.435Y-3.5472
X2.4488Y-3.5984
X2.4518Y-3.1713
X2.4606Y-3.2283
X2.4606Y-3.2677
X2.4606Y-3.3071
X2.4606Y-3.3465
X2.4606Y-3.4035
X2.4606Y-3.7795
X2.4646Y-3.5098
X2.4724Y-2.937
X2.4764Y-2.4055
X2.5059Y-3.8031
X2.5059Y-3.8701
X2.5118Y-2.937
X2.5197Y-2.4252
X2.5374Y-3.1161
X2.5394Y-3.3465
X2.5433Y-2.4016
X2.5512Y-2.937
X2.5512Y-3.8504
X2.5551Y-3.063
X2.5709Y-3.5413
X2.5709Y-3.5906
X2.5709Y-3.6358
X2.5787Y-2.3583
X2.5787Y-2.4016
X2.5787Y-3.3465
X2.5906Y-2.937
X2.5965Y-3.8504
X2.5984Y-3.1732
X2.6181Y-2.5157
X2.6181Y-2.7874
X2.6181Y-2.8386
X2.6181Y-2.8898
X2.6181Y-3.5433
X2.6181Y-3.6358
X2.6299Y-2.937
X2.6417Y-3.8504
X2.6476Y-3.0768
X2.6654Y-3.5413
X2.6654Y-3.5906
X2.6654Y-3.6358
X2.6772Y-3.1732
X2.685Y-2.3858
X2.686Y-3.1102
X2.687Y-3.8504
X2.6929Y-2.5039
X2.7047Y-3.0039
X2.7165Y-2.3701
X2.7205Y-2.9252
X2.7205Y-2.9606
X2.7244Y-2.1102
X2.7244Y-3.252
X2.752Y-2.5
X2.7559Y-3.1732
X2.7559Y-3.2835
X2.7559Y-3.3307
X2.7559Y-3.7165
X2.7569Y-3.0404
X2.7598Y-3.8189
X2.8051Y-2.4154
X2.8071Y-2.8976
X2.811Y-2.7441
X2.811Y-2.9862
X2.8189Y-3.2835
X2.8346Y-2.4154
X2.8346Y-2.5079
X2.8346Y-2.5433
X2.8346Y-2.5709
X2.8346Y-2.6024
X2.8346Y-2.6339
X2.8346Y-2.6693
X2.8346Y-3.4173
X2.8346Y-3.4646
X2.8425Y-2.1102
X2.8425Y-3.811
X2.8583Y-2.8346
X2.8701Y-2.4075
X2.8819Y-3.2835
X2.8976Y-3.4173
X2.8976Y-3.4646
X2.9016Y-2.9154
X2.9055Y-3.6378
X2.9055Y-3.685
X2.9094Y-2.5984
X2.9094Y-2.6299
X2.9213Y-3.0945
X2.9213Y-3.0945
X2.9213Y-3.1732
X2.9252Y-2.8858
X2.9331Y-2.7756
X2.9331Y-2.8228
X2.9528Y-3.2913
X2.9528Y-3.4055
X2.9528Y-3.5984
X2.9606Y-3.3543
X2.9626Y-3.0472
X2.9724Y-2.4134
X2.9764Y-3.3228
X2.9803Y-3.4331
X2.9843Y-3.1417
X2.9843Y-3.5059
X2.9961Y-2.9823
X3.0039Y-2.7717
X3.0059Y-2.0906
X3.0079Y-3.4606
X3.0157Y-2.7087
X3.0157Y-3.0472
X3.0207Y-3.5059
X3.0207Y-3.5433
X3.0217Y-3.5886
X3.0236Y-2.5039
X3.0315Y-3.6378
X3.0394Y-3.1969
X3.0551Y-3.0945
X3.0551Y-3.2441
X3.0748Y-2.7047
X3.0748Y-3.6732
X3.0787Y-3.6063
X3.0906Y-2.3642
X3.0906Y-3.1732
X3.0925Y-2.4567
X3.1083Y-2.1476
X3.1122Y-2.2598
X3.1299Y-2.3169
X3.1378Y-2.4134
X3.1378Y-2.4902
X3.1752Y-3.6161
X3.2185Y-3.6634
X3.2205Y-2.2421
X3.2205Y-2.4154
X3.2402Y-2.3091
X3.2441Y-3.5433
X3.2638Y-2.1457
X3.2953Y-3.5906
X3.3228Y-2.5197
X3.3228Y-3.1575
X3.3366Y-3.4409
X3.3661Y-2.3858
X3.3898Y-2.1437
X3.4035Y-3.3799
X3.4055Y-2.3307
X3.4134Y-3.7205
X3.4134Y-3.7697
X3.4173Y-3.2598
X3.4587Y-2.4213
X3.4823Y-2.122
X3.5531Y-2.3642
X3.5571Y-3.376
X3.5571Y-3.4567
X3.5591Y-3.5394
X3.5846Y-2.9606
X3.6043Y-2.8819
X3.628Y-2.6614
X3.6535Y-3.2106
X3.6555Y-3.2598
X3.6594Y-3.2972
X3.6673Y-2.8799
X3.6752Y-2.7264
X3.6831Y-3.0118
X3.7067Y-3.2598
X3.7106Y-2.4016
X3.7126Y-2.565
X3.7126Y-2.6161
X3.7146Y-2.4921
X3.7146Y-3.4685
X3.748Y-3.2579
X3.7539Y-3.4232
X3.7579Y-2.7657
X3.7598Y-2.8976
X3.7972Y-3.0177
X3.8228Y-3.311
X3.8504Y-2.7815
X3.8563Y-2.3406
T3
X3.6516Y-2.1654
X3.6775Y-2.1027
X3.6775Y-2.228
X3.7402Y-2.0768
X3.7402Y-2.2539
X3.8028Y-2.1027
X3.8028Y-2.228
X3.8287Y-2.1654
X3.6516Y-3.7402
X3.6775Y-3.6775
X3.6775Y-3.8028
X3.7402Y-3.6516
X3.7402Y-3.8287
X3.8028Y-3.6775
X3.8028Y-3.8028
X3.8287Y-3.7402
X2.0768Y-3.7402
X2.1027Y-3.6775
X2.1027Y-3.8028
X2.1654Y-3.6516
X2.1654Y-3.8287
X2.228Y-3.6775
X2.228Y-3.8028
X2.2539Y-3.7402
X2.0768Y-2.1654
X2.1027Y-2.1027
X2.1027Y-2.228
X2.1654Y-2.0768
X2.1654Y-2.2539
X2.228Y-2.1027
X2.228Y-2.228
X2.2539Y-2.1654
T5
X3.8661Y-2.9016
X3.8661Y-2.9803
X3.8661Y-3.0591
X3.8661Y-3.1378
T6
X3.7402Y-3.7402
X2.1654Y-3.7402
X2.1654Y-2.1654
X3.7402Y-2.1654
T4
X2.1142Y-3.2618G85X2.1142Y-3.2736
G05
X2.1142Y-3.439G85X2.1142Y-3.4508
G05
X2.2835Y-3.2736G85X2.2835Y-3.2618
G05
X2.2835Y-3.4508G85X2.2835Y-3.439
G05
T0
M30
