G04 #@! TF.GenerationSoftware,KiCad,Pcbnew,6.0.0-d3dd2cf0fa~116~ubuntu20.04.1*
G04 #@! TF.CreationDate,2022-01-19T00:51:46+01:00*
G04 #@! TF.ProjectId,lensmount,6c656e73-6d6f-4756-9e74-2e6b69636164,rev?*
G04 #@! TF.SameCoordinates,Original*
G04 #@! TF.FileFunction,Copper,L1,Top*
G04 #@! TF.FilePolarity,Positive*
%FSLAX46Y46*%
G04 Gerber Fmt 4.6, Leading zero omitted, Abs format (unit mm)*
G04 Created by KiCad (PCBNEW 6.0.0-d3dd2cf0fa~116~ubuntu20.04.1) date 2022-01-19 00:51:46*
%MOMM*%
%LPD*%
G01*
G04 APERTURE LIST*
G04 #@! TA.AperFunction,ComponentPad*
%ADD10C,0.800000*%
G04 #@! TD*
G04 #@! TA.AperFunction,ComponentPad*
%ADD11C,6.000000*%
G04 #@! TD*
G04 #@! TA.AperFunction,ConnectorPad*
%ADD12C,0.784860*%
G04 #@! TD*
G04 #@! TA.AperFunction,ComponentPad*
%ADD13C,1.800000*%
G04 #@! TD*
G04 #@! TA.AperFunction,ViaPad*
%ADD14C,0.600000*%
G04 #@! TD*
G04 #@! TA.AperFunction,Conductor*
%ADD15C,0.300000*%
G04 #@! TD*
G04 #@! TA.AperFunction,Conductor*
%ADD16C,0.200000*%
G04 #@! TD*
G04 #@! TA.AperFunction,Conductor*
%ADD17C,0.600000*%
G04 #@! TD*
G04 APERTURE END LIST*
D10*
X121590990Y-118409010D03*
X120000000Y-117750000D03*
X118409010Y-118409010D03*
X117750000Y-120000000D03*
X118409010Y-121590990D03*
X120000000Y-122250000D03*
X121590990Y-121590990D03*
X122250000Y-120000000D03*
D11*
X120000000Y-120000000D03*
D10*
X121590990Y-78409010D03*
X120000000Y-77750000D03*
X118409010Y-78409010D03*
X117750000Y-80000000D03*
X118409010Y-81590990D03*
X120000000Y-82250000D03*
X121590990Y-81590990D03*
X122250000Y-80000000D03*
D11*
X120000000Y-80000000D03*
D10*
X81590990Y-118409010D03*
X80000000Y-117750000D03*
X78409010Y-118409010D03*
X77750000Y-120000000D03*
X78409010Y-121590990D03*
X80000000Y-122250000D03*
X81590990Y-121590990D03*
X82250000Y-120000000D03*
D11*
X80000000Y-120000000D03*
D10*
X81590990Y-78409010D03*
X80000000Y-77750000D03*
X78409010Y-78409010D03*
X77750000Y-80000000D03*
X78409010Y-81590990D03*
X80000000Y-82250000D03*
X81590990Y-81590990D03*
X82250000Y-80000000D03*
D11*
X80000000Y-80000000D03*
D12*
X114040000Y-77655000D03*
X115310000Y-77655000D03*
X114040000Y-78925000D03*
X115310000Y-78925000D03*
X114040000Y-80195000D03*
X115310000Y-80195000D03*
D13*
X101900000Y-122200000D03*
X104125000Y-121875000D03*
X99700000Y-122325000D03*
X106275000Y-121400000D03*
X96175000Y-122000000D03*
X108425000Y-120650000D03*
X94000000Y-121500000D03*
X91900000Y-120850000D03*
D14*
X91875000Y-77350000D03*
X91950000Y-79775000D03*
X85425000Y-83925000D03*
X84425000Y-84550000D03*
X84925000Y-83150000D03*
X90225000Y-121450000D03*
X91975000Y-122400000D03*
X88200000Y-122125000D03*
X90125000Y-122375000D03*
X84450000Y-80825000D03*
X103750000Y-77375000D03*
X105975000Y-75850000D03*
X105600000Y-79225000D03*
X109775000Y-76975000D03*
X112325000Y-76600000D03*
X119350000Y-90350000D03*
X121175000Y-87375000D03*
X121450000Y-86025000D03*
X122875000Y-89875000D03*
X123075000Y-93225000D03*
X123100000Y-100775000D03*
X120800000Y-106825000D03*
X123050000Y-109525000D03*
X122575000Y-112875000D03*
X118125000Y-115350000D03*
X118375000Y-111275000D03*
X77600000Y-87600000D03*
X78800000Y-89600000D03*
X82000000Y-83600000D03*
X78600000Y-109000000D03*
X77200000Y-112800000D03*
X79600000Y-115600000D03*
X82200000Y-112800000D03*
X86200000Y-116600000D03*
X89200000Y-119000000D03*
X112325000Y-80100000D03*
X120225000Y-87074989D03*
X116100000Y-78325000D03*
X113300000Y-119500000D03*
X119625000Y-113475000D03*
X119625000Y-112275000D03*
X114624415Y-79496321D03*
X113600000Y-81075000D03*
X119674990Y-110075000D03*
X120475000Y-115900000D03*
X123075000Y-92000000D03*
X85500000Y-122150000D03*
X85500000Y-123100000D03*
X87575000Y-120200000D03*
X85425003Y-117224997D03*
X119050000Y-89500000D03*
X79550000Y-111375000D03*
X118800000Y-88725000D03*
X78275000Y-112600000D03*
D15*
X112325000Y-80725000D02*
X112325000Y-80100000D01*
X117050000Y-82600000D02*
X114200000Y-82600000D01*
X114200000Y-82600000D02*
X112325000Y-80725000D01*
X117050000Y-81935000D02*
X115310000Y-80195000D01*
X117050000Y-82600000D02*
X117050000Y-81935000D01*
X120225000Y-86650725D02*
X120225000Y-87074989D01*
X117050000Y-82600000D02*
X120225000Y-85775000D01*
X120225000Y-85775000D02*
X120225000Y-86650725D01*
D16*
X115500000Y-78925000D02*
X116100000Y-78325000D01*
X115310000Y-78925000D02*
X115500000Y-78925000D01*
X112875000Y-119500000D02*
X113300000Y-119500000D01*
X109250000Y-123125000D02*
X112875000Y-119500000D01*
X102825000Y-123125000D02*
X109250000Y-123125000D01*
X101900000Y-122200000D02*
X102825000Y-123125000D01*
X104125000Y-121875000D02*
X104974989Y-122724989D01*
X104974989Y-122724989D02*
X109075011Y-122724989D01*
X109075011Y-122724989D02*
X118325000Y-113475000D01*
X118325000Y-113475000D02*
X119200736Y-113475000D01*
X119200736Y-113475000D02*
X119625000Y-113475000D01*
X119200736Y-112275000D02*
X119625000Y-112275000D01*
X118959300Y-112275000D02*
X119200736Y-112275000D01*
X108934301Y-122299999D02*
X118959300Y-112275000D01*
X107174999Y-122299999D02*
X108934301Y-122299999D01*
X106275000Y-121400000D02*
X107174999Y-122299999D01*
X114611321Y-79496321D02*
X114040000Y-78925000D01*
X114624415Y-79496321D02*
X114611321Y-79496321D01*
X114040000Y-80635000D02*
X114040000Y-80195000D01*
X113600000Y-81075000D02*
X114040000Y-80635000D01*
X120475000Y-115475736D02*
X120475000Y-115900000D01*
X119674990Y-110075000D02*
X120475000Y-110875010D01*
X120475000Y-110875010D02*
X120475000Y-115475736D01*
X92500000Y-123000000D02*
X94000000Y-121500000D01*
X86950000Y-123000000D02*
X92500000Y-123000000D01*
X123075000Y-92000000D02*
X124190566Y-93115566D01*
X86600000Y-121900000D02*
X86600000Y-122650000D01*
X124190566Y-93115566D02*
X124190566Y-121159434D01*
X124190566Y-121159434D02*
X121400000Y-123950000D01*
X121400000Y-123950000D02*
X99650000Y-123950000D01*
X99650000Y-123950000D02*
X99150000Y-124450000D01*
X86600000Y-122650000D02*
X86950000Y-123000000D01*
X99150000Y-124450000D02*
X85600000Y-124450000D01*
X85600000Y-124450000D02*
X84500000Y-123350000D01*
X84500000Y-123350000D02*
X84500000Y-121725000D01*
X84500000Y-121725000D02*
X85000000Y-121225000D01*
X85000000Y-121225000D02*
X85925000Y-121225000D01*
X85925000Y-121225000D02*
X86600000Y-121900000D01*
D17*
X85799999Y-123399999D02*
X85500000Y-123100000D01*
X86150000Y-123750000D02*
X85799999Y-123399999D01*
X98275000Y-123750000D02*
X86150000Y-123750000D01*
X99700000Y-122325000D02*
X98275000Y-123750000D01*
X85500000Y-123100000D02*
X85500000Y-122150000D01*
D16*
X87225000Y-119024994D02*
X85425003Y-117224997D01*
X87225000Y-119850000D02*
X87225000Y-119024994D01*
X87575000Y-120200000D02*
X87225000Y-119850000D01*
X79250001Y-111075001D02*
X79550000Y-111375000D01*
X77700011Y-109525011D02*
X79250001Y-111075001D01*
X77700011Y-89415689D02*
X77700011Y-109525011D01*
X88665689Y-78450011D02*
X77700011Y-89415689D01*
X118193045Y-89067309D02*
X118193045Y-87843045D01*
X118625736Y-89500000D02*
X118193045Y-89067309D01*
X119050000Y-89500000D02*
X118625736Y-89500000D01*
X118193045Y-87843045D02*
X108800011Y-78450011D01*
X108800011Y-78450011D02*
X88665689Y-78450011D01*
X77975001Y-112300001D02*
X78275000Y-112600000D01*
X118800000Y-88725000D02*
X118800000Y-87884300D01*
X118800000Y-87884300D02*
X108965700Y-78050000D01*
X77300000Y-111625000D02*
X77975001Y-112300001D01*
X88500000Y-78050000D02*
X77300000Y-89250000D01*
X108965700Y-78050000D02*
X88500000Y-78050000D01*
X77300000Y-89250000D02*
X77300000Y-111625000D01*
G04 #@! TA.AperFunction,Conductor*
G36*
X119985683Y-75301933D02*
G01*
X119999642Y-75305143D01*
X120008831Y-75303064D01*
X120028914Y-75301263D01*
X120221554Y-75309673D01*
X120406325Y-75317741D01*
X120412917Y-75318317D01*
X120812865Y-75370972D01*
X120819394Y-75372124D01*
X121213196Y-75459428D01*
X121219601Y-75461144D01*
X121604335Y-75582450D01*
X121610565Y-75584717D01*
X121983240Y-75739084D01*
X121989248Y-75741886D01*
X122034210Y-75765291D01*
X122347055Y-75928148D01*
X122352797Y-75931463D01*
X122693012Y-76148204D01*
X122698441Y-76152006D01*
X122823879Y-76248257D01*
X123018470Y-76397572D01*
X123023547Y-76401832D01*
X123320964Y-76674364D01*
X123325636Y-76679036D01*
X123589271Y-76966744D01*
X123598166Y-76976451D01*
X123602426Y-76981528D01*
X123843059Y-77295127D01*
X123847993Y-77301557D01*
X123851796Y-77306988D01*
X124068537Y-77647203D01*
X124071852Y-77652945D01*
X124258114Y-78010751D01*
X124260916Y-78016760D01*
X124415283Y-78389435D01*
X124417550Y-78395665D01*
X124538856Y-78780399D01*
X124540572Y-78786804D01*
X124627876Y-79180606D01*
X124629028Y-79187134D01*
X124669734Y-79496321D01*
X124681682Y-79587077D01*
X124682259Y-79593675D01*
X124687601Y-79716019D01*
X124698716Y-79970605D01*
X124696855Y-79990950D01*
X124696775Y-79991298D01*
X124696775Y-79991301D01*
X124694857Y-79999642D01*
X124696746Y-80007990D01*
X124698126Y-80014089D01*
X124700000Y-80030862D01*
X124700000Y-99824000D01*
X124682219Y-99872852D01*
X124637197Y-99898845D01*
X124624000Y-99900000D01*
X124567066Y-99900000D01*
X124518214Y-99882219D01*
X124492221Y-99837197D01*
X124491066Y-99824000D01*
X124491066Y-93170054D01*
X124491460Y-93164686D01*
X124492992Y-93160224D01*
X124491120Y-93110363D01*
X124491066Y-93107512D01*
X124491066Y-93087618D01*
X124490424Y-93084170D01*
X124490129Y-93080978D01*
X124489863Y-93076886D01*
X124488792Y-93048358D01*
X124483237Y-93035428D01*
X124478353Y-93019355D01*
X124475775Y-93005513D01*
X124460912Y-92981401D01*
X124455782Y-92971525D01*
X124444602Y-92945504D01*
X124440589Y-92940617D01*
X124434321Y-92934349D01*
X124423366Y-92920491D01*
X124417034Y-92910218D01*
X124392566Y-92891613D01*
X124384829Y-92884857D01*
X123598387Y-92098415D01*
X123576416Y-92051299D01*
X123577180Y-92032067D01*
X123580008Y-92015258D01*
X123580009Y-92015250D01*
X123580496Y-92012354D01*
X123580647Y-92000000D01*
X123579763Y-91993823D01*
X123561091Y-91863443D01*
X123561091Y-91863441D01*
X123560323Y-91858082D01*
X123500984Y-91727572D01*
X123407400Y-91618963D01*
X123396721Y-91612041D01*
X123291636Y-91543928D01*
X123291634Y-91543927D01*
X123287095Y-91540985D01*
X123149739Y-91499907D01*
X123092054Y-91499555D01*
X123011791Y-91499064D01*
X123011790Y-91499064D01*
X123006376Y-91499031D01*
X122868529Y-91538428D01*
X122747280Y-91614930D01*
X122652377Y-91722388D01*
X122650078Y-91727284D01*
X122650077Y-91727286D01*
X122596315Y-91841796D01*
X122591447Y-91852163D01*
X122590614Y-91857514D01*
X122590613Y-91857517D01*
X122571308Y-91981509D01*
X122569391Y-91993823D01*
X122570093Y-91999191D01*
X122570093Y-91999192D01*
X122571429Y-92009410D01*
X122587980Y-92135979D01*
X122645720Y-92267203D01*
X122737970Y-92376948D01*
X122857313Y-92456390D01*
X122947154Y-92484458D01*
X122988990Y-92497528D01*
X122988992Y-92497528D01*
X122994157Y-92499142D01*
X123090416Y-92500907D01*
X123121404Y-92501475D01*
X123173751Y-92523722D01*
X123867806Y-93217777D01*
X123889777Y-93264893D01*
X123890066Y-93271517D01*
X123890066Y-99824000D01*
X123872285Y-99872852D01*
X123827263Y-99898845D01*
X123814066Y-99900000D01*
X121177200Y-99900000D01*
X121128348Y-99882219D01*
X121102355Y-99837197D01*
X121101218Y-99825658D01*
X121084953Y-99080226D01*
X121084953Y-99080215D01*
X121084935Y-99079412D01*
X121024711Y-98160576D01*
X120924466Y-97245242D01*
X120784389Y-96335151D01*
X120604749Y-95432037D01*
X120385886Y-94537618D01*
X120128217Y-93653597D01*
X119832233Y-92781657D01*
X119723277Y-92501475D01*
X119498793Y-91924216D01*
X119498789Y-91924207D01*
X119498498Y-91923458D01*
X119467128Y-91852163D01*
X119331501Y-91543928D01*
X119127646Y-91080632D01*
X118720383Y-90254785D01*
X118534647Y-89916233D01*
X118526738Y-89864852D01*
X118553708Y-89820408D01*
X118604651Y-89803880D01*
X118610802Y-89805340D01*
X118617752Y-89804394D01*
X118620325Y-89804520D01*
X118668250Y-89824666D01*
X118674789Y-89831526D01*
X118712970Y-89876948D01*
X118832313Y-89956390D01*
X118922154Y-89984458D01*
X118963990Y-89997528D01*
X118963992Y-89997528D01*
X118969157Y-89999142D01*
X119046291Y-90000556D01*
X119107088Y-90001671D01*
X119107089Y-90001671D01*
X119112499Y-90001770D01*
X119117717Y-90000347D01*
X119117720Y-90000347D01*
X119199629Y-89978015D01*
X119250817Y-89964060D01*
X119255429Y-89961228D01*
X119255432Y-89961227D01*
X119328709Y-89916234D01*
X119372991Y-89889045D01*
X119469200Y-89782754D01*
X119471562Y-89777879D01*
X119471564Y-89777876D01*
X119529347Y-89658610D01*
X119531710Y-89653733D01*
X119555496Y-89512354D01*
X119555647Y-89500000D01*
X119535323Y-89358082D01*
X119475984Y-89227572D01*
X119382400Y-89118963D01*
X119273521Y-89048391D01*
X119242199Y-89006901D01*
X119246464Y-88951481D01*
X119281710Y-88878733D01*
X119305496Y-88737354D01*
X119305647Y-88725000D01*
X119296379Y-88660280D01*
X119286091Y-88588443D01*
X119286091Y-88588441D01*
X119285323Y-88583082D01*
X119225984Y-88452572D01*
X119132400Y-88343963D01*
X119127855Y-88341017D01*
X119126539Y-88339869D01*
X119101415Y-88294356D01*
X119100500Y-88282598D01*
X119100500Y-87938785D01*
X119100894Y-87933417D01*
X119102425Y-87928958D01*
X119100553Y-87879085D01*
X119100500Y-87876234D01*
X119100500Y-87856352D01*
X119099860Y-87852912D01*
X119099563Y-87849699D01*
X119099295Y-87845564D01*
X119098489Y-87824104D01*
X119098226Y-87817091D01*
X119092673Y-87804166D01*
X119087784Y-87788075D01*
X119086494Y-87781146D01*
X119086493Y-87781145D01*
X119085209Y-87774247D01*
X119081529Y-87768276D01*
X119081527Y-87768272D01*
X119070347Y-87750136D01*
X119065215Y-87740256D01*
X119056156Y-87719171D01*
X119056156Y-87719170D01*
X119054036Y-87714237D01*
X119050022Y-87709351D01*
X119043757Y-87703086D01*
X119032801Y-87689226D01*
X119030150Y-87684925D01*
X119026468Y-87678952D01*
X119001996Y-87660343D01*
X118994259Y-87653588D01*
X114420911Y-83080240D01*
X114398940Y-83033124D01*
X114412395Y-82982908D01*
X114454981Y-82953090D01*
X114474651Y-82950500D01*
X116873338Y-82950500D01*
X116922190Y-82968281D01*
X116927078Y-82972760D01*
X119852240Y-85897922D01*
X119874211Y-85945038D01*
X119874500Y-85951662D01*
X119874500Y-86686957D01*
X119855465Y-86737266D01*
X119802377Y-86797377D01*
X119800078Y-86802273D01*
X119800077Y-86802275D01*
X119746315Y-86916785D01*
X119741447Y-86927152D01*
X119740614Y-86932503D01*
X119740613Y-86932506D01*
X119721308Y-87056498D01*
X119719391Y-87068812D01*
X119720093Y-87074180D01*
X119720093Y-87074181D01*
X119721431Y-87084412D01*
X119737980Y-87210968D01*
X119795720Y-87342192D01*
X119887970Y-87451937D01*
X120007313Y-87531379D01*
X120097154Y-87559447D01*
X120138990Y-87572517D01*
X120138992Y-87572517D01*
X120144157Y-87574131D01*
X120221291Y-87575545D01*
X120282088Y-87576660D01*
X120282089Y-87576660D01*
X120287499Y-87576759D01*
X120292717Y-87575336D01*
X120292720Y-87575336D01*
X120374629Y-87553004D01*
X120425817Y-87539049D01*
X120430429Y-87536217D01*
X120430432Y-87536216D01*
X120499725Y-87493670D01*
X120547991Y-87464034D01*
X120644200Y-87357743D01*
X120646562Y-87352868D01*
X120646564Y-87352865D01*
X120704347Y-87233599D01*
X120706710Y-87228722D01*
X120730496Y-87087343D01*
X120730647Y-87074989D01*
X120729763Y-87068812D01*
X120711091Y-86938432D01*
X120711091Y-86938430D01*
X120710323Y-86933071D01*
X120650984Y-86802561D01*
X120593925Y-86736341D01*
X120575500Y-86686731D01*
X120575500Y-85820504D01*
X120577202Y-85804509D01*
X120578629Y-85797882D01*
X120578629Y-85797879D01*
X120579951Y-85791739D01*
X120576027Y-85758585D01*
X120575500Y-85749653D01*
X120575500Y-85745885D01*
X120574986Y-85742797D01*
X120574985Y-85742785D01*
X120572414Y-85727341D01*
X120571909Y-85723794D01*
X120566975Y-85682100D01*
X120566974Y-85682097D01*
X120566236Y-85675861D01*
X120563516Y-85670197D01*
X120563328Y-85669549D01*
X120563118Y-85668627D01*
X120562795Y-85667606D01*
X120562441Y-85666741D01*
X120562220Y-85666095D01*
X120561188Y-85659897D01*
X120538253Y-85617393D01*
X120536632Y-85614211D01*
X120517796Y-85574984D01*
X120517794Y-85574982D01*
X120515726Y-85570674D01*
X120512408Y-85566726D01*
X120511362Y-85565680D01*
X120508555Y-85562353D01*
X120505778Y-85557206D01*
X120468650Y-85522885D01*
X120466499Y-85520817D01*
X117422760Y-82477078D01*
X117403070Y-82434854D01*
X117923984Y-82434854D01*
X117925436Y-82440271D01*
X117955467Y-82468080D01*
X117958741Y-82470789D01*
X118243326Y-82680603D01*
X118246879Y-82682929D01*
X118553088Y-82859718D01*
X118556852Y-82861619D01*
X118880881Y-83003184D01*
X118884831Y-83004653D01*
X119222601Y-83109211D01*
X119226714Y-83110236D01*
X119574023Y-83176488D01*
X119578236Y-83177050D01*
X119930769Y-83204177D01*
X119934991Y-83204265D01*
X120288368Y-83191925D01*
X120292572Y-83191542D01*
X120642370Y-83139889D01*
X120646507Y-83139040D01*
X120988362Y-83048718D01*
X120992391Y-83047409D01*
X121322047Y-82919543D01*
X121325889Y-82917800D01*
X121639251Y-82753980D01*
X121642866Y-82751825D01*
X121936003Y-82554101D01*
X121939388Y-82551532D01*
X122068878Y-82441326D01*
X122074276Y-82431824D01*
X122073378Y-82426932D01*
X120009476Y-80363029D01*
X119999574Y-80358411D01*
X119993519Y-80360034D01*
X117928602Y-82424952D01*
X117923984Y-82434854D01*
X117403070Y-82434854D01*
X117400789Y-82429962D01*
X117400500Y-82423338D01*
X117400500Y-82090183D01*
X117418281Y-82041331D01*
X117463303Y-82015338D01*
X117514500Y-82024365D01*
X117534031Y-82040523D01*
X117558580Y-82068963D01*
X117568117Y-82074293D01*
X117573104Y-82073342D01*
X119636971Y-80009476D01*
X119641192Y-80000426D01*
X120358411Y-80000426D01*
X120360034Y-80006481D01*
X122425636Y-82072082D01*
X122435538Y-82076700D01*
X122441065Y-82075219D01*
X122453759Y-82061700D01*
X122456467Y-82058474D01*
X122668282Y-81775335D01*
X122670618Y-81771819D01*
X122849542Y-81466850D01*
X122851483Y-81463073D01*
X122995291Y-81140077D01*
X122996800Y-81136104D01*
X123103707Y-80799088D01*
X123104761Y-80794985D01*
X123173438Y-80448143D01*
X123174030Y-80443927D01*
X123203680Y-80090829D01*
X123203811Y-80088159D01*
X123205024Y-80001320D01*
X123204967Y-79998661D01*
X123185187Y-79644861D01*
X123184714Y-79640647D01*
X123125747Y-79292009D01*
X123124813Y-79287900D01*
X123027350Y-78948007D01*
X123025955Y-78944002D01*
X122891224Y-78617119D01*
X122889384Y-78613280D01*
X122719055Y-78303451D01*
X122716806Y-78299852D01*
X122512992Y-78010928D01*
X122510362Y-78007609D01*
X122441935Y-77930537D01*
X122432326Y-77925341D01*
X122427150Y-77926404D01*
X120363029Y-79990524D01*
X120358411Y-80000426D01*
X119641192Y-80000426D01*
X119641589Y-79999574D01*
X119639966Y-79993519D01*
X117575621Y-77929175D01*
X117565719Y-77924557D01*
X117560410Y-77925980D01*
X117517703Y-77972751D01*
X117515020Y-77976041D01*
X117307198Y-78262082D01*
X117304902Y-78265645D01*
X117130246Y-78573096D01*
X117128375Y-78576865D01*
X116989080Y-78901865D01*
X116987633Y-78905840D01*
X116885437Y-79244329D01*
X116884441Y-79248448D01*
X116820615Y-79596208D01*
X116820083Y-79600419D01*
X116795418Y-79953127D01*
X116795359Y-79957382D01*
X116810165Y-80310634D01*
X116810579Y-80314857D01*
X116864671Y-80664267D01*
X116865553Y-80668416D01*
X116958255Y-81009614D01*
X116959596Y-81013645D01*
X117044243Y-81227441D01*
X117045695Y-81279407D01*
X117013403Y-81320149D01*
X116962478Y-81330603D01*
X116919840Y-81309158D01*
X115856026Y-80245344D01*
X115834055Y-80198228D01*
X115834039Y-80197863D01*
X115834416Y-80195000D01*
X115823916Y-80115241D01*
X115817197Y-80064205D01*
X115817196Y-80064202D01*
X115816547Y-80059271D01*
X115774399Y-79957517D01*
X115766064Y-79937393D01*
X115766063Y-79937392D01*
X115764158Y-79932792D01*
X115680818Y-79824182D01*
X115572208Y-79740842D01*
X115567608Y-79738937D01*
X115567607Y-79738936D01*
X115519387Y-79718963D01*
X115445729Y-79688453D01*
X115440798Y-79687804D01*
X115440795Y-79687803D01*
X115314937Y-79671234D01*
X115310000Y-79670584D01*
X115305063Y-79671234D01*
X115199898Y-79685079D01*
X115149143Y-79673827D01*
X115117495Y-79632583D01*
X115115031Y-79597120D01*
X115129423Y-79511575D01*
X115129911Y-79508675D01*
X115129947Y-79505729D01*
X115129963Y-79505551D01*
X115152034Y-79458481D01*
X115199196Y-79436610D01*
X115215576Y-79436985D01*
X115310000Y-79449416D01*
X115314937Y-79448766D01*
X115440795Y-79432197D01*
X115440798Y-79432196D01*
X115445729Y-79431547D01*
X115533749Y-79395088D01*
X115567607Y-79381064D01*
X115567608Y-79381063D01*
X115572208Y-79379158D01*
X115680818Y-79295818D01*
X115764158Y-79187208D01*
X115816547Y-79060729D01*
X115817197Y-79055795D01*
X115817198Y-79055790D01*
X115817321Y-79054855D01*
X115817600Y-79054289D01*
X115818487Y-79050979D01*
X115819146Y-79051155D01*
X115838930Y-79011041D01*
X116002870Y-78847101D01*
X116049986Y-78825130D01*
X116058001Y-78824854D01*
X116090067Y-78825442D01*
X116157088Y-78826671D01*
X116157089Y-78826671D01*
X116162499Y-78826770D01*
X116167717Y-78825347D01*
X116167720Y-78825347D01*
X116281945Y-78794205D01*
X116300817Y-78789060D01*
X116305429Y-78786228D01*
X116305432Y-78786227D01*
X116374725Y-78743681D01*
X116422991Y-78714045D01*
X116519200Y-78607754D01*
X116521562Y-78602879D01*
X116521564Y-78602876D01*
X116579347Y-78483610D01*
X116581710Y-78478733D01*
X116583359Y-78468936D01*
X116601942Y-78358477D01*
X116605496Y-78337354D01*
X116605647Y-78325000D01*
X116604763Y-78318823D01*
X116586091Y-78188443D01*
X116586091Y-78188441D01*
X116585323Y-78183082D01*
X116525984Y-78052572D01*
X116460040Y-77976041D01*
X116435933Y-77948063D01*
X116435932Y-77948062D01*
X116432400Y-77943963D01*
X116384024Y-77912607D01*
X116316636Y-77868928D01*
X116316634Y-77868927D01*
X116312095Y-77865985D01*
X116174739Y-77824907D01*
X116117054Y-77824555D01*
X116036791Y-77824064D01*
X116036790Y-77824064D01*
X116031376Y-77824031D01*
X115997941Y-77833587D01*
X115997199Y-77833799D01*
X115990928Y-77835591D01*
X115939070Y-77831919D01*
X115901706Y-77795773D01*
X115894693Y-77752597D01*
X115906892Y-77659937D01*
X115906892Y-77650063D01*
X115896082Y-77567951D01*
X117925579Y-77567951D01*
X117926585Y-77573031D01*
X119990524Y-79636971D01*
X120000426Y-79641589D01*
X120006481Y-79639966D01*
X122070361Y-77576085D01*
X122074979Y-77566183D01*
X122073584Y-77560979D01*
X122009873Y-77503613D01*
X122006562Y-77500951D01*
X121719069Y-77295127D01*
X121715500Y-77292862D01*
X121406848Y-77120361D01*
X121403045Y-77118506D01*
X121077091Y-76981488D01*
X121073100Y-76980067D01*
X120733909Y-76880238D01*
X120729780Y-76879270D01*
X120381587Y-76817874D01*
X120377369Y-76817371D01*
X120024492Y-76795169D01*
X120020254Y-76795140D01*
X119667114Y-76812412D01*
X119662873Y-76812858D01*
X119313864Y-76869384D01*
X119309715Y-76870296D01*
X118969172Y-76965377D01*
X118965157Y-76966744D01*
X118637328Y-77099195D01*
X118633487Y-77101003D01*
X118322480Y-77269164D01*
X118318851Y-77271397D01*
X118028534Y-77473173D01*
X118025175Y-77475796D01*
X117930841Y-77558379D01*
X117925579Y-77567951D01*
X115896082Y-77567951D01*
X115887831Y-77505279D01*
X115885277Y-77495747D01*
X115872107Y-77463955D01*
X115864954Y-77456148D01*
X115859307Y-77459246D01*
X115116050Y-78202503D01*
X115111575Y-78212099D01*
X115116599Y-78216132D01*
X115150747Y-78230277D01*
X115160279Y-78232831D01*
X115299905Y-78251213D01*
X115308418Y-78255645D01*
X115313566Y-78252365D01*
X115320095Y-78251213D01*
X115459721Y-78232831D01*
X115469256Y-78230276D01*
X115492763Y-78220539D01*
X115544700Y-78218272D01*
X115585944Y-78249920D01*
X115596941Y-78302446D01*
X115594391Y-78318823D01*
X115595093Y-78324191D01*
X115595093Y-78324193D01*
X115599576Y-78358477D01*
X115588280Y-78409222D01*
X115577958Y-78422071D01*
X115577696Y-78422333D01*
X115530580Y-78444304D01*
X115494873Y-78438808D01*
X115450331Y-78420359D01*
X115450330Y-78420359D01*
X115445729Y-78418453D01*
X115375613Y-78409222D01*
X115320095Y-78401913D01*
X115311583Y-78397482D01*
X115306434Y-78400762D01*
X115299905Y-78401913D01*
X115179205Y-78417803D01*
X115179202Y-78417804D01*
X115174271Y-78418453D01*
X115111861Y-78444304D01*
X115052393Y-78468936D01*
X115052392Y-78468937D01*
X115047792Y-78470842D01*
X114939182Y-78554182D01*
X114855842Y-78662792D01*
X114803453Y-78789271D01*
X114802804Y-78794202D01*
X114802803Y-78794205D01*
X114791028Y-78883651D01*
X114785584Y-78925000D01*
X114785098Y-78924936D01*
X114768453Y-78970668D01*
X114723431Y-78996661D01*
X114701560Y-78996947D01*
X114699154Y-78996228D01*
X114680637Y-78996115D01*
X114639301Y-78995862D01*
X114590559Y-78977783D01*
X114564841Y-78932602D01*
X114564284Y-78926002D01*
X114564416Y-78925000D01*
X114560464Y-78894978D01*
X114547197Y-78794205D01*
X114547196Y-78794202D01*
X114546547Y-78789271D01*
X114494158Y-78662792D01*
X114410818Y-78554182D01*
X114302208Y-78470842D01*
X114297608Y-78468937D01*
X114297607Y-78468936D01*
X114238139Y-78444304D01*
X114175729Y-78418453D01*
X114170798Y-78417804D01*
X114170795Y-78417803D01*
X114044937Y-78401234D01*
X114040000Y-78400584D01*
X114035063Y-78401234D01*
X113909205Y-78417803D01*
X113909202Y-78417804D01*
X113904271Y-78418453D01*
X113841861Y-78444304D01*
X113782393Y-78468936D01*
X113782392Y-78468937D01*
X113777792Y-78470842D01*
X113669182Y-78554182D01*
X113585842Y-78662792D01*
X113533453Y-78789271D01*
X113532804Y-78794202D01*
X113532803Y-78794205D01*
X113521028Y-78883651D01*
X113515584Y-78925000D01*
X113516234Y-78929937D01*
X113532803Y-79055790D01*
X113533453Y-79060729D01*
X113585842Y-79187208D01*
X113669182Y-79295818D01*
X113777792Y-79379158D01*
X113782392Y-79381063D01*
X113782393Y-79381064D01*
X113816251Y-79395088D01*
X113904271Y-79431547D01*
X113909202Y-79432196D01*
X113909205Y-79432197D01*
X114025850Y-79447553D01*
X114040000Y-79449416D01*
X114044937Y-79448766D01*
X114046687Y-79448766D01*
X114095539Y-79466547D01*
X114122044Y-79514909D01*
X114131365Y-79586183D01*
X114120068Y-79636926D01*
X114078796Y-79668538D01*
X114049920Y-79671052D01*
X114049920Y-79671234D01*
X114047824Y-79671234D01*
X114046089Y-79671385D01*
X114044942Y-79671234D01*
X114044937Y-79671234D01*
X114040000Y-79670584D01*
X114035063Y-79671234D01*
X113909205Y-79687803D01*
X113909202Y-79687804D01*
X113904271Y-79688453D01*
X113830613Y-79718963D01*
X113782393Y-79738936D01*
X113782392Y-79738937D01*
X113777792Y-79740842D01*
X113669182Y-79824182D01*
X113585842Y-79932792D01*
X113583937Y-79937392D01*
X113583936Y-79937393D01*
X113575601Y-79957517D01*
X113533453Y-80059271D01*
X113532804Y-80064202D01*
X113532803Y-80064205D01*
X113526084Y-80115241D01*
X113515584Y-80195000D01*
X113533453Y-80330729D01*
X113585842Y-80457208D01*
X113588873Y-80461158D01*
X113588914Y-80461229D01*
X113597943Y-80512426D01*
X113571950Y-80557449D01*
X113534489Y-80574050D01*
X113531376Y-80574031D01*
X113393529Y-80613428D01*
X113272280Y-80689930D01*
X113268696Y-80693988D01*
X113212755Y-80757330D01*
X113177377Y-80797388D01*
X113175078Y-80802284D01*
X113175077Y-80802286D01*
X113132541Y-80892884D01*
X113095684Y-80929547D01*
X113043883Y-80933942D01*
X113010006Y-80914324D01*
X112697760Y-80602078D01*
X112675789Y-80554962D01*
X112675500Y-80548338D01*
X112675500Y-80487940D01*
X112695153Y-80436941D01*
X112744200Y-80382754D01*
X112746562Y-80377879D01*
X112746564Y-80377876D01*
X112804347Y-80258610D01*
X112806710Y-80253733D01*
X112808122Y-80245344D01*
X112830010Y-80115241D01*
X112830496Y-80112354D01*
X112830647Y-80100000D01*
X112829763Y-80093823D01*
X112811091Y-79963443D01*
X112811091Y-79963441D01*
X112810323Y-79958082D01*
X112750984Y-79827572D01*
X112657400Y-79718963D01*
X112609326Y-79687803D01*
X112541636Y-79643928D01*
X112541634Y-79643927D01*
X112537095Y-79640985D01*
X112399739Y-79599907D01*
X112342054Y-79599555D01*
X112261791Y-79599064D01*
X112261790Y-79599064D01*
X112256376Y-79599031D01*
X112118529Y-79638428D01*
X111997280Y-79714930D01*
X111902377Y-79822388D01*
X111900078Y-79827284D01*
X111900077Y-79827286D01*
X111879291Y-79871558D01*
X111841447Y-79952163D01*
X111840614Y-79957514D01*
X111840613Y-79957517D01*
X111824771Y-80059271D01*
X111819391Y-80093823D01*
X111820093Y-80099191D01*
X111820093Y-80099192D01*
X111821431Y-80109423D01*
X111837980Y-80235979D01*
X111847696Y-80258059D01*
X111880157Y-80331833D01*
X111883557Y-80383709D01*
X111852816Y-80425634D01*
X111802319Y-80437990D01*
X111756853Y-80416182D01*
X109216712Y-77876041D01*
X109213197Y-77871969D01*
X109211125Y-77867731D01*
X109196164Y-77853852D01*
X109174546Y-77833799D01*
X109172492Y-77831821D01*
X109158423Y-77817752D01*
X109155529Y-77815766D01*
X109153071Y-77813724D01*
X109149958Y-77810990D01*
X109129054Y-77791599D01*
X109115981Y-77786383D01*
X109101156Y-77778467D01*
X109095343Y-77774479D01*
X109095342Y-77774479D01*
X109089554Y-77770508D01*
X109061987Y-77763966D01*
X109051386Y-77760613D01*
X109025078Y-77750117D01*
X109018785Y-77749500D01*
X109009922Y-77749500D01*
X108992374Y-77747446D01*
X108987461Y-77746280D01*
X108987460Y-77746280D01*
X108980634Y-77744660D01*
X108973683Y-77745606D01*
X108973682Y-77745606D01*
X108950168Y-77748806D01*
X108939920Y-77749500D01*
X88554485Y-77749500D01*
X88549117Y-77749106D01*
X88544658Y-77747575D01*
X88537649Y-77747838D01*
X88537648Y-77747838D01*
X88494786Y-77749447D01*
X88491935Y-77749500D01*
X88472052Y-77749500D01*
X88468612Y-77750141D01*
X88465400Y-77750437D01*
X88461267Y-77750705D01*
X88432792Y-77751774D01*
X88419862Y-77757329D01*
X88403789Y-77762213D01*
X88389947Y-77764791D01*
X88383973Y-77768473D01*
X88383974Y-77768473D01*
X88365836Y-77779653D01*
X88355956Y-77784785D01*
X88340097Y-77791599D01*
X88329937Y-77795964D01*
X88325051Y-77799978D01*
X88318786Y-77806243D01*
X88304927Y-77817199D01*
X88294652Y-77823532D01*
X88290405Y-77829117D01*
X88290404Y-77829118D01*
X88276044Y-77848003D01*
X88269288Y-77855741D01*
X77126041Y-88998988D01*
X77121969Y-89002503D01*
X77117731Y-89004575D01*
X77112958Y-89009720D01*
X77112957Y-89009721D01*
X77083799Y-89041154D01*
X77081821Y-89043208D01*
X77067752Y-89057277D01*
X77065766Y-89060171D01*
X77063724Y-89062629D01*
X77060990Y-89065741D01*
X77041599Y-89086646D01*
X77036383Y-89099719D01*
X77028467Y-89114543D01*
X77020508Y-89126146D01*
X77013966Y-89153713D01*
X77010613Y-89164314D01*
X77000117Y-89190622D01*
X76999500Y-89196915D01*
X76999500Y-89205778D01*
X76997446Y-89223326D01*
X76994660Y-89235066D01*
X76995606Y-89242017D01*
X76995606Y-89242018D01*
X76998806Y-89265532D01*
X76999500Y-89275780D01*
X76999500Y-111570515D01*
X76999106Y-111575883D01*
X76997575Y-111580342D01*
X76997838Y-111587351D01*
X76997838Y-111587352D01*
X76999447Y-111630214D01*
X76999500Y-111633065D01*
X76999500Y-111652948D01*
X77000141Y-111656388D01*
X77000437Y-111659600D01*
X77000705Y-111663733D01*
X77001774Y-111692208D01*
X77007329Y-111705138D01*
X77012213Y-111721211D01*
X77014791Y-111735053D01*
X77018473Y-111741026D01*
X77029653Y-111759164D01*
X77034785Y-111769044D01*
X77045964Y-111795063D01*
X77049978Y-111799949D01*
X77056243Y-111806214D01*
X77067199Y-111820073D01*
X77073532Y-111830348D01*
X77079117Y-111834595D01*
X77079118Y-111834596D01*
X77098003Y-111848956D01*
X77105741Y-111855712D01*
X77752129Y-112502100D01*
X77774100Y-112549216D01*
X77773484Y-112567530D01*
X77770341Y-112587719D01*
X77769391Y-112593823D01*
X77770093Y-112599191D01*
X77770093Y-112599192D01*
X77771431Y-112609423D01*
X77787980Y-112735979D01*
X77845720Y-112867203D01*
X77937970Y-112976948D01*
X78057313Y-113056390D01*
X78147154Y-113084458D01*
X78188990Y-113097528D01*
X78188992Y-113097528D01*
X78194157Y-113099142D01*
X78271291Y-113100556D01*
X78332088Y-113101671D01*
X78332089Y-113101671D01*
X78337499Y-113101770D01*
X78342717Y-113100347D01*
X78342720Y-113100347D01*
X78424629Y-113078015D01*
X78475817Y-113064060D01*
X78480429Y-113061228D01*
X78480432Y-113061227D01*
X78549725Y-113018681D01*
X78597991Y-112989045D01*
X78694200Y-112882754D01*
X78696562Y-112877879D01*
X78696564Y-112877876D01*
X78754347Y-112758610D01*
X78756710Y-112753733D01*
X78760198Y-112733005D01*
X78771799Y-112664045D01*
X78780496Y-112612354D01*
X78780647Y-112600000D01*
X78779763Y-112593823D01*
X78761091Y-112463443D01*
X78761091Y-112463441D01*
X78760323Y-112458082D01*
X78700984Y-112327572D01*
X78607400Y-112218963D01*
X78602858Y-112216019D01*
X78491636Y-112143928D01*
X78491634Y-112143927D01*
X78487095Y-112140985D01*
X78367916Y-112105343D01*
X78354922Y-112101457D01*
X78349739Y-112099907D01*
X78328454Y-112099777D01*
X78230164Y-112099176D01*
X78181422Y-112081097D01*
X78176889Y-112076917D01*
X77622760Y-111522789D01*
X77600789Y-111475673D01*
X77600500Y-111469049D01*
X77600500Y-110033951D01*
X77618281Y-109985099D01*
X77663303Y-109959106D01*
X77714500Y-109968133D01*
X77730240Y-109980211D01*
X79027129Y-111277100D01*
X79049100Y-111324216D01*
X79048484Y-111342530D01*
X79045224Y-111363471D01*
X79044391Y-111368823D01*
X79045093Y-111374191D01*
X79045093Y-111374192D01*
X79046431Y-111384423D01*
X79062980Y-111510979D01*
X79120720Y-111642203D01*
X79212970Y-111751948D01*
X79332313Y-111831390D01*
X79388540Y-111848956D01*
X79463990Y-111872528D01*
X79463992Y-111872528D01*
X79469157Y-111874142D01*
X79546291Y-111875556D01*
X79607088Y-111876671D01*
X79607089Y-111876671D01*
X79612499Y-111876770D01*
X79617717Y-111875347D01*
X79617720Y-111875347D01*
X79714519Y-111848956D01*
X79750817Y-111839060D01*
X79755429Y-111836228D01*
X79755432Y-111836227D01*
X79864849Y-111769044D01*
X79872991Y-111764045D01*
X79969200Y-111657754D01*
X79971562Y-111652879D01*
X79971564Y-111652876D01*
X80029347Y-111533610D01*
X80031710Y-111528733D01*
X80055496Y-111387354D01*
X80055647Y-111375000D01*
X80054763Y-111368823D01*
X80036091Y-111238443D01*
X80036091Y-111238441D01*
X80035323Y-111233082D01*
X79975984Y-111102572D01*
X79882400Y-110993963D01*
X79856570Y-110977221D01*
X79766636Y-110918928D01*
X79766634Y-110918927D01*
X79762095Y-110915985D01*
X79624739Y-110874907D01*
X79603214Y-110874775D01*
X79505163Y-110874176D01*
X79456421Y-110856097D01*
X79451888Y-110851917D01*
X78022771Y-109422800D01*
X78000800Y-109375684D01*
X78000511Y-109369060D01*
X78000511Y-89571640D01*
X78018292Y-89522788D01*
X78022771Y-89517900D01*
X88767900Y-78772771D01*
X88815016Y-78750800D01*
X88821640Y-78750511D01*
X99653929Y-78750511D01*
X99702781Y-78768292D01*
X99728774Y-78813314D01*
X99719747Y-78864511D01*
X99679923Y-78897928D01*
X99655587Y-78902493D01*
X99080226Y-78915047D01*
X99080215Y-78915047D01*
X99079412Y-78915065D01*
X98759458Y-78936036D01*
X98161425Y-78975233D01*
X98161409Y-78975234D01*
X98160576Y-78975289D01*
X97604105Y-79036232D01*
X97246080Y-79075442D01*
X97246070Y-79075443D01*
X97245242Y-79075534D01*
X97244409Y-79075662D01*
X97244403Y-79075663D01*
X96335995Y-79215481D01*
X96335991Y-79215482D01*
X96335151Y-79215611D01*
X95432037Y-79395251D01*
X94537618Y-79614114D01*
X93653597Y-79871783D01*
X92781657Y-80167767D01*
X92780890Y-80168065D01*
X92780877Y-80168070D01*
X91924216Y-80501207D01*
X91924207Y-80501211D01*
X91923458Y-80501502D01*
X91080632Y-80872354D01*
X91079892Y-80872719D01*
X91079879Y-80872725D01*
X90805255Y-81008155D01*
X90254785Y-81279617D01*
X89447489Y-81722515D01*
X88660280Y-82200205D01*
X87894657Y-82711778D01*
X87893981Y-82712274D01*
X87152742Y-83255772D01*
X87152730Y-83255781D01*
X87152077Y-83256260D01*
X87151429Y-83256780D01*
X87151420Y-83256787D01*
X86531443Y-83754371D01*
X86433953Y-83832615D01*
X85741654Y-84439746D01*
X85076496Y-85076496D01*
X85075936Y-85077081D01*
X84496757Y-85682100D01*
X84439746Y-85741654D01*
X84439192Y-85742286D01*
X84439189Y-85742289D01*
X84377692Y-85812413D01*
X83832615Y-86433953D01*
X83832087Y-86434610D01*
X83832081Y-86434618D01*
X83318130Y-87074989D01*
X83256260Y-87152077D01*
X83255781Y-87152730D01*
X83255772Y-87152742D01*
X82978144Y-87531379D01*
X82711778Y-87894657D01*
X82200205Y-88660280D01*
X81722515Y-89447489D01*
X81279617Y-90254785D01*
X80872354Y-91080632D01*
X80668499Y-91543928D01*
X80532873Y-91852163D01*
X80501502Y-91923458D01*
X80501211Y-91924207D01*
X80501207Y-91924216D01*
X80276724Y-92501475D01*
X80167767Y-92781657D01*
X79871783Y-93653597D01*
X79614114Y-94537618D01*
X79395251Y-95432037D01*
X79215611Y-96335151D01*
X79075534Y-97245242D01*
X78975289Y-98160576D01*
X78915065Y-99079412D01*
X78915047Y-99080215D01*
X78915047Y-99080226D01*
X78898818Y-99824000D01*
X78894978Y-100000000D01*
X78894996Y-100000825D01*
X78914680Y-100902921D01*
X78915065Y-100920588D01*
X78975289Y-101839424D01*
X79075534Y-102754758D01*
X79215611Y-103664849D01*
X79395251Y-104567963D01*
X79614114Y-105462382D01*
X79871783Y-106346403D01*
X80167767Y-107218343D01*
X80501502Y-108076542D01*
X80872354Y-108919368D01*
X81279617Y-109745215D01*
X81722515Y-110552511D01*
X82200205Y-111339720D01*
X82711778Y-112105343D01*
X82737912Y-112140985D01*
X83202162Y-112774142D01*
X83256260Y-112847923D01*
X83256780Y-112848571D01*
X83256787Y-112848580D01*
X83623668Y-113305704D01*
X83832615Y-113566047D01*
X84439746Y-114258346D01*
X84440321Y-114258947D01*
X84440325Y-114258951D01*
X85020399Y-114864904D01*
X85076496Y-114923504D01*
X85741654Y-115560254D01*
X86433953Y-116167385D01*
X86434610Y-116167913D01*
X86434618Y-116167919D01*
X87129372Y-116725517D01*
X87152077Y-116743740D01*
X87152730Y-116744219D01*
X87152742Y-116744228D01*
X87338237Y-116880238D01*
X87894657Y-117288222D01*
X88660280Y-117799795D01*
X89447489Y-118277485D01*
X90254785Y-118720383D01*
X90527621Y-118854931D01*
X91079879Y-119127275D01*
X91079892Y-119127281D01*
X91080632Y-119127646D01*
X91923458Y-119498498D01*
X91924207Y-119498789D01*
X91924216Y-119498793D01*
X92780877Y-119831930D01*
X92780890Y-119831935D01*
X92781657Y-119832233D01*
X92782447Y-119832501D01*
X92782452Y-119832503D01*
X92957362Y-119891877D01*
X93653597Y-120128217D01*
X93654370Y-120128442D01*
X93654369Y-120128442D01*
X94075055Y-120251061D01*
X94116980Y-120281802D01*
X94129336Y-120332299D01*
X94106343Y-120378925D01*
X94058759Y-120399862D01*
X94052795Y-120400018D01*
X93913286Y-120398192D01*
X93909847Y-120398783D01*
X93909846Y-120398783D01*
X93903567Y-120399862D01*
X93713949Y-120432444D01*
X93524193Y-120502449D01*
X93350371Y-120605862D01*
X93347758Y-120608154D01*
X93347756Y-120608155D01*
X93327931Y-120625541D01*
X93198305Y-120739220D01*
X93134188Y-120820553D01*
X93089983Y-120847907D01*
X93038534Y-120840448D01*
X93003917Y-120801663D01*
X92998825Y-120780454D01*
X92987027Y-120652063D01*
X92986708Y-120648591D01*
X92955692Y-120538615D01*
X92932752Y-120457275D01*
X92932750Y-120457270D01*
X92931807Y-120453926D01*
X92930269Y-120450807D01*
X92930267Y-120450802D01*
X92843892Y-120275652D01*
X92842351Y-120272527D01*
X92721335Y-120110467D01*
X92572812Y-119973174D01*
X92552017Y-119960053D01*
X92404699Y-119867102D01*
X92404697Y-119867101D01*
X92401757Y-119865246D01*
X92285748Y-119818963D01*
X92217127Y-119791586D01*
X92217125Y-119791585D01*
X92213898Y-119790298D01*
X92113832Y-119770393D01*
X92018941Y-119751518D01*
X92018938Y-119751518D01*
X92015526Y-119750839D01*
X92012044Y-119750793D01*
X92012040Y-119750793D01*
X91905042Y-119749393D01*
X91813286Y-119748192D01*
X91809847Y-119748783D01*
X91809846Y-119748783D01*
X91759601Y-119757417D01*
X91613949Y-119782444D01*
X91424193Y-119852449D01*
X91250371Y-119955862D01*
X91247758Y-119958154D01*
X91247756Y-119958155D01*
X91178068Y-120019270D01*
X91098305Y-120089220D01*
X91096145Y-120091960D01*
X91096144Y-120091961D01*
X91067767Y-120127958D01*
X90973089Y-120248057D01*
X90878914Y-120427053D01*
X90818937Y-120620213D01*
X90818528Y-120623670D01*
X90818527Y-120623674D01*
X90804528Y-120741955D01*
X90795164Y-120821069D01*
X90795392Y-120824548D01*
X90795392Y-120824549D01*
X90807404Y-121007825D01*
X90808392Y-121022894D01*
X90858178Y-121218928D01*
X90942856Y-121402607D01*
X90944863Y-121405446D01*
X90944863Y-121405447D01*
X91055253Y-121561646D01*
X91059588Y-121567780D01*
X91062080Y-121570208D01*
X91062083Y-121570211D01*
X91122254Y-121628826D01*
X91204466Y-121708913D01*
X91207359Y-121710846D01*
X91369742Y-121819348D01*
X91369745Y-121819350D01*
X91372637Y-121821282D01*
X91375837Y-121822657D01*
X91375841Y-121822659D01*
X91555264Y-121899745D01*
X91555268Y-121899746D01*
X91558470Y-121901122D01*
X91561870Y-121901891D01*
X91561872Y-121901892D01*
X91752341Y-121944991D01*
X91752342Y-121944991D01*
X91755740Y-121945760D01*
X91759223Y-121945897D01*
X91759224Y-121945897D01*
X91843427Y-121949205D01*
X91957842Y-121953700D01*
X91961282Y-121953201D01*
X91961287Y-121953201D01*
X92101700Y-121932842D01*
X92158007Y-121924678D01*
X92227401Y-121901122D01*
X92346232Y-121860784D01*
X92346233Y-121860783D01*
X92349531Y-121859664D01*
X92421521Y-121819348D01*
X92522964Y-121762538D01*
X92522966Y-121762537D01*
X92526001Y-121760837D01*
X92681505Y-121631505D01*
X92683729Y-121628831D01*
X92683734Y-121628826D01*
X92767493Y-121528117D01*
X92812401Y-121501927D01*
X92863638Y-121510731D01*
X92897228Y-121550409D01*
X92901762Y-121571743D01*
X92906191Y-121639317D01*
X92908392Y-121672894D01*
X92958178Y-121868928D01*
X92997259Y-121953700D01*
X93014232Y-121990518D01*
X93018537Y-122042326D01*
X92998953Y-122076076D01*
X92397789Y-122677240D01*
X92350673Y-122699211D01*
X92344049Y-122699500D01*
X87105952Y-122699500D01*
X87057100Y-122681719D01*
X87052212Y-122677240D01*
X86922760Y-122547789D01*
X86900789Y-122500673D01*
X86900500Y-122494049D01*
X86900500Y-121954485D01*
X86900894Y-121949117D01*
X86902425Y-121944658D01*
X86902107Y-121936172D01*
X86900553Y-121894786D01*
X86900500Y-121891935D01*
X86900500Y-121872052D01*
X86899859Y-121868612D01*
X86899563Y-121865400D01*
X86899295Y-121861265D01*
X86898852Y-121849471D01*
X86898226Y-121832792D01*
X86892671Y-121819862D01*
X86887787Y-121803789D01*
X86885209Y-121789947D01*
X86870347Y-121765836D01*
X86865215Y-121755956D01*
X86856156Y-121734871D01*
X86856156Y-121734870D01*
X86854036Y-121729937D01*
X86850022Y-121725051D01*
X86843757Y-121718786D01*
X86832801Y-121704926D01*
X86830150Y-121700625D01*
X86826468Y-121694652D01*
X86819608Y-121689435D01*
X86801997Y-121676044D01*
X86794259Y-121669288D01*
X86176012Y-121051041D01*
X86172497Y-121046969D01*
X86170425Y-121042731D01*
X86151000Y-121024711D01*
X86133846Y-121008799D01*
X86131792Y-121006821D01*
X86117723Y-120992752D01*
X86114829Y-120990766D01*
X86112371Y-120988724D01*
X86109258Y-120985990D01*
X86088354Y-120966599D01*
X86075281Y-120961383D01*
X86060456Y-120953467D01*
X86054643Y-120949479D01*
X86054642Y-120949479D01*
X86048854Y-120945508D01*
X86021287Y-120938966D01*
X86010686Y-120935613D01*
X85984378Y-120925117D01*
X85978085Y-120924500D01*
X85969222Y-120924500D01*
X85951674Y-120922446D01*
X85946761Y-120921280D01*
X85946760Y-120921280D01*
X85939934Y-120919660D01*
X85932983Y-120920606D01*
X85932982Y-120920606D01*
X85909468Y-120923806D01*
X85899220Y-120924500D01*
X85054485Y-120924500D01*
X85049117Y-120924106D01*
X85044658Y-120922575D01*
X85037649Y-120922838D01*
X85037648Y-120922838D01*
X84994786Y-120924447D01*
X84991935Y-120924500D01*
X84972052Y-120924500D01*
X84968612Y-120925141D01*
X84965400Y-120925437D01*
X84961267Y-120925705D01*
X84932792Y-120926774D01*
X84919862Y-120932329D01*
X84903789Y-120937213D01*
X84889947Y-120939791D01*
X84883973Y-120943473D01*
X84883974Y-120943473D01*
X84865836Y-120954653D01*
X84855956Y-120959785D01*
X84834868Y-120968845D01*
X84834866Y-120968846D01*
X84829937Y-120970964D01*
X84825051Y-120974977D01*
X84818783Y-120981245D01*
X84804925Y-120992200D01*
X84794652Y-120998532D01*
X84790405Y-121004117D01*
X84790403Y-121004119D01*
X84776043Y-121023003D01*
X84769287Y-121030741D01*
X84326041Y-121473988D01*
X84321969Y-121477503D01*
X84317731Y-121479575D01*
X84312958Y-121484720D01*
X84312957Y-121484721D01*
X84283799Y-121516154D01*
X84281821Y-121518208D01*
X84267752Y-121532277D01*
X84265766Y-121535171D01*
X84263724Y-121537629D01*
X84260990Y-121540741D01*
X84241599Y-121561646D01*
X84236383Y-121574719D01*
X84228467Y-121589544D01*
X84224505Y-121595320D01*
X84220508Y-121601146D01*
X84213966Y-121628713D01*
X84210613Y-121639314D01*
X84206878Y-121648675D01*
X84202230Y-121660327D01*
X84200117Y-121665622D01*
X84199500Y-121671915D01*
X84199500Y-121680778D01*
X84197446Y-121698326D01*
X84194660Y-121710066D01*
X84195606Y-121717017D01*
X84195606Y-121717018D01*
X84198806Y-121740532D01*
X84199500Y-121750780D01*
X84199500Y-123295515D01*
X84199106Y-123300883D01*
X84197575Y-123305342D01*
X84197838Y-123312351D01*
X84197838Y-123312352D01*
X84199447Y-123355214D01*
X84199500Y-123358065D01*
X84199500Y-123377948D01*
X84200141Y-123381388D01*
X84200437Y-123384600D01*
X84200705Y-123388733D01*
X84201774Y-123417208D01*
X84207329Y-123430138D01*
X84212213Y-123446211D01*
X84214791Y-123460053D01*
X84218473Y-123466026D01*
X84229653Y-123484164D01*
X84234785Y-123494044D01*
X84245964Y-123520063D01*
X84249978Y-123524949D01*
X84256243Y-123531214D01*
X84267199Y-123545073D01*
X84273532Y-123555348D01*
X84279117Y-123559595D01*
X84279118Y-123559596D01*
X84298003Y-123573956D01*
X84305741Y-123580712D01*
X85295289Y-124570260D01*
X85317260Y-124617376D01*
X85303805Y-124667592D01*
X85261219Y-124697410D01*
X85241549Y-124700000D01*
X80031346Y-124700000D01*
X80014314Y-124698067D01*
X80008700Y-124696776D01*
X80000359Y-124694858D01*
X79991170Y-124696937D01*
X79971087Y-124698738D01*
X79778447Y-124690328D01*
X79593676Y-124682260D01*
X79587084Y-124681684D01*
X79187134Y-124629029D01*
X79180629Y-124627882D01*
X78786766Y-124540565D01*
X78780392Y-124538856D01*
X78622745Y-124489150D01*
X78395676Y-124417555D01*
X78389446Y-124415288D01*
X78016761Y-124260918D01*
X78010752Y-124258116D01*
X77997688Y-124251315D01*
X77866074Y-124182801D01*
X77652946Y-124071853D01*
X77647204Y-124068538D01*
X77306988Y-123851797D01*
X77301557Y-123847994D01*
X77301556Y-123847993D01*
X76981528Y-123602427D01*
X76976451Y-123598167D01*
X76910248Y-123537503D01*
X76679036Y-123325637D01*
X76674364Y-123320965D01*
X76401832Y-123023548D01*
X76397572Y-123018471D01*
X76359540Y-122968906D01*
X76152006Y-122698442D01*
X76148204Y-122693013D01*
X76138156Y-122677240D01*
X75983738Y-122434854D01*
X77923984Y-122434854D01*
X77925436Y-122440271D01*
X77955467Y-122468080D01*
X77958741Y-122470789D01*
X78243326Y-122680603D01*
X78246879Y-122682929D01*
X78553088Y-122859718D01*
X78556852Y-122861619D01*
X78880881Y-123003184D01*
X78884831Y-123004653D01*
X79222601Y-123109211D01*
X79226714Y-123110236D01*
X79574023Y-123176488D01*
X79578236Y-123177050D01*
X79930769Y-123204177D01*
X79934991Y-123204265D01*
X80288368Y-123191925D01*
X80292572Y-123191542D01*
X80642370Y-123139889D01*
X80646507Y-123139040D01*
X80988362Y-123048718D01*
X80992391Y-123047409D01*
X81322047Y-122919543D01*
X81325889Y-122917800D01*
X81639251Y-122753980D01*
X81642866Y-122751825D01*
X81936003Y-122554101D01*
X81939388Y-122551532D01*
X82068878Y-122441326D01*
X82074276Y-122431824D01*
X82073378Y-122426932D01*
X80009476Y-120363029D01*
X79999574Y-120358411D01*
X79993519Y-120360034D01*
X77928602Y-122424952D01*
X77923984Y-122434854D01*
X75983738Y-122434854D01*
X75977109Y-122424448D01*
X75931463Y-122352798D01*
X75928148Y-122347056D01*
X75741885Y-121989249D01*
X75739083Y-121983240D01*
X75584713Y-121610555D01*
X75582446Y-121604325D01*
X75495147Y-121327449D01*
X75461144Y-121219607D01*
X75459436Y-121213235D01*
X75372119Y-120819372D01*
X75370972Y-120812866D01*
X75364216Y-120761548D01*
X75318317Y-120412917D01*
X75317740Y-120406318D01*
X75317388Y-120398238D01*
X75309787Y-120224163D01*
X75301294Y-120029637D01*
X75303184Y-120009163D01*
X75304169Y-120004913D01*
X75305142Y-120000716D01*
X75305143Y-120000000D01*
X75301903Y-119985796D01*
X75300000Y-119968894D01*
X75300000Y-119957382D01*
X76795359Y-119957382D01*
X76810165Y-120310634D01*
X76810579Y-120314857D01*
X76864671Y-120664267D01*
X76865553Y-120668416D01*
X76958255Y-121009614D01*
X76959596Y-121013645D01*
X77089754Y-121342389D01*
X77091530Y-121346234D01*
X77257524Y-121658421D01*
X77259723Y-121662052D01*
X77459476Y-121953786D01*
X77462066Y-121957149D01*
X77558582Y-122068964D01*
X77568117Y-122074293D01*
X77573104Y-122073342D01*
X79636971Y-120009476D01*
X79641192Y-120000426D01*
X80358411Y-120000426D01*
X80360034Y-120006481D01*
X82425636Y-122072082D01*
X82435538Y-122076700D01*
X82441065Y-122075219D01*
X82453759Y-122061700D01*
X82456467Y-122058474D01*
X82668282Y-121775335D01*
X82670618Y-121771819D01*
X82849542Y-121466850D01*
X82851483Y-121463073D01*
X82995291Y-121140077D01*
X82996800Y-121136104D01*
X83103707Y-120799088D01*
X83104761Y-120794985D01*
X83173438Y-120448143D01*
X83174030Y-120443927D01*
X83203680Y-120090829D01*
X83203811Y-120088159D01*
X83205024Y-120001320D01*
X83204968Y-119998669D01*
X83185187Y-119644861D01*
X83184714Y-119640647D01*
X83125747Y-119292009D01*
X83124813Y-119287900D01*
X83027350Y-118948007D01*
X83025955Y-118944002D01*
X82891224Y-118617119D01*
X82889384Y-118613280D01*
X82719055Y-118303451D01*
X82716806Y-118299852D01*
X82512992Y-118010928D01*
X82510362Y-118007609D01*
X82441935Y-117930537D01*
X82432326Y-117925341D01*
X82427150Y-117926404D01*
X80363029Y-119990524D01*
X80358411Y-120000426D01*
X79641192Y-120000426D01*
X79641589Y-119999574D01*
X79639966Y-119993519D01*
X77575621Y-117929175D01*
X77565719Y-117924557D01*
X77560410Y-117925980D01*
X77517703Y-117972751D01*
X77515020Y-117976041D01*
X77307198Y-118262082D01*
X77304902Y-118265645D01*
X77130246Y-118573096D01*
X77128375Y-118576865D01*
X76989080Y-118901865D01*
X76987633Y-118905840D01*
X76885437Y-119244329D01*
X76884441Y-119248448D01*
X76820615Y-119596208D01*
X76820083Y-119600419D01*
X76795418Y-119953127D01*
X76795359Y-119957382D01*
X75300000Y-119957382D01*
X75300000Y-117567951D01*
X77925579Y-117567951D01*
X77926585Y-117573031D01*
X79990524Y-119636971D01*
X80000426Y-119641589D01*
X80006481Y-119639966D01*
X82070361Y-117576085D01*
X82074979Y-117566183D01*
X82073584Y-117560979D01*
X82009873Y-117503613D01*
X82006562Y-117500951D01*
X81719069Y-117295127D01*
X81715500Y-117292862D01*
X81583018Y-117218820D01*
X84919394Y-117218820D01*
X84920096Y-117224188D01*
X84920096Y-117224189D01*
X84921432Y-117234407D01*
X84937983Y-117360976D01*
X84995723Y-117492200D01*
X85087973Y-117601945D01*
X85207316Y-117681387D01*
X85297157Y-117709455D01*
X85338993Y-117722525D01*
X85338995Y-117722525D01*
X85344160Y-117724139D01*
X85440419Y-117725904D01*
X85471407Y-117726472D01*
X85523754Y-117748719D01*
X86902240Y-119127205D01*
X86924211Y-119174321D01*
X86924500Y-119180945D01*
X86924500Y-119795515D01*
X86924106Y-119800883D01*
X86922575Y-119805342D01*
X86922838Y-119812351D01*
X86922838Y-119812352D01*
X86924447Y-119855214D01*
X86924500Y-119858065D01*
X86924500Y-119877948D01*
X86925141Y-119881388D01*
X86925437Y-119884600D01*
X86925705Y-119888733D01*
X86926774Y-119917208D01*
X86932329Y-119930138D01*
X86937213Y-119946211D01*
X86939791Y-119960053D01*
X86943473Y-119966026D01*
X86954653Y-119984164D01*
X86959785Y-119994044D01*
X86965129Y-120006481D01*
X86970964Y-120020063D01*
X86974978Y-120024949D01*
X86981243Y-120031214D01*
X86992199Y-120045073D01*
X86998532Y-120055348D01*
X87004117Y-120059595D01*
X87004118Y-120059596D01*
X87023003Y-120073956D01*
X87030741Y-120080712D01*
X87052129Y-120102100D01*
X87074100Y-120149216D01*
X87073484Y-120167530D01*
X87070224Y-120188471D01*
X87069391Y-120193823D01*
X87070093Y-120199191D01*
X87070093Y-120199192D01*
X87071418Y-120209327D01*
X87087980Y-120335979D01*
X87145720Y-120467203D01*
X87237970Y-120576948D01*
X87357313Y-120656390D01*
X87433840Y-120680298D01*
X87488990Y-120697528D01*
X87488992Y-120697528D01*
X87494157Y-120699142D01*
X87571291Y-120700556D01*
X87632088Y-120701671D01*
X87632089Y-120701671D01*
X87637499Y-120701770D01*
X87642717Y-120700347D01*
X87642720Y-120700347D01*
X87724629Y-120678015D01*
X87775817Y-120664060D01*
X87780429Y-120661228D01*
X87780432Y-120661227D01*
X87872149Y-120604912D01*
X87897991Y-120589045D01*
X87994200Y-120482754D01*
X87996562Y-120477879D01*
X87996564Y-120477876D01*
X88054347Y-120358610D01*
X88056710Y-120353733D01*
X88058971Y-120340298D01*
X88072908Y-120257455D01*
X88080496Y-120212354D01*
X88080647Y-120200000D01*
X88079763Y-120193823D01*
X88061091Y-120063443D01*
X88061091Y-120063441D01*
X88060323Y-120058082D01*
X88000984Y-119927572D01*
X87938636Y-119855214D01*
X87910933Y-119823063D01*
X87910932Y-119823062D01*
X87907400Y-119818963D01*
X87888353Y-119806617D01*
X87791636Y-119743928D01*
X87791634Y-119743927D01*
X87787095Y-119740985D01*
X87649739Y-119699907D01*
X87640010Y-119699848D01*
X87601035Y-119699609D01*
X87552293Y-119681529D01*
X87526575Y-119636349D01*
X87525500Y-119623610D01*
X87525500Y-119079479D01*
X87525894Y-119074111D01*
X87527425Y-119069652D01*
X87525553Y-119019780D01*
X87525500Y-119016929D01*
X87525500Y-118997046D01*
X87524859Y-118993606D01*
X87524563Y-118990394D01*
X87524295Y-118986259D01*
X87523226Y-118957786D01*
X87517671Y-118944856D01*
X87512787Y-118928783D01*
X87510209Y-118914941D01*
X87495347Y-118890830D01*
X87490215Y-118880950D01*
X87481156Y-118859865D01*
X87481156Y-118859864D01*
X87479036Y-118854931D01*
X87475022Y-118850045D01*
X87468757Y-118843780D01*
X87457801Y-118829920D01*
X87455150Y-118825619D01*
X87451468Y-118819646D01*
X87426996Y-118801037D01*
X87419259Y-118794282D01*
X85948390Y-117323413D01*
X85926419Y-117276297D01*
X85927183Y-117257065D01*
X85930011Y-117240255D01*
X85930012Y-117240247D01*
X85930499Y-117237351D01*
X85930650Y-117224997D01*
X85929766Y-117218820D01*
X85911094Y-117088440D01*
X85911094Y-117088438D01*
X85910326Y-117083079D01*
X85850987Y-116952569D01*
X85757403Y-116843960D01*
X85746724Y-116837038D01*
X85641639Y-116768925D01*
X85641637Y-116768924D01*
X85637098Y-116765982D01*
X85499742Y-116724904D01*
X85442057Y-116724552D01*
X85361794Y-116724061D01*
X85361793Y-116724061D01*
X85356379Y-116724028D01*
X85218532Y-116763425D01*
X85097283Y-116839927D01*
X85002380Y-116947385D01*
X85000081Y-116952281D01*
X85000080Y-116952283D01*
X84986368Y-116981488D01*
X84941450Y-117077160D01*
X84940617Y-117082511D01*
X84940616Y-117082514D01*
X84921311Y-117206506D01*
X84919394Y-117218820D01*
X81583018Y-117218820D01*
X81406848Y-117120361D01*
X81403045Y-117118506D01*
X81077091Y-116981488D01*
X81073100Y-116980067D01*
X80733909Y-116880238D01*
X80729780Y-116879270D01*
X80381587Y-116817874D01*
X80377369Y-116817371D01*
X80024492Y-116795169D01*
X80020254Y-116795140D01*
X79667114Y-116812412D01*
X79662873Y-116812858D01*
X79313864Y-116869384D01*
X79309715Y-116870296D01*
X78969172Y-116965377D01*
X78965157Y-116966744D01*
X78637328Y-117099195D01*
X78633487Y-117101003D01*
X78322480Y-117269164D01*
X78318851Y-117271397D01*
X78028534Y-117473173D01*
X78025175Y-117475796D01*
X77930841Y-117558379D01*
X77925579Y-117567951D01*
X75300000Y-117567951D01*
X75300000Y-82434854D01*
X77923984Y-82434854D01*
X77925436Y-82440271D01*
X77955467Y-82468080D01*
X77958741Y-82470789D01*
X78243326Y-82680603D01*
X78246879Y-82682929D01*
X78553088Y-82859718D01*
X78556852Y-82861619D01*
X78880881Y-83003184D01*
X78884831Y-83004653D01*
X79222601Y-83109211D01*
X79226714Y-83110236D01*
X79574023Y-83176488D01*
X79578236Y-83177050D01*
X79930769Y-83204177D01*
X79934991Y-83204265D01*
X80288368Y-83191925D01*
X80292572Y-83191542D01*
X80642370Y-83139889D01*
X80646507Y-83139040D01*
X80988362Y-83048718D01*
X80992391Y-83047409D01*
X81322047Y-82919543D01*
X81325889Y-82917800D01*
X81639251Y-82753980D01*
X81642866Y-82751825D01*
X81936003Y-82554101D01*
X81939388Y-82551532D01*
X82068878Y-82441326D01*
X82074276Y-82431824D01*
X82073378Y-82426932D01*
X80009476Y-80363029D01*
X79999574Y-80358411D01*
X79993519Y-80360034D01*
X77928602Y-82424952D01*
X77923984Y-82434854D01*
X75300000Y-82434854D01*
X75300000Y-80031349D01*
X75301933Y-80014317D01*
X75303225Y-80008699D01*
X75305143Y-80000358D01*
X75303064Y-79991169D01*
X75301263Y-79971086D01*
X75301861Y-79957382D01*
X76795359Y-79957382D01*
X76810165Y-80310634D01*
X76810579Y-80314857D01*
X76864671Y-80664267D01*
X76865553Y-80668416D01*
X76958255Y-81009614D01*
X76959596Y-81013645D01*
X77089754Y-81342389D01*
X77091530Y-81346234D01*
X77257524Y-81658421D01*
X77259723Y-81662052D01*
X77459476Y-81953786D01*
X77462066Y-81957149D01*
X77558582Y-82068964D01*
X77568117Y-82074293D01*
X77573104Y-82073342D01*
X79636971Y-80009476D01*
X79641192Y-80000426D01*
X80358411Y-80000426D01*
X80360034Y-80006481D01*
X82425636Y-82072082D01*
X82435538Y-82076700D01*
X82441065Y-82075219D01*
X82453759Y-82061700D01*
X82456467Y-82058474D01*
X82668282Y-81775335D01*
X82670618Y-81771819D01*
X82849542Y-81466850D01*
X82851483Y-81463073D01*
X82995291Y-81140077D01*
X82996800Y-81136104D01*
X83103707Y-80799088D01*
X83104761Y-80794985D01*
X83173438Y-80448143D01*
X83174030Y-80443927D01*
X83203680Y-80090829D01*
X83203811Y-80088159D01*
X83205024Y-80001320D01*
X83204967Y-79998661D01*
X83185187Y-79644861D01*
X83184714Y-79640647D01*
X83125747Y-79292009D01*
X83124813Y-79287900D01*
X83027350Y-78948007D01*
X83025955Y-78944002D01*
X82891224Y-78617119D01*
X82889384Y-78613280D01*
X82719055Y-78303451D01*
X82716806Y-78299852D01*
X82512992Y-78010928D01*
X82510362Y-78007609D01*
X82441935Y-77930537D01*
X82432326Y-77925341D01*
X82427150Y-77926404D01*
X80363029Y-79990524D01*
X80358411Y-80000426D01*
X79641192Y-80000426D01*
X79641589Y-79999574D01*
X79639966Y-79993519D01*
X77575621Y-77929175D01*
X77565719Y-77924557D01*
X77560410Y-77925980D01*
X77517703Y-77972751D01*
X77515020Y-77976041D01*
X77307198Y-78262082D01*
X77304902Y-78265645D01*
X77130246Y-78573096D01*
X77128375Y-78576865D01*
X76989080Y-78901865D01*
X76987633Y-78905840D01*
X76885437Y-79244329D01*
X76884441Y-79248448D01*
X76820615Y-79596208D01*
X76820083Y-79600419D01*
X76795418Y-79953127D01*
X76795359Y-79957382D01*
X75301861Y-79957382D01*
X75312399Y-79716019D01*
X75317741Y-79593675D01*
X75318318Y-79587077D01*
X75330267Y-79496321D01*
X75370972Y-79187134D01*
X75372124Y-79180606D01*
X75459428Y-78786804D01*
X75461144Y-78780399D01*
X75582450Y-78395665D01*
X75584717Y-78389435D01*
X75739084Y-78016760D01*
X75741886Y-78010751D01*
X75928148Y-77652945D01*
X75931463Y-77647203D01*
X75981952Y-77567951D01*
X77925579Y-77567951D01*
X77926585Y-77573031D01*
X79990524Y-79636971D01*
X80000426Y-79641589D01*
X80006481Y-79639966D01*
X82070361Y-77576085D01*
X82074979Y-77566183D01*
X82073584Y-77560979D01*
X82009873Y-77503613D01*
X82006562Y-77500951D01*
X81719069Y-77295127D01*
X81715500Y-77292862D01*
X81406848Y-77120361D01*
X81403045Y-77118506D01*
X81077091Y-76981488D01*
X81073100Y-76980067D01*
X80733909Y-76880238D01*
X80729780Y-76879270D01*
X80381587Y-76817874D01*
X80377369Y-76817371D01*
X80024492Y-76795169D01*
X80020254Y-76795140D01*
X79667114Y-76812412D01*
X79662873Y-76812858D01*
X79313864Y-76869384D01*
X79309715Y-76870296D01*
X78969172Y-76965377D01*
X78965157Y-76966744D01*
X78637328Y-77099195D01*
X78633487Y-77101003D01*
X78322480Y-77269164D01*
X78318851Y-77271397D01*
X78028534Y-77473173D01*
X78025175Y-77475796D01*
X77930841Y-77558379D01*
X77925579Y-77567951D01*
X75981952Y-77567951D01*
X76148204Y-77306988D01*
X76152007Y-77301557D01*
X76156941Y-77295127D01*
X76397574Y-76981528D01*
X76401834Y-76976451D01*
X76410729Y-76966744D01*
X76674364Y-76679036D01*
X76679036Y-76674364D01*
X76950659Y-76425468D01*
X112911775Y-76425468D01*
X112912523Y-76429820D01*
X112912523Y-76429824D01*
X112928318Y-76521743D01*
X112941126Y-76596282D01*
X113008986Y-76755762D01*
X113111713Y-76895353D01*
X113243799Y-77007568D01*
X113398157Y-77086387D01*
X113566507Y-77127582D01*
X113569890Y-77127792D01*
X113569891Y-77127792D01*
X113576271Y-77128188D01*
X113576280Y-77128188D01*
X113577436Y-77128260D01*
X113648494Y-77128260D01*
X113697346Y-77146041D01*
X113723339Y-77191063D01*
X113714312Y-77242260D01*
X113694760Y-77264555D01*
X113673132Y-77281151D01*
X113669182Y-77284182D01*
X113585842Y-77392792D01*
X113533453Y-77519271D01*
X113515584Y-77655000D01*
X113516234Y-77659937D01*
X113532469Y-77783251D01*
X113533453Y-77790729D01*
X113585842Y-77917208D01*
X113655210Y-78007609D01*
X113662232Y-78016760D01*
X113669182Y-78025818D01*
X113777792Y-78109158D01*
X113782392Y-78111063D01*
X113782393Y-78111064D01*
X113819876Y-78126590D01*
X113904271Y-78161547D01*
X113909202Y-78162196D01*
X113909205Y-78162197D01*
X114035063Y-78178766D01*
X114040000Y-78179416D01*
X114044937Y-78178766D01*
X114170795Y-78162197D01*
X114170798Y-78162196D01*
X114175729Y-78161547D01*
X114260124Y-78126590D01*
X114297607Y-78111064D01*
X114297608Y-78111063D01*
X114302208Y-78109158D01*
X114410818Y-78025818D01*
X114417769Y-78016760D01*
X114424790Y-78007609D01*
X114494158Y-77917208D01*
X114546547Y-77790729D01*
X114547532Y-77783251D01*
X114563087Y-77665095D01*
X114567518Y-77656583D01*
X114565502Y-77653418D01*
X114709355Y-77653418D01*
X114712635Y-77658566D01*
X114713787Y-77665095D01*
X114732169Y-77804721D01*
X114734723Y-77814253D01*
X114747893Y-77846045D01*
X114755046Y-77853852D01*
X114760693Y-77850754D01*
X114946971Y-77664476D01*
X114951589Y-77654574D01*
X114949966Y-77648519D01*
X114762497Y-77461050D01*
X114752901Y-77456575D01*
X114748868Y-77461599D01*
X114734723Y-77495747D01*
X114732169Y-77505279D01*
X114713787Y-77644905D01*
X114709355Y-77653418D01*
X114565502Y-77653418D01*
X114564238Y-77651434D01*
X114563087Y-77644905D01*
X114547197Y-77524205D01*
X114547196Y-77524202D01*
X114546547Y-77519271D01*
X114494158Y-77392792D01*
X114410818Y-77284182D01*
X114302208Y-77200842D01*
X114297608Y-77198937D01*
X114297607Y-77198936D01*
X114260124Y-77183410D01*
X114175729Y-77148453D01*
X114170798Y-77147804D01*
X114170795Y-77147803D01*
X114107496Y-77139470D01*
X114061383Y-77115465D01*
X114041488Y-77067435D01*
X114057121Y-77017854D01*
X114075745Y-77000563D01*
X114139010Y-76959085D01*
X114258203Y-76833261D01*
X114345254Y-76683392D01*
X114395493Y-76517516D01*
X114401204Y-76425468D01*
X114943775Y-76425468D01*
X114944523Y-76429820D01*
X114944523Y-76429824D01*
X114960318Y-76521743D01*
X114973126Y-76596282D01*
X115040986Y-76755762D01*
X115143713Y-76895353D01*
X115200683Y-76943753D01*
X115226402Y-76988932D01*
X115217062Y-77040073D01*
X115177034Y-77073246D01*
X115161400Y-77077021D01*
X115160285Y-77077168D01*
X115150747Y-77079723D01*
X115118955Y-77092893D01*
X115111148Y-77100046D01*
X115114246Y-77105693D01*
X115300524Y-77291971D01*
X115310426Y-77296589D01*
X115316481Y-77294966D01*
X115476153Y-77135294D01*
X115523269Y-77113323D01*
X115547954Y-77115212D01*
X115598507Y-77127582D01*
X115601890Y-77127792D01*
X115601891Y-77127792D01*
X115608271Y-77128188D01*
X115608280Y-77128188D01*
X115609436Y-77128260D01*
X115734400Y-77128260D01*
X115863151Y-77113249D01*
X116026067Y-77054113D01*
X116125486Y-76988932D01*
X116167316Y-76961507D01*
X116167317Y-76961506D01*
X116171010Y-76959085D01*
X116290203Y-76833261D01*
X116377254Y-76683392D01*
X116427493Y-76517516D01*
X116438225Y-76344532D01*
X116422409Y-76252484D01*
X116409622Y-76178072D01*
X116408874Y-76173718D01*
X116341014Y-76014238D01*
X116238287Y-75874647D01*
X116106201Y-75762432D01*
X115951843Y-75683613D01*
X115783493Y-75642418D01*
X115780110Y-75642208D01*
X115780109Y-75642208D01*
X115773729Y-75641812D01*
X115773720Y-75641812D01*
X115772564Y-75641740D01*
X115647600Y-75641740D01*
X115518849Y-75656751D01*
X115355933Y-75715887D01*
X115352238Y-75718309D01*
X115352237Y-75718310D01*
X115288004Y-75760423D01*
X115210990Y-75810915D01*
X115091797Y-75936739D01*
X115004746Y-76086608D01*
X115003466Y-76090833D01*
X115003466Y-76090834D01*
X114956895Y-76244601D01*
X114954507Y-76252484D01*
X114943775Y-76425468D01*
X114401204Y-76425468D01*
X114406225Y-76344532D01*
X114390409Y-76252484D01*
X114377622Y-76178072D01*
X114376874Y-76173718D01*
X114309014Y-76014238D01*
X114206287Y-75874647D01*
X114074201Y-75762432D01*
X113919843Y-75683613D01*
X113751493Y-75642418D01*
X113748110Y-75642208D01*
X113748109Y-75642208D01*
X113741729Y-75641812D01*
X113741720Y-75641812D01*
X113740564Y-75641740D01*
X113615600Y-75641740D01*
X113486849Y-75656751D01*
X113323933Y-75715887D01*
X113320238Y-75718309D01*
X113320237Y-75718310D01*
X113256004Y-75760423D01*
X113178990Y-75810915D01*
X113059797Y-75936739D01*
X112972746Y-76086608D01*
X112971466Y-76090833D01*
X112971466Y-76090834D01*
X112924895Y-76244601D01*
X112922507Y-76252484D01*
X112911775Y-76425468D01*
X76950659Y-76425468D01*
X76976453Y-76401832D01*
X76981530Y-76397572D01*
X77176122Y-76248257D01*
X77301559Y-76152006D01*
X77306988Y-76148204D01*
X77647203Y-75931463D01*
X77652945Y-75928148D01*
X77965790Y-75765291D01*
X78010752Y-75741886D01*
X78016760Y-75739084D01*
X78389435Y-75584717D01*
X78395665Y-75582450D01*
X78780399Y-75461144D01*
X78786804Y-75459428D01*
X79180606Y-75372124D01*
X79187135Y-75370972D01*
X79587083Y-75318317D01*
X79593675Y-75317741D01*
X79761916Y-75310395D01*
X79970605Y-75301284D01*
X79990950Y-75303145D01*
X79991298Y-75303225D01*
X79991301Y-75303225D01*
X79999642Y-75305143D01*
X80007990Y-75303254D01*
X80014089Y-75301874D01*
X80030862Y-75300000D01*
X119968651Y-75300000D01*
X119985683Y-75301933D01*
G37*
G04 #@! TD.AperFunction*
G04 #@! TA.AperFunction,Conductor*
G36*
X123862918Y-100117781D02*
G01*
X123888911Y-100162803D01*
X123890066Y-100176000D01*
X123890066Y-121003483D01*
X123872285Y-121052335D01*
X123867806Y-121057223D01*
X121297789Y-123627240D01*
X121250673Y-123649211D01*
X121244049Y-123649500D01*
X99704485Y-123649500D01*
X99699117Y-123649106D01*
X99694658Y-123647575D01*
X99687649Y-123647838D01*
X99687648Y-123647838D01*
X99644786Y-123649447D01*
X99641935Y-123649500D01*
X99622052Y-123649500D01*
X99618612Y-123650141D01*
X99615400Y-123650437D01*
X99611267Y-123650705D01*
X99582792Y-123651774D01*
X99569862Y-123657329D01*
X99553789Y-123662213D01*
X99539947Y-123664791D01*
X99533973Y-123668473D01*
X99533974Y-123668473D01*
X99515836Y-123679653D01*
X99505956Y-123684785D01*
X99484868Y-123693845D01*
X99484866Y-123693846D01*
X99479937Y-123695964D01*
X99475051Y-123699977D01*
X99468783Y-123706245D01*
X99454925Y-123717200D01*
X99444652Y-123723532D01*
X99440405Y-123729117D01*
X99440403Y-123729119D01*
X99426043Y-123748003D01*
X99419287Y-123755741D01*
X99047789Y-124127240D01*
X99000673Y-124149211D01*
X98994049Y-124149500D01*
X98766794Y-124149500D01*
X98717942Y-124131719D01*
X98691949Y-124086697D01*
X98700976Y-124035500D01*
X98713054Y-124019760D01*
X99327384Y-123405430D01*
X99374500Y-123383459D01*
X99397897Y-123385044D01*
X99552341Y-123419991D01*
X99552342Y-123419991D01*
X99555740Y-123420760D01*
X99559223Y-123420897D01*
X99559224Y-123420897D01*
X99629428Y-123423655D01*
X99757842Y-123428700D01*
X99761282Y-123428201D01*
X99761287Y-123428201D01*
X99910769Y-123406527D01*
X99958007Y-123399678D01*
X99979392Y-123392419D01*
X100146232Y-123335784D01*
X100146233Y-123335783D01*
X100149531Y-123334664D01*
X100177039Y-123319259D01*
X100322964Y-123237538D01*
X100322966Y-123237537D01*
X100326001Y-123235837D01*
X100481505Y-123106505D01*
X100610837Y-122951001D01*
X100620689Y-122933410D01*
X100707961Y-122777572D01*
X100709664Y-122774531D01*
X100741549Y-122680603D01*
X100751608Y-122650969D01*
X100784148Y-122610426D01*
X100835137Y-122600284D01*
X100880715Y-122625289D01*
X100892593Y-122643580D01*
X100942856Y-122752607D01*
X100944863Y-122755446D01*
X100944863Y-122755447D01*
X101024287Y-122867830D01*
X101059588Y-122917780D01*
X101062080Y-122920208D01*
X101062083Y-122920211D01*
X101115469Y-122972217D01*
X101204466Y-123058913D01*
X101207359Y-123060846D01*
X101369742Y-123169348D01*
X101369745Y-123169350D01*
X101372637Y-123171282D01*
X101375837Y-123172657D01*
X101375841Y-123172659D01*
X101555264Y-123249745D01*
X101555268Y-123249746D01*
X101558470Y-123251122D01*
X101561870Y-123251891D01*
X101561872Y-123251892D01*
X101752341Y-123294991D01*
X101752342Y-123294991D01*
X101755740Y-123295760D01*
X101759223Y-123295897D01*
X101759224Y-123295897D01*
X101837166Y-123298959D01*
X101957842Y-123303700D01*
X101961282Y-123303201D01*
X101961287Y-123303201D01*
X102098319Y-123283332D01*
X102158007Y-123274678D01*
X102227401Y-123251122D01*
X102346232Y-123210784D01*
X102346233Y-123210783D01*
X102349531Y-123209664D01*
X102353160Y-123207632D01*
X102385976Y-123189254D01*
X102437287Y-123180897D01*
X102476852Y-123201823D01*
X102573988Y-123298959D01*
X102577503Y-123303031D01*
X102579575Y-123307269D01*
X102584720Y-123312042D01*
X102584721Y-123312043D01*
X102616154Y-123341201D01*
X102618208Y-123343179D01*
X102632277Y-123357248D01*
X102635171Y-123359234D01*
X102637629Y-123361276D01*
X102640741Y-123364010D01*
X102661646Y-123383401D01*
X102674712Y-123388614D01*
X102689540Y-123396532D01*
X102701146Y-123404493D01*
X102728714Y-123411035D01*
X102739314Y-123414387D01*
X102765622Y-123424883D01*
X102771915Y-123425500D01*
X102780778Y-123425500D01*
X102798326Y-123427554D01*
X102802578Y-123428563D01*
X102810066Y-123430340D01*
X102817017Y-123429394D01*
X102817018Y-123429394D01*
X102840532Y-123426194D01*
X102850780Y-123425500D01*
X109195515Y-123425500D01*
X109200883Y-123425894D01*
X109205342Y-123427425D01*
X109212351Y-123427162D01*
X109212352Y-123427162D01*
X109255214Y-123425553D01*
X109258065Y-123425500D01*
X109277948Y-123425500D01*
X109281388Y-123424859D01*
X109284600Y-123424563D01*
X109288733Y-123424295D01*
X109317208Y-123423226D01*
X109330138Y-123417671D01*
X109346211Y-123412787D01*
X109360053Y-123410209D01*
X109379132Y-123398449D01*
X109384164Y-123395347D01*
X109394044Y-123390215D01*
X109415129Y-123381156D01*
X109415130Y-123381156D01*
X109420063Y-123379036D01*
X109424949Y-123375022D01*
X109431214Y-123368757D01*
X109445074Y-123357801D01*
X109449375Y-123355150D01*
X109455348Y-123351468D01*
X109466056Y-123337387D01*
X109473956Y-123326997D01*
X109480712Y-123319259D01*
X110365117Y-122434854D01*
X117923984Y-122434854D01*
X117925436Y-122440271D01*
X117955467Y-122468080D01*
X117958741Y-122470789D01*
X118243326Y-122680603D01*
X118246879Y-122682929D01*
X118553088Y-122859718D01*
X118556852Y-122861619D01*
X118880881Y-123003184D01*
X118884831Y-123004653D01*
X119222601Y-123109211D01*
X119226714Y-123110236D01*
X119574023Y-123176488D01*
X119578236Y-123177050D01*
X119930769Y-123204177D01*
X119934991Y-123204265D01*
X120288368Y-123191925D01*
X120292572Y-123191542D01*
X120642370Y-123139889D01*
X120646507Y-123139040D01*
X120988362Y-123048718D01*
X120992391Y-123047409D01*
X121322047Y-122919543D01*
X121325889Y-122917800D01*
X121639251Y-122753980D01*
X121642866Y-122751825D01*
X121936003Y-122554101D01*
X121939388Y-122551532D01*
X122068878Y-122441326D01*
X122074276Y-122431824D01*
X122073378Y-122426932D01*
X120009476Y-120363029D01*
X119999574Y-120358411D01*
X119993519Y-120360034D01*
X117928602Y-122424952D01*
X117923984Y-122434854D01*
X110365117Y-122434854D01*
X112894962Y-119905009D01*
X112942078Y-119883038D01*
X112990815Y-119895484D01*
X113067036Y-119946221D01*
X113082313Y-119956390D01*
X113171214Y-119984164D01*
X113213990Y-119997528D01*
X113213992Y-119997528D01*
X113219157Y-119999142D01*
X113296291Y-120000556D01*
X113357088Y-120001671D01*
X113357089Y-120001671D01*
X113362499Y-120001770D01*
X113367717Y-120000347D01*
X113367720Y-120000347D01*
X113483977Y-119968651D01*
X113500817Y-119964060D01*
X113505429Y-119961228D01*
X113505432Y-119961227D01*
X113511694Y-119957382D01*
X116795359Y-119957382D01*
X116810165Y-120310634D01*
X116810579Y-120314857D01*
X116864671Y-120664267D01*
X116865553Y-120668416D01*
X116958255Y-121009614D01*
X116959596Y-121013645D01*
X117089754Y-121342389D01*
X117091530Y-121346234D01*
X117257524Y-121658421D01*
X117259723Y-121662052D01*
X117459476Y-121953786D01*
X117462066Y-121957149D01*
X117558582Y-122068964D01*
X117568117Y-122074293D01*
X117573104Y-122073342D01*
X119636971Y-120009476D01*
X119641192Y-120000426D01*
X120358411Y-120000426D01*
X120360034Y-120006481D01*
X122425636Y-122072082D01*
X122435538Y-122076700D01*
X122441065Y-122075219D01*
X122453759Y-122061700D01*
X122456467Y-122058474D01*
X122668282Y-121775335D01*
X122670618Y-121771819D01*
X122849542Y-121466850D01*
X122851483Y-121463073D01*
X122995291Y-121140077D01*
X122996800Y-121136104D01*
X123103707Y-120799088D01*
X123104761Y-120794985D01*
X123173438Y-120448143D01*
X123174030Y-120443927D01*
X123203680Y-120090829D01*
X123203811Y-120088159D01*
X123205024Y-120001320D01*
X123204968Y-119998669D01*
X123185187Y-119644861D01*
X123184714Y-119640647D01*
X123125747Y-119292009D01*
X123124813Y-119287900D01*
X123027350Y-118948007D01*
X123025955Y-118944002D01*
X122891224Y-118617119D01*
X122889384Y-118613280D01*
X122719055Y-118303451D01*
X122716806Y-118299852D01*
X122512992Y-118010928D01*
X122510362Y-118007609D01*
X122441935Y-117930537D01*
X122432326Y-117925341D01*
X122427150Y-117926404D01*
X120363029Y-119990524D01*
X120358411Y-120000426D01*
X119641192Y-120000426D01*
X119641589Y-119999574D01*
X119639966Y-119993519D01*
X117575621Y-117929175D01*
X117565719Y-117924557D01*
X117560410Y-117925980D01*
X117517703Y-117972751D01*
X117515020Y-117976041D01*
X117307198Y-118262082D01*
X117304902Y-118265645D01*
X117130246Y-118573096D01*
X117128375Y-118576865D01*
X116989080Y-118901865D01*
X116987633Y-118905840D01*
X116885437Y-119244329D01*
X116884441Y-119248448D01*
X116820615Y-119596208D01*
X116820083Y-119600419D01*
X116795418Y-119953127D01*
X116795359Y-119957382D01*
X113511694Y-119957382D01*
X113612504Y-119895484D01*
X113622991Y-119889045D01*
X113719200Y-119782754D01*
X113721562Y-119777879D01*
X113721564Y-119777876D01*
X113779347Y-119658610D01*
X113781710Y-119653733D01*
X113805496Y-119512354D01*
X113805647Y-119500000D01*
X113798291Y-119448630D01*
X113786091Y-119363443D01*
X113786091Y-119363441D01*
X113785323Y-119358082D01*
X113725984Y-119227572D01*
X113632400Y-119118963D01*
X113545508Y-119062642D01*
X113516636Y-119043928D01*
X113516634Y-119043927D01*
X113512095Y-119040985D01*
X113381545Y-119001943D01*
X113339837Y-118970910D01*
X113327833Y-118920328D01*
X113349582Y-118875389D01*
X114657020Y-117567951D01*
X117925579Y-117567951D01*
X117926585Y-117573031D01*
X119990524Y-119636971D01*
X120000426Y-119641589D01*
X120006481Y-119639966D01*
X122070361Y-117576085D01*
X122074979Y-117566183D01*
X122073584Y-117560979D01*
X122009873Y-117503613D01*
X122006562Y-117500951D01*
X121719069Y-117295127D01*
X121715500Y-117292862D01*
X121406848Y-117120361D01*
X121403045Y-117118506D01*
X121077091Y-116981488D01*
X121073100Y-116980067D01*
X120733909Y-116880238D01*
X120729780Y-116879270D01*
X120381587Y-116817874D01*
X120377369Y-116817371D01*
X120024492Y-116795169D01*
X120020254Y-116795140D01*
X119667114Y-116812412D01*
X119662873Y-116812858D01*
X119313864Y-116869384D01*
X119309715Y-116870296D01*
X118969172Y-116965377D01*
X118965157Y-116966744D01*
X118637328Y-117099195D01*
X118633487Y-117101003D01*
X118322480Y-117269164D01*
X118318851Y-117271397D01*
X118028534Y-117473173D01*
X118025175Y-117475796D01*
X117930841Y-117558379D01*
X117925579Y-117567951D01*
X114657020Y-117567951D01*
X118427211Y-113797760D01*
X118474327Y-113775789D01*
X118480951Y-113775500D01*
X119188309Y-113775500D01*
X119237161Y-113793281D01*
X119246486Y-113802597D01*
X119287970Y-113851948D01*
X119407313Y-113931390D01*
X119497154Y-113959458D01*
X119538990Y-113972528D01*
X119538992Y-113972528D01*
X119544157Y-113974142D01*
X119621291Y-113975556D01*
X119682088Y-113976671D01*
X119682089Y-113976671D01*
X119687499Y-113976770D01*
X119692717Y-113975347D01*
X119692720Y-113975347D01*
X119774629Y-113953015D01*
X119825817Y-113939060D01*
X119830429Y-113936228D01*
X119830432Y-113936227D01*
X119899725Y-113893681D01*
X119947991Y-113864045D01*
X120042155Y-113760014D01*
X120088119Y-113735727D01*
X120138942Y-113746669D01*
X120170841Y-113787719D01*
X120174500Y-113811015D01*
X120174500Y-115457655D01*
X120156719Y-115506507D01*
X120150158Y-115513114D01*
X120147280Y-115514930D01*
X120143696Y-115518988D01*
X120059452Y-115614377D01*
X120052377Y-115622388D01*
X120050078Y-115627284D01*
X120050077Y-115627286D01*
X119996315Y-115741796D01*
X119991447Y-115752163D01*
X119990614Y-115757514D01*
X119990613Y-115757517D01*
X119971308Y-115881509D01*
X119969391Y-115893823D01*
X119970093Y-115899191D01*
X119970093Y-115899192D01*
X119971431Y-115909423D01*
X119987980Y-116035979D01*
X120045720Y-116167203D01*
X120137970Y-116276948D01*
X120257313Y-116356390D01*
X120347154Y-116384458D01*
X120388990Y-116397528D01*
X120388992Y-116397528D01*
X120394157Y-116399142D01*
X120471291Y-116400556D01*
X120532088Y-116401671D01*
X120532089Y-116401671D01*
X120537499Y-116401770D01*
X120542717Y-116400347D01*
X120542720Y-116400347D01*
X120624629Y-116378015D01*
X120675817Y-116364060D01*
X120680429Y-116361228D01*
X120680432Y-116361227D01*
X120749725Y-116318681D01*
X120797991Y-116289045D01*
X120894200Y-116182754D01*
X120896562Y-116177879D01*
X120896564Y-116177876D01*
X120954347Y-116058610D01*
X120956710Y-116053733D01*
X120980496Y-115912354D01*
X120980647Y-115900000D01*
X120979763Y-115893823D01*
X120961091Y-115763443D01*
X120961091Y-115763441D01*
X120960323Y-115758082D01*
X120900984Y-115627572D01*
X120807400Y-115518963D01*
X120802855Y-115516017D01*
X120801539Y-115514869D01*
X120776415Y-115469356D01*
X120775500Y-115457598D01*
X120775500Y-110929495D01*
X120775894Y-110924127D01*
X120777425Y-110919668D01*
X120775774Y-110875670D01*
X120775553Y-110869796D01*
X120775500Y-110866945D01*
X120775500Y-110847062D01*
X120774859Y-110843622D01*
X120774563Y-110840410D01*
X120774295Y-110836275D01*
X120773489Y-110814817D01*
X120773226Y-110807802D01*
X120767671Y-110794872D01*
X120762787Y-110778799D01*
X120760209Y-110764957D01*
X120745347Y-110740846D01*
X120740215Y-110730966D01*
X120731156Y-110709881D01*
X120731156Y-110709880D01*
X120729036Y-110704947D01*
X120725022Y-110700061D01*
X120718757Y-110693796D01*
X120707801Y-110679936D01*
X120705150Y-110675635D01*
X120701468Y-110669662D01*
X120676996Y-110651053D01*
X120669259Y-110644298D01*
X120198377Y-110173416D01*
X120176406Y-110126300D01*
X120177170Y-110107068D01*
X120179998Y-110090258D01*
X120179999Y-110090250D01*
X120180486Y-110087354D01*
X120180637Y-110075000D01*
X120179753Y-110068823D01*
X120161081Y-109938443D01*
X120161081Y-109938441D01*
X120160313Y-109933082D01*
X120100974Y-109802572D01*
X120007390Y-109693963D01*
X119996711Y-109687041D01*
X119891626Y-109618928D01*
X119891624Y-109618927D01*
X119887085Y-109615985D01*
X119749729Y-109574907D01*
X119692044Y-109574555D01*
X119611781Y-109574064D01*
X119611780Y-109574064D01*
X119606366Y-109574031D01*
X119468519Y-109613428D01*
X119347270Y-109689930D01*
X119252367Y-109797388D01*
X119250068Y-109802284D01*
X119250067Y-109802286D01*
X119227444Y-109850471D01*
X119191437Y-109927163D01*
X119190604Y-109932514D01*
X119190603Y-109932517D01*
X119174810Y-110033951D01*
X119169381Y-110068823D01*
X119170083Y-110074191D01*
X119170083Y-110074192D01*
X119171419Y-110084410D01*
X119187970Y-110210979D01*
X119245710Y-110342203D01*
X119337960Y-110451948D01*
X119457303Y-110531390D01*
X119524909Y-110552511D01*
X119588980Y-110572528D01*
X119588982Y-110572528D01*
X119594147Y-110574142D01*
X119690406Y-110575907D01*
X119721394Y-110576475D01*
X119773741Y-110598722D01*
X120152240Y-110977221D01*
X120174211Y-111024337D01*
X120174500Y-111030961D01*
X120174500Y-111941288D01*
X120156719Y-111990140D01*
X120111697Y-112016133D01*
X120060500Y-112007106D01*
X120040925Y-111990898D01*
X119960933Y-111898063D01*
X119960932Y-111898062D01*
X119957400Y-111893963D01*
X119887963Y-111848956D01*
X119841636Y-111818928D01*
X119841634Y-111818927D01*
X119837095Y-111815985D01*
X119699739Y-111774907D01*
X119642054Y-111774555D01*
X119561791Y-111774064D01*
X119561790Y-111774064D01*
X119556376Y-111774031D01*
X119418529Y-111813428D01*
X119297280Y-111889930D01*
X119293697Y-111893988D01*
X119293696Y-111893988D01*
X119245280Y-111948809D01*
X119199614Y-111973655D01*
X119188315Y-111974500D01*
X119013788Y-111974500D01*
X119008420Y-111974106D01*
X119003958Y-111972574D01*
X118996947Y-111972837D01*
X118996946Y-111972837D01*
X118954097Y-111974446D01*
X118951246Y-111974500D01*
X118931352Y-111974500D01*
X118927904Y-111975142D01*
X118924712Y-111975437D01*
X118920620Y-111975703D01*
X118892092Y-111976774D01*
X118879162Y-111982329D01*
X118863089Y-111987213D01*
X118849247Y-111989791D01*
X118843275Y-111993472D01*
X118825136Y-112004653D01*
X118815259Y-112009784D01*
X118789238Y-112020964D01*
X118784351Y-112024977D01*
X118778083Y-112031245D01*
X118764225Y-112042200D01*
X118753952Y-112048532D01*
X118749705Y-112054117D01*
X118749704Y-112054118D01*
X118735347Y-112072999D01*
X118728591Y-112080737D01*
X113827841Y-116981488D01*
X109471683Y-121337646D01*
X109424567Y-121359617D01*
X109374351Y-121346162D01*
X109344533Y-121303576D01*
X109349064Y-121251787D01*
X109351633Y-121246771D01*
X109432502Y-121102370D01*
X109435327Y-121096024D01*
X109498070Y-120911189D01*
X109499690Y-120904444D01*
X109527879Y-120710020D01*
X109528257Y-120705586D01*
X109529654Y-120652234D01*
X109529508Y-120647772D01*
X109511533Y-120452154D01*
X109510268Y-120445329D01*
X109457283Y-120257455D01*
X109454798Y-120250982D01*
X109368540Y-120076069D01*
X109361035Y-120071149D01*
X109356916Y-120071637D01*
X107853303Y-121575250D01*
X107848685Y-121585152D01*
X107849595Y-121588546D01*
X107849703Y-121588652D01*
X107894982Y-121618906D01*
X107901079Y-121622217D01*
X108080419Y-121699267D01*
X108087027Y-121701414D01*
X108277407Y-121744493D01*
X108284290Y-121745399D01*
X108479333Y-121753062D01*
X108486261Y-121752700D01*
X108679444Y-121724690D01*
X108686189Y-121723070D01*
X108871024Y-121660327D01*
X108877370Y-121657502D01*
X109021771Y-121576633D01*
X109073082Y-121568277D01*
X109117760Y-121594857D01*
X109134899Y-121643938D01*
X109116481Y-121692553D01*
X109112646Y-121696683D01*
X108832090Y-121977239D01*
X108784974Y-121999210D01*
X108778350Y-121999499D01*
X107330950Y-121999499D01*
X107282098Y-121981718D01*
X107277210Y-121977239D01*
X107276823Y-121976852D01*
X107254852Y-121929736D01*
X107264254Y-121885976D01*
X107282959Y-121852576D01*
X107282960Y-121852574D01*
X107284664Y-121849531D01*
X107290346Y-121832792D01*
X107348560Y-121661301D01*
X107348560Y-121661299D01*
X107349678Y-121658007D01*
X107378700Y-121457842D01*
X107380215Y-121400000D01*
X107373712Y-121329228D01*
X107370676Y-121296185D01*
X107383912Y-121245911D01*
X107426367Y-121215907D01*
X107478175Y-121220212D01*
X107489677Y-121226786D01*
X107490568Y-121227404D01*
X107494395Y-121227052D01*
X108061971Y-120659476D01*
X108066589Y-120649574D01*
X108064966Y-120643519D01*
X107498080Y-120076633D01*
X107488178Y-120072015D01*
X107486864Y-120072367D01*
X107484377Y-120075191D01*
X107406000Y-120224163D01*
X107403346Y-120230569D01*
X107345461Y-120416991D01*
X107344018Y-120423778D01*
X107321076Y-120617619D01*
X107320894Y-120624562D01*
X107328300Y-120737555D01*
X107313753Y-120787466D01*
X107270527Y-120816348D01*
X107218849Y-120810688D01*
X107191568Y-120787999D01*
X107127177Y-120701770D01*
X107096335Y-120660467D01*
X106947812Y-120523174D01*
X106935247Y-120515246D01*
X106779699Y-120417102D01*
X106779697Y-120417101D01*
X106776757Y-120415246D01*
X106638367Y-120360034D01*
X106592127Y-120341586D01*
X106592125Y-120341585D01*
X106588898Y-120340298D01*
X106460999Y-120314857D01*
X106393941Y-120301518D01*
X106393938Y-120301518D01*
X106390526Y-120300839D01*
X106387044Y-120300793D01*
X106387040Y-120300793D01*
X106289998Y-120299523D01*
X106241383Y-120281105D01*
X106215981Y-120235746D01*
X106225678Y-120184672D01*
X106269725Y-120150567D01*
X106346403Y-120128217D01*
X107042638Y-119891877D01*
X107217548Y-119832503D01*
X107217553Y-119832501D01*
X107218343Y-119832233D01*
X107219110Y-119831935D01*
X107219123Y-119831930D01*
X107526542Y-119712381D01*
X107744911Y-119627462D01*
X107796884Y-119626328D01*
X107837428Y-119658868D01*
X107848448Y-119697299D01*
X107848740Y-119719601D01*
X107849811Y-119721258D01*
X108415524Y-120286971D01*
X108425426Y-120291589D01*
X108431481Y-120289966D01*
X108996286Y-119725161D01*
X109000904Y-119715259D01*
X109000133Y-119712381D01*
X108999362Y-119711647D01*
X108929477Y-119667554D01*
X108923289Y-119664401D01*
X108741991Y-119592070D01*
X108735341Y-119590100D01*
X108543889Y-119552018D01*
X108536988Y-119551293D01*
X108341815Y-119548738D01*
X108334889Y-119549283D01*
X108331675Y-119549835D01*
X108280518Y-119540585D01*
X108247274Y-119500616D01*
X108247500Y-119448630D01*
X108281089Y-119408951D01*
X108288194Y-119405369D01*
X108681071Y-119232499D01*
X108919368Y-119127646D01*
X108920108Y-119127281D01*
X108920121Y-119127275D01*
X109472379Y-118854931D01*
X109745215Y-118720383D01*
X110552511Y-118277485D01*
X111339720Y-117799795D01*
X112105343Y-117288222D01*
X112661763Y-116880238D01*
X112847258Y-116744228D01*
X112847270Y-116744219D01*
X112847923Y-116743740D01*
X112870629Y-116725517D01*
X113565382Y-116167919D01*
X113565390Y-116167913D01*
X113566047Y-116167385D01*
X114258346Y-115560254D01*
X114923504Y-114923504D01*
X114979601Y-114864904D01*
X115559675Y-114258951D01*
X115559679Y-114258947D01*
X115560254Y-114258346D01*
X116167385Y-113566047D01*
X116376332Y-113305704D01*
X116743213Y-112848580D01*
X116743220Y-112848571D01*
X116743740Y-112847923D01*
X116797839Y-112774142D01*
X117262088Y-112140985D01*
X117288222Y-112105343D01*
X117799795Y-111339720D01*
X118277485Y-110552511D01*
X118720383Y-109745215D01*
X119127646Y-108919368D01*
X119498498Y-108076542D01*
X119832233Y-107218343D01*
X120128217Y-106346403D01*
X120385886Y-105462382D01*
X120604749Y-104567963D01*
X120784389Y-103664849D01*
X120924466Y-102754758D01*
X121024711Y-101839424D01*
X121084935Y-100920588D01*
X121085321Y-100902921D01*
X121101218Y-100174342D01*
X121120060Y-100125890D01*
X121165639Y-100100885D01*
X121177200Y-100100000D01*
X123814066Y-100100000D01*
X123862918Y-100117781D01*
G37*
G04 #@! TD.AperFunction*
G04 #@! TA.AperFunction,Conductor*
G36*
X94849692Y-120462250D02*
G01*
X95432037Y-120604749D01*
X95707169Y-120659476D01*
X96156453Y-120748844D01*
X96200897Y-120775814D01*
X96217608Y-120825042D01*
X96198766Y-120873494D01*
X96153187Y-120898499D01*
X96140631Y-120899377D01*
X96091815Y-120898738D01*
X96084886Y-120899283D01*
X95892511Y-120932339D01*
X95885816Y-120934133D01*
X95702670Y-121001699D01*
X95696419Y-121004681D01*
X95605620Y-121058700D01*
X95598708Y-121067159D01*
X95598740Y-121069601D01*
X95599811Y-121071258D01*
X96165524Y-121636971D01*
X96175426Y-121641589D01*
X96181481Y-121639966D01*
X96746286Y-121075161D01*
X96750904Y-121065259D01*
X96750133Y-121062381D01*
X96749362Y-121061647D01*
X96679477Y-121017554D01*
X96673289Y-121014401D01*
X96566577Y-120971827D01*
X96527792Y-120937210D01*
X96520333Y-120885761D01*
X96547689Y-120841554D01*
X96597061Y-120825273D01*
X96606299Y-120826123D01*
X96761431Y-120850000D01*
X97244403Y-120924337D01*
X97244409Y-120924338D01*
X97245242Y-120924466D01*
X97246070Y-120924557D01*
X97246080Y-120924558D01*
X97582357Y-120961386D01*
X98160576Y-121024711D01*
X98161409Y-121024766D01*
X98161425Y-121024767D01*
X98735306Y-121062381D01*
X99079412Y-121084935D01*
X99080215Y-121084953D01*
X99080226Y-121084953D01*
X99477977Y-121093632D01*
X99526429Y-121112474D01*
X99551434Y-121158053D01*
X99541292Y-121209041D01*
X99500748Y-121241581D01*
X99489195Y-121244515D01*
X99413949Y-121257444D01*
X99224193Y-121327449D01*
X99050371Y-121430862D01*
X99047758Y-121433154D01*
X99047756Y-121433155D01*
X98995564Y-121478926D01*
X98898305Y-121564220D01*
X98896145Y-121566960D01*
X98896144Y-121566961D01*
X98864190Y-121607495D01*
X98773089Y-121723057D01*
X98678914Y-121902053D01*
X98618937Y-122095213D01*
X98618528Y-122098670D01*
X98618527Y-122098674D01*
X98601464Y-122242844D01*
X98595164Y-122296069D01*
X98595392Y-122299548D01*
X98595392Y-122299549D01*
X98597010Y-122324228D01*
X98608392Y-122497894D01*
X98609250Y-122501272D01*
X98609251Y-122501279D01*
X98640467Y-122624192D01*
X98635259Y-122675918D01*
X98620546Y-122696640D01*
X98089946Y-123227240D01*
X98042830Y-123249211D01*
X98036206Y-123249500D01*
X96277606Y-123249500D01*
X96228754Y-123231719D01*
X96202761Y-123186697D01*
X96211788Y-123135500D01*
X96251612Y-123102083D01*
X96266701Y-123098286D01*
X96429444Y-123074690D01*
X96436189Y-123073070D01*
X96621024Y-123010327D01*
X96627370Y-123007502D01*
X96744894Y-122941685D01*
X96752024Y-122933410D01*
X96752049Y-122931509D01*
X96750519Y-122929072D01*
X96184476Y-122363029D01*
X96174574Y-122358411D01*
X96168519Y-122360034D01*
X95603303Y-122925250D01*
X95598685Y-122935152D01*
X95599595Y-122938546D01*
X95599703Y-122938652D01*
X95644982Y-122968906D01*
X95651079Y-122972217D01*
X95830419Y-123049267D01*
X95837027Y-123051414D01*
X96027407Y-123094493D01*
X96034290Y-123095399D01*
X96089269Y-123097559D01*
X96137385Y-123117243D01*
X96161591Y-123163251D01*
X96150560Y-123214055D01*
X96109455Y-123245882D01*
X96086285Y-123249500D01*
X92858951Y-123249500D01*
X92810099Y-123231719D01*
X92784106Y-123186697D01*
X92793133Y-123135500D01*
X92805211Y-123119760D01*
X93098711Y-122826261D01*
X93422965Y-122502007D01*
X93470081Y-122480036D01*
X93506705Y-122485919D01*
X93655264Y-122549745D01*
X93655268Y-122549746D01*
X93658470Y-122551122D01*
X93661870Y-122551891D01*
X93661872Y-122551892D01*
X93852341Y-122594991D01*
X93852342Y-122594991D01*
X93855740Y-122595760D01*
X93859223Y-122595897D01*
X93859224Y-122595897D01*
X93943427Y-122599205D01*
X94057842Y-122603700D01*
X94061282Y-122603201D01*
X94061287Y-122603201D01*
X94200562Y-122583007D01*
X94258007Y-122574678D01*
X94327401Y-122551122D01*
X94446232Y-122510784D01*
X94446233Y-122510783D01*
X94449531Y-122509664D01*
X94551838Y-122452370D01*
X94622964Y-122412538D01*
X94622966Y-122412537D01*
X94626001Y-122410837D01*
X94781505Y-122281505D01*
X94910837Y-122126001D01*
X94917034Y-122114936D01*
X94937644Y-122078134D01*
X94977028Y-122044199D01*
X95029011Y-122043518D01*
X95069269Y-122076411D01*
X95079791Y-122110299D01*
X95083660Y-122169337D01*
X95084745Y-122176189D01*
X95132795Y-122365386D01*
X95135111Y-122371925D01*
X95216834Y-122549197D01*
X95220297Y-122555196D01*
X95231592Y-122571177D01*
X95240568Y-122577404D01*
X95244395Y-122577052D01*
X95811971Y-122009476D01*
X95816192Y-122000426D01*
X96533411Y-122000426D01*
X96535034Y-122006481D01*
X97100662Y-122572109D01*
X97110564Y-122576727D01*
X97112402Y-122576234D01*
X97114326Y-122574106D01*
X97182502Y-122452370D01*
X97185327Y-122446024D01*
X97248070Y-122261189D01*
X97249690Y-122254444D01*
X97277879Y-122060020D01*
X97278257Y-122055586D01*
X97279654Y-122002234D01*
X97279508Y-121997772D01*
X97261533Y-121802154D01*
X97260268Y-121795329D01*
X97207283Y-121607455D01*
X97204798Y-121600982D01*
X97118540Y-121426069D01*
X97111035Y-121421149D01*
X97106916Y-121421637D01*
X96538029Y-121990524D01*
X96533411Y-122000426D01*
X95816192Y-122000426D01*
X95816589Y-121999574D01*
X95814966Y-121993519D01*
X95248080Y-121426633D01*
X95238178Y-121422015D01*
X95236864Y-121422367D01*
X95228376Y-121432004D01*
X95225591Y-121429551D01*
X95199522Y-121453212D01*
X95147574Y-121455233D01*
X95106480Y-121423391D01*
X95095090Y-121389814D01*
X95092316Y-121359617D01*
X95086708Y-121298591D01*
X95048507Y-121163140D01*
X95032752Y-121107275D01*
X95032750Y-121107270D01*
X95031807Y-121103926D01*
X95030269Y-121100807D01*
X95030267Y-121100802D01*
X94943892Y-120925652D01*
X94942351Y-120922527D01*
X94821335Y-120760467D01*
X94672812Y-120623174D01*
X94538794Y-120538614D01*
X94506967Y-120497510D01*
X94509008Y-120445563D01*
X94543962Y-120407081D01*
X94597413Y-120400518D01*
X94849692Y-120462250D01*
G37*
G04 #@! TD.AperFunction*
G04 #@! TA.AperFunction,Conductor*
G36*
X108692912Y-78768292D02*
G01*
X108697800Y-78772771D01*
X113552250Y-83627221D01*
X113574221Y-83674337D01*
X113560766Y-83724553D01*
X113518180Y-83754371D01*
X113466391Y-83749840D01*
X113450940Y-83740232D01*
X112848580Y-83256787D01*
X112848571Y-83256780D01*
X112847923Y-83256260D01*
X112847270Y-83255781D01*
X112847258Y-83255772D01*
X112106019Y-82712274D01*
X112105343Y-82711778D01*
X111339720Y-82200205D01*
X110552511Y-81722515D01*
X109745215Y-81279617D01*
X109194745Y-81008155D01*
X108920121Y-80872725D01*
X108920108Y-80872719D01*
X108919368Y-80872354D01*
X108076542Y-80501502D01*
X108075793Y-80501211D01*
X108075784Y-80501207D01*
X107219123Y-80168070D01*
X107219110Y-80168065D01*
X107218343Y-80167767D01*
X106346403Y-79871783D01*
X105462382Y-79614114D01*
X104567963Y-79395251D01*
X103664849Y-79215611D01*
X103664009Y-79215482D01*
X103664005Y-79215481D01*
X102755597Y-79075663D01*
X102755591Y-79075662D01*
X102754758Y-79075534D01*
X102753930Y-79075443D01*
X102753920Y-79075442D01*
X102395895Y-79036232D01*
X101839424Y-78975289D01*
X101838591Y-78975234D01*
X101838575Y-78975233D01*
X101240542Y-78936036D01*
X100920588Y-78915065D01*
X100919785Y-78915047D01*
X100919774Y-78915047D01*
X100344413Y-78902493D01*
X100295961Y-78883651D01*
X100270956Y-78838072D01*
X100281098Y-78787084D01*
X100321642Y-78754544D01*
X100346071Y-78750511D01*
X108644060Y-78750511D01*
X108692912Y-78768292D01*
G37*
G04 #@! TD.AperFunction*
M02*
