G04 #@! TF.GenerationSoftware,KiCad,Pcbnew,6.0.0-d3dd2cf0fa~116~ubuntu20.04.1*
G04 #@! TF.CreationDate,2022-01-19T00:51:47+01:00*
G04 #@! TF.ProjectId,lensmount,6c656e73-6d6f-4756-9e74-2e6b69636164,rev?*
G04 #@! TF.SameCoordinates,Original*
G04 #@! TF.FileFunction,Legend,Bot*
G04 #@! TF.FilePolarity,Positive*
%FSLAX46Y46*%
G04 Gerber Fmt 4.6, Leading zero omitted, Abs format (unit mm)*
G04 Created by KiCad (PCBNEW 6.0.0-d3dd2cf0fa~116~ubuntu20.04.1) date 2022-01-19 00:51:47*
%MOMM*%
%LPD*%
G01*
G04 APERTURE LIST*
%ADD10C,0.100000*%
%ADD11C,0.120000*%
G04 APERTURE END LIST*
D10*
X121582142Y-89371428D02*
X121582142Y-89857142D01*
X121553571Y-89914285D01*
X121525000Y-89942857D01*
X121467857Y-89971428D01*
X121353571Y-89971428D01*
X121296428Y-89942857D01*
X121267857Y-89914285D01*
X121239285Y-89857142D01*
X121239285Y-89371428D01*
X120639285Y-89971428D02*
X120982142Y-89971428D01*
X120810714Y-89971428D02*
X120810714Y-89371428D01*
X120867857Y-89457142D01*
X120925000Y-89514285D01*
X120982142Y-89542857D01*
X80985714Y-115171428D02*
X81185714Y-114885714D01*
X81328571Y-115171428D02*
X81328571Y-114571428D01*
X81100000Y-114571428D01*
X81042857Y-114600000D01*
X81014285Y-114628571D01*
X80985714Y-114685714D01*
X80985714Y-114771428D01*
X81014285Y-114828571D01*
X81042857Y-114857142D01*
X81100000Y-114885714D01*
X81328571Y-114885714D01*
X80414285Y-115171428D02*
X80757142Y-115171428D01*
X80585714Y-115171428D02*
X80585714Y-114571428D01*
X80642857Y-114657142D01*
X80700000Y-114714285D01*
X80757142Y-114742857D01*
X80214285Y-114571428D02*
X79842857Y-114571428D01*
X80042857Y-114800000D01*
X79957142Y-114800000D01*
X79900000Y-114828571D01*
X79871428Y-114857142D01*
X79842857Y-114914285D01*
X79842857Y-115057142D01*
X79871428Y-115114285D01*
X79900000Y-115142857D01*
X79957142Y-115171428D01*
X80128571Y-115171428D01*
X80185714Y-115142857D01*
X80214285Y-115114285D01*
X84685714Y-118271428D02*
X84885714Y-117985714D01*
X85028571Y-118271428D02*
X85028571Y-117671428D01*
X84800000Y-117671428D01*
X84742857Y-117700000D01*
X84714285Y-117728571D01*
X84685714Y-117785714D01*
X84685714Y-117871428D01*
X84714285Y-117928571D01*
X84742857Y-117957142D01*
X84800000Y-117985714D01*
X85028571Y-117985714D01*
X84114285Y-118271428D02*
X84457142Y-118271428D01*
X84285714Y-118271428D02*
X84285714Y-117671428D01*
X84342857Y-117757142D01*
X84400000Y-117814285D01*
X84457142Y-117842857D01*
X83885714Y-117728571D02*
X83857142Y-117700000D01*
X83800000Y-117671428D01*
X83657142Y-117671428D01*
X83600000Y-117700000D01*
X83571428Y-117728571D01*
X83542857Y-117785714D01*
X83542857Y-117842857D01*
X83571428Y-117928571D01*
X83914285Y-118271428D01*
X83542857Y-118271428D01*
X82085714Y-113771428D02*
X82285714Y-113485714D01*
X82428571Y-113771428D02*
X82428571Y-113171428D01*
X82200000Y-113171428D01*
X82142857Y-113200000D01*
X82114285Y-113228571D01*
X82085714Y-113285714D01*
X82085714Y-113371428D01*
X82114285Y-113428571D01*
X82142857Y-113457142D01*
X82200000Y-113485714D01*
X82428571Y-113485714D01*
X81514285Y-113771428D02*
X81857142Y-113771428D01*
X81685714Y-113771428D02*
X81685714Y-113171428D01*
X81742857Y-113257142D01*
X81800000Y-113314285D01*
X81857142Y-113342857D01*
X80942857Y-113771428D02*
X81285714Y-113771428D01*
X81114285Y-113771428D02*
X81114285Y-113171428D01*
X81171428Y-113257142D01*
X81228571Y-113314285D01*
X81285714Y-113342857D01*
X86985714Y-117471428D02*
X87185714Y-117185714D01*
X87328571Y-117471428D02*
X87328571Y-116871428D01*
X87100000Y-116871428D01*
X87042857Y-116900000D01*
X87014285Y-116928571D01*
X86985714Y-116985714D01*
X86985714Y-117071428D01*
X87014285Y-117128571D01*
X87042857Y-117157142D01*
X87100000Y-117185714D01*
X87328571Y-117185714D01*
X86414285Y-117471428D02*
X86757142Y-117471428D01*
X86585714Y-117471428D02*
X86585714Y-116871428D01*
X86642857Y-116957142D01*
X86700000Y-117014285D01*
X86757142Y-117042857D01*
X86042857Y-116871428D02*
X85985714Y-116871428D01*
X85928571Y-116900000D01*
X85900000Y-116928571D01*
X85871428Y-116985714D01*
X85842857Y-117100000D01*
X85842857Y-117242857D01*
X85871428Y-117357142D01*
X85900000Y-117414285D01*
X85928571Y-117442857D01*
X85985714Y-117471428D01*
X86042857Y-117471428D01*
X86100000Y-117442857D01*
X86128571Y-117414285D01*
X86157142Y-117357142D01*
X86185714Y-117242857D01*
X86185714Y-117100000D01*
X86157142Y-116985714D01*
X86128571Y-116928571D01*
X86100000Y-116900000D01*
X86042857Y-116871428D01*
X84357142Y-122728571D02*
X84414285Y-122700000D01*
X84471428Y-122642857D01*
X84557142Y-122557142D01*
X84614285Y-122528571D01*
X84671428Y-122528571D01*
X84642857Y-122671428D02*
X84700000Y-122642857D01*
X84757142Y-122585714D01*
X84785714Y-122471428D01*
X84785714Y-122271428D01*
X84757142Y-122157142D01*
X84700000Y-122100000D01*
X84642857Y-122071428D01*
X84528571Y-122071428D01*
X84471428Y-122100000D01*
X84414285Y-122157142D01*
X84385714Y-122271428D01*
X84385714Y-122471428D01*
X84414285Y-122585714D01*
X84471428Y-122642857D01*
X84528571Y-122671428D01*
X84642857Y-122671428D01*
X83842857Y-122071428D02*
X84128571Y-122071428D01*
X84157142Y-122357142D01*
X84128571Y-122328571D01*
X84071428Y-122300000D01*
X83928571Y-122300000D01*
X83871428Y-122328571D01*
X83842857Y-122357142D01*
X83814285Y-122414285D01*
X83814285Y-122557142D01*
X83842857Y-122614285D01*
X83871428Y-122642857D01*
X83928571Y-122671428D01*
X84071428Y-122671428D01*
X84128571Y-122642857D01*
X84157142Y-122614285D01*
X88057142Y-118428571D02*
X88114285Y-118400000D01*
X88171428Y-118342857D01*
X88257142Y-118257142D01*
X88314285Y-118228571D01*
X88371428Y-118228571D01*
X88342857Y-118371428D02*
X88400000Y-118342857D01*
X88457142Y-118285714D01*
X88485714Y-118171428D01*
X88485714Y-117971428D01*
X88457142Y-117857142D01*
X88400000Y-117800000D01*
X88342857Y-117771428D01*
X88228571Y-117771428D01*
X88171428Y-117800000D01*
X88114285Y-117857142D01*
X88085714Y-117971428D01*
X88085714Y-118171428D01*
X88114285Y-118285714D01*
X88171428Y-118342857D01*
X88228571Y-118371428D01*
X88342857Y-118371428D01*
X87571428Y-117971428D02*
X87571428Y-118371428D01*
X87714285Y-117742857D02*
X87857142Y-118171428D01*
X87485714Y-118171428D01*
X110457142Y-79871428D02*
X110457142Y-80357142D01*
X110428571Y-80414285D01*
X110400000Y-80442857D01*
X110342857Y-80471428D01*
X110228571Y-80471428D01*
X110171428Y-80442857D01*
X110142857Y-80414285D01*
X110114285Y-80357142D01*
X110114285Y-79871428D01*
X109857142Y-79928571D02*
X109828571Y-79900000D01*
X109771428Y-79871428D01*
X109628571Y-79871428D01*
X109571428Y-79900000D01*
X109542857Y-79928571D01*
X109514285Y-79985714D01*
X109514285Y-80042857D01*
X109542857Y-80128571D01*
X109885714Y-80471428D01*
X109514285Y-80471428D01*
X85300000Y-117471428D02*
X85500000Y-117185714D01*
X85642857Y-117471428D02*
X85642857Y-116871428D01*
X85414285Y-116871428D01*
X85357142Y-116900000D01*
X85328571Y-116928571D01*
X85300000Y-116985714D01*
X85300000Y-117071428D01*
X85328571Y-117128571D01*
X85357142Y-117157142D01*
X85414285Y-117185714D01*
X85642857Y-117185714D01*
X85014285Y-117471428D02*
X84900000Y-117471428D01*
X84842857Y-117442857D01*
X84814285Y-117414285D01*
X84757142Y-117328571D01*
X84728571Y-117214285D01*
X84728571Y-116985714D01*
X84757142Y-116928571D01*
X84785714Y-116900000D01*
X84842857Y-116871428D01*
X84957142Y-116871428D01*
X85014285Y-116900000D01*
X85042857Y-116928571D01*
X85071428Y-116985714D01*
X85071428Y-117128571D01*
X85042857Y-117185714D01*
X85014285Y-117214285D01*
X84957142Y-117242857D01*
X84842857Y-117242857D01*
X84785714Y-117214285D01*
X84757142Y-117185714D01*
X84728571Y-117128571D01*
X117300000Y-113771428D02*
X117500000Y-113485714D01*
X117642857Y-113771428D02*
X117642857Y-113171428D01*
X117414285Y-113171428D01*
X117357142Y-113200000D01*
X117328571Y-113228571D01*
X117300000Y-113285714D01*
X117300000Y-113371428D01*
X117328571Y-113428571D01*
X117357142Y-113457142D01*
X117414285Y-113485714D01*
X117642857Y-113485714D01*
X116957142Y-113428571D02*
X117014285Y-113400000D01*
X117042857Y-113371428D01*
X117071428Y-113314285D01*
X117071428Y-113285714D01*
X117042857Y-113228571D01*
X117014285Y-113200000D01*
X116957142Y-113171428D01*
X116842857Y-113171428D01*
X116785714Y-113200000D01*
X116757142Y-113228571D01*
X116728571Y-113285714D01*
X116728571Y-113314285D01*
X116757142Y-113371428D01*
X116785714Y-113400000D01*
X116842857Y-113428571D01*
X116957142Y-113428571D01*
X117014285Y-113457142D01*
X117042857Y-113485714D01*
X117071428Y-113542857D01*
X117071428Y-113657142D01*
X117042857Y-113714285D01*
X117014285Y-113742857D01*
X116957142Y-113771428D01*
X116842857Y-113771428D01*
X116785714Y-113742857D01*
X116757142Y-113714285D01*
X116728571Y-113657142D01*
X116728571Y-113542857D01*
X116757142Y-113485714D01*
X116785714Y-113457142D01*
X116842857Y-113428571D01*
X113300000Y-118171428D02*
X113500000Y-117885714D01*
X113642857Y-118171428D02*
X113642857Y-117571428D01*
X113414285Y-117571428D01*
X113357142Y-117600000D01*
X113328571Y-117628571D01*
X113300000Y-117685714D01*
X113300000Y-117771428D01*
X113328571Y-117828571D01*
X113357142Y-117857142D01*
X113414285Y-117885714D01*
X113642857Y-117885714D01*
X113100000Y-117571428D02*
X112700000Y-117571428D01*
X112957142Y-118171428D01*
X117300000Y-114571428D02*
X117500000Y-114285714D01*
X117642857Y-114571428D02*
X117642857Y-113971428D01*
X117414285Y-113971428D01*
X117357142Y-114000000D01*
X117328571Y-114028571D01*
X117300000Y-114085714D01*
X117300000Y-114171428D01*
X117328571Y-114228571D01*
X117357142Y-114257142D01*
X117414285Y-114285714D01*
X117642857Y-114285714D01*
X116785714Y-113971428D02*
X116900000Y-113971428D01*
X116957142Y-114000000D01*
X116985714Y-114028571D01*
X117042857Y-114114285D01*
X117071428Y-114228571D01*
X117071428Y-114457142D01*
X117042857Y-114514285D01*
X117014285Y-114542857D01*
X116957142Y-114571428D01*
X116842857Y-114571428D01*
X116785714Y-114542857D01*
X116757142Y-114514285D01*
X116728571Y-114457142D01*
X116728571Y-114314285D01*
X116757142Y-114257142D01*
X116785714Y-114228571D01*
X116842857Y-114200000D01*
X116957142Y-114200000D01*
X117014285Y-114228571D01*
X117042857Y-114257142D01*
X117071428Y-114314285D01*
X122900000Y-112871428D02*
X123100000Y-112585714D01*
X123242857Y-112871428D02*
X123242857Y-112271428D01*
X123014285Y-112271428D01*
X122957142Y-112300000D01*
X122928571Y-112328571D01*
X122900000Y-112385714D01*
X122900000Y-112471428D01*
X122928571Y-112528571D01*
X122957142Y-112557142D01*
X123014285Y-112585714D01*
X123242857Y-112585714D01*
X122357142Y-112271428D02*
X122642857Y-112271428D01*
X122671428Y-112557142D01*
X122642857Y-112528571D01*
X122585714Y-112500000D01*
X122442857Y-112500000D01*
X122385714Y-112528571D01*
X122357142Y-112557142D01*
X122328571Y-112614285D01*
X122328571Y-112757142D01*
X122357142Y-112814285D01*
X122385714Y-112842857D01*
X122442857Y-112871428D01*
X122585714Y-112871428D01*
X122642857Y-112842857D01*
X122671428Y-112814285D01*
X115200000Y-123271428D02*
X115400000Y-122985714D01*
X115542857Y-123271428D02*
X115542857Y-122671428D01*
X115314285Y-122671428D01*
X115257142Y-122700000D01*
X115228571Y-122728571D01*
X115200000Y-122785714D01*
X115200000Y-122871428D01*
X115228571Y-122928571D01*
X115257142Y-122957142D01*
X115314285Y-122985714D01*
X115542857Y-122985714D01*
X114685714Y-122871428D02*
X114685714Y-123271428D01*
X114828571Y-122642857D02*
X114971428Y-123071428D01*
X114600000Y-123071428D01*
X122900000Y-116371428D02*
X123100000Y-116085714D01*
X123242857Y-116371428D02*
X123242857Y-115771428D01*
X123014285Y-115771428D01*
X122957142Y-115800000D01*
X122928571Y-115828571D01*
X122900000Y-115885714D01*
X122900000Y-115971428D01*
X122928571Y-116028571D01*
X122957142Y-116057142D01*
X123014285Y-116085714D01*
X123242857Y-116085714D01*
X122700000Y-115771428D02*
X122328571Y-115771428D01*
X122528571Y-116000000D01*
X122442857Y-116000000D01*
X122385714Y-116028571D01*
X122357142Y-116057142D01*
X122328571Y-116114285D01*
X122328571Y-116257142D01*
X122357142Y-116314285D01*
X122385714Y-116342857D01*
X122442857Y-116371428D01*
X122614285Y-116371428D01*
X122671428Y-116342857D01*
X122700000Y-116314285D01*
X120557142Y-109328571D02*
X120614285Y-109300000D01*
X120671428Y-109242857D01*
X120757142Y-109157142D01*
X120814285Y-109128571D01*
X120871428Y-109128571D01*
X120842857Y-109271428D02*
X120900000Y-109242857D01*
X120957142Y-109185714D01*
X120985714Y-109071428D01*
X120985714Y-108871428D01*
X120957142Y-108757142D01*
X120900000Y-108700000D01*
X120842857Y-108671428D01*
X120728571Y-108671428D01*
X120671428Y-108700000D01*
X120614285Y-108757142D01*
X120585714Y-108871428D01*
X120585714Y-109071428D01*
X120614285Y-109185714D01*
X120671428Y-109242857D01*
X120728571Y-109271428D01*
X120842857Y-109271428D01*
X120385714Y-108671428D02*
X120014285Y-108671428D01*
X120214285Y-108900000D01*
X120128571Y-108900000D01*
X120071428Y-108928571D01*
X120042857Y-108957142D01*
X120014285Y-109014285D01*
X120014285Y-109157142D01*
X120042857Y-109214285D01*
X120071428Y-109242857D01*
X120128571Y-109271428D01*
X120300000Y-109271428D01*
X120357142Y-109242857D01*
X120385714Y-109214285D01*
X114657142Y-119528572D02*
X114714285Y-119500001D01*
X114771428Y-119442858D01*
X114857142Y-119357143D01*
X114914285Y-119328572D01*
X114971428Y-119328572D01*
X114942857Y-119471429D02*
X115000000Y-119442858D01*
X115057142Y-119385715D01*
X115085714Y-119271429D01*
X115085714Y-119071429D01*
X115057142Y-118957143D01*
X115000000Y-118900001D01*
X114942857Y-118871429D01*
X114828571Y-118871429D01*
X114771428Y-118900001D01*
X114714285Y-118957143D01*
X114685714Y-119071429D01*
X114685714Y-119271429D01*
X114714285Y-119385715D01*
X114771428Y-119442858D01*
X114828571Y-119471429D01*
X114942857Y-119471429D01*
X114457142Y-118928572D02*
X114428571Y-118900001D01*
X114371428Y-118871429D01*
X114228571Y-118871429D01*
X114171428Y-118900001D01*
X114142857Y-118928572D01*
X114114285Y-118985715D01*
X114114285Y-119042858D01*
X114142857Y-119128572D01*
X114485714Y-119471429D01*
X114114285Y-119471429D01*
X119057142Y-116128571D02*
X119114285Y-116100000D01*
X119171428Y-116042857D01*
X119257142Y-115957142D01*
X119314285Y-115928571D01*
X119371428Y-115928571D01*
X119342857Y-116071428D02*
X119400000Y-116042857D01*
X119457142Y-115985714D01*
X119485714Y-115871428D01*
X119485714Y-115671428D01*
X119457142Y-115557142D01*
X119400000Y-115500000D01*
X119342857Y-115471428D01*
X119228571Y-115471428D01*
X119171428Y-115500000D01*
X119114285Y-115557142D01*
X119085714Y-115671428D01*
X119085714Y-115871428D01*
X119114285Y-115985714D01*
X119171428Y-116042857D01*
X119228571Y-116071428D01*
X119342857Y-116071428D01*
X118514285Y-116071428D02*
X118857142Y-116071428D01*
X118685714Y-116071428D02*
X118685714Y-115471428D01*
X118742857Y-115557142D01*
X118800000Y-115614285D01*
X118857142Y-115642857D01*
X87550000Y-124014285D02*
X87578571Y-124042857D01*
X87664285Y-124071428D01*
X87721428Y-124071428D01*
X87807142Y-124042857D01*
X87864285Y-123985714D01*
X87892857Y-123928571D01*
X87921428Y-123814285D01*
X87921428Y-123728571D01*
X87892857Y-123614285D01*
X87864285Y-123557142D01*
X87807142Y-123500000D01*
X87721428Y-123471428D01*
X87664285Y-123471428D01*
X87578571Y-123500000D01*
X87550000Y-123528571D01*
X87350000Y-123471428D02*
X86950000Y-123471428D01*
X87207142Y-124071428D01*
X90100000Y-124014285D02*
X90128571Y-124042857D01*
X90214285Y-124071428D01*
X90271428Y-124071428D01*
X90357142Y-124042857D01*
X90414285Y-123985714D01*
X90442857Y-123928571D01*
X90471428Y-123814285D01*
X90471428Y-123728571D01*
X90442857Y-123614285D01*
X90414285Y-123557142D01*
X90357142Y-123500000D01*
X90271428Y-123471428D01*
X90214285Y-123471428D01*
X90128571Y-123500000D01*
X90100000Y-123528571D01*
X89585714Y-123471428D02*
X89700000Y-123471428D01*
X89757142Y-123500000D01*
X89785714Y-123528571D01*
X89842857Y-123614285D01*
X89871428Y-123728571D01*
X89871428Y-123957142D01*
X89842857Y-124014285D01*
X89814285Y-124042857D01*
X89757142Y-124071428D01*
X89642857Y-124071428D01*
X89585714Y-124042857D01*
X89557142Y-124014285D01*
X89528571Y-123957142D01*
X89528571Y-123814285D01*
X89557142Y-123757142D01*
X89585714Y-123728571D01*
X89642857Y-123700000D01*
X89757142Y-123700000D01*
X89814285Y-123728571D01*
X89842857Y-123757142D01*
X89871428Y-123814285D01*
X112400000Y-80214285D02*
X112428571Y-80242857D01*
X112514285Y-80271428D01*
X112571428Y-80271428D01*
X112657142Y-80242857D01*
X112714285Y-80185714D01*
X112742857Y-80128571D01*
X112771428Y-80014285D01*
X112771428Y-79928571D01*
X112742857Y-79814285D01*
X112714285Y-79757142D01*
X112657142Y-79700000D01*
X112571428Y-79671428D01*
X112514285Y-79671428D01*
X112428571Y-79700000D01*
X112400000Y-79728571D01*
X111885714Y-79871428D02*
X111885714Y-80271428D01*
X112028571Y-79642857D02*
X112171428Y-80071428D01*
X111800000Y-80071428D01*
X107700000Y-79314285D02*
X107728571Y-79342857D01*
X107814285Y-79371428D01*
X107871428Y-79371428D01*
X107957142Y-79342857D01*
X108014285Y-79285714D01*
X108042857Y-79228571D01*
X108071428Y-79114285D01*
X108071428Y-79028571D01*
X108042857Y-78914285D01*
X108014285Y-78857142D01*
X107957142Y-78800000D01*
X107871428Y-78771428D01*
X107814285Y-78771428D01*
X107728571Y-78800000D01*
X107700000Y-78828571D01*
X107500000Y-78771428D02*
X107128571Y-78771428D01*
X107328571Y-79000000D01*
X107242857Y-79000000D01*
X107185714Y-79028571D01*
X107157142Y-79057142D01*
X107128571Y-79114285D01*
X107128571Y-79257142D01*
X107157142Y-79314285D01*
X107185714Y-79342857D01*
X107242857Y-79371428D01*
X107414285Y-79371428D01*
X107471428Y-79342857D01*
X107500000Y-79314285D01*
X123500000Y-82814285D02*
X123528571Y-82842857D01*
X123614285Y-82871428D01*
X123671428Y-82871428D01*
X123757142Y-82842857D01*
X123814285Y-82785714D01*
X123842857Y-82728571D01*
X123871428Y-82614285D01*
X123871428Y-82528571D01*
X123842857Y-82414285D01*
X123814285Y-82357142D01*
X123757142Y-82300000D01*
X123671428Y-82271428D01*
X123614285Y-82271428D01*
X123528571Y-82300000D01*
X123500000Y-82328571D01*
X123271428Y-82328571D02*
X123242857Y-82300000D01*
X123185714Y-82271428D01*
X123042857Y-82271428D01*
X122985714Y-82300000D01*
X122957142Y-82328571D01*
X122928571Y-82385714D01*
X122928571Y-82442857D01*
X122957142Y-82528571D01*
X123300000Y-82871428D01*
X122928571Y-82871428D01*
X118000000Y-86014285D02*
X118028571Y-86042857D01*
X118114285Y-86071428D01*
X118171428Y-86071428D01*
X118257142Y-86042857D01*
X118314285Y-85985714D01*
X118342857Y-85928571D01*
X118371428Y-85814285D01*
X118371428Y-85728571D01*
X118342857Y-85614285D01*
X118314285Y-85557142D01*
X118257142Y-85500000D01*
X118171428Y-85471428D01*
X118114285Y-85471428D01*
X118028571Y-85500000D01*
X118000000Y-85528571D01*
X117428571Y-86071428D02*
X117771428Y-86071428D01*
X117600000Y-86071428D02*
X117600000Y-85471428D01*
X117657142Y-85557142D01*
X117714285Y-85614285D01*
X117771428Y-85642857D01*
D11*
X123010000Y-84515000D02*
X123235000Y-84515000D01*
X119015000Y-88735000D02*
X119015000Y-88510000D01*
X119240000Y-88735000D02*
X119015000Y-88735000D01*
X123235000Y-88735000D02*
X123235000Y-88510000D01*
X123010000Y-88735000D02*
X123235000Y-88735000D01*
X119015000Y-84515000D02*
X119015000Y-84740000D01*
X119240000Y-84515000D02*
X119015000Y-84515000D01*
X91427751Y-80397512D02*
X86144411Y-83698909D01*
X83753350Y-80570630D02*
X84558996Y-80067207D01*
X84256773Y-81376276D02*
X83753350Y-80570630D01*
X88858600Y-77380516D02*
X88492955Y-76795363D01*
X89664245Y-76877093D02*
X88858600Y-77380516D01*
X90167669Y-77682739D02*
X89664245Y-76877093D01*
X79143934Y-113656066D02*
X79356066Y-113443934D01*
X84350000Y-119050000D02*
X84350000Y-118750000D01*
X80343934Y-112381066D02*
X80556066Y-112168934D01*
X87000000Y-118500000D02*
X86700000Y-118500000D01*
X87080000Y-121910000D02*
X87080000Y-120450000D01*
X83920000Y-121910000D02*
X83920000Y-119750000D01*
X83920000Y-121910000D02*
X84850000Y-121910000D01*
X87080000Y-121910000D02*
X86150000Y-121910000D01*
X89760000Y-118620000D02*
X88300000Y-118620000D01*
X89760000Y-121780000D02*
X87600000Y-121780000D01*
X89760000Y-121780000D02*
X89760000Y-120850000D01*
X89760000Y-118620000D02*
X89760000Y-119550000D01*
X109205901Y-79651967D02*
X110665901Y-79651967D01*
X109205901Y-76491967D02*
X111365901Y-76491967D01*
X109205901Y-76491967D02*
X109205901Y-77421967D01*
X109205901Y-79651967D02*
X109205901Y-78721967D01*
X85950000Y-118500000D02*
X85650000Y-118500000D01*
X118725000Y-112125000D02*
X118725000Y-112425000D01*
X112466421Y-118496878D02*
X112254289Y-118709010D01*
X118725000Y-113325000D02*
X118725000Y-113625000D01*
X122850000Y-111150000D02*
X122550000Y-111150000D01*
X114431066Y-122381066D02*
X114218934Y-122168934D01*
X122850000Y-114650000D02*
X122550000Y-114650000D01*
X119740000Y-112705000D02*
X121200000Y-112705000D01*
X119740000Y-109545000D02*
X121900000Y-109545000D01*
X119740000Y-109545000D02*
X119740000Y-110475000D01*
X119740000Y-112705000D02*
X119740000Y-111775000D01*
X111147667Y-121251059D02*
X112180043Y-122283434D01*
X113382125Y-119016601D02*
X114909475Y-120543952D01*
X113382125Y-119016601D02*
X112724515Y-119674210D01*
X111147667Y-121251059D02*
X111805276Y-120593449D01*
X119740000Y-116205000D02*
X121200000Y-116205000D01*
X119740000Y-113045000D02*
X121900000Y-113045000D01*
X119740000Y-113045000D02*
X119740000Y-113975000D01*
X119740000Y-116205000D02*
X119740000Y-115275000D01*
X87450000Y-122350000D02*
X87450000Y-123050000D01*
X90000000Y-122350000D02*
X90000000Y-123050000D01*
X111949353Y-78275000D02*
X112649353Y-78275000D01*
X107250000Y-77325000D02*
X107950000Y-77325000D01*
X122900000Y-83650000D02*
X122900000Y-83350000D01*
X118150000Y-87150000D02*
X117850000Y-87150000D01*
M02*
