M48
; DRILL file {KiCad 6.0.0-d3dd2cf0fa~116~ubuntu20.04.1} date Wed 19 Jan 2022 12:51:49 AM CET
; FORMAT={-:-/ absolute / metric / decimal}
; #@! TF.CreationDate,2022-01-19T00:51:49+01:00
; #@! TF.GenerationSoftware,Kicad,Pcbnew,6.0.0-d3dd2cf0fa~116~ubuntu20.04.1
; #@! TF.FileFunction,Plated,1,2,PTH
FMAT,2
METRIC
; #@! TA.AperFunction,Plated,PTH,ViaDrill
T1C0.300
; #@! TA.AperFunction,Plated,PTH,ComponentDrill
T2C0.500
; #@! TA.AperFunction,Plated,PTH,ComponentDrill
T3C1.530
; #@! TA.AperFunction,Plated,PTH,ComponentDrill
T4C3.000
%
G90
G05
T1
X77.2Y-112.8
X77.6Y-87.6
X78.275Y-112.6
X78.6Y-109.0
X78.8Y-89.6
X79.55Y-111.375
X79.6Y-115.6
X82.0Y-83.6
X82.2Y-112.8
X84.425Y-84.55
X84.45Y-80.825
X84.925Y-83.15
X85.425Y-83.925
X85.425Y-117.225
X85.5Y-122.15
X85.5Y-123.1
X86.2Y-116.6
X87.575Y-120.2
X88.2Y-122.125
X89.2Y-119.0
X90.125Y-122.375
X90.225Y-121.45
X91.875Y-77.35
X91.95Y-79.775
X91.975Y-122.4
X103.75Y-77.375
X105.6Y-79.225
X105.975Y-75.85
X109.775Y-76.975
X112.325Y-76.6
X112.325Y-80.1
X113.3Y-119.5
X113.6Y-81.075
X114.624Y-79.496
X116.1Y-78.325
X118.125Y-115.35
X118.375Y-111.275
X118.8Y-88.725
X119.05Y-89.5
X119.35Y-90.35
X119.625Y-112.275
X119.625Y-113.475
X119.675Y-110.075
X120.225Y-87.075
X120.475Y-115.9
X120.8Y-106.825
X121.175Y-87.375
X121.45Y-86.025
X122.575Y-112.875
X122.875Y-89.875
X123.05Y-109.525
X123.075Y-92.0
X123.075Y-93.225
X123.1Y-100.775
T2
X77.75Y-80.0
X77.75Y-120.0
X78.409Y-78.409
X78.409Y-81.591
X78.409Y-118.409
X78.409Y-121.591
X80.0Y-77.75
X80.0Y-82.25
X80.0Y-117.75
X80.0Y-122.25
X81.591Y-78.409
X81.591Y-81.591
X81.591Y-118.409
X81.591Y-121.591
X82.25Y-80.0
X82.25Y-120.0
X117.75Y-80.0
X117.75Y-120.0
X118.409Y-78.409
X118.409Y-81.591
X118.409Y-118.409
X118.409Y-121.591
X120.0Y-77.75
X120.0Y-82.25
X120.0Y-117.75
X120.0Y-122.25
X121.591Y-78.409
X121.591Y-81.591
X121.591Y-118.409
X121.591Y-121.591
X122.25Y-80.0
X122.25Y-120.0
T3
X91.9Y-120.85
X94.0Y-121.5
X96.175Y-122.0
X99.7Y-122.325
X101.9Y-122.2
X104.125Y-121.875
X106.275Y-121.4
X108.425Y-120.65
T4
X80.0Y-80.0
X80.0Y-120.0
X120.0Y-80.0
X120.0Y-120.0
T0
M30
